<svg width="95" height="95" viewBox="0 0 95 95" fill="none" xmlns="http://www.w3.org/2000/svg">
<path d="M73.6204 33.2501C76.6346 33.2496 79.5361 34.3952 81.7368 36.4548C83.9376 38.5144 85.2727 41.3338 85.4717 44.3414L85.4954 45.1204V48.7161C80.4841 44.5779 74.1102 42.4561 67.6184 42.7652C61.1266 43.0742 54.9831 45.7919 50.3875 50.3874C45.7919 54.983 43.0742 61.1265 42.7652 67.6183C42.4562 74.1101 44.5779 80.484 48.7162 85.4954H45.1252C42.1103 85.4958 39.208 84.3495 37.0072 82.2889C34.8064 80.2284 33.4717 77.4078 33.2739 74.3994L33.2502 73.6251V45.1251C33.2497 42.1102 34.396 39.208 36.4566 37.0072C38.5172 34.8063 41.3377 33.4717 44.3462 33.2739L45.1204 33.2501H73.6204ZM60.1352 17.5419L60.3632 18.2924L63.0944 28.4906H42.7454C39.1107 28.4904 35.6132 29.8792 32.9687 32.3727C30.3241 34.8663 28.7324 38.2761 28.5192 41.9046L28.5002 42.7454V68.1484C26.0738 68.0956 23.7217 67.3013 21.7601 65.8722C19.7985 64.443 18.3215 62.4476 17.5277 60.1541L17.2807 59.3466L9.90391 31.8204C9.12243 28.9084 9.47783 25.8083 10.898 23.1487C12.3182 20.4892 14.6968 18.4694 17.5514 17.4991L18.3019 17.2759L45.8282 9.89913C48.6111 9.15312 51.5703 9.44431 54.1544 10.7185C56.7385 11.9926 58.7713 14.1628 59.8739 16.8246L60.1447 17.5466L60.1352 17.5419ZM90.2454 68.8751C90.2454 74.5441 87.9934 79.9809 83.9848 83.9895C79.9762 87.9981 74.5394 90.2501 68.8704 90.2501C63.2014 90.2501 57.7646 87.9981 53.756 83.9895C49.7474 79.9809 47.4954 74.5441 47.4954 68.8751C47.4954 63.2061 49.7474 57.7693 53.756 53.7607C57.7646 49.7521 63.2014 47.5001 68.8704 47.5001C74.5394 47.5001 79.9762 49.7521 83.9848 53.7607C87.9934 57.7693 90.2454 63.2061 90.2454 68.8751ZM71.2454 59.3751C71.2454 58.7452 70.9952 58.1411 70.5498 57.6957C70.1044 57.2503 69.5003 57.0001 68.8704 57.0001C68.2405 57.0001 67.6364 57.2503 67.191 57.6957C66.7456 58.1411 66.4954 58.7452 66.4954 59.3751V66.5001H59.3704C58.7405 66.5001 58.1364 66.7503 57.691 67.1957C57.2456 67.6411 56.9954 68.2452 56.9954 68.8751C56.9954 69.505 57.2456 70.1091 57.691 70.5545C58.1364 70.9999 58.7405 71.2501 59.3704 71.2501H66.5002V78.3751C66.5002 79.005 66.7504 79.6091 67.1958 80.0545C67.6412 80.4999 68.2453 80.7501 68.8752 80.7501C69.5051 80.7501 70.1091 80.4999 70.5545 80.0545C70.9999 79.6091 71.2502 79.005 71.2502 78.3751V71.2501H78.3752C79.0051 71.2501 79.6091 70.9999 80.0545 70.5545C80.4999 70.1091 80.7502 69.505 80.7502 68.8751C80.7502 68.2452 80.4999 67.6411 80.0545 67.1957C79.6091 66.7503 79.0051 66.5001 78.3752 66.5001H71.2502V59.3751H71.2454Z" fill="#00CDB4"/>
</svg>
