<svg width="1288" height="607" viewBox="0 0 1288 607" fill="none" xmlns="http://www.w3.org/2000/svg">
<g clip-path="url(#clip0_388_35234)">
<rect width="1288" height="607" fill="url(#paint0_linear_388_35234)"/>
<path d="M941.397 623.773C925.251 623.77 909.673 617.907 894.453 609.599C893.122 608.7 891.794 607.78 890.468 606.843C890.071 606.509 889.674 606.176 889.278 605.841C889.943 606.229 890.61 606.614 891.277 606.996C907.563 616.297 924.184 623.05 941.379 623.05C941.385 623.05 941.392 623.05 941.397 623.05C945.635 623.05 949.909 622.64 954.224 621.759C983.92 615.713 1005.31 592.082 1024.27 572.464C1026.08 570.591 1027.87 568.755 1029.64 566.974C1029.81 566.806 1029.98 566.637 1030.14 566.47C1028.17 568.789 1026.18 571.182 1024.16 573.623C1022.29 575.561 1020.39 577.534 1018.47 579.527C1001.04 597.557 981.077 617.012 954.367 622.47C950.003 623.36 945.681 623.773 941.397 623.773ZM1098.55 615.873C1098.24 615.873 1097.93 615.867 1097.63 615.855C1098.1 615.624 1098.57 615.386 1099.03 615.146C1099.57 615.135 1100.13 615.109 1100.71 615.062C1101.57 614.996 1102.43 614.902 1103.3 614.78C1102.36 615.144 1101.43 615.486 1100.5 615.803C1099.82 615.851 1099.18 615.873 1098.57 615.873C1098.56 615.873 1098.56 615.873 1098.55 615.873ZM1096.01 615.718C1093.36 615.368 1091.46 614.438 1090.17 613.007C1088.51 611.151 1087.91 608.536 1087.91 605.447C1087.92 597.516 1091.8 586.201 1092.68 575.355C1092.69 575.197 1092.7 575.039 1092.71 574.878C1092.79 573.872 1092.83 572.871 1092.85 571.876C1092.85 571.682 1092.85 571.49 1092.85 571.295C1092.85 571.267 1092.85 571.238 1092.85 571.21C1092.85 570.311 1092.82 569.419 1092.76 568.539C1092.75 568.289 1092.73 568.042 1092.71 567.794C1092.63 566.973 1092.53 566.161 1092.4 565.359C1092.34 565.003 1092.28 564.648 1092.2 564.295C1092.07 563.643 1091.92 562.997 1091.74 562.361C1091.54 561.667 1091.32 560.985 1091.06 560.313C1090.9 559.903 1090.73 559.498 1090.55 559.097C1090.46 558.325 1090.34 557.566 1090.19 556.821C1091.18 558.534 1091.92 560.345 1092.45 562.227C1092.65 562.926 1092.82 563.635 1092.96 564.354C1093.01 564.643 1093.07 564.934 1093.12 565.225C1093.18 565.582 1093.23 565.94 1093.28 566.3C1093.37 566.993 1093.44 567.69 1093.48 568.395C1093.5 568.642 1093.52 568.892 1093.53 569.141C1093.56 569.826 1093.58 570.516 1093.57 571.21C1093.57 571.382 1093.57 571.557 1093.57 571.73C1093.57 571.923 1093.56 572.117 1093.56 572.311C1093.54 573.276 1093.48 574.245 1093.41 575.218C1093.4 575.377 1093.38 575.536 1093.37 575.695C1092.44 586.579 1088.63 597.789 1088.63 605.447C1088.63 608.453 1089.22 610.869 1090.71 612.522C1092.03 613.98 1094.09 614.911 1097.25 615.11C1096.83 615.315 1096.42 615.519 1096.01 615.718ZM1103.73 615.447C1104.8 615.033 1105.87 614.593 1106.95 614.126C1109.15 613.647 1111.4 613.014 1113.69 612.253C1114.65 611.932 1115.62 611.588 1116.6 611.225C1118.43 610.538 1120.29 609.778 1122.17 608.957C1122.64 608.748 1123.12 608.534 1123.6 608.319C1125.67 607.381 1127.77 606.37 1129.89 605.303C1130.2 605.148 1130.51 604.99 1130.82 604.832C1132.92 603.759 1135.05 602.631 1137.2 601.466C1137.44 601.334 1137.68 601.205 1137.92 601.074C1139.85 600.023 1141.79 598.944 1143.74 597.847C1143.95 597.729 1144.16 597.609 1144.37 597.491C1148.01 595.44 1151.7 593.327 1155.43 591.224C1173.23 581.179 1191.82 571.359 1210.14 569.508C1210.62 569.691 1211.11 569.889 1211.61 570.103C1193.05 571.555 1174.02 581.552 1155.78 591.855C1152.34 593.796 1148.93 595.75 1145.55 597.657C1145.33 597.778 1145.12 597.898 1144.91 598.019C1142.97 599.111 1141.04 600.189 1139.13 601.24C1138.88 601.377 1138.63 601.513 1138.38 601.648C1136.32 602.777 1134.27 603.872 1132.24 604.919C1131.91 605.089 1131.58 605.258 1131.25 605.423C1129.35 606.393 1127.47 607.322 1125.6 608.195C1125.08 608.438 1124.56 608.679 1124.04 608.912C1122.81 609.474 1121.58 610.009 1120.36 610.515C1119.25 610.976 1118.15 611.415 1117.05 611.827C1112.48 613.547 1108.03 614.813 1103.73 615.447ZM1317.89 613.244C1282.32 613.238 1255.57 589.949 1236.27 577.555C1236.1 577.448 1235.94 577.341 1235.77 577.236C1235.68 577.181 1235.6 577.129 1235.52 577.076C1234.68 576.545 1233.86 576.035 1233.05 575.549C1232.84 575.425 1232.63 575.304 1232.43 575.184C1231.47 574.617 1230.53 574.086 1229.6 573.598C1229.33 573.455 1229.07 573.317 1228.8 573.181C1227.98 572.762 1227.18 572.379 1226.39 572.035C1226 571.862 1225.61 571.698 1225.22 571.545C1224.57 571.286 1223.92 571.057 1223.3 570.857C1222.51 570.607 1221.74 570.408 1220.99 570.261C1220.23 570.112 1219.48 570.017 1218.75 569.983C1218.63 569.978 1218.5 569.972 1218.37 569.967C1217.65 569.675 1216.94 569.418 1216.25 569.199C1217.1 569.199 1217.95 569.22 1218.79 569.259C1220.32 569.335 1221.91 569.657 1223.58 570.186C1224.21 570.39 1224.86 570.621 1225.51 570.882C1225.91 571.04 1226.32 571.21 1226.72 571.39C1227.1 571.555 1227.48 571.729 1227.86 571.91C1228.55 572.238 1229.25 572.593 1229.97 572.971C1230.23 573.111 1230.5 573.256 1230.76 573.404C1231.64 573.884 1232.53 574.396 1233.43 574.941C1233.64 575.061 1233.84 575.184 1234.05 575.31C1234.66 575.682 1235.28 576.067 1235.9 576.465C1236.17 576.632 1236.44 576.803 1236.7 576.976C1236.87 577.083 1237.04 577.19 1237.2 577.299C1243.36 581.286 1250.23 586.306 1257.86 591.295C1274.22 601.984 1294.09 612.522 1317.89 612.52C1325.92 612.52 1334.41 611.322 1343.36 608.522L1343.57 609.213C1334.55 612.035 1325.99 613.244 1317.89 613.244ZM887.183 605.443C886.422 604.99 885.664 604.534 884.905 604.073C883.031 602.931 881.163 601.764 879.298 600.577C874.452 597.49 869.635 594.266 864.839 591.023C840.231 574.358 816.182 557.127 791.867 554.671C789.364 554.416 786.988 554.295 784.721 554.295C762.051 554.297 750.331 566.36 734.496 578.7C733.368 579.579 732.219 580.461 731.044 581.336C731.851 580.503 732.643 579.662 733.421 578.818C733.83 578.436 734.235 578.054 734.636 577.673C750.113 565.548 762.037 553.571 784.716 553.571C784.717 553.571 784.72 553.571 784.721 553.571C787.012 553.571 789.414 553.694 791.94 553.949C816.545 556.455 840.639 573.775 865.244 590.421C870.376 593.896 875.53 597.343 880.715 600.619C882.865 602.262 885.021 603.873 887.183 605.443ZM660.011 604.089L660 603.365C682.931 603.032 699.173 598.531 711.888 592.356C712.188 592.209 712.485 592.063 712.779 591.917C713.227 591.695 713.671 591.468 714.11 591.242C714.518 591.032 714.925 590.818 715.327 590.602C715.527 590.494 715.724 590.388 715.923 590.281C718.334 588.971 720.618 587.604 722.798 586.201C724.473 585.124 726.087 584.024 727.652 582.912C725.338 584.867 722.906 586.775 720.311 588.603C720.309 588.606 720.305 588.607 720.302 588.609C719.753 588.938 719.199 589.266 718.634 589.591C718.17 589.858 717.703 590.124 717.231 590.388C716.847 590.6 716.46 590.814 716.071 591.025C715.504 591.329 714.929 591.632 714.348 591.932C714.064 592.08 713.779 592.224 713.49 592.37C700.495 598.91 683.809 603.754 660.011 604.089ZM1213.41 569.988C1212.92 569.764 1212.45 569.55 1211.98 569.351C1212.44 569.316 1212.9 569.29 1213.37 569.266C1214.19 569.412 1215.06 569.634 1215.96 569.922C1215.11 569.926 1214.26 569.947 1213.41 569.988ZM1031.51 566.126C1031.61 565.988 1031.71 565.853 1031.81 565.716C1033.52 563.728 1035.21 561.807 1036.89 559.97C1038.86 558.16 1040.82 556.452 1042.77 554.88C1050.78 548.436 1058.74 544.211 1067.16 544.209C1070.58 544.209 1074.06 544.906 1077.64 546.421C1082 548.261 1085.26 550.61 1087.66 553.318C1087.69 553.708 1087.71 554.103 1087.72 554.502C1085.35 551.584 1082 549.061 1077.36 547.088C1073.86 545.609 1070.48 544.933 1067.16 544.933C1067.16 544.933 1067.16 544.933 1067.16 544.933C1058.99 544.933 1051.18 549.045 1043.22 555.445C1040.74 557.437 1038.25 559.652 1035.73 562.03C1034.33 563.348 1032.93 564.717 1031.51 566.126ZM1089.41 556.906C1089.14 556.468 1088.86 556.035 1088.56 555.61C1088.56 555.485 1088.56 555.364 1088.56 555.241C1088.56 554.956 1088.56 554.673 1088.55 554.391C1088.65 554.518 1088.74 554.646 1088.84 554.775C1089.06 555.469 1089.25 556.181 1089.41 556.906Z" fill="#A4A4A4"/>
<path d="M668.825 610.793C688.604 610.511 703.114 605.222 714.46 597.442C731.482 585.771 741.38 568.55 751.484 554.322C756.535 547.204 761.634 540.836 767.67 536.264C773.706 531.69 780.661 528.895 789.523 528.891C790.997 528.891 792.525 528.97 794.11 529.13C806.53 530.385 819.057 537.956 831.695 548.66C850.656 564.71 869.851 587.766 889.492 606.824C909.138 625.875 929.241 640.985 950.176 641C953.005 641 955.849 640.723 958.706 640.141C986.227 634.502 1005.26 607.348 1021.68 581.714C1029.89 568.892 1037.45 556.43 1045.03 547.206C1052.62 537.966 1060.21 532.029 1068.42 532.039C1070.83 532.041 1073.3 532.546 1075.87 533.635C1079.53 535.186 1082.03 537.291 1083.62 539.826C1085.21 542.362 1085.9 545.352 1085.9 548.694C1085.92 559.63 1078.34 574.231 1070.72 587.719C1066.92 594.468 1063.1 600.949 1060.24 606.598C1057.37 612.254 1055.44 617.053 1055.43 620.577C1055.42 622.313 1055.93 623.787 1057.09 624.787C1058.25 625.785 1059.99 626.278 1062.36 626.278C1062.85 626.278 1063.37 626.258 1063.92 626.215C1080.31 624.914 1100.03 610.085 1122 595.634C1143.95 581.17 1168.1 567.079 1193 567.086C1194.57 567.086 1196.15 567.143 1197.73 567.257C1202.27 567.575 1209.74 571.484 1219.13 577.194C1247.35 594.311 1293.15 627.498 1335.66 627.516C1346.8 627.516 1357.71 625.231 1368 619.768L1367.59 618.98C1357.44 624.368 1346.68 626.625 1335.66 626.625C1307.63 626.632 1277.93 611.96 1252.89 597.077C1240.37 589.639 1229.01 582.152 1219.59 576.432C1210.16 570.714 1202.71 566.745 1197.79 566.369C1196.19 566.252 1194.6 566.194 1193 566.194C1167.75 566.202 1143.5 580.418 1121.51 594.889C1099.54 609.373 1079.78 624.108 1063.85 625.326C1063.32 625.367 1062.83 625.387 1062.36 625.387C1060.1 625.388 1058.59 624.91 1057.67 624.111C1056.75 623.315 1056.32 622.16 1056.32 620.577C1056.31 617.375 1058.18 612.609 1061.03 607.003C1065.3 598.584 1071.73 588.227 1077.1 577.879C1082.46 567.527 1086.79 557.191 1086.79 548.694C1086.79 545.228 1086.07 542.059 1084.37 539.351C1082.67 536.644 1080.01 534.417 1076.22 532.813C1073.55 531.683 1070.95 531.148 1068.42 531.15C1059.75 531.161 1051.99 537.344 1044.34 546.637C1032.88 560.592 1021.59 581.696 1008.07 600.341C994.541 618.992 978.797 635.137 958.528 639.267C955.732 639.837 952.947 640.109 950.176 640.109C922.865 640.144 896.441 613.568 870.637 586.228C857.729 572.566 844.968 558.731 832.269 547.977C819.567 537.229 806.921 529.539 794.198 528.245C792.585 528.08 791.028 528 789.523 528C777.452 527.995 768.719 533.13 761.279 540.772C750.113 552.239 741.705 569.334 728.722 583.637C715.736 597.935 698.25 609.469 668.812 609.901L668.825 610.793Z" fill="white"/>
<path d="M-43.56 138.078L44.0923 -10.2655L147.217 61.9829L-43.56 138.078Z" fill="url(#paint1_linear_388_35234)"/>
</g>
<defs>
<linearGradient id="paint0_linear_388_35234" x1="644" y1="0" x2="1069.45" y2="564.372" gradientUnits="userSpaceOnUse">
<stop stop-color="#17014B"/>
<stop offset="0.525624" stop-color="#4B3878"/>
<stop offset="0.782677" stop-color="#3F2C6D"/>
<stop offset="1" stop-color="#48396D"/>
</linearGradient>
<linearGradient id="paint1_linear_388_35234" x1="20.1652" y1="-2.90549" x2="67.5343" y2="140.558" gradientUnits="userSpaceOnUse">
<stop stop-color="#2D014B"/>
<stop offset="1" stop-color="#2D014B" stop-opacity="0"/>
</linearGradient>
<clipPath id="clip0_388_35234">
<rect width="1288" height="607" fill="white"/>
</clipPath>
</defs>
</svg>
