<svg width="95" height="95" viewBox="0 0 95 95" fill="none" xmlns="http://www.w3.org/2000/svg">
<path d="M47.5007 79.1663C46.3791 79.1663 45.4384 78.7863 44.6784 78.0263C43.9184 77.2663 43.5397 76.3269 43.5423 75.208V46.9059L36.1205 54.3278C35.3948 55.0535 34.454 55.4005 33.2982 55.3688C32.1423 55.3372 31.2029 54.9572 30.4798 54.2288C29.7541 53.5032 29.3913 52.5795 29.3913 51.458C29.3913 50.3365 29.7541 49.4129 30.4798 48.6872L44.7298 34.4372C45.1257 34.0413 45.5545 33.7616 46.0163 33.598C46.4781 33.4344 46.9729 33.3513 47.5007 33.3486C48.0284 33.3486 48.5232 33.4318 48.985 33.598C49.4468 33.7643 49.8757 34.044 50.2715 34.4372L64.5215 48.6872C65.2472 49.4129 65.61 50.3365 65.61 51.458C65.61 52.5795 65.2472 53.5032 64.5215 54.2288C63.7958 54.9545 62.855 55.3345 61.6992 55.3688C60.5434 55.4032 59.6039 55.0561 58.8809 54.3278L51.459 46.9059V75.208C51.459 76.3295 51.079 77.2703 50.319 78.0303C49.559 78.7903 48.6196 79.169 47.5007 79.1663ZM19.7923 35.6247C18.6708 35.6247 17.73 35.2447 16.97 34.4847C16.21 33.7247 15.8314 32.7852 15.834 31.6663V23.7497C15.834 21.5726 16.6098 19.7082 18.1615 18.1566C19.7132 16.6049 21.5762 15.8304 23.7507 15.833H71.2507C73.4277 15.833 75.2921 16.6088 76.8438 18.1605C78.3955 19.7122 79.17 21.5752 79.1673 23.7497V31.6663C79.1673 32.7879 78.7873 33.7286 78.0273 34.4886C77.2673 35.2486 76.3279 35.6273 75.209 35.6247C74.0875 35.6247 73.1467 35.2447 72.3867 34.4847C71.6267 33.7247 71.248 32.7852 71.2507 31.6663V23.7497H23.7507V31.6663C23.7507 32.7879 23.3707 33.7286 22.6107 34.4886C21.8507 35.2486 20.9112 35.6273 19.7923 35.6247Z" fill="#00CDB4"/>
</svg>
