<svg width="26" height="17" viewBox="0 0 26 17" fill="none" xmlns="http://www.w3.org/2000/svg">
<path fill-rule="evenodd" clip-rule="evenodd" d="M0 8.5C0 8.24955 0.0978251 8.00937 0.271955 7.83227C0.446085 7.65518 0.682255 7.55569 0.928512 7.55569H22.8284L16.9843 1.61408C16.81 1.43676 16.712 1.19627 16.712 0.945505C16.712 0.694741 16.81 0.454248 16.9843 0.276932C17.1587 0.0996152 17.3952 5.90819e-09 17.6417 0C17.8883 -5.90819e-09 18.1248 0.0996152 18.2991 0.276932L25.7272 7.83143C25.8137 7.91915 25.8823 8.02335 25.9291 8.13808C25.9759 8.2528 26 8.37579 26 8.5C26 8.62421 25.9759 8.7472 25.9291 8.86192C25.8823 8.97665 25.8137 9.08085 25.7272 9.16857L18.2991 16.7231C18.1248 16.9004 17.8883 17 17.6417 17C17.3952 17 17.1587 16.9004 16.9843 16.7231C16.81 16.5458 16.712 16.3053 16.712 16.0545C16.712 15.8037 16.81 15.5632 16.9843 15.3859L22.8284 9.44431H0.928512C0.682255 9.44431 0.446085 9.34482 0.271955 9.16773C0.0978251 8.99064 0 8.75045 0 8.5Z" fill="#00CDB4"/>
</svg>
