<svg width="14" height="13" viewBox="0 0 14 13" fill="none" xmlns="http://www.w3.org/2000/svg">
<path d="M4.18745 0C4.30812 0 4.42385 0.0479374 4.50918 0.133266C4.59451 0.218595 4.64245 0.334327 4.64245 0.455V1.30585H9.5285V0.46085C9.5285 0.340177 9.57644 0.224445 9.66177 0.139116C9.7471 0.0537874 9.86283 0.00585 9.9835 0.00585C10.1042 0.00585 10.2199 0.0537874 10.3052 0.139116C10.3906 0.224445 10.4385 0.340177 10.4385 0.46085V1.30585H12.2C12.5447 1.30585 12.8752 1.44272 13.119 1.68638C13.3628 1.93004 13.4998 2.26053 13.5 2.6052V11.7006C13.4998 12.0453 13.3628 12.3758 13.119 12.6195C12.8752 12.8631 12.5447 13 12.2 13H1.8C1.45533 13 1.12477 12.8631 0.880991 12.6195C0.637212 12.3758 0.500172 12.0453 0.5 11.7006V2.6052C0.500172 2.26053 0.637212 1.93004 0.880991 1.68638C1.12477 1.44272 1.45533 1.30585 1.8 1.30585H3.73245V0.45435C3.73262 0.333789 3.78064 0.218225 3.86595 0.133037C3.95126 0.047848 4.06689 -1.23021e-07 4.18745 0ZM1.41 5.0323V11.7006C1.41 11.7519 1.42009 11.8026 1.43969 11.8499C1.45929 11.8972 1.48801 11.9402 1.52423 11.9764C1.56044 12.0126 1.60344 12.0414 1.65075 12.061C1.69807 12.0806 1.74878 12.0907 1.8 12.0907H12.2C12.2512 12.0907 12.3019 12.0806 12.3492 12.061C12.3966 12.0414 12.4396 12.0126 12.4758 11.9764C12.512 11.9402 12.5407 11.8972 12.5603 11.8499C12.5799 11.8026 12.59 11.7519 12.59 11.7006V5.0414L1.41 5.0323ZM4.83355 9.50235V10.5852H3.75V9.50235H4.83355ZM7.54145 9.50235V10.5852H6.45855V9.50235H7.54145ZM10.25 9.50235V10.5852H9.16645V9.50235H10.25ZM4.83355 6.9173V8.0002H3.75V6.9173H4.83355ZM7.54145 6.9173V8.0002H6.45855V6.9173H7.54145ZM10.25 6.9173V8.0002H9.16645V6.9173H10.25ZM3.73245 2.2152H1.8C1.74878 2.2152 1.69807 2.22529 1.65075 2.24489C1.60344 2.26449 1.56044 2.29321 1.52423 2.32943C1.48801 2.36564 1.45929 2.40864 1.43969 2.45595C1.42009 2.50327 1.41 2.55398 1.41 2.6052V4.12295L12.59 4.13205V2.6052C12.59 2.55398 12.5799 2.50327 12.5603 2.45595C12.5407 2.40864 12.512 2.36564 12.4758 2.32943C12.4396 2.29321 12.3966 2.26449 12.3492 2.24489C12.3019 2.22529 12.2512 2.2152 12.2 2.2152H10.4385V2.81905C10.4385 2.93972 10.3906 3.05545 10.3052 3.14078C10.2199 3.22611 10.1042 3.27405 9.9835 3.27405C9.86283 3.27405 9.7471 3.22611 9.66177 3.14078C9.57644 3.05545 9.5285 2.93972 9.5285 2.81905V2.2152H4.64245V2.8132C4.64245 2.93387 4.59451 3.0496 4.50918 3.13493C4.42385 3.22026 4.30812 3.2682 4.18745 3.2682C4.06678 3.2682 3.95105 3.22026 3.86572 3.13493C3.78039 3.0496 3.73245 2.93387 3.73245 2.8132V2.2152Z" fill="#6A6A6A"/>
</svg>
