<svg width="16" height="16" viewBox="0 0 16 16" fill="none" xmlns="http://www.w3.org/2000/svg">
<g id="error">
<rect width="16" height="16" fill="white" fill-opacity="0.01"/>
<path id="Vector" fill-rule="evenodd" clip-rule="evenodd" d="M8.5109 2.6544C8.67288 2.72151 8.82004 2.81989 8.94399 2.9439L13.056 7.05523C13.1801 7.17919 13.2786 7.32639 13.3457 7.48843C13.4129 7.65047 13.4475 7.82415 13.4475 7.99956C13.4475 8.17497 13.4129 8.34866 13.3457 8.5107C13.2786 8.67273 13.1801 8.81994 13.056 8.9439L8.94399 13.0552C8.82004 13.1792 8.67288 13.2776 8.5109 13.3447C8.34893 13.4118 8.17532 13.4464 7.99999 13.4464C7.82466 13.4464 7.65104 13.4118 7.48907 13.3447C7.32709 13.2776 7.17993 13.1792 7.05599 13.0552L2.94399 8.9439C2.81988 8.81994 2.72142 8.67273 2.65424 8.5107C2.58707 8.34866 2.55249 8.17497 2.55249 7.99956C2.55249 7.82415 2.58707 7.65047 2.65424 7.48843C2.72142 7.32639 2.81988 7.17919 2.94399 7.05523L7.05599 2.9439C7.17993 2.81989 7.32709 2.72151 7.48907 2.6544C7.65104 2.58728 7.82466 2.55273 7.99999 2.55273C8.17532 2.55273 8.34893 2.58728 8.5109 2.6544ZM7.52858 9.1373C7.6536 9.26232 7.82317 9.33256 7.99998 9.33256C8.1768 9.33256 8.34636 9.26232 8.47139 9.1373C8.59641 9.01227 8.66665 8.8427 8.66665 8.66589V5.33256C8.66665 5.15575 8.59641 4.98618 8.47139 4.86116C8.34636 4.73613 8.1768 4.66589 7.99998 4.66589C7.82317 4.66589 7.6536 4.73613 7.52858 4.86116C7.40356 4.98618 7.33332 5.15575 7.33332 5.33256V8.66589C7.33332 8.8427 7.40356 9.01227 7.52858 9.1373ZM7.52858 11.1373C7.6536 11.2623 7.82317 11.3326 7.99998 11.3326C8.1768 11.3326 8.34636 11.2623 8.47139 11.1373C8.59641 11.0123 8.66665 10.8427 8.66665 10.6659C8.66665 10.4891 8.59641 10.3195 8.47139 10.1945C8.34636 10.0695 8.1768 9.99923 7.99998 9.99923C7.82317 9.99923 7.6536 10.0695 7.52858 10.1945C7.40356 10.3195 7.33332 10.4891 7.33332 10.6659C7.33332 10.8427 7.40356 11.0123 7.52858 11.1373Z" fill="#DE350B"/>
</g>
</svg>
