<svg width="16" height="16" viewBox="0 0 16 16" fill="none" xmlns="http://www.w3.org/2000/svg">
<path fill-rule="evenodd" clip-rule="evenodd" d="M5.32965 14.9974L12.6548 5.52453C13.0529 5.01369 13.1945 4.4231 13.0618 3.82174C12.9468 3.27506 12.6106 2.75526 12.1063 2.36094L10.8766 1.38408C9.80615 0.532685 8.47913 0.622305 7.7183 1.59917L6.89555 2.66654C6.78938 2.80008 6.81592 2.99724 6.94863 3.10478C6.94863 3.10478 9.02763 4.77172 9.07187 4.80757C9.21342 4.942 9.31958 5.12124 9.34612 5.33632C9.39035 5.75754 9.09841 6.15187 8.66491 6.20564C8.46143 6.23253 8.2668 6.16979 8.12526 6.05329L5.94009 4.31466C5.83392 4.23489 5.67468 4.25192 5.58621 4.35947L0.393119 11.081C0.0569394 11.5022 -0.0580694 12.0489 0.0569394 12.5776L0.720452 15.4544C0.75584 15.6068 0.888542 15.7143 1.04779 15.7143L3.96724 15.6785C4.49805 15.6695 4.99347 15.4276 5.32965 14.9974ZM9.41751 14.1014H14.178C14.6425 14.1014 15.0202 14.4841 15.0202 14.9546C15.0202 15.426 14.6425 15.8078 14.178 15.8078H9.41751C8.95305 15.8078 8.57529 15.426 8.57529 14.9546C8.57529 14.4841 8.95305 14.1014 9.41751 14.1014Z" fill="#130F26"/>
</svg>
