<svg width="30" height="30" viewBox="0 0 30 30" fill="none" xmlns="http://www.w3.org/2000/svg">
<path d="M24.1754 18.1125L22.9254 16.0375C22.6629 15.575 22.4254 14.7 22.4254 14.1875V11.025C22.4254 8.0875 20.7004 5.55 18.2129 4.3625C17.5629 3.2125 16.3629 2.5 14.9879 2.5C13.6254 2.5 12.4004 3.2375 11.7504 4.4C9.31292 5.6125 7.62542 8.125 7.62542 11.025V14.1875C7.62542 14.7 7.38792 15.575 7.12542 16.025L5.86292 18.1125C5.36292 18.95 5.25042 19.875 5.56292 20.725C5.86292 21.5625 6.57542 22.2125 7.50042 22.525C9.92542 23.35 12.4754 23.75 15.0254 23.75C17.5754 23.75 20.1254 23.35 22.5504 22.5375C23.4254 22.25 24.1004 21.5875 24.4254 20.725C24.7504 19.8625 24.6629 18.9125 24.1754 18.1125Z" fill="#2E3A44"/>
<path d="M18.5371 25.0125C18.0121 26.4625 16.6246 27.5 14.9996 27.5C14.0121 27.5 13.0371 27.1 12.3496 26.3875C11.9496 26.0125 11.6496 25.5125 11.4746 25C11.6371 25.025 11.7996 25.0375 11.9746 25.0625C12.2621 25.1 12.5621 25.1375 12.8621 25.1625C13.5746 25.225 14.2996 25.2625 15.0246 25.2625C15.7371 25.2625 16.4496 25.225 17.1496 25.1625C17.4121 25.1375 17.6746 25.125 17.9246 25.0875C18.1246 25.0625 18.3246 25.0375 18.5371 25.0125Z" fill="#2E3A44"/>
</svg>
