<svg width="84" height="84" viewBox="0 0 84 84" fill="none" xmlns="http://www.w3.org/2000/svg">
<path d="M62.8438 83.125C68.3553 83.125 73.6411 80.9356 77.5383 77.0383C81.4356 73.1411 83.625 67.8553 83.625 62.3438C83.625 56.8322 81.4356 51.5464 77.5383 47.6492C73.6411 43.7519 68.3553 41.5625 62.8438 41.5625C57.3322 41.5625 52.0464 43.7519 48.1492 47.6492C44.2519 51.5464 42.0625 56.8322 42.0625 62.3438C42.0625 67.8553 44.2519 73.1411 48.1492 77.0383C52.0464 80.9356 57.3322 83.125 62.8438 83.125ZM72.8128 56.4478L64.8862 69.6647C64.5379 70.2454 64.0618 70.7389 63.494 71.1079C62.9262 71.4769 62.2818 71.7115 61.6097 71.7939C60.9376 71.8764 60.2555 71.8044 59.6154 71.5836C58.9753 71.3628 58.394 70.999 57.9156 70.5197L53.32 65.93C52.7625 65.3726 52.4494 64.6165 52.4494 63.8281C52.4494 63.0398 52.7625 62.2837 53.32 61.7262C53.8775 61.1688 54.6335 60.8556 55.4219 60.8556C56.2102 60.8556 56.9663 61.1688 57.5238 61.7262L60.7716 64.98L67.7184 53.3959C67.9188 53.0614 68.1831 52.7697 68.4963 52.5373C68.8094 52.305 69.1653 52.1366 69.5435 52.0417C69.9217 51.9469 70.3149 51.9275 70.7006 51.9846C71.0864 52.0418 71.4571 52.1743 71.7916 52.3747C72.1261 52.5751 72.4178 52.8394 72.6502 53.1525C72.8825 53.4657 73.0509 53.8215 73.1458 54.1997C73.2406 54.578 73.26 54.9712 73.2029 55.3569C73.1457 55.7426 73.0132 56.1133 72.8128 56.4478ZM53.9375 17.8125C53.9375 22.5367 52.0608 27.0673 48.7203 30.4078C45.3799 33.7483 40.8492 35.625 36.125 35.625C31.4008 35.625 26.8702 33.7483 23.5297 30.4078C20.1892 27.0673 18.3125 22.5367 18.3125 17.8125C18.3125 13.0883 20.1892 8.55765 23.5297 5.21716C26.8702 1.87667 31.4008 0 36.125 0C40.8492 0 45.3799 1.87667 48.7203 5.21716C52.0608 8.55765 53.9375 13.0883 53.9375 17.8125Z" fill="#00CDB4"/>
<path d="M0.5 65.3125C0.5 71.25 6.4375 71.25 6.4375 71.25H37.645C36.6356 68.3893 36.1216 65.3773 36.125 62.3438C36.1211 58.5251 36.9376 54.7501 38.5192 51.2744C40.1009 47.7987 42.4107 44.7033 45.2925 42.1978C42.5197 41.7881 39.4738 41.5625 36.125 41.5625C6.4375 41.5625 0.5 59.375 0.5 65.3125Z" fill="#00CDB4"/>
</svg>
