<svg width="16" height="17" viewBox="0 0 16 17" fill="none" xmlns="http://www.w3.org/2000/svg">
<path d="M7.9425 0.715717C8.0457 0.586584 8.17349 0.479203 8.31847 0.399789C8.46344 0.320375 8.62274 0.270506 8.78712 0.253068C8.9515 0.23563 9.11771 0.25097 9.27612 0.298199C9.43453 0.345429 9.582 0.42361 9.71 0.528217L13.7875 3.85822C14.0117 4.04131 14.1655 4.29655 14.2225 4.58037C14.2795 4.8642 14.2362 5.15901 14.1 5.41447C13.7435 5.30551 13.3728 5.25032 13 5.25072H12.625L12.9975 4.82572L10.85 3.07197L9.07875 5.25197H7.4675L9.88125 2.28197L8.91875 1.49572L5.92125 5.25072H4.32125L7.9425 0.715717ZM11.125 11.5007C10.9592 11.5007 10.8003 11.5666 10.6831 11.6838C10.5658 11.801 10.5 11.96 10.5 12.1257C10.5 12.2915 10.5658 12.4504 10.6831 12.5677C10.8003 12.6849 10.9592 12.7507 11.125 12.7507H12.375C12.5408 12.7507 12.6997 12.6849 12.8169 12.5677C12.9342 12.4504 13 12.2915 13 12.1257C13 11.96 12.9342 11.801 12.8169 11.6838C12.6997 11.5666 12.5408 11.5007 12.375 11.5007H11.125ZM1.75 5.87572C1.75 5.70996 1.81585 5.55099 1.93306 5.43377C2.05027 5.31657 2.20924 5.25072 2.375 5.25072H3.0725L4.06625 4.00072H2.375C1.87772 4.00072 1.40081 4.19826 1.04917 4.54989C0.697544 4.90152 0.5 5.37844 0.5 5.87572V13.3757C0.5 14.2045 0.82924 14.9994 1.41529 15.5854C2.00134 16.1715 2.7962 16.5007 3.625 16.5007H13C13.663 16.5007 14.2989 16.2373 14.7678 15.7685C15.2366 15.2996 15.5 14.6638 15.5 14.0007V9.00072C15.5 8.33768 15.2366 7.70179 14.7678 7.23295C14.2989 6.76411 13.663 6.50072 13 6.50072H2.375C2.20924 6.50072 2.05027 6.43487 1.93306 6.31766C1.81585 6.20045 1.75 6.04148 1.75 5.87572ZM1.75 13.3757V7.64447C1.945 7.71322 2.15625 7.75072 2.375 7.75072H13C13.3315 7.75072 13.6495 7.88241 13.8839 8.11683C14.1183 8.35125 14.25 8.6692 14.25 9.00072V14.0007C14.25 14.3322 14.1183 14.6502 13.8839 14.8846C13.6495 15.119 13.3315 15.2507 13 15.2507H3.625C3.12772 15.2507 2.65081 15.0532 2.29917 14.7015C1.94754 14.3499 1.75 13.873 1.75 13.3757Z" fill="#A8A8A8"/>
</svg>
