<svg width="20" height="20" viewBox="0 0 20 20" fill="none" xmlns="http://www.w3.org/2000/svg">
<path d="M9.12565 10.5846L7.97982 9.41797C7.81315 9.2513 7.61537 9.16797 7.38648 9.16797C7.1576 9.16797 6.95954 9.2513 6.79232 9.41797C6.62565 9.58463 6.53871 9.78269 6.53148 10.0121C6.52426 10.2416 6.60426 10.4394 6.77148 10.6055L8.54232 12.3763C8.70898 12.543 8.90343 12.6263 9.12565 12.6263C9.34787 12.6263 9.54232 12.543 9.70898 12.3763L13.2507 8.83464C13.4173 8.66797 13.5007 8.47019 13.5007 8.2413C13.5007 8.01241 13.4173 7.81436 13.2507 7.64714C13.084 7.48047 12.8859 7.39714 12.6565 7.39714C12.427 7.39714 12.2293 7.48047 12.0632 7.64714L9.12565 10.5846ZM10.0007 18.2721H9.79232C9.72287 18.2721 9.66037 18.2582 9.60482 18.2305C7.78537 17.661 6.28537 16.5324 5.10482 14.8446C3.92426 13.1569 3.33398 11.2924 3.33398 9.2513V5.3138C3.33398 4.96658 3.43482 4.65408 3.63648 4.3763C3.83815 4.09852 4.09843 3.89714 4.41732 3.77214L9.41732 1.89714C9.61176 1.82769 9.80621 1.79297 10.0007 1.79297C10.1951 1.79297 10.3895 1.82769 10.584 1.89714L15.584 3.77214C15.9034 3.89714 16.164 4.09852 16.3657 4.3763C16.5673 4.65408 16.6679 4.96658 16.6673 5.3138V9.2513C16.6673 11.293 16.077 13.1577 14.8965 14.8455C13.7159 16.5332 12.2159 17.6616 10.3965 18.2305C10.327 18.2582 10.1951 18.2721 10.0007 18.2721Z" fill="url(#paint0_linear_1183_25317)"/>
<defs>
<linearGradient id="paint0_linear_1183_25317" x1="10" y1="2.00122" x2="10.0007" y2="18.2721" gradientUnits="userSpaceOnUse">
<stop stop-color="#00CDB4"/>
<stop offset="1" stop-color="#028878"/>
</linearGradient>
</defs>
</svg>
