<svg width="28" height="29" viewBox="0 0 28 29" fill="none" xmlns="http://www.w3.org/2000/svg">
<path d="M23.6669 24.1465H19.6027V17.7818C19.6027 16.264 19.5756 14.3102 17.4889 14.3102C15.3721 14.3102 15.0483 15.9638 15.0483 17.6712V24.146H10.9842V11.0576H14.8857V12.8462H14.9404C15.7348 11.4879 17.2173 10.6737 18.7899 10.7321C22.909 10.7321 23.6686 13.4415 23.6686 16.9664L23.6669 24.1465ZM6.39849 9.26842H6.39799C5.10416 9.26842 4.0395 8.20387 4.0395 6.91002C4.0395 5.61617 5.10416 4.55149 6.39799 4.55149C7.6917 4.55149 8.75624 5.61592 8.75649 6.90953V6.91002C8.75649 8.20363 7.69207 9.2683 6.39849 9.26842ZM8.43051 24.1465H4.36216V11.0576H8.43051V24.1465ZM25.6929 0.777283H2.31983C1.22266 0.764892 0.309271 1.65707 0.295898 2.75425V26.2247C0.30878 27.3225 1.22205 28.2156 2.31983 28.2039H25.6929C26.7934 28.2177 27.7098 27.3247 27.7245 26.2247V2.75266C27.7098 1.65314 26.7921 0.761087 25.6929 0.775564V0.777283Z" fill="#0A66C2"/>
</svg>
