<svg width="24" height="24" viewBox="0 0 20 20" fill="none" xmlns="http://www.w3.org/2000/svg">
<path d="M12.917 12.4998H14.167V11.6665H12.917V12.4998ZM14.167 14.1665H12.917V13.3332H14.167V14.1665ZM12.917 15.8332H14.167V14.9998H12.917V15.8332Z" fill="#5A5A5A"/>
<path fill-rule="evenodd" clip-rule="evenodd" d="M7.0835 1.6665L13.7502 4.1665V9.99984H15.4168C15.5273 9.99984 15.6333 10.0437 15.7115 10.1219C15.7896 10.2 15.8335 10.306 15.8335 10.4165V17.4998H16.2502C16.3607 17.4998 16.4667 17.5437 16.5448 17.6219C16.6229 17.7 16.6668 17.806 16.6668 17.9165C16.6668 18.027 16.6229 18.133 16.5448 18.2111C16.4667 18.2893 16.3607 18.3332 16.2502 18.3332H3.75016C3.63966 18.3332 3.53368 18.2893 3.45554 18.2111C3.37739 18.133 3.3335 18.027 3.3335 17.9165C3.3335 17.806 3.37739 17.7 3.45554 17.6219C3.53368 17.5437 3.63966 17.4998 3.75016 17.4998H4.16683V8.74984C4.16683 8.63933 4.21073 8.53335 4.28887 8.45521C4.36701 8.37707 4.47299 8.33317 4.5835 8.33317H5.41683V5.4165H6.25016V8.33317H7.0835V1.6665ZM15.0002 17.4998H14.1668V16.6665H12.9168V17.4998H12.0835V10.8332H15.0002V17.4998ZM7.0835 9.1665H5.00016V17.4998H7.0835V9.1665ZM9.16683 5.4165H8.3335V6.24984H9.16683V5.4165ZM10.0002 5.4165H10.8335V6.24984H10.0002V5.4165ZM12.5002 5.4165H11.6668V6.24984H12.5002V5.4165ZM8.3335 7.08317H9.16683V7.9165H8.3335V7.08317ZM10.8335 7.08317H10.0002V7.9165H10.8335V7.08317ZM11.6668 7.08317H12.5002V7.9165H11.6668V7.08317ZM9.16683 8.74984H8.3335V9.58317H9.16683V8.74984ZM10.0002 8.74984H10.8335V9.58317H10.0002V8.74984ZM12.5002 8.74984H11.6668V9.58317H12.5002V8.74984ZM8.3335 10.4165H9.16683V11.2498H8.3335V10.4165ZM10.8335 10.4165H10.0002V11.2498H10.8335V10.4165ZM9.16683 12.0832H8.3335V12.9165H9.16683V12.0832ZM10.0002 12.0832H10.8335V12.9165H10.0002V12.0832ZM8.3335 13.7498H9.16683V14.5832H8.3335V13.7498ZM10.8335 13.7498H10.0002V14.5832H10.8335V13.7498ZM9.16683 15.4165H8.3335V16.2498H9.16683V15.4165ZM10.0002 15.4165H10.8335V16.2498H10.0002V15.4165Z" fill="#5A5A5A"/>
</svg>
