<svg width="32" height="32" viewBox="0 0 32 32" fill="none" xmlns="http://www.w3.org/2000/svg">
<path d="M25.3333 21.3335V25.3335M25.3333 25.3335V29.3335M25.3333 25.3335H29.3333M25.3333 25.3335H21.3333" stroke="#454545" stroke-width="2" stroke-linecap="round" stroke-linejoin="round"/>
<path fill-rule="evenodd" clip-rule="evenodd" d="M8 2.66675H16V10.6667C16 11.7276 16.4214 12.745 17.1716 13.4952C17.9217 14.2453 18.9391 14.6667 20 14.6667H28V17.7881C26.4576 17.242 24.7849 17.1819 23.2074 17.616C21.6298 18.0501 20.2233 18.9575 19.1775 20.2157C18.1316 21.474 17.4968 23.0228 17.3585 24.6531C17.2202 26.2834 17.5851 27.9169 18.404 29.3334H8C6.93913 29.3334 5.92172 28.912 5.17157 28.1618C4.42143 27.4117 4 26.3943 4 25.3334V6.66675C4 5.60588 4.42143 4.58847 5.17157 3.83832C5.92172 3.08818 6.93913 2.66675 8 2.66675ZM28 11.7707V12.0001H20C19.6464 12.0001 19.3072 11.8596 19.0572 11.6096C18.8071 11.3595 18.6667 11.0204 18.6667 10.6667V2.66675H18.896C19.9563 2.66733 20.973 3.08888 21.7227 3.83875L26.8293 8.94275C27.579 9.69294 28.0001 10.7102 28 11.7707Z" fill="#454545"/>
</svg>
