<svg width="20" height="20" viewBox="0 0 20 20" fill="none" xmlns="http://www.w3.org/2000/svg">
<path d="M1.875 17.5H18.125M3.125 2.5V17.5M11.875 2.5V17.5M16.875 6.25V17.5M5.625 5.625H6.25M5.625 8.125H6.25M5.625 10.625H6.25M8.75 5.625H9.375M8.75 8.125H9.375M8.75 10.625H9.375M5.625 17.5V14.6875C5.625 14.17 6.045 13.75 6.5625 13.75H8.4375C8.955 13.75 9.375 14.17 9.375 14.6875V17.5M2.5 2.5H12.5M11.875 6.25H17.5M14.375 9.375H14.3817V9.38167H14.375V9.375ZM14.375 11.875H14.3817V11.8817H14.375V11.875ZM14.375 14.375H14.3817V14.3817H14.375V14.375Z" stroke="#A8A8A8" stroke-width="1.5" stroke-linecap="round" stroke-linejoin="round"/>
</svg>
