<svg width="29" height="28" viewBox="0 0 29 28" fill="none" xmlns="http://www.w3.org/2000/svg">
<path d="M26.5012 14.2665C26.5012 13.2798 26.4195 12.5598 26.2427 11.8132H14.7461V16.2665H21.4943C21.3583 17.3732 20.6236 19.0398 18.991 20.1598L18.9681 20.3089L22.6031 23.0685L22.8549 23.0932C25.1678 20.9998 26.5012 17.9198 26.5012 14.2665Z" fill="#4285F4"/>
<path d="M14.7454 25.9999C18.0515 25.9999 20.8269 24.9332 22.8542 23.0932L18.9903 20.1598C17.9563 20.8665 16.5685 21.3598 14.7454 21.3598C11.5073 21.3598 8.75908 19.2665 7.77939 16.3732L7.63579 16.3851L3.85607 19.2518L3.80664 19.3865C5.82022 23.3065 9.95627 25.9999 14.7454 25.9999Z" fill="#34A853"/>
<path d="M7.78007 16.3734C7.52158 15.6267 7.37197 14.8266 7.37197 14C7.37197 13.1733 7.52158 12.3733 7.76647 11.6267L7.75963 11.4677L3.93253 8.55493L3.80731 8.6133C2.97742 10.24 2.50122 12.0667 2.50122 14C2.50122 15.9333 2.97742 17.76 3.80731 19.3866L7.78007 16.3734Z" fill="#FBBC05"/>
<path d="M14.7455 6.63997C17.0448 6.63997 18.5957 7.61329 19.4801 8.42668L22.9359 5.12C20.8135 3.18667 18.0515 2 14.7455 2C9.9563 2 5.82023 4.69331 3.80664 8.61328L7.76581 11.6267C8.7591 8.73333 11.5074 6.63997 14.7455 6.63997Z" fill="#EB4335"/>
</svg>
