<svg width="24" height="24" viewBox="0 0 24 24" fill="none" xmlns="http://www.w3.org/2000/svg">
<path d="M13.875 5.5625H9.125L7.36602 2.92402C7.10254 2.52695 7.38457 2 7.85957 2H15.1404C15.6154 2 15.8975 2.52695 15.634 2.92402L13.875 5.5625ZM9.125 6.75H13.875C14.016 6.84277 14.1756 6.94668 14.3574 7.06172C16.4615 8.40879 21 11.3107 21 17.4375C21 19.4043 19.4043 21 17.4375 21H5.5625C3.5957 21 2 19.4043 2 17.4375C2 11.3107 6.53848 8.40879 8.64258 7.06172C8.8207 6.94668 8.98398 6.84277 9.125 6.75ZM12.2422 10.0156C12.2422 9.60742 11.9082 9.27344 11.5 9.27344C11.0918 9.27344 10.7578 9.60742 10.7578 10.0156V10.5352C10.4758 10.5982 10.1938 10.6984 9.93398 10.8506C9.41816 11.1586 8.97285 11.6967 8.97656 12.4797C8.98027 13.233 9.42188 13.708 9.89316 13.99C10.3014 14.235 10.8098 14.3908 11.2143 14.5096L11.2773 14.5281C11.7449 14.6691 12.0863 14.7805 12.3164 14.9252C12.5057 15.0439 12.5316 15.1256 12.5354 15.2295C12.5391 15.415 12.4686 15.5264 12.3164 15.6191C12.1309 15.7342 11.8377 15.8047 11.5223 15.7936C11.1104 15.7787 10.7244 15.6488 10.2197 15.4781C10.1344 15.4484 10.0453 15.4187 9.95254 15.3891C9.56289 15.2592 9.14355 15.4707 9.01367 15.8566C8.88379 16.2426 9.09531 16.6656 9.48125 16.7955C9.55176 16.8178 9.62969 16.8438 9.70762 16.8734C10.0156 16.9811 10.3719 17.1035 10.7541 17.1852V17.7344C10.7541 18.1426 11.0881 18.4766 11.4963 18.4766C11.9045 18.4766 12.2385 18.1426 12.2385 17.7344V17.2223C12.5354 17.1592 12.8322 17.0553 13.0994 16.8883C13.6301 16.558 14.0309 15.9939 14.0197 15.2184C14.0086 14.465 13.5855 13.9789 13.1068 13.6746C12.6801 13.4074 12.1457 13.2441 11.7301 13.118L11.7041 13.1105C11.2291 12.9658 10.8914 12.8619 10.6539 12.7209C10.4609 12.6059 10.4572 12.5391 10.4572 12.4723C10.4572 12.335 10.5092 12.2311 10.6873 12.1271C10.8877 12.0084 11.192 11.9379 11.4852 11.9416C11.8414 11.9453 12.2348 12.0232 12.643 12.1346C13.04 12.2385 13.4445 12.0047 13.5521 11.6076C13.6598 11.2105 13.4223 10.8061 13.0252 10.6984C12.784 10.6354 12.5168 10.5723 12.2422 10.524V10.0156Z" fill="#A8A8A8"/>
</svg>
