<svg width="24" height="24" viewBox="0 0 20 20" fill="none" xmlns="http://www.w3.org/2000/svg">
<path d="M15.0001 12.5H13.3334V14.1667H15.0001M15.0001 9.16667H13.3334V10.8333H15.0001M16.6667 15.8333H10.0001V14.1667H11.6667V12.5H10.0001V10.8333H11.6667V9.16667H10.0001V7.5H16.6667M8.33341 5.83333H6.66675V4.16667H8.33341M8.33341 9.16667H6.66675V7.5H8.33341M8.33341 12.5H6.66675V10.8333H8.33341M8.33341 15.8333H6.66675V14.1667H8.33341M5.00008 5.83333H3.33341V4.16667H5.00008M5.00008 9.16667H3.33341V7.5H5.00008M5.00008 12.5H3.33341V10.8333H5.00008M5.00008 15.8333H3.33341V14.1667H5.00008M10.0001 5.83333V2.5H1.66675V17.5H18.3334V5.83333H10.0001Z" fill="#5A5A5A"/>
</svg>
