<svg width="22" height="22" viewBox="0 0 22 22" fill="none" xmlns="http://www.w3.org/2000/svg">
<path fill-rule="evenodd" clip-rule="evenodd" d="M21.2435 3.86662C21.3465 4.02284 21.3923 4.2098 21.3734 4.39592C21.3544 4.58204 21.2718 4.75592 21.1395 4.8882L11.1805 14.8462C11.0786 14.948 10.9514 15.0209 10.8121 15.0575L6.66403 16.1408C6.52692 16.1765 6.38283 16.1758 6.24608 16.1387C6.10932 16.1016 5.98466 16.0293 5.88446 15.9291C5.78426 15.8289 5.71201 15.7042 5.67488 15.5675C5.63774 15.4307 5.63702 15.2867 5.67278 15.1495L6.75612 11.0025C6.78774 10.8781 6.8474 10.7624 6.93053 10.6645L16.9264 0.675118C17.0788 0.522964 17.2853 0.4375 17.5006 0.4375C17.7159 0.4375 17.9224 0.522964 18.0748 0.675118L21.1395 3.73879C21.1784 3.77779 21.2133 3.82062 21.2435 3.86662ZM19.4159 4.31295L17.5006 2.3987L8.27278 11.6265L7.5957 14.219L10.1881 13.5419L19.4159 4.31295Z" fill="#00CDB4"/>
<path d="M19.278 16.59C19.5741 14.0592 19.6687 11.509 19.5608 8.96329C19.5584 8.90332 19.5685 8.8435 19.5903 8.78758C19.6121 8.73166 19.6452 8.68084 19.6875 8.63829L20.7535 7.57229C20.7826 7.543 20.8196 7.52274 20.86 7.51395C20.9003 7.50516 20.9424 7.50821 20.9811 7.52274C21.0197 7.53727 21.0534 7.56266 21.078 7.59586C21.1026 7.62906 21.117 7.66865 21.1197 7.70988C21.3203 10.7337 21.2442 13.7696 20.8922 16.7795C20.6365 18.97 18.8772 20.6871 16.6964 20.9309C12.9106 21.3501 9.08997 21.3501 5.3041 20.9309C3.12443 20.6871 1.36401 18.97 1.10835 16.7795C0.659197 12.9396 0.659197 9.06034 1.10835 5.22037C1.36401 3.02987 3.12335 1.31279 5.3041 1.06904C8.1775 0.750414 11.0726 0.673227 13.9588 0.838292C14.0002 0.841258 14.0397 0.855999 14.0729 0.880771C14.1061 0.905543 14.1315 0.939307 14.1461 0.978064C14.1607 1.01682 14.1639 1.05895 14.1553 1.09946C14.1466 1.13996 14.1266 1.17715 14.0975 1.20663L13.0218 2.28129C12.9796 2.32327 12.9293 2.35617 12.874 2.37797C12.8187 2.39977 12.7595 2.41 12.7 2.40804C10.2915 2.32617 7.88022 2.41849 5.48501 2.68429C4.78512 2.76176 4.13177 3.07291 3.63051 3.56748C3.12926 4.06205 2.80937 4.71116 2.72251 5.40996C2.28815 9.12397 2.28815 12.8759 2.72251 16.59C2.80937 17.2888 3.12926 17.9379 3.63051 18.4324C4.13177 18.927 4.78512 19.2382 5.48501 19.3156C9.1196 19.7219 12.8809 19.7219 16.5166 19.3156C17.2165 19.2382 17.8698 18.927 18.3711 18.4324C18.8724 17.9379 19.1912 17.2888 19.278 16.59Z" fill="#00CDB4"/>
</svg>
