<svg width="22" height="19" viewBox="0 0 22 19" fill="none" xmlns="http://www.w3.org/2000/svg">
<path d="M15.494 0.589844C13.5592 0.589844 11.906 1.96892 10.9977 2.91969C10.0894 1.96892 8.43986 0.589844 6.50601 0.589844C3.17278 0.589844 0.845703 2.91323 0.845703 6.23907C0.845703 9.90369 3.73586 12.2723 6.53186 14.5634C7.85186 15.6462 9.21801 16.7649 10.2657 18.0055C10.442 18.2132 10.7005 18.3332 10.9719 18.3332H11.0254C11.2977 18.3332 11.5552 18.2123 11.7306 18.0055C12.7802 16.7649 14.1454 15.6452 15.4663 14.5634C18.2614 12.2732 21.1534 9.90461 21.1534 6.23907C21.1534 2.91323 18.8263 0.589844 15.494 0.589844Z" fill="#00CDB4"/>
</svg>
