<svg width="18" height="18" viewBox="0 0 18 18" fill="none" xmlns="http://www.w3.org/2000/svg">
<path d="M0.5625 3.33281C0.5625 2.88194 0.74029 2.44954 1.05676 2.13073C1.37322 1.81192 1.80245 1.63281 2.25 1.63281H15.75C16.1976 1.63281 16.6268 1.81192 16.9432 2.13073C17.2597 2.44954 17.4375 2.88194 17.4375 3.33281V4.70188L9 9.48228L0.5625 4.70188V3.33281Z" fill="white"/>
<path d="M0.5625 6.00113V14.6655C0.5625 15.1163 0.74029 15.5487 1.05676 15.8675C1.37322 16.1864 1.80245 16.3655 2.25 16.3655H15.75C16.1976 16.3655 16.6268 16.1864 16.9432 15.8675C17.2597 15.5487 17.4375 15.1163 17.4375 14.6655V6.00113L9 10.7827L0.5625 6.00113Z" fill="white"/>
</svg>
