<svg width="18" height="18" viewBox="0 0 18 18" fill="none" xmlns="http://www.w3.org/2000/svg">
<path opacity="0.4" d="M14.7327 7.11644C14.7327 7.16744 14.333 12.223 14.1047 14.3507C13.9617 15.6564 13.12 16.4484 11.8574 16.4709C10.8872 16.4926 9.93755 16.5001 9.00317 16.5001C8.01117 16.5001 7.04105 16.4926 6.09937 16.4709C4.87906 16.4416 4.03659 15.6339 3.90092 14.3507C3.66605 12.2155 3.27362 7.16744 3.26633 7.11644C3.25903 6.9627 3.30863 6.81645 3.40929 6.69795C3.50849 6.58846 3.65146 6.52246 3.80172 6.52246H14.2046C14.3542 6.52246 14.4898 6.58846 14.597 6.69795C14.697 6.81645 14.7473 6.9627 14.7327 7.11644" fill="#CD0000"/>
<path d="M15.75 4.48265C15.75 4.17441 15.5071 3.93291 15.2153 3.93291H13.0286C12.5836 3.93291 12.197 3.61643 12.0978 3.17019L11.9753 2.62346C11.8039 1.96273 11.2123 1.5 10.5485 1.5H7.45218C6.78112 1.5 6.1954 1.96273 6.01743 2.65946L5.90291 3.17094C5.80298 3.61643 5.41639 3.93291 4.97217 3.93291H2.78539C2.49289 3.93291 2.25 4.17441 2.25 4.48265V4.76764C2.25 5.06837 2.49289 5.31737 2.78539 5.31737H15.2153C15.5071 5.31737 15.75 5.06837 15.75 4.76764V4.48265Z" fill="#CD0000"/>
</svg>
