<svg width="7" height="8" viewBox="0 0 7 8" fill="none" xmlns="http://www.w3.org/2000/svg">
<path d="M6.63006 1.81793C6.8556 1.59239 6.8556 1.22672 6.63006 1.00118C6.40452 0.775647 6.03885 0.775647 5.81332 1.00118L3.49922 3.31528L1.18512 1.00118C0.959584 0.775647 0.593916 0.775647 0.368379 1.00118C0.142842 1.22672 0.142842 1.59239 0.368379 1.81793L2.68248 4.13203L0.368371 6.44613C0.142835 6.67167 0.142834 7.03734 0.368371 7.26288C0.593908 7.48841 0.959576 7.48841 1.18511 7.26288L3.49922 4.94877L5.81332 7.26288C6.03886 7.48842 6.40453 7.48842 6.63007 7.26288C6.8556 7.03734 6.8556 6.67167 6.63007 6.44614L4.31596 4.13203L6.63006 1.81793Z" fill="#737373"/>
</svg>
