<svg width="95" height="95" viewBox="0 0 95 95" fill="none" xmlns="http://www.w3.org/2000/svg">
<path d="M41.9577 54.6263L33.4473 46.1159C32.7216 45.3902 31.798 45.0273 30.6764 45.0273C29.5549 45.0273 28.6313 45.3902 27.9056 46.1159C27.1799 46.8416 26.8171 47.7652 26.8171 48.8867C26.8171 50.0082 27.1799 50.9319 27.9056 51.6576L39.1868 62.9388C39.9785 63.7305 40.9021 64.1263 41.9577 64.1263C43.0132 64.1263 43.9368 63.7305 44.7285 62.9388L67.0931 40.5742C67.8188 39.8485 68.1816 38.9249 68.1816 37.8034C68.1816 36.6819 67.8188 35.7582 67.0931 35.0326C66.3674 34.3069 65.4438 33.944 64.3223 33.944C63.2007 33.944 62.2771 34.3069 61.5514 35.0326L41.9577 54.6263ZM47.4993 87.0846C42.0237 87.0846 36.8778 86.0449 32.0618 83.9655C27.2459 81.886 23.0566 79.0664 19.4941 75.5065C15.9316 71.944 13.112 67.7548 11.0352 62.9388C8.95838 58.1228 7.91865 52.977 7.91602 47.5013C7.91602 42.0256 8.95574 36.8798 11.0352 32.0638C13.1146 27.2478 15.9343 23.0586 19.4941 19.4961C23.0566 15.9336 27.2459 13.1139 32.0618 11.0371C36.8778 8.96033 42.0237 7.92061 47.4993 7.91797C52.975 7.91797 58.1209 8.95769 62.9368 11.0371C67.7528 13.1166 71.9421 15.9362 75.5046 19.4961C79.0671 23.0586 81.888 27.2478 83.9675 32.0638C86.0469 36.8798 87.0853 42.0256 87.0827 47.5013C87.0827 52.977 86.043 58.1228 83.9635 62.9388C81.8841 67.7548 79.0644 71.944 75.5046 75.5065C71.9421 79.069 67.7528 81.89 62.9368 83.9694C58.1209 86.0489 52.975 87.0873 47.4993 87.0846Z" fill="#00CDB4"/>
</svg>
