<svg width="80" height="73" viewBox="0 0 80 73" fill="none" xmlns="http://www.w3.org/2000/svg">
<path d="M32.0834 0.833008C27.8841 0.833008 23.8568 2.50116 20.8875 5.47048C17.9182 8.43981 16.25 12.4671 16.25 16.6663C16.25 20.8656 17.9182 24.8929 20.8875 27.8622C23.8568 30.8315 27.8841 32.4997 32.0834 32.4997C36.2826 32.4997 40.3099 30.8315 43.2792 27.8622C46.2485 24.8929 47.9167 20.8656 47.9167 16.6663C47.9167 12.4671 46.2485 8.43981 43.2792 5.47048C40.3099 2.50116 36.2826 0.833008 32.0834 0.833008ZM61.7709 36.458C51.875 36.458 43.9584 44.3747 43.9584 54.2705C43.9584 64.1663 51.875 72.083 61.7709 72.083C71.6667 72.083 79.5834 64.1663 79.5834 54.2705C79.5834 44.3747 71.6667 36.458 61.7709 36.458ZM32.0834 40.4163C14.5875 40.4163 0.416687 47.5018 0.416687 56.2497V64.1663H38.0209C36.7143 61.0307 36.0417 57.6674 36.0417 54.2705C36.0586 49.5772 37.359 44.9779 39.8021 40.9705C37.3084 40.6538 34.775 40.4163 32.0834 40.4163ZM61.7709 42.3955C68.3417 42.3955 73.6459 47.6997 73.6459 54.2705C73.6459 56.4872 73.0521 58.5455 71.9834 60.208L55.8334 44.058C57.4959 42.9893 59.5542 42.3955 61.7709 42.3955ZM51.5584 48.333L67.7084 64.483C66.0459 65.5518 63.9875 66.1455 61.7709 66.1455C55.2 66.1455 49.8959 60.8413 49.8959 54.2705C49.8959 52.0538 50.4896 49.9955 51.5584 48.333Z" fill="#C1121F"/>
</svg>
