<svg width="35" height="35" viewBox="0 0 35 35" fill="none" xmlns="http://www.w3.org/2000/svg">
<path d="M22.8412 14.0835C22.29 14.0835 21.8329 13.6264 21.8329 13.0752V8.36952C21.8329 6.9175 20.9321 6.0167 19.4801 6.0167H15.4467C13.9946 6.0167 13.0939 6.9175 13.0939 8.36952V13.0752C13.0939 13.6264 12.6367 14.0835 12.0855 14.0835C11.5343 14.0835 11.0771 13.6264 11.0771 13.0752V8.36952C11.0771 5.80159 12.8787 4 15.4467 4H19.4801C22.048 4 23.8496 5.80159 23.8496 8.36952V13.0752C23.8496 13.6264 23.3925 14.0835 22.8412 14.0835Z" fill="#FFC124"/>
<path d="M12.0853 26.2242C11.5341 26.2242 11.077 25.7671 11.077 25.2158C11.077 24.6512 11.5341 24.2075 12.0853 24.2075H27.8963C28.2996 24.2075 28.6089 23.8579 28.5685 23.4546L27.6543 15.8046C27.3316 13.1963 26.8745 11.0586 22.3033 11.0586H12.6231C8.05194 11.0586 7.59482 13.1963 7.2856 15.8046L6.07557 25.8881C5.68568 29.1955 6.70747 31.8979 11.4266 31.8979H23.4999C27.7484 31.8979 28.9988 29.7064 28.9315 26.8561C28.9181 26.4931 28.6223 26.2242 28.2593 26.2242H12.0853Z" fill="#FFC124"/>
</svg>
