<svg width="18" height="15" viewBox="0 0 18 15" fill="none" xmlns="http://www.w3.org/2000/svg">
<path d="M3.99935 3.66732C3.99935 3.22529 4.17494 2.80137 4.4875 2.48881C4.80006 2.17625 5.22399 2.00065 5.66602 2.00065C6.10804 2.00065 6.53197 2.17625 6.84453 2.48881C7.15709 2.80137 7.33268 3.22529 7.33268 3.66732C7.33268 4.10935 7.15709 4.53327 6.84453 4.84583C6.53197 5.15839 6.10804 5.33398 5.66602 5.33398C5.22399 5.33398 4.80006 5.15839 4.4875 4.84583C4.17494 4.53327 3.99935 4.10935 3.99935 3.66732ZM5.66602 0.333984C4.78196 0.333984 3.93411 0.685174 3.30899 1.31029C2.68387 1.93542 2.33268 2.78326 2.33268 3.66732C2.33268 4.55137 2.68387 5.39922 3.30899 6.02434C3.93411 6.64946 4.78196 7.00065 5.66602 7.00065C6.55007 7.00065 7.39792 6.64946 8.02304 6.02434C8.64816 5.39922 8.99935 4.55137 8.99935 3.66732C8.99935 2.78326 8.64816 1.93542 8.02304 1.31029C7.39792 0.685174 6.55007 0.333984 5.66602 0.333984ZM12.3327 4.50065C12.3327 4.27964 12.4205 4.06768 12.5768 3.9114C12.733 3.75512 12.945 3.66732 13.166 3.66732C13.387 3.66732 13.599 3.75512 13.7553 3.9114C13.9116 4.06768 13.9993 4.27964 13.9993 4.50065C13.9993 4.72166 13.9116 4.93363 13.7553 5.08991C13.599 5.24619 13.387 5.33398 13.166 5.33398C12.945 5.33398 12.733 5.24619 12.5768 5.08991C12.4205 4.93363 12.3327 4.72166 12.3327 4.50065ZM13.166 2.00065C12.503 2.00065 11.8671 2.26404 11.3982 2.73288C10.9294 3.20173 10.666 3.83761 10.666 4.50065C10.666 5.16369 10.9294 5.79958 11.3982 6.26842C11.8671 6.73726 12.503 7.00065 13.166 7.00065C13.8291 7.00065 14.4649 6.73726 14.9338 6.26842C15.4026 5.79958 15.666 5.16369 15.666 4.50065C15.666 3.83761 15.4026 3.20173 14.9338 2.73288C14.4649 2.26404 13.8291 2.00065 13.166 2.00065ZM0.666016 10.7507C0.666016 9.60065 1.59935 8.66732 2.74935 8.66732H8.58268C9.73268 8.66732 10.666 9.60065 10.666 10.7507V10.8307C10.6647 10.8914 10.6603 10.952 10.6527 11.0123C10.638 11.1584 10.613 11.3032 10.5777 11.4457C10.4659 11.9069 10.2649 12.3417 9.98602 12.7257C9.27935 13.6973 7.96268 14.5007 5.66602 14.5007C3.36935 14.5007 2.05268 13.6973 1.34602 12.7257C0.980588 12.2211 0.751016 11.6311 0.679349 11.0123C0.672651 10.9514 0.668204 10.8902 0.666016 10.829V10.7507ZM2.33268 10.794C2.33959 10.8816 2.35352 10.9686 2.37435 11.054C2.41935 11.2423 2.51102 11.494 2.69435 11.7457C3.02768 12.2057 3.79435 12.834 5.66602 12.834C7.53602 12.834 8.30268 12.2057 8.63768 11.7457C8.83941 11.4662 8.96413 11.1385 8.99935 10.7957V10.7507C8.99935 10.6401 8.95545 10.5342 8.87731 10.456C8.79917 10.3779 8.69319 10.334 8.58268 10.334H2.74935C2.63884 10.334 2.53286 10.3779 2.45472 10.456C2.37658 10.5342 2.33268 10.6401 2.33268 10.7507V10.794ZM13.1643 13.6673C12.6413 13.6725 12.1194 13.6166 11.6093 13.5007C11.9141 13.0196 12.1303 12.4879 12.2477 11.9307C12.506 11.974 12.8093 12.0007 13.1643 12.0007C14.6477 12.0007 15.211 11.5473 15.431 11.2723C15.5533 11.1201 15.6337 10.9385 15.6643 10.7457V10.7373C15.6609 10.6291 15.6155 10.5266 15.5377 10.4513C15.4599 10.376 15.3559 10.3339 15.2477 10.334H12.3093C12.2436 9.73757 12.035 9.16583 11.701 8.66732H15.2493C16.3993 8.66732 17.3327 9.60065 17.3327 10.7507V10.779C17.3312 10.8308 17.3273 10.8825 17.321 10.934C17.2548 11.4383 17.052 11.915 16.7343 12.3123C16.1193 13.079 15.0177 13.6673 13.166 13.6673H13.1643Z" fill="#A8A8A8"/>
</svg>
