<svg width="18" height="18" viewBox="0 0 18 18" fill="none" xmlns="http://www.w3.org/2000/svg">
<path fill-rule="evenodd" clip-rule="evenodd" d="M2.73398 0.333984H2.66732C2.36198 0.333984 2.09932 0.333984 1.86732 0.388651C1.50817 0.474471 1.17978 0.658046 0.918558 0.919037C0.657332 1.18003 0.473461 1.50824 0.387318 1.86732C0.333984 2.09932 0.333984 2.36065 0.333984 2.66732V6.00065C0.333984 6.30598 0.333984 6.56865 0.388651 6.80065C0.474471 7.1598 0.658046 7.48818 0.919037 7.74941C1.18003 8.01064 1.50824 8.19451 1.86732 8.28065C2.09932 8.33398 2.36065 8.33398 2.66732 8.33398H6.00065C6.30598 8.33398 6.56865 8.33398 6.80065 8.27932C7.1598 8.1935 7.48818 8.00992 7.74941 7.74893C8.01064 7.48794 8.19451 7.15973 8.28065 6.80065C8.33398 6.56865 8.33398 6.30732 8.33398 6.00065V2.66732C8.33398 2.36198 8.33398 2.09932 8.27932 1.86732C8.1935 1.50817 8.00992 1.17978 7.74893 0.918558C7.48794 0.657332 7.15973 0.473461 6.80065 0.387318C6.56865 0.333984 6.30732 0.333984 6.00065 0.333984H2.73398ZM2.17798 1.68598C2.23532 1.67265 2.32465 1.66732 2.73398 1.66732H5.93398C6.34465 1.66732 6.43265 1.67132 6.48998 1.68598C6.60976 1.71463 6.71926 1.77588 6.80634 1.86296C6.89342 1.95005 6.95468 2.05954 6.98332 2.17932C6.99665 2.23532 7.00065 2.32332 7.00065 2.73398V5.93398C7.00065 6.34465 6.99665 6.43265 6.98198 6.48998C6.95334 6.60976 6.89208 6.71926 6.805 6.80634C6.71792 6.89342 6.60842 6.95468 6.48865 6.98332C6.43398 6.99532 6.34598 7.00065 5.93398 7.00065H2.73398C2.32332 7.00065 2.23532 6.99665 2.17798 6.98198C2.05821 6.95334 1.94871 6.89208 1.86163 6.805C1.77455 6.71792 1.71329 6.60842 1.68465 6.48865C1.67265 6.43398 1.66732 6.34598 1.66732 5.93398V2.73398C1.66732 2.32332 1.67132 2.23532 1.68598 2.17798C1.71463 2.05821 1.77588 1.94871 1.86296 1.86163C1.95005 1.77455 2.05954 1.71329 2.17932 1.68465L2.17798 1.68598ZM12.0673 0.333984H12.0007C11.6953 0.333984 11.4327 0.333984 11.2007 0.388651C10.8415 0.474471 10.5131 0.658046 10.2519 0.919037C9.99067 1.18003 9.8068 1.50824 9.72065 1.86732C9.66732 2.09932 9.66732 2.36065 9.66732 2.66732V6.00065C9.66732 6.30598 9.66732 6.56865 9.72198 6.80065C9.80781 7.1598 9.99138 7.48818 10.2524 7.74941C10.5134 8.01064 10.8416 8.19451 11.2007 8.28065C11.4327 8.33398 11.694 8.33398 12.0007 8.33398H15.334C15.6393 8.33398 15.902 8.33398 16.134 8.27932C16.4931 8.1935 16.8215 8.00992 17.0827 7.74893C17.344 7.48794 17.5278 7.15973 17.614 6.80065C17.6673 6.56865 17.6673 6.30732 17.6673 6.00065V2.66732C17.6673 2.36198 17.6673 2.09932 17.6127 1.86732C17.5268 1.50817 17.3433 1.17978 17.0823 0.918558C16.8213 0.657332 16.4931 0.473461 16.134 0.387318C15.902 0.333984 15.6407 0.333984 15.334 0.333984H12.0673ZM11.5113 1.68598C11.5687 1.67265 11.658 1.66732 12.0673 1.66732H15.2673C15.678 1.66732 15.766 1.67132 15.8233 1.68598C15.9431 1.71463 16.0526 1.77588 16.1397 1.86296C16.2268 1.95005 16.288 2.05954 16.3167 2.17932C16.33 2.23532 16.334 2.32332 16.334 2.73398V5.93398C16.334 6.34465 16.3287 6.43265 16.3153 6.48998C16.2867 6.60976 16.2254 6.71926 16.1383 6.80634C16.0513 6.89342 15.9418 6.95468 15.822 6.98332C15.766 6.99665 15.678 7.00065 15.2673 7.00065H12.0673C11.6567 7.00065 11.5687 6.99665 11.5113 6.98198C11.3915 6.95334 11.282 6.89208 11.195 6.805C11.1079 6.71792 11.0466 6.60842 11.018 6.48865C11.006 6.43398 11.0007 6.34598 11.0007 5.93398V2.73398C11.0007 2.32332 11.0047 2.23532 11.0193 2.17798C11.048 2.05821 11.1092 1.94871 11.1963 1.86163C11.2834 1.77455 11.3929 1.71329 11.5127 1.68465L11.5113 1.68598ZM2.66732 9.66732H6.00065C6.30598 9.66732 6.56865 9.66732 6.80065 9.72198C7.1598 9.80781 7.48818 9.99138 7.74941 10.2524C8.01064 10.5134 8.19451 10.8416 8.28065 11.2007C8.33398 11.4327 8.33398 11.694 8.33398 12.0007V15.334C8.33398 15.6393 8.33398 15.902 8.27932 16.134C8.1935 16.4931 8.00992 16.8215 7.74893 17.0827C7.48794 17.344 7.15973 17.5278 6.80065 17.614C6.56865 17.6673 6.30732 17.6673 6.00065 17.6673H2.66732C2.36198 17.6673 2.09932 17.6673 1.86732 17.6127C1.50817 17.5268 1.17978 17.3433 0.918558 17.0823C0.657332 16.8213 0.473461 16.4931 0.387318 16.134C0.333984 15.902 0.333984 15.6407 0.333984 15.334V12.0007C0.333984 11.6953 0.333984 11.4327 0.388651 11.2007C0.474471 10.8415 0.658046 10.5131 0.919037 10.2519C1.18003 9.99067 1.50824 9.8068 1.86732 9.72065C2.09932 9.66732 2.36065 9.66732 2.66732 9.66732ZM2.73398 11.0007C2.32332 11.0007 2.23532 11.0047 2.17798 11.0193C2.05821 11.048 1.94871 11.1092 1.86163 11.1963C1.77455 11.2834 1.71329 11.3929 1.68465 11.5127C1.67265 11.5673 1.66732 11.6553 1.66732 12.0673V15.2673C1.66732 15.678 1.67132 15.766 1.68598 15.8233C1.71463 15.9431 1.77588 16.0526 1.86296 16.1397C1.95005 16.2268 2.05954 16.288 2.17932 16.3167C2.23532 16.33 2.32332 16.334 2.73398 16.334H5.93398C6.34465 16.334 6.43265 16.3287 6.48998 16.3153C6.60976 16.2867 6.71926 16.2254 6.80634 16.1383C6.89342 16.0513 6.95468 15.9418 6.98332 15.822C6.99665 15.766 7.00065 15.678 7.00065 15.2673V12.0673C7.00065 11.6567 6.99665 11.5687 6.98198 11.5113C6.95334 11.3915 6.89208 11.282 6.805 11.195C6.71792 11.1079 6.60842 11.0466 6.48865 11.018C6.43398 11.006 6.34598 11.0007 5.93398 11.0007H2.73398ZM12.0673 9.66732H12.0007C11.6953 9.66732 11.4327 9.66732 11.2007 9.72198C10.8415 9.80781 10.5131 9.99138 10.2519 10.2524C9.99067 10.5134 9.8068 10.8416 9.72065 11.2007C9.66732 11.4327 9.66732 11.694 9.66732 12.0007V15.334C9.66732 15.6393 9.66732 15.902 9.72198 16.134C9.80781 16.4931 9.99138 16.8215 10.2524 17.0827C10.5134 17.344 10.8416 17.5278 11.2007 17.614C11.4327 17.6687 11.6953 17.6687 12.0007 17.6687H15.334C15.6393 17.6687 15.902 17.6687 16.134 17.614C16.4929 17.5279 16.821 17.3443 17.082 17.0833C17.3429 16.8223 17.5266 16.4942 17.6127 16.1353C17.6673 15.9033 17.6673 15.6407 17.6673 15.3353V12.0007C17.6673 11.6953 17.6673 11.4327 17.6127 11.2007C17.5268 10.8415 17.3433 10.5131 17.0823 10.2519C16.8213 9.99067 16.4931 9.8068 16.134 9.72065C15.902 9.66732 15.6407 9.66732 15.334 9.66732H12.0673ZM11.5113 11.0193C11.5687 11.006 11.658 11.0007 12.0673 11.0007H15.2673C15.678 11.0007 15.766 11.0047 15.8233 11.0193C15.9431 11.048 16.0526 11.1092 16.1397 11.1963C16.2268 11.2834 16.288 11.3929 16.3167 11.5127C16.33 11.5687 16.334 11.6567 16.334 12.0673V15.2673C16.334 15.678 16.3287 15.766 16.3153 15.8233C16.2867 15.9431 16.2254 16.0526 16.1383 16.1397C16.0513 16.2268 15.9418 16.288 15.822 16.3167C15.766 16.33 15.678 16.334 15.2673 16.334H12.0673C11.6567 16.334 11.5687 16.3287 11.5113 16.3153C11.3915 16.2867 11.282 16.2254 11.195 16.1383C11.1079 16.0513 11.0466 15.9418 11.018 15.822C11.006 15.7673 11.0007 15.6793 11.0007 15.2673V12.0673C11.0007 11.6567 11.0047 11.5687 11.0193 11.5113C11.048 11.3915 11.1092 11.282 11.1963 11.195C11.2834 11.1079 11.3929 11.0466 11.5127 11.018L11.5113 11.0193Z" fill="#A8A8A8"/>
</svg>
