<svg width="25" height="24" viewBox="0 0 25 24" fill="none" xmlns="http://www.w3.org/2000/svg">
<path fill-rule="evenodd" clip-rule="evenodd" d="M16.6583 8.23285C16.6583 10.5825 14.7851 12.4666 12.449 12.4666C10.1129 12.4666 8.23974 10.5825 8.23974 8.23285C8.23974 5.88227 10.1129 4 12.449 4C14.7851 4 16.6583 5.88227 16.6583 8.23285ZM12.449 20C9.01785 20 6.08809 19.456 6.08809 17.2802C6.08809 15.1034 8.99904 14.5396 12.449 14.5396C15.8802 14.5396 18.81 15.0836 18.81 17.2604C18.81 19.4362 15.899 20 12.449 20ZM18.4571 8.30922C18.4571 9.50703 18.0998 10.6229 17.473 11.5505C17.4086 11.646 17.4659 11.7748 17.5796 11.7946C17.7363 11.8216 17.8984 11.8369 18.0631 11.8414C19.7062 11.8846 21.1809 10.821 21.5883 9.21974C22.1918 6.84123 20.4198 4.7059 18.1634 4.7059C17.9181 4.7059 17.6835 4.73201 17.4551 4.77884C17.4238 4.78605 17.3907 4.80046 17.3728 4.82838C17.3513 4.8626 17.3674 4.90853 17.3889 4.93825C18.0667 5.8938 18.4571 7.05918 18.4571 8.30922ZM21.1782 13.5126C22.2823 13.7296 23.0084 14.1727 23.3093 14.8166C23.5636 15.3453 23.5636 15.9586 23.3093 16.4864C22.849 17.4851 21.3654 17.8058 20.7887 17.8886C20.6696 17.9066 20.5738 17.8031 20.5864 17.6833C20.8809 14.9157 18.5377 13.6035 17.9315 13.3018C17.9055 13.2883 17.9002 13.2676 17.9028 13.255C17.9046 13.246 17.9154 13.2316 17.9351 13.2289C19.2468 13.2046 20.6571 13.3847 21.1782 13.5126ZM6.93711 11.8413C7.10186 11.8368 7.26304 11.8224 7.42063 11.7945C7.53434 11.7747 7.59165 11.6459 7.52718 11.5504C6.9004 10.6228 6.54313 9.50694 6.54313 8.30913C6.54313 7.05909 6.93353 5.89371 7.61135 4.93816C7.63284 4.90844 7.64806 4.86251 7.62746 4.82829C7.60956 4.80127 7.57553 4.78596 7.54509 4.77875C7.31586 4.73192 7.08127 4.70581 6.83593 4.70581C4.57951 4.70581 2.80751 6.84114 3.41191 9.21965C3.81932 10.8209 5.29405 11.8845 6.93711 11.8413ZM7.09694 13.2545C7.09962 13.268 7.09425 13.2878 7.06918 13.3022C6.4621 13.6039 4.11883 14.9161 4.41342 17.6827C4.42595 17.8034 4.33104 17.9061 4.21195 17.889C3.63531 17.8061 2.15163 17.4855 1.69139 16.4867C1.4362 15.9581 1.4362 15.3457 1.69139 14.817C1.99225 14.1731 2.71752 13.73 3.82156 13.512C4.34358 13.385 5.75294 13.2049 7.0656 13.2292C7.0853 13.2319 7.09515 13.2464 7.09694 13.2545Z" fill="white"/>
</svg>
