<svg width="26" height="20" viewBox="0 0 26 20" fill="none" xmlns="http://www.w3.org/2000/svg">
<path d="M25.1854 9.70675L25.185 9.70572C24.2259 7.2247 22.5608 5.0791 20.3955 3.53412C18.2302 1.98914 15.6596 1.11249 13.0015 1.01254L13.0015 1.01239L12.9978 1.01254C10.3397 1.11249 7.76913 1.98914 5.60384 3.53412C3.43855 5.0791 1.77342 7.2247 0.814268 9.70572L0.814257 9.70572L0.813883 9.70675C0.745372 9.89625 0.745372 10.1038 0.813883 10.2933L0.813872 10.2933L0.814268 10.2943C1.77342 12.7753 3.43855 14.9209 5.60384 16.4659C7.76913 18.0109 10.3397 18.8875 12.9978 18.9875L12.9978 18.9876L13.0015 18.9875C15.6596 18.8875 18.2302 18.0109 20.3955 16.4659C22.5608 14.9209 24.2259 12.7753 25.1851 10.2943L25.1854 10.2933C25.2539 10.1038 25.2539 9.89625 25.1854 9.70675ZM12.9997 17.2625C8.72145 17.2625 4.19635 14.0925 2.54791 10C4.19635 5.90751 8.72145 2.7375 12.9997 2.7375C17.2779 2.7375 21.803 5.90751 23.4514 10C21.803 14.0925 17.2779 17.2625 12.9997 17.2625Z" fill="#00819F" stroke="#00819F" stroke-width="0.1"/>
<path d="M13 5.025C12.016 5.025 11.0542 5.31678 10.236 5.86344C9.41791 6.4101 8.78025 7.18709 8.4037 8.09615C8.02716 9.00521 7.92863 10.0055 8.1206 10.9706C8.31256 11.9356 8.78638 12.8221 9.48215 13.5179C10.1779 14.2136 11.0644 14.6874 12.0294 14.8794C12.9945 15.0714 13.9948 14.9728 14.9039 14.5963C15.8129 14.2198 16.5899 13.5821 17.1366 12.764C17.6832 11.9458 17.975 10.984 17.975 10C17.975 8.68055 17.4509 7.41514 16.5179 6.48214C15.5849 5.54915 14.3195 5.025 13 5.025ZM13 13.15C12.377 13.15 11.768 12.9653 11.25 12.6191C10.7319 12.273 10.3282 11.781 10.0898 11.2055C9.85137 10.6299 9.78898 9.99651 9.91053 9.38547C10.0321 8.77443 10.3321 8.21315 10.7726 7.77261C11.2132 7.33208 11.7744 7.03207 12.3855 6.91053C12.9965 6.78898 13.6299 6.85136 14.2055 7.08978C14.781 7.32819 15.273 7.73194 15.6191 8.24995C15.9653 8.76797 16.15 9.37699 16.15 10C16.15 10.8354 15.8181 11.6366 15.2274 12.2274C14.6366 12.8181 13.8354 13.15 13 13.15Z" fill="#00819F" stroke="#00819F" stroke-width="0.2"/>
</svg>
