<svg width="18" height="18" viewBox="0 0 18 18" fill="none" xmlns="http://www.w3.org/2000/svg">
<path opacity="0.4" d="M14.995 14.2148H10.7243C10.3076 14.2148 9.96875 14.5591 9.96875 14.9824C9.96875 15.4065 10.3076 15.7499 10.7243 15.7499H14.995C15.4117 15.7499 15.7506 15.4065 15.7506 14.9824C15.7506 14.5591 15.4117 14.2148 14.995 14.2148Z" fill="#002DCD"/>
<path d="M7.73177 5.17795L11.7787 8.44802C11.8763 8.52622 11.893 8.66973 11.8168 8.7697L7.01906 15.0212C6.71746 15.4074 6.27301 15.6259 5.79681 15.6339L3.17772 15.6662C3.03804 15.6678 2.91581 15.5711 2.88406 15.4324L2.28882 12.8444C2.18564 12.3687 2.28882 11.8769 2.59041 11.498L7.41192 5.21665C7.4897 5.11587 7.63335 5.09813 7.73177 5.17795Z" fill="#002DCD"/>
<path opacity="0.4" d="M13.59 6.49908L12.8098 7.473C12.7312 7.57217 12.59 7.5883 12.4923 7.50928C11.5439 6.74175 9.1153 4.77214 8.44148 4.22632C8.34306 4.14569 8.32957 4.00219 8.40893 3.90221L9.16133 2.96779C9.84388 2.089 11.0344 2.00838 11.9947 2.7743L13.0979 3.65309C13.5503 4.00783 13.8519 4.47544 13.9551 4.96724C14.0741 5.50822 13.9471 6.03953 13.59 6.49908Z" fill="#002DCD"/>
</svg>
