<svg width="30" height="30" viewBox="0 0 30 30" fill="none" xmlns="http://www.w3.org/2000/svg">
<path opacity="0.1" fill-rule="evenodd" clip-rule="evenodd" d="M15 5.625C12.5136 5.625 10.129 6.61272 8.37087 8.37087C6.61272 10.129 5.625 12.5136 5.625 15C5.625 17.4864 6.61272 19.871 8.37087 21.6291C10.129 23.3873 12.5136 24.375 15 24.375C17.4864 24.375 19.871 23.3873 21.6291 21.6291C23.3873 19.871 24.375 17.4864 24.375 15C24.375 12.5136 23.3873 10.129 21.6291 8.37087C19.871 6.61272 17.4864 5.625 15 5.625ZM1.875 15C1.875 7.75125 7.75125 1.875 15 1.875C22.2487 1.875 28.125 7.75125 28.125 15C28.125 22.2487 22.2487 28.125 15 28.125C7.75125 28.125 1.875 22.2487 1.875 15Z" fill="black"/>
<path fill-rule="evenodd" clip-rule="evenodd" d="M15.0001 5.62502C12.583 5.61958 10.2583 6.55314 8.51632 8.22877C8.15542 8.56246 7.67791 8.74109 7.1866 8.7262C6.69529 8.71131 6.22948 8.50408 5.88945 8.14914C5.54942 7.7942 5.36236 7.31992 5.36856 6.82843C5.37475 6.33693 5.5737 5.86752 5.92257 5.52127C8.36247 3.17684 11.6164 1.86981 15.0001 1.87502C15.4974 1.87502 15.9743 2.07256 16.3259 2.42419C16.6775 2.77582 16.8751 3.25273 16.8751 3.75002C16.8751 4.2473 16.6775 4.72421 16.3259 5.07584C15.9743 5.42747 15.4974 5.62502 15.0001 5.62502Z" fill="white"/>
</svg>
