<svg width="17" height="17" viewBox="0 0 17 17" fill="none" xmlns="http://www.w3.org/2000/svg">
<path d="M3.88275 1.41128C3.82003 1.3306 3.74086 1.26418 3.6505 1.21645C3.56014 1.16871 3.46066 1.14075 3.35866 1.13442C3.25666 1.12809 3.15448 1.14353 3.05891 1.17973C2.96334 1.21592 2.87657 1.27204 2.80435 1.34434L1.70576 2.444C1.19259 2.95824 1.00347 3.68604 1.22765 4.32458C2.15809 6.96758 3.67164 9.36719 5.65601 11.3454C7.63425 13.3298 10.0338 14.8433 12.6768 15.7738C13.3153 15.998 14.0431 15.8089 14.5574 15.2957L15.6559 14.1971C15.7283 14.1249 15.7844 14.0381 15.8206 13.9425C15.8568 13.847 15.8722 13.7448 15.8659 13.6428C15.8595 13.5408 15.8316 13.4413 15.7838 13.3509C15.7361 13.2606 15.6697 13.1814 15.589 13.1187L13.1379 11.2126C13.0517 11.1457 12.9514 11.0993 12.8447 11.0769C12.738 11.0544 12.6275 11.0565 12.5217 11.083L10.1949 11.6642C9.88429 11.7418 9.5589 11.7377 9.25038 11.6522C8.94187 11.5667 8.66074 11.4028 8.43436 11.1765L5.82494 8.56598C5.59839 8.33971 5.4343 8.05863 5.34865 7.7501C5.263 7.44158 5.25872 7.11613 5.33621 6.80546L5.91844 4.47864C5.9449 4.37281 5.94699 4.26236 5.92453 4.15561C5.90208 4.04886 5.85567 3.9486 5.78882 3.86241L3.88275 1.41128ZM2.00219 0.543238C2.18811 0.357251 2.41148 0.212947 2.65745 0.119907C2.90343 0.0268669 3.16638 -0.0127797 3.42885 0.0035997C3.69132 0.0199791 3.9473 0.0920097 4.1798 0.214908C4.4123 0.337807 4.61599 0.508762 4.77735 0.716421L6.68342 3.16649C7.03297 3.61591 7.15621 4.20134 7.01809 4.75382L6.43692 7.08064C6.40688 7.20116 6.4085 7.32739 6.44164 7.4471C6.47477 7.5668 6.5383 7.6759 6.62604 7.76381L9.23652 10.3743C9.32454 10.4622 9.43382 10.5259 9.55373 10.559C9.67363 10.5921 9.80008 10.5937 9.92075 10.5634L12.2465 9.98226C12.5191 9.91409 12.8037 9.90879 13.0787 9.96677C13.3537 10.0248 13.6119 10.1445 13.8338 10.3169L16.2839 12.223C17.1647 12.9083 17.2454 14.2098 16.457 14.9971L15.3585 16.0957C14.5722 16.882 13.3971 17.2273 12.3017 16.8416C9.49809 15.8551 6.95251 14.25 4.85385 12.1455C2.74941 10.0471 1.14436 7.50187 0.157745 4.69857C-0.226868 3.60423 0.118434 2.42807 0.90466 1.64184L2.00325 0.543238H2.00219Z" fill="#5C5C5C"/>
</svg>
