<svg width="20" height="20" viewBox="0 0 20 20" fill="none" xmlns="http://www.w3.org/2000/svg">
<path d="M15.2492 4.7595C15.1721 4.68224 15.0805 4.62095 14.9797 4.57914C14.8789 4.53732 14.7708 4.51579 14.6617 4.51579C14.5526 4.51579 14.4445 4.53732 14.3437 4.57914C14.2429 4.62095 14.1513 4.68224 14.0742 4.7595L9.99921 8.82616L5.92421 4.75116C5.84706 4.67401 5.75547 4.61281 5.65466 4.57106C5.55386 4.5293 5.44582 4.50781 5.33671 4.50781C5.2276 4.50781 5.11956 4.5293 5.01876 4.57106C4.91795 4.61281 4.82636 4.67401 4.74921 4.75116C4.67206 4.82831 4.61086 4.91991 4.5691 5.02071C4.52735 5.12151 4.50586 5.22955 4.50586 5.33866C4.50586 5.44777 4.52735 5.55581 4.5691 5.65662C4.61086 5.75742 4.67206 5.84901 4.74921 5.92616L8.82421 10.0012L4.74921 14.0762C4.67206 14.1533 4.61086 14.2449 4.5691 14.3457C4.52735 14.4465 4.50586 14.5546 4.50586 14.6637C4.50586 14.7728 4.52735 14.8808 4.5691 14.9816C4.61086 15.0824 4.67206 15.174 4.74921 15.2512C4.82636 15.3283 4.91795 15.3895 5.01876 15.4313C5.11956 15.473 5.2276 15.4945 5.33671 15.4945C5.44582 15.4945 5.55386 15.473 5.65466 15.4313C5.75547 15.3895 5.84706 15.3283 5.92421 15.2512L9.99921 11.1762L14.0742 15.2512C14.1514 15.3283 14.243 15.3895 14.3438 15.4313C14.4446 15.473 14.5526 15.4945 14.6617 15.4945C14.7708 15.4945 14.8789 15.473 14.9797 15.4313C15.0805 15.3895 15.1721 15.3283 15.2492 15.2512C15.3264 15.174 15.3876 15.0824 15.4293 14.9816C15.4711 14.8808 15.4926 14.7728 15.4926 14.6637C15.4926 14.5546 15.4711 14.4465 15.4293 14.3457C15.3876 14.2449 15.3264 14.1533 15.2492 14.0762L11.1742 10.0012L15.2492 5.92616C15.5659 5.6095 15.5659 5.07616 15.2492 4.7595Z" fill="#C1121F"/>
</svg>
