<svg width="25" height="24" viewBox="0 0 25 24" fill="none" xmlns="http://www.w3.org/2000/svg">
<path d="M11.8196 3H5.58961C3.59961 3 2.59961 4.01 2.59961 6.02V22H7.99961V18.25C7.99961 17.84 8.33961 17.5 8.74961 17.5C9.15961 17.5 9.49961 17.83 9.49961 18.25V22H14.7996V6.02C14.7996 4.01 13.8096 3 11.8196 3ZM11.2496 12.75H6.29961C5.88961 12.75 5.54961 12.41 5.54961 12C5.54961 11.59 5.88961 11.25 6.29961 11.25H11.2496C11.6596 11.25 11.9996 11.59 11.9996 12C11.9996 12.41 11.6596 12.75 11.2496 12.75ZM11.2496 9H6.29961C5.88961 9 5.54961 8.66 5.54961 8.25C5.54961 7.84 5.88961 7.5 6.29961 7.5H11.2496C11.6596 7.5 11.9996 7.84 11.9996 8.25C11.9996 8.66 11.6596 9 11.2496 9Z" fill="#C0C6D4"/>
<path d="M23.5 21.2501H21.23V18.2501C22.18 17.9401 22.87 17.0501 22.87 16.0001V14.0001C22.87 12.6901 21.8 11.6201 20.49 11.6201C19.18 11.6201 18.11 12.6901 18.11 14.0001V16.0001C18.11 17.0401 18.79 17.9201 19.72 18.2401V21.2501H1.5C1.09 21.2501 0.75 21.5901 0.75 22.0001C0.75 22.4101 1.09 22.7501 1.5 22.7501H20.43C20.45 22.7501 20.46 22.7601 20.48 22.7601C20.5 22.7601 20.51 22.7501 20.53 22.7501H23.5C23.91 22.7501 24.25 22.4101 24.25 22.0001C24.25 21.5901 23.91 21.2501 23.5 21.2501Z" fill="#C0C6D4"/>
</svg>
