<svg width="17" height="17" viewBox="0 0 17 17" fill="none" xmlns="http://www.w3.org/2000/svg">
<path d="M6.5 2.5C6.5 2.10218 6.65804 1.72064 6.93934 1.43934C7.22064 1.15804 7.60218 1 8 1C8.39782 1 8.77936 1.15804 9.06066 1.43934C9.34196 1.72064 9.5 2.10218 9.5 2.5C9.5 2.89782 9.34196 3.27936 9.06066 3.56066C8.77936 3.84196 8.39782 4 8 4C7.60218 4 7.22064 3.84196 6.93934 3.56066C6.65804 3.27936 6.5 2.89782 6.5 2.5ZM8 0C7.33696 0 6.70107 0.263392 6.23223 0.732233C5.76339 1.20107 5.5 1.83696 5.5 2.5C5.5 3.16304 5.76339 3.79893 6.23223 4.26777C6.70107 4.73661 7.33696 5 8 5C8.66304 5 9.29893 4.73661 9.76777 4.26777C10.2366 3.79893 10.5 3.16304 10.5 2.5C10.5 1.83696 10.2366 1.20107 9.76777 0.732233C9.29893 0.263392 8.66304 0 8 0ZM12.5 3C12.5 2.73478 12.6054 2.48043 12.7929 2.29289C12.9804 2.10536 13.2348 2 13.5 2C13.7652 2 14.0196 2.10536 14.2071 2.29289C14.3946 2.48043 14.5 2.73478 14.5 3C14.5 3.26522 14.3946 3.51957 14.2071 3.70711C14.0196 3.89464 13.7652 4 13.5 4C13.2348 4 12.9804 3.89464 12.7929 3.70711C12.6054 3.51957 12.5 3.26522 12.5 3ZM13.5 1C12.9696 1 12.4609 1.21071 12.0858 1.58579C11.7107 1.96086 11.5 2.46957 11.5 3C11.5 3.53043 11.7107 4.03914 12.0858 4.41421C12.4609 4.78929 12.9696 5 13.5 5C14.0304 5 14.5391 4.78929 14.9142 4.41421C15.2893 4.03914 15.5 3.53043 15.5 3C15.5 2.46957 15.2893 1.96086 14.9142 1.58579C14.5391 1.21071 14.0304 1 13.5 1ZM2.5 2C2.23478 2 1.98043 2.10536 1.79289 2.29289C1.60536 2.48043 1.5 2.73478 1.5 3C1.5 3.26522 1.60536 3.51957 1.79289 3.70711C1.98043 3.89464 2.23478 4 2.5 4C2.76522 4 3.01957 3.89464 3.20711 3.70711C3.39464 3.51957 3.5 3.26522 3.5 3C3.5 2.73478 3.39464 2.48043 3.20711 2.29289C3.01957 2.10536 2.76522 2 2.5 2ZM0.5 3C0.5 2.46957 0.710714 1.96086 1.08579 1.58579C1.46086 1.21071 1.96957 1 2.5 1C3.03043 1 3.53914 1.21071 3.91421 1.58579C4.28929 1.96086 4.5 2.46957 4.5 3C4.5 3.53043 4.28929 4.03914 3.91421 4.41421C3.53914 4.78929 3.03043 5 2.5 5C1.96957 5 1.46086 4.78929 1.08579 4.41421C0.710714 4.03914 0.5 3.53043 0.5 3ZM3 13C3.033 13 3.067 13 3.1 12.998C3.168 13.336 3.271 13.663 3.404 13.973C2.97978 14.0307 2.54813 13.9968 2.13807 13.8738C1.728 13.7508 1.34901 13.5415 1.02655 13.2599C0.704104 12.9782 0.445665 12.6309 0.268602 12.2411C0.0915386 11.8513 -4.66659e-05 11.4281 1.78381e-08 11V7.25C1.78381e-08 6.56 0.56 6 1.25 6H3.379C3.17864 6.29911 3.05343 6.64215 3.014 7H1.25C1.1837 7 1.12011 7.02634 1.07322 7.07322C1.02634 7.12011 1 7.1837 1 7.25V11C1 11.5304 1.21071 12.0391 1.58579 12.4142C1.96086 12.7893 2.46957 13 3 13ZM15 7.5C15.5013 7.87581 15.8432 8.42612 15.958 9.042L16 9.05V7.25C16 6.56 15.44 6 14.75 6H12.621C12.817 6.292 12.946 6.633 12.986 7H14.75C14.8163 7 14.8799 7.02634 14.9268 7.07322C14.9737 7.12011 15 7.1837 15 7.25V7.5ZM13.5 8H11.5C11.1022 8 10.7206 8.15804 10.4393 8.43934C10.158 8.72064 10 9.10218 10 9.5V10H9.5C9.10218 10 8.72064 10.158 8.43934 10.4393C8.15804 10.7206 8 11.1022 8 11.5V13H10V12.5C10 12.3674 10.0527 12.2402 10.1464 12.1464C10.2402 12.0527 10.3674 12 10.5 12C10.6326 12 10.7598 12.0527 10.8536 12.1464C10.9473 12.2402 11 12.3674 11 12.5V13H14V12.5C14 12.3674 14.0527 12.2402 14.1464 12.1464C14.2402 12.0527 14.3674 12 14.5 12C14.6326 12 14.7598 12.0527 14.8536 12.1464C14.9473 12.2402 15 12.3674 15 12.5V13H17V11.5C17 11.1022 16.842 10.7206 16.5607 10.4393C16.2794 10.158 15.8978 10 15.5 10H15V9.5C15 9.10218 14.842 8.72064 14.5607 8.43934C14.2794 8.15804 13.8978 8 13.5 8ZM5.25 7C5.1837 7 5.12011 7.02634 5.07322 7.07322C5.02634 7.12011 5 7.1837 5 7.25V12C5 13.306 5.835 14.418 7 14.83V15.5C7 15.63 7.01 15.757 7.029 15.881C6.16383 15.6641 5.3959 15.1645 4.84713 14.4614C4.29836 13.7582 4.0002 12.8919 4 12V7.25C4 6.56 4.56 6 5.25 6H10.75C11.355 6 11.86 6.43 11.975 7H5.25ZM11 10V9.5C11 9.36739 11.0527 9.24021 11.1464 9.14645C11.2402 9.05268 11.3674 9 11.5 9H13.5C13.6326 9 13.7598 9.05268 13.8536 9.14645C13.9473 9.24021 14 9.36739 14 9.5V10H11ZM15 14V14.5C15 14.6326 14.9473 14.7598 14.8536 14.8536C14.7598 14.9473 14.6326 15 14.5 15C14.3674 15 14.2402 14.9473 14.1464 14.8536C14.0527 14.7598 14 14.6326 14 14.5V14H11V14.5C11 14.6326 10.9473 14.7598 10.8536 14.8536C10.7598 14.9473 10.6326 15 10.5 15C10.3674 15 10.2402 14.9473 10.1464 14.8536C10.0527 14.7598 10 14.6326 10 14.5V14H8V15.5C8 15.8978 8.15804 16.2794 8.43934 16.5607C8.72064 16.842 9.10218 17 9.5 17H15.5C15.8978 17 16.2794 16.842 16.5607 16.5607C16.842 16.2794 17 15.8978 17 15.5V14H15Z" fill="#00CDB4"/>
</svg>
