<svg width="50" height="50" viewBox="0 0 50 50" fill="none" xmlns="http://www.w3.org/2000/svg">
<path d="M17.9688 35.3516H12.3047V29.6875C12.3047 29.4727 12.1289 29.2969 11.9141 29.2969H9.57031C9.35547 29.2969 9.17969 29.4727 9.17969 29.6875V35.3516H3.51562C3.30078 35.3516 3.125 35.5273 3.125 35.7422V38.0859C3.125 38.3008 3.30078 38.4766 3.51562 38.4766H9.17969V44.1406C9.17969 44.3555 9.35547 44.5312 9.57031 44.5312H11.9141C12.1289 44.5312 12.3047 44.3555 12.3047 44.1406V38.4766H17.9688C18.1836 38.4766 18.3594 38.3008 18.3594 38.0859V35.7422C18.3594 35.5273 18.1836 35.3516 17.9688 35.3516Z" fill="#00CDB4"/>
<path d="M44.5312 14.7607L38.2812 18.3594V10.9375C38.2812 9.21387 36.8799 7.8125 35.1562 7.8125H6.25C4.52637 7.8125 3.125 9.21387 3.125 10.9375V28.125H6.64062V11.3281H34.7656V38.6719H21.875V42.1875H35.1562C36.8799 42.1875 38.2812 40.7861 38.2812 39.0625V31.6406L44.5312 35.2393C45.5713 35.8398 46.875 35.0879 46.875 33.8916V16.1133C46.875 14.9121 45.5713 14.1602 44.5312 14.7607ZM43.3594 30.5176L38.2812 27.5977V22.4072L43.3594 19.4824V30.5176Z" fill="#00CDB4"/>
<path d="M15.625 17.5781C15.8398 17.5781 16.0156 17.4023 16.0156 17.1875V14.8438C16.0156 14.6289 15.8398 14.4531 15.625 14.4531H10.1562C9.94141 14.4531 9.76562 14.6289 9.76562 14.8438V17.1875C9.76562 17.4023 9.94141 17.5781 10.1562 17.5781H15.625Z" fill="#00CDB4"/>
</svg>
