<svg width="13" height="7" viewBox="0 0 13 7" fill="none" xmlns="http://www.w3.org/2000/svg">
<path d="M6.4998 6.9748C6.36647 6.9748 6.23747 6.9498 6.1128 6.8998C5.98747 6.8498 5.88314 6.78314 5.7998 6.6998L1.1998 2.0998C1.01647 1.91647 0.924805 1.68314 0.924805 1.3998C0.924805 1.11647 1.01647 0.883138 1.1998 0.699804C1.38314 0.516471 1.61647 0.424805 1.8998 0.424805C2.18314 0.424805 2.41647 0.516471 2.5998 0.699804L6.4998 4.5998L10.3998 0.699804C10.5831 0.516471 10.8165 0.424805 11.0998 0.424805C11.3831 0.424805 11.6165 0.516471 11.7998 0.699804C11.9831 0.883138 12.0748 1.11647 12.0748 1.3998C12.0748 1.68314 11.9831 1.91647 11.7998 2.0998L7.1998 6.6998C7.0998 6.7998 6.99147 6.87047 6.8748 6.9118C6.75814 6.9538 6.63314 6.9748 6.4998 6.9748Z" fill="#A8A8A8"/>
</svg>
