<svg width="16" height="16" viewBox="0 0 16 16" fill="none" xmlns="http://www.w3.org/2000/svg">
<path fill-rule="evenodd" clip-rule="evenodd" d="M4.36864 2.70911V3.88445L3.07363 3.99757C2.15801 4.07756 1.41112 4.82365 1.26427 5.805C1.23235 6.01827 1.20333 6.23193 1.1772 6.44589C1.16423 6.55207 1.21655 6.65484 1.30599 6.70067L1.3649 6.73086C5.51514 8.85755 10.4849 8.85755 14.6351 6.73086L14.694 6.70068C14.7835 6.65484 14.8358 6.55207 14.8228 6.4459C14.7967 6.23193 14.7676 6.01828 14.7357 5.805C14.5889 4.82365 13.842 4.07756 12.9264 3.99758L11.6314 3.88445V2.70911C11.6314 1.99242 11.1469 1.38357 10.492 1.27726L9.55934 1.12586C8.52557 0.958046 7.47444 0.958046 6.44067 1.12586L5.50805 1.27726C4.85314 1.38357 4.36864 1.99242 4.36864 2.70911ZM9.38923 2.35317C8.46823 2.20366 7.53178 2.20366 6.61078 2.35317L5.67816 2.50456C5.5846 2.51975 5.51539 2.60673 5.51539 2.70911V3.7971C7.17044 3.69449 8.82957 3.69449 10.4846 3.7971V2.70911C10.4846 2.60673 10.4154 2.51975 10.3219 2.50456L9.38923 2.35317Z" fill="#64748B"/>
<path d="M14.9709 8.17768C14.9652 8.06175 14.8531 7.98934 14.755 8.03634C10.496 10.0771 5.50395 10.0771 1.24499 8.03633C1.14691 7.98933 1.03477 8.06174 1.02907 8.17767C0.95126 9.75912 1.02966 11.3473 1.26427 12.9151C1.41112 13.8965 2.15801 14.6426 3.07363 14.7226L4.50471 14.8476C6.83112 15.0508 9.16888 15.0508 11.4953 14.8476L12.9264 14.7226C13.842 14.6426 14.5889 13.8965 14.7357 12.9151C14.9703 11.3473 15.0487 9.75912 14.9709 8.17768Z" fill="#64748B"/>
</svg>
