<svg width="12" height="12" viewBox="0 0 12 12" fill="none" xmlns="http://www.w3.org/2000/svg">
<path d="M8.00019 6C9.38019 6 10.5002 4.88 10.5002 3.5C10.5002 2.12 9.38019 1 8.00019 1C6.62019 1 5.50019 2.12 5.50019 3.5C5.50019 4.88 6.62019 6 8.00019 6ZM10.7252 8.8C10.5302 8.6 10.2852 8.5 10.0002 8.5H6.50019L5.46019 8.135L5.62519 7.665L6.50019 8H7.90019C8.07519 8 8.21519 7.93 8.33019 7.815C8.44519 7.7 8.50019 7.56 8.50019 7.405C8.50019 7.135 8.37019 6.95 8.11019 6.845L4.47519 5.5H3.50019V10L7.00019 11L11.0152 9.5C11.0202 9.235 10.9202 9 10.7252 8.8ZM2.50019 5.5H0.492188V11H2.50019V5.5Z" fill="#2F80ED"/>
</svg>
