<svg width="20" height="20" viewBox="0 0 20 20" fill="none" xmlns="http://www.w3.org/2000/svg">
<g clip-path="url(#clip0_395_39252)">
<path d="M18.1249 16.2493C17.7028 16.251 17.2938 16.3965 16.9655 16.6618L15.6249 15.8887V14.885C16.0419 14.7375 16.3934 14.4474 16.6172 14.0659C16.841 13.6844 16.9227 13.2361 16.8479 12.8001C16.7731 12.3642 16.5466 11.9687 16.2084 11.6836C15.8703 11.3985 15.4422 11.2422 14.9999 11.2422C14.5576 11.2422 14.1295 11.3985 13.7913 11.6836C13.4532 11.9687 13.2267 12.3642 13.1519 12.8001C13.0771 13.2361 13.1588 13.6844 13.3826 14.0659C13.6064 14.4474 13.9579 14.7375 14.3749 14.885V15.8887L13.0343 16.6631C12.7061 16.3973 12.2972 16.2514 11.8749 16.2493C11.4831 16.2467 11.1002 16.366 10.7793 16.5907C10.4584 16.8155 10.2154 17.1345 10.084 17.5036C9.95256 17.8727 9.93923 18.2735 10.0459 18.6505C10.1525 19.0274 10.3738 19.3619 10.679 19.6075C10.9843 19.853 11.3584 19.9975 11.7495 20.0209C12.1405 20.0443 12.5292 19.9454 12.8615 19.738C13.1939 19.5305 13.4534 19.2248 13.6042 18.8632C13.755 18.5016 13.7895 18.1021 13.703 17.72L14.9999 16.9706L16.2968 17.7193C16.2132 18.0982 16.2492 18.4937 16.4 18.8512C16.5508 19.2087 16.8089 19.5106 17.1385 19.7152C17.4682 19.9198 17.8533 20.017 18.2406 19.9934C18.6279 19.9697 18.9983 19.8264 19.3007 19.5833C19.603 19.3402 19.8225 19.0091 19.9287 18.636C20.0349 18.2628 20.0226 17.8658 19.8936 17.4999C19.7645 17.134 19.5251 16.8171 19.2082 16.5931C18.8914 16.3691 18.5129 16.249 18.1249 16.2493ZM11.8749 18.7493C11.7513 18.7493 11.6304 18.7127 11.5277 18.644C11.4249 18.5753 11.3448 18.4777 11.2975 18.3635C11.2502 18.2493 11.2378 18.1236 11.2619 18.0024C11.286 17.8812 11.3455 17.7698 11.4329 17.6824C11.5203 17.595 11.6317 17.5355 11.753 17.5113C11.8742 17.4872 11.9999 17.4996 12.1141 17.5469C12.2283 17.5942 12.3259 17.6743 12.3946 17.7771C12.4632 17.8799 12.4999 18.0007 12.4999 18.1243C12.4999 18.2901 12.434 18.4491 12.3168 18.5663C12.1996 18.6835 12.0406 18.7493 11.8749 18.7493ZM14.9999 12.4993C15.1235 12.4993 15.2443 12.536 15.3471 12.6047C15.4499 12.6733 15.53 12.7709 15.5773 12.8852C15.6246 12.9994 15.637 13.125 15.6129 13.2463C15.5888 13.3675 15.5292 13.4789 15.4418 13.5663C15.3544 13.6537 15.2431 13.7132 15.1218 13.7373C15.0006 13.7614 14.8749 13.7491 14.7607 13.7018C14.6465 13.6544 14.5489 13.5743 14.4802 13.4716C14.4115 13.3688 14.3749 13.2479 14.3749 13.1243C14.3749 12.9586 14.4407 12.7996 14.5579 12.6824C14.6752 12.5652 14.8341 12.4993 14.9999 12.4993ZM18.1249 18.7493C18.0013 18.7493 17.8804 18.7127 17.7777 18.644C17.6749 18.5753 17.5948 18.4777 17.5475 18.3635C17.5002 18.2493 17.4878 18.1236 17.5119 18.0024C17.536 17.8812 17.5955 17.7698 17.6829 17.6824C17.7703 17.595 17.8817 17.5355 18.003 17.5113C18.1242 17.4872 18.2499 17.4996 18.3641 17.5469C18.4783 17.5942 18.5759 17.6743 18.6446 17.7771C18.7132 17.8799 18.7499 18.0007 18.7499 18.1243C18.7499 18.2901 18.684 18.4491 18.5668 18.5663C18.4496 18.6835 18.2906 18.7493 18.1249 18.7493Z" fill="#A8A8A8"/>
<path d="M4.375 13.75C5.06536 13.75 5.625 13.1904 5.625 12.5C5.625 11.8096 5.06536 11.25 4.375 11.25C3.68464 11.25 3.125 11.8096 3.125 12.5C3.125 13.1904 3.68464 13.75 4.375 13.75Z" fill="#A8A8A8"/>
<path d="M8.75 12.5C8.25555 12.5 7.7722 12.3534 7.36108 12.0787C6.94995 11.804 6.62952 11.4135 6.4403 10.9567C6.25108 10.4999 6.20157 9.99723 6.29804 9.51228C6.3945 9.02732 6.6326 8.58187 6.98223 8.23223C7.33187 7.8826 7.77732 7.6445 8.26228 7.54804C8.74723 7.45157 9.2499 7.50108 9.70671 7.6903C10.1635 7.87952 10.554 8.19995 10.8287 8.61108C11.1034 9.0222 11.25 9.50555 11.25 10C11.248 10.6624 10.984 11.2972 10.5156 11.7656C10.0472 12.234 9.41243 12.498 8.75 12.5ZM8.75 8.75C8.50277 8.75 8.2611 8.82331 8.05554 8.96066C7.84998 9.09802 7.68976 9.29324 7.59515 9.52165C7.50054 9.75005 7.47579 10.0014 7.52402 10.2439C7.57225 10.4863 7.6913 10.7091 7.86612 10.8839C8.04093 11.0587 8.26366 11.1778 8.50614 11.226C8.74861 11.2742 8.99995 11.2495 9.22836 11.1549C9.45676 11.0602 9.65199 10.9 9.78934 10.6945C9.92669 10.4889 10 10.2472 10 10C9.99901 9.66879 9.867 9.35142 9.63279 9.11721C9.39859 8.883 9.08122 8.75099 8.75 8.75Z" fill="#A8A8A8"/>
<path d="M13.125 8.75C13.8154 8.75 14.375 8.19036 14.375 7.5C14.375 6.80964 13.8154 6.25 13.125 6.25C12.4346 6.25 11.875 6.80964 11.875 7.5C11.875 8.19036 12.4346 8.75 13.125 8.75Z" fill="#A8A8A8"/>
<path d="M8.1375 17.6696L1.875 14.0171V5.98394L8.75 1.97394L15.935 6.16519L16.565 5.08519L9.065 0.710185C8.9694 0.654397 8.86069 0.625 8.75 0.625C8.63931 0.625 8.5306 0.654397 8.435 0.710185L0.935 5.08519C0.840639 5.14025 0.76236 5.21908 0.707967 5.31383C0.653574 5.40858 0.624968 5.51593 0.625 5.62519V14.3752C0.624968 14.4844 0.653574 14.5918 0.707967 14.6865C0.76236 14.7813 0.840639 14.8601 0.935 14.9152L7.50812 18.7502L8.1375 17.6696Z" fill="#A8A8A8"/>
</g>
<defs>
<clipPath id="clip0_395_39252">
<rect width="20" height="20" fill="white"/>
</clipPath>
</defs>
</svg>
