<svg width="18" height="15" viewBox="0 0 18 15" fill="none" xmlns="http://www.w3.org/2000/svg">
<path d="M3.375 4.25C3.20924 4.25 3.05027 4.31585 2.93306 4.43306C2.81585 4.55027 2.75 4.70924 2.75 4.875C2.75 5.04076 2.81585 5.19973 2.93306 5.31694C3.05027 5.43415 3.20924 5.5 3.375 5.5H12.125C12.2908 5.5 12.4497 5.43415 12.5669 5.31694C12.6842 5.19973 12.75 5.04076 12.75 4.875C12.75 4.70924 12.6842 4.55027 12.5669 4.43306C12.4497 4.31585 12.2908 4.25 12.125 4.25H3.375ZM3.375 6.75C3.20924 6.75 3.05027 6.81585 2.93306 6.93306C2.81585 7.05027 2.75 7.20924 2.75 7.375V9.875C2.75 10.0408 2.81585 10.1997 2.93306 10.3169C3.05027 10.4342 3.20924 10.5 3.375 10.5H5.875C6.04076 10.5 6.19973 10.4342 6.31694 10.3169C6.43415 10.1997 6.5 10.0408 6.5 9.875V7.375C6.5 7.20924 6.43415 7.05027 6.31694 6.93306C6.19973 6.81585 6.04076 6.75 5.875 6.75H3.375ZM4 9.25V8H5.25V9.25H4ZM8.375 6.75C8.20924 6.75 8.05027 6.81585 7.93306 6.93306C7.81585 7.05027 7.75 7.20924 7.75 7.375C7.75 7.54076 7.81585 7.69973 7.93306 7.81694C8.05027 7.93415 8.20924 8 8.375 8H12.125C12.2908 8 12.4497 7.93415 12.5669 7.81694C12.6842 7.69973 12.75 7.54076 12.75 7.375C12.75 7.20924 12.6842 7.05027 12.5669 6.93306C12.4497 6.81585 12.2908 6.75 12.125 6.75H8.375ZM8.375 9.25C8.20924 9.25 8.05027 9.31585 7.93306 9.43306C7.81585 9.55027 7.75 9.70924 7.75 9.875C7.75 10.0408 7.81585 10.1997 7.93306 10.3169C8.05027 10.4342 8.20924 10.5 8.375 10.5H12.125C12.2908 10.5 12.4497 10.4342 12.5669 10.3169C12.6842 10.1997 12.75 10.0408 12.75 9.875C12.75 9.70924 12.6842 9.55027 12.5669 9.43306C12.4497 9.31585 12.2908 9.25 12.125 9.25H8.375ZM0.25 3C0.25 2.33696 0.513392 1.70107 0.982233 1.23223C1.45107 0.763392 2.08696 0.5 2.75 0.5H12.75C13.413 0.5 14.0489 0.763392 14.5178 1.23223C14.9866 1.70107 15.25 2.33696 15.25 3C15.913 3 16.5489 3.26339 17.0178 3.73223C17.4866 4.20107 17.75 4.83696 17.75 5.5V11.125C17.75 11.9538 17.4208 12.7487 16.8347 13.3347C16.2487 13.9208 15.4538 14.25 14.625 14.25H3.375C2.5462 14.25 1.75134 13.9208 1.16529 13.3347C0.57924 12.7487 0.25 11.9538 0.25 11.125V3ZM14.625 11.125C14.4592 11.125 14.3003 11.0592 14.1831 10.9419C14.0658 10.8247 14 10.6658 14 10.5V3C14 2.66848 13.8683 2.35054 13.6339 2.11612C13.3995 1.8817 13.0815 1.75 12.75 1.75H2.75C2.41848 1.75 2.10054 1.8817 1.86612 2.11612C1.6317 2.35054 1.5 2.66848 1.5 3V11.125C1.5 11.6223 1.69754 12.0992 2.04917 12.4508C2.40081 12.8025 2.87772 13 3.375 13H14.625C15.1223 13 15.5992 12.8025 15.9508 12.4508C16.3025 12.0992 16.5 11.6223 16.5 11.125V5.5C16.5 5.16848 16.3683 4.85054 16.1339 4.61612C15.8995 4.3817 15.5815 4.25 15.25 4.25V10.5C15.25 10.6658 15.1842 10.8247 15.0669 10.9419C14.9497 11.0592 14.7908 11.125 14.625 11.125Z" fill="#A8A8A8"/>
</svg>
