<svg width="35" height="35" viewBox="0 0 35 35" fill="none" xmlns="http://www.w3.org/2000/svg">
<path d="M4.375 34.375C3.34375 34.375 2.46062 34.0081 1.72562 33.2744C0.991875 32.5394 0.625 31.6562 0.625 30.625V4.375C0.625 3.34375 0.991875 2.46062 1.72562 1.72562C2.46062 0.991875 3.34375 0.625 4.375 0.625H21.25V4.375H4.375V30.625H30.625V13.75H34.375V30.625C34.375 31.6562 34.0081 32.5394 33.2744 33.2744C32.5394 34.0081 31.6562 34.375 30.625 34.375H4.375ZM26.875 11.875V8.125H23.125V4.375H26.875V0.625H30.625V4.375H34.375V8.125H30.625V11.875H26.875ZM6.25 26.875H28.75L21.7188 17.5L16.0938 25L11.875 19.375L6.25 26.875Z" fill="#00CDB4"/>
</svg>
