<svg width="30" height="30" viewBox="0 0 30 30" fill="none" xmlns="http://www.w3.org/2000/svg">
<path d="M24.1749 18.1125L22.9249 16.0375C22.6624 15.575 22.4249 14.7 22.4249 14.1875V11.025C22.4249 8.0875 20.6999 5.55 18.2124 4.3625C17.5624 3.2125 16.3624 2.5 14.9874 2.5C13.6249 2.5 12.3999 3.2375 11.7499 4.4C9.31243 5.6125 7.62493 8.125 7.62493 11.025V14.1875C7.62493 14.7 7.38743 15.575 7.12493 16.025L5.86243 18.1125C5.36243 18.95 5.24993 19.875 5.56243 20.725C5.86243 21.5625 6.57493 22.2125 7.49993 22.525C9.92493 23.35 12.4749 23.75 15.0249 23.75C17.5749 23.75 20.1249 23.35 22.5499 22.5375C23.4249 22.25 24.0999 21.5875 24.4249 20.725C24.7499 19.8625 24.6624 18.9125 24.1749 18.1125Z" fill="#F9FBFC"/>
<path d="M18.5376 25.0125C18.0126 26.4625 16.6251 27.5 15.0001 27.5C14.0126 27.5 13.0376 27.1 12.3501 26.3875C11.9501 26.0125 11.6501 25.5125 11.4751 25C11.6376 25.025 11.8001 25.0375 11.9751 25.0625C12.2626 25.1 12.5626 25.1375 12.8626 25.1625C13.5751 25.225 14.3001 25.2625 15.0251 25.2625C15.7376 25.2625 16.4501 25.225 17.1501 25.1625C17.4126 25.1375 17.6751 25.125 17.9251 25.0875C18.1251 25.0625 18.3251 25.0375 18.5376 25.0125Z" fill="#F9FBFC"/>
</svg>
