<svg width="14" height="11" viewBox="0 0 14 11" fill="none" xmlns="http://www.w3.org/2000/svg">
<path d="M4.66693 7.86823L11.5503 0.984895C11.7641 0.771006 12.0364 0.664062 12.3669 0.664062C12.6975 0.664062 12.9697 0.771006 13.1836 0.984895C13.3975 1.19878 13.5044 1.47101 13.5044 1.80156C13.5044 2.13212 13.3975 2.40434 13.1836 2.61823L5.48359 10.3182C5.25026 10.5516 4.97804 10.6682 4.66693 10.6682C4.35582 10.6682 4.08359 10.5516 3.85026 10.3182L0.816927 7.2849C0.603038 7.07101 0.496094 6.79878 0.496094 6.46823C0.496094 6.13767 0.603038 5.86545 0.816927 5.65156C1.03082 5.43767 1.30304 5.33073 1.63359 5.33073C1.96415 5.33073 2.23637 5.43767 2.45026 5.65156L4.66693 7.86823Z" fill="#00CDB4"/>
</svg>
