<svg width="18" height="18" viewBox="0 0 18 18" fill="none" xmlns="http://www.w3.org/2000/svg">
<path d="M17.8568 12.1091L14.165 9.48065C14.1272 9.45358 14.0827 9.43751 14.0364 9.43422C13.9901 9.43094 13.9437 9.44057 13.9026 9.46205C13.8178 9.50565 13.7658 9.60085 13.7656 9.69665L13.7674 10.9409H10.4462C10.305 10.9409 10.168 11.0403 10.168 11.1817V13.4701C10.168 13.6115 10.305 13.7089 10.4462 13.7089H13.801V14.9629C13.801 15.0585 13.8378 15.1463 13.9228 15.1901C14.0078 15.2339 14.0934 15.2265 14.1712 15.1707L17.8576 12.5251C17.9246 12.4773 17.953 12.3999 17.953 12.3175V12.3171C17.953 12.2343 17.9242 12.1571 17.8568 12.1091Z" fill="#2D014B"/>
<path d="M11.8119 14.7122H10.5139C10.4221 14.7122 10.3341 14.7486 10.2692 14.8135C10.2043 14.8784 10.1679 14.9664 10.1679 15.0582H10.1665V15.6602H2.03807V6.23356H5.58267C5.67444 6.23356 5.76245 6.19711 5.82733 6.13222C5.89222 6.06733 5.92867 5.97933 5.92867 5.88756V2.34296H10.1663V9.61416H10.1685C10.1704 9.70446 10.2076 9.79042 10.2721 9.85363C10.3367 9.91684 10.4234 9.95228 10.5137 9.95236H11.8117C12.0003 9.95236 12.1527 9.80156 12.1569 9.61416H12.1577V1.50156H12.1567V0.697562C12.1567 0.605797 12.1202 0.517791 12.0553 0.452904C11.9904 0.388016 11.9024 0.351563 11.8107 0.351562H5.23667L0.046875 5.54156V17.3054C0.046875 17.4966 0.201675 17.6514 0.392875 17.6514H11.8107C11.9024 17.6514 11.9904 17.6149 12.0553 17.55C12.1202 17.4851 12.1567 17.3971 12.1567 17.3054V16.8158H12.1577V15.0578C12.1576 14.9661 12.1212 14.8782 12.0563 14.8134C11.9915 14.7486 11.9036 14.7122 11.8119 14.7122Z" fill="#2D014B"/>
<path d="M4.2363 11.8365C4.4025 11.8365 4.5463 11.9611 4.5935 12.1049L5.0751 11.8807C4.9645 11.6261 4.7209 11.3438 4.2365 11.3438C3.6579 11.3438 3.2207 11.7286 3.2207 12.2988C3.2207 12.8662 3.6581 13.2536 4.2365 13.2536C4.7209 13.2536 4.9673 12.9601 5.0751 12.7137L4.5935 12.4924C4.5465 12.6362 4.4025 12.7607 4.2363 12.7607C3.9679 12.7607 3.7879 12.556 3.7879 12.2986C3.7879 12.0412 3.9677 11.8365 4.2363 11.8365ZM6.1315 12.7833C5.90986 12.7836 5.69666 12.6984 5.5363 12.5454L5.2457 12.9605C5.4421 13.1377 5.7107 13.254 6.1039 13.254C6.5993 13.254 6.9011 13.0188 6.9011 12.6118C6.9011 11.9254 5.8741 12.0747 5.8741 11.9003C5.8741 11.8533 5.9045 11.8174 6.0153 11.8174C6.1897 11.8174 6.3973 11.8781 6.5577 11.9999L6.8567 11.6042C6.6463 11.4326 6.3751 11.3467 6.0733 11.3467C5.5667 11.3467 5.3067 11.6457 5.3067 11.9585C5.3067 12.6865 6.3363 12.5065 6.3363 12.6837C6.3363 12.7555 6.2367 12.7833 6.1315 12.7833ZM7.6545 11.3743H7.0207L7.7015 13.2206H8.4047L9.0855 11.3743H8.4517L8.0531 12.6171L7.6545 11.3743Z" fill="#2D014B"/>
</svg>
