<svg width="56" height="53" viewBox="0 0 56 53" fill="none" xmlns="http://www.w3.org/2000/svg">
<path d="M40.4073 14.8667C39.9637 14.8403 39.5127 14.9367 39.1059 15.1448C38.6991 15.3529 38.3528 15.6643 38.1065 16.0436L33.507 23.076L25.5169 19.3894C25.1397 19.2201 24.7162 19.1545 24.2894 19.1992C23.8626 19.2439 23.4479 19.3974 23.0874 19.6441C22.7269 19.8907 22.4335 20.2217 22.2372 20.6032C22.0408 20.9848 21.9485 21.4033 21.9696 21.8162L22.5105 30.5991L14.2893 32.3379C13.846 32.4307 13.4297 32.6409 13.0875 32.9447C12.7452 33.2485 12.4907 33.6337 12.3527 34.057C12.2146 34.4802 12.1986 34.9245 12.3063 35.3396C12.414 35.7548 12.6413 36.1242 12.9623 36.4061L24.8963 46.9449C25.1266 47.1494 25.4004 47.3033 25.7013 47.3973C26.0022 47.4913 26.3238 47.5234 26.6466 47.4916C27.0853 47.4509 27.5126 47.2958 27.8832 47.0428C28.0631 46.9193 28.2259 46.773 28.367 46.6082C33.2022 41.0897 39.3977 36.8511 46.2933 34.3442C46.9183 34.1085 47.4386 33.6469 47.74 33.0608C47.8892 32.772 47.9773 32.4604 47.9987 32.1455C48.0202 31.8306 47.9745 31.5193 47.8647 31.2313L42.3791 16.2809C42.2316 15.8801 41.9688 15.5353 41.6204 15.2854C41.272 15.0355 40.8518 14.8905 40.4073 14.8667Z" fill="#FFAA00"/>
<circle cx="20.9218" cy="16.4807" r="5.1105" transform="rotate(-34.3776 20.9218 16.4807)" fill="#FFAA00"/>
<circle cx="31.0229" cy="31.2433" r="3.83288" transform="rotate(-34.3776 31.0229 31.2433)" fill="#BE9502"/>
<circle cx="40.9026" cy="12.8756" r="3.19406" transform="rotate(-34.3776 40.9026 12.8756)" fill="#FFAA00"/>
<circle cx="10.3225" cy="33.7956" r="3.19406" transform="rotate(-34.3776 10.3225 33.7956)" fill="#FFAA00"/>
<circle cx="24.197" cy="38.2359" r="1.91644" transform="rotate(-34.3776 24.197 38.2359)" fill="#BE9502"/>
<circle cx="40.0134" cy="27.4156" r="1.91644" transform="rotate(-34.3776 40.0134 27.4156)" fill="#BE9502"/>
</svg>
