<svg width="15" height="15" viewBox="0 0 15 15" fill="none" xmlns="http://www.w3.org/2000/svg">
<path d="M8.70699 1.87935C8.70699 1.37509 8.2982 0.966309 7.79394 0.966309C7.28968 0.966309 6.8809 1.37509 6.8809 1.87935V7.05326H1.70699C1.20273 7.05326 0.793945 7.46205 0.793945 7.96631C0.793945 8.47057 1.20273 8.87935 1.70699 8.87935H6.8809V14.0533C6.8809 14.5575 7.28968 14.9663 7.79394 14.9663C8.2982 14.9663 8.70699 14.5575 8.70699 14.0533V8.87935H13.8809C14.3852 8.87935 14.7939 8.47057 14.7939 7.96631C14.7939 7.46205 14.3852 7.05326 13.8809 7.05326H8.70699V1.87935Z" fill="#F9FBFC"/>
</svg>
