<svg width="20" height="18" viewBox="0 0 20 18" fill="none" xmlns="http://www.w3.org/2000/svg">
<path d="M1.34126e-06 5.99401C-0.000525832 5.20621 0.154353 4.42605 0.455768 3.69819C0.757183 2.97034 1.19921 2.30909 1.75655 1.75231C2.31388 1.19553 2.97558 0.754165 3.70373 0.453478C4.43189 0.152791 5.21221 -0.00130701 6 8.35025e-06H14C17.313 8.35025e-06 20 2.69501 20 5.99401V18H6C2.687 18 1.34126e-06 15.305 1.34126e-06 12.006V5.99401ZM12 8.00001V10H14V8.00001H12ZM6 8.00001V10H8V8.00001H6Z" fill="#00CDB4"/>
</svg>
