<svg width="20" height="20" viewBox="0 0 20 20" fill="none" xmlns="http://www.w3.org/2000/svg">
<path d="M0.400391 10.6C0.400391 10.3636 0.446949 10.1296 0.537408 9.91119C0.627866 9.69281 0.760453 9.49438 0.927598 9.32723C1.09474 9.16009 1.29317 9.0275 1.51156 8.93704C1.72995 8.84658 1.96401 8.80002 2.20039 8.80002C2.43677 8.80002 2.67083 8.84658 2.88922 8.93704C3.10761 9.0275 3.30604 9.16009 3.47318 9.32723C3.64033 9.49438 3.77292 9.69281 3.86337 9.91119C3.95383 10.1296 4.00039 10.3636 4.00039 10.6V17.8C4.00039 18.2774 3.81075 18.7353 3.47318 19.0728C3.13562 19.4104 2.67778 19.6 2.20039 19.6C1.723 19.6 1.26516 19.4104 0.927598 19.0728C0.590033 18.7353 0.400391 18.2774 0.400391 17.8V10.6ZM5.20039 10.3996V16.9156C5.20018 17.3616 5.32425 17.7989 5.55869 18.1783C5.79312 18.5577 6.12863 18.8643 6.52759 19.0636L6.58759 19.0936C7.25345 19.4264 7.98759 19.5998 8.73199 19.6H15.2312C15.7862 19.6002 16.3242 19.4081 16.7535 19.0563C17.1827 18.7044 17.4768 18.2147 17.5856 17.6704L19.0256 10.4704C19.0952 10.1223 19.0867 9.76301 19.0006 9.41855C18.9146 9.07409 18.7532 8.753 18.5282 8.47844C18.3031 8.20387 18.0199 7.98267 17.6989 7.83077C17.378 7.67887 17.0274 7.60006 16.6724 7.60002H12.4004V2.80002C12.4004 2.1635 12.1475 1.55306 11.6974 1.10297C11.2474 0.652881 10.6369 0.400024 10.0004 0.400024C9.68213 0.400024 9.37691 0.526453 9.15186 0.751496C8.92682 0.97654 8.80039 1.28176 8.80039 1.60002V2.40042C8.80039 3.439 8.46354 4.44956 7.84039 5.28042L6.16039 7.51962C5.53724 8.35049 5.20039 9.36105 5.20039 10.3996Z" fill="#00CDB4"/>
</svg>
