<svg width="25" height="24" viewBox="0 0 25 24" fill="none" xmlns="http://www.w3.org/2000/svg">
<path d="M21.5391 13.2799L20.6191 12.3799L12.8691 20.1199L13.7991 21.0499C14.5791 21.8299 15.3891 22.2199 16.1891 22.2199C16.9891 22.2199 17.7991 21.8299 18.5791 21.0499L21.5391 18.0899C23.1291 16.4899 23.1291 14.8799 21.5391 13.2799Z" fill="#C0C6D4"/>
<path d="M11.1898 2.92994C9.61976 1.35994 7.96977 1.35994 6.39977 2.92994L3.42977 5.88994C1.86977 7.45994 1.86977 9.10994 3.42977 10.6799L4.34977 11.5999L12.0998 3.84994L11.1898 2.92994Z" fill="#C0C6D4"/>
<path d="M22.3098 3.94009C20.9998 7.21009 18.0098 11.4801 15.1598 14.2701C14.7498 11.6901 12.6898 9.67009 10.0898 9.31009C12.8898 6.45009 17.1898 3.42009 20.4698 2.10009C21.0498 1.88009 21.6298 2.05009 21.9898 2.41009C22.3698 2.79009 22.5498 3.36009 22.3098 3.94009Z" fill="#C0C6D4"/>
<path d="M14.2791 15.09C14.0791 15.26 13.8791 15.43 13.6791 15.59L11.8891 17.02C11.8891 16.99 11.8791 16.95 11.8791 16.91C11.7391 15.84 11.2391 14.85 10.4291 14.04C9.60914 13.22 8.58914 12.72 7.46914 12.58C7.43914 12.58 7.39914 12.57 7.36914 12.57L8.81914 10.74C8.95914 10.56 9.10914 10.39 9.26914 10.21L9.94914 10.3C12.0991 10.6 13.8291 12.29 14.1691 14.43L14.2791 15.09Z" fill="#C0C6D4"/>
<path d="M10.9298 17.6198C10.9298 18.7198 10.5098 19.7698 9.70976 20.5598C9.09976 21.1798 8.27977 21.5998 7.27977 21.7198L4.82976 21.9898C3.48976 22.1398 2.33976 20.9898 2.48976 19.6398L2.75976 17.1798C2.99976 14.9898 4.82976 13.5898 6.76976 13.5498C6.95976 13.5398 7.16976 13.5498 7.36976 13.5698C8.21976 13.6798 9.03976 14.0698 9.72976 14.7498C10.3998 15.4198 10.7798 16.2098 10.8898 17.0398C10.9098 17.2398 10.9298 17.4298 10.9298 17.6198Z" fill="#C0C6D4"/>
</svg>
