<svg width="22" height="14" viewBox="0 0 22 14" fill="none" xmlns="http://www.w3.org/2000/svg">
<path d="M11 12.45C10.8667 12.45 10.7373 12.429 10.612 12.387C10.4867 12.345 10.3827 12.2827 10.3 12.2C9.6 11.5667 9.04167 10.779 8.625 9.837C8.20833 8.895 8 7.94933 8 7C8 6.05 8.20833 5.104 8.625 4.162C9.04167 3.22 9.60833 2.43267 10.325 1.8C10.425 1.71667 10.5293 1.65 10.638 1.6C10.7467 1.55 10.8673 1.525 11 1.525C11.1333 1.525 11.2583 1.55 11.375 1.6C11.4917 1.65 11.6 1.71667 11.7 1.8C12.4 2.43333 12.9583 3.22067 13.375 4.162C13.7917 5.10333 14 6.04933 14 7C14 7.95 13.7917 8.896 13.375 9.838C12.9583 10.78 12.3917 11.5673 11.675 12.2C11.575 12.2833 11.4707 12.346 11.362 12.388C11.2533 12.43 11.1327 12.4507 11 12.45ZM15 14C14.5333 14 14.0833 13.9583 13.65 13.875C13.2167 13.7917 12.8083 13.6667 12.425 13.5C12.7083 13.3 12.9793 13.05 13.238 12.75C13.4967 12.45 13.7257 12.1583 13.925 11.875C14.1083 11.9083 14.2873 11.9377 14.462 11.963C14.6367 11.9883 14.816 12.0007 15 12C16.3833 12 17.5627 11.5123 18.538 10.537C19.5133 9.56167 20.0007 8.38267 20 7C20 5.6 19.5123 4.41667 18.537 3.45C17.5617 2.48333 16.3827 2 15 2C14.8167 2 14.6377 2.00833 14.463 2.025C14.2883 2.04167 14.109 2.06667 13.925 2.1C13.725 1.81667 13.5 1.525 13.25 1.225C13 0.925 12.725 0.675 12.425 0.475C12.825 0.308334 13.2377 0.187667 13.663 0.113C14.0883 0.0383337 14.534 0.000667157 15 4.90436e-07C16.9333 4.90436e-07 18.5833 0.679334 19.95 2.038C21.3167 3.39667 22 5.05067 22 7C22 8.93333 21.3167 10.5833 19.95 11.95C18.5833 13.3167 16.9333 14 15 14ZM7 14C5.05 14 3.39567 13.3207 2.037 11.962C0.678334 10.6033 -0.000666176 8.94933 4.90436e-07 7C4.90436e-07 5.05 0.679334 3.39567 2.038 2.037C3.39667 0.678334 5.05067 -0.000666176 7 4.90436e-07C7.45 4.90436e-07 7.88767 0.0416672 8.313 0.125C8.73833 0.208334 9.15067 0.333334 9.55 0.5C8.61667 1.11667 7.875 2.08333 7.325 3.4C6.775 4.71667 6.5 5.91667 6.5 7C6.5 8.08333 6.775 9.28333 7.325 10.6C7.875 11.9167 8.61667 12.8833 9.55 13.5C9.15 13.6667 8.73733 13.7917 8.312 13.875C7.88667 13.9583 7.44933 14 7 14Z" fill="#00CDB4"/>
</svg>
