<svg width="18" height="18" viewBox="0 0 18 18" fill="none" xmlns="http://www.w3.org/2000/svg">
<path d="M6.18317 5.50348L1.39817 6.19723L1.31342 6.21448C1.18513 6.24854 1.06817 6.31603 0.974492 6.41008C0.880815 6.50412 0.813776 6.62134 0.78022 6.74977C0.746664 6.8782 0.747794 7.01323 0.783494 7.14108C0.819194 7.26893 0.888186 7.38501 0.983423 7.47748L4.44992 10.8517L3.63242 15.618L3.62267 15.7005C3.61482 15.8332 3.64237 15.9656 3.70251 16.0841C3.76265 16.2026 3.85321 16.3031 3.96493 16.3751C4.07664 16.4471 4.20549 16.4882 4.33828 16.4941C4.47108 16.4999 4.60305 16.4704 4.72067 16.4085L9.00017 14.1585L13.2699 16.4085L13.3449 16.443C13.4687 16.4917 13.6033 16.5067 13.7347 16.4863C13.8662 16.4659 13.9899 16.4109 14.0931 16.3269C14.1963 16.243 14.2753 16.133 14.3221 16.0085C14.3688 15.8839 14.3815 15.7491 14.3589 15.618L13.5407 10.8517L17.0087 7.47673L17.0672 7.41298C17.1507 7.31005 17.2055 7.18682 17.226 7.05582C17.2464 6.92483 17.2317 6.79076 17.1835 6.66727C17.1352 6.54379 17.0551 6.4353 16.9513 6.35286C16.8475 6.27042 16.7236 6.21698 16.5924 6.19798L11.8074 5.50348L9.66842 1.16848C9.60653 1.04288 9.51071 0.937113 9.39182 0.863155C9.27292 0.789198 9.1357 0.75 8.99567 0.75C8.85565 0.75 8.71843 0.789198 8.59953 0.863155C8.48064 0.937113 8.38482 1.04288 8.32292 1.16848L6.18317 5.50348Z" fill="#5B3B8D"/>
</svg>
