<svg width="32" height="32" viewBox="0 0 32 32" fill="none" xmlns="http://www.w3.org/2000/svg">
<path d="M25.333 21.334V25.334M25.333 25.334V29.334M25.333 25.334H29.333M25.333 25.334H21.333" stroke="#454545" stroke-width="2" stroke-linecap="round" stroke-linejoin="round"/>
<path fill-rule="evenodd" clip-rule="evenodd" d="M8 2.66699H16V10.667C16 11.7279 16.4214 12.7453 17.1716 13.4954C17.9217 14.2456 18.9391 14.667 20 14.667H28V17.7883C26.4576 17.2422 24.7849 17.1822 23.2074 17.6162C21.6298 18.0503 20.2233 18.9577 19.1775 20.216C18.1316 21.4743 17.4968 23.023 17.3585 24.6533C17.2202 26.2836 17.5851 27.9172 18.404 29.3337H8C6.93913 29.3337 5.92172 28.9122 5.17157 28.1621C4.42143 27.4119 4 26.3945 4 25.3337V6.66699C4 5.60613 4.42143 4.58871 5.17157 3.83857C5.92172 3.08842 6.93913 2.66699 8 2.66699ZM28 11.771V12.0003H20C19.6464 12.0003 19.3072 11.8598 19.0572 11.6098C18.8071 11.3598 18.6667 11.0206 18.6667 10.667V2.66699H18.896C19.9563 2.66757 20.973 3.08912 21.7227 3.83899L26.8293 8.94299C27.579 9.69318 28.0001 10.7104 28 11.771Z" fill="#454545"/>
</svg>
