<svg width="20" height="20" viewBox="0 0 20 20" fill="none" xmlns="http://www.w3.org/2000/svg">
<path d="M15.4994 7.00126C16.134 7.00115 16.7449 7.24234 17.2082 7.67593C17.6715 8.10953 17.9526 8.70309 17.9944 9.33626L17.9994 9.50026V10.2573C17.6909 10.0026 17.3556 9.78233 16.9994 9.60026V9.50026C16.9994 9.12738 16.8605 8.76787 16.6098 8.49184C16.3591 8.21581 16.0146 8.04306 15.6434 8.00726L15.4994 8.00026H9.49944C9.12656 8.00028 8.76705 8.13918 8.49103 8.38988C8.215 8.64058 8.04224 8.9851 8.00644 9.35626L7.99945 9.50026V15.5003C7.99946 15.8731 8.13836 16.2327 8.38906 16.5087C8.63976 16.7847 8.98428 16.9575 9.35544 16.9933L9.49944 17.0003H9.59945C9.78245 17.3583 10.0034 17.6933 10.2564 18.0003H9.50045C8.86573 18.0004 8.25473 17.759 7.7914 17.3252C7.32807 16.8914 7.04708 16.2976 7.00545 15.6643L7.00045 15.5013V9.50126C7.00035 8.86654 7.24168 8.25555 7.67549 7.79221C8.10929 7.32888 8.70309 7.0479 9.33645 7.00626L9.49944 7.00126H15.4994ZM12.6604 3.69426L12.7084 3.85226L13.2834 5.99926H12.2474L11.7424 4.11026C11.6459 3.75016 11.4187 3.43893 11.1051 3.23723C10.7916 3.03553 10.4142 2.95782 10.0464 3.01926L9.90545 3.04926L4.11045 4.60526C3.75093 4.702 3.44024 4.92898 3.23879 5.24207C3.03733 5.55516 2.95951 5.93198 3.02045 6.29926L3.05045 6.44126L4.60445 12.2363C4.68754 12.5465 4.86801 12.8219 5.11931 13.0219C5.37061 13.2219 5.67947 13.3359 6.00045 13.3473V14.3473C5.48975 14.3362 4.99466 14.1692 4.58171 13.8685C4.16876 13.5678 3.85774 13.1479 3.69045 12.6653L3.63845 12.4953L2.08545 6.70026C1.92092 6.08722 1.99574 5.43455 2.29473 4.87465C2.59372 4.31475 3.09448 3.88953 3.69545 3.68526L3.85345 3.63826L9.64845 2.08526C10.2343 1.92821 10.8573 1.98951 11.4013 2.25775C11.9454 2.52599 12.3733 2.98287 12.6054 3.54326L12.6624 3.69526L12.6604 3.69426ZM18.9994 14.5013C18.9994 15.6947 18.5253 16.8393 17.6814 17.6832C16.8375 18.5272 15.6929 19.0013 14.4994 19.0013C13.306 19.0013 12.1614 18.5272 11.3175 17.6832C10.4736 16.8393 9.99944 15.6947 9.99944 14.5013C9.99944 13.3078 10.4736 12.1632 11.3175 11.3193C12.1614 10.4754 13.306 10.0013 14.4994 10.0013C15.6929 10.0013 16.8375 10.4754 17.6814 11.3193C18.5253 12.1632 18.9994 13.3078 18.9994 14.5013ZM14.9994 12.5013C14.9994 12.3687 14.9468 12.2415 14.853 12.1477C14.7592 12.0539 14.6321 12.0013 14.4994 12.0013C14.3668 12.0013 14.2397 12.0539 14.1459 12.1477C14.0521 12.2415 13.9994 12.3687 13.9994 12.5013V14.0013H12.4994C12.3668 14.0013 12.2397 14.0539 12.1459 14.1477C12.0521 14.2415 11.9994 14.3687 11.9994 14.5013C11.9994 14.6339 12.0521 14.761 12.1459 14.8548C12.2397 14.9486 12.3668 15.0013 12.4994 15.0013H14.0004V16.5013C14.0004 16.6339 14.0531 16.761 14.1469 16.8548C14.2407 16.9486 14.3678 17.0013 14.5004 17.0013C14.6331 17.0013 14.7602 16.9486 14.854 16.8548C14.9478 16.761 15.0004 16.6339 15.0004 16.5013V15.0013H16.5004C16.6331 15.0013 16.7602 14.9486 16.854 14.8548C16.9478 14.761 17.0004 14.6339 17.0004 14.5013C17.0004 14.3687 16.9478 14.2415 16.854 14.1477C16.7602 14.0539 16.6331 14.0013 16.5004 14.0013H15.0004V12.5013H14.9994Z" fill="#A8A8A8"/>
</svg>
