<svg width="16" height="16" viewBox="0 0 16 16" fill="none" xmlns="http://www.w3.org/2000/svg">
<path d="M12.7796 4.42668C12.493 2.98001 11.4196 2.34668 9.92631 2.34668H4.07298C2.31298 2.34668 1.13965 3.22668 1.13965 5.28001V8.71335C1.13965 10.1933 1.74631 11.06 2.74631 11.4333C2.89298 11.4867 3.05298 11.5333 3.21965 11.56C3.48631 11.62 3.77298 11.6467 4.07298 11.6467H9.93298C11.693 11.6467 12.8663 10.7667 12.8663 8.71335V5.28001C12.8663 4.96668 12.8396 4.68668 12.7796 4.42668ZM3.68632 8.00001C3.68632 8.27335 3.45965 8.50001 3.18632 8.50001C2.91298 8.50001 2.68632 8.27335 2.68632 8.00001V6.00001C2.68632 5.72668 2.91298 5.50001 3.18632 5.50001C3.45965 5.50001 3.68632 5.72668 3.68632 6.00001V8.00001ZM6.99965 8.76001C6.02631 8.76001 5.23965 7.97335 5.23965 7.00001C5.23965 6.02668 6.02631 5.24001 6.99965 5.24001C7.97298 5.24001 8.75965 6.02668 8.75965 7.00001C8.75965 7.97335 7.97298 8.76001 6.99965 8.76001ZM11.3063 8.00001C11.3063 8.27335 11.0796 8.50001 10.8063 8.50001C10.533 8.50001 10.3063 8.27335 10.3063 8.00001V6.00001C10.3063 5.72668 10.533 5.50001 10.8063 5.50001C11.0796 5.50001 11.3063 5.72668 11.3063 6.00001V8.00001Z" fill="#64748B"/>
<path d="M14.8665 7.27986V10.7132C14.8665 12.7665 13.6932 13.6532 11.9265 13.6532H6.07318C5.57318 13.6532 5.12651 13.5799 4.73985 13.4332C4.42651 13.3199 4.15318 13.1532 3.93318 12.9399C3.81318 12.8265 3.90651 12.6465 4.07318 12.6465H9.92651C12.3932 12.6465 13.8598 11.1799 13.8598 8.71986V5.27986C13.8598 5.11986 14.0398 5.01986 14.1532 5.13986C14.6065 5.61986 14.8665 6.31986 14.8665 7.27986Z" fill="#64748B"/>
</svg>
