<svg width="30" height="31" viewBox="0 0 30 31" fill="none" xmlns="http://www.w3.org/2000/svg">
<path d="M6.8076 0.5C7.03038 0.5 7.24404 0.596195 7.40157 0.767424C7.5591 0.938653 7.6476 1.17089 7.6476 1.41304V3.12043H16.668V1.42478C16.668 1.18263 16.7565 0.950392 16.914 0.779163C17.0716 0.607935 17.2852 0.511739 17.508 0.511739C17.7308 0.511739 17.9444 0.607935 18.102 0.779163C18.2595 0.950392 18.348 1.18263 18.348 1.42478V3.12043H21.6C22.2363 3.12043 22.8466 3.3951 23.2966 3.88404C23.7467 4.37299 23.9997 5.03618 24 5.72783V23.9796C23.9997 24.6712 23.7467 25.3344 23.2966 25.8233C22.8466 26.3123 22.2363 26.587 21.6 26.587H2.4C1.76369 26.587 1.15342 26.3123 0.703368 25.8233C0.253315 25.3344 0.000318156 24.6712 0 23.9796L0 5.72783C0.000318156 5.03618 0.253315 4.37299 0.703368 3.88404C1.15342 3.3951 1.76369 3.12043 2.4 3.12043H5.9676V1.41174C5.96792 1.16981 6.05656 0.93791 6.21405 0.766963C6.37155 0.596016 6.58503 0.5 6.8076 0.5ZM1.68 10.5983V23.9796C1.68 24.0823 1.69862 24.1841 1.73481 24.2791C1.77099 24.374 1.82403 24.4603 1.89088 24.533C1.95774 24.6056 2.03711 24.6633 2.12447 24.7026C2.21182 24.7419 2.30545 24.7622 2.4 24.7622H21.6C21.6946 24.7622 21.7882 24.7419 21.8755 24.7026C21.9629 24.6633 22.0423 24.6056 22.1091 24.533C22.176 24.4603 22.229 24.374 22.2652 24.2791C22.3014 24.1841 22.32 24.0823 22.32 23.9796V10.6165L1.68 10.5983ZM8.0004 19.5683V21.7413H6V19.5683H8.0004ZM12.9996 19.5683V21.7413H11.0004V19.5683H12.9996ZM18 19.5683V21.7413H15.9996V19.5683H18ZM8.0004 14.3809V16.5539H6V14.3809H8.0004ZM12.9996 14.3809V16.5539H11.0004V14.3809H12.9996ZM18 14.3809V16.5539H15.9996V14.3809H18ZM5.9676 4.94522H2.4C2.30545 4.94522 2.21182 4.96546 2.12447 5.00479C2.03711 5.04412 1.95774 5.10177 1.89088 5.17444C1.82403 5.24711 1.77099 5.33338 1.73481 5.42833C1.69862 5.52328 1.68 5.62505 1.68 5.72783V8.77348L22.32 8.79174V5.72783C22.32 5.62505 22.3014 5.52328 22.2652 5.42833C22.229 5.33338 22.176 5.24711 22.1091 5.17444C22.0423 5.10177 21.9629 5.04412 21.8755 5.00479C21.7882 4.96546 21.6946 4.94522 21.6 4.94522H18.348V6.15696C18.348 6.39911 18.2595 6.63135 18.102 6.80258C17.9444 6.9738 17.7308 7.07 17.508 7.07C17.2852 7.07 17.0716 6.9738 16.914 6.80258C16.7565 6.63135 16.668 6.39911 16.668 6.15696V4.94522H7.6476V6.14522C7.6476 6.38737 7.5591 6.61961 7.40157 6.79084C7.24404 6.96207 7.03038 7.05826 6.8076 7.05826C6.58482 7.05826 6.37116 6.96207 6.21363 6.79084C6.0561 6.61961 5.9676 6.38737 5.9676 6.14522V4.94522Z" fill="#00CDB4"/>
<path d="M22.7996 14.8477C21.8541 14.8477 20.9178 15.0501 20.0443 15.4434C19.1707 15.8367 18.377 16.4131 17.7084 17.1399C16.3582 18.6075 15.5996 20.5981 15.5996 22.6737C15.5996 24.7493 16.3582 26.7399 17.7084 28.2076C18.377 28.9343 19.1707 29.5108 20.0443 29.9041C20.9178 30.2974 21.8541 30.4998 22.7996 30.4998C24.7092 30.4998 26.5405 29.6753 27.8908 28.2076C29.241 26.7399 29.9996 24.7493 29.9996 22.6737C29.9996 21.7659 29.8484 20.8659 29.5604 20.0207L28.4084 21.2729C28.5092 21.7346 28.5596 22.2042 28.5596 22.6737C28.5596 24.3342 27.9528 25.9267 26.8725 27.1008C25.7923 28.275 24.3273 28.9346 22.7996 28.9346C21.272 28.9346 19.8069 28.275 18.7267 27.1008C17.6465 25.9267 17.0396 24.3342 17.0396 22.6737C17.0396 21.0133 17.6465 19.4208 18.7267 18.2466C19.8069 17.0725 21.272 16.4129 22.7996 16.4129C23.2316 16.4129 23.6636 16.4677 24.0884 16.5772L25.2476 15.3172C24.4628 15.012 23.6348 14.8477 22.7996 14.8477ZM27.8396 14.8477L24.9596 17.9781V19.152L23.1236 21.1477C23.0156 21.1085 22.9076 21.1085 22.7996 21.1085C22.4177 21.1085 22.0514 21.2734 21.7814 21.567C21.5113 21.8605 21.3596 22.2586 21.3596 22.6737C21.3596 23.0889 21.5113 23.487 21.7814 23.7805C22.0514 24.0741 22.4177 24.239 22.7996 24.239C23.1815 24.239 23.5478 24.0741 23.8178 23.7805C24.0879 23.487 24.2396 23.0889 24.2396 22.6737C24.2396 22.5564 24.2396 22.439 24.2036 22.3216L26.0396 20.3259H27.1196L29.9996 17.1955H27.8396V14.8477ZM22.7996 17.9781C21.6539 17.9781 20.5551 18.4728 19.7449 19.3534C18.9348 20.234 18.4796 21.4284 18.4796 22.6737C18.4796 23.9191 18.9348 25.1135 19.7449 25.9941C20.5551 26.8747 21.6539 27.3694 22.7996 27.3694C23.9453 27.3694 25.0442 26.8747 25.8543 25.9941C26.6645 25.1135 27.1196 23.9191 27.1196 22.6737H25.6796C25.6796 23.504 25.3762 24.3002 24.8361 24.8873C24.296 25.4744 23.5634 25.8042 22.7996 25.8042C22.0358 25.8042 21.3032 25.4744 20.7631 24.8873C20.223 24.3002 19.9196 23.504 19.9196 22.6737C19.9196 21.8435 20.223 21.0473 20.7631 20.4602C21.3032 19.8731 22.0358 19.5433 22.7996 19.5433V17.9781Z" fill="#00CDB4"/>
</svg>
