<svg width="18" height="18" viewBox="0 0 18 18" fill="none" xmlns="http://www.w3.org/2000/svg">
<path d="M17.0921 6.25872C18.1337 5.21706 17.6587 4.00039 17.0921 3.40872L14.5921 0.908722C13.5421 -0.132945 12.3337 0.342055 11.7421 0.908722L10.3254 2.33372H8.16705C6.58372 2.33372 5.66705 3.16706 5.20039 4.12539L1.50039 7.82539V11.1587L0.908722 11.7421C-0.132945 12.7921 0.342055 14.0004 0.908722 14.5921L3.40872 17.0921C3.85872 17.5421 4.34205 17.7087 4.80039 17.7087C5.39206 17.7087 5.93372 17.4171 6.25872 17.0921L8.50872 14.8337H11.5004C12.9171 14.8337 13.6337 13.9504 13.8921 13.0837C14.8337 12.8337 15.3504 12.1171 15.5587 11.4171C16.8504 11.0837 17.3337 9.85872 17.3337 9.00039V6.50039H16.8421L17.0921 6.25872ZM15.6671 9.00039C15.6671 9.37539 15.5087 9.83372 14.8337 9.83372H14.0004V10.6671C14.0004 11.0421 13.8421 11.5004 13.1671 11.5004H12.3337V12.3337C12.3337 12.7087 12.1754 13.1671 11.5004 13.1671H7.82539L5.09205 15.9004C4.83372 16.1421 4.68372 16.0004 4.59205 15.9087L2.10039 13.4254C1.85872 13.1671 2.00039 13.0171 2.09205 12.9254L3.16705 11.8421V8.50872L4.83372 6.84206V8.16706C4.83372 9.17539 5.50039 10.6671 7.33372 10.6671C9.16706 10.6671 9.83372 9.17539 9.83372 8.16706H15.6671V9.00039ZM15.9087 5.07539L14.4921 6.50039H8.16705V8.16706C8.16705 8.54206 8.00872 9.00039 7.33372 9.00039C6.65872 9.00039 6.50039 8.54206 6.50039 8.16706V5.66706C6.50039 5.28372 6.64205 4.00039 8.16705 4.00039H11.0087L12.9087 2.10039C13.1671 1.85872 13.3171 2.00039 13.4087 2.09206L15.9004 4.57539C16.1421 4.83372 16.0004 4.98372 15.9087 5.07539Z" fill="#00CDB4"/>
</svg>
