<svg width="20" height="14" viewBox="0 0 20 14" fill="none" xmlns="http://www.w3.org/2000/svg">
<path d="M5.41732 13.6654C4.15065 13.6654 3.0701 13.2293 2.17565 12.357C1.28121 11.4793 0.833984 10.4098 0.833984 9.1487C0.833984 8.06536 1.15898 7.0987 1.80898 6.2487C2.46454 5.3987 3.3201 4.85703 4.37565 4.6237C4.72565 3.34592 5.4201 2.31259 6.45898 1.5237C7.50343 0.729253 8.68398 0.332031 10.0007 0.332031C11.6284 0.332031 13.0062 0.898698 14.134 2.03203C15.2673 3.15981 15.834 4.53759 15.834 6.16536C16.7951 6.27648 17.5895 6.69314 18.2173 7.41536C18.8507 8.12648 19.1673 8.95981 19.1673 9.91536C19.1673 10.9598 18.8034 11.8459 18.0757 12.5737C17.3479 13.3015 16.4618 13.6654 15.4173 13.6654H10.834C10.3784 13.6654 9.98676 13.5015 9.65899 13.1737C9.33121 12.8515 9.16732 12.4598 9.16732 11.9987V7.70703L7.83398 8.9987L6.66732 7.83203L10.0007 4.4987L13.334 7.83203L12.1673 8.9987L10.834 7.70703V11.9987H15.4173C16.0007 11.9987 16.4923 11.7959 16.8923 11.3904C17.2979 10.9904 17.5007 10.4987 17.5007 9.91536C17.5007 9.33203 17.2979 8.84036 16.8923 8.44036C16.4923 8.03481 16.0007 7.83203 15.4173 7.83203H14.1673V6.16536C14.1673 5.01536 13.7618 4.03203 12.9507 3.21536C12.1395 2.40425 11.1562 1.9987 10.0007 1.9987C8.85065 1.9987 7.86732 2.40425 7.05065 3.21536C6.23954 4.03203 5.83398 5.01536 5.83398 6.16536H5.41732C4.61176 6.16536 3.92565 6.45148 3.35898 7.0237C2.78676 7.59036 2.50065 8.27648 2.50065 9.08203C2.50065 9.88759 2.78676 10.582 3.35898 11.1654C3.92565 11.7209 4.61176 11.9987 5.41732 11.9987H7.50065V13.6654" fill="#A8A8A8"/>
</svg>
