<svg width="18" height="18" viewBox="0 0 18 18" fill="none" xmlns="http://www.w3.org/2000/svg">
<path d="M13.9483 6.30192C14.5194 6.30181 15.0692 6.51888 15.4862 6.90912C15.9032 7.29936 16.1561 7.83356 16.1938 8.40342L16.1983 8.55102V9.23232C15.9207 9.00315 15.6189 8.80488 15.2983 8.64102V8.55102C15.2983 8.21542 15.1733 7.89186 14.9477 7.64344C14.722 7.39501 14.412 7.23953 14.0779 7.20732L13.9483 7.20102H8.54833C8.21273 7.20103 7.88918 7.32604 7.64075 7.55167C7.39233 7.7773 7.23685 8.08737 7.20463 8.42142L7.19833 8.55102V13.951C7.19835 14.2866 7.32336 14.6102 7.54899 14.8586C7.77461 15.107 8.08468 15.2625 8.41873 15.2947L8.54833 15.301H8.63833C8.80303 15.6232 9.00193 15.9247 9.22963 16.201H8.54923C7.97798 16.2011 7.42809 15.9839 7.01109 15.5935C6.59409 15.2031 6.3412 14.6686 6.30373 14.0986L6.29923 13.9519V8.55192C6.29914 7.98067 6.51634 7.43078 6.90676 7.01377C7.29719 6.59677 7.83161 6.34389 8.40163 6.30642L8.54833 6.30192H13.9483ZM11.3932 3.32562L11.4364 3.46782L11.9539 5.40012H11.0215L10.567 3.70002C10.4801 3.37593 10.2756 3.09581 9.99345 2.91429C9.71126 2.73276 9.37158 2.66282 9.04063 2.71812L8.91373 2.74512L3.69823 4.14552C3.37467 4.23258 3.09505 4.43687 2.91374 4.71865C2.73242 5.00043 2.66238 5.33956 2.71723 5.67012L2.74423 5.79792L4.14283 11.0134C4.21761 11.2926 4.38004 11.5405 4.60621 11.7205C4.83238 11.9005 5.11035 12.0031 5.39923 12.0133V12.9133C4.9396 12.9034 4.49402 12.753 4.12237 12.4824C3.75071 12.2118 3.4708 11.8339 3.32023 11.3995L3.27343 11.2465L1.87573 6.03102C1.72766 5.47928 1.795 4.89188 2.06408 4.38797C2.33317 3.88405 2.78386 3.50136 3.32473 3.31752L3.46693 3.27522L8.68243 1.87752C9.20972 1.73617 9.77041 1.79134 10.26 2.03276C10.7497 2.27417 11.1348 2.68537 11.3437 3.18972L11.395 3.32652L11.3932 3.32562ZM17.0983 13.0519C17.0983 14.126 16.6716 15.1562 15.9121 15.9157C15.1526 16.6752 14.1225 17.1019 13.0483 17.1019C11.9742 17.1019 10.9441 16.6752 10.1845 15.9157C9.42502 15.1562 8.99833 14.126 8.99833 13.0519C8.99833 11.9778 9.42502 10.9477 10.1845 10.1881C10.9441 9.42861 11.9742 9.00192 13.0483 9.00192C14.1225 9.00192 15.1526 9.42861 15.9121 10.1881C16.6716 10.9477 17.0983 11.9778 17.0983 13.0519ZM13.4983 11.2519C13.4983 11.1326 13.4509 11.0181 13.3665 10.9337C13.2821 10.8493 13.1677 10.8019 13.0483 10.8019C12.929 10.8019 12.8145 10.8493 12.7301 10.9337C12.6457 11.0181 12.5983 11.1326 12.5983 11.2519V12.6019H11.2483C11.129 12.6019 11.0145 12.6493 10.9301 12.7337C10.8457 12.8181 10.7983 12.9326 10.7983 13.0519C10.7983 13.1713 10.8457 13.2857 10.9301 13.3701C11.0145 13.4545 11.129 13.5019 11.2483 13.5019H12.5992V14.8519C12.5992 14.9713 12.6466 15.0857 12.731 15.1701C12.8154 15.2545 12.9299 15.3019 13.0492 15.3019C13.1686 15.3019 13.283 15.2545 13.3674 15.1701C13.4518 15.0857 13.4992 14.9713 13.4992 14.8519V13.5019H14.8492C14.9686 13.5019 15.083 13.4545 15.1674 13.3701C15.2518 13.2857 15.2992 13.1713 15.2992 13.0519C15.2992 12.9326 15.2518 12.8181 15.1674 12.7337C15.083 12.6493 14.9686 12.6019 14.8492 12.6019H13.4992V11.2519H13.4983Z" fill="#219EBC"/>
</svg>
