<svg width="17" height="16" viewBox="0 0 17 16" fill="none" xmlns="http://www.w3.org/2000/svg">
<path d="M12.5 4.7735C12.46 4.76683 12.4133 4.76683 12.3733 4.7735C11.4533 4.74017 10.72 3.98683 10.72 3.0535C10.72 2.10016 11.4866 1.3335 12.44 1.3335C13.3933 1.3335 14.16 2.10683 14.16 3.0535C14.1533 3.98683 13.42 4.74017 12.5 4.7735Z" stroke="#6A6A6A" stroke-width="1.2" stroke-linecap="round" stroke-linejoin="round"/>
<path d="M11.8132 9.62694C12.7265 9.78027 13.7332 9.62027 14.4399 9.14694C15.3799 8.52027 15.3799 7.4936 14.4399 6.86694C13.7265 6.3936 12.7065 6.2336 11.7932 6.3936" stroke="#6A6A6A" stroke-width="1.2" stroke-linecap="round" stroke-linejoin="round"/>
<path d="M4.48007 4.7735C4.52007 4.76683 4.56674 4.76683 4.60674 4.7735C5.52674 4.74017 6.26007 3.98683 6.26007 3.0535C6.26007 2.10016 5.4934 1.3335 4.54007 1.3335C3.58674 1.3335 2.82007 2.10683 2.82007 3.0535C2.82674 3.98683 3.56007 4.74017 4.48007 4.7735Z" stroke="#6A6A6A" stroke-width="1.2" stroke-linecap="round" stroke-linejoin="round"/>
<path d="M5.16663 9.62694C4.25329 9.78027 3.24663 9.62027 2.53996 9.14694C1.59996 8.52027 1.59996 7.4936 2.53996 6.86694C3.25329 6.3936 4.27329 6.2336 5.18663 6.3936" stroke="#6A6A6A" stroke-width="1.2" stroke-linecap="round" stroke-linejoin="round"/>
<path d="M8.49997 9.75348C8.45997 9.74681 8.4133 9.74681 8.3733 9.75348C7.4533 9.72015 6.71997 8.96681 6.71997 8.03348C6.71997 7.08014 7.48664 6.31348 8.43997 6.31348C9.3933 6.31348 10.16 7.08681 10.16 8.03348C10.1533 8.96681 9.41997 9.72681 8.49997 9.75348Z" stroke="#6A6A6A" stroke-width="1.2" stroke-linecap="round" stroke-linejoin="round"/>
<path d="M6.55998 11.8532C5.61998 12.4799 5.61998 13.5066 6.55998 14.1332C7.62665 14.8466 9.37331 14.8466 10.44 14.1332C11.38 13.5066 11.38 12.4799 10.44 11.8532C9.37998 11.1466 7.62665 11.1466 6.55998 11.8532Z" stroke="#6A6A6A" stroke-width="1.2" stroke-linecap="round" stroke-linejoin="round"/>
</svg>
