<svg width="160" height="160" viewBox="0 0 160 160" fill="none" xmlns="http://www.w3.org/2000/svg">
<g filter="url(#filter0_d_1152_18391)">
<circle cx="80" cy="80" r="60" fill="#E3E8F1"/>
</g>
<path fill-rule="evenodd" clip-rule="evenodd" d="M81.6401 106.637C82.4857 106.637 83.1715 107.323 83.1715 108.169C83.1715 108.857 82.7173 109.439 82.0924 109.633C82.3707 109.304 82.5385 108.88 82.5385 108.416C82.5385 108.032 82.2273 107.721 81.8437 107.721C81.4598 107.721 81.1487 108.032 81.1487 108.416C81.1487 108.552 81.0936 108.675 81.0043 108.764C80.9154 108.853 80.792 108.909 80.656 108.909C80.5195 108.909 80.3967 108.853 80.3074 108.764C80.2182 108.675 80.1631 108.552 80.1631 108.416C80.1631 108.28 80.2182 108.156 80.3074 108.067C80.3967 107.978 80.5195 107.923 80.656 107.923C81.0397 107.923 81.3509 107.612 81.3509 107.228C81.3509 107.029 81.2673 106.85 81.1335 106.723C81.2921 106.668 81.4624 106.637 81.6401 106.637Z" fill="#00CDB4"/>
<path d="M81.149 108.416C81.149 108.032 81.4601 107.721 81.844 107.721C82.2276 107.721 82.5388 108.032 82.5388 108.416C82.5388 108.935 82.3279 109.406 81.9874 109.747C81.6467 110.088 81.176 110.298 80.6562 110.298C80.1362 110.298 79.6656 110.088 79.3247 109.747C78.9842 109.406 78.7734 108.936 78.7734 108.416C78.7734 107.896 78.9842 107.425 79.3247 107.084C79.6656 106.743 80.1362 106.533 80.6562 106.533C81.04 106.533 81.3512 106.844 81.3512 107.228C81.3512 107.612 81.04 107.923 80.6562 107.923C80.5198 107.923 80.397 107.978 80.3077 108.067C80.2184 108.156 80.1634 108.279 80.1634 108.416C80.1634 108.552 80.2184 108.675 80.3077 108.764C80.397 108.853 80.5198 108.908 80.6562 108.908C80.7923 108.908 80.9157 108.853 81.0046 108.764C81.0939 108.675 81.149 108.552 81.149 108.416Z" fill="black"/>
<path fill-rule="evenodd" clip-rule="evenodd" d="M91.767 76.9585H71.9344C70.0742 76.9585 68.5527 78.4807 68.5527 80.3404C68.5527 80.4042 68.5544 80.4675 68.558 80.5305C69.0427 80.9994 69.7011 81.2894 70.4234 81.2894H72.6639L72.4794 80.7741C72.2857 80.2328 72.331 79.6609 72.5605 79.1757C72.79 78.69 73.2039 78.2913 73.7461 78.0971C74.2873 77.9032 74.8594 77.9487 75.3448 78.1781C75.8304 78.4078 76.2291 78.8214 76.4232 79.3639L77.1024 81.2614C77.2844 81.1104 77.4945 80.9886 77.7288 80.9044C78.2701 80.7108 78.8422 80.7562 79.3275 80.9856C79.6926 81.1582 80.0086 81.4348 80.2252 81.7919C80.4147 81.6279 80.637 81.4954 80.886 81.4062L80.8884 81.4058C81.2908 81.2618 81.7103 81.2505 82.0987 81.3486C82.1844 81.3106 82.2797 81.2894 82.3795 81.2894H90.2564C90.9943 81.2894 91.6659 80.9868 92.1533 80.4997C92.6407 80.0121 92.943 79.3406 92.943 78.6024C92.943 78.0139 92.7509 77.4677 92.4261 77.0235C92.2128 76.981 91.9923 76.9585 91.767 76.9585Z" fill="#00CDB4"/>
<path fill-rule="evenodd" clip-rule="evenodd" d="M85.0537 96.3473C87.7993 94.4999 87.9297 92.7893 87.7192 90.1221L88.9816 93.6483C89.0946 93.964 89.0683 94.297 88.9353 94.5787C88.8021 94.8602 88.5622 95.0914 88.2475 95.204L85.0537 96.3473Z" fill="#00CDB4"/>
<path fill-rule="evenodd" clip-rule="evenodd" d="M85.5915 84.1429L85.5939 84.1552L85.5942 84.1572V84.1577L85.5944 84.1593L85.5949 84.161L85.5952 84.1633L85.5956 84.1653L85.5958 84.1674L85.5967 84.1711L85.597 84.1732L85.5981 84.1795L85.5987 84.1813L85.6004 84.1894L85.601 84.1913L85.6015 84.1934L85.6018 84.1954L85.602 84.1957L85.6022 84.1974L85.6028 84.1995L85.6033 84.2015L85.6038 84.2035L85.6042 84.2053V84.2055L85.6047 84.2075L85.6053 84.2096L85.6058 84.2116L85.6063 84.2134L85.6067 84.2149V84.2154L85.6073 84.2177L85.6078 84.2197L85.6086 84.2217L85.609 84.2235V84.2242L85.6096 84.2257L85.6101 84.2275L85.6108 84.2296L85.6113 84.2315L85.6119 84.2336H85.6121L85.6124 84.2356L85.6131 84.2376L85.6135 84.2396L85.6144 84.2417L85.6149 84.2434V84.2437L85.6156 84.2455L85.6162 84.2477L85.6169 84.2496L85.6174 84.2518L85.6178 84.2528V84.2537L85.6187 84.2556L85.6201 84.2596L85.6207 84.2616L85.621 84.2624L85.6215 84.2637L85.6222 84.2654L85.6226 84.2677L85.6235 84.2695L85.6242 84.2718L86.552 86.8627L79.3039 89.4576L79.2903 89.4194L79.3064 89.4137L79.3068 89.4134L79.3229 89.4068L79.3236 89.4065L79.3393 89.4L79.3397 89.3997L79.3552 89.3926L79.3556 89.3923L79.3708 89.3848L79.3713 89.3843L79.3865 89.3767L79.387 89.3762L79.4017 89.3683L79.4022 89.3678L79.4166 89.3595L79.4171 89.3592L79.4312 89.3504L79.4317 89.3499L79.4457 89.341L79.446 89.3406L79.4598 89.3312L79.4601 89.3306L79.4734 89.3208L79.4739 89.3206L79.4871 89.3104L79.4874 89.3099L79.5002 89.2999L79.5008 89.2996L79.5132 89.289L79.5134 89.2884L79.5258 89.2776L79.5261 89.2771L79.5381 89.2659L79.5385 89.2657L79.5501 89.2541L79.5504 89.2539L79.5617 89.2419L79.5622 89.2417L79.5731 89.2296L79.5733 89.2291L79.5842 89.2166L79.5845 89.2164L79.5948 89.204L79.5951 89.2037L79.6051 89.191L79.6055 89.1906L79.6153 89.1776L79.6156 89.177L79.6249 89.1638L79.6251 89.1636L79.6345 89.1502L79.6348 89.1499L79.6436 89.136V89.1358L79.6441 89.135C79.65 89.1259 79.6555 89.1168 79.6605 89.1077L79.6608 89.1072L79.6687 89.0928L79.6689 89.0923L79.6765 89.0782V89.0779L79.6836 89.0632L79.6838 89.0627L79.6907 89.0478V89.0475L79.6972 89.0326L79.6975 89.0324L79.7033 89.0172V89.0167L79.7093 89.0015V89.0013L79.7147 88.9859L79.7149 88.9853L79.7197 88.9699L79.72 88.9697L79.7245 88.9538L79.7247 88.9535L79.7291 88.9379V88.9377L79.7331 88.9214V88.9211L79.7367 88.9052V88.905L79.7397 88.8888L79.7399 88.8885L79.7425 88.8721V88.8719L79.7449 88.8557V88.8555L79.747 88.8387V88.8385L79.7485 88.8221V88.8218L79.7495 88.8051V88.8049L79.7503 88.7882V88.7879L79.7508 88.7712L79.7506 88.7541L79.7503 88.7371L79.7493 88.7202L79.748 88.703V88.7027L79.7463 88.6858L79.744 88.6685L79.7415 88.6514H79.7412L79.7381 88.6345L79.7346 88.6173L79.7306 88.6001L79.7263 88.5832L79.7215 88.566L79.7161 88.5491L79.7104 88.5321L77.7709 83.1152C77.7052 82.9317 77.7204 82.7386 77.7974 82.5752C77.8746 82.4122 78.0136 82.2788 78.1961 82.2133C78.3794 82.1476 78.5725 82.1627 78.7358 82.2401C78.8987 82.3169 79.0326 82.4559 79.0978 82.6385L81.0373 88.0556C81.1662 88.4166 81.5637 88.6049 81.9251 88.4763L81.9273 88.4755L81.9287 88.4749L81.9416 88.4699C82.2944 88.3362 82.4769 87.9442 82.3495 87.5871L80.9281 83.6168C80.8623 83.4335 80.8775 83.2404 80.9549 83.077C81.0294 82.919 81.1624 82.7886 81.3365 82.7211C81.348 82.7176 81.3593 82.7136 81.3701 82.7092C81.5484 82.6506 81.735 82.667 81.8933 82.7418C82.051 82.8164 82.1817 82.9494 82.249 83.1235C82.2535 83.1374 82.2585 83.1512 82.2639 83.1646L83.6764 87.1104L83.6828 87.1271V87.1273L83.6894 87.1436V87.144L83.6962 87.1597L83.6964 87.1602L83.7034 87.1754L83.7037 87.1761L83.7111 87.191L83.7114 87.192L83.7191 87.2062L83.7196 87.2075L83.7273 87.2214L83.728 87.2226L83.7362 87.236L83.7368 87.2375L83.7396 87.2421L83.7459 87.2522L83.7543 87.2651L83.7556 87.2666L83.7639 87.2787L83.7652 87.2808L83.7741 87.2924L83.7752 87.2948L83.7779 87.298C83.7872 87.3098 83.7967 87.3218 83.8067 87.3333L83.8074 87.3341L83.8165 87.3442L83.8188 87.3467L83.8226 87.3508L83.8297 87.3584L83.8303 87.3592L83.8397 87.3685L83.8408 87.3695L83.8471 87.3756L83.8531 87.3817L83.8544 87.3826L83.8637 87.3915L83.8648 87.3925L83.8742 87.4008L83.8767 87.4029L83.8862 87.411L83.8898 87.414L83.8971 87.4198L83.9037 87.4248L83.9055 87.4262L83.915 87.4334L83.9161 87.4345L83.9241 87.4403L83.9304 87.4448L83.937 87.4491L83.9438 87.4542L83.9507 87.4585L83.9581 87.463L83.9695 87.4703H83.9697L83.9813 87.4773L83.9856 87.4797L83.9942 87.4845L84.0008 87.488L84.0081 87.4921L84.0149 87.4956L84.0268 87.5015L84.0279 87.502L84.0415 87.5086L84.0433 87.509L84.0539 87.5141L84.0596 87.5166L84.0705 87.5209L84.0739 87.5224L84.0857 87.527L84.09 87.5288L84.0998 87.532L84.1062 87.5343L84.1166 87.5378L84.1214 87.5395L84.1312 87.5424L84.1388 87.5447L84.1466 87.5469L84.1545 87.549L84.1631 87.551L84.1699 87.5529L84.1793 87.5551L84.1869 87.5565L84.1965 87.5586L84.201 87.5597L84.2151 87.5619L84.2159 87.5621L84.2303 87.5644L84.2339 87.5649L84.2475 87.5669H84.249L84.2634 87.5685L84.2675 87.5689L84.2789 87.5699L84.2843 87.5703L84.2975 87.571L84.2988 87.5712C84.3092 87.5717 84.3195 87.572 84.3297 87.572H84.335L84.3481 87.5717H84.3486L84.3646 87.571H84.3668L84.3807 87.5699L84.385 87.5697L84.3976 87.5685L84.4015 87.5682L84.4149 87.5667L84.4181 87.5662C84.4338 87.5642 84.4495 87.5617 84.4652 87.5586L84.47 87.5576C84.4798 87.5556 84.4897 87.5533 84.4995 87.5508L84.5033 87.5497L84.5172 87.5463L84.518 87.546C84.5334 87.5415 84.5488 87.5368 84.564 87.531L84.5653 87.5308L84.568 87.53C84.9294 87.4011 85.1176 87.0034 84.9887 86.6425L84.0789 84.1003C84.0131 83.9171 84.0283 83.724 84.1055 83.5607C84.1799 83.4027 84.3132 83.2722 84.4874 83.2048C84.4988 83.2012 84.5097 83.1971 84.5208 83.1928C84.699 83.1342 84.8853 83.1503 85.0438 83.2254C85.2015 83.3 85.3323 83.4327 85.3995 83.6072C85.4042 83.6211 85.409 83.6345 85.4147 83.6481L85.5915 84.1429Z" fill="#00CDB4"/>
<path d="M85.6238 84.2716C85.6086 84.2289 85.5977 84.1859 85.5911 84.1429L85.4142 83.6479C85.4086 83.6343 85.4038 83.6209 85.3991 83.607C85.3318 83.4325 85.201 83.2999 85.0433 83.2252C84.8848 83.1501 84.6985 83.134 84.5203 83.1926C84.5092 83.1969 84.4983 83.201 84.4869 83.2046C84.3128 83.272 84.1795 83.4025 84.105 83.5605C84.0279 83.7239 84.0127 83.9169 84.0784 84.1002L84.9883 86.6423C85.1172 87.0033 84.9289 87.401 84.5675 87.5299L84.5648 87.5306L84.5636 87.5308L84.5507 87.5356C84.1929 87.6555 83.8034 87.4671 83.6759 87.1102L82.2634 83.1644C82.2581 83.151 82.253 83.1373 82.2485 83.1233C82.1812 82.9492 82.0505 82.8162 81.8928 82.7417C81.7345 82.6668 81.5479 82.6505 81.3697 82.709C81.3588 82.7134 81.3475 82.7175 81.3361 82.7209C81.1619 82.7885 81.029 82.9188 80.9544 83.0768C80.877 83.2402 80.8618 83.4333 80.9276 83.6166L82.349 87.5869C82.4765 87.944 82.294 88.336 81.9411 88.4697L81.9282 88.4748L81.9269 88.4753L81.9247 88.4761C81.5632 88.6047 81.1657 88.4164 81.0368 88.0554L79.0974 82.6383C79.0321 82.4557 78.8982 82.3167 78.7354 82.2399C78.572 82.1625 78.379 82.1474 78.1956 82.2131C78.0131 82.2786 77.8741 82.412 77.797 82.5751C77.7199 82.7384 77.7047 82.9315 77.7705 83.1151L79.7099 88.5319C79.8388 88.8932 79.6502 89.2906 79.289 89.4195L79.2862 89.4205L79.2852 89.4209L79.2721 89.4253C78.9143 89.5451 78.5248 89.3571 78.3974 89.0001L75.1146 79.8307C75.0494 79.6485 74.9157 79.5095 74.7526 79.4323C74.5893 79.3552 74.3962 79.3401 74.2128 79.4058C74.0303 79.471 73.8914 79.6051 73.8144 79.7676C73.7371 79.9311 73.722 80.1242 73.7876 80.3075L76.4182 87.6553L78.2172 92.5547C78.3491 92.9146 78.1643 93.313 77.8043 93.4453C77.4446 93.577 77.046 93.3924 76.9139 93.0324L75.8328 90.0876C75.8042 90.0434 75.7805 89.9951 75.762 89.9435L73.1613 82.6796H70.4233C69.3018 82.6796 68.282 82.2211 67.5436 81.4825C66.805 80.7441 66.3467 79.7245 66.3467 78.6027C66.3467 77.481 66.805 76.4612 67.5436 75.7228C68.282 74.9844 69.3016 74.5259 70.4233 74.5259H90.2563C91.3779 74.5259 92.3974 74.9844 93.1358 75.7228C93.8744 76.4612 94.333 77.481 94.333 78.6027C94.333 79.7245 93.8744 80.7441 93.1358 81.4825C92.3974 82.2211 91.3779 82.6796 90.2563 82.6796H86.4698C86.5692 82.8244 86.6519 82.9839 86.7138 83.1567L86.7141 83.1578L87.6238 85.6984C87.639 85.7411 87.6497 85.784 87.6563 85.8271L90.2893 93.1816C90.5305 93.8553 90.4738 94.5669 90.1885 95.1708C89.9031 95.7753 89.3881 96.2712 88.7137 96.5126L84.7452 97.9334C84.3841 98.0623 83.9867 97.8737 83.8577 97.5127C83.7288 97.1512 83.9171 96.754 84.2784 96.6249L88.2468 95.2042C88.5615 95.0916 88.8014 94.8604 88.9346 94.579C89.0676 94.2972 89.0939 93.9642 88.9809 93.6485L85.6238 84.2716ZM77.1023 81.2616C77.2843 81.1106 77.4944 80.9888 77.7287 80.9046C78.2699 80.711 78.8421 80.7565 79.3274 80.9858C79.6924 81.1584 80.0085 81.435 80.2251 81.7921C80.4146 81.6282 80.6369 81.4956 80.8859 81.4064L80.8882 81.406C81.2906 81.262 81.7102 81.2507 82.0986 81.3488C82.1842 81.3108 82.2796 81.2896 82.3794 81.2896H90.2563C90.9941 81.2896 91.6658 80.987 92.1532 80.4999C92.6406 80.0123 92.9429 79.3408 92.9429 78.6027C92.9429 77.8646 92.6406 77.1929 92.1532 76.7054C91.6661 76.2181 90.9944 75.9157 90.2563 75.9157H70.4233C69.6854 75.9157 69.0137 76.2181 68.5263 76.7054C68.0389 77.1929 67.7365 77.8646 67.7365 78.6027C67.7365 79.3408 68.0389 80.0125 68.5263 80.4999C69.0137 80.987 69.6854 81.2896 70.4233 81.2896H72.6638L72.4793 80.7744C72.2855 80.233 72.3309 79.6611 72.5604 79.176C72.7899 78.6902 73.2037 78.2915 73.7459 78.0973C74.2872 77.9034 74.8593 77.949 75.3447 78.1783C75.8303 78.408 76.2289 78.8216 76.4231 79.3641L77.1023 81.2616ZM81.7727 97.5221C82.1342 97.3928 82.5316 97.5815 82.6606 97.9427C82.7895 98.3041 82.6011 98.7014 82.2398 98.8305C81.9037 98.9506 81.4481 99.0254 80.9476 98.9602C80.559 98.9099 80.144 98.7751 79.7387 98.5112L72.3177 93.6818C71.85 93.3775 71.5082 92.9313 71.3533 92.4348C71.1988 91.9396 71.2267 91.3971 71.492 90.8909C71.5148 90.8478 71.5345 90.8121 71.551 90.7846C71.8235 90.3315 72.2528 90.0042 72.7295 89.8515C72.7427 89.8472 72.7561 89.8434 72.7695 89.8401C73.2502 89.6963 73.7793 89.7251 74.2528 89.9734C74.2929 89.9946 74.3256 90.0129 74.3506 90.0277L75.0469 90.4458C75.3752 90.6423 75.4821 91.0677 75.2857 91.3958C75.0894 91.7242 74.6639 91.8311 74.3358 91.635L73.6396 91.2166L73.612 91.2007C73.4776 91.1299 73.321 91.1221 73.1734 91.1637C73.1668 91.1662 73.1597 91.1685 73.1529 91.1708C72.9851 91.2247 72.8346 91.3387 72.7399 91.4959C72.7288 91.5149 72.7213 91.527 72.7191 91.5318C72.636 91.6901 72.6284 91.8626 72.6782 92.0222C72.7384 92.2159 72.8781 92.3939 73.072 92.5203L80.4933 97.3494C80.7084 97.4894 80.9253 97.5605 81.1269 97.5868C81.3773 97.6194 81.6051 97.582 81.7727 97.5221Z" fill="black"/>
<path fill-rule="evenodd" clip-rule="evenodd" d="M61.7822 61.0914C62.2804 56.3359 65.7541 53.0998 69.3218 51.8361C69.3913 51.8266 69.4611 51.8174 69.5313 51.8089C69.8525 51.7692 70.1648 51.7401 70.4687 51.7218C70.7688 51.7037 71.0901 51.6948 71.4316 51.6948H73.3144C72.331 52.1726 71.4384 52.7698 70.6565 53.4775C68.6213 55.3209 67.3472 57.9012 67.1859 61.0914H61.7822ZM82.2186 53.8863C82.6874 54.2887 83.0852 54.8661 83.3976 55.5439C82.9496 54.8475 82.4231 54.2145 81.8278 53.6487C81.5504 53.385 81.1116 53.3959 80.8477 53.6734C80.5837 53.9505 80.5948 54.3893 80.8722 54.6533C81.7883 55.5237 82.5151 56.5758 83.0071 57.7935C83.4064 58.782 83.6521 59.8841 83.7204 61.0914H76.897C76.9443 60.2563 77.0767 59.4708 77.2863 58.7387C77.5611 57.7796 77.9671 56.911 78.4863 56.1397C78.6994 55.822 78.6142 55.3914 78.2965 55.1787C77.9787 54.9655 77.5483 55.0507 77.3354 55.3687L77.3295 55.3773C77.7861 53.8965 78.41 52.5096 79.1056 51.7084C79.3258 51.6991 79.548 51.6948 79.7726 51.6948H80.6607C80.9265 51.6948 81.1895 51.7012 81.4493 51.7141C82.0335 52.5688 82.2186 53.8863 82.2186 53.8863ZM80.854 64.9369C79.7559 64.5937 78.778 63.7496 78.2504 62.4816H83.7306C83.5963 63.0716 83.2955 63.6005 82.8804 64.0158C82.3528 64.5433 81.6412 64.8864 80.854 64.9369Z" fill="#00CDB4"/>
<path fill-rule="evenodd" clip-rule="evenodd" d="M67.4691 63.4483C67.0887 64.2378 66.446 64.8802 65.6561 65.2604C65.5325 64.929 65.174 64.7406 64.8261 64.8354C64.4742 64.9317 64.1071 64.9783 63.7378 64.9783C63.7093 64.9783 63.6808 64.9783 63.6524 64.9777C62.8116 64.408 62.2049 63.5153 62.0146 62.4819H67.2067C67.2588 62.8174 67.3478 63.141 67.4691 63.4483Z" fill="#00CDB4"/>
<path fill-rule="evenodd" clip-rule="evenodd" d="M95.1689 62.4819C95.1747 62.4893 95.181 62.4964 95.1872 62.5034C95.448 62.8012 95.7739 64.5587 97.8584 64.8953C98.5066 64.7798 99.0885 64.4648 99.5369 64.0162C99.9523 63.6009 100.253 63.072 100.387 62.4819H95.1689Z" fill="#00CDB4"/>
<path fill-rule="evenodd" clip-rule="evenodd" d="M89.5654 51.7349C94.8658 55.2093 94.5395 58.9317 94.7488 61.0918H100.44C100.26 58.3856 99.0324 56.1931 97.1691 54.6142C95.1911 52.9387 92.4964 51.9402 89.5654 51.7349Z" fill="#00CDB4"/>
<path d="M93.0813 59.5828C93.1458 59.9605 92.892 60.3193 92.5141 60.3837C92.1364 60.4482 91.7779 60.194 91.7135 59.8164C91.6788 59.6154 91.6397 59.4202 91.5959 59.232C91.5514 59.0396 91.5014 58.8505 91.447 58.6649C91.3391 58.2978 91.5492 57.9124 91.9164 57.8046C92.2838 57.6967 92.6691 57.9067 92.777 58.2741C92.8407 58.49 92.8976 58.7063 92.9479 58.9222C92.9997 59.146 93.0442 59.3662 93.0813 59.5828ZM58 109.933V50.0672C58 49.223 58.3449 48.4561 58.9006 47.9004C59.4559 47.345 60.2232 47 61.0675 47H99.6131C100.457 47 101.224 47.345 101.78 47.9004C102.335 48.4561 102.68 49.223 102.68 50.0672V109.933C102.68 110.777 102.335 111.544 101.78 112.099C101.224 112.655 100.457 113 99.6131 113H61.0675C60.2232 113 59.4561 112.655 58.9006 112.099C58.3449 111.544 58 110.777 58 109.933ZM59.39 50.0672V58.0319C59.7962 56.7626 60.4128 55.6316 61.2053 54.6508C62.7907 52.6884 65.069 51.3433 67.766 50.7136C68.0297 50.6521 68.2936 50.5979 68.557 50.5509C68.8245 50.504 69.0934 50.4635 69.364 50.4301C69.6867 50.3902 70.0283 50.3594 70.3881 50.3376C70.7483 50.3161 71.0965 50.3053 71.4326 50.3053H88.4261C92.1139 50.3053 95.5797 51.4504 98.0644 53.5557C99.5355 54.8022 100.662 56.3791 101.291 58.2488V50.0672C101.291 49.6068 101.102 49.1874 100.797 48.8833C100.493 48.5787 100.074 48.3898 99.6131 48.3898H61.0675C60.6068 48.3898 60.1875 48.5787 59.8832 48.8833C59.5789 49.1874 59.39 49.6068 59.39 50.0672ZM59.39 63.9898V109.933C59.39 110.393 59.5789 110.812 59.8832 111.117C60.1876 111.421 60.6068 111.61 61.0675 111.61H99.6131C100.074 111.61 100.493 111.421 100.797 111.117C101.102 110.812 101.291 110.393 101.291 109.933V63.9761C101.082 64.3525 100.822 64.6966 100.52 64.9987C100.252 65.2664 99.9516 65.5012 99.6242 65.6961V104.464C99.6242 104.806 99.4844 105.118 99.2591 105.343C99.0342 105.568 98.7227 105.708 98.38 105.708H62.3004C61.9607 105.708 61.6504 105.568 61.4238 105.343L61.4228 105.342L61.4211 105.34L61.4195 105.339C61.1952 105.113 61.0561 104.803 61.0561 104.464V65.6567C60.9713 65.6071 60.8881 65.5553 60.8064 65.501C60.2275 65.1147 59.7378 64.6066 59.39 63.9898ZM98.5685 64.6796C98.6113 64.6536 98.6567 64.6321 98.7045 64.6159C99.0139 64.462 99.2951 64.2582 99.5375 64.0161C99.9528 63.6008 100.253 63.0719 100.388 62.4818H93.6052C93.7391 63.0719 94.0402 63.6008 94.455 64.0161C95.0279 64.5886 95.8169 64.944 96.6842 64.944H97.3083C97.7555 64.944 98.182 64.8496 98.5685 64.6796ZM62.4459 66.2138V104.318H98.2345V66.2383C97.9353 66.3008 97.6256 66.3339 97.3083 66.3339H96.6842C95.4331 66.3339 94.2963 65.8223 93.4724 64.9987C93.2305 64.7567 93.0154 64.4875 92.8324 64.1963C92.6493 64.4875 92.4342 64.7567 92.1922 64.9987C91.3684 65.8223 90.2313 66.3339 88.9802 66.3339H88.3561C87.105 66.3339 85.9683 65.8223 85.1444 64.9987C84.9022 64.7567 84.6873 64.4875 84.5043 64.1963C84.3213 64.4875 84.1062 64.7567 83.864 64.9987C83.0403 65.8223 81.9033 66.3339 80.6522 66.3339H80.028C78.777 66.3339 77.6402 65.8223 76.8164 64.9987C76.5745 64.7567 76.3592 64.4875 76.1763 64.1963C75.993 64.4875 75.778 64.7567 75.5359 64.9987C74.7123 65.8223 73.5753 66.3339 72.3242 66.3339H71.7C70.4489 66.3339 69.3122 65.8223 68.4883 64.9987C67.8198 64.3303 67.3572 63.4559 67.2063 62.4818H60.2839C60.2961 62.5385 60.3094 62.5944 60.3244 62.6486C60.5232 63.3747 60.981 63.9521 61.5775 64.35C62.19 64.7586 62.9514 64.9782 63.7374 64.9782C64.1067 64.9782 64.4738 64.9316 64.8258 64.8353C65.1945 64.735 65.5751 64.9526 65.6754 65.3213C65.776 65.6901 65.5584 66.0705 65.1896 66.1709C64.7043 66.3041 64.215 66.3685 63.7374 66.3685C63.2996 66.3685 62.8651 66.316 62.4459 66.2138ZM60.2376 61.0917H67.1869C67.3481 57.9015 68.6222 55.3212 70.6575 53.4778C71.4394 52.7701 72.3319 52.1729 73.3154 51.6951H71.4326C71.0911 51.6951 70.7697 51.704 70.4696 51.7221C70.1658 51.7403 69.8534 51.7694 69.5323 51.8091C69.2816 51.84 69.0361 51.8766 68.796 51.9191C68.5502 51.9627 68.3116 52.0117 68.0808 52.0652C65.6832 52.6252 63.6704 53.8054 62.2858 55.5196C61.0974 56.9901 60.3637 58.8657 60.2376 61.0917ZM68.5788 61.0917H73.3942C73.778 61.0917 74.0892 61.4029 74.0892 61.7867C74.0892 62.1703 73.778 62.4818 73.3942 62.4818H68.621C68.7549 63.0719 69.0557 63.6008 69.4709 64.0161C70.0434 64.5886 70.8327 64.944 71.7 64.944H72.3242C73.1917 64.944 73.9808 64.5886 74.5534 64.0161C75.1258 63.4434 75.4813 62.6543 75.4813 61.7867V61.0917H75.5061C75.5553 60.125 75.7071 59.2127 75.9518 58.359C76.2657 57.2627 76.7345 56.2634 77.3363 55.369C77.5492 55.051 77.9797 54.9657 78.2975 55.1789C78.6152 55.3917 78.7004 55.8223 78.4872 56.1399C77.9681 56.9112 77.5621 57.7798 77.2872 58.739C77.0777 59.4711 76.9453 60.2565 76.8979 61.0917H83.7214C83.6531 59.8844 83.4073 58.7822 83.0081 57.7938C82.5161 56.5761 81.7893 55.5239 80.8731 54.6536C80.5958 54.3896 80.5847 53.9508 80.8486 53.6737C81.1125 53.3961 81.5514 53.3852 81.8287 53.649C82.8861 54.6541 83.7259 55.8697 84.2948 57.2778C84.7597 58.4288 85.0423 59.7039 85.1128 61.0917H100.439C100.26 58.3856 99.0319 56.193 97.1686 54.6141C94.9368 52.7235 91.7929 51.6951 88.4261 51.6951H87.121C87.175 51.7212 87.229 51.748 87.2828 51.775C89.1899 52.7367 90.7418 54.1495 91.7881 55.9601C91.98 56.2912 91.8672 56.7155 91.5358 56.9075C91.2044 57.0996 90.7802 56.9863 90.5884 56.6552C89.68 55.0835 88.3263 53.8537 86.6584 53.0127C84.9485 52.1504 82.9036 51.6951 80.6616 51.6951H79.7736C76.4727 51.6951 73.5955 52.6838 71.5858 54.504C69.8372 56.0879 68.7357 58.3188 68.5788 61.0917ZM83.7315 62.4818H76.9488C77.0829 63.0719 77.3839 63.6008 77.799 64.0161C78.3715 64.5886 79.1607 64.944 80.028 64.944H80.6522C81.5198 64.944 82.3088 64.5886 82.8814 64.0161C83.2965 63.6008 83.5973 63.0719 83.7315 62.4818ZM91.2096 64.0161C91.6245 63.6008 91.9255 63.0719 92.0596 62.4818H85.2771C85.4111 63.0719 85.7121 63.6008 86.127 64.0161C86.6996 64.5886 87.4888 64.944 88.3561 64.944H88.9802C89.8479 64.944 90.6369 64.5886 91.2096 64.0161Z" fill="black"/>
<defs>
<filter id="filter0_d_1152_18391" x="0" y="0" width="160" height="160" filterUnits="userSpaceOnUse" color-interpolation-filters="sRGB">
<feFlood flood-opacity="0" result="BackgroundImageFix"/>
<feColorMatrix in="SourceAlpha" type="matrix" values="0 0 0 0 0 0 0 0 0 0 0 0 0 0 0 0 0 0 127 0" result="hardAlpha"/>
<feOffset/>
<feGaussianBlur stdDeviation="10"/>
<feComposite in2="hardAlpha" operator="out"/>
<feColorMatrix type="matrix" values="0 0 0 0 0.176471 0 0 0 0 0.00392157 0 0 0 0 0.294118 0 0 0 0.74 0"/>
<feBlend mode="normal" in2="BackgroundImageFix" result="effect1_dropShadow_1152_18391"/>
<feBlend mode="normal" in="SourceGraphic" in2="effect1_dropShadow_1152_18391" result="shape"/>
</filter>
</defs>
</svg>
