<svg width="160" height="160" viewBox="0 0 160 160" fill="none" xmlns="http://www.w3.org/2000/svg">
<g filter="url(#filter0_d_1152_18392)">
<circle cx="80" cy="80" r="60" fill="#E3E8F1"/>
</g>
<path fill-rule="evenodd" clip-rule="evenodd" d="M110.738 55.8994C110.283 57.3857 108.894 58.4751 107.264 58.4751H87.4559C86.3569 58.4751 85.458 57.5762 85.458 56.4775V48.5813C85.458 47.3493 86.0803 46.2556 87.0257 45.5981H107.905C108.683 45.5981 109.391 45.9169 109.905 46.4308C110.419 46.9447 110.738 47.6527 110.738 48.4308V55.8994Z" fill="#00CDB4"/>
<path d="M88.0827 63.6374C87.974 64.0647 87.5395 64.3234 87.112 64.2149C86.6848 64.1063 86.4261 63.6717 86.5348 63.2442L86.8754 61.9041H84.8573C84.087 61.9041 83.3877 61.5896 82.8815 61.0833C82.3751 60.5767 82.0605 59.8774 82.0605 59.1078V48.4307C82.0605 47.2114 82.5588 46.1037 83.3612 45.301C84.1641 44.4984 85.272 44 86.4912 44H107.905C109.125 44 110.233 44.4984 111.035 45.301C111.838 46.1037 112.336 47.2114 112.336 48.4307V57.4734C112.336 58.6927 111.838 59.8006 111.035 60.603C110.233 61.4057 109.125 61.9041 107.905 61.9041H95.6599C94.6569 63.7644 93.4516 65.0744 92.1256 65.9698C90.6882 66.9409 89.1187 67.4161 87.5167 67.572C87.0789 67.6129 86.6903 67.2917 86.649 66.854C86.6077 66.4164 86.9292 66.0277 87.3669 65.9864C88.7149 65.855 90.0322 65.4581 91.2331 64.6465C92.4372 63.8333 93.5349 62.5943 94.4461 60.7778C94.5712 60.4997 94.8504 60.306 95.1754 60.306H107.905C108.683 60.306 109.392 59.9872 109.905 59.4734C110.419 58.9595 110.738 58.2515 110.738 57.4734V48.4307C110.738 47.6526 110.419 46.9446 109.905 46.4306C109.392 45.9168 108.683 45.598 107.905 45.598H86.4912C85.7129 45.598 85.0049 45.9168 84.4913 46.4306C83.9774 46.9446 83.6586 47.6526 83.6586 48.4307V59.1078C83.6586 59.4361 83.7934 59.7359 84.0111 59.9532C84.2289 60.171 84.5282 60.306 84.8573 60.306H87.9026V60.3064C87.9674 60.3064 88.0334 60.3142 88.099 60.3311C88.5266 60.4394 88.785 60.874 88.6766 61.3015L88.0827 63.6374Z" fill="black"/>
<path fill-rule="evenodd" clip-rule="evenodd" d="M91.2448 51.0288C92.0447 51.0288 92.6927 51.6772 92.6927 52.4767C92.6927 53.2767 92.0447 53.925 91.2448 53.925C90.4452 53.925 89.7969 53.2767 89.7969 52.4767C89.7969 51.6772 90.4452 51.0288 91.2448 51.0288ZM97.3712 51.0288C98.1709 51.0288 98.8193 51.6772 98.8193 52.4767C98.8193 53.2767 98.1709 53.925 97.3712 53.925C96.5715 53.925 95.9233 53.2767 95.9233 52.4767C95.9233 51.6772 96.5715 51.0288 97.3712 51.0288ZM103.498 51.0288C104.298 51.0288 104.946 51.6772 104.946 52.4767C104.946 53.2767 104.298 53.925 103.498 53.925C102.698 53.925 102.05 53.2767 102.05 52.4767C102.05 51.6772 102.698 51.0288 103.498 51.0288Z" fill="white"/>
<path fill-rule="evenodd" clip-rule="evenodd" d="M66.8896 112.869C66.2717 112.729 65.6633 112.564 65.0664 112.373V98.5868C65.0664 96.7592 65.9585 95.111 67.3702 93.9751H76.9378C78.4313 93.9751 79.7797 94.5153 80.7483 95.3861C81.6739 96.2176 82.2482 97.3509 82.2482 98.5868V109.022C80.81 109.864 79.2671 110.536 77.6458 111.011C75.8109 111.548 73.8571 111.836 71.8229 111.836C71.2751 111.836 70.7485 111.816 70.2426 111.778C69.7241 111.739 69.2015 111.679 68.6778 111.599C67.8334 111.473 67.0462 112.038 66.8896 112.869Z" fill="#00CDB4"/>
<path fill-rule="evenodd" clip-rule="evenodd" d="M72.6544 85.7977C70.9611 84.981 69.793 83.2481 69.793 81.2418C69.793 79.3495 70.8324 77.7013 72.3707 76.8345C73.4048 76.9594 74.331 77.4307 75.0302 78.1299C75.851 78.9511 76.3585 80.085 76.3585 81.3375C76.3585 82.5904 75.851 83.7252 75.0302 84.5452C74.3956 85.1803 73.5736 85.6275 72.6544 85.7977Z" fill="#00CDB4"/>
<path d="M71.823 73.6367C73.9488 73.6367 75.8745 74.499 77.2677 75.8922C78.6611 77.2868 79.5233 79.212 79.5233 81.3375C79.5233 83.4639 78.6611 85.3892 77.2677 86.7826C75.8745 88.1765 73.9488 89.0387 71.823 89.0387C69.6966 89.0387 67.7716 88.1765 66.3777 86.7826C64.9843 85.3892 64.1221 83.4639 64.1221 81.3375C64.1221 79.212 64.9843 77.2863 66.3777 75.8922C67.7716 74.499 69.6966 73.6367 71.823 73.6367ZM75.0306 78.1299C74.2098 77.3094 73.0756 76.8011 71.823 76.8011C70.5698 76.8011 69.4358 77.3094 68.6145 78.1299C67.7938 78.9512 67.2862 80.085 67.2862 81.3375C67.2862 82.5905 67.7938 83.7252 68.6145 84.5453C69.4358 85.3668 70.5698 85.8743 71.823 85.8743C73.0756 85.8743 74.2098 85.3668 75.0306 84.5453C75.8514 83.7252 76.3589 82.5905 76.3589 81.3375C76.3589 80.085 75.8514 78.9512 75.0306 78.1299Z" fill="black"/>
<path d="M61.3968 109.903C61.3968 110.777 60.6883 111.485 59.8149 111.485C59.4303 111.485 59.078 111.348 58.8036 111.119C58.7562 111.095 58.7097 111.067 58.6637 111.037C56.4335 109.557 54.467 107.712 52.8507 105.588C51.2502 103.485 49.9922 101.11 49.1576 98.5457C48.8882 97.7159 49.3423 96.8243 50.171 96.5556C51.0006 96.2857 51.8922 96.7389 52.1613 97.5685C52.8853 99.7939 53.9755 101.853 55.3601 103.672C56.2118 104.791 57.1747 105.821 58.2331 106.745V98.5867C58.2331 96.4149 59.2098 94.4513 60.7827 93.0379C62.312 91.6636 64.4099 90.8099 66.7072 90.8099H76.9373C79.2349 90.8099 81.3332 91.6636 82.8618 93.0379C84.4354 94.4513 85.4114 96.4149 85.4114 98.5867V106.746C87.2911 105.106 88.8697 103.134 90.0553 100.922C91.6086 98.0231 92.4892 94.7035 92.4892 91.1692C92.4892 85.4616 90.1756 80.2952 86.4358 76.5553C82.6961 72.8154 77.529 70.5018 71.8224 70.5018C67.7311 70.5018 63.924 71.6835 60.7253 73.723C57.4205 75.8301 54.7517 78.8584 53.0777 82.4505C52.7099 83.2417 51.7682 83.5849 50.9763 83.2164C50.1846 82.8474 49.8413 81.9067 50.2103 81.1145C52.1332 76.9887 55.2118 73.5008 59.032 71.0654C62.7344 68.7051 67.123 67.3374 71.8224 67.3374C78.4032 67.3374 84.3606 70.0057 88.6731 74.3182C92.986 78.6305 95.6534 84.5891 95.6534 91.1692C95.6534 95.2242 94.6338 99.0503 92.8363 102.405C90.9733 105.882 88.2752 108.842 85.0126 111.016C84.9613 111.049 84.9089 111.08 84.8562 111.107C84.7749 111.176 84.6867 111.237 84.593 111.289C82.7357 112.47 80.696 113.402 78.5229 114.039C76.3854 114.665 74.1362 115 71.8224 115C71.2269 115 70.6214 114.977 70.0073 114.93C69.3922 114.884 68.7917 114.815 68.2077 114.727C67.3437 114.597 66.7492 113.792 66.8789 112.928C67.0083 112.065 67.8134 111.47 68.6773 111.599C69.201 111.679 69.7236 111.739 70.2421 111.778C70.748 111.816 71.2746 111.836 71.8224 111.836C73.8566 111.836 75.8104 111.548 77.6453 111.01C79.2666 110.536 80.8095 109.864 82.2477 109.022V98.5867C82.2477 97.3508 81.6734 96.2175 80.7478 95.386C79.7792 94.5152 78.4308 93.975 76.9373 93.975H66.7072C65.2137 93.975 63.8651 94.5152 62.8961 95.386C61.9713 96.2175 61.3968 97.3508 61.3968 98.5867V109.903ZM51.1524 90.8118C51.1386 91.6824 50.4223 92.3771 49.5514 92.3635C48.681 92.3494 47.9864 91.6331 48.0002 90.7622C48.0059 90.3996 48.0176 90.0768 48.0336 89.7919C48.051 89.4892 48.0767 89.1662 48.1101 88.8219C48.1926 87.9552 48.9614 87.3194 49.8287 87.4007C50.6954 87.4829 51.3319 88.2524 51.2502 89.1192C51.2249 89.3769 51.2032 89.6582 51.1858 89.9645C51.1675 90.2828 51.1558 90.566 51.1524 90.8118Z" fill="black"/>
<defs>
<filter id="filter0_d_1152_18392" x="0" y="0" width="160" height="160" filterUnits="userSpaceOnUse" color-interpolation-filters="sRGB">
<feFlood flood-opacity="0" result="BackgroundImageFix"/>
<feColorMatrix in="SourceAlpha" type="matrix" values="0 0 0 0 0 0 0 0 0 0 0 0 0 0 0 0 0 0 127 0" result="hardAlpha"/>
<feOffset/>
<feGaussianBlur stdDeviation="10"/>
<feComposite in2="hardAlpha" operator="out"/>
<feColorMatrix type="matrix" values="0 0 0 0 0.176471 0 0 0 0 0.00392157 0 0 0 0 0.294118 0 0 0 0.74 0"/>
<feBlend mode="normal" in2="BackgroundImageFix" result="effect1_dropShadow_1152_18392"/>
<feBlend mode="normal" in="SourceGraphic" in2="effect1_dropShadow_1152_18392" result="shape"/>
</filter>
</defs>
</svg>
