<svg width="160" height="160" viewBox="0 0 160 160" fill="none" xmlns="http://www.w3.org/2000/svg">
<g filter="url(#filter0_d_1152_18390)">
<circle cx="80" cy="80" r="60" fill="#E3E8F1"/>
</g>
<path fill-rule="evenodd" clip-rule="evenodd" d="M42.8633 65.2476H45.813C47.6244 65.2476 49.2541 66.0655 50.3513 67.3502V81.6356C50.3513 81.9793 50.2095 82.2927 49.9816 82.5206C49.7538 82.7486 49.4399 82.8903 49.0965 82.8903H42.8633V65.2476Z" fill="#00CDB4"/>
<path fill-rule="evenodd" clip-rule="evenodd" d="M101.115 83.6604L99.8919 83.5273C101.173 80.6679 99.8717 78.82 97.2425 76.5248C96.6788 76.0324 96.0698 75.5388 95.4086 75.0023C94.8515 74.5509 94.2543 74.067 93.5598 73.4787L83.5056 64.9486C83.3903 64.8513 83.264 64.7752 83.1315 64.7206C83.0089 64.5751 82.8551 64.4517 82.6733 64.3622C81.9659 64.0133 81.1095 64.304 80.7604 65.0113C79.3301 67.8973 77.8073 70.3485 75.9427 71.5721C75.1807 72.0722 74.3308 72.3608 73.3643 72.3774L79.9354 63.5225L94.6924 63.9399C98.5404 64.0492 103.921 64.8262 105.785 68.6459V82.8996L102.377 82.8985C101.829 82.8985 101.354 83.2075 101.115 83.6604Z" fill="#00CDB4"/>
<path fill-rule="evenodd" clip-rule="evenodd" d="M72.4925 83.6303C71.0308 82.7542 69.0938 83.032 67.9492 84.3669L67.375 85.0369L70.4641 87.6844L72.1123 85.7612L72.1128 85.7609C72.4933 85.3163 72.6577 84.7523 72.6152 84.2015C72.6002 84.0074 72.5589 83.8146 72.4925 83.6303ZM85.0701 94.1425C83.7618 93.7571 82.2851 94.1401 81.3447 95.2378L80.4681 96.2596L81.8774 97.4679L81.8779 97.4687C82.2632 97.7984 82.7528 97.9408 83.2309 97.9038C83.7059 97.8671 84.1646 97.6525 84.4938 97.2686L84.4951 97.2675L84.936 96.7528C85.3171 96.3088 85.4809 95.7443 85.4388 95.1935C85.41 94.8212 85.2858 94.4568 85.0701 94.1425ZM78.8954 89.1021C77.4398 88.2611 75.5331 88.5477 74.4019 89.8676L73.8129 90.5552L76.8755 93.1804L78.5241 91.2573C78.9052 90.8128 79.069 90.2487 79.0266 89.6972C79.0113 89.494 78.9675 89.2931 78.8954 89.1021Z" fill="#00CDB4"/>
<path d="M84.7068 93.7372L83.7111 92.8836C83.2669 92.5031 82.7024 92.3387 82.1515 92.3808C81.6049 92.4233 81.0753 92.6707 80.6954 93.1141L79.0451 95.0393L81.8785 97.4679L81.879 97.4687C82.2643 97.7984 82.7539 97.9408 83.232 97.9038C83.707 97.8671 84.1658 97.6525 84.4949 97.2686L84.4962 97.2675L84.9371 96.7528C85.3182 96.3088 85.482 95.7443 85.4399 95.1935C85.3979 94.6466 85.1502 94.1169 84.7068 93.7372ZM63.8241 85.7536H54.5367C53.4961 85.7536 52.5431 85.3637 51.8172 84.7231C51.0907 85.3637 50.1376 85.7536 49.097 85.7536H40V59.0081H45.8135C47.8508 59.0081 49.7012 59.8409 51.0422 61.1819C51.9564 62.0958 52.6342 63.2473 52.9726 64.5329C53.3884 63.962 53.8475 63.4255 54.3452 62.9271C56.7681 60.5042 60.1117 59 63.7909 59H73.7827C74.5736 59 75.2144 59.6415 75.2144 60.4317C75.2144 61.2225 74.5736 61.8635 73.7827 61.8635H63.7909C60.902 61.8635 58.275 63.0461 56.3702 64.9516C54.4647 66.8569 53.2816 69.4843 53.2816 72.3723V81.6355C53.2816 81.9792 53.4236 82.2921 53.6516 82.5206C53.8796 82.7485 54.1934 82.8902 54.5367 82.8902H63.452L65.702 80.2652L65.7749 80.1811L65.7752 80.1818C66.6656 79.1882 67.8738 78.6324 69.1156 78.5368C70.3873 78.4392 71.6996 78.8263 72.7441 79.7219L72.7454 79.7231L73.7403 80.5753L73.824 80.6482L73.8237 80.6492C74.8173 81.5394 75.3732 82.7468 75.4688 83.989L75.4719 84.0372L75.527 84.0327C76.7992 83.9352 78.1115 84.3223 79.156 85.2179L80.1522 86.0715C81.1979 86.9683 81.7821 88.2088 81.8801 89.4847L81.8838 89.5333L81.9389 89.5284C83.2106 89.4308 84.5229 89.8178 85.5679 90.7136L86.5636 91.5675C87.6098 92.4638 88.194 93.7049 88.292 94.9806C88.3901 96.2527 88.0029 97.5651 87.1068 98.6096L86.6652 99.1256L86.5927 99.2093L86.5919 99.2088C85.7521 100.143 84.614 100.666 83.4451 100.756C82.2454 100.848 81.0077 100.483 80.0217 99.6376L80.0205 99.6369L76.1032 96.279L69.6914 90.783L68.6063 89.853L63.8241 85.7536ZM80.7602 65.0115C81.1092 64.3042 81.9657 64.0135 82.673 64.3624C82.8548 64.4519 83.0086 64.5753 83.1313 64.7208C83.2638 64.7754 83.3901 64.8515 83.5054 64.9488L93.5596 73.4789C94.2541 74.0672 94.8513 74.5511 95.4084 75.0025C96.0696 75.539 96.6785 76.0326 97.2422 76.525C100.814 79.643 101.935 81.9351 97.4624 87.0589C96.9432 87.6522 96.0416 87.7116 95.4488 87.193C95.4107 87.1598 95.3752 87.1249 95.3411 87.0884C95.1679 87.0338 95.0022 86.9451 94.8544 86.8217L82.568 76.5233C81.9624 76.0163 81.8823 75.1152 82.3892 74.5098C82.8956 73.9045 83.797 73.8242 84.4023 74.3308L96.1326 84.1629C97.9848 81.6184 97.2624 80.3305 95.3635 78.6725C94.8582 78.2311 94.2584 77.7457 93.6074 77.2178C92.9929 76.7196 92.334 76.1852 91.7142 75.6601L82.5065 67.8486C81.0865 70.4589 79.5018 72.6578 77.5085 73.9657C74.9383 75.6523 71.8672 75.8593 67.9322 73.6344C67.2466 73.2477 67.0037 72.3792 67.3899 71.6938C67.4248 71.631 67.4636 71.5727 67.5063 71.5181L67.5017 71.5143L76.809 59.5535C77.0907 59.1915 77.5126 59.0013 77.9385 59.0009V59H98.2608C99.0078 59 99.7537 59.0859 100.489 59.2478C101.236 59.413 101.946 59.6545 102.608 59.9624C103.324 60.2923 103.637 61.1414 103.307 61.8581C102.977 62.5749 102.128 62.8882 101.411 62.5575C100.915 62.3266 100.399 62.1496 99.873 62.0335C99.3707 61.9225 98.8314 61.8635 98.2608 61.8635H78.6374L70.8452 71.8776C72.9341 72.6865 74.5792 72.4667 75.9424 71.5724C77.8071 70.3487 79.3298 67.8975 80.7602 65.0115ZM116.136 61.8724H113.187C111.94 61.8724 110.806 62.3829 109.982 63.2065C109.159 64.0296 108.648 65.1641 108.648 66.4107V81.6355C108.648 81.9792 108.79 82.2926 109.018 82.5206C109.246 82.7485 109.559 82.8902 109.903 82.8902H116.136V61.8724ZM92.4406 88.2076C92.947 87.6023 93.8487 87.5217 94.454 88.0286C95.0593 88.5352 95.1395 89.4369 94.633 90.0417L92.6854 92.3654L92.6628 92.3933C92.1594 93.002 91.2582 93.0868 90.6496 92.5837L77.9297 82.0718C77.3211 81.5687 77.2362 80.6673 77.7395 80.0587C78.2429 79.4503 79.1443 79.3652 79.7529 79.8685L91.3776 89.4753L92.4406 88.2076ZM108.188 85.3778C107.932 85.6138 107.591 85.7584 107.216 85.7584C107.174 85.7584 107.132 85.7564 107.09 85.7523L102.377 85.7511C101.589 85.7511 100.951 85.1127 100.951 84.3251C100.951 83.5377 101.589 82.8987 102.377 82.8987L105.785 82.8998V66.4107C105.785 64.3733 106.617 62.5226 107.958 61.1819C109.299 59.8409 111.15 59.0081 113.187 59.0081H119V85.7536H109.903C109.292 85.7536 108.711 85.6187 108.188 85.3778ZM45.8135 61.8724H42.8638V82.8902H49.097C49.4404 82.8902 49.7543 82.7485 49.9821 82.5206C50.21 82.2926 50.3518 81.9792 50.3518 81.6355V66.4107C50.3518 65.1641 49.8408 64.0296 49.0177 63.2065C48.1941 62.3829 47.0596 61.8724 45.8135 61.8724ZM71.8822 82.7448L70.8879 81.8922L70.887 81.8913C70.4428 81.5111 69.8785 81.3468 69.3277 81.3892C68.7812 81.431 68.252 81.6791 67.8722 82.1217L67.871 82.1233L66.2218 84.0474L70.4652 87.6844L72.1135 85.7612L72.1139 85.7609C72.4944 85.3163 72.6589 84.7522 72.6163 84.2015C72.5742 83.655 72.3264 83.1254 71.8835 82.7455L71.8822 82.7448ZM78.2952 88.2415L77.2992 87.3876C76.855 87.0071 76.2907 86.8431 75.7397 86.8852C75.193 86.9273 74.6634 87.1751 74.2837 87.6181L74.2824 87.6198L72.6334 89.5432L76.8766 93.1804L78.5252 91.2572C78.9063 90.8127 79.0701 90.2487 79.0277 89.6972C78.9861 89.1505 78.7383 88.621 78.2952 88.2415Z" fill="black"/>
<defs>
<filter id="filter0_d_1152_18390" x="0" y="0" width="160" height="160" filterUnits="userSpaceOnUse" color-interpolation-filters="sRGB">
<feFlood flood-opacity="0" result="BackgroundImageFix"/>
<feColorMatrix in="SourceAlpha" type="matrix" values="0 0 0 0 0 0 0 0 0 0 0 0 0 0 0 0 0 0 127 0" result="hardAlpha"/>
<feOffset/>
<feGaussianBlur stdDeviation="10"/>
<feComposite in2="hardAlpha" operator="out"/>
<feColorMatrix type="matrix" values="0 0 0 0 0.176471 0 0 0 0 0.00392157 0 0 0 0 0.294118 0 0 0 0.74 0"/>
<feBlend mode="normal" in2="BackgroundImageFix" result="effect1_dropShadow_1152_18390"/>
<feBlend mode="normal" in="SourceGraphic" in2="effect1_dropShadow_1152_18390" result="shape"/>
</filter>
</defs>
</svg>
