<svg width="160" height="160" viewBox="0 0 160 160" fill="none" xmlns="http://www.w3.org/2000/svg">
<g filter="url(#filter0_d_1152_18393)">
<circle cx="80" cy="80" r="60" fill="#E3E8F1"/>
</g>
<path fill-rule="evenodd" clip-rule="evenodd" d="M109.078 65.1506L108.967 66.2979L108.963 66.2974C108.057 66.2121 107.256 66.8767 107.17 67.7812L106.964 69.9019L99.6473 69.9612L100.099 65.3019L108.724 65.1939C108.846 65.1922 108.964 65.1777 109.078 65.1506ZM105.795 76.669C105.115 76.8191 104.379 76.9345 103.584 77.0126L98.5365 77.5093C98.9167 76.3284 99.1519 75.083 99.2745 73.813L99.329 73.2531L106.602 73.1944C106.405 74.5465 106.15 75.6993 105.795 76.669ZM94.8459 77.8728L73.9918 79.9267L70.71 64.8911C71.023 65.2461 71.4861 65.4644 71.9962 65.4487L80.0788 65.1939C80.9878 65.165 81.7014 64.4051 81.6733 63.4974C81.6442 62.5884 80.8845 61.8748 79.9763 61.9039L71.8929 62.1585C71.1679 62.1813 70.5669 62.6703 70.3681 63.3292L68.9316 56.746C77.6117 56.6365 86.2928 56.5268 94.9726 56.418C95.0865 56.4245 95.1973 56.433 95.3052 56.4432C96.6233 56.5706 97.5756 57.2056 97.3389 59.6595L97.107 62.0497L88.4553 62.1585C87.5471 62.1692 86.8195 62.9149 86.8305 63.8224C86.8407 64.7313 87.5854 65.4594 88.4944 65.4487L96.788 65.3439L96.3386 69.9878L77.2231 70.1426C76.3153 70.1493 75.5843 70.8918 75.5915 71.8007C75.598 72.709 76.3412 73.4395 77.2489 73.4328L96.0189 73.2803L95.9972 73.5037C95.846 75.0693 95.4934 76.5697 94.8459 77.8728ZM100.373 56.3501C100.664 57.2762 100.762 58.4592 100.616 59.9688L100.418 62.0077L107.737 61.9156L107.956 59.6595C107.967 59.5393 107.973 59.4251 107.972 59.3181C107.962 58.5291 107.639 57.8045 107.14 57.2566C106.651 56.7201 106.009 56.3658 105.345 56.3016C105.256 56.2929 105.172 56.2894 105.094 56.2901L100.373 56.3501Z" fill="#00CDB4"/>
<path d="M107.171 67.7812C107.257 66.8767 108.058 66.2121 108.964 66.2975C109.868 66.3828 110.533 67.186 110.448 68.0905L110.118 71.4962C109.712 75.6867 108.966 78.6748 107.224 80.8165C105.42 83.033 102.729 84.1859 98.5034 84.6014L69.7072 87.4375C69.5968 87.4604 69.4831 87.4724 69.3659 87.4724H69.3462L69.0391 87.5025C68.5855 87.5878 68.17 87.8453 67.8443 88.2173C67.3914 88.7364 67.1097 89.4684 67.1097 90.2903C67.1097 91.1114 67.3914 91.8445 67.8443 92.3628C68.2469 92.8224 68.7856 93.1078 69.3659 93.1078H94.9808C99.4502 93.1078 103.197 95.0919 103.197 100.047C103.197 101.967 102.418 103.705 101.16 104.964C99.9018 106.221 98.164 107 96.2436 107C94.3236 107 92.5856 106.221 91.327 104.964C90.0687 103.705 89.2901 101.967 89.2901 100.047C89.2901 98.7143 89.6656 97.4684 90.316 96.4112H74.009C74.6597 97.4684 75.0351 98.7143 75.0351 100.047C75.0351 101.967 74.2558 103.705 72.9972 104.964C71.7394 106.221 70.0009 107 68.0817 107C66.161 107 64.4232 106.221 63.1649 104.964C61.9063 103.705 61.1277 101.967 61.1277 100.047C61.1277 98.1269 61.9063 96.3883 63.1649 95.1305C63.6637 94.6311 64.2388 94.2076 64.8713 93.8779C64.204 92.8674 63.8063 91.6235 63.8063 90.2903C63.8063 88.6533 64.4053 87.1509 65.3675 86.0498C65.793 85.5639 66.2879 85.1553 66.835 84.8442L64.4316 73.8347C64.2395 72.9446 64.8059 72.0663 65.6962 71.8739C66.5865 71.6816 67.4648 72.2477 67.6574 73.1385L70.0489 84.095L87.5464 82.3717L87.5625 82.3699C90.5666 82.0743 92.5634 80.9785 93.8432 79.431C95.1545 77.847 95.782 75.7414 95.9982 73.5037L96.0199 73.2803L77.2499 73.4328C76.3422 73.4395 75.599 72.709 75.5925 71.8008C75.5853 70.8918 76.3163 70.1493 77.2241 70.1426L96.3396 69.9878L96.789 65.344L88.4954 65.4487C87.5864 65.4594 86.8417 64.7314 86.8315 63.8224C86.8205 62.9149 87.5481 62.1692 88.4563 62.1585L97.108 62.0498L97.3399 59.6595C97.5766 57.2056 96.6243 56.5706 95.3062 56.4432C95.1983 56.433 95.0876 56.4245 94.9736 56.4181C84.6804 56.5472 74.3862 56.6771 64.0922 56.8067L65.7551 64.4251C65.9472 65.3154 65.3814 66.1937 64.4906 66.3858C63.6001 66.5779 62.7219 66.0128 62.5291 65.1218L60.688 56.6841L49.664 56.8324C48.7558 56.8426 48.0108 56.1152 48.0001 55.207C47.9892 54.2986 48.7167 53.5531 49.6257 53.5429C68.0889 53.2936 86.5821 53.2331 105.056 53.0004C105.262 52.998 105.462 53.0059 105.655 53.0246C107.157 53.1699 108.558 53.9166 109.579 55.0371C110.588 56.1458 111.241 57.6351 111.262 59.2798C111.265 59.5125 111.256 59.7424 111.235 59.9688L110.898 63.4409C110.831 64.1494 110.324 64.7105 109.673 64.8797C109.407 65.0737 109.08 65.1892 108.725 65.1939L100.1 65.3019L99.6483 69.9612L106.965 69.902L107.171 67.7812ZM96.414 81.4988L98.1802 81.3246C101.466 81.0014 103.469 80.2138 104.669 78.7395C105.676 77.5016 106.241 75.6862 106.603 73.1944L99.33 73.2532L99.2755 73.813C99.0013 76.6449 98.1708 79.3571 96.414 81.4988ZM100.374 56.3501C100.665 57.2763 100.763 58.4592 100.617 59.9688L100.419 62.0077L107.738 61.9156L107.957 59.6595C107.968 59.5393 107.974 59.4251 107.973 59.3181C107.963 58.5291 107.64 57.8045 107.141 57.2566C106.652 56.7201 106.01 56.3658 105.346 56.3016C105.257 56.2929 105.173 56.2894 105.095 56.2902L100.374 56.3501ZM71.9972 65.4487C71.089 65.4768 70.3296 64.7632 70.3007 63.855C70.2723 62.9468 70.986 62.1874 71.8939 62.1585L79.9773 61.9039C80.8855 61.8748 81.6452 62.5885 81.6743 63.4974C81.7024 64.4052 80.9888 65.1651 80.0798 65.1939L71.9972 65.4487ZM70.6627 97.4655C70.0021 96.8051 69.0892 96.3968 68.0817 96.3968C67.0729 96.3968 66.16 96.8051 65.5003 97.4655C64.8395 98.1261 64.4304 99.0386 64.4304 100.047C64.4304 101.055 64.8395 101.968 65.5003 102.629C66.16 103.289 67.0729 103.697 68.0817 103.697C69.0892 103.697 70.0021 103.289 70.6627 102.629C71.3231 101.968 71.7322 101.055 71.7322 100.047C71.7322 99.0386 71.3231 98.1261 70.6627 97.4655ZM96.5683 96.4112H95.9184C95.0403 96.4878 94.251 96.8767 93.6628 97.4655C93.0021 98.1261 92.593 99.0386 92.593 100.047C92.593 101.055 93.0021 101.968 93.6628 102.629C94.3224 103.289 95.2353 103.697 96.2436 103.697C97.2513 103.697 98.1648 103.289 98.8249 102.629C99.4855 101.968 99.8941 101.055 99.8941 100.047C99.8941 99.0386 99.4855 98.1261 98.8249 97.4655C98.2359 96.8767 97.4467 96.4878 96.5683 96.4112Z" fill="black"/>
<defs>
<filter id="filter0_d_1152_18393" x="0" y="0" width="160" height="160" filterUnits="userSpaceOnUse" color-interpolation-filters="sRGB">
<feFlood flood-opacity="0" result="BackgroundImageFix"/>
<feColorMatrix in="SourceAlpha" type="matrix" values="0 0 0 0 0 0 0 0 0 0 0 0 0 0 0 0 0 0 127 0" result="hardAlpha"/>
<feOffset/>
<feGaussianBlur stdDeviation="10"/>
<feComposite in2="hardAlpha" operator="out"/>
<feColorMatrix type="matrix" values="0 0 0 0 0.176471 0 0 0 0 0.00392157 0 0 0 0 0.294118 0 0 0 0.74 0"/>
<feBlend mode="normal" in2="BackgroundImageFix" result="effect1_dropShadow_1152_18393"/>
<feBlend mode="normal" in="SourceGraphic" in2="effect1_dropShadow_1152_18393" result="shape"/>
</filter>
</defs>
</svg>
