<svg width="453" height="350" viewBox="0 0 453 350" fill="none" xmlns="http://www.w3.org/2000/svg">
<path d="M401.763 249.17H238.439C237.035 249.167 235.689 248.609 234.696 247.616C233.704 246.623 233.145 245.278 233.143 243.874V5.92389C233.147 4.52155 233.707 3.17814 234.7 2.18738C235.692 1.19661 237.036 0.6391 238.439 0.636719H401.763C403.165 0.6391 404.509 1.19661 405.502 2.18738C406.494 3.17814 407.054 4.52155 407.059 5.92389V243.874C407.056 245.278 406.498 246.623 405.505 247.616C404.512 248.609 403.166 249.167 401.763 249.17ZM238.439 0.862666C237.771 0.857901 237.108 0.985228 236.489 1.23733C235.871 1.48944 235.308 1.86135 234.833 2.33168C234.359 2.80202 233.982 3.3615 233.724 3.97797C233.467 4.59445 233.334 5.25576 233.332 5.92389V243.874C233.332 245.218 233.867 246.508 234.817 247.459C235.768 248.41 237.058 248.944 238.403 248.944H401.763C403.107 248.944 404.397 248.41 405.348 247.459C406.299 246.508 406.833 245.218 406.833 243.874V5.92389C406.833 4.57917 406.299 3.28953 405.348 2.33867C404.397 1.38782 403.107 0.853626 401.763 0.853626L238.439 0.862666Z" fill="#F0F0F0"/>
<path d="M213.387 249.171H50.0267C48.6228 249.169 47.277 248.61 46.2843 247.617C45.2916 246.624 44.7329 245.279 44.7305 243.875V5.92511C44.7329 4.52121 45.2916 3.17548 46.2843 2.18277C47.277 1.19006 48.6228 0.631296 50.0267 0.628906H213.387C214.791 0.631296 216.136 1.19006 217.129 2.18277C218.122 3.17548 218.68 4.52121 218.683 5.92511V243.875C218.68 245.279 218.122 246.624 217.129 247.617C216.136 248.61 214.791 249.169 213.387 249.171ZM50.0267 0.863893C48.6835 0.863891 47.3953 1.39684 46.4447 2.34574C45.4941 3.29465 44.9588 4.58196 44.9564 5.92511V243.875C44.9564 245.22 45.4906 246.509 46.4415 247.46C47.3923 248.411 48.682 248.945 50.0267 248.945H213.387C214.731 248.945 216.021 248.411 216.972 247.46C217.923 246.509 218.457 245.22 218.457 243.875V5.92511C218.457 4.5804 217.923 3.29076 216.972 2.3399C216.021 1.38904 214.731 0.854854 213.387 0.854854L50.0267 0.863893Z" fill="#F0F0F0"/>
<path d="M452.448 304.367H0.552734V304.593H452.448V304.367Z" fill="#E0E0E0"/>
<path d="M163.623 23.5938L192.156 23.5938C192.905 23.5938 193.512 22.9868 193.512 22.2381V15.794C193.512 15.0453 192.905 14.4384 192.156 14.4384L163.623 14.4384C162.875 14.4384 162.268 15.0453 162.268 15.794V22.2381C162.268 22.9868 162.875 23.5938 163.623 23.5938Z" fill="#F0F0F0"/>
<path d="M146.578 35.2617L175.111 35.2617C175.86 35.2617 176.467 34.6548 176.467 33.906V27.462C176.467 26.7133 175.86 26.1063 175.111 26.1063L146.578 26.1063C145.83 26.1063 145.223 26.7133 145.223 27.462V33.906C145.223 34.6548 145.83 35.2617 146.578 35.2617Z" fill="#F0F0F0"/>
<path d="M87.9215 184.09H59.3889C58.6402 184.09 58.0332 184.697 58.0332 185.446V191.89C58.0332 192.638 58.6402 193.245 59.3889 193.245H87.9215C88.6702 193.245 89.2772 192.638 89.2772 191.89V185.446C89.2772 184.697 88.6702 184.09 87.9215 184.09Z" fill="#F0F0F0"/>
<path d="M104.968 195.758H76.4358C75.687 195.758 75.0801 196.365 75.0801 197.113V203.558C75.0801 204.306 75.687 204.913 76.4358 204.913H104.968C105.717 204.913 106.324 204.306 106.324 203.558V197.113C106.324 196.365 105.717 195.758 104.968 195.758Z" fill="#F0F0F0"/>
<path d="M282.291 13.1836H253.758C253.009 13.1836 252.402 13.7906 252.402 14.5393V20.9833C252.402 21.732 253.009 22.339 253.758 22.339H282.291C283.039 22.339 283.646 21.732 283.646 20.9833V14.5393C283.646 13.7906 283.039 13.1836 282.291 13.1836Z" fill="#F0F0F0"/>
<path d="M316.373 13.1836H287.84C287.091 13.1836 286.484 13.7906 286.484 14.5393V20.9833C286.484 21.732 287.091 22.339 287.84 22.339H316.373C317.121 22.339 317.728 21.732 317.728 20.9833V14.5393C317.728 13.7906 317.121 13.1836 316.373 13.1836Z" fill="#F0F0F0"/>
<path d="M299.328 24.8516H270.795C270.046 24.8516 269.439 25.4585 269.439 26.2072V32.6513C269.439 33.4 270.046 34.0069 270.795 34.0069H299.328C300.077 34.0069 300.683 33.4 300.683 32.6513V26.2072C300.683 25.4585 300.077 24.8516 299.328 24.8516Z" fill="#F0F0F0"/>
<path d="M396.576 16.3008H333.021V170.713H396.576V16.3008Z" fill="#F0F0F0"/>
<path d="M392.698 20.1758H336.898V166.834H392.698V20.1758Z" fill="#FAFAFA"/>
<path d="M392.698 26.4609V37.5324L336.898 93.3414V82.2609L392.698 26.4609Z" fill="white"/>
<path d="M392.698 64.7539V80.3714L336.898 136.171V120.545L392.698 64.7539Z" fill="white"/>
<path d="M366.722 16.3008H362.881V170.713H366.722V16.3008Z" fill="#F0F0F0"/>
<path d="M396.576 91.5312H333.021V95.4718H396.576V91.5312Z" fill="#F0F0F0"/>
<path d="M121.588 16.3008H58.0332V170.713H121.588V16.3008Z" fill="#F0F0F0"/>
<path d="M117.71 20.1758H61.9102V166.834H117.71V20.1758Z" fill="#FAFAFA"/>
<path d="M117.71 26.4609V37.5324L61.9102 93.3414V82.2609L117.71 26.4609Z" fill="white"/>
<path d="M117.71 64.7539V80.3714L61.9102 136.171V120.545L117.71 64.7539Z" fill="white"/>
<path d="M91.7259 16.3008H87.8848V170.713H91.7259V16.3008Z" fill="#F0F0F0"/>
<path d="M121.588 91.5312H58.0332V95.4718H121.588V91.5312Z" fill="#F0F0F0"/>
<path d="M407.493 242.961L402.413 259.889L401.735 262.158L399.078 270.979C398.719 272.172 397.986 273.218 396.986 273.961C395.987 274.705 394.775 275.108 393.529 275.109H250.613C249.368 275.109 248.156 274.706 247.158 273.962C246.16 273.218 245.429 272.172 245.073 270.979L242.415 262.158L241.729 259.889L236.631 242.961C236.535 242.648 236.514 242.316 236.569 241.992C236.625 241.669 236.755 241.363 236.95 241.1C237.146 240.836 237.4 240.622 237.693 240.474C237.986 240.326 238.309 240.25 238.638 240.25H405.486C405.814 240.25 406.138 240.326 406.431 240.474C406.724 240.622 406.978 240.836 407.173 241.1C407.369 241.363 407.499 241.669 407.555 241.992C407.61 242.316 407.589 242.648 407.493 242.961Z" fill="#F0F0F0"/>
<path d="M402.413 259.844L401.735 262.112H242.415L241.729 259.844H402.413Z" fill="#E0E0E0"/>
<path d="M384.257 285.27H257.754V288.153H384.257V285.27Z" fill="#E0E0E0"/>
<path d="M263.864 275.062L246.33 304.363H253.967L275.739 275.062H263.864Z" fill="#E0E0E0"/>
<path d="M378.69 275.062L396.215 304.363H388.587L366.814 275.062H378.69Z" fill="#E0E0E0"/>
<path d="M375.256 223.269V203.982C375.256 203.924 375.245 203.866 375.222 203.812C375.2 203.759 375.167 203.71 375.126 203.669C375.085 203.628 375.036 203.595 374.983 203.573C374.929 203.551 374.871 203.539 374.813 203.539C374.695 203.539 374.581 203.585 374.497 203.668C374.412 203.751 374.364 203.864 374.361 203.982V223.269H375.256Z" fill="#E0E0E0"/>
<path d="M362.89 225.357L363.324 226.939L363.415 227.282L366.912 240.27H382.711L386.208 227.282L386.299 226.939L386.723 225.357L386.823 225.023L387.293 223.27H362.33L362.8 225.023L362.89 225.357Z" fill="#E0E0E0"/>
<path d="M373.212 210.37C373.463 210.43 373.726 210.415 373.968 210.324C374.209 210.234 374.418 210.074 374.568 209.864C374.669 209.719 374.743 209.556 374.785 209.385C374.794 209.292 374.794 209.198 374.785 209.105C374.783 208.804 374.677 208.514 374.487 208.282C372.779 206.212 364.12 196.198 360.026 200.383C355.182 205.444 368.477 209.213 373.212 210.37Z" fill="#F0F0F0"/>
<path d="M365.556 204.533L374.594 209.865C374.695 209.72 374.769 209.558 374.811 209.386L365.846 204.081C365.787 204.048 365.717 204.038 365.651 204.055C365.585 204.072 365.529 204.114 365.493 204.171C365.473 204.199 365.458 204.23 365.45 204.264C365.442 204.297 365.441 204.332 365.447 204.366C365.453 204.4 365.466 204.432 365.485 204.461C365.503 204.489 365.528 204.514 365.556 204.533Z" fill="#E0E0E0"/>
<path d="M374.811 214.068C374.802 214.159 374.802 214.249 374.811 214.34C374.848 214.513 374.922 214.677 375.028 214.819C375.178 215.029 375.387 215.189 375.629 215.279C375.87 215.369 376.133 215.385 376.384 215.325C381.111 214.168 394.415 210.399 389.507 205.383C385.449 201.189 376.791 211.203 375.046 213.273C374.881 213.504 374.798 213.784 374.811 214.068Z" fill="#F0F0F0"/>
<path d="M374.84 214.337C374.876 214.511 374.95 214.674 375.057 214.816L384.095 209.484C384.124 209.467 384.15 209.444 384.171 209.417C384.191 209.39 384.206 209.36 384.215 209.327C384.223 209.294 384.225 209.26 384.22 209.226C384.215 209.192 384.203 209.16 384.185 209.131C384.151 209.072 384.095 209.028 384.029 209.01C383.963 208.991 383.893 208.999 383.833 209.032L374.84 214.337Z" fill="#E0E0E0"/>
<path d="M373.827 203.908C373.862 204.207 374 204.485 374.216 204.695C374.284 204.757 374.356 204.815 374.433 204.866C374.584 204.958 374.754 205.017 374.93 205.038C375.185 205.076 375.446 205.036 375.678 204.923C375.91 204.81 376.103 204.63 376.231 204.405C378.662 200.185 385.106 187.957 378.039 188.02C372.2 188.065 373.502 201.242 373.827 203.908Z" fill="#F0F0F0"/>
<path d="M374.432 204.868C374.583 204.959 374.753 205.018 374.929 205.039L377.288 194.818C377.301 194.749 377.288 194.679 377.251 194.62C377.214 194.561 377.156 194.518 377.089 194.501C377.022 194.488 376.952 194.501 376.895 194.538C376.837 194.575 376.797 194.633 376.781 194.7L374.432 204.868Z" fill="#E0E0E0"/>
<path d="M373.211 221.029C373.462 221.093 373.726 221.079 373.969 220.989C374.211 220.898 374.42 220.736 374.567 220.523C374.731 220.308 374.817 220.043 374.811 219.773C374.81 219.472 374.705 219.181 374.513 218.95C372.805 216.88 364.146 206.866 360.052 211.051C355.181 216.085 368.476 219.854 373.211 221.029Z" fill="#F0F0F0"/>
<path d="M365.557 215.172L374.595 220.495C374.696 220.353 374.77 220.194 374.812 220.025L365.82 214.702C365.791 214.684 365.758 214.672 365.725 214.667C365.691 214.662 365.657 214.664 365.624 214.672C365.591 214.68 365.56 214.695 365.533 214.716C365.506 214.737 365.484 214.762 365.467 214.792C365.445 214.822 365.429 214.856 365.421 214.893C365.414 214.929 365.414 214.967 365.423 215.003C365.432 215.039 365.448 215.073 365.471 215.102C365.495 215.131 365.524 215.155 365.557 215.172Z" fill="#E0E0E0"/>
<path d="M423.245 343.944C423.245 347.107 335.947 349.674 228.261 349.674C120.574 349.674 33.2773 347.125 33.2773 343.944C33.2773 340.762 120.574 338.223 228.261 338.223C335.947 338.223 423.245 340.798 423.245 343.944Z" fill="#F5F5F5"/>
<path d="M280.048 132.051H152.008C131.034 132.051 114.031 149.052 114.031 170.024C114.031 190.995 131.034 207.996 152.008 207.996H280.048C301.023 207.996 318.026 190.995 318.026 170.024C318.026 149.052 301.023 132.051 280.048 132.051Z" fill="#00CDB4"/>
<path opacity="0.7" d="M280.048 132.051H152.008C131.034 132.051 114.031 149.052 114.031 170.024C114.031 190.995 131.034 207.996 152.008 207.996H280.048C301.023 207.996 318.026 190.995 318.026 170.024C318.026 149.052 301.023 132.051 280.048 132.051Z" fill="white"/>
<path opacity="0.3" d="M152 205.285C142.651 205.285 133.686 201.571 127.076 194.961C120.466 188.351 116.752 179.385 116.752 170.037C116.752 160.689 120.466 151.723 127.076 145.113C133.686 138.503 142.651 134.789 152 134.789H280.013C284.641 134.789 289.225 135.701 293.501 137.472C297.778 139.244 301.663 141.84 304.936 145.113C308.21 148.386 310.806 152.272 312.577 156.548C314.349 160.825 315.26 165.408 315.26 170.037C315.26 174.666 314.349 179.249 312.577 183.526C310.806 187.802 308.21 191.688 304.936 194.961C301.663 198.234 297.778 200.83 293.501 202.602C289.225 204.373 284.641 205.285 280.013 205.285H152Z" fill="white"/>
<path d="M280.011 204.155C298.864 204.155 314.147 188.872 314.147 170.019C314.147 151.166 298.864 135.883 280.011 135.883C261.158 135.883 245.875 151.166 245.875 170.019C245.875 188.872 261.158 204.155 280.011 204.155Z" fill="#00CDB4"/>
<path d="M295.115 179.824C295.462 180.172 295.738 180.585 295.927 181.039C296.115 181.494 296.212 181.981 296.212 182.473C296.212 182.964 296.115 183.451 295.927 183.906C295.738 184.36 295.462 184.773 295.115 185.121C294.767 185.468 294.354 185.744 293.9 185.932C293.445 186.121 292.958 186.217 292.467 186.217C291.975 186.217 291.488 186.121 291.034 185.932C290.579 185.744 290.166 185.468 289.819 185.121L280.012 175.315L270.215 185.121C269.868 185.468 269.455 185.744 269 185.932C268.546 186.121 268.059 186.217 267.567 186.217C267.075 186.217 266.588 186.121 266.134 185.932C265.68 185.744 265.267 185.468 264.919 185.121C264.571 184.773 264.296 184.36 264.107 183.906C263.919 183.451 263.822 182.964 263.822 182.473C263.822 181.981 263.919 181.494 264.107 181.039C264.296 180.585 264.571 180.172 264.919 179.824L274.716 170.027L264.919 160.221C264.217 159.519 263.822 158.566 263.822 157.573C263.822 156.58 264.217 155.627 264.919 154.925C265.621 154.223 266.574 153.828 267.567 153.828C268.56 153.828 269.513 154.223 270.215 154.925L280.012 164.731L289.819 154.925C290.521 154.223 291.473 153.828 292.467 153.828C293.46 153.828 294.412 154.223 295.115 154.925C295.817 155.627 296.212 156.58 296.212 157.573C296.212 158.566 295.817 159.519 295.115 160.221L285.318 170.027L295.115 179.824Z" fill="white"/>
<path d="M280.05 47.3906H152.01C131.036 47.3906 114.033 64.3916 114.033 85.3634C114.033 106.335 131.036 123.336 152.01 123.336H280.05C301.025 123.336 318.028 106.335 318.028 85.3634C318.028 64.3916 301.025 47.3906 280.05 47.3906Z" fill="#00CDB4"/>
<path opacity="0.2" d="M152.002 120.624C142.653 120.624 133.688 116.911 127.078 110.301C120.468 103.69 116.754 94.725 116.754 85.3767C116.754 76.0284 120.468 67.063 127.078 60.4527C133.688 53.8425 142.653 50.1289 152.002 50.1289H280.014C289.363 50.1289 298.328 53.8425 304.938 60.4527C311.549 67.063 315.262 76.0284 315.262 85.3767C315.262 94.725 311.549 103.69 304.938 110.301C298.328 116.911 289.363 120.624 280.014 120.624H152.002Z" fill="black"/>
<path d="M189.011 119.503C207.864 119.503 223.147 104.219 223.147 85.3666C223.147 66.5137 207.864 51.2305 189.011 51.2305C170.158 51.2305 154.875 66.5137 154.875 85.3666C154.875 104.219 170.158 119.503 189.011 119.503Z" fill="#00CDB4"/>
<path opacity="0.7" d="M189.011 119.503C207.864 119.503 223.147 104.219 223.147 85.3666C223.147 66.5137 207.864 51.2305 189.011 51.2305C170.158 51.2305 154.875 66.5137 154.875 85.3666C154.875 104.219 170.158 119.503 189.011 119.503Z" fill="white"/>
<path d="M183.047 97.2989C182.222 97.2977 181.43 96.9732 180.842 96.3952L172.382 87.9357C172.093 87.6467 171.864 87.3036 171.708 86.926C171.551 86.5484 171.471 86.1437 171.471 85.7349C171.471 85.3262 171.551 84.9215 171.708 84.5439C171.864 84.1663 172.093 83.8232 172.382 83.5342C172.671 83.2452 173.014 83.016 173.392 82.8596C173.77 82.7032 174.174 82.6226 174.583 82.6226C174.992 82.6226 175.396 82.7032 175.774 82.8596C176.152 83.016 176.495 83.2452 176.784 83.5342L183.047 89.7975L201.249 71.5952C201.833 71.0115 202.625 70.6836 203.45 70.6836C204.275 70.6836 205.067 71.0115 205.651 71.5952C206.234 72.1788 206.562 72.9705 206.562 73.7959C206.562 74.6213 206.234 75.4129 205.651 75.9966L185.243 96.3952C184.659 96.9743 183.87 97.2992 183.047 97.2989Z" fill="white"/>
<path d="M136.138 338.773H123.566V344.413H136.138V338.773Z" fill="#263238"/>
<path d="M154.386 308.207L152.578 312.943L152.226 313.901L152.036 314.425L151.738 315.229L150.626 318.266L150.554 318.465L150.373 318.98L149.795 320.553L149.144 322.36L148.927 322.966V323.029L148.611 323.87L147.092 328.027L146.767 328.931L143.712 337.3L143.477 337.933L142.872 339.587C142.653 340.174 142.282 340.692 141.796 341.087C141.607 341.235 141.404 341.365 141.191 341.476C140.776 341.693 140.32 341.819 139.853 341.846H119.915C119.61 341.843 119.306 341.801 119.012 341.72C118.772 341.644 118.539 341.547 118.316 341.43C117.575 341.044 117 340.402 116.698 339.623L114.221 332.844L113.914 332.004L112.17 327.214L111.971 326.69L111.881 326.436L111.582 325.605L109.865 320.896L109.748 320.607L109.657 320.372L108.916 318.32L108.582 317.417L108.302 316.667L108.049 315.98L107.859 315.446L107.805 315.302L106.991 313.069V313.015L106.783 312.464L105.256 308.279L154.386 308.207Z" fill="#263238"/>
<path opacity="0.2" d="M152.616 312.941L152.263 313.899L152.073 314.424L151.784 315.228H107.779L106.965 312.996L106.947 312.941H152.616Z" fill="white"/>
<path opacity="0.2" d="M150.662 318.266L150.59 318.464L150.409 318.98L149.83 320.552H109.72L109.63 320.317L108.889 318.266H150.662Z" fill="white"/>
<path d="M114.357 287.557C114.357 287.557 121.28 285.035 123.07 292.365C124.859 299.694 129.993 297.788 130.96 296.197C132.876 293.025 133.138 281.583 129.848 280.887C125.917 280.064 115.74 284.222 114.357 287.557Z" fill="#00CDB4"/>
<g opacity="0.5">
<path d="M114.359 287.557C114.359 287.557 121.282 285.035 123.072 292.365C124.861 299.694 129.995 297.788 130.962 296.197C132.878 293.025 133.14 281.583 129.85 280.887C125.919 280.064 115.742 284.222 114.359 287.557Z" fill="black"/>
</g>
<path d="M118.478 278.498C118.478 278.498 111.482 276.248 108.88 283.568C106.277 290.889 108.88 308.874 108.88 308.874C108.88 308.874 114.908 306.986 116.86 300.804C118.812 294.622 118.613 281.011 129.847 280.848L118.478 278.498Z" fill="#00CDB4"/>
<path opacity="0.2" d="M119.908 278.932C113.834 282.474 112.849 289.976 112.234 296.329C112.234 296.655 112.722 296.655 112.75 296.329C113.346 290.175 114.259 282.818 120.17 279.383C120.224 279.346 120.261 279.289 120.276 279.225C120.29 279.161 120.28 279.094 120.247 279.037C120.214 278.98 120.16 278.938 120.098 278.918C120.035 278.899 119.967 278.903 119.908 278.932Z" fill="black"/>
<path d="M142.826 239.553C142.826 239.553 136.012 236.751 133.924 244.009C131.836 251.266 126.929 250.67 126.052 247.624C125.031 244.072 124.298 232.811 127.615 232.26C131.574 231.6 141.579 236.164 142.826 239.553Z" fill="#00CDB4"/>
<g opacity="0.5">
<path d="M142.826 239.557C142.826 239.557 136.012 236.755 133.924 244.013C131.836 251.27 126.929 250.674 126.052 247.628C125.031 244.076 124.298 232.815 127.615 232.263C131.574 231.604 141.579 236.168 142.826 239.557Z" fill="black"/>
</g>
<path d="M139.068 230.344C139.068 230.344 146.154 228.373 148.459 235.766C150.763 243.159 147.428 261.072 147.428 261.072C145.608 260.335 143.976 259.199 142.652 257.748C141.329 256.296 140.348 254.566 139.782 252.685C138.083 246.422 138.833 232.802 127.617 232.224L139.068 230.344Z" fill="#00CDB4"/>
<g opacity="0.2">
<path d="M137.051 231.042C143.513 236.067 144.579 244.653 145.375 252.235C145.375 252.561 145.926 252.57 145.89 252.235C145.085 244.526 143.983 235.787 137.412 230.671C137.159 230.472 136.789 230.834 137.051 231.042Z" fill="black"/>
</g>
<path d="M150.065 273.192C150.065 273.192 145.818 271.909 141.353 277.991C137.06 283.857 135.343 284.544 132.432 282.266C129.522 279.988 131.285 267.209 134.574 266.522C138.506 265.691 148.683 269.83 150.065 273.192Z" fill="#00CDB4"/>
<g opacity="0.5">
<path d="M150.065 273.192C150.065 273.192 145.818 271.909 141.353 277.991C137.06 283.857 135.343 284.544 132.432 282.266C129.522 279.988 131.285 267.209 134.574 266.522C138.506 265.691 148.683 269.83 150.065 273.192Z" fill="black"/>
</g>
<path d="M150.047 263.073C150.047 263.073 159.989 259.855 163.749 270.303C167.508 280.751 163.749 306.455 163.749 306.455C163.749 306.455 155.145 303.743 152.361 294.922C149.577 286.101 150.291 266.833 134.285 266.607C137.476 265.649 143.739 264.411 150.047 263.073Z" fill="#00CDB4"/>
<g opacity="0.2">
<path d="M147.291 264.182C151.286 266.3 154.631 269.463 156.968 273.335C159.305 277.206 160.546 281.64 160.558 286.162C160.57 286.222 160.602 286.276 160.649 286.315C160.696 286.354 160.755 286.376 160.816 286.376C160.877 286.376 160.936 286.354 160.983 286.315C161.03 286.276 161.062 286.222 161.073 286.162C161.056 281.547 159.786 277.023 157.399 273.074C155.011 269.125 151.595 265.898 147.517 263.739C147.218 263.585 146.956 264.028 147.254 264.182H147.291Z" fill="black"/>
</g>
<path d="M109.494 256.202C109.494 256.202 116.417 253.68 118.207 261.01C119.996 268.34 129.052 271.132 129.956 267.553C130.941 263.73 128.763 250.119 125.437 249.423C121.524 248.601 110.877 252.867 109.494 256.202Z" fill="#00CDB4"/>
<g opacity="0.5">
<path d="M109.496 256.202C109.496 256.202 116.419 253.68 118.209 261.01C119.998 268.34 129.054 271.132 129.958 267.553C130.943 263.73 128.765 250.119 125.439 249.423C121.526 248.601 110.879 252.867 109.496 256.202Z" fill="black"/>
</g>
<path d="M109.513 246.081C109.513 246.081 99.5714 242.863 95.8116 253.311C92.0519 263.759 95.8116 289.463 95.8116 289.463C95.8116 289.463 104.416 286.751 107.208 277.939C110.001 269.127 109.703 249.696 125.745 249.461L109.513 246.081Z" fill="#00CDB4"/>
<path opacity="0.2" d="M113.525 246.977C109.205 247.194 105.508 249.896 103.095 253.358C100.149 257.578 99.1457 262.793 98.1696 267.746C98.1063 268.071 98.6034 268.216 98.6667 267.891C99.5705 263.209 100.519 258.347 103.113 254.262C105.4 250.646 109.133 247.709 113.525 247.492C113.85 247.492 113.85 246.959 113.525 246.977Z" fill="black"/>
<path d="M129.287 308.207H131.041C135.46 289.489 132.487 269.443 129.143 255.787C126.998 246.848 124.089 238.109 120.448 229.667C120.408 229.555 120.345 229.453 120.264 229.366C120.182 229.28 120.083 229.211 119.973 229.165C119.863 229.119 119.745 229.096 119.626 229.098C119.507 229.1 119.39 229.126 119.281 229.176C119.173 229.226 119.077 229.297 118.998 229.386C118.919 229.476 118.859 229.58 118.822 229.693C118.786 229.807 118.774 229.926 118.786 230.045C118.798 230.163 118.835 230.278 118.894 230.381C122.496 238.735 125.375 247.383 127.498 256.23C130.806 269.832 133.761 289.715 129.287 308.207Z" fill="#00CDB4"/>
<path d="M320.829 321.184V336.882L314.484 337.389L311.375 322.684L320.829 321.184Z" fill="#FF8B7B"/>
<path d="M316.328 335.908C316.328 335.908 314.331 332.085 313.156 332.491C311.981 332.898 311.502 337.543 311.502 337.543C311.502 337.543 305.112 339.676 303.368 339.794C301.623 339.911 300.141 340.915 299.906 344.403H321.733C321.733 344.403 321.588 336.531 321.543 335.185C321.498 333.838 319.582 335.519 319.582 335.519L316.328 335.908Z" fill="#263238"/>
<path d="M321.444 338.176C321.055 338.392 320.715 338.684 320.443 339.036C320.171 339.388 319.974 339.791 319.863 340.222C319.752 340.652 319.73 341.101 319.798 341.54C319.867 341.979 320.024 342.4 320.26 342.776C320.276 342.794 320.288 342.815 320.295 342.837C320.301 342.86 320.303 342.884 320.3 342.907C320.297 342.931 320.288 342.953 320.276 342.973C320.263 342.993 320.246 343.01 320.226 343.022C320.206 343.035 320.183 343.043 320.16 343.046C320.137 343.049 320.113 343.047 320.09 343.04C320.068 343.033 320.047 343.021 320.029 343.005C320.012 342.989 319.998 342.97 319.989 342.948C319.728 342.536 319.552 342.076 319.473 341.594C319.394 341.113 319.414 340.621 319.53 340.147C319.647 339.673 319.858 339.228 320.151 338.838C320.444 338.448 320.814 338.121 321.236 337.878C321.417 337.76 321.625 338.068 321.444 338.176Z" fill="white"/>
<path d="M321.479 343.157L304.361 343.329L300.375 343.374C300.158 343.374 300.113 343.031 300.375 343.031L317.502 342.85L321.479 342.805C321.705 342.805 321.75 343.148 321.524 343.157H321.479Z" fill="white"/>
<path d="M312.442 338.917C311.539 337.851 310.246 337.543 309.261 338.357C309.098 338.483 308.891 338.185 309.053 338.049C310.174 337.146 311.71 337.525 312.723 338.745C312.876 338.926 312.596 339.098 312.442 338.917Z" fill="white"/>
<path d="M310.636 339.488C310.471 339.234 310.256 339.016 310.003 338.849C309.751 338.681 309.467 338.567 309.168 338.514C308.87 338.46 308.564 338.469 308.269 338.538C307.975 338.608 307.697 338.737 307.454 338.919C307.292 339.054 307.084 338.756 307.247 338.62C308.367 337.716 309.904 338.096 310.916 339.307C311.07 339.488 310.789 339.669 310.636 339.488Z" fill="white"/>
<path d="M308.774 340.049C308.607 339.796 308.391 339.579 308.137 339.412C307.883 339.245 307.599 339.132 307.3 339.079C307.001 339.027 306.694 339.036 306.399 339.107C306.104 339.177 305.826 339.307 305.583 339.489C305.421 339.624 305.213 339.326 305.375 339.191C306.496 338.287 308.033 338.666 309.045 339.877C309.198 340.058 308.918 340.23 308.774 340.049Z" fill="white"/>
<path d="M324.635 165.573C324.454 168.375 324.843 176.979 324.463 181.597C323.749 190.4 322.791 201.815 322.032 213.23C321.128 226.47 320.513 239.729 320.83 248.929C321.643 272.554 321.462 326.095 321.462 326.095H311.213C311.213 326.095 299.175 272.88 296.924 248.929C295.045 229.046 296.021 177.919 296.355 165.555L324.635 165.573Z" fill="#00CDB4"/>
<path opacity="0.3" d="M324.635 165.573C324.454 168.375 324.843 176.979 324.463 181.597C323.749 190.4 322.791 201.815 322.032 213.23C321.128 226.47 320.513 239.729 320.83 248.929C321.643 272.554 321.462 326.095 321.462 326.095H311.213C311.213 326.095 299.175 272.88 296.924 248.929C295.045 229.046 296.021 177.919 296.355 165.555L324.635 165.573Z" fill="white"/>
<path opacity="0.2" d="M324.462 181.595C323.748 190.398 322.79 201.813 322.031 213.227C316.987 198.297 321.669 175.738 321.669 175.738L324.462 181.595Z" fill="black"/>
<path d="M322.348 326.471H310.318L309.441 322.639L322.664 322.477L322.348 326.471Z" fill="#00CDB4"/>
<path d="M377.417 318.258L379.812 333.776L373.621 335.24L368.307 321.186L377.417 318.258Z" fill="#FF8B7B"/>
<path d="M375.21 333.494C375.21 333.494 372.661 330.015 371.595 330.602C370.528 331.189 370.691 335.844 370.691 335.844C370.691 335.844 364.699 338.935 362.954 339.315C361.21 339.694 359.936 340.923 360.243 344.403L381.808 341.077C381.808 341.077 380.461 333.313 380.217 331.985C379.973 330.656 378.328 332.617 378.328 332.617L375.21 333.494Z" fill="#263238"/>
<path d="M380.623 334.948C380.271 335.22 379.977 335.561 379.762 335.95C379.546 336.339 379.412 336.768 379.368 337.21C379.323 337.653 379.37 338.1 379.506 338.524C379.641 338.948 379.861 339.34 380.153 339.675C380.298 339.865 380.054 340.082 379.9 339.892C379.578 339.525 379.334 339.096 379.182 338.632C379.031 338.167 378.975 337.677 379.018 337.191C379.061 336.704 379.202 336.231 379.433 335.801C379.664 335.371 379.98 334.991 380.361 334.686C380.524 334.551 380.777 334.813 380.623 334.948Z" fill="white"/>
<path d="M381.411 339.866L364.519 342.658L360.596 343.309C360.37 343.309 360.28 343.002 360.497 342.966L377.389 340.182L381.311 339.531C381.537 339.531 381.627 339.829 381.411 339.866Z" fill="white"/>
<path d="M371.839 337.056C371.636 336.832 371.389 336.651 371.113 336.526C370.837 336.4 370.538 336.332 370.235 336.326C369.932 336.32 369.631 336.376 369.351 336.491C369.07 336.606 368.816 336.777 368.604 336.993C368.468 337.147 368.206 336.885 368.351 336.731C369.318 335.646 370.89 335.827 372.084 336.848C372.264 337.002 372.011 337.219 371.839 337.056Z" fill="white"/>
<path d="M370.14 337.897C369.937 337.672 369.691 337.491 369.415 337.365C369.14 337.238 368.841 337.17 368.538 337.163C368.235 337.156 367.934 337.211 367.653 337.325C367.372 337.439 367.117 337.609 366.905 337.825C366.769 337.988 366.507 337.717 366.652 337.563C367.619 336.478 369.191 336.659 370.384 337.681C370.565 337.843 370.312 338.051 370.14 337.897Z" fill="white"/>
<path d="M368.379 338.745C368.176 338.519 367.93 338.336 367.654 338.209C367.379 338.082 367.08 338.013 366.776 338.006C366.473 337.999 366.171 338.055 365.89 338.17C365.609 338.284 365.355 338.456 365.143 338.673C365.007 338.826 364.745 338.564 364.89 338.411C365.857 337.326 367.439 337.507 368.623 338.528C368.803 338.682 368.55 338.899 368.379 338.745Z" fill="white"/>
<path d="M341.318 251.013C347.645 274.214 368.947 324.401 368.947 324.401L379.042 322.639C379.042 322.639 368.522 270.427 363.678 247.299C359.304 226.421 354.495 178.475 352.941 164.195L319.049 167.25C320.856 179.478 336.058 231.763 341.318 251.013Z" fill="#00CDB4"/>
<path opacity="0.3" d="M341.318 251.013C347.645 274.214 368.947 324.401 368.947 324.401L379.042 322.639C379.042 322.639 368.522 270.427 363.678 247.299C359.304 226.421 354.495 178.475 352.941 164.195L319.049 167.25C320.856 179.478 336.058 231.763 341.318 251.013Z" fill="white"/>
<path d="M379.983 322.86L368.135 324.92L366.607 321.296L379.812 318.883L379.983 322.86Z" fill="#00CDB4"/>
<path d="M354.921 164.199C354.903 165.011 354.599 165.791 354.061 166.4C353.523 167.009 352.787 167.407 351.983 167.524L297.91 170.019C296.328 170.091 294.475 169.007 294.52 167.425C295.063 148.771 299.41 84.5928 300.847 80.5438C302.654 75.573 312.659 73.7835 317.034 73.3858C323.937 72.9235 330.863 72.9235 337.767 73.3858C341.138 73.5485 344.211 73.8467 346.759 74.163C347.679 74.2753 348.566 74.5719 349.368 75.0349C350.17 75.498 350.87 76.118 351.427 76.858C351.984 77.5979 352.386 78.4426 352.609 79.3414C352.832 80.2403 352.871 81.1749 352.724 82.0893C351.593 89.2164 350.853 96.4003 350.51 103.609L350.456 104.648C350.338 107.079 350.23 109.483 350.221 111.878C350.221 112.348 350.221 112.827 350.221 113.297C350.51 137.428 353.592 149.259 354.921 164.199Z" fill="#263238"/>
<path opacity="0.2" d="M350.51 103.608L350.456 104.647C350.338 107.078 350.23 109.482 350.221 111.878L339.818 91.4609L350.51 103.608Z" fill="black"/>
<path d="M320.684 36.844C320.684 36.844 311.312 32.4245 307.434 34.6116C304.389 36.3289 306.422 39.8627 306.422 39.8627C306.422 39.8627 300.701 40.0434 300.701 43.6586C300.696 44.493 301.014 45.297 301.588 45.902C302.163 46.507 302.95 46.8658 303.783 46.9032C303.783 46.9032 301.75 50.3918 303.982 51.1962C306.214 52.0006 308.826 47.3912 308.826 47.3912L320.684 36.844Z" fill="#263238"/>
<path d="M330.628 54.9727C330.628 54.9727 333.095 58.5426 332.598 59.4916C331.857 60.9738 329.887 59.2928 329.887 59.2928C329.887 59.2928 331.694 61.724 329.887 62.9079C328.079 64.0919 326.949 58.145 326.949 58.145L330.628 54.9727Z" fill="#263238"/>
<path d="M316.463 37.2665C318.376 36.7746 320.368 36.6812 322.318 36.9922C324.268 37.3032 326.133 38.0118 327.797 39.0741C329.975 40.5021 331.783 42.5266 331.457 45.2741C330.689 51.6729 327.842 62.2021 327.842 62.2021L307.227 49.6304C307.227 49.6304 306.323 44.2076 308.944 40.8636C310.291 39.1193 313.607 37.9715 316.463 37.2665Z" fill="#263238"/>
<path d="M317.566 69.2367V69.3181L318.57 72.9965C318.657 73.7374 318.672 74.485 318.615 75.2288C318.574 75.8366 318.489 76.4407 318.362 77.0364C317.557 78.1481 317.187 80.6516 320.07 80.6516C323.685 80.6516 330.346 75.2831 330.572 73.6743C328.855 68.7125 327.409 62.9102 327.644 58.1562L323.522 62.6752L317.566 69.2367Z" fill="#FF8B7B"/>
<g opacity="0.2">
<path d="M317.594 69.3268L318.597 73.0053C320.865 71.9478 323.233 69.6974 323.758 67.2662C324.128 65.5129 323.333 63.886 322.619 63.8047L317.594 69.3268Z" fill="black"/>
</g>
<path d="M308.329 61.6619C308.546 62.4662 308.79 63.2525 309.061 64.0298C311.402 70.8986 319.907 71.459 325.139 66.3435C325.619 65.8793 326.06 65.3776 326.459 64.8432C329.776 60.4056 328.908 57.0164 328.348 49.3161C328.24 47.5224 327.675 45.7862 326.706 44.273C325.737 42.7597 324.397 41.5199 322.813 40.6717C321.229 39.8235 319.454 39.3951 317.657 39.4275C315.861 39.4599 314.102 39.9519 312.55 40.8566C306.16 44.5351 306.106 53.6543 308.329 61.6619Z" fill="#FF8B7B"/>
<path d="M313.391 62.9277H313.183C313.123 62.9209 313.067 62.8906 313.028 62.8433C312.989 62.7961 312.97 62.7356 312.975 62.6746C312.978 62.6441 312.986 62.6143 313 62.5871C313.014 62.5599 313.034 62.5358 313.057 62.5164C313.081 62.497 313.108 62.4825 313.138 62.474C313.167 62.4655 313.198 62.463 313.228 62.4668C313.677 62.5076 314.128 62.4568 314.556 62.3175C314.984 62.1783 315.379 61.9534 315.717 61.6567C316.055 61.3599 316.329 60.9975 316.523 60.5914C316.717 60.1853 316.826 59.744 316.844 59.2945C316.853 59.2336 316.885 59.1787 316.934 59.1415C316.983 59.1043 317.045 59.0879 317.106 59.0956C317.166 59.1066 317.219 59.1396 317.256 59.1881C317.293 59.2366 317.31 59.2971 317.305 59.3577C317.251 60.3471 316.81 61.2757 316.078 61.9435C315.346 62.6113 314.381 62.9647 313.391 62.9277Z" fill="#263238"/>
<path d="M328.459 50.0195C328.459 50.0195 326.136 50.1461 326.046 52.1344C325.955 54.1227 326.163 54.3848 326.163 54.3848L323.452 54.9723C323.452 54.9723 324.175 47.3805 322.178 47.4889C320.18 47.5974 322.331 44.172 321.129 43.684C318.282 42.5362 310.555 42.5 307.572 47.1636C307.572 47.1636 308.341 42.5723 311.992 40.0779C315.643 37.5834 323.027 37.0321 326.028 40.6382C329.028 44.2443 328.459 50.0195 328.459 50.0195Z" fill="#263238"/>
<path d="M332.333 53.9532C332.188 54.9031 331.857 55.8151 331.36 56.637C330.862 57.4589 330.207 58.1746 329.432 58.7433C327.354 60.2616 325.419 58.6077 325.257 56.1765C325.103 53.9893 326.007 50.573 328.456 50.0217C330.905 49.4704 332.668 51.5943 332.333 53.9532Z" fill="#FF8B7B"/>
<path d="M316.988 54.5298C317.069 55.1354 316.816 55.6686 316.427 55.7228C316.039 55.7771 315.65 55.3252 315.524 54.7287C315.397 54.1322 315.695 53.5899 316.093 53.5357C316.491 53.4814 316.87 53.9333 316.997 54.5298" fill="#263238"/>
<path d="M310.382 55.3438C310.463 55.9494 310.21 56.4826 309.812 56.5368C309.414 56.5911 309.035 56.1392 308.908 55.5427C308.782 54.9462 309.08 54.4039 309.478 54.3587C309.875 54.3135 310.255 54.7473 310.382 55.3438Z" fill="#263238"/>
<path d="M307.824 53.0487C307.878 53.0415 307.929 53.0201 307.972 52.9867C308.015 52.9534 308.048 52.9093 308.068 52.8589C308.134 52.6519 308.241 52.4607 308.385 52.2974C308.528 52.1341 308.703 52.0022 308.9 51.91C309.305 51.7598 309.751 51.7598 310.156 51.91C310.193 51.926 310.233 51.9345 310.274 51.935C310.315 51.9355 310.355 51.9279 310.393 51.9128C310.431 51.8977 310.465 51.8753 310.494 51.8469C310.523 51.8185 310.547 51.7847 310.563 51.7473C310.579 51.7099 310.587 51.6697 310.588 51.629C310.588 51.5884 310.581 51.548 310.565 51.5102C310.55 51.4725 310.528 51.438 310.5 51.4089C310.471 51.3798 310.437 51.3566 310.4 51.3406C309.84 51.1313 309.224 51.1313 308.665 51.3406C308.392 51.4614 308.147 51.638 307.946 51.859C307.745 52.08 307.593 52.3406 307.499 52.6239C307.483 52.6612 307.475 52.7013 307.475 52.7419C307.475 52.7824 307.483 52.8225 307.499 52.8597C307.515 52.8969 307.539 52.9305 307.568 52.9583C307.598 52.9862 307.632 53.0077 307.67 53.0216C307.718 53.0446 307.771 53.0539 307.824 53.0487Z" fill="#263238"/>
<path d="M318.443 51.8304C318.489 51.8218 318.532 51.8033 318.569 51.7761C318.636 51.7303 318.682 51.66 318.698 51.5805C318.713 51.5009 318.696 51.4186 318.651 51.3513C318.304 50.8659 317.794 50.5224 317.214 50.3843C316.918 50.3393 316.617 50.3554 316.327 50.4315C316.038 50.5077 315.768 50.6423 315.533 50.8271C315.494 50.8476 315.46 50.8761 315.433 50.9106C315.407 50.9452 315.388 50.9851 315.378 51.0276C315.367 51.0701 315.366 51.1144 315.375 51.1573C315.383 51.2002 315.4 51.2409 315.426 51.2765C315.451 51.3122 315.484 51.342 315.521 51.3641C315.559 51.3862 315.601 51.3999 315.645 51.4044C315.688 51.4089 315.732 51.4041 315.774 51.3903C315.815 51.3765 315.853 51.3539 315.885 51.3242C316.054 51.1896 316.248 51.0906 316.457 51.0332C316.665 50.9757 316.882 50.961 317.096 50.9898C317.519 51.0911 317.891 51.3414 318.145 51.6948C318.177 51.7425 318.222 51.7803 318.275 51.8042C318.327 51.8281 318.386 51.8371 318.443 51.8304Z" fill="#263238"/>
<path d="M312.922 54.1953C312.189 55.866 311.562 57.5804 311.042 59.3288C310.951 60.0338 313.202 60.0157 313.202 60.0157L312.922 54.1953Z" fill="#FF5652"/>
<path d="M352.372 77.324C356.656 83.036 360.75 88.8925 364.772 94.7943C366.796 97.7316 368.758 100.714 370.755 103.66L373.692 108.089L375.147 110.249L375.87 111.297L376.214 111.786L376.449 112.174L376.648 112.527L376.801 112.816L377.063 113.349L377.271 113.819C377.768 115.012 378.085 115.961 378.392 116.919C378.699 117.877 378.961 118.79 379.224 119.703C379.739 121.51 380.2 123.318 380.624 125.125C381.474 128.686 382.269 132.22 382.974 135.772C384.402 142.858 385.686 149.943 386.635 157.12C386.766 158.105 386.532 159.104 385.976 159.928C385.42 160.752 384.581 161.343 383.618 161.589C382.655 161.835 381.635 161.72 380.752 161.264C379.869 160.808 379.183 160.044 378.826 159.117C376.259 152.447 373.855 145.696 371.451 139.017C370.231 135.682 369.047 132.338 367.836 129.075C367.212 127.439 366.598 125.812 365.974 124.249C365.658 123.462 365.341 122.694 365.07 121.971C364.803 121.335 364.501 120.713 364.166 120.109C364.142 120.063 364.115 120.017 364.085 119.974C364.085 119.974 364.04 119.911 364.04 119.92V119.992L364.094 120.091C364.094 120.164 364.184 120.236 364.239 120.308V120.263L364.112 120.118L363.859 119.82L363.371 119.224L361.645 117.073L358.274 112.825C356.077 109.978 353.881 107.149 351.73 104.284C347.428 98.554 343.217 92.7698 339.204 86.8319C338.103 85.0823 337.71 82.9794 338.104 80.9504C338.498 78.9214 339.65 77.1186 341.325 75.9081C343.001 74.6977 345.074 74.1703 347.124 74.4333C349.174 74.6963 351.047 75.7299 352.363 77.324H352.372Z" fill="#263238"/>
<path d="M379.729 160.418C379.729 160.418 377.262 168.552 377.859 170.242C378.455 171.932 380.362 168.435 380.362 168.435L379.729 160.418Z" fill="#FF8B7B"/>
<path d="M386.887 158.313L390.277 165.896C391.09 168.083 384.248 172.222 381.239 170.659C378.835 169.403 379.63 160.048 379.63 160.048C380.625 159.22 381.797 158.633 383.056 158.332C384.315 158.031 385.626 158.025 386.887 158.313Z" fill="#FF8B7B"/>
<path d="M390.278 165.895C391.181 168.335 391.425 173.288 387.485 174.282C386.628 174.537 385.74 174.668 384.846 174.67C384.846 174.67 385.054 176.848 383.897 177.219C382.74 177.59 380.408 169.627 380.408 169.627L390.278 165.895Z" fill="#FF8B7B"/>
<path d="M311.024 91.9554C307.101 94.3414 303.133 96.5647 299.094 98.6976C297.774 99.3905 296.445 100.074 295.108 100.749C293.942 101.346 292.776 101.933 291.601 102.557C288.266 104.184 284.913 105.765 281.424 107.275C279.671 108.016 277.909 108.748 275.92 109.48C275.441 109.661 274.872 109.841 274.303 110.031L273.336 110.329L272.658 110.492L272.323 110.573H272.143L271.727 110.646C271.447 110.646 271.13 110.727 270.886 110.745H270.317C270.015 110.746 269.713 110.731 269.413 110.7C269.115 110.7 268.934 110.655 268.708 110.628L268.103 110.528C267.459 110.411 266.823 110.26 266.196 110.076C264.226 109.493 262.286 108.811 260.384 108.034C258.577 107.329 256.85 106.561 255.142 105.783C251.717 104.238 248.382 102.629 245.083 100.939C238.485 97.5769 232.032 94.0521 225.715 90.1659L228.363 84.2008C235.403 86.1892 242.381 88.3763 249.313 90.5274C252.783 91.5758 256.236 92.6513 259.652 93.6454L264.731 95.0553C266.304 95.4711 267.922 95.8597 269.25 96.0676H269.314C269.603 95.932 269.892 95.8055 270.217 95.6247C271.6 94.9559 273.146 94.1244 274.673 93.2839C277.755 91.6119 280.891 89.8495 284.027 88.0962C290.309 84.5804 296.68 81.0466 303.106 77.793L311.024 91.9554Z" fill="#263238"/>
<path opacity="0.2" d="M299.952 88.3047L299.147 98.4543L299.093 98.6983C297.774 99.3912 296.445 100.075 295.107 100.75L299.952 88.3047Z" fill="black"/>
<path d="M225.516 90.2239C228.119 90.6938 231.625 89.2478 229.755 84.5571C228.56 81.6303 227.202 78.7728 225.687 75.9982C224.431 73.576 219.162 72.5638 219.162 72.5638C219.162 72.5638 216.451 70.232 216.053 71.4973C215.655 72.7626 219.668 75.8717 220.138 76.7755C221.702 79.5953 223.31 82.4332 223.238 82.9393C223.166 83.4454 221.295 79.3965 219.623 79.053C217.951 78.7096 221.241 83.3551 221.566 85.2801C221.892 87.2052 224.305 89.9798 225.516 90.2239Z" fill="#FF8B7B"/>
<path opacity="0.2" d="M219.713 72.8046C221.555 73.9969 223.027 75.6813 223.961 77.667C224.033 77.8206 223.798 77.9652 223.726 77.8116C222.812 75.8699 221.376 74.2207 219.578 73.0486C219.433 72.9492 219.578 72.7052 219.713 72.8046Z" fill="black"/>
<path opacity="0.2" d="M223.979 76.3394C223.461 75.3601 222.725 74.5128 221.828 73.863C221.692 73.7546 221.882 73.5557 222.027 73.6642C222.938 74.3312 223.686 75.1965 224.214 76.1948C224.304 76.3575 224.06 76.5021 223.979 76.3394Z" fill="black"/>
</svg>
