<svg width="446" height="354" viewBox="0 0 446 354" fill="none" xmlns="http://www.w3.org/2000/svg">
<path d="M438.055 68.8378L431.087 102.587L426.601 98.2106L418.97 103.657L413.138 96.4121L400.061 105.922L388.884 87.2304L376.418 94.5336L371.474 87.7183L355.645 96.6379L350.883 86.4367L361.98 32.6934L421.468 44.9769L438.055 68.8378Z" fill="#EBEBEB"/>
<path d="M421.468 44.9766L438.055 68.8374L417.42 64.5779L421.468 44.9766Z" fill="#DBDBDB"/>
<path d="M429.6 109.329L419.385 158.842L339.254 142.299L349.397 93.1865L354.159 103.38L369.996 94.4608L374.932 101.276L387.405 93.9802L398.575 112.671L411.659 103.162L417.484 110.4L425.122 104.96L429.6 109.329Z" fill="#EBEBEB"/>
<path d="M314.913 103.526L233.253 108.579L226.766 3.75716L287.404 0L309.663 18.6766L314.913 103.526Z" fill="#EBEBEB"/>
<path d="M287.404 0L309.663 18.6766L288.635 19.9799L287.404 0Z" fill="#DBDBDB"/>
<path d="M264.795 70.5338L264.475 68.1673C263.652 63.267 264.992 57.7842 269.251 52.0538C273.096 46.9569 275.178 43.3162 274.945 39.1804C274.683 34.5204 271.589 31.5787 265.829 31.8117C262.538 31.9827 259.376 33.1509 256.764 35.1611L254.252 29.5327C257.164 27.1662 262.261 25.4187 267.103 25.1639C277.61 24.5814 282.722 30.7996 283.122 37.7387C283.472 43.9497 280.254 48.617 276.161 54.0707C272.404 59.0438 271.174 63.1432 271.705 67.7814L271.931 70.1551L264.795 70.5338ZM263.499 83.429C263.31 80.0504 265.458 77.5457 268.654 77.3709C271.851 77.1962 274.181 79.4388 274.37 82.8246C274.545 86.0211 272.586 88.5987 269.208 88.788C265.982 88.9701 263.652 86.6255 263.47 83.429H263.499Z" fill="#DBDBDB"/>
<path d="M60.5396 52.7022L52.3263 48.9814L51.1831 51.4935C51.0143 51.8525 50.7509 52.1587 50.4212 52.3794C50.0916 52.6 49.708 52.7267 49.3118 52.7459C48.8604 52.7607 48.4105 52.8045 47.9648 52.877C47.5735 52.9351 47.1738 52.8858 46.8083 52.7345C46.4428 52.5832 46.1253 52.3354 45.8896 52.0178L44.2804 49.7678L36.9481 55.0249L38.5573 57.2749C38.7811 57.5996 38.9128 57.9789 38.9385 58.3725C38.9641 58.766 38.8827 59.1592 38.7029 59.5102C38.4953 59.9107 38.3082 60.3214 38.1423 60.7408C37.998 61.1106 37.7557 61.4341 37.4414 61.6766C37.1271 61.9191 36.7527 62.0713 36.3583 62.1169L33.6133 62.3863L34.4943 71.3642L37.2539 71.0875C37.6497 71.0559 38.0466 71.1327 38.402 71.3098C38.7573 71.4868 39.0577 71.7574 39.2709 72.0923C39.3874 72.2817 39.5111 72.4637 39.6422 72.6457C39.7733 72.8278 39.9043 73.0025 40.0427 73.1773C40.2939 73.483 40.4555 73.8524 40.5095 74.2444C40.5635 74.6365 40.5078 75.0358 40.3485 75.3981L39.198 77.932L47.4187 81.66L48.5618 79.1334C48.7322 78.7747 48.9971 78.4692 49.3281 78.2498C49.6591 78.0305 50.0437 77.9054 50.4404 77.8883C50.8867 77.8699 51.3316 77.8261 51.7729 77.7572C52.1642 77.6991 52.5639 77.7483 52.9294 77.8997C53.2948 78.051 53.6124 78.2987 53.8481 78.6164L55.4572 80.8663L62.7968 75.6092L61.1876 73.3593C60.9569 73.0375 60.821 72.6575 60.7953 72.2624C60.7695 71.8673 60.855 71.4729 61.042 71.1239C61.2448 70.7258 61.4271 70.3175 61.5881 69.9007C61.7281 69.5281 61.9692 69.202 62.2844 68.9589C62.5995 68.7158 62.9761 68.5654 63.372 68.5245L66.1316 68.2478L65.2433 59.2699L62.4837 59.5394C62.0904 59.5739 61.6952 59.499 61.3418 59.323C60.9885 59.1469 60.6906 58.8766 60.4813 58.5418C60.3575 58.3525 60.2338 58.1705 60.1027 57.9884C59.9716 57.8064 59.8406 57.6244 59.7022 57.4569C59.4527 57.1474 59.2923 56.7757 59.2384 56.3818C59.1845 55.9878 59.2391 55.5867 59.3964 55.2215L60.5396 52.7022ZM55.8795 61.0102C56.731 62.1984 57.211 63.6124 57.2588 65.0735C57.3066 66.5345 56.92 67.9769 56.148 69.2182C55.376 70.4595 54.2532 71.444 52.9216 72.0471C51.59 72.6503 50.1095 72.845 48.6672 72.6067C47.225 72.3683 45.8858 71.7076 44.8191 70.7082C43.7523 69.7087 43.006 68.4153 42.6743 66.9916C42.3427 65.5679 42.4408 64.0779 42.956 62.7099C43.4713 61.3419 44.3807 60.1575 45.5692 59.3063C47.1625 58.1654 49.1437 57.7039 51.0772 58.0234C53.0106 58.3429 54.7381 59.4173 55.8795 61.0102Z" fill="#EBEBEB"/>
<path d="M431.813 171.825L426.338 174.985L427.306 176.66C427.451 176.9 427.523 177.177 427.514 177.457C427.505 177.737 427.415 178.009 427.255 178.24C427.088 178.502 426.928 178.771 426.782 179.055C426.662 179.306 426.473 179.518 426.237 179.665C426.001 179.812 425.728 179.889 425.45 179.885H423.527V186.213H425.464C425.742 186.209 426.016 186.286 426.252 186.433C426.488 186.58 426.677 186.791 426.797 187.043C426.942 187.327 427.102 187.596 427.27 187.858C427.43 188.089 427.519 188.36 427.528 188.641C427.538 188.921 427.465 189.198 427.321 189.438L426.352 191.113L431.828 194.273L432.804 192.591C432.945 192.352 433.15 192.158 433.396 192.029C433.641 191.901 433.918 191.843 434.194 191.863H435.126C435.403 191.844 435.679 191.902 435.925 192.03C436.17 192.159 436.375 192.353 436.517 192.591L437.493 194.28L442.961 191.12L441.993 189.438C441.855 189.197 441.787 188.921 441.798 188.644C441.808 188.366 441.896 188.096 442.051 187.865C442.218 187.603 442.379 187.327 442.524 187.05C442.644 186.799 442.833 186.587 443.069 186.44C443.305 186.293 443.579 186.217 443.857 186.22H445.794V179.892H443.842C443.564 179.896 443.291 179.819 443.055 179.672C442.818 179.525 442.629 179.314 442.51 179.062C442.364 178.786 442.204 178.509 442.036 178.247C441.881 178.016 441.793 177.747 441.783 177.469C441.773 177.191 441.84 176.916 441.978 176.674L442.947 174.992L437.478 171.832L436.503 173.492C436.361 173.731 436.156 173.925 435.911 174.054C435.665 174.182 435.388 174.24 435.112 174.22H434.646H434.18C433.903 174.239 433.625 174.181 433.379 174.052C433.132 173.924 432.926 173.73 432.782 173.492L431.813 171.825ZM434.646 177.868C435.672 177.867 436.675 178.17 437.529 178.739C438.383 179.308 439.048 180.118 439.441 181.065C439.835 182.013 439.938 183.056 439.738 184.062C439.538 185.068 439.045 185.993 438.319 186.718C437.594 187.444 436.669 187.938 435.663 188.138C434.656 188.337 433.613 188.234 432.666 187.841C431.718 187.447 430.909 186.782 430.34 185.928C429.77 185.075 429.467 184.071 429.469 183.045C429.468 182.365 429.601 181.691 429.861 181.062C430.121 180.433 430.502 179.861 430.983 179.38C431.463 178.898 432.034 178.516 432.663 178.256C433.292 177.995 433.965 177.861 434.646 177.861V177.868Z" fill="#EBEBEB"/>
<path d="M77.1558 25.7977L72.1389 29.6422L73.2967 31.1786C73.4694 31.3975 73.5756 31.6614 73.6027 31.9389C73.6298 32.2164 73.5766 32.4959 73.4496 32.7441C73.3103 33.0275 73.1887 33.3193 73.0855 33.6178C72.9958 33.8808 72.8344 34.1135 72.6196 34.2897C72.4047 34.466 72.145 34.5787 71.8695 34.6154L69.9473 34.8629L70.7628 41.1321L72.685 40.8846C72.9649 40.8456 73.25 40.8864 73.5076 41.0023C73.7653 41.1183 73.9849 41.3046 74.1413 41.5399C74.3166 41.7932 74.5063 42.0363 74.7093 42.268C74.8968 42.4743 75.0213 42.7301 75.0677 43.005C75.1142 43.28 75.0807 43.5625 74.9714 43.8189L74.2432 45.6101L80.0683 48.0348L80.7964 46.2436C80.9048 45.9867 81.083 45.7652 81.3107 45.6043C81.5385 45.4435 81.8068 45.3496 82.0852 45.3335L82.5512 45.2825L83.0099 45.2097C83.2794 45.1589 83.5576 45.1829 83.8144 45.2792C84.0711 45.3755 84.2966 45.5403 84.4662 45.7558L85.6531 47.3067L90.6699 43.4622L89.4976 41.9258C89.3283 41.7038 89.2243 41.439 89.1972 41.1612C89.1702 40.8833 89.2213 40.6034 89.3447 40.353C89.4827 40.0715 89.6043 39.7822 89.7088 39.4866C89.7985 39.2236 89.9599 38.9909 90.1747 38.8146C90.3895 38.6384 90.6493 38.5256 90.9247 38.489L92.847 38.2415L92.0315 31.9722L90.1092 32.2198C89.8301 32.2596 89.5455 32.2198 89.2879 32.1052C89.0303 31.9906 88.8103 31.8057 88.653 31.5718C88.4709 31.3096 88.2816 31.0621 88.0777 30.8436C87.9081 30.6329 87.7983 30.3804 87.7599 30.1127C87.7215 29.8449 87.7558 29.5718 87.8593 29.3218L88.5874 27.5306L82.7624 25.106L82.0343 26.8972C81.9245 27.1531 81.746 27.3737 81.5185 27.5344C81.291 27.695 81.0234 27.7895 80.7455 27.8073L80.2795 27.851L79.8499 27.8656C79.5804 27.9164 79.3022 27.8923 79.0454 27.796C78.7887 27.6997 78.5632 27.5349 78.3936 27.3195L77.1558 25.7977ZM80.7455 31.4261C81.7597 31.2958 82.7899 31.4687 83.706 31.9231C84.6221 32.3775 85.3831 33.0931 85.893 33.9795C86.4029 34.8659 86.6389 35.8835 86.5712 36.9039C86.5034 37.9242 86.135 38.9017 85.5124 39.7129C84.8898 40.5241 84.0408 41.1328 83.0727 41.4621C82.1045 41.7914 81.0606 41.8267 80.0724 41.5633C79.0843 41.3 78.1963 40.7499 77.5204 39.9825C76.8445 39.2151 76.4111 38.2647 76.2747 37.2512C76.1837 36.5749 76.2274 35.8872 76.4031 35.2278C76.5788 34.5684 76.8832 33.9502 77.2987 33.4089C77.7142 32.8675 78.2326 32.4137 78.8241 32.0734C79.4156 31.7331 80.0686 31.5131 80.7455 31.4261Z" fill="#EBEBEB"/>
<path d="M39.6714 190.079C39.945 183.04 39.8478 175.992 39.3802 168.963C38.3384 154.45 36.1249 140.044 32.7615 125.887C30.912 117.921 28.6403 110.086 26.2665 102.259C26.1937 102.019 25.8151 102.084 25.8806 102.332C33.2129 129.928 39.2273 158.398 38.8122 187.086C38.6957 195.096 37.7637 202.996 37.0065 210.976C37.0065 211.188 37.3341 211.275 37.3851 211.056C38.8923 204.205 39.3875 197.054 39.6714 190.079Z" fill="#EBEBEB"/>
<path d="M25.8803 102.31C25.8803 102.31 14.7835 130.488 17.2665 137.085C19.7494 143.682 24.8754 145.095 24.8754 145.095C24.8754 145.095 18.082 154.793 22.8294 163.888C27.5768 172.982 38.1202 172.552 38.8483 182.863C38.8265 182.914 39.409 139.801 25.8803 102.31Z" fill="#EBEBEB"/>
<path d="M37.6179 165.111C37.6358 165.064 37.6358 165.012 37.6179 164.965C36.1615 145.727 32.5517 126.713 26.8561 108.28C26.8561 108.229 26.7469 108.244 26.7615 108.28C28.9604 116.532 30.9021 124.818 32.5865 133.138C31.0947 131.725 29.2721 130.709 27.2857 130.182C27.2857 130.182 27.2275 130.226 27.2857 130.241C29.3725 131.005 31.2488 132.253 32.7613 133.881C33.0816 135.519 33.402 137.15 33.7006 138.789C31.2176 136.015 27.7808 134.638 24.3368 133.328C24.329 133.331 24.3223 133.337 24.3177 133.344C24.313 133.351 24.3105 133.359 24.3105 133.368C24.3105 133.376 24.313 133.385 24.3177 133.392C24.3223 133.399 24.329 133.404 24.3368 133.408C27.9265 134.864 31.4943 136.743 33.9263 139.837C34.7709 144.512 35.5136 149.203 36.1544 153.912C34.3616 152.034 32.0624 150.716 29.5356 150.118C29.4555 150.118 29.4119 150.213 29.4919 150.235C32.0876 150.999 34.4049 152.502 36.1616 154.56H36.2053C36.4238 156.211 36.6325 157.868 36.8315 159.533C35.4446 158.36 33.8787 157.416 32.1933 156.737C32.1496 156.737 32.1205 156.788 32.1933 156.803C33.9133 157.548 35.4883 158.59 36.8461 159.883C36.8461 159.883 36.8825 159.883 36.9043 159.883C37.0864 161.463 37.2684 163.043 37.4286 164.623C34.9283 161.6 31.6834 159.281 28.0138 157.895C27.9984 157.895 27.9836 157.901 27.9727 157.912C27.9617 157.923 27.9556 157.938 27.9556 157.953C27.9556 157.969 27.9617 157.983 27.9727 157.994C27.9836 158.005 27.9984 158.011 28.0138 158.011C31.6373 159.609 34.8202 162.059 37.2902 165.154C37.3174 165.188 37.3541 165.213 37.3956 165.226C37.4371 165.239 37.4816 165.24 37.5232 165.227C37.7635 167.652 37.982 170.077 38.1567 172.509C38.1567 172.545 38.215 172.545 38.215 172.509C38.0257 170.067 37.8266 167.601 37.6179 165.111Z" fill="white"/>
<path d="M28.6997 127.409C26.6901 126.158 24.3943 125.441 22.03 125.326C22.0184 125.326 22.0073 125.331 21.9991 125.339C21.9909 125.347 21.9863 125.358 21.9863 125.37C21.9863 125.381 21.9909 125.393 21.9991 125.401C22.0073 125.409 22.0184 125.414 22.03 125.414C24.3158 125.847 26.5341 126.582 28.6269 127.598C28.7143 127.62 28.7798 127.467 28.6997 127.409Z" fill="white"/>
<path d="M30.0462 157.24C28.5016 156.354 26.8009 155.773 25.0367 155.529C24.9784 155.529 24.9712 155.609 25.0367 155.624C26.7594 155.969 28.4258 156.553 29.988 157.357C30.0535 157.393 30.1118 157.277 30.0462 157.24Z" fill="white"/>
<path d="M68.8562 137.573C64.1618 140.818 59.8505 144.585 56.0047 148.801C52.0385 153.265 48.9793 158.458 46.9977 164.092C42.7802 175.828 40.5125 188.175 40.2843 200.644C40.1429 207.549 40.8051 214.447 42.2575 221.199C42.2693 221.248 42.2995 221.291 42.3419 221.318C42.3843 221.345 42.4356 221.356 42.4852 221.346C42.5348 221.337 42.5789 221.309 42.6083 221.268C42.6378 221.227 42.6504 221.176 42.6435 221.126C40.836 209.211 40.9048 197.087 42.8473 185.193C44.755 173.543 47.7476 160.859 55.16 151.386C59.1939 146.223 64.2253 142.167 69.1984 137.973C69.4605 137.74 69.1256 137.384 68.8562 137.573Z" fill="#EBEBEB"/>
<path d="M41.9141 192.242C44.5862 187.92 47.7264 183.905 51.2778 180.271C56.8335 174.716 61.5081 170.769 62.2362 167.099C62.9643 163.43 56.6733 160.721 56.6733 160.721C56.6733 160.721 64.3551 162.104 66.4594 158.879C68.5637 155.653 69.5758 136.969 69.5758 136.969C69.5758 136.969 55.5957 146.952 49.0789 160.947C42.5621 174.941 41.9141 192.242 41.9141 192.242Z" fill="#EBEBEB"/>
<path d="M64.5599 154.495C63.6393 154.358 62.7062 154.326 61.7784 154.4C61.6692 154.4 61.6765 154.59 61.7784 154.597C62.6959 154.597 63.6206 154.553 64.5381 154.597C64.5485 154.594 64.5581 154.589 64.5656 154.581C64.5731 154.573 64.5782 154.563 64.5805 154.553C64.5828 154.542 64.582 154.531 64.5784 154.521C64.5748 154.511 64.5684 154.502 64.5599 154.495Z" fill="white"/>
<path d="M54.5176 172.618C53.0413 172.648 51.582 172.939 50.207 173.477C50.207 173.477 50.207 173.55 50.207 173.543C51.6633 173.201 53.0686 173.062 54.5103 172.815C54.5291 172.807 54.5452 172.793 54.5568 172.776C54.5683 172.759 54.5749 172.739 54.5756 172.719C54.5764 172.698 54.5714 172.678 54.5611 172.66C54.5508 172.642 54.5357 172.628 54.5176 172.618Z" fill="white"/>
<path d="M51.5043 166.356C50.8914 166.351 50.2794 166.405 49.6766 166.516C49.6655 166.521 49.6559 166.528 49.6491 166.538C49.6423 166.548 49.6387 166.559 49.6387 166.571C49.6387 166.583 49.6423 166.595 49.6491 166.604C49.6559 166.614 49.6655 166.622 49.6766 166.626C50.287 166.661 50.8993 166.634 51.5043 166.546C51.5294 166.546 51.5534 166.536 51.5712 166.518C51.5889 166.5 51.5989 166.476 51.5989 166.451C51.5989 166.426 51.5889 166.402 51.5712 166.384C51.5534 166.366 51.5294 166.356 51.5043 166.356Z" fill="white"/>
<path d="M0.928829 157.393C5.47906 158.936 9.83939 160.99 13.926 163.517C18.1662 166.211 21.8432 169.703 24.7533 173.798C30.8761 182.321 35.5641 191.788 38.6315 201.824C40.3422 207.381 41.3979 213.118 41.777 218.92C41.7691 218.958 41.7484 218.991 41.7186 219.016C41.6888 219.04 41.6516 219.053 41.6132 219.053C41.5748 219.053 41.5376 219.04 41.5078 219.016C41.4779 218.991 41.4573 218.958 41.4494 218.92C40.1641 208.861 37.3091 199.065 32.9885 189.89C28.7435 180.897 23.3917 171.33 15.2075 165.373C10.7513 162.133 5.74178 160.007 0.746796 157.764C0.484669 157.677 0.666702 157.306 0.928829 157.393Z" fill="#EBEBEB"/>
<path d="M35.3685 195.409C32.2051 192.531 28.7354 190.008 25.0218 187.887C19.2404 184.676 14.5439 182.565 13.1095 179.761C11.6751 176.958 16.1385 173.317 16.1385 173.317C16.1385 173.317 10.2407 176.23 7.79416 174.082C5.34764 171.934 0.207031 157.08 0.207031 157.08C0.207031 157.08 13.8304 161.922 22.3277 171.745C30.825 181.567 35.3685 195.409 35.3685 195.409Z" fill="#EBEBEB"/>
<path d="M24.0606 181.734C22.7212 181.641 21.3763 181.807 20.0996 182.222C20.0996 182.222 20.0996 182.288 20.0996 182.28C21.4021 182.057 22.7181 181.921 24.0388 181.873C24.1335 181.873 24.1553 181.742 24.0606 181.734Z" fill="white"/>
<path d="M12.1776 166.153C11.5666 166.103 10.9516 166.137 10.35 166.255C10.2844 166.255 10.3063 166.371 10.35 166.364C10.9543 166.298 11.5441 166.32 12.1412 166.305C12.1597 166.306 12.1779 166.3 12.1927 166.289C12.2075 166.278 12.218 166.262 12.2223 166.244C12.2266 166.226 12.2244 166.207 12.2163 166.19C12.2081 166.174 12.1944 166.16 12.1776 166.153Z" fill="white"/>
<path d="M52.9384 237.698H22.1895L26.5728 205.58L27.6941 197.345H47.4338L48.5551 205.58L52.9384 237.698Z" fill="#DBDBDB"/>
<path d="M48.5546 205.58H26.5723L27.6936 197.345H47.4332L48.5546 205.58Z" fill="#C7C7C7"/>
<path d="M50.2518 194.491H24.8691V201.467H50.2518V194.491Z" fill="#DBDBDB"/>
<path d="M2.63867 237.699L57.984 237.524L113.329 237.459L224.02 237.335L334.71 237.459L390.056 237.524L445.401 237.699L390.056 237.881L334.71 237.939L224.02 238.063L113.329 237.939L57.984 237.874L2.63867 237.699Z" fill="#263238"/>
<path d="M225.476 291.966C340.784 291.966 434.26 281.723 434.26 269.088C434.26 256.453 340.784 246.21 225.476 246.21C110.167 246.21 16.6914 256.453 16.6914 269.088C16.6914 281.723 110.167 291.966 225.476 291.966Z" fill="#EBEBEB"/>
<path d="M176.874 265.302C175.178 265.878 126.531 266.03 124.667 264.88C123.939 264.443 123.524 257.358 123.211 248.781C123.146 246.932 123.095 245.017 123.051 243.08L119.17 217.129L151.696 216.918L154.761 242.876L154.637 248.584C154.637 248.584 173.292 256.849 175.2 258.349C177.107 259.849 178.571 264.727 176.874 265.302Z" fill="#EB9481"/>
<path d="M176.872 265.302C175.176 265.877 126.529 266.03 124.665 264.88C123.806 264.341 123.34 253.994 123.078 243.079L154.723 242.875L154.599 248.584C154.599 248.584 173.254 256.848 175.161 258.348C177.069 259.848 178.569 264.727 176.872 265.302Z" fill="white"/>
<path d="M176.872 265.302C175.176 265.878 126.529 266.031 124.665 264.88C123.937 264.443 123.522 257.358 123.209 248.781L154.57 248.584C154.57 248.584 173.224 256.849 175.132 258.349C177.04 259.849 178.569 264.727 176.872 265.302Z" fill="#A6A6A6"/>
<path d="M176.167 263.358C168.012 263.183 135.101 263.263 127.026 263.715C126.96 263.715 126.96 263.759 127.026 263.766C135.108 264.108 168.02 263.766 176.167 263.489C176.342 263.482 176.342 263.358 176.167 263.358Z" fill="#263238"/>
<path d="M172.025 256.608C171.118 256.587 170.217 256.755 169.378 257.101C168.54 257.447 167.782 257.963 167.153 258.617C166.008 259.784 165.36 261.351 165.348 262.986C165.348 263.037 165.435 263.037 165.442 262.986C165.713 261.375 166.498 259.895 167.679 258.766C168.86 257.638 170.374 256.921 171.995 256.724C172.011 256.728 172.027 256.726 172.041 256.717C172.055 256.709 172.064 256.696 172.068 256.68C172.072 256.665 172.07 256.649 172.062 256.635C172.053 256.621 172.04 256.611 172.025 256.608Z" fill="#263238"/>
<path d="M157.761 249.385C154.499 249.349 150.72 250.514 148.695 253.193C148.623 253.295 148.768 253.404 148.863 253.353C151.713 251.849 154.715 250.653 157.819 249.786C157.867 249.772 157.908 249.742 157.936 249.701C157.963 249.659 157.974 249.609 157.967 249.56C157.96 249.51 157.935 249.465 157.897 249.433C157.859 249.401 157.81 249.384 157.761 249.385Z" fill="#263238"/>
<path d="M160.293 250.354C157.024 250.354 153.245 251.49 151.228 254.162C151.148 254.271 151.294 254.381 151.396 254.33C154.242 252.82 157.242 251.621 160.344 250.754C160.392 250.741 160.433 250.712 160.46 250.671C160.487 250.63 160.499 250.581 160.493 250.532C160.487 250.483 160.463 250.439 160.426 250.406C160.39 250.373 160.343 250.355 160.293 250.354Z" fill="#263238"/>
<path d="M162.813 251.33C159.551 251.33 155.772 252.458 153.748 255.138C153.675 255.24 153.821 255.349 153.916 255.298C156.766 253.794 159.768 252.598 162.872 251.73C162.92 251.717 162.961 251.687 162.988 251.645C163.016 251.604 163.027 251.553 163.02 251.504C163.012 251.455 162.988 251.41 162.95 251.378C162.912 251.346 162.863 251.329 162.813 251.33Z" fill="#263238"/>
<path d="M165.34 252.305C162.07 252.269 158.291 253.434 156.274 256.113C156.194 256.215 156.347 256.324 156.442 256.273C159.291 254.768 162.294 253.572 165.398 252.706C165.446 252.692 165.487 252.662 165.515 252.621C165.542 252.579 165.553 252.529 165.546 252.48C165.539 252.43 165.514 252.385 165.476 252.353C165.438 252.321 165.389 252.304 165.34 252.305Z" fill="#263238"/>
<path d="M129.078 255.961C125.437 255.961 125.437 261.676 129.078 261.654C132.719 261.633 132.748 255.939 129.078 255.961Z" fill="#263238"/>
<path d="M161.261 240.662C159.609 239.293 157.526 240.662 156.514 242.067C154.829 244.551 153.825 247.433 153.602 250.426C153.602 250.492 153.653 250.521 153.703 250.521C153.716 250.582 153.744 250.64 153.784 250.689C153.824 250.737 153.875 250.776 153.932 250.801C153.99 250.826 154.053 250.837 154.116 250.832C154.179 250.828 154.24 250.808 154.293 250.776C156.609 249.166 159.288 247.725 161.043 245.446C162.041 244.12 162.856 241.936 161.261 240.662ZM157.286 247.608C156.165 248.431 155.007 249.196 153.915 250.062C154.497 248.431 155 246.785 155.742 245.213C156.085 244.459 156.479 243.729 156.922 243.028C157.65 241.943 160.825 239.206 161.16 242.752C161.349 244.696 158.618 246.632 157.286 247.608Z" fill="#263238"/>
<path d="M145.476 251.664C148.316 252.087 151.25 251.271 154.039 250.827C154.1 250.811 154.156 250.782 154.203 250.74C154.25 250.699 154.286 250.647 154.31 250.589C154.333 250.531 154.342 250.468 154.337 250.406C154.332 250.344 154.312 250.283 154.279 250.23C154.29 250.222 154.298 250.211 154.304 250.199C154.31 250.187 154.313 250.174 154.313 250.161C154.313 250.148 154.31 250.134 154.304 250.122C154.298 250.11 154.29 250.1 154.279 250.092C152.039 248.093 149.311 246.72 146.372 246.109C144.653 245.781 142.221 246.254 142.003 248.388C141.741 250.398 143.816 251.402 145.476 251.664ZM143.496 249.815C141.311 247.019 145.483 246.779 146.736 247.07C147.548 247.273 148.346 247.531 149.124 247.842C150.717 248.502 152.275 249.243 153.791 250.063C152.408 250.201 151.046 250.448 149.67 250.638C148.025 250.856 144.719 251.351 143.496 249.815Z" fill="#263238"/>
<path d="M71.3457 97.1836C71.3457 97.1836 109.114 161.434 110.126 165.948C111.677 172.88 119.898 241.332 119.898 241.332L159.217 240.604C159.217 240.604 152.445 180.249 146.03 160.364C141.414 146.041 108.08 98.5379 108.08 98.5379L71.3457 97.1836Z" fill="#37474F"/>
<path d="M155.642 234.604C149.998 234.56 129.997 234.335 122.482 235.034C122.424 235.034 122.431 235.136 122.482 235.143C125.067 235.514 149.991 234.939 155.634 234.757C155.646 234.761 155.659 234.763 155.671 234.761C155.684 234.76 155.695 234.755 155.706 234.748C155.716 234.741 155.725 234.732 155.731 234.721C155.737 234.71 155.741 234.698 155.741 234.685C155.742 234.673 155.74 234.66 155.735 234.649C155.729 234.638 155.722 234.627 155.712 234.62C155.702 234.612 155.691 234.606 155.679 234.603C155.666 234.601 155.654 234.601 155.642 234.604Z" fill="#263238"/>
<path d="M77.7897 103.081C80.2653 106.962 82.8866 110.763 85.4059 114.615C87.9253 118.467 90.4592 122.318 92.9566 126.163C97.9371 133.93 102.791 141.747 107.519 149.616C109.827 153.264 111.801 157.111 113.417 161.113C114.893 165.116 116.002 169.245 116.73 173.448C117.502 177.664 118.012 181.923 118.485 186.183C118.97 190.712 119.478 195.243 120.007 199.777C121.041 209.053 122.077 218.33 123.116 227.606C123.24 228.742 123.363 229.878 123.48 231.021C123.48 231.189 123.196 231.218 123.174 231.021C122.016 221.81 121.055 212.563 120.007 203.352C119.482 198.755 118.961 194.161 118.441 189.569C117.953 185.295 117.487 181.013 116.825 176.768C116.217 172.578 115.292 168.44 114.058 164.39C112.698 160.196 110.877 156.167 108.626 152.376C104.075 144.519 99.255 136.801 94.4348 129.076C89.6145 121.35 84.6632 113.559 79.5809 105.928C78.9547 104.989 78.3212 104.05 77.6659 103.125C77.6149 103.074 77.746 103.008 77.7897 103.081Z" fill="#263238"/>
<path d="M83.7235 269.088C81.9323 268.979 35.6668 250.237 34.3853 248.46C34.3283 248.356 34.303 248.237 34.3125 248.118C34.3125 246.523 37.5236 240.96 40.2031 233.65C40.3706 233.184 41.5647 231.014 43.2176 228.094C47.8121 220.092 55.8215 206.309 55.8215 206.309L86.0608 218.323L71.5856 239.985L69.3357 245.227C69.3357 245.227 83.5269 259.899 84.7211 261.974C85.9152 264.049 85.5075 269.19 83.7235 269.088Z" fill="#EB9481"/>
<path d="M83.7235 269.089C81.9323 268.979 35.6668 250.237 34.3853 248.461C34.3283 248.356 34.303 248.237 34.3125 248.118C34.3125 246.524 37.5236 240.961 40.2031 233.65C40.3706 233.184 41.5647 231.015 43.2176 228.095L71.6147 239.985L69.3648 245.228C69.3648 245.228 83.5561 259.9 84.7502 261.975C85.9443 264.05 85.5075 269.19 83.7235 269.089Z" fill="white"/>
<path d="M83.7228 269.089C81.9316 268.979 35.6661 250.237 34.3846 248.461C33.8895 247.783 35.9573 241.471 40.2096 233.65L69.3349 245.235C69.3349 245.235 83.5262 259.892 84.7276 261.982C85.929 264.072 85.5067 269.19 83.7228 269.089Z" fill="#A6A6A6"/>
<path d="M83.7963 267.02C76.3038 263.802 45.766 251.526 38.1133 248.919C38.0478 248.919 38.0332 248.919 38.1133 248.963C45.4747 252.312 76.1072 264.341 83.7672 267.166C83.9128 267.202 83.9565 267.086 83.7963 267.02Z" fill="#263238"/>
<path d="M82.4856 259.207C81.6548 258.842 80.7572 258.654 79.8498 258.654C78.9423 258.654 78.0447 258.842 77.2139 259.207C75.7201 259.861 74.5361 261.066 73.9082 262.571C73.9082 262.615 73.9737 262.651 73.9956 262.608C74.854 261.212 76.1417 260.131 77.6658 259.529C79.1899 258.926 80.8682 258.834 82.4492 259.266C82.4614 259.262 82.4719 259.254 82.4787 259.243C82.4854 259.233 82.4879 259.22 82.4856 259.207Z" fill="#263238"/>
<path d="M71.9789 247.164C68.9717 245.904 65.0252 245.569 62.1491 247.295C62.0399 247.36 62.1491 247.513 62.2438 247.506C65.45 247.181 68.6817 247.198 71.8842 247.557C71.9335 247.562 71.9831 247.549 72.0236 247.521C72.0641 247.492 72.0929 247.45 72.1045 247.402C72.1161 247.354 72.1098 247.303 72.0866 247.259C72.0635 247.215 72.0252 247.181 71.9789 247.164Z" fill="#263238"/>
<path d="M73.9516 249.014C70.9444 247.754 66.9979 247.419 64.1218 249.145C64.0126 249.21 64.1218 249.363 64.2164 249.356C67.4225 249.027 70.6546 249.044 73.8569 249.407C73.9062 249.412 73.9557 249.4 73.9963 249.371C74.0368 249.342 74.0656 249.3 74.0772 249.252C74.0888 249.204 74.0824 249.153 74.0593 249.109C74.0362 249.065 73.9979 249.031 73.9516 249.014Z" fill="#263238"/>
<path d="M75.9315 250.863C72.9171 249.604 68.9706 249.269 66.1018 250.994C65.9852 251.06 66.1018 251.213 66.1891 251.206C69.3951 250.877 72.6272 250.894 75.8296 251.257C75.8799 251.265 75.9315 251.254 75.9743 251.227C76.017 251.199 76.0479 251.156 76.0607 251.107C76.0734 251.057 76.0673 251.005 76.0434 250.96C76.0195 250.915 75.9796 250.88 75.9315 250.863Z" fill="#263238"/>
<path d="M77.9061 252.713C74.8917 251.453 70.9525 251.118 68.0764 252.836C67.9599 252.909 68.0764 253.062 68.1637 253.055C71.3697 252.726 74.6018 252.743 77.8042 253.106C77.8545 253.114 77.9061 253.103 77.9489 253.076C77.9916 253.048 78.0225 253.005 78.0353 252.956C78.048 252.906 78.0419 252.854 78.018 252.809C77.9941 252.764 77.9542 252.73 77.9061 252.713Z" fill="#263238"/>
<path d="M42.9201 242.497C39.5198 241.143 37.4082 246.436 40.8231 247.791C44.2381 249.145 46.3569 243.851 42.9201 242.497Z" fill="#263238"/>
<path d="M78.496 240.392C77.4693 238.507 75.0446 238.973 73.5665 239.912C71.0766 241.58 69.068 243.872 67.7415 246.56C67.7357 246.572 67.7326 246.585 67.7324 246.598C67.7323 246.611 67.7351 246.624 67.7407 246.636C67.7463 246.648 67.7546 246.658 67.7648 246.666C67.775 246.675 67.7869 246.681 67.7997 246.684C67.7997 246.924 67.9599 247.208 68.2439 247.15C71.0035 246.516 74.0253 246.188 76.5009 244.732C77.9208 243.888 79.4644 242.176 78.496 240.392ZM72.1977 245.337C70.8506 245.679 69.4963 245.955 68.1638 246.349C69.266 245.021 70.4349 243.75 71.6661 242.54C72.2722 241.963 72.9169 241.428 73.5957 240.939C74.6515 240.21 78.6416 238.863 77.6222 242.278C77.0616 244.164 73.8068 244.929 72.1977 245.337Z" fill="#263238"/>
<path d="M59.7316 244.667C62.2072 246.123 65.229 246.465 67.9813 247.106C68.2653 247.172 68.4546 246.888 68.4327 246.64C68.4464 246.639 68.4594 246.634 68.4706 246.626C68.4818 246.618 68.4908 246.607 68.4966 246.595C68.5025 246.582 68.505 246.568 68.504 246.555C68.5031 246.541 68.4986 246.528 68.491 246.516C67.1665 243.824 65.1578 241.526 62.6659 239.854C61.2097 238.907 58.7704 238.434 57.7365 240.313C56.7025 242.191 58.2826 243.815 59.7316 244.667ZM58.5957 242.206C57.5836 238.791 61.5665 240.145 62.6222 240.881C63.3002 241.371 63.9426 241.909 64.5445 242.49C65.7734 243.702 66.9399 244.975 68.0395 246.305C66.7071 245.912 65.3527 245.628 64.0057 245.286C62.3747 244.849 59.1491 244.121 58.5957 242.206Z" fill="#263238"/>
<path d="M73.9368 238.777L40.0859 225.109C40.0859 225.109 82.0554 163.4 82.3613 158.806C82.6379 154.743 64.2017 119.341 63.4808 109.023C62.6944 97.8831 68.0535 89.2692 73.9513 83.9175L108.865 98.7641C108.865 98.7641 105.181 104.655 99.3995 107.939C99.3995 107.939 117.304 148.86 116.285 161.442C115.266 174.024 73.9368 238.777 73.9368 238.777Z" fill="#37474F"/>
<path d="M75.4364 232.34C70.5433 230.236 71.9777 230.767 67.0556 228.699C64.6527 227.694 48.8523 221.119 46.4203 220.573C46.3694 220.573 46.333 220.646 46.3839 220.675C48.4882 221.964 64.4197 228.262 66.8444 229.223C71.803 231.175 70.3977 230.563 75.3781 232.456C75.3856 232.466 75.3954 232.474 75.4068 232.479C75.4181 232.484 75.4306 232.486 75.4429 232.485C75.4553 232.484 75.4671 232.48 75.4774 232.473C75.4877 232.466 75.496 232.456 75.5015 232.445C75.5071 232.434 75.5097 232.422 75.5091 232.409C75.5086 232.397 75.5048 232.385 75.4983 232.374C75.4918 232.364 75.4827 232.355 75.4718 232.349C75.461 232.343 75.4488 232.34 75.4364 232.34Z" fill="#263238"/>
<path d="M105.124 107.189C101.489 108.036 97.9327 109.191 94.4932 110.64C94.4794 110.645 94.4666 110.652 94.4556 110.662C94.4446 110.672 94.4357 110.684 94.4293 110.697C94.4228 110.71 94.4191 110.724 94.4182 110.739C94.4173 110.753 94.4193 110.768 94.4241 110.782C94.4289 110.796 94.4363 110.809 94.446 110.82C94.4558 110.831 94.4676 110.84 94.4807 110.846C94.4939 110.852 94.5083 110.856 94.5229 110.857C94.5375 110.858 94.5522 110.856 94.5661 110.851C98.1339 109.81 101.76 108.834 105.27 107.604C105.539 107.509 105.401 107.13 105.124 107.189Z" fill="#263238"/>
<path d="M100.966 105.776C100.626 106.379 100.327 107.005 100.07 107.647C99.8187 108.135 99.663 108.666 99.6113 109.213C99.6113 109.322 99.7569 109.344 99.8225 109.278C100.188 108.841 100.483 108.35 100.696 107.822C100.995 107.247 101.301 106.679 101.585 106.089C101.781 105.659 101.191 105.383 100.966 105.776Z" fill="#263238"/>
<path d="M101.403 102.47C101.621 101.931 101.832 101.4 102.058 100.861C102.284 100.322 102.568 99.7688 102.786 99.2008C102.786 99.1135 102.961 99.2008 102.924 99.2664C102.706 99.8052 102.568 100.373 102.4 100.926C102.233 101.48 102.043 102.033 101.861 102.587C101.519 103.613 101.133 104.633 100.66 105.63C101.233 105.659 101.805 105.559 102.335 105.339C102.876 104.993 103.292 104.482 103.522 103.883C103.827 103.286 104.111 102.674 104.424 102.077C104.81 101.431 105.134 100.751 105.393 100.045C105.393 99.9581 105.568 100.045 105.531 100.111C105.056 101.603 104.434 103.045 103.674 104.414C103.347 104.946 103.092 105.506 102.495 105.71C101.849 105.891 101.172 105.938 100.507 105.849C100.42 105.849 100.318 105.849 100.347 105.718C100.645 104.618 100.997 103.535 101.403 102.47Z" fill="#263238"/>
<path d="M99.9175 109.271C101.163 111.899 102.255 114.521 103.413 117.142C104.57 119.763 105.597 122.297 106.638 124.904C108.721 130.161 110.585 135.52 112.223 140.923C113.031 143.602 113.781 146.303 114.451 149.027C115.189 151.741 115.729 154.506 116.067 157.298C116.36 160.086 116.112 162.904 115.339 165.599C114.536 168.262 113.506 170.852 112.259 173.339C111.495 174.912 111.24 174.701 111.604 173.907C112.645 171.65 115.376 164.813 115.179 159.068C115.02 156.317 114.596 153.589 113.912 150.92C113.276 148.168 112.56 145.437 111.764 142.728C110.213 137.384 108.371 132.149 106.478 126.921C105.415 124.008 104.294 121.096 103.201 118.183C102.109 115.271 101.017 112.591 99.7937 109.373C99.7573 109.242 99.8811 109.191 99.9175 109.271Z" fill="#263238"/>
<path d="M74.2207 100.584C74.825 100.358 75.6769 100.729 76.2886 100.831C77.0807 100.966 77.8811 101.046 78.6841 101.071C79.4787 101.099 80.2742 101.073 81.0651 100.991C81.8616 100.971 82.6421 100.764 83.3442 100.387C84.4959 99.548 85.4833 98.5038 86.2567 97.307C87.1783 96.084 87.9393 94.7479 88.5212 93.3314C88.5212 93.244 88.6741 93.3314 88.6449 93.3897C88.3901 94.1979 88.2008 95.0134 87.9168 95.807C87.6029 96.5527 87.2278 97.2712 86.7955 97.955C86.0945 99.3311 85.0577 100.508 83.781 101.377C82.3757 102.178 80.57 102.105 79.0045 102.04C78.0965 101.987 77.1937 101.868 76.3031 101.683C75.6624 101.545 74.5847 101.443 74.177 100.882C74.1578 100.861 74.1436 100.835 74.1353 100.808C74.127 100.78 74.1249 100.751 74.129 100.723C74.1332 100.694 74.1436 100.667 74.1594 100.643C74.1752 100.619 74.1961 100.599 74.2207 100.584Z" fill="#263238"/>
<path d="M49.7489 218.636C55.3119 210.209 60.7728 201.714 66.1319 193.151C71.4909 184.588 76.7772 175.96 81.9906 167.266C83.2357 165.191 84.6701 163.123 85.4711 160.822C86.3448 158.325 85.8497 155.9 85.0633 153.454C83.5784 148.99 81.8427 144.615 79.8645 140.347C77.9131 136.044 75.8088 131.813 73.7409 127.568C71.673 123.323 69.5104 119.129 67.9158 114.702C66.4596 110.472 65.8698 106.089 67.0056 101.705C68.1415 97.3218 70.5881 93.4482 73.1438 89.8002C73.8137 88.8391 74.5054 87.8853 75.1826 86.8877C75.2335 86.8149 75.3428 86.8877 75.2918 86.9751C72.4739 90.7759 69.7289 94.8025 68.076 99.266C67.2312 101.466 66.7588 103.791 66.678 106.147C66.6642 108.538 67.0355 110.915 67.7775 113.188C69.1464 117.615 71.3089 121.802 73.3258 125.967C75.3428 130.131 77.498 134.442 79.4858 138.731C81.5365 143.047 83.3594 147.468 84.9468 151.975C85.624 153.978 86.4031 156.075 86.3448 158.223C86.2939 160.575 85.1725 162.693 84.0075 164.674C78.9106 173.302 73.6899 181.829 68.3745 190.304C63.0592 198.78 57.5909 207.255 52.0571 215.643L49.9601 218.811C49.8509 218.942 49.6616 218.789 49.7489 218.636Z" fill="#263238"/>
<path d="M110.802 59.5178C113.955 66.435 129.879 75.9663 137.335 76.9929C142.694 77.7211 158.99 77.9832 164.575 77.1313C171.128 76.1265 166.118 58.4693 162.252 58.928C151.621 60.1658 142.592 61.5493 139.753 61.5493C136.287 61.5493 117.537 55.5349 115.28 54.683C109.746 52.6224 109.018 55.5931 110.802 59.5178Z" fill="#EB9481"/>
<path d="M110.904 61.3599C114.894 67.2651 128.153 76.9201 128.153 76.9201L129.995 72.8426L136.09 59.3576C136.09 59.3576 123.908 55.5349 115.891 53.7874C114.948 53.5727 113.988 53.4363 113.022 53.3796C107.904 53.1029 107.46 56.263 110.904 61.3599Z" fill="#CACACA"/>
<path d="M110.904 61.3593C114.894 67.2645 128.153 76.9195 128.153 76.9195L129.995 72.8419C125.051 67.097 117.413 58.3958 113.022 53.3935C107.904 53.1023 107.46 56.2624 110.904 61.3593Z" fill="#263238"/>
<path d="M125.766 74.1821C126.778 71.6992 131.278 61.7019 132.399 59.6195C132.472 59.4738 132.588 59.4884 132.523 59.6195C130.571 64.5911 128.349 69.4525 125.867 74.1821C125.838 74.2695 125.722 74.2403 125.766 74.1821Z" fill="#263238"/>
<path d="M160.301 59.1094C166.767 58.2647 174.769 56.8158 181.548 59.6919C182.309 59.9905 182.948 60.5368 183.361 61.2428C186.419 62.4806 186.754 64.2937 186.754 64.2937C189.251 66.3179 189.339 68.2256 189.339 68.2256C189.339 68.2256 192.921 69.6818 192.375 72.0264C191.778 74.6186 186.87 72.0264 183.302 72.2376C175.111 72.7473 163.643 75.7545 161.276 76.1331L160.301 59.1094Z" fill="#EB9481"/>
<path d="M174.347 66.7408C176.742 66.577 179.146 66.577 181.541 66.7408C184.149 67.068 186.73 67.5913 189.259 68.3062C189.276 68.312 189.294 68.3111 189.309 68.3036C189.325 68.2961 189.337 68.2826 189.343 68.2662C189.349 68.2498 189.348 68.2317 189.34 68.216C189.333 68.2003 189.319 68.1883 189.303 68.1825C184.55 66.3178 179.377 65.7939 174.347 66.668C174.231 66.6534 174.231 66.748 174.347 66.7408Z" fill="#263238"/>
<path d="M172.825 59.1757C176.823 59.3796 179.32 60.0204 183.34 61.2291V61.1854C178.913 59.3359 177.1 59.1612 172.804 59.001C172.665 59.0592 172.673 59.1757 172.825 59.1757Z" fill="#263238"/>
<path d="M173.474 73.4756C172.432 73.9634 172.687 74.5095 174.675 74.9683C176.663 75.427 184.927 75.5653 184.636 78.4487C184.345 81.3321 172.687 80.9681 169.432 79.9487C166.178 78.9293 161.277 76.1333 161.277 76.1333C163.586 75.7474 169.003 74.2838 173.474 73.4756Z" fill="#EB9481"/>
<path d="M119.461 70.5415C119.41 71.7866 119.294 73.0535 119.119 74.3132C119.119 74.2622 119.119 74.2185 119.17 74.1748C119.41 73.5195 119.65 72.8496 119.942 72.2162C119.942 72.2162 120.014 72.2162 120.007 72.2162C119.867 72.9103 119.657 73.5885 119.381 74.2404C119.25 74.5535 119.126 74.8593 118.988 75.1651C118.9 75.7258 118.798 76.2791 118.689 76.8325C118.471 77.8737 117.488 82.3008 117.233 83.0508C117.189 83.2037 117 83.1673 117.014 82.9925C117.065 82.177 117.888 77.5679 118.056 76.5194C118.381 74.4949 118.816 72.4896 119.359 70.5123C119.395 70.4759 119.468 70.5051 119.461 70.5415Z" fill="#263238"/>
<path d="M111.888 103.65C109.944 104.647 107.439 106.198 96.1532 103.978C95.4251 103.832 94.7407 103.657 94.0271 103.446C83.4473 100.271 70.7269 87.8276 70.0352 86.9466C70.0352 86.9466 86.8477 59.6926 108.349 51.1225C111.007 50.0667 115.405 52.1055 117.815 54.6467C118.682 55.5569 120.567 62.2484 119.847 67.6657C119.126 73.083 113.825 102.652 111.888 103.65Z" fill="#CACACA"/>
<path d="M110.374 67.4175C110.455 68.5692 110.293 69.7251 109.9 70.8106C109.808 69.6585 109.969 68.5003 110.374 67.4175Z" fill="white"/>
<path d="M103.041 85.9775C103.088 86.5507 103.068 87.1272 102.983 87.6959C102.913 88.2689 102.774 88.8312 102.568 89.3706C102.518 88.7952 102.538 88.2157 102.626 87.645C102.701 87.0752 102.84 86.5157 103.041 85.9775Z" fill="white"/>
<path d="M90.5822 71.9468C90.6642 73.1009 90.5029 74.2593 90.1089 75.3472C90.0174 74.1928 90.1789 73.0323 90.5822 71.9468Z" fill="white"/>
<path d="M115.172 85.0312C115.219 85.6068 115.199 86.1858 115.114 86.7569C115.044 87.3299 114.905 87.8922 114.699 88.4316C114.649 87.8562 114.668 87.2767 114.757 86.706C114.831 86.1336 114.97 85.5717 115.172 85.0312Z" fill="white"/>
<path d="M99.1738 69.5442C99.7467 69.4954 100.323 69.5125 100.892 69.5951C101.465 69.6678 102.028 69.8096 102.567 70.0175C101.415 70.1002 100.259 69.9389 99.1738 69.5442Z" fill="white"/>
<path d="M85.0332 82.9487C86.1849 82.8675 87.3408 83.0287 88.4263 83.422C87.2743 83.5143 86.116 83.3527 85.0332 82.9487Z" fill="white"/>
<path d="M101.693 97.4601C102.845 97.3773 104.001 97.5386 105.086 97.9333C103.934 98.0242 102.777 97.8627 101.693 97.4601Z" fill="white"/>
<path d="M80.6719 92.1889C81.8236 92.1077 82.9795 92.2689 84.065 92.6622C82.913 92.7531 81.755 92.5916 80.6719 92.1889Z" fill="white"/>
<path d="M110.264 54.3696C111.415 54.2884 112.571 54.4496 113.657 54.8429C112.505 54.9241 111.349 54.7628 110.264 54.3696Z" fill="white"/>
<path d="M106.15 59.0151C105.782 59.4576 105.361 59.8537 104.898 60.1947C104.446 60.5436 103.958 60.8415 103.441 61.083C103.807 60.6434 104.222 60.2475 104.679 59.9035C105.135 59.5532 105.628 59.2553 106.15 59.0151Z" fill="white"/>
<path d="M83.7316 72.2158C83.3589 72.6545 82.9362 73.0479 82.4719 73.3881C82.0253 73.7436 81.5361 74.042 81.0156 74.2764C81.3902 73.8396 81.8127 73.4464 82.2753 73.1041C82.723 72.7502 83.212 72.4519 83.7316 72.2158Z" fill="white"/>
<path d="M111.728 78.1729C111.355 78.6138 110.932 79.0097 110.468 79.3524C110.02 79.7064 109.531 80.0047 109.012 80.2407C109.384 79.7998 109.807 79.4039 110.271 79.0612C110.722 78.7107 111.21 78.4127 111.728 78.1729Z" fill="white"/>
<path d="M93.5968 89.5894C93.2243 90.0303 92.8015 90.4262 92.3371 90.7689C91.8887 91.1219 91.3999 91.4201 90.8809 91.6572C91.2533 91.2163 91.6761 90.8204 92.1405 90.4777C92.5907 90.1273 93.0792 89.8292 93.5968 89.5894Z" fill="white"/>
<path d="M118.673 62.5762C118.3 63.0171 117.878 63.413 117.413 63.7557C116.962 64.1046 116.474 64.4026 115.957 64.6441C116.33 64.2031 116.752 63.8072 117.217 63.4645C117.665 63.1116 118.154 62.8134 118.673 62.5762Z" fill="white"/>
<path d="M118.294 75.8063C117.854 75.4338 117.458 75.011 117.115 74.5466C116.76 74.0992 116.462 73.6102 116.227 73.0903C116.669 73.4584 117.065 73.879 117.406 74.3427C117.754 74.7972 118.052 75.2879 118.294 75.8063Z" fill="white"/>
<path d="M77.8843 84.9225C77.4434 84.55 77.0475 84.1272 76.7047 83.6628C76.3543 83.2127 76.0563 82.7241 75.8164 82.2065C76.2573 82.579 76.6532 83.0018 76.996 83.4662C77.3489 83.9146 77.6471 84.4035 77.8843 84.9225Z" fill="white"/>
<path d="M113.38 95.7638C112.938 95.3957 112.542 94.9752 112.201 94.5114C111.852 94.0603 111.554 93.5719 111.312 93.0552C111.753 93.4277 112.149 93.8504 112.492 94.3148C112.843 94.7617 113.142 95.248 113.38 95.7638Z" fill="white"/>
<path d="M95.5913 64.8542C95.1505 64.4842 94.7546 64.0639 94.4118 63.6018C94.0643 63.1496 93.7665 62.6614 93.5234 62.1455C93.9659 62.5136 94.362 62.9342 94.703 63.3979C95.0504 63.8501 95.3482 64.3383 95.5913 64.8542Z" fill="white"/>
<path d="M95.9058 101.939C95.4648 101.566 95.069 101.143 94.7262 100.679C94.3769 100.228 94.079 99.7396 93.8379 99.2227C94.2804 99.5908 94.6765 100.011 95.0175 100.475C95.3678 100.928 95.6658 101.419 95.9058 101.939Z" fill="white"/>
<path d="M98.9258 80.0655C98.4891 79.691 98.0958 79.2684 97.7536 78.8059C97.3981 78.3593 97.0997 77.8701 96.8652 77.3496C97.3039 77.7222 97.6974 78.145 98.0375 78.6093C98.3915 79.0569 98.6898 79.5459 98.9258 80.0655Z" fill="white"/>
<path d="M113.875 61.9055C111.13 61.3958 108.552 55.7236 108.225 51.9082C108.225 51.6461 109.506 49.5709 110.97 46.9715C111.858 45.3914 112.797 43.6075 113.547 41.9182C113.7 41.576 114.596 42.7337 114.596 42.7337L116.547 44.19L122.991 49.134C121.457 50.9754 120.153 52.9976 119.11 55.1557C119.007 55.3895 118.929 55.6336 118.877 55.8838C118.874 55.925 118.874 55.9664 118.877 56.0076C118.477 57.4493 116.518 62.3933 113.875 61.9055Z" fill="#EB9481"/>
<path d="M118.878 55.9206C118.875 55.9618 118.875 56.0032 118.878 56.0444C118.495 55.9322 118.122 55.7885 117.764 55.6148C110.708 52.3091 113.817 42.8579 113.817 42.8579L116.584 44.2268L123.028 49.1708C121.493 51.0122 120.19 53.0344 119.147 55.1925C119.031 55.4249 118.941 55.669 118.878 55.9206Z" fill="#263238"/>
<path d="M130.396 29.0156C130.396 29.0156 133.622 31.0617 133.637 34.7023C133.651 38.343 132.18 41.9036 131.875 42.0346C131.569 42.1657 130.396 29.0156 130.396 29.0156Z" fill="#263238"/>
<path d="M114.393 30.9087C112.456 34.7314 112.558 46.782 114.975 49.8838C118.485 54.3837 125.242 55.9346 129.327 51.4857C133.28 47.1752 132.873 31.4767 130.055 28.5496C125.955 24.2245 117.262 25.2511 114.393 30.9087Z" fill="#EB9481"/>
<path d="M124.673 40.5571C124.673 40.5571 124.608 40.6008 124.615 40.6299C124.659 41.4527 124.571 42.3993 123.836 42.6906C123.836 42.6906 123.836 42.7415 123.836 42.7342C124.746 42.5886 124.848 41.3289 124.673 40.5571Z" fill="#263238"/>
<path d="M123.923 39.7202C122.598 39.6474 122.554 42.2978 123.785 42.3633C125.016 42.4289 125.03 39.7785 123.923 39.7202Z" fill="#263238"/>
<path d="M129.167 40.5283C129.167 40.5283 129.233 40.5283 129.233 40.6011C129.189 41.4239 129.284 42.3705 130.026 42.6545C130.026 42.6545 130.026 42.7054 130.026 42.6982C129.109 42.5598 129 41.3001 129.167 40.5283Z" fill="#263238"/>
<path d="M129.916 39.6834C131.234 39.6033 131.3 42.2537 130.077 42.3265C128.853 42.3993 128.81 39.749 129.916 39.6834Z" fill="#263238"/>
<path d="M123.093 37.703C123.441 37.604 123.783 37.4873 124.119 37.3535C124.502 37.2843 124.85 37.0896 125.11 36.8001C125.172 36.6941 125.199 36.5704 125.184 36.448C125.17 36.3256 125.115 36.2113 125.029 36.123C124.832 35.9732 124.599 35.8787 124.353 35.8492C124.107 35.8198 123.858 35.8565 123.631 35.9555C123.14 36.087 122.715 36.3957 122.437 36.822C122.382 36.9234 122.357 37.0386 122.365 37.1538C122.373 37.2691 122.414 37.3797 122.483 37.4724C122.552 37.5651 122.646 37.6361 122.754 37.677C122.862 37.7179 122.98 37.7269 123.093 37.703Z" fill="#263238"/>
<path d="M130.818 38.8752C130.464 38.796 130.114 38.6988 129.769 38.584C129.386 38.5332 129.03 38.3565 128.757 38.0815C128.687 37.9803 128.653 37.8583 128.661 37.7354C128.669 37.6124 128.718 37.4958 128.801 37.4044C128.989 37.2438 129.216 37.1368 129.46 37.0945C129.703 37.0522 129.954 37.0763 130.185 37.1641C130.683 37.2673 131.124 37.553 131.422 37.965C131.485 38.0626 131.517 38.1761 131.516 38.2919C131.515 38.4077 131.481 38.5206 131.417 38.6171C131.353 38.7135 131.262 38.7893 131.156 38.8351C131.049 38.8809 130.932 38.8949 130.818 38.8752Z" fill="#263238"/>
<path d="M122.81 48.3412C123.007 48.5377 123.196 48.7999 123.494 48.829C123.8 48.8288 124.103 48.7643 124.383 48.6397C124.383 48.6397 124.434 48.6397 124.383 48.6834C124.263 48.8434 124.103 48.968 123.918 49.0436C123.733 49.1193 123.531 49.1433 123.334 49.113C123.168 49.0676 123.018 48.9744 122.905 48.845C122.791 48.7156 122.717 48.5556 122.693 48.3848C122.688 48.3694 122.688 48.3523 122.695 48.3373C122.702 48.3222 122.714 48.3105 122.73 48.3047C122.745 48.2989 122.762 48.2995 122.777 48.3064C122.792 48.3132 122.804 48.3257 122.81 48.3412Z" fill="#263238"/>
<path d="M127.571 44.8314C127.571 44.8314 127.607 46.0547 127.571 46.6299C126.452 46.5112 125.322 46.5504 124.214 46.7464C123.952 46.8046 123.981 46.5935 124.28 46.4551C125.172 46.0473 126.166 45.9154 127.134 46.0765C127.192 45.9236 127.039 44.1834 127.134 44.1906C127.574 44.2771 128.001 44.4241 128.401 44.6275C128.401 42.0645 127.993 39.5306 128.03 36.9676C128.03 36.8802 128.168 36.8656 128.182 36.9676C128.7 39.6789 128.944 42.4354 128.911 45.1955C128.918 45.5086 127.789 44.9479 127.571 44.8314Z" fill="#263238"/>
<path d="M125.933 46.1928C125.643 46.9563 125.104 47.6 124.404 48.0205C123.304 48.4646 122.948 47.4671 124.054 46.5642C124.635 46.2708 125.284 46.1424 125.933 46.1928Z" fill="#263238"/>
<path d="M124.79 47.7945C124.674 47.8891 124.544 47.9652 124.405 48.0202C123.392 48.4279 122.992 47.6197 123.808 46.8042C124.361 46.8479 124.994 47.0518 124.79 47.7945Z" fill="#FF99BA"/>
<path d="M113.838 41.2125C115.171 41.6203 116.7 37.6156 117.137 36.1156C117.515 34.7613 117.952 30.458 118.018 30.1595C118.083 29.861 123.843 33.9676 127.178 32.9919C130.512 32.0162 132.777 28.9945 132.828 27.5892C132.879 26.1839 128.707 22.6161 125.102 22.434C121.498 22.252 116.612 26.8028 116.612 26.8028C117.203 26.1331 117.738 25.4172 118.214 24.6621C118.156 24.5019 115.826 25.4339 115.396 27.0941C115.396 27.0941 115.862 25.0043 115.688 24.9679C115.513 24.9315 113.7 26.7154 114.108 28.0698C114.108 28.0698 112.011 29.8828 111.821 31.8706C111.632 33.8584 112.273 40.732 113.838 41.2125Z" fill="#263238"/>
<path d="M129.566 32.2342C128.574 32.772 127.506 33.155 126.398 33.3701C125.155 33.481 123.904 33.2808 122.758 32.7876C121.603 32.3414 120.53 31.7066 119.583 30.909C118.746 30.2246 117.996 29.3872 117.1 28.7756C116.874 28.6154 116.62 28.9431 116.758 29.1469C118.252 31.2575 120.387 32.8303 122.845 33.6322C123.987 34.0045 125.206 34.0741 126.383 33.8341C127.559 33.5942 128.654 33.053 129.559 32.2633C129.559 32.2633 129.58 32.2342 129.566 32.2342Z" fill="#263238"/>
<path d="M115.23 40.8555C115.23 40.8555 113.162 36.6615 111.298 37.3386C109.434 38.0158 110.57 43.819 112.485 44.8821C112.719 45.0338 112.982 45.1367 113.258 45.1844C113.533 45.2321 113.815 45.2238 114.087 45.1599C114.359 45.096 114.615 44.9778 114.84 44.8125C115.066 44.6471 115.255 44.438 115.397 44.1976L115.23 40.8555Z" fill="#EB9481"/>
<path d="M111.67 38.9917C111.67 38.9917 111.626 38.9917 111.67 39.05C112.995 39.8363 113.534 41.2343 113.854 42.6906C113.794 42.5364 113.701 42.3972 113.581 42.2826C113.462 42.1679 113.319 42.0806 113.163 42.0266C113.006 41.9725 112.84 41.9532 112.675 41.9698C112.51 41.9864 112.351 42.0385 112.209 42.1227C112.165 42.1227 112.209 42.2028 112.209 42.2028C112.469 42.1623 112.736 42.2035 112.972 42.3209C113.208 42.4383 113.402 42.6259 113.527 42.8581C113.735 43.2469 113.901 43.657 114.022 44.0813C114.065 44.2197 114.306 44.1833 114.284 44.0304C114.597 42.2173 113.578 39.4723 111.67 38.9917Z" fill="#263238"/>
<path d="M101.578 59.5831C100.122 67.8329 109.063 95.6256 114.794 100.817C123.32 108.535 139.084 113.61 144.8 115.263C147.29 115.991 154.178 98.4654 151.659 97.3076C146.263 94.8538 129.502 89.6113 127.907 88.3006C126.313 86.99 116.701 73.1045 112.42 65.1096C106.689 54.3479 102.299 55.4109 101.578 59.5831Z" fill="#EB9481"/>
<path d="M147.413 95.7637C147.413 95.7637 154.854 97.6641 159.653 99.1276C162.332 99.9504 166.803 101.763 168.5 103.263C171.034 105.513 180.193 116.523 177.572 118.802C175.198 120.87 168.529 110.406 168.529 110.406C168.529 110.406 176.189 120.367 172.898 122.326C169.606 124.285 163.585 111.462 163.585 111.462C163.585 111.462 171.223 121.874 167.488 123.353C164.662 124.467 158.604 113.159 158.604 113.159C158.604 113.159 165.114 122.151 162.245 123.425C159.085 124.838 152.845 114.746 152.845 114.746C145.039 116.763 140.467 114.528 137.459 112.562C136.753 112.081 147.413 95.7637 147.413 95.7637Z" fill="#EB9481"/>
<path d="M166.097 106.787C167.043 107.923 168.004 109.074 168.842 110.29C169.679 111.506 170.473 112.758 171.193 114.047C172.17 115.714 172.952 117.488 173.523 119.333C172.271 116.129 169.337 111.724 168.499 110.508C167.662 109.292 166.883 108.033 166.053 106.817C166.031 106.787 166.075 106.758 166.097 106.787Z" fill="#263238"/>
<path d="M161.649 109.737C163.265 111.019 166.651 115.781 167.954 118.977C168.012 119.108 167.954 119.101 167.86 118.977C166.84 117.397 162.704 111.281 161.612 109.759C161.59 109.737 161.627 109.715 161.649 109.737Z" fill="#263238"/>
<path d="M157.374 111.601C159.383 113.708 160.97 116.179 162.049 118.882C162.1 119.013 161.998 118.991 161.918 118.882C160.411 116.428 159.246 114.513 157.294 111.666C157.265 111.601 157.331 111.535 157.374 111.601Z" fill="#263238"/>
<path d="M109.704 60.1875C103.056 50.7874 99.0801 54.2678 100.413 64.4762C101.665 74.022 105.007 85.3955 105.007 85.3955L121.754 77.2695C121.754 77.2695 113.934 66.2092 109.704 60.1875Z" fill="#CACACA"/>
<path d="M113.745 63.8867C113.965 64.4177 114.124 64.9723 114.218 65.5396C114.32 66.1087 114.357 66.6877 114.327 67.2652C114.109 66.7315 113.952 66.1745 113.861 65.6051C113.753 65.0391 113.714 64.4621 113.745 63.8867Z" fill="white"/>
<path d="M103.82 69.602C104.889 69.1673 106.039 68.9686 107.192 69.0195C106.66 69.2379 106.106 69.3942 105.539 69.4855C104.973 69.5936 104.396 69.6327 103.82 69.602Z" fill="white"/>
<path d="M104.249 54.9814C103.798 56.0456 103.125 57.0013 102.275 57.7847C102.726 56.7206 103.399 55.7649 104.249 54.9814Z" fill="white"/>
<path d="M118.44 73.9927C118.219 74.5252 117.938 75.0309 117.603 75.4999C117.276 75.9749 116.895 76.4099 116.467 76.796C116.918 75.7318 117.59 74.7762 118.44 73.9927Z" fill="white"/>
<path d="M106.79 79.6944C106.256 79.476 105.75 79.1949 105.282 78.8571C104.807 78.5308 104.372 78.1495 103.986 77.7212C105.05 78.1721 106.006 78.8448 106.79 79.6944Z" fill="white"/>
<path d="M111.887 63.02C112.783 64.2506 113.707 65.452 114.625 66.6607C114.392 66.049 114.188 65.4301 114.013 64.8039H114.057C114.239 65.2845 114.45 65.7578 114.625 66.2602L114.887 66.9883C114.909 67.038 114.929 67.0891 114.945 67.1412C115.673 68.0805 116.401 69.0198 117.071 69.981C117.894 71.1314 118.688 72.2964 119.489 73.4614C120.29 74.6264 121.098 76.0754 121.964 77.2477C122.044 77.3497 120.508 77.9758 120.341 78.0559C120.173 78.136 120.086 77.9977 120.246 77.9467C120.406 77.8957 121.629 77.1458 121.644 77.1312C120.843 75.9516 119.918 74.8667 119.081 73.7236C118.244 72.5804 117.413 71.4372 116.605 70.2795C114.967 67.9203 113.467 65.4738 111.836 63.1074L111.887 63.02Z" fill="#263238"/>
<path d="M100.805 71.2333C101.06 71.7284 101.337 72.2163 101.534 72.726L101.81 73.3595C101.424 71.5464 101.082 69.7188 100.682 67.9058C101.453 70.8183 102.233 73.7963 102.946 76.7526C103.623 79.5777 104.446 82.432 104.839 85.3154C105.347 85.0927 105.873 84.9148 106.412 84.7838C105.871 85.1338 105.289 85.4151 104.679 85.6212C103.801 82.6891 103.072 79.7145 102.495 76.7089C102.313 75.8934 102.145 75.0779 101.97 74.2623C101.781 73.7672 101.555 73.2939 101.33 72.8061C101.104 72.3182 100.9 71.7721 100.696 71.2552C100.74 71.226 100.791 71.1969 100.805 71.2333Z" fill="#263238"/>
<path d="M105.254 82.5845C107.584 81.2738 117.319 76.2352 119.496 75.3032C119.649 75.2376 119.729 75.3032 119.576 75.4051C114.955 78.0902 110.191 80.521 105.305 82.6864C105.246 82.701 105.188 82.6209 105.254 82.5845Z" fill="#263238"/>
<path d="M372.064 274.01H150.217L182.291 92.0864H404.138L372.064 274.01Z" fill="#CACACA"/>
<path d="M258.221 73.2422H185.619L182.291 92.0862H259.99L258.221 73.2422Z" fill="#CACACA"/>
<g opacity="0.1">
<path d="M372.064 274.01H150.217L182.291 92.0864H404.138L372.064 274.01Z" fill="black"/>
<path d="M258.221 73.2422H185.619L182.291 92.0862H259.99L258.221 73.2422Z" fill="black"/>
</g>
<path d="M177.784 80.9314C177.299 78.8478 177.299 76.6804 177.784 74.5967C178.27 76.6804 178.27 78.8478 177.784 80.9314Z" fill="#263238"/>
<path d="M171.333 82.7964C170.591 82.0276 169.953 81.1661 169.432 80.2333C168.887 79.32 168.459 78.3414 168.158 77.3208C168.902 78.085 169.541 78.9444 170.059 79.8765C170.603 80.7931 171.031 81.7739 171.333 82.7964Z" fill="#263238"/>
<path d="M166.672 87.6376C164.626 87.0155 162.75 85.9319 161.189 84.4702C162.21 84.7669 163.189 85.1927 164.102 85.7372C165.035 86.2607 165.898 86.8992 166.672 87.6376Z" fill="#263238"/>
<path d="M165.042 94.162C162.958 94.6475 160.791 94.6475 158.707 94.162C160.791 93.6765 162.958 93.6765 165.042 94.162Z" fill="#263238"/>
<path d="M166.935 100.613C166.163 101.35 165.302 101.989 164.372 102.513C163.459 103.058 162.48 103.483 161.459 103.78C162.228 103.039 163.089 102.4 164.022 101.88C164.934 101.333 165.913 100.907 166.935 100.613Z" fill="#263238"/>
<path d="M171.769 105.266C171.149 107.315 170.065 109.194 168.602 110.756C168.898 109.734 169.326 108.755 169.876 107.844C170.395 106.908 171.031 106.041 171.769 105.266Z" fill="#263238"/>
<path d="M178.292 106.875C178.546 107.911 178.668 108.975 178.656 110.042C178.672 111.109 178.549 112.174 178.292 113.209C178.031 112.174 177.908 111.109 177.928 110.042C177.916 108.975 178.038 107.911 178.292 106.875Z" fill="#263238"/>
<path d="M184.744 105.047C185.486 105.816 186.124 106.678 186.645 107.61C187.192 108.522 187.618 109.501 187.912 110.523C186.448 108.961 185.364 107.082 184.744 105.033V105.047Z" fill="#263238"/>
<path d="M189.396 100.169C190.418 100.463 191.397 100.889 192.309 101.436C193.242 101.956 194.103 102.595 194.872 103.336C193.85 103.042 192.871 102.616 191.959 102.069C191.027 101.549 190.165 100.91 189.396 100.169Z" fill="#263238"/>
<path d="M191.006 93.6448C193.092 93.1594 195.262 93.1594 197.348 93.6448C195.262 94.1301 193.092 94.1301 191.006 93.6448Z" fill="#263238"/>
<path d="M189.142 87.1937C189.912 86.4568 190.774 85.8207 191.705 85.3006C192.614 84.7483 193.594 84.3197 194.617 84.0264C193.055 85.49 191.176 86.5739 189.127 87.1937H189.142Z" fill="#263238"/>
<path d="M184.301 82.541C184.601 81.5213 185.026 80.5429 185.568 79.6284C186.088 78.6957 186.727 77.8342 187.468 77.0654C187.174 78.0872 186.748 79.0663 186.201 79.978C185.681 80.9107 185.042 81.7722 184.301 82.541Z" fill="#263238"/>
<path d="M371.736 274.01H149.416L117.844 98.6909H340.171L371.736 274.01Z" fill="#CACACA"/>
<path d="M194.886 205.864C199.99 205.864 204.126 201.727 204.126 196.624C204.126 191.521 199.99 187.384 194.886 187.384C189.783 187.384 185.646 191.521 185.646 196.624C185.646 201.727 189.783 205.864 194.886 205.864Z" fill="#263238"/>
<path d="M267.933 205.864C273.036 205.864 277.173 201.727 277.173 196.624C277.173 191.521 273.036 187.384 267.933 187.384C262.83 187.384 258.693 191.521 258.693 196.624C258.693 201.727 262.83 205.864 267.933 205.864Z" fill="#263238"/>
<path d="M244.684 207.343L244.174 206.375C244.13 206.288 239.354 197.463 229.75 197.463C221.012 197.463 218.828 205.771 218.77 206.127L218.508 207.183L216.389 206.674L216.644 205.61C216.644 205.509 219.25 195.278 229.75 195.278C240.672 195.278 245.893 204.948 246.111 205.363L246.621 206.324L244.684 207.343Z" fill="#263238"/>
<path d="M357.057 195.919L356.904 195.19C357.378 195.088 357.844 194.979 358.31 194.855L358.492 195.584C357.996 195.707 357.538 195.817 357.057 195.919Z" fill="#263238"/>
<path d="M361.309 194.746L361.076 194.062C361.986 193.749 362.896 193.407 363.777 193.035L364.061 193.705C363.165 194.084 362.241 194.433 361.309 194.746ZM366.733 192.424L366.406 191.783C367.258 191.339 368.109 190.858 368.918 190.327L369.296 190.946C368.466 191.521 367.6 192.009 366.733 192.424ZM371.743 189.344L371.313 188.754C372.1 188.179 372.857 187.574 373.57 186.955L374.051 187.502C373.286 188.164 372.558 188.783 371.736 189.373L371.743 189.344ZM376.184 185.47L375.653 184.968C376.323 184.24 376.956 183.511 377.539 182.783L378.114 183.227C377.51 184.028 376.862 184.778 376.199 185.499L376.184 185.47ZM379.789 180.81L379.17 180.424C379.673 179.611 380.121 178.764 380.509 177.89L381.179 178.189C380.768 179.1 380.301 179.985 379.781 180.839L379.789 180.81ZM382.199 175.407L381.471 175.203C381.737 174.29 381.934 173.358 382.06 172.415L382.789 172.509C382.668 173.499 382.468 174.478 382.191 175.436L382.199 175.407ZM383.007 169.582H382.279V169.371C382.279 168.49 382.228 167.594 382.141 166.713L382.869 166.641C382.964 167.548 383.013 168.459 383.014 169.371L383.007 169.582ZM381.696 163.881C381.5 162.942 381.257 162.014 380.968 161.1L381.696 160.881C381.995 161.828 382.25 162.789 382.424 163.728L381.696 163.881ZM379.971 158.398C379.621 157.539 379.243 156.658 378.777 155.77L379.432 155.442C379.876 156.345 380.284 157.248 380.641 158.121L379.971 158.398ZM377.422 153.207C376.971 152.413 376.476 151.576 375.966 150.716L376.585 150.33C377.116 151.197 377.619 152.042 378.041 152.85L377.422 153.207ZM374.379 148.263C373.847 147.462 373.308 146.653 372.755 145.845L373.359 145.437C373.913 146.246 374.451 147.054 374.983 147.869L374.379 148.263ZM371.102 143.442C370.556 142.641 370.003 141.833 369.464 141.032L370.068 140.624C370.607 141.425 371.153 142.234 371.699 143.027L371.102 143.442ZM367.847 138.593C367.316 137.777 366.799 136.947 366.289 136.117L366.908 135.739C367.418 136.569 367.935 137.384 368.459 138.2L367.847 138.593ZM364.811 133.591C364.316 132.71 363.857 131.836 363.442 130.999L364.097 130.671C364.505 131.501 364.964 132.36 365.444 133.234L364.811 133.591ZM362.226 128.348C361.84 127.438 361.498 126.513 361.178 125.61L361.906 125.377C362.212 126.258 362.554 127.169 362.932 128.064L362.226 128.348ZM360.333 122.792C360.093 121.846 359.882 120.878 359.721 119.88L360.449 119.763C360.61 120.695 360.806 121.642 361.047 122.574L360.333 122.792ZM359.357 116.967C359.284 116.072 359.248 115.169 359.248 114.266V114.026H359.976V114.259C359.976 115.14 359.976 116.028 360.085 116.902L359.357 116.967ZM360.085 111.142L359.357 111.07C359.357 110.873 359.394 110.669 359.416 110.458C359.503 109.679 359.612 108.9 359.743 108.157L360.471 108.281C360.348 109.009 360.238 109.773 360.151 110.538C360.18 110.764 360.18 110.96 360.122 111.164L360.085 111.142ZM361.098 105.478L360.369 105.281C360.639 104.32 360.952 103.381 361.301 102.485L361.979 102.747C361.648 103.649 361.366 104.567 361.134 105.499L361.098 105.478ZM397.38 101.233C396.973 101.233 396.55 101.174 396.135 101.116C395.567 101.036 394.999 100.941 394.439 100.832L394.584 100.104C395.123 100.206 395.684 100.301 396.237 100.381C396.63 100.432 397.031 100.468 397.417 100.49L397.38 101.233ZM400.373 101.007L400.22 100.279C401.134 100.09 402.01 99.7504 402.812 99.2738L403.191 99.8928C402.333 100.423 401.393 100.807 400.409 101.029L400.373 101.007ZM363.195 100.14L362.547 99.7981C363.01 98.9297 363.523 98.0886 364.083 97.2788L364.68 97.6938C364.148 98.4867 363.664 99.311 363.231 100.162L363.195 100.14ZM391.592 100.097C390.652 99.7984 389.728 99.4509 388.825 99.0554L389.123 98.3855C389.999 98.7745 390.896 99.1124 391.81 99.3976L391.592 100.097ZM405.426 97.8249L404.822 97.4171C405.34 96.665 405.647 95.7873 405.71 94.8759L406.438 94.9269C406.376 95.9714 406.034 96.98 405.448 97.8467L405.426 97.8249ZM386.203 97.7156C385.351 97.2203 384.527 96.6783 383.735 96.0919L384.165 95.5094C384.936 96.078 385.738 96.6031 386.568 97.0822L386.203 97.7156ZM366.471 95.4439L365.932 94.956C366.592 94.2228 367.294 93.5298 368.037 92.8808L368.517 93.4269C367.803 94.0661 367.127 94.7468 366.493 95.4657L366.471 95.4439ZM381.463 94.2133C380.738 93.5453 380.05 92.8379 379.403 92.0945L379.949 91.6139C380.579 92.3361 381.247 93.0239 381.951 93.6745L381.463 94.2133ZM405.164 92.2401C404.747 91.408 404.17 90.6658 403.468 90.0557L403.948 89.5096C404.722 90.1788 405.357 90.9925 405.819 91.9051L405.164 92.2401ZM370.782 91.6649L370.367 91.0678C371.181 90.5117 372.025 89.9988 372.893 89.5314L373.235 90.1722C372.399 90.6344 371.587 91.14 370.804 91.6867L370.782 91.6649ZM377.582 89.7717C377.306 89.3785 377.036 88.9781 376.781 88.563L375.835 88.9344L375.558 88.2645L376.396 87.9296C376.265 87.7111 376.133 87.4927 376.01 87.2742L376.643 86.9175C376.789 87.1723 376.934 87.4271 377.087 87.6456C377.495 87.5 377.91 87.3616 378.332 87.2305L378.544 87.9587C378.187 88.0679 377.815 88.1844 377.48 88.3082C377.706 88.665 377.939 89.0363 378.209 89.3494L377.582 89.7717ZM401.123 88.5193C400.418 88.1682 399.688 87.8713 398.939 87.631L398.458 87.4781L398.669 86.75L399.164 86.9102C399.944 87.1588 400.704 87.468 401.436 87.8349L401.123 88.5193ZM381.332 87.216L381.179 86.4879C382.119 86.2767 383.094 86.1019 384.092 85.9636L384.201 86.6917C383.24 86.8446 382.286 87.0267 381.354 87.2378L381.332 87.216ZM395.676 86.8228C394.766 86.6626 393.805 86.5388 392.822 86.4515L392.88 85.7233C393.893 85.8107 394.876 85.9345 395.793 86.1019L395.676 86.8228ZM387.048 86.4005L386.997 85.6723C387.864 85.6214 388.73 85.5923 389.589 85.5923H389.946V86.3204H389.597C388.774 86.3422 387.915 86.3641 387.07 86.4223L387.048 86.4005ZM374.743 84.6602C374.35 83.7719 374.015 82.8472 373.687 81.9079L374.415 81.6822C374.721 82.5996 375.063 83.5025 375.442 84.369L374.743 84.6602ZM372.901 79.0682C372.682 78.1289 372.5 77.1532 372.362 76.1557L373.09 76.0537C373.228 77.0149 373.403 77.9687 373.614 78.8934L372.901 79.0682ZM372.085 73.2431C372.049 72.5878 372.027 71.9179 372.027 71.2481C372.027 70.935 372.027 70.6146 372.027 70.3015H372.755C372.755 70.6146 372.755 70.9204 372.755 71.2335C372.755 71.8888 372.755 72.5514 372.806 73.1849L372.085 73.2431ZM372.951 67.4181L372.223 67.3453C372.325 66.3841 372.464 65.4012 372.631 64.4328L373.359 64.5565C373.163 65.5249 373.024 66.457 372.93 67.4326L372.951 67.4181ZM373.949 61.7314L373.221 61.5566C373.454 60.6173 373.723 59.6708 374.022 58.7242L374.75 58.9499C374.422 59.9038 374.153 60.8285 373.927 61.7459L373.949 61.7314ZM375.697 56.2194L375.019 55.9573C375.376 55.0471 375.748 54.137 376.192 53.2559L376.847 53.5763C376.41 54.4501 376.024 55.3384 375.675 56.2631L375.697 56.2194ZM378.201 51.0278L377.568 50.6565C378.063 49.8192 378.595 48.9818 379.148 48.1809L379.745 48.5959C379.177 49.3968 378.66 50.2123 378.179 51.0424L378.201 51.0278ZM381.485 46.2877L380.917 45.829C381.529 45.1009 382.184 44.329 382.861 43.6446L383.386 44.147C382.701 44.8314 382.06 45.5596 381.463 46.3023L381.485 46.2877ZM385.446 42.0937L384.958 41.5549C385.687 40.9068 386.415 40.2661 387.194 39.6472L387.645 40.2224C386.866 40.8413 386.123 41.4748 385.424 42.1082L385.446 42.0937ZM389.968 38.4967L389.553 37.8924C390.347 37.3463 391.177 36.8074 392.021 36.2977L392.393 36.9167C391.548 37.4336 390.762 37.9652 389.946 38.5113L389.968 38.4967ZM394.912 35.4895L394.57 34.8488C395.429 34.39 396.317 33.9532 397.206 33.5454L397.511 34.208C396.587 34.623 395.735 35.0599 394.89 35.5041L394.912 35.4895ZM400.176 33.0721L399.907 32.3877C400.824 32.0309 401.749 31.6595 402.667 31.3901L402.9 32.1183C401.975 32.395 401.057 32.7299 400.155 33.0867L400.176 33.0721Z" fill="#263238"/>
<path d="M405.791 31.2301L405.609 30.5019C406.512 30.2689 407.066 30.167 407.066 30.167L407.197 30.8951C407.197 30.8951 406.672 31.0043 405.791 31.2301Z" fill="#263238"/>
<path d="M418.665 26.5268C416.808 20.7746 404.372 22.8424 406.797 30.364C409.221 37.8856 420.522 32.2863 418.665 26.5268Z" fill="#263238"/>
<path d="M400.031 24.2255C400.126 21.6989 403.636 19.7548 408.601 20.6504C413.567 21.546 418.235 24.8954 418.235 24.8954C418.235 24.8954 413.334 27.8661 408.317 28.4122C403.301 28.9583 399.937 26.7448 400.031 24.2255Z" fill="#EBEBEB"/>
<path d="M418.235 24.8804C415.658 24.8804 413.087 24.8076 410.517 24.7275C407.947 24.6474 405.369 24.5164 402.799 24.3125C405.376 24.3125 407.954 24.378 410.524 24.4581C413.095 24.5382 415.672 24.6693 418.235 24.8804Z" fill="#263238"/>
<path d="M405.02 21.9756C406.483 22.6756 407.863 23.5378 409.133 24.5459C408.401 24.2023 407.691 23.8132 407.007 23.3809C406.318 22.9516 405.654 22.4823 405.02 21.9756Z" fill="#263238"/>
<path d="M411.769 24.6406C410.452 25.7081 409.024 26.6309 407.51 27.393C408.834 26.3241 410.269 25.4013 411.791 24.6406H411.769Z" fill="#263238"/>
<path d="M412.52 23.2207C413.254 23.5735 413.897 24.0919 414.398 24.7352C414.031 24.5618 413.686 24.3442 413.371 24.0872C413.055 23.8318 412.77 23.5411 412.52 23.2207Z" fill="#263238"/>
<path d="M404.765 39.1889C406.316 41.184 410.298 40.7035 413.801 37.0774C417.303 33.4513 419.16 27.9976 419.16 27.9976C419.16 27.9976 413.422 28.4344 409.046 30.9101C404.67 33.3857 403.206 37.1866 404.765 39.1889Z" fill="#EBEBEB"/>
<path d="M419.16 27.9976C417.063 29.4538 415.024 31.0703 412.978 32.6358C410.932 34.2012 408.929 35.8177 406.971 37.4851C409.068 36.0288 411.106 34.4197 413.145 32.8542C415.184 31.2887 417.172 29.6723 419.16 27.9976Z" fill="#263238"/>
<path d="M410.115 38.0605C410.504 37.3532 410.852 36.6238 411.156 35.8761C411.466 35.1263 411.729 34.3578 411.943 33.5752C411.552 34.2819 411.205 35.0113 410.902 35.7596C410.595 36.5105 410.332 37.2788 410.115 38.0605Z" fill="#263238"/>
<path d="M414.062 31.9728C412.358 31.8817 410.649 31.972 408.965 32.2422C409.814 32.2932 410.665 32.2932 411.513 32.2422C412.367 32.2006 413.218 32.1106 414.062 31.9728Z" fill="#263238"/>
<path d="M415.469 32.6933C415.663 32.3337 415.815 31.9524 415.92 31.5574C416.028 31.1652 416.091 30.7622 416.11 30.356C415.722 31.0768 415.503 31.8758 415.469 32.6933Z" fill="#263238"/>
<path d="M418.664 26.5267C418.252 26.6602 417.811 26.6687 417.395 26.5511C416.979 26.4334 416.607 26.195 416.327 25.866C416.046 25.5369 415.87 25.132 415.819 24.7026C415.769 24.2731 415.848 23.8385 416.045 23.4536C416.242 23.0688 416.549 22.751 416.926 22.5407C417.304 22.3303 417.736 22.2367 418.167 22.2719C418.597 22.307 419.008 22.4692 419.347 22.7379C419.686 23.0067 419.937 23.3699 420.069 23.7816C420.246 24.332 420.197 24.9299 419.934 25.4445C419.67 25.959 419.213 26.3481 418.664 26.5267Z" fill="#455A64"/>
<path d="M420.005 30.6841C419.594 30.8171 419.153 30.8252 418.738 30.7075C418.322 30.5898 417.951 30.3515 417.67 30.0227C417.39 29.694 417.214 29.2895 417.163 28.8605C417.113 28.4315 417.191 27.9972 417.387 27.6125C417.584 27.2277 417.89 26.9099 418.267 26.6991C418.644 26.4883 419.075 26.3941 419.506 26.4282C419.936 26.4624 420.347 26.6235 420.686 26.8911C421.025 27.1587 421.277 27.5209 421.411 27.9317C421.499 28.2047 421.533 28.4925 421.51 28.7786C421.488 29.0647 421.409 29.3435 421.278 29.5991C421.148 29.8547 420.968 30.0821 420.75 30.2683C420.531 30.4544 420.278 30.5957 420.005 30.6841Z" fill="#455A64"/>
<path d="M181.286 28.8269C180.937 32.1713 179.666 35.353 177.614 38.0169C175.562 40.6808 172.81 42.7221 169.665 43.913C166.521 45.1039 163.107 45.3976 159.805 44.7613C156.503 44.125 153.443 42.5837 150.967 40.3095L141.887 41.642L146.43 33.7927C145.391 31.2387 144.948 28.4815 145.134 25.7305C145.32 22.9795 146.131 20.3071 147.504 17.9163C148.878 15.5255 150.778 13.4791 153.061 11.9327C155.344 10.3862 157.949 9.38035 160.678 8.99145C163.408 8.60255 166.191 8.84087 168.814 9.68829C171.438 10.5357 173.834 11.9699 175.821 13.8821C177.807 15.7942 179.332 18.1339 180.279 20.7234C181.226 23.313 181.57 26.0843 181.286 28.8269Z" fill="white"/>
<path d="M181.286 28.8262C180.945 32.1689 179.685 35.3518 177.646 38.0225C176.649 39.3732 175.448 40.5599 174.085 41.5394C172.752 42.5556 171.281 43.377 169.716 43.9786C168.151 44.5952 166.506 44.9874 164.831 45.1436C163.993 45.2188 163.151 45.2358 162.311 45.1946C161.468 45.173 160.628 45.0853 159.799 44.9325C156.453 44.3168 153.344 42.7813 150.821 40.4982L151.033 40.5637L141.967 41.9544L141.305 42.0564L141.64 41.4739L146.154 33.61V33.9231C145.089 31.322 144.636 28.5107 144.83 25.7066C145.025 22.9025 145.861 20.1806 147.275 17.7513C148.688 15.3297 150.629 13.2587 152.955 11.6933C155.277 10.1486 157.918 9.14966 160.681 8.77136C163.444 8.39305 166.257 8.64519 168.908 9.50889C171.532 10.4014 173.922 11.8692 175.906 13.8049C177.884 15.7357 179.397 18.0918 180.33 20.6946C181.262 23.2973 181.589 26.0782 181.286 28.8262ZM181.286 28.8262C181.581 26.0917 181.243 23.3261 180.298 20.7431C179.354 18.16 177.828 15.8285 175.84 13.9286C173.851 12.0286 171.453 10.6111 168.829 9.78548C166.206 8.95982 163.428 8.7481 160.709 9.16667C158.018 9.56498 155.455 10.5764 153.217 12.1229C150.998 13.6815 149.145 15.7039 147.785 18.0499C146.446 20.4011 145.657 23.0248 145.477 25.7244C145.3 28.4422 145.738 31.165 146.758 33.6901L146.824 33.8503L146.737 34.0032L142.164 41.8379L141.844 41.3574L150.931 40.0831H151.054L151.142 40.1632C153.571 42.4241 156.581 43.9645 159.836 44.6121C160.647 44.7773 161.47 44.8772 162.297 44.9106C163.123 44.9689 163.953 44.9689 164.78 44.9106C166.437 44.7771 168.069 44.4169 169.629 43.8403C171.192 43.2711 172.664 42.4763 173.998 41.4811C175.355 40.5095 176.558 39.3386 177.566 38.008C179.631 35.3502 180.919 32.1719 181.286 28.8262Z" fill="#263238"/>
<path d="M154.368 35.4008C154.354 35.1597 154.39 34.9183 154.473 34.6916C154.556 34.465 154.685 34.2578 154.852 34.083C155.018 33.9082 155.219 33.7695 155.442 33.6756C155.664 33.5816 155.903 33.5343 156.145 33.5367C156.639 33.5367 157.113 33.7331 157.463 34.0827C157.812 34.4323 158.009 34.9064 158.009 35.4008C158.009 35.8951 157.812 36.3692 157.463 36.7188C157.113 37.0684 156.639 37.2648 156.145 37.2648C155.903 37.2672 155.664 37.2199 155.442 37.1259C155.219 37.032 155.018 36.8933 154.852 36.7185C154.685 36.5437 154.556 36.3365 154.473 36.1099C154.39 35.8832 154.354 35.6418 154.368 35.4008ZM155.096 31.0975L154.674 16.6514H157.587L157.164 31.0975H155.096Z" fill="#CACACA"/>
<path d="M161.292 35.4008C161.278 35.1603 161.314 34.9196 161.396 34.6934C161.479 34.4672 161.607 34.2604 161.773 34.0857C161.939 33.911 162.139 33.7722 162.36 33.6777C162.582 33.5833 162.821 33.5353 163.061 33.5367C163.556 33.5367 164.03 33.7331 164.379 34.0827C164.729 34.4323 164.925 34.9064 164.925 35.4008C164.925 35.8951 164.729 36.3692 164.379 36.7188C164.03 37.0684 163.556 37.2648 163.061 37.2648C162.821 37.2662 162.582 37.2182 162.36 37.1238C162.139 37.0294 161.939 36.8905 161.773 36.7158C161.607 36.5411 161.479 36.3343 161.396 36.1081C161.314 35.882 161.278 35.6412 161.292 35.4008ZM162.02 31.0975L161.62 16.6514H164.532L164.11 31.0975H162.02Z" fill="#CACACA"/>
<path d="M168.21 35.4008C168.196 35.1597 168.232 34.9183 168.315 34.6916C168.398 34.465 168.527 34.2578 168.694 34.083C168.86 33.9082 169.061 33.7695 169.283 33.6756C169.506 33.5816 169.745 33.5343 169.987 33.5367C170.481 33.5367 170.955 33.7331 171.305 34.0827C171.654 34.4323 171.851 34.9064 171.851 35.4008C171.851 35.8951 171.654 36.3692 171.305 36.7188C170.955 37.0684 170.481 37.2648 169.987 37.2648C169.745 37.2672 169.506 37.2199 169.283 37.1259C169.061 37.032 168.86 36.8933 168.694 36.7185C168.527 36.5437 168.398 36.3365 168.315 36.1099C168.232 35.8832 168.196 35.6418 168.21 35.4008ZM168.938 31.0975L168.516 16.6514H171.428L171.013 31.0975H168.938Z" fill="#CACACA"/>
<path d="M94.9091 349.966V338.33H98.9773C99.7879 338.33 100.456 338.47 100.983 338.75C101.509 339.027 101.902 339.4 102.159 339.87C102.417 340.336 102.545 340.853 102.545 341.421C102.545 341.921 102.456 342.334 102.278 342.659C102.104 342.985 101.873 343.243 101.585 343.432C101.301 343.622 100.992 343.762 100.659 343.853V343.966C101.015 343.989 101.373 344.114 101.733 344.341C102.093 344.569 102.394 344.894 102.636 345.319C102.879 345.743 103 346.262 103 346.875C103 347.459 102.867 347.983 102.602 348.449C102.337 348.915 101.919 349.284 101.347 349.557C100.775 349.83 100.03 349.966 99.1136 349.966H94.9091ZM96.3182 348.716H99.1136C100.034 348.716 100.688 348.538 101.074 348.182C101.464 347.822 101.659 347.387 101.659 346.875C101.659 346.481 101.559 346.118 101.358 345.784C101.157 345.447 100.871 345.178 100.5 344.978C100.129 344.773 99.6894 344.671 99.1818 344.671H96.3182V348.716ZM96.3182 343.444H98.9318C99.3561 343.444 99.7386 343.36 100.08 343.194C100.424 343.027 100.697 342.792 100.898 342.489C101.102 342.186 101.205 341.83 101.205 341.421C101.205 340.909 101.027 340.476 100.67 340.12C100.314 339.76 99.75 339.58 98.9773 339.58H96.3182V343.444ZM108.793 350.148C107.952 350.148 107.226 349.963 106.616 349.591C106.01 349.216 105.543 348.694 105.213 348.023C104.887 347.349 104.724 346.565 104.724 345.671C104.724 344.777 104.887 343.989 105.213 343.307C105.543 342.622 106.001 342.088 106.588 341.705C107.179 341.319 107.868 341.125 108.656 341.125C109.111 341.125 109.56 341.201 110.003 341.353C110.446 341.504 110.849 341.75 111.213 342.091C111.577 342.428 111.866 342.875 112.082 343.432C112.298 343.989 112.406 344.675 112.406 345.489V346.057H105.679V344.898H111.043C111.043 344.406 110.944 343.966 110.747 343.58C110.554 343.194 110.277 342.889 109.918 342.665C109.562 342.442 109.141 342.33 108.656 342.33C108.122 342.33 107.66 342.463 107.27 342.728C106.884 342.989 106.586 343.33 106.378 343.75C106.17 344.171 106.065 344.622 106.065 345.103V345.875C106.065 346.534 106.179 347.093 106.406 347.552C106.637 348.006 106.957 348.353 107.366 348.591C107.776 348.826 108.251 348.944 108.793 348.944C109.145 348.944 109.463 348.894 109.747 348.796C110.035 348.694 110.283 348.542 110.491 348.341C110.7 348.137 110.861 347.883 110.974 347.58L112.27 347.944C112.134 348.383 111.904 348.769 111.582 349.103C111.26 349.432 110.863 349.69 110.389 349.875C109.916 350.057 109.384 350.148 108.793 350.148ZM115.787 338.33V349.966H114.446V338.33H115.787ZM123.743 346.398V341.239H125.084V349.966H123.743V348.489H123.652C123.447 348.932 123.129 349.309 122.697 349.62C122.266 349.927 121.72 350.08 121.061 350.08C120.516 350.08 120.031 349.961 119.607 349.722C119.182 349.48 118.849 349.116 118.607 348.631C118.364 348.142 118.243 347.527 118.243 346.784V341.239H119.584V346.694C119.584 347.33 119.762 347.838 120.118 348.216C120.478 348.595 120.936 348.784 121.493 348.784C121.826 348.784 122.165 348.699 122.51 348.529C122.858 348.358 123.15 348.097 123.385 347.745C123.624 347.392 123.743 346.944 123.743 346.398ZM127.54 349.966V341.239H128.835V342.603H128.949C129.131 342.137 129.424 341.775 129.83 341.517C130.235 341.256 130.722 341.125 131.29 341.125C131.866 341.125 132.345 341.256 132.727 341.517C133.114 341.775 133.415 342.137 133.631 342.603H133.722C133.945 342.152 134.28 341.794 134.727 341.529C135.174 341.26 135.71 341.125 136.335 341.125C137.116 341.125 137.754 341.37 138.25 341.858C138.746 342.343 138.994 343.099 138.994 344.125V349.966H137.653V344.125C137.653 343.481 137.477 343.021 137.125 342.745C136.773 342.468 136.358 342.33 135.881 342.33C135.267 342.33 134.792 342.516 134.455 342.887C134.117 343.254 133.949 343.72 133.949 344.284V349.966H132.585V343.989C132.585 343.493 132.424 343.093 132.102 342.79C131.78 342.483 131.366 342.33 130.858 342.33C130.509 342.33 130.184 342.423 129.881 342.608C129.581 342.794 129.339 343.052 129.153 343.381C128.972 343.707 128.881 344.084 128.881 344.512V349.966H127.54ZM148.514 350.171C147.961 350.171 147.459 350.067 147.009 349.858C146.558 349.646 146.2 349.341 145.935 348.944C145.67 348.542 145.537 348.057 145.537 347.489C145.537 346.989 145.635 346.584 145.832 346.273C146.029 345.959 146.293 345.713 146.622 345.534C146.952 345.356 147.315 345.224 147.713 345.137C148.115 345.046 148.518 344.974 148.923 344.921C149.454 344.853 149.884 344.802 150.213 344.767C150.546 344.73 150.789 344.667 150.94 344.58C151.096 344.493 151.173 344.341 151.173 344.125V344.08C151.173 343.519 151.02 343.084 150.713 342.773C150.41 342.463 149.95 342.307 149.332 342.307C148.692 342.307 148.19 342.447 147.827 342.728C147.463 343.008 147.207 343.307 147.06 343.625L145.787 343.171C146.014 342.641 146.317 342.228 146.696 341.932C147.079 341.633 147.495 341.425 147.946 341.307C148.401 341.186 148.848 341.125 149.287 341.125C149.567 341.125 149.889 341.159 150.253 341.228C150.62 341.292 150.974 341.427 151.315 341.631C151.66 341.836 151.946 342.144 152.173 342.557C152.401 342.97 152.514 343.523 152.514 344.216V349.966H151.173V348.784H151.105C151.014 348.974 150.863 349.177 150.651 349.392C150.438 349.608 150.156 349.792 149.804 349.944C149.452 350.095 149.022 350.171 148.514 350.171ZM148.719 348.966C149.249 348.966 149.696 348.862 150.06 348.654C150.427 348.445 150.704 348.177 150.889 347.847C151.079 347.517 151.173 347.171 151.173 346.807V345.58C151.116 345.648 150.991 345.711 150.798 345.767C150.609 345.82 150.389 345.868 150.139 345.909C149.893 345.947 149.652 345.981 149.418 346.012C149.187 346.038 148.999 346.061 148.855 346.08C148.507 346.125 148.181 346.199 147.878 346.302C147.579 346.4 147.336 346.55 147.151 346.75C146.969 346.947 146.878 347.216 146.878 347.557C146.878 348.023 147.05 348.375 147.395 348.614C147.743 348.849 148.185 348.966 148.719 348.966ZM158.257 350.148C157.53 350.148 156.888 349.964 156.331 349.597C155.774 349.226 155.339 348.703 155.024 348.029C154.71 347.351 154.553 346.55 154.553 345.625C154.553 344.709 154.71 343.913 155.024 343.239C155.339 342.565 155.776 342.044 156.337 341.677C156.897 341.309 157.545 341.125 158.28 341.125C158.848 341.125 159.297 341.22 159.626 341.409C159.96 341.595 160.214 341.807 160.388 342.046C160.566 342.281 160.704 342.474 160.803 342.625H160.916V338.33H162.257V349.966H160.962V348.625H160.803C160.704 348.784 160.564 348.985 160.382 349.228C160.2 349.466 159.941 349.68 159.604 349.87C159.267 350.055 158.818 350.148 158.257 350.148ZM158.439 348.944C158.977 348.944 159.431 348.803 159.803 348.523C160.174 348.239 160.456 347.847 160.649 347.347C160.842 346.843 160.939 346.262 160.939 345.603C160.939 344.951 160.844 344.381 160.655 343.892C160.465 343.4 160.185 343.017 159.814 342.745C159.443 342.468 158.984 342.33 158.439 342.33C157.871 342.33 157.397 342.476 157.018 342.767C156.643 343.055 156.361 343.447 156.172 343.944C155.986 344.436 155.893 344.989 155.893 345.603C155.893 346.224 155.988 346.788 156.178 347.296C156.371 347.8 156.655 348.201 157.03 348.5C157.409 348.796 157.878 348.944 158.439 348.944ZM167.467 350.171C166.914 350.171 166.412 350.067 165.962 349.858C165.511 349.646 165.153 349.341 164.888 348.944C164.623 348.542 164.49 348.057 164.49 347.489C164.49 346.989 164.589 346.584 164.786 346.273C164.982 345.959 165.246 345.713 165.575 345.534C165.905 345.356 166.268 345.224 166.666 345.137C167.068 345.046 167.471 344.974 167.876 344.921C168.407 344.853 168.837 344.802 169.166 344.767C169.5 344.73 169.742 344.667 169.893 344.58C170.049 344.493 170.126 344.341 170.126 344.125V344.08C170.126 343.519 169.973 343.084 169.666 342.773C169.363 342.463 168.903 342.307 168.286 342.307C167.645 342.307 167.143 342.447 166.78 342.728C166.416 343.008 166.161 343.307 166.013 343.625L164.74 343.171C164.967 342.641 165.27 342.228 165.649 341.932C166.032 341.633 166.448 341.425 166.899 341.307C167.354 341.186 167.801 341.125 168.24 341.125C168.52 341.125 168.842 341.159 169.206 341.228C169.573 341.292 169.928 341.427 170.268 341.631C170.613 341.836 170.899 342.144 171.126 342.557C171.354 342.97 171.467 343.523 171.467 344.216V349.966H170.126V348.784H170.058C169.967 348.974 169.816 349.177 169.604 349.392C169.392 349.608 169.109 349.792 168.757 349.944C168.405 350.095 167.975 350.171 167.467 350.171ZM167.672 348.966C168.202 348.966 168.649 348.862 169.013 348.654C169.38 348.445 169.657 348.177 169.842 347.847C170.032 347.517 170.126 347.171 170.126 346.807V345.58C170.07 345.648 169.945 345.711 169.751 345.767C169.562 345.82 169.342 345.868 169.092 345.909C168.846 345.947 168.606 345.981 168.371 346.012C168.14 346.038 167.952 346.061 167.808 346.08C167.46 346.125 167.134 346.199 166.831 346.302C166.532 346.4 166.289 346.55 166.104 346.75C165.922 346.947 165.831 347.216 165.831 347.557C165.831 348.023 166.003 348.375 166.348 348.614C166.696 348.849 167.138 348.966 167.672 348.966ZM179.756 338.33V349.966H178.415V338.33H179.756ZM184.78 350.171C184.227 350.171 183.725 350.067 183.274 349.858C182.823 349.646 182.465 349.341 182.2 348.944C181.935 348.542 181.803 348.057 181.803 347.489C181.803 346.989 181.901 346.584 182.098 346.273C182.295 345.959 182.558 345.713 182.888 345.534C183.217 345.356 183.581 345.224 183.979 345.137C184.38 345.046 184.784 344.974 185.189 344.921C185.719 344.853 186.149 344.802 186.479 344.767C186.812 344.73 187.054 344.667 187.206 344.58C187.361 344.493 187.439 344.341 187.439 344.125V344.08C187.439 343.519 187.286 343.084 186.979 342.773C186.676 342.463 186.215 342.307 185.598 342.307C184.958 342.307 184.456 342.447 184.092 342.728C183.729 343.008 183.473 343.307 183.325 343.625L182.053 343.171C182.28 342.641 182.583 342.228 182.962 341.932C183.344 341.633 183.761 341.425 184.212 341.307C184.666 341.186 185.113 341.125 185.553 341.125C185.833 341.125 186.155 341.159 186.518 341.228C186.886 341.292 187.24 341.427 187.581 341.631C187.926 341.836 188.212 342.144 188.439 342.557C188.666 342.97 188.78 343.523 188.78 344.216V349.966H187.439V348.784H187.371C187.28 348.974 187.128 349.177 186.916 349.392C186.704 349.608 186.422 349.792 186.07 349.944C185.717 350.095 185.287 350.171 184.78 350.171ZM184.984 348.966C185.515 348.966 185.962 348.862 186.325 348.654C186.693 348.445 186.969 348.177 187.155 347.847C187.344 347.517 187.439 347.171 187.439 346.807V345.58C187.382 345.648 187.257 345.711 187.064 345.767C186.875 345.82 186.655 345.868 186.405 345.909C186.159 345.947 185.918 345.981 185.683 346.012C185.452 346.038 185.265 346.061 185.121 346.08C184.772 346.125 184.446 346.199 184.143 346.302C183.844 346.4 183.602 346.55 183.416 346.75C183.234 346.947 183.143 347.216 183.143 347.557C183.143 348.023 183.316 348.375 183.661 348.614C184.009 348.849 184.45 348.966 184.984 348.966ZM191.778 353.239C191.551 353.239 191.348 353.22 191.17 353.182C190.992 353.148 190.869 353.114 190.801 353.08L191.142 351.898C191.468 351.981 191.756 352.012 192.006 351.989C192.256 351.966 192.477 351.855 192.67 351.654C192.867 351.457 193.047 351.137 193.21 350.694L193.46 350.012L190.233 341.239H191.688L194.097 348.194H194.188L196.597 341.239H198.051L194.347 351.239C194.18 351.69 193.973 352.063 193.727 352.358C193.481 352.658 193.195 352.879 192.869 353.023C192.547 353.167 192.184 353.239 191.778 353.239ZM202.124 350.171C201.571 350.171 201.069 350.067 200.618 349.858C200.167 349.646 199.809 349.341 199.544 348.944C199.279 348.542 199.146 348.057 199.146 347.489C199.146 346.989 199.245 346.584 199.442 346.273C199.639 345.959 199.902 345.713 200.232 345.534C200.561 345.356 200.925 345.224 201.322 345.137C201.724 345.046 202.127 344.974 202.533 344.921C203.063 344.853 203.493 344.802 203.822 344.767C204.156 344.73 204.398 344.667 204.55 344.58C204.705 344.493 204.783 344.341 204.783 344.125V344.08C204.783 343.519 204.629 343.084 204.322 342.773C204.019 342.463 203.559 342.307 202.942 342.307C202.302 342.307 201.8 342.447 201.436 342.728C201.072 343.008 200.817 343.307 200.669 343.625L199.396 343.171C199.624 342.641 199.927 342.228 200.305 341.932C200.688 341.633 201.105 341.425 201.555 341.307C202.01 341.186 202.457 341.125 202.896 341.125C203.177 341.125 203.499 341.159 203.862 341.228C204.23 341.292 204.584 341.427 204.925 341.631C205.269 341.836 205.555 342.144 205.783 342.557C206.01 342.97 206.124 343.523 206.124 344.216V349.966H204.783V348.784H204.714C204.624 348.974 204.472 349.177 204.26 349.392C204.048 349.608 203.766 349.792 203.413 349.944C203.061 350.095 202.631 350.171 202.124 350.171ZM202.328 348.966C202.858 348.966 203.305 348.862 203.669 348.654C204.036 348.445 204.313 348.177 204.499 347.847C204.688 347.517 204.783 347.171 204.783 346.807V345.58C204.726 345.648 204.601 345.711 204.408 345.767C204.218 345.82 203.999 345.868 203.749 345.909C203.502 345.947 203.262 345.981 203.027 346.012C202.796 346.038 202.608 346.061 202.464 346.08C202.116 346.125 201.79 346.199 201.487 346.302C201.188 346.4 200.946 346.55 200.76 346.75C200.578 346.947 200.487 347.216 200.487 347.557C200.487 348.023 200.66 348.375 201.004 348.614C201.353 348.849 201.794 348.966 202.328 348.966ZM209.912 344.716V349.966H208.571V341.239H209.866V342.603H209.98C210.185 342.159 210.495 341.803 210.912 341.534C211.329 341.262 211.866 341.125 212.526 341.125C213.116 341.125 213.634 341.247 214.077 341.489C214.52 341.728 214.865 342.091 215.111 342.58C215.357 343.065 215.48 343.678 215.48 344.421V349.966H214.139V344.512C214.139 343.826 213.961 343.292 213.605 342.909C213.249 342.523 212.76 342.33 212.139 342.33C211.711 342.33 211.329 342.423 210.991 342.608C210.658 342.794 210.395 343.065 210.202 343.421C210.009 343.777 209.912 344.209 209.912 344.716ZM220.499 350.171C219.946 350.171 219.444 350.067 218.993 349.858C218.542 349.646 218.184 349.341 217.919 348.944C217.654 348.542 217.521 348.057 217.521 347.489C217.521 346.989 217.62 346.584 217.817 346.273C218.014 345.959 218.277 345.713 218.607 345.534C218.936 345.356 219.3 345.224 219.697 345.137C220.099 345.046 220.502 344.974 220.908 344.921C221.438 344.853 221.868 344.802 222.197 344.767C222.531 344.73 222.773 344.667 222.925 344.58C223.08 344.493 223.158 344.341 223.158 344.125V344.08C223.158 343.519 223.004 343.084 222.697 342.773C222.394 342.463 221.934 342.307 221.317 342.307C220.677 342.307 220.175 342.447 219.811 342.728C219.447 343.008 219.192 343.307 219.044 343.625L217.771 343.171C217.999 342.641 218.302 342.228 218.68 341.932C219.063 341.633 219.48 341.425 219.93 341.307C220.385 341.186 220.832 341.125 221.271 341.125C221.552 341.125 221.874 341.159 222.237 341.228C222.605 341.292 222.959 341.427 223.3 341.631C223.644 341.836 223.93 342.144 224.158 342.557C224.385 342.97 224.499 343.523 224.499 344.216V349.966H223.158V348.784H223.089C222.999 348.974 222.847 349.177 222.635 349.392C222.423 349.608 222.141 349.792 221.788 349.944C221.436 350.095 221.006 350.171 220.499 350.171ZM220.703 348.966C221.233 348.966 221.68 348.862 222.044 348.654C222.411 348.445 222.688 348.177 222.874 347.847C223.063 347.517 223.158 347.171 223.158 346.807V345.58C223.101 345.648 222.976 345.711 222.783 345.767C222.593 345.82 222.374 345.868 222.124 345.909C221.877 345.947 221.637 345.981 221.402 346.012C221.171 346.038 220.983 346.061 220.839 346.08C220.491 346.125 220.165 346.199 219.862 346.302C219.563 346.4 219.321 346.55 219.135 346.75C218.953 346.947 218.862 347.216 218.862 347.557C218.862 348.023 219.035 348.375 219.379 348.614C219.728 348.849 220.169 348.966 220.703 348.966ZM228.287 344.716V349.966H226.946V341.239H228.241V342.603H228.355C228.56 342.159 228.87 341.803 229.287 341.534C229.704 341.262 230.241 341.125 230.901 341.125C231.491 341.125 232.009 341.247 232.452 341.489C232.895 341.728 233.24 342.091 233.486 342.58C233.732 343.065 233.855 343.678 233.855 344.421V349.966H232.514V344.512C232.514 343.826 232.336 343.292 231.98 342.909C231.624 342.523 231.135 342.33 230.514 342.33C230.086 342.33 229.704 342.423 229.366 342.608C229.033 342.794 228.77 343.065 228.577 343.421C228.384 343.777 228.287 344.209 228.287 344.716ZM241.669 353.239C241.442 353.239 241.239 353.22 241.061 353.182C240.883 353.148 240.76 353.114 240.692 353.08L241.033 351.898C241.358 351.981 241.646 352.012 241.896 351.989C242.146 351.966 242.368 351.855 242.561 351.654C242.758 351.457 242.938 351.137 243.101 350.694L243.351 350.012L240.124 341.239H241.578L243.987 348.194H244.078L246.487 341.239H247.942L244.237 351.239C244.071 351.69 243.864 352.063 243.618 352.358C243.372 352.658 243.086 352.879 242.76 353.023C242.438 353.167 242.074 353.239 241.669 353.239ZM252.014 350.171C251.461 350.171 250.959 350.067 250.509 349.858C250.058 349.646 249.7 349.341 249.435 348.944C249.17 348.542 249.037 348.057 249.037 347.489C249.037 346.989 249.135 346.584 249.332 346.273C249.529 345.959 249.793 345.713 250.122 345.534C250.452 345.356 250.815 345.224 251.213 345.137C251.615 345.046 252.018 344.974 252.423 344.921C252.954 344.853 253.384 344.802 253.713 344.767C254.046 344.73 254.289 344.667 254.44 344.58C254.596 344.493 254.673 344.341 254.673 344.125V344.08C254.673 343.519 254.52 343.084 254.213 342.773C253.91 342.463 253.45 342.307 252.832 342.307C252.192 342.307 251.69 342.447 251.327 342.728C250.963 343.008 250.707 343.307 250.56 343.625L249.287 343.171C249.514 342.641 249.817 342.228 250.196 341.932C250.579 341.633 250.995 341.425 251.446 341.307C251.901 341.186 252.348 341.125 252.787 341.125C253.067 341.125 253.389 341.159 253.753 341.228C254.12 341.292 254.474 341.427 254.815 341.631C255.16 341.836 255.446 342.144 255.673 342.557C255.901 342.97 256.014 343.523 256.014 344.216V349.966H254.673V348.784H254.605C254.514 348.974 254.363 349.177 254.151 349.392C253.938 349.608 253.656 349.792 253.304 349.944C252.952 350.095 252.522 350.171 252.014 350.171ZM252.219 348.966C252.749 348.966 253.196 348.862 253.56 348.654C253.927 348.445 254.204 348.177 254.389 347.847C254.579 347.517 254.673 347.171 254.673 346.807V345.58C254.616 345.648 254.491 345.711 254.298 345.767C254.109 345.82 253.889 345.868 253.639 345.909C253.393 345.947 253.152 345.981 252.918 346.012C252.687 346.038 252.499 346.061 252.355 346.08C252.007 346.125 251.681 346.199 251.378 346.302C251.079 346.4 250.836 346.55 250.651 346.75C250.469 346.947 250.378 347.216 250.378 347.557C250.378 348.023 250.55 348.375 250.895 348.614C251.243 348.849 251.685 348.966 252.219 348.966ZM259.803 344.716V349.966H258.462V341.239H259.757V342.603H259.871C260.075 342.159 260.386 341.803 260.803 341.534C261.219 341.262 261.757 341.125 262.416 341.125C263.007 341.125 263.524 341.247 263.967 341.489C264.411 341.728 264.755 342.091 265.001 342.58C265.248 343.065 265.371 343.678 265.371 344.421V349.966H264.03V344.512C264.03 343.826 263.852 343.292 263.496 342.909C263.14 342.523 262.651 342.33 262.03 342.33C261.602 342.33 261.219 342.423 260.882 342.608C260.549 342.794 260.286 343.065 260.092 343.421C259.899 343.777 259.803 344.209 259.803 344.716ZM271.344 353.421C270.696 353.421 270.139 353.338 269.673 353.171C269.207 353.008 268.819 352.792 268.509 352.523C268.202 352.258 267.957 351.974 267.776 351.671L268.844 350.921C268.965 351.08 269.118 351.262 269.304 351.466C269.49 351.675 269.743 351.855 270.065 352.006C270.391 352.161 270.817 352.239 271.344 352.239C272.048 352.239 272.63 352.069 273.088 351.728C273.546 351.387 273.776 350.853 273.776 350.125V348.353H273.662C273.563 348.512 273.423 348.709 273.241 348.944C273.063 349.175 272.806 349.381 272.469 349.563C272.135 349.741 271.685 349.83 271.116 349.83C270.412 349.83 269.779 349.663 269.219 349.33C268.662 348.997 268.221 348.512 267.895 347.875C267.573 347.239 267.412 346.466 267.412 345.557C267.412 344.663 267.569 343.885 267.884 343.222C268.198 342.555 268.635 342.04 269.196 341.677C269.757 341.309 270.404 341.125 271.139 341.125C271.707 341.125 272.158 341.22 272.491 341.409C272.829 341.595 273.086 341.807 273.264 342.046C273.446 342.281 273.586 342.474 273.685 342.625H273.821V341.239H275.116V350.216C275.116 350.966 274.946 351.576 274.605 352.046C274.268 352.519 273.813 352.866 273.241 353.086C272.673 353.309 272.041 353.421 271.344 353.421ZM271.298 348.625C271.836 348.625 272.291 348.502 272.662 348.256C273.033 348.01 273.315 347.656 273.509 347.194C273.702 346.731 273.798 346.178 273.798 345.534C273.798 344.906 273.704 344.351 273.514 343.87C273.325 343.389 273.045 343.012 272.673 342.739C272.302 342.466 271.844 342.33 271.298 342.33C270.73 342.33 270.257 342.474 269.878 342.762C269.503 343.05 269.221 343.436 269.031 343.921C268.846 344.406 268.753 344.944 268.753 345.534C268.753 346.141 268.848 346.677 269.037 347.142C269.23 347.605 269.514 347.968 269.889 348.233C270.268 348.495 270.738 348.625 271.298 348.625ZM285.366 350.148C284.639 350.148 283.997 349.964 283.44 349.597C282.884 349.226 282.448 348.703 282.134 348.029C281.819 347.351 281.662 346.55 281.662 345.625C281.662 344.709 281.819 343.913 282.134 343.239C282.448 342.565 282.885 342.044 283.446 341.677C284.007 341.309 284.654 341.125 285.389 341.125C285.957 341.125 286.406 341.22 286.736 341.409C287.069 341.595 287.323 341.807 287.497 342.046C287.675 342.281 287.813 342.474 287.912 342.625H288.026V338.33H289.366V349.966H288.071V348.625H287.912C287.813 348.784 287.673 348.985 287.491 349.228C287.31 349.466 287.05 349.68 286.713 349.87C286.376 350.055 285.927 350.148 285.366 350.148ZM285.548 348.944C286.086 348.944 286.541 348.803 286.912 348.523C287.283 348.239 287.565 347.847 287.759 347.347C287.952 346.843 288.048 346.262 288.048 345.603C288.048 344.951 287.954 344.381 287.764 343.892C287.575 343.4 287.295 343.017 286.923 342.745C286.552 342.468 286.094 342.33 285.548 342.33C284.98 342.33 284.507 342.476 284.128 342.767C283.753 343.055 283.471 343.447 283.281 343.944C283.096 344.436 283.003 344.989 283.003 345.603C283.003 346.224 283.098 346.788 283.287 347.296C283.48 347.8 283.764 348.201 284.139 348.5C284.518 348.796 284.988 348.944 285.548 348.944ZM292.009 349.966V341.239H293.349V349.966H292.009ZM292.69 339.784C292.429 339.784 292.204 339.695 292.014 339.517C291.829 339.339 291.736 339.125 291.736 338.875C291.736 338.625 291.829 338.411 292.014 338.233C292.204 338.055 292.429 337.966 292.69 337.966C292.952 337.966 293.175 338.055 293.361 338.233C293.55 338.411 293.645 338.625 293.645 338.875C293.645 339.125 293.55 339.339 293.361 339.517C293.175 339.695 292.952 339.784 292.69 339.784ZM299.601 341.239V342.375H295.078V341.239H299.601ZM296.396 339.148H297.737V347.466C297.737 347.845 297.792 348.129 297.902 348.319C298.016 348.504 298.16 348.629 298.334 348.694C298.512 348.754 298.699 348.784 298.896 348.784C299.044 348.784 299.165 348.777 299.26 348.762C299.355 348.743 299.43 348.728 299.487 348.716L299.76 349.921C299.669 349.955 299.542 349.989 299.379 350.023C299.216 350.061 299.01 350.08 298.76 350.08C298.381 350.08 298.01 349.999 297.646 349.836C297.286 349.673 296.987 349.425 296.749 349.091C296.514 348.758 296.396 348.338 296.396 347.83V339.148ZM304.186 350.171C303.633 350.171 303.131 350.067 302.68 349.858C302.23 349.646 301.872 349.341 301.607 348.944C301.341 348.542 301.209 348.057 301.209 347.489C301.209 346.989 301.307 346.584 301.504 346.273C301.701 345.959 301.964 345.713 302.294 345.534C302.624 345.356 302.987 345.224 303.385 345.137C303.786 345.046 304.19 344.974 304.595 344.921C305.125 344.853 305.555 344.802 305.885 344.767C306.218 344.73 306.461 344.667 306.612 344.58C306.768 344.493 306.845 344.341 306.845 344.125V344.08C306.845 343.519 306.692 343.084 306.385 342.773C306.082 342.463 305.622 342.307 305.004 342.307C304.364 342.307 303.862 342.447 303.499 342.728C303.135 343.008 302.879 343.307 302.732 343.625L301.459 343.171C301.686 342.641 301.989 342.228 302.368 341.932C302.75 341.633 303.167 341.425 303.618 341.307C304.072 341.186 304.519 341.125 304.959 341.125C305.239 341.125 305.561 341.159 305.925 341.228C306.292 341.292 306.646 341.427 306.987 341.631C307.332 341.836 307.618 342.144 307.845 342.557C308.072 342.97 308.186 343.523 308.186 344.216V349.966H306.845V348.784H306.777C306.686 348.974 306.535 349.177 306.322 349.392C306.11 349.608 305.828 349.792 305.476 349.944C305.124 350.095 304.694 350.171 304.186 350.171ZM304.391 348.966C304.921 348.966 305.368 348.862 305.732 348.654C306.099 348.445 306.375 348.177 306.561 347.847C306.75 347.517 306.845 347.171 306.845 346.807V345.58C306.788 345.648 306.663 345.711 306.47 345.767C306.281 345.82 306.061 345.868 305.811 345.909C305.565 345.947 305.324 345.981 305.089 346.012C304.858 346.038 304.671 346.061 304.527 346.08C304.179 346.125 303.853 346.199 303.55 346.302C303.25 346.4 303.008 346.55 302.822 346.75C302.641 346.947 302.55 347.216 302.55 347.557C302.55 348.023 302.722 348.375 303.067 348.614C303.415 348.849 303.857 348.966 304.391 348.966ZM310.634 349.966V341.239H311.929V342.603H312.043C312.224 342.137 312.518 341.775 312.923 341.517C313.329 341.256 313.815 341.125 314.384 341.125C314.959 341.125 315.438 341.256 315.821 341.517C316.207 341.775 316.509 342.137 316.724 342.603H316.815C317.039 342.152 317.374 341.794 317.821 341.529C318.268 341.26 318.804 341.125 319.429 341.125C320.209 341.125 320.848 341.37 321.344 341.858C321.84 342.343 322.088 343.099 322.088 344.125V349.966H320.747V344.125C320.747 343.481 320.571 343.021 320.219 342.745C319.866 342.468 319.452 342.33 318.974 342.33C318.361 342.33 317.885 342.516 317.548 342.887C317.211 343.254 317.043 343.72 317.043 344.284V349.966H315.679V343.989C315.679 343.493 315.518 343.093 315.196 342.79C314.874 342.483 314.459 342.33 313.952 342.33C313.603 342.33 313.277 342.423 312.974 342.608C312.675 342.794 312.433 343.052 312.247 343.381C312.065 343.707 311.974 344.084 311.974 344.512V349.966H310.634ZM324.722 349.966V338.33H326.062V342.625H326.176C326.275 342.474 326.411 342.281 326.585 342.046C326.763 341.807 327.017 341.595 327.347 341.409C327.68 341.22 328.131 341.125 328.699 341.125C329.434 341.125 330.081 341.309 330.642 341.677C331.203 342.044 331.64 342.565 331.955 343.239C332.269 343.913 332.426 344.709 332.426 345.625C332.426 346.55 332.269 347.351 331.955 348.029C331.64 348.703 331.205 349.226 330.648 349.597C330.091 349.964 329.449 350.148 328.722 350.148C328.161 350.148 327.712 350.055 327.375 349.87C327.038 349.68 326.778 349.466 326.597 349.228C326.415 348.985 326.275 348.784 326.176 348.625H326.017V349.966H324.722ZM326.04 345.603C326.04 346.262 326.136 346.843 326.33 347.347C326.523 347.847 326.805 348.239 327.176 348.523C327.547 348.803 328.002 348.944 328.54 348.944C329.1 348.944 329.568 348.796 329.943 348.5C330.322 348.201 330.606 347.8 330.795 347.296C330.989 346.788 331.085 346.224 331.085 345.603C331.085 344.989 330.991 344.436 330.801 343.944C330.616 343.447 330.333 343.055 329.955 342.767C329.58 342.476 329.108 342.33 328.54 342.33C327.994 342.33 327.536 342.468 327.165 342.745C326.794 343.017 326.513 343.4 326.324 343.892C326.134 344.381 326.04 344.951 326.04 345.603ZM337.045 350.171C336.492 350.171 335.991 350.067 335.54 349.858C335.089 349.646 334.731 349.341 334.466 348.944C334.201 348.542 334.068 348.057 334.068 347.489C334.068 346.989 334.167 346.584 334.364 346.273C334.561 345.959 334.824 345.713 335.153 345.534C335.483 345.356 335.847 345.224 336.244 345.137C336.646 345.046 337.049 344.974 337.455 344.921C337.985 344.853 338.415 344.802 338.744 344.767C339.078 344.73 339.32 344.667 339.472 344.58C339.627 344.493 339.705 344.341 339.705 344.125V344.08C339.705 343.519 339.551 343.084 339.244 342.773C338.941 342.463 338.481 342.307 337.864 342.307C337.223 342.307 336.722 342.447 336.358 342.728C335.994 343.008 335.739 343.307 335.591 343.625L334.318 343.171C334.545 342.641 334.848 342.228 335.227 341.932C335.61 341.633 336.027 341.425 336.477 341.307C336.932 341.186 337.379 341.125 337.818 341.125C338.098 341.125 338.42 341.159 338.784 341.228C339.152 341.292 339.506 341.427 339.847 341.631C340.191 341.836 340.477 342.144 340.705 342.557C340.932 342.97 341.045 343.523 341.045 344.216V349.966H339.705V348.784H339.636C339.545 348.974 339.394 349.177 339.182 349.392C338.97 349.608 338.688 349.792 338.335 349.944C337.983 350.095 337.553 350.171 337.045 350.171ZM337.25 348.966C337.78 348.966 338.227 348.862 338.591 348.654C338.958 348.445 339.235 348.177 339.42 347.847C339.61 347.517 339.705 347.171 339.705 346.807V345.58C339.648 345.648 339.523 345.711 339.33 345.767C339.14 345.82 338.92 345.868 338.67 345.909C338.424 345.947 338.184 345.981 337.949 346.012C337.718 346.038 337.53 346.061 337.386 346.08C337.038 346.125 336.712 346.199 336.409 346.302C336.11 346.4 335.867 346.55 335.682 346.75C335.5 346.947 335.409 347.216 335.409 347.557C335.409 348.023 335.581 348.375 335.926 348.614C336.275 348.849 336.716 348.966 337.25 348.966ZM344.834 344.716V349.966H343.493V338.33H344.834V342.603H344.947C345.152 342.152 345.459 341.794 345.868 341.529C346.281 341.26 346.83 341.125 347.516 341.125C348.11 341.125 348.631 341.245 349.078 341.483C349.525 341.718 349.872 342.08 350.118 342.569C350.368 343.053 350.493 343.671 350.493 344.421V349.966H349.152V344.512C349.152 343.819 348.972 343.283 348.612 342.904C348.256 342.521 347.762 342.33 347.129 342.33C346.69 342.33 346.296 342.423 345.947 342.608C345.603 342.794 345.33 343.065 345.129 343.421C344.932 343.777 344.834 344.209 344.834 344.716Z" fill="#CACACA"/>
</svg>
