<svg width="356" height="350" viewBox="0 0 356 350" fill="none" xmlns="http://www.w3.org/2000/svg">
<path d="M52.1692 174.479C-17.3207 214.575 -17.3207 279.652 52.1768 319.77C121.674 359.889 234.34 359.896 303.83 319.77C373.32 279.644 373.32 214.598 303.83 174.479C234.34 134.361 121.659 134.361 52.1692 174.479Z" fill="#FAFAFA"/>
<path d="M342.981 174.972L341.045 176.124L277.113 139.207L279.049 138.047L342.981 174.972Z" fill="#FAFAFA"/>
<path d="M279.047 138.047L341.043 173.842V44.3742L279.047 8.59375V138.047Z" fill="white"/>
<path d="M273.459 141.313L344.696 182.449V42.2638L273.459 1.12109V141.313ZM277.112 7.46985L341.044 44.3725V176.122L277.112 139.22V7.46985Z" fill="#F5F5F5"/>
<path d="M277.113 139.207L279.049 138.047V8.59424L277.113 7.45703V139.207Z" fill="#E0E0E0"/>
<path d="M341.045 128.541V130.808L277.113 93.8905L279.049 92.7383L341.045 128.541Z" fill="#FAFAFA"/>
<path d="M341.045 83.2054V85.4798L277.113 48.5621L279.049 47.4023L341.045 83.2054Z" fill="#FAFAFA"/>
<path d="M273.459 1.12214L275.425 0L346.662 41.1351L344.696 42.2648L273.459 1.12214Z" fill="#FAFAFA"/>
<path d="M346.661 41.1367L344.695 42.2664V182.451L346.661 181.329V41.1367Z" fill="#E0E0E0"/>
<path d="M312.87 28.1062L310.904 26.9766V158.726L312.87 157.604V28.1062Z" fill="#E0E0E0"/>
<path d="M307.252 24.875L310.905 26.9762V158.726L307.252 156.61V24.875Z" fill="#F5F5F5"/>
<path d="M273.459 46.4492V50.6591L344.696 91.8018V87.5844L273.459 46.4492Z" fill="#F5F5F5"/>
<path d="M273.459 91.7773V95.9873L344.696 137.13V132.912L273.459 91.7773Z" fill="#F5F5F5"/>
<path d="M310.904 68.075L312.87 66.9453L341.044 83.2051V85.4795L310.904 68.075Z" fill="#FAFAFA"/>
<path d="M310.904 113.391L312.87 112.254L341.044 128.521V130.788L310.904 113.391Z" fill="#FAFAFA"/>
<path d="M8.57031 135.407L10.0841 136.311L41.0296 118.439L39.5233 117.543L8.57031 135.407Z" fill="#FAFAFA"/>
<path d="M39.5233 117.544L10.084 134.534V50.4788L39.5233 33.4961V117.544Z" fill="white"/>
<path d="M43.8754 27.6914L7.23633 48.8389V141.239L43.8754 120.084V27.6914ZM41.0286 118.442L10.0605 136.313V50.4581L41.0286 32.6168V118.442Z" fill="#F0F0F0"/>
<path d="M41.0336 118.438L39.5273 117.542V33.4944L41.0336 32.6133V118.438Z" fill="#E0E0E0"/>
<path d="M43.8769 27.6897L42.3405 26.8086L5.70898 47.9636L7.23781 48.8372L43.8769 27.6897Z" fill="#FAFAFA"/>
<path d="M5.70898 47.9648L7.23781 48.8385V141.238L5.70898 140.365V47.9648Z" fill="#E0E0E0"/>
<path d="M37.3075 115.784L12.2891 130.229V53.1479L37.3075 38.7031V115.784Z" fill="#F0F0F0"/>
<path d="M37.3075 115.784L12.2891 130.229V53.1479L37.3075 38.7031V115.784Z" fill="#F0F0F0"/>
<path d="M12.3195 105.962C13.51 106.056 14.7062 106.056 15.8968 105.962C20.0623 105.65 24.1638 104.758 28.0822 103.311C31.0946 102.196 34.1071 100.743 37.3379 100.652V115.813L33.9489 117.771C32.6209 116.544 31.0205 115.651 29.2796 115.165C24.4522 113.9 19.4891 116.325 14.5562 116.889C13.806 116.972 13.0516 117.01 12.2969 117.002L12.3195 105.962Z" fill="#FAFAFA"/>
<path d="M12.3184 83.5353C17.914 81.8784 23.6603 80.5228 27.6518 76.3958C30.8751 73.082 32.3889 68.4956 33.4508 63.9995C34.5127 59.5034 35.2356 54.8642 37.2766 50.7221C37.2766 50.6769 37.3218 50.6392 37.3368 50.6016V79.2726C37.0281 79.7396 36.7118 80.214 36.3804 80.6659C32.7052 85.644 27.2828 89.8087 21.1072 90.125C18.2002 90.2757 15.1953 89.5979 12.3184 89.6054V83.5353Z" fill="#FAFAFA"/>
<path d="M12.3184 66.8767C14.4783 64.9685 16.1196 62.544 17.0889 59.8298C18.0582 57.1155 18.3239 54.1998 17.8613 51.355C17.786 50.9333 17.6881 50.5191 17.5826 50.1049L27.2074 44.5469C27.1723 45.1845 27.1422 45.8171 27.1171 46.4447C27.0192 50.1275 27.1171 53.8478 26.364 57.4327C25.6504 60.4488 24.2956 63.2759 22.3918 65.7217C20.4879 68.1674 18.0797 70.1745 15.3308 71.6063C14.3624 72.1085 13.355 72.5316 12.3184 72.8715V66.8767Z" fill="#FAFAFA"/>
<path d="M53.2891 109.749L54.7802 110.638L85.4245 92.947L83.9333 92.0508L53.2891 109.749Z" fill="#FAFAFA"/>
<path d="M83.9324 92.0514L54.7793 108.883V78.3522L83.9324 61.5352V92.0514Z" fill="white"/>
<path d="M88.248 55.7734L51.9629 76.7628V115.556L88.248 94.604V55.7734ZM85.4238 92.9472L54.7795 110.653V78.3518L85.4238 60.6612V92.9472Z" fill="#F0F0F0"/>
<path d="M85.4248 92.9462L83.9336 92.05V61.5338L85.4248 60.6602V92.9462Z" fill="#E0E0E0"/>
<path d="M88.2481 55.7799L86.7268 54.9062L50.4492 75.8579L51.963 76.724L88.2481 55.7799Z" fill="#FAFAFA"/>
<path d="M50.4492 75.8594L51.963 76.7255V115.518L50.4492 114.652V75.8594Z" fill="#E0E0E0"/>
<path d="M82.7986 91.1378L55.9199 106.652V98.8949L62.6377 83.3807L66.825 87.2593L65.3188 93.7586L74.6047 73.9141L82.7986 83.3807V91.1378Z" fill="#F0F0F0"/>
<path d="M66.5449 75.8844C65.9661 76.2613 65.4845 76.7694 65.139 77.3674C64.7935 77.9654 64.594 78.6365 64.5566 79.3261C64.5566 80.5914 65.4453 81.111 66.5449 80.4784C67.1229 80.099 67.6039 79.5893 67.9492 78.9903C68.2945 78.3912 68.4945 77.7195 68.5331 77.0291C68.5632 75.7639 67.667 75.2518 66.5449 75.8844Z" fill="#F0F0F0"/>
<path d="M53.2891 57.2021L54.7802 58.0908L85.4245 40.4001L83.9333 39.5039L53.2891 57.2021Z" fill="#FAFAFA"/>
<path d="M83.9324 39.5045L54.7793 56.3366V25.8053L83.9324 8.98828V39.5045Z" fill="white"/>
<path d="M88.248 3.23438L51.9629 24.1785V62.9715L88.248 42.0273V3.23438ZM85.4238 40.4006L54.7795 58.0913V25.8052L85.4238 8.11456V40.4006Z" fill="#F0F0F0"/>
<path d="M85.4248 40.3993L83.9336 39.5031V8.98689L85.4248 8.11328V40.3993Z" fill="#E0E0E0"/>
<path d="M88.2481 3.22546L86.7268 2.35938L50.4492 23.311L51.963 24.1771L88.2481 3.22546Z" fill="#FAFAFA"/>
<path d="M50.4492 23.3125L51.963 24.1786V62.9715L50.4492 62.1055V23.3125Z" fill="#E0E0E0"/>
<path d="M82.7986 38.5909L55.9199 54.1126V46.348L62.6377 30.8338L66.825 34.7124L65.3188 41.2193L74.6047 21.3672L82.7986 30.8338V38.5909Z" fill="#F0F0F0"/>
<path d="M66.5449 23.3373C65.9661 23.7142 65.4845 24.2223 65.139 24.8203C64.7935 25.4184 64.594 26.0894 64.5566 26.7791C64.5566 28.0518 65.4453 28.564 66.5449 27.9313C67.1219 27.5527 67.6023 27.0442 67.9476 26.4465C68.2928 25.8489 68.4934 25.1787 68.5331 24.4896C68.5632 23.2168 67.667 22.7047 66.5449 23.3373Z" fill="#F0F0F0"/>
<path d="M38.1147 280.948L5.53493 262.18C5.37096 262.122 5.2291 262.014 5.12878 261.872C5.02846 261.73 4.97461 261.56 4.97461 261.386C4.97461 261.212 5.02846 261.042 5.12878 260.9C5.2291 260.757 5.37096 260.65 5.53493 260.591L86.0429 213.943C86.4673 213.726 86.937 213.613 87.4136 213.613C87.8901 213.613 88.3599 213.726 88.7842 213.943L121.356 232.711C121.524 232.766 121.67 232.872 121.773 233.015C121.877 233.157 121.933 233.329 121.933 233.505C121.933 233.682 121.877 233.853 121.773 233.996C121.67 234.139 121.524 234.245 121.356 234.3L40.856 280.948C40.4317 281.165 39.9619 281.278 39.4854 281.278C39.0088 281.278 38.539 281.165 38.1147 280.948Z" fill="#E6E6E6"/>
<path d="M327.568 277.251C337.26 282.915 337.26 292.095 327.568 297.751C317.875 303.407 302.143 303.415 292.45 297.751C282.757 292.088 282.75 282.915 292.45 277.251C302.15 271.588 317.868 271.588 327.568 277.251Z" fill="#E0E0E0"/>
<path d="M110.475 327.553C137.349 327.553 159.134 314.977 159.134 299.462C159.134 283.948 137.349 271.371 110.475 271.371C83.6017 271.371 61.8164 283.948 61.8164 299.462C61.8164 314.977 83.6017 327.553 110.475 327.553Z" fill="#E0E0E0"/>
<path d="M295.109 289.614C287.141 281.397 282.457 255.467 290.229 248.945H329.782C337.555 255.467 332.878 281.382 324.917 289.614C324.842 289.696 324.767 289.764 324.699 289.847L324.42 290.118C324.194 290.336 323.961 290.547 323.705 290.766L323.509 290.916C323.313 291.067 323.125 291.225 322.906 291.376C322.577 291.614 322.235 291.835 321.882 292.039C315.323 295.864 304.696 295.864 298.137 292.039C297.778 291.834 297.431 291.61 297.097 291.368C296.901 291.225 296.721 291.082 296.54 290.939L296.306 290.751C296.063 290.556 295.832 290.347 295.614 290.126C295.503 290.028 295.397 289.925 295.297 289.817L295.109 289.614Z" fill="#EBEBEB"/>
<path d="M326.364 246.326C335.402 251.598 335.402 260.131 326.364 265.402C317.327 270.674 302.709 270.674 293.686 265.402C284.664 260.131 284.649 251.59 293.686 246.326C302.724 241.062 317.327 241.054 326.364 246.326Z" fill="#FAFAFA"/>
<path d="M322.011 248.856C328.639 252.727 328.639 259.001 322.011 262.872C315.384 266.743 304.637 266.735 298.01 262.872C291.382 259.008 291.382 252.727 298.01 248.856C304.637 244.985 315.384 244.985 322.011 248.856Z" fill="#EBEBEB"/>
<path d="M298.008 255.509C304.635 251.638 315.382 251.638 322.01 255.509C323.615 256.391 324.978 257.656 325.979 259.191C324.978 260.727 323.615 261.991 322.01 262.874C315.382 266.738 304.635 266.738 298.008 262.874C296.402 261.991 295.039 260.727 294.039 259.191C295.039 257.656 296.402 256.391 298.008 255.509Z" fill="white"/>
<path d="M304.593 217.484C301.927 220.865 293.906 222.349 289.907 214.079C286.142 206.33 282.195 199.017 281.005 196.155C279.816 193.293 282.64 192.111 282.64 192.111C282.64 192.111 282.534 187.705 290.171 190.115C297.807 192.525 303.426 196.63 307.229 203.671C311.032 210.713 309.503 216.128 304.593 217.484Z" fill="#F0F0F0"/>
<path d="M308.675 228.498C308.43 227.017 308.1 225.551 307.689 224.108C306.854 221.242 305.812 218.44 304.571 215.725C302.044 210.192 298.731 205.053 294.735 200.467C292.511 197.854 290.048 195.454 287.377 193.298C287.294 193.237 287.249 193.411 287.302 193.463C291.817 197.532 295.764 202.191 299.035 207.313C302.193 212.354 304.681 217.785 306.439 223.467C306.928 225.057 307.403 226.661 307.824 228.272C308.246 229.884 308.577 231.571 308.954 233.205C308.999 233.371 309.263 233.454 309.263 233.205C309.182 231.624 308.986 230.051 308.675 228.498Z" fill="#E0E0E0"/>
<path opacity="0.1" d="M308.675 228.498C308.43 227.017 308.1 225.551 307.689 224.108C306.854 221.242 305.812 218.44 304.571 215.725C302.044 210.192 298.731 205.053 294.735 200.467C292.511 197.854 290.048 195.454 287.377 193.298C287.294 193.237 287.249 193.411 287.302 193.463C291.817 197.532 295.764 202.191 299.035 207.313C302.193 212.354 304.681 217.785 306.439 223.467C306.928 225.057 307.403 226.661 307.824 228.272C308.246 229.884 308.577 231.571 308.954 233.205C308.999 233.371 309.263 233.454 309.263 233.205C309.182 231.624 308.986 230.051 308.675 228.498Z" fill="black"/>
<path d="M313.451 207.54C306.191 208.15 302.305 201.741 305.882 193.803C309.459 185.865 320.191 178.545 322.978 181.753C325.493 180.149 329.876 181.881 330.509 189.111C331.141 196.341 325.433 213.263 313.451 207.54Z" fill="#E0E0E0"/>
<path d="M317.374 189.512C315.399 194.464 313.852 199.576 312.749 204.793C311.563 210.082 310.666 215.432 310.061 220.819C308.811 231.227 308.6 230.647 308.668 241.153C308.668 244.055 308.705 246.952 308.78 249.844C308.841 252.857 308.78 255.869 309.052 258.814C309.15 259.958 310.769 259.65 310.784 258.61C310.889 253.391 310.603 248.15 310.55 242.93C310.498 237.711 310.513 243.684 310.648 238.562C310.825 228.05 311.766 217.564 313.465 207.188C313.962 204.303 314.512 201.419 315.182 198.564C315.89 195.552 316.763 192.607 317.547 189.625C317.584 189.512 317.441 189.354 317.374 189.512Z" fill="#E0E0E0"/>
<path opacity="0.1" d="M317.374 189.512C315.399 194.464 313.852 199.576 312.749 204.793C311.563 210.082 310.666 215.432 310.061 220.819C308.811 231.227 308.6 230.647 308.668 241.153C308.668 244.055 308.705 246.952 308.78 249.844C308.841 252.857 308.78 255.869 309.052 258.814C309.15 259.958 310.769 259.65 310.784 258.61C310.889 253.391 310.603 248.15 310.55 242.93C310.498 237.711 310.513 243.684 310.648 238.562C310.825 228.05 311.766 217.564 313.465 207.188C313.962 204.303 314.512 201.419 315.182 198.564C315.89 195.552 316.763 192.607 317.547 189.625C317.584 189.512 317.441 189.354 317.374 189.512Z" fill="black"/>
<path d="M297.183 234.595C296.294 239.114 290.119 242.352 282.987 239.4C275.855 236.448 261.794 217.914 268.218 215.865C267.864 212.506 287.294 209.743 296.904 221.582C303.893 230.197 297.183 234.595 297.183 234.595Z" fill="#E0E0E0"/>
<path d="M307.379 241.281C306.485 240.157 305.519 239.093 304.487 238.095C298.155 231.81 290.868 226.569 282.895 222.566C279.959 220.997 276.925 219.618 273.812 218.439C273.722 218.401 273.76 218.574 273.812 218.597C276.403 219.825 279.009 221.015 281.517 222.415C284.106 223.877 286.619 225.468 289.048 227.183C293.752 230.454 298.194 234.087 302.333 238.05C303.5 239.18 304.592 240.362 305.805 241.477C307.017 242.591 308.358 243.736 309.533 244.911C309.706 245.084 310.015 245.009 309.826 244.753C309.043 243.601 308.29 242.403 307.379 241.281Z" fill="#E0E0E0"/>
<path opacity="0.1" d="M307.379 241.281C306.485 240.157 305.519 239.093 304.487 238.095C298.155 231.81 290.868 226.569 282.895 222.566C279.959 220.997 276.925 219.618 273.812 218.439C273.722 218.401 273.76 218.574 273.812 218.597C276.403 219.825 279.009 221.015 281.517 222.415C284.106 223.877 286.619 225.468 289.048 227.183C293.752 230.454 298.194 234.087 302.333 238.05C303.5 239.18 304.592 240.362 305.805 241.477C307.017 242.591 308.358 243.736 309.533 244.911C309.706 245.084 310.015 245.009 309.826 244.753C309.043 243.601 308.29 242.403 307.379 241.281Z" fill="black"/>
<path d="M314.797 242.763C311.031 241.114 311.784 236.384 317.764 231.572C323.744 226.76 336.539 226.617 336.66 229.162C339.394 229.689 337.744 238.252 330.175 244.977C322.607 251.703 314.142 248.118 314.797 242.763Z" fill="#E0E0E0"/>
<path d="M324.106 235.863C318.239 238.456 313.31 242.789 309.985 248.275C309.789 248.583 310.271 249.186 310.482 248.847C313.824 243.434 318.52 238.988 324.106 235.946C324.106 235.923 324.106 235.841 324.106 235.863Z" fill="#E0E0E0"/>
<path opacity="0.1" d="M324.106 235.863C318.239 238.456 313.31 242.789 309.985 248.275C309.789 248.583 310.271 249.186 310.482 248.847C313.824 243.434 318.52 238.988 324.106 235.946C324.106 235.923 324.106 235.841 324.106 235.863Z" fill="black"/>
<path d="M315.567 250.994C311.236 255.249 316.019 260.521 323.038 263.127C330.057 265.732 337.829 263.97 341.218 262.283C344.607 260.596 345.3 259.745 345.3 259.745C345.3 259.745 343.643 254.164 341.715 251.152C339.857 248.239 337.199 245.922 334.059 244.478C330.92 243.034 327.431 242.525 324.009 243.011C315.017 244.163 314.317 247.899 315.567 250.994Z" fill="#F0F0F0"/>
<path d="M333.73 254.194C330.213 252.491 326.591 250.857 322.727 250.112C318.864 249.366 314.33 249.359 311.28 252.04C310.097 253.079 308.531 255.331 309.487 256.927C309.585 257.086 310.06 257.387 310.165 257.07C310.384 256.052 310.71 255.06 311.137 254.111C311.704 253.173 312.516 252.407 313.486 251.897C315.955 250.673 318.728 250.201 321.462 250.541C325.747 250.955 329.784 252.672 333.73 254.307C333.768 254.307 333.768 254.209 333.73 254.194Z" fill="#E0E0E0"/>
<path opacity="0.1" d="M333.73 254.194C330.213 252.491 326.591 250.857 322.727 250.112C318.864 249.366 314.33 249.359 311.28 252.04C310.097 253.079 308.531 255.331 309.487 256.927C309.585 257.086 310.06 257.387 310.165 257.07C310.384 256.052 310.71 255.06 311.137 254.111C311.704 253.173 312.516 252.407 313.486 251.897C315.955 250.673 318.728 250.201 321.462 250.541C325.747 250.955 329.784 252.672 333.73 254.307C333.768 254.307 333.768 254.209 333.73 254.194Z" fill="black"/>
<path d="M316.749 224.2C315.672 228.003 320.514 231.558 326.539 229.525C332.564 227.491 338.853 225.601 344.004 225.541C349.155 225.481 352.416 222.092 351.355 219.802C350.293 217.513 349.042 212.098 335.931 210.546C322.819 208.995 316.892 213.627 314.151 217.249C311.409 220.871 314.565 224.84 316.749 224.2Z" fill="#F0F0F0"/>
<path d="M341.126 216.208C339.738 215.894 338.315 215.762 336.893 215.817C335.524 215.824 334.156 215.937 332.804 216.156C330.142 216.623 327.551 217.428 325.092 218.551C320.483 220.599 315.904 223.265 312.914 227.422C311.294 229.637 309.994 232.068 309.051 234.645C308.878 235.134 309.804 235.398 310.037 234.976C310.99 232.809 312.087 230.708 313.321 228.687C314.648 226.629 316.352 224.841 318.344 223.416C322.527 220.411 327.254 218.247 332.262 217.044C333.72 216.706 335.204 216.487 336.698 216.389C338.186 216.368 339.674 216.425 341.156 216.562C341.359 216.608 341.261 216.246 341.126 216.208Z" fill="#E0E0E0"/>
<path opacity="0.1" d="M341.126 216.208C339.738 215.894 338.315 215.762 336.893 215.817C335.524 215.824 334.156 215.937 332.804 216.156C330.142 216.623 327.551 217.428 325.092 218.551C320.483 220.599 315.904 223.265 312.914 227.422C311.294 229.637 309.994 232.068 309.051 234.645C308.878 235.134 309.804 235.398 310.037 234.976C310.99 232.809 312.087 230.708 313.321 228.687C314.648 226.629 316.352 224.841 318.344 223.416C322.527 220.411 327.254 218.247 332.262 217.044C333.72 216.706 335.204 216.487 336.698 216.389C338.186 216.368 339.674 216.425 341.156 216.562C341.359 216.608 341.261 216.246 341.126 216.208Z" fill="black"/>
<path d="M306.031 245.649C305.007 241.733 300.051 239.542 293.567 239.052C290.372 238.766 287.161 239.392 284.308 240.859C281.455 242.325 279.077 244.571 277.45 247.336C274.054 253.135 272.646 257.744 274.709 258.505C276.773 259.266 285.479 260.471 291.097 260.968C296.715 261.465 303.742 260.456 308.328 256.185C312.915 251.915 311.363 246.545 306.031 245.649Z" fill="#E0E0E0"/>
<path d="M306.234 245.129C303.95 244.537 301.568 244.424 299.238 244.797C296.988 245.057 294.773 245.562 292.633 246.304C290.372 247.095 288.183 248.078 286.088 249.241C284.989 249.843 283.912 250.481 282.858 251.154C281.844 251.75 280.875 252.419 279.958 253.157C279.92 253.157 279.958 253.323 279.958 253.292C281.028 252.818 282.022 252.148 283.038 251.575C284.055 251.003 285.237 250.355 286.36 249.783C288.45 248.708 290.618 247.789 292.844 247.034C295.072 246.283 297.379 245.791 299.72 245.566C301.907 245.447 304.101 245.503 306.279 245.731C306.784 245.784 306.505 245.212 306.234 245.129Z" fill="#E0E0E0"/>
<path opacity="0.1" d="M306.234 245.129C303.95 244.537 301.568 244.424 299.238 244.797C296.988 245.057 294.773 245.562 292.633 246.304C290.372 247.095 288.183 248.078 286.088 249.241C284.989 249.843 283.912 250.481 282.858 251.154C281.844 251.75 280.875 252.419 279.958 253.157C279.92 253.157 279.958 253.323 279.958 253.292C281.028 252.818 282.022 252.148 283.038 251.575C284.055 251.003 285.237 250.355 286.36 249.783C288.45 248.708 290.618 247.789 292.844 247.034C295.072 246.283 297.379 245.791 299.72 245.566C301.907 245.447 304.101 245.503 306.279 245.731C306.784 245.784 306.505 245.212 306.234 245.129Z" fill="black"/>
<path d="M42.9609 261.74L40.1668 275.62L37.4481 277.187L34.7519 275.635L31.9277 261.74L37.4481 258.555L42.9609 261.74Z" fill="#E0E0E0"/>
<path d="M42.9609 261.74L40.1668 275.62L37.4481 277.187L34.7519 275.635L31.9277 261.74L37.4481 258.555L42.9609 261.74Z" fill="#C1121F"/>
<path opacity="0.3" d="M42.9609 261.74L40.1668 275.62L37.4481 277.187L34.7519 275.635L31.9277 261.74L37.4481 258.555L42.9609 261.74Z" fill="white"/>
<path d="M37.4492 277.185V264.924L42.962 261.738L40.168 275.618L37.4492 277.185Z" fill="#C1121F"/>
<path opacity="0.6" d="M37.4492 277.185V264.924L42.962 261.738L40.168 275.618L37.4492 277.185Z" fill="white"/>
<path opacity="0.05" d="M42.9609 261.74L41.1534 270.702L37.4481 272.849L33.7503 270.71L31.9277 261.74L37.4481 258.555L42.9609 261.74Z" fill="black"/>
<path d="M18.705 247.729L15.9034 261.609L13.1847 263.183L10.4961 261.624L7.67188 247.729L13.1847 244.543L18.705 247.729Z" fill="#E0E0E0"/>
<path d="M18.705 247.729L15.9034 261.609L13.1847 263.183L10.4961 261.624L7.67188 247.729L13.1847 244.543L18.705 247.729Z" fill="#C1121F"/>
<path opacity="0.3" d="M18.705 247.729L15.9034 261.609L13.1847 263.183L10.4961 261.624L7.67188 247.729L13.1847 244.543L18.705 247.729Z" fill="white"/>
<path d="M13.1855 263.184V250.916L18.7059 247.73L15.9043 261.61L13.1855 263.184Z" fill="#C1121F"/>
<path opacity="0.6" d="M13.1855 263.184V250.916L18.7059 247.73L15.9043 261.61L13.1855 263.184Z" fill="white"/>
<path opacity="0.05" d="M18.705 247.729L16.8975 256.691L13.1847 258.837L9.49441 256.706L7.67188 247.729L13.1847 244.543L18.705 247.729Z" fill="black"/>
<path d="M114.725 220.311L111.923 234.183L109.204 235.757L106.508 234.198L103.691 220.311L109.204 217.125L114.725 220.311Z" fill="#C1121F"/>
<path opacity="0.3" d="M114.725 220.311L111.923 234.183L109.204 235.757L106.508 234.198L103.691 220.311L109.204 217.125L114.725 220.311Z" fill="white"/>
<path d="M109.205 235.755V223.494L114.725 220.309L111.924 234.181L109.205 235.755Z" fill="#C1121F"/>
<path opacity="0.6" d="M109.205 235.755V223.494L114.725 220.309L111.924 234.181L109.205 235.755Z" fill="white"/>
<path opacity="0.05" d="M114.725 220.311L112.917 229.273L109.204 231.412L105.506 229.28L103.691 220.311L109.204 217.125L114.725 220.311Z" fill="black"/>
<path d="M37.4452 270.605L7.38086 253.253V177.633L37.4452 194.992V270.605Z" fill="#C1121F"/>
<path opacity="0.6" d="M37.4452 270.605L7.38086 253.253V177.633L37.4452 194.992V270.605Z" fill="white"/>
<path d="M37.4453 194.987L116.281 149.469V225.081L37.4453 270.6V194.987Z" fill="#C1121F"/>
<path opacity="0.7" d="M37.4453 194.987L116.281 149.469V225.081L37.4453 270.6V194.987Z" fill="white"/>
<path d="M116.281 149.473L37.4452 194.991L7.38086 177.632L86.2169 132.113L116.281 149.473Z" fill="#C1121F"/>
<path opacity="0.8" d="M116.281 149.473L37.4452 194.991L7.38086 177.632L86.2169 132.113L116.281 149.473Z" fill="white"/>
<path d="M41.7363 232.497L111.987 191.941V221.087L112.778 221.546L42.5271 262.109L41.7363 261.65V232.497Z" fill="#C1121F"/>
<g opacity="0.3">
<path d="M41.7383 232.497L111.989 191.941V221.087L112.78 221.546L42.529 262.109L41.7383 261.65V232.497Z" fill="white"/>
</g>
<path d="M42.5312 232.957L112.782 192.395V221.548L42.5312 262.11V232.957Z" fill="#C1121F"/>
<g opacity="0.8">
<path d="M42.5293 232.953L112.78 192.391V221.544L42.5293 262.106V232.953Z" fill="white"/>
</g>
<g opacity="0.5">
<path d="M76.3218 217.97L82.166 214.596C82.9191 214.159 83.5442 214.355 83.5442 215.04C83.4879 215.463 83.3341 215.866 83.0949 216.219C82.8557 216.572 82.5377 216.865 82.166 217.074L76.3218 220.447C75.5687 220.884 74.9512 220.688 74.9512 220.003C75.0072 219.581 75.1601 219.178 75.3979 218.826C75.6357 218.473 75.9519 218.18 76.3218 217.97Z" fill="#C1121F"/>
</g>
<path d="M41.7363 198.395L111.987 157.832V186.985L112.778 187.437L42.5196 228L41.7363 227.54V198.395Z" fill="#C1121F"/>
<g opacity="0.3">
<path d="M41.7383 198.395L111.989 157.832V186.985L112.78 187.437L42.5215 228L41.7383 227.54V198.395Z" fill="white"/>
</g>
<path d="M42.529 198.844L112.78 158.289V187.435L42.5215 227.997L42.529 198.844Z" fill="#C1121F"/>
<g opacity="0.8">
<path d="M42.529 198.844L112.78 158.289V187.435L42.5215 227.997L42.529 198.844Z" fill="white"/>
</g>
<g opacity="0.5">
<path d="M76.3218 183.858L82.166 180.484C82.9191 180.047 83.5367 180.251 83.5367 180.936C83.4818 181.358 83.3293 181.762 83.0914 182.115C82.8535 182.467 82.5367 182.76 82.166 182.969L76.3218 186.343C75.5687 186.78 74.9512 186.577 74.9512 185.892C75.0061 185.469 75.1586 185.066 75.3965 184.713C75.6344 184.36 75.9512 184.067 76.3218 183.858Z" fill="#C1121F"/>
</g>
<path opacity="0.3" d="M28.4653 175.694C28.6095 176.406 28.8992 177.08 29.3163 177.675C30.1508 178.852 31.243 179.823 32.5095 180.514C38.0449 183.707 47.0145 183.707 52.5499 180.514C53.8171 179.821 54.9113 178.85 55.7507 177.675C56.1589 177.076 56.4455 176.403 56.5942 175.694C57.0912 173.292 55.7356 170.791 52.5499 168.916C47.0145 165.715 38.0449 165.715 32.5095 168.916C29.3239 170.791 27.9683 173.292 28.4653 175.694Z" fill="#C1121F"/>
<path d="M31.2188 164.828H53.8122L51.47 174.566C51.2893 175.741 50.4232 176.885 48.8718 177.789C45.3472 179.815 39.6461 179.815 36.1291 177.789C34.4496 176.818 33.5835 175.568 33.5007 174.295L31.2188 164.828Z" fill="#37474F"/>
<path d="M33.976 171.508C33.4992 171.229 33.0459 170.912 32.6204 170.559L31.3477 165.348C31.9992 166.071 32.7619 166.687 33.607 167.17C38.3818 169.927 46.0259 169.994 50.9286 167.396L50.3563 165.069L50.537 164.828H53.783L51.4709 174.566C51.2901 175.741 50.4241 176.885 48.8726 177.789C46.3648 179.235 42.7498 179.642 39.6018 179.032C45.2426 179.454 49.1061 176.983 49.686 174.717C49.9195 173.805 50.3262 171.802 50.3262 171.802C45.6493 174.189 38.4721 174.099 33.976 171.508Z" fill="#263238"/>
<path d="M30.0437 161.943C30.172 162.574 30.4284 163.171 30.7969 163.698C31.5369 164.746 32.5085 165.609 33.6361 166.221C38.5464 169.06 46.5068 169.06 51.4171 166.221C52.5462 165.611 53.5181 164.748 54.2564 163.698C54.6249 163.171 54.8812 162.574 55.0095 161.943C55.4463 159.812 54.2564 157.59 51.4096 155.918C46.4993 153.079 38.5389 153.079 33.6286 155.918C30.8044 157.59 29.6295 159.812 30.0437 161.943Z" fill="#455A64"/>
<path d="M30.7961 163.696C31.5362 164.744 32.5077 165.607 33.6353 166.219C38.5457 169.058 46.5061 169.058 51.4164 166.219C52.5454 165.609 53.5174 164.746 54.2556 163.696C54.6241 163.169 54.8804 162.572 55.0087 161.941L54.4816 165.775C54.2255 167.319 53.0732 168.787 51.0248 170C46.3404 172.703 38.7565 172.703 34.0797 170C32.0538 168.832 30.9091 167.349 30.6304 165.827V165.632L30.0957 161.941C30.208 162.568 30.4462 163.165 30.7961 163.696Z" fill="#37474F"/>
<path d="M35.1198 156.809C39.2092 154.444 45.8441 154.444 49.9335 156.809C52.2531 158.149 53.2548 159.957 52.946 161.696C52.7125 163.037 51.7033 164.34 49.9335 165.364C45.8441 167.729 39.2092 167.729 35.1198 165.364C33.3424 164.34 32.3332 163.037 32.1073 161.704C31.7985 159.957 32.8002 158.149 35.1198 156.809Z" fill="#263238"/>
<path d="M52.2602 163.324C51.6533 164.164 50.8692 164.861 49.9632 165.365C45.8737 167.729 39.2388 167.729 35.1494 165.365C34.2325 164.864 33.4377 164.167 32.8223 163.324C32.8223 161.908 33.8013 160.499 35.669 159.415C39.4723 157.216 45.6403 157.216 49.4435 159.415C51.2811 160.499 52.2225 161.908 52.2602 163.324Z" fill="#FAFAFA"/>
<path d="M41.7479 158.918C43.6231 158.413 43.947 154.339 42.8926 150.039C41.8383 145.738 38.5848 139.585 37.9145 139.721C37.2443 139.857 36.3481 146.672 36.8376 151.176C37.4024 156.636 39.8651 159.43 41.7479 158.918Z" fill="#C1121F"/>
<path opacity="0.3" d="M41.7479 158.918C43.6231 158.413 43.947 154.339 42.8926 150.039C41.8383 145.738 38.5848 139.585 37.9145 139.721C37.2443 139.857 36.3481 146.672 36.8376 151.176C37.4024 156.636 39.8651 159.43 41.7479 158.918Z" fill="black"/>
<path opacity="0.5" d="M41.2517 145.369C41.1989 145.256 41.1462 145.135 41.101 145.022C40.8917 145.15 40.7181 145.329 40.5964 145.542C40.363 145.926 40.2274 146.498 39.7756 146.686C39.3237 146.875 39.0224 146.506 38.7212 146.28C38.4691 146.049 38.1499 145.903 37.8099 145.866C37.4157 145.882 37.0353 146.015 36.7179 146.25V146.747C36.8875 146.593 37.0888 146.48 37.3076 146.413C37.5263 146.347 37.757 146.329 37.9831 146.363C38.548 146.521 38.8793 147.191 39.4894 147.191C40.2801 147.191 40.4835 146.28 40.8224 145.753C40.9282 145.588 41.0766 145.456 41.2517 145.369ZM39.9111 143.147C39.9111 143.026 39.9789 142.898 40.0165 142.763C40.0542 142.627 39.9186 142.574 39.8659 142.477C39.8057 142.657 39.753 142.846 39.6852 143.026C39.5421 143.425 39.1505 143.968 38.6609 143.674C38.3823 143.508 38.2392 143.184 37.9831 142.996C37.751 142.84 37.4675 142.781 37.1924 142.831L37.0192 142.868C37.0192 143.011 36.9815 143.154 36.9589 143.297H36.9966C37.1584 143.234 37.3353 143.217 37.5061 143.251C37.6769 143.284 37.8346 143.366 37.9605 143.486C38.1397 143.718 38.356 143.919 38.6007 144.081C39.2408 144.374 39.7454 143.674 39.9111 143.147ZM37.5915 149.277C37.263 149.329 36.9539 149.467 36.6953 149.676C36.6953 149.827 36.6953 149.978 36.6953 150.121C36.9107 149.931 37.1692 149.796 37.4484 149.729C37.6806 149.688 37.919 149.699 38.1467 149.76C38.3744 149.821 38.586 149.931 38.7664 150.083C39.0263 150.312 39.3317 150.484 39.6626 150.588C40.4157 150.738 40.8299 149.947 41.1688 149.39C41.2456 149.21 41.361 149.05 41.5067 148.92C41.6525 148.79 41.8251 148.693 42.0123 148.637C42.1737 148.603 42.3404 148.603 42.5018 148.637C42.5018 148.517 42.434 148.404 42.3964 148.291C42.0851 148.258 41.7726 148.338 41.5152 148.517C40.8977 148.961 40.6718 150.46 39.7002 150.181C39.3284 150.004 38.9815 149.778 38.6685 149.511C38.3464 149.313 37.9666 149.23 37.5915 149.277ZM37.1622 153.412C37.1999 153.562 37.23 153.713 37.2677 153.856C37.3539 153.731 37.4495 153.613 37.5539 153.502C37.7683 153.344 38.0223 153.247 38.288 153.223C38.5536 153.199 38.8208 153.249 39.0601 153.367C39.5195 153.555 39.8132 153.962 40.2801 154.18C41.1086 154.587 41.583 154.037 41.9445 153.359C42.0374 153.145 42.1826 152.957 42.3669 152.814C42.5511 152.671 42.7684 152.576 42.9989 152.538H43.3001L43.2549 152.184C42.9951 152.168 42.7356 152.22 42.5018 152.335C41.7487 152.704 41.5906 154.187 40.5663 153.796C40.0994 153.623 39.8132 153.186 39.3237 152.967C38.9305 152.761 38.4773 152.7 38.0434 152.794C37.6899 152.898 37.3803 153.115 37.1622 153.412Z" fill="#C1121F"/>
<path opacity="0.1" d="M41.751 158.912C39.8682 159.424 37.4055 156.653 36.8105 151.17C36.6642 149.616 36.6289 148.053 36.7051 146.494C37.9011 147.628 38.9373 148.92 39.7853 150.334C40.3177 148.929 40.9261 147.554 41.6079 146.215C42.1267 147.456 42.557 148.732 42.8957 150.033C43.9425 154.326 43.6262 158.408 41.751 158.912Z" fill="black"/>
<path d="M43.2787 161.175C45.7565 162.764 48.061 157.116 49.3036 152.853C50.5463 148.591 49.7329 137.452 48.4903 136.842C47.6016 136.405 42.9323 146.391 42.0135 151.257C41.3357 154.774 41.3131 159.917 43.2787 161.175Z" fill="#C1121F"/>
<path opacity="0.1" d="M43.2787 161.175C45.7565 162.764 48.061 157.116 49.3036 152.853C50.5463 148.591 49.7329 137.452 48.4903 136.842C47.6016 136.405 42.9323 146.391 42.0135 151.257C41.3357 154.774 41.3131 159.917 43.2787 161.175Z" fill="black"/>
<path d="M49.8591 144.462V143.95H49.7687C48.8273 143.889 47.9462 144.914 47.1178 144.138C46.5755 143.633 46.2366 142.835 45.4684 142.632C45.3279 142.598 45.1836 142.583 45.0392 142.587C44.9488 142.782 44.8659 142.978 44.7831 143.174C45.6567 143.076 46.0785 143.844 46.6358 144.454C46.8766 144.74 47.215 144.926 47.5852 144.976C47.9554 145.026 48.331 144.937 48.639 144.725C49.0158 144.533 49.4364 144.442 49.8591 144.462ZM41.748 152.957C41.9621 152.844 42.2032 152.791 42.445 152.806C42.6868 152.82 42.9199 152.901 43.1187 153.04C43.7062 153.499 43.7965 154.426 44.625 154.546C45.6642 154.719 46.4475 153.665 47.4943 153.936C47.9564 154.074 48.3727 154.334 48.6993 154.689L48.8349 154.26C48.5802 153.988 48.2793 153.764 47.9462 153.597C46.9822 153.108 46.2893 153.718 45.3705 153.959C44.158 154.275 44.1279 153.055 43.3748 152.505C43.2085 152.384 43.0192 152.298 42.8184 152.252C42.6176 152.207 42.4097 152.203 42.2074 152.242C42.0685 152.269 41.9324 152.31 41.8008 152.362L41.748 152.957ZM49.3696 140.056H49.475C49.475 139.943 49.475 139.838 49.4223 139.732C49.2693 139.716 49.1149 139.745 48.978 139.815C48.5261 140.049 48.3152 140.839 47.7805 140.87C47.0952 140.907 46.9144 139.868 46.5529 139.363C46.4927 139.491 46.4249 139.619 46.3571 139.747C46.7261 140.199 46.7638 140.9 47.3437 141.193C47.9236 141.487 48.2851 141.028 48.5713 140.629C48.7746 140.388 48.993 140.071 49.3696 140.056ZM48.2399 148.679C48.816 148.649 49.3819 148.84 49.8214 149.214C49.8214 148.973 49.8214 148.74 49.8214 148.461C49.6779 148.372 49.5267 148.297 49.3696 148.235C48.8874 148.06 48.3671 148.019 47.8633 148.114C47.3211 148.212 46.7035 148.74 46.1839 148.401C45.7668 148.03 45.4287 147.579 45.1898 147.075C44.932 146.657 44.5816 146.304 44.1656 146.043C44.0078 145.954 43.8378 145.888 43.661 145.848L43.4576 146.375C44.018 146.605 44.4921 147.006 44.8132 147.52C45.2576 148.167 45.732 149.335 46.7111 149.124C47.2025 148.919 47.7153 148.77 48.2399 148.679Z" fill="#C1121F"/>
<path opacity="0.1" d="M43.293 146.797C44.1087 147.794 44.7828 148.899 45.2963 150.08C46.6783 148.203 48.2096 146.44 49.8752 144.809C49.9731 147.821 49.8225 150.992 49.2878 152.844C48.0602 157.107 45.7557 162.755 43.2629 161.166C41.2973 159.909 41.3198 154.765 41.9826 151.248C42.3077 149.733 42.7457 148.246 43.293 146.797Z" fill="black"/>
<path d="M43.4492 164.118C47.9679 164.359 52.2004 161.625 54.9418 158.168C57.6831 154.712 59.8219 147.58 59.2044 147.143C58.5868 146.706 51.2891 151.21 48.5478 154.456C46.2487 157.322 44.5182 160.602 43.4492 164.118Z" fill="#C1121F"/>
<path opacity="0.2" d="M43.4492 164.118C47.9679 164.359 52.2004 161.625 54.9418 158.168C57.6831 154.712 59.8219 147.58 59.2044 147.143C58.5868 146.706 51.2891 151.21 48.5478 154.456C46.2487 157.322 44.5182 160.602 43.4492 164.118Z" fill="black"/>
<path d="M54.4821 153.201C54.9561 153.088 55.4409 153.028 55.928 153.02C56.6812 153.133 56.4326 153.811 56.5004 154.338C56.541 154.616 56.6584 154.877 56.8393 155.091L57.0878 154.579C56.991 154.411 56.9343 154.223 56.9222 154.029C56.9222 153.6 57.0276 153.133 56.7263 152.772C56.1239 152.018 55.0695 152.696 54.3088 152.591C53.5482 152.485 53.7365 151.838 53.8118 151.326C53.8915 150.907 53.825 150.474 53.6235 150.098L53.1114 150.46C53.2762 150.722 53.3404 151.035 53.2921 151.341C53.153 151.798 53.1743 152.29 53.3524 152.734C53.4767 152.911 53.649 153.049 53.8492 153.132C54.0493 153.215 54.2688 153.239 54.4821 153.201ZM56.5531 150.399C56.7054 150.578 56.9219 150.689 57.1556 150.708C57.4945 150.708 57.8184 150.55 58.1573 150.557C58.3244 150.561 58.4879 150.608 58.6317 150.693L58.7372 150.362C58.677 150.322 58.6141 150.287 58.5489 150.256C58.244 150.151 57.9124 150.151 57.6075 150.256C57.4566 150.312 57.2918 150.318 57.1374 150.273C56.9829 150.228 56.8468 150.135 56.7489 150.008C56.4176 149.578 56.4176 148.976 56.0862 148.539L55.6795 148.788C55.7561 148.849 55.8222 148.923 55.8753 149.006C56.1314 149.42 56.154 149.993 56.523 150.399H56.5531ZM52.2227 155.377C53.8344 155.377 53.2168 157.162 53.9775 158.058C54.1526 158.268 54.3745 158.433 54.6252 158.54C54.7381 158.412 54.8436 158.284 54.949 158.149C54.8399 158.112 54.736 158.062 54.6402 157.998C54.399 157.816 54.2048 157.579 54.0738 157.306C53.9428 157.034 53.8788 156.734 53.8871 156.432C53.8606 155.992 53.7032 155.569 53.4352 155.219C53.276 155.069 53.085 154.956 52.8765 154.89C52.6679 154.824 52.447 154.805 52.2303 154.835C51.9469 154.867 51.6605 154.812 51.409 154.677C51.1575 154.543 50.9528 154.335 50.8219 154.082C50.6232 153.583 50.516 153.052 50.5056 152.516L50.0763 152.9C50.0949 153.22 50.1327 153.54 50.1893 153.856C50.2975 154.304 50.5359 154.71 50.8746 155.023C51.2654 155.303 51.7452 155.429 52.2227 155.377ZM49.7224 158.465C50.227 158.819 50.8897 158.751 51.3642 159.218C51.7883 159.712 52.0279 160.337 52.042 160.988C52.042 160.988 52.042 161.033 52.042 161.056C52.2001 160.928 52.3658 160.8 52.5164 160.664C52.4812 160.275 52.4003 159.89 52.2754 159.519C52.0933 159.045 51.7527 158.649 51.3114 158.397C50.7918 158.104 50.1667 158.164 49.8052 157.644C49.4903 157.133 49.2899 156.56 49.2178 155.965C49.1028 155.43 48.8421 154.937 48.4647 154.541L48.0731 155.023C48.2082 155.164 48.3224 155.324 48.412 155.498C48.894 156.454 48.7207 157.772 49.6998 158.465H49.7224ZM46.13 157.945C46.3182 158.113 46.4829 158.306 46.6195 158.518C47.1994 159.437 46.9961 160.619 47.463 161.591C47.6372 161.991 47.9392 162.322 48.3216 162.532C48.5433 162.636 48.7845 162.693 49.0295 162.698C49.1561 162.702 49.2821 162.717 49.4061 162.743C49.632 162.632 49.8579 162.512 50.0839 162.381V162.336C49.7073 161.997 49.2178 162.17 48.7885 161.997C48.5398 161.869 48.3237 161.686 48.1566 161.461C47.9896 161.237 47.876 160.977 47.8245 160.702C47.5459 159.663 47.6362 158.563 46.8681 157.689C46.7542 157.569 46.6308 157.458 46.499 157.358C46.3258 157.569 46.1978 157.757 46.1074 157.945H46.13Z" fill="#C1121F"/>
<path opacity="0.2" d="M53.6389 150.082C53.2096 153.848 51.2138 163.909 43.4492 164.082C44.5182 160.566 46.2487 157.287 48.5478 154.42C50.0662 152.777 51.7753 151.32 53.6389 150.082Z" fill="black"/>
<path d="M43.4495 164.12C47.0042 163.601 50.0619 161.349 51.6283 154.646C53.1948 147.944 53.4358 144.916 52.3815 144.253C51.1388 143.5 46.2812 150.278 44.7223 153.215C40.776 160.641 43.4495 164.12 43.4495 164.12Z" fill="#C1121F"/>
<path opacity="0.2" d="M51.9018 151.605C52.0247 151.652 52.1432 151.71 52.2557 151.778C52.3009 151.575 52.3461 151.364 52.3838 151.168C52.1223 151.014 51.8333 150.911 51.5328 150.867C50.9763 150.828 50.4181 150.913 49.8985 151.116C49.3774 151.349 48.7859 151.371 48.2492 151.176C47.5638 150.814 47.5714 149.88 47.1798 149.255L46.7053 149.933C46.8716 150.439 47.0859 150.929 47.3454 151.394C48.0082 152.275 49.168 151.974 50.0491 151.695C50.6377 151.452 51.2923 151.42 51.9018 151.605ZM51.9018 148.08C52.2393 148.096 52.5679 148.194 52.8582 148.367C52.8582 148.208 52.9034 148.043 52.9185 147.892C52.7044 147.753 52.4631 147.66 52.2106 147.621C51.9621 147.57 51.7059 147.57 51.4574 147.621C51.1714 147.738 50.8734 147.824 50.5688 147.877C49.9437 147.877 49.6575 147.034 49.3186 146.627L49.2132 146.574L48.8818 146.981C48.9826 147.088 49.0734 147.204 49.1529 147.327C49.4316 147.749 49.7102 148.276 50.2525 148.389C50.5382 148.42 50.8265 148.365 51.0809 148.231C51.3391 148.118 51.6202 148.066 51.9018 148.08ZM50.2901 156.259C50.591 156.159 50.9068 156.111 51.224 156.116C51.2918 155.89 51.3595 155.664 51.4198 155.431C51.1825 155.418 50.9447 155.436 50.7119 155.484C49.8985 155.642 48.9195 156.237 48.1965 155.559C47.8497 155.154 47.5444 154.715 47.2852 154.248C46.956 153.776 46.4791 153.426 45.9296 153.254C45.5302 153.144 45.112 153.118 44.702 153.179C44.5664 153.435 44.4384 153.684 44.3179 153.932C44.6268 153.864 44.9463 153.857 45.2578 153.912C45.5694 153.968 45.8668 154.085 46.1329 154.256C46.5765 154.659 46.9438 155.139 47.2174 155.672C48.0308 156.854 49.0851 156.636 50.2901 156.259ZM42.8945 157.848C43.1863 157.975 43.4442 158.169 43.6476 158.413C43.9941 158.835 44.1673 159.362 44.4761 159.806C44.7214 160.228 45.1178 160.54 45.585 160.68C46.0521 160.82 46.5549 160.777 46.9915 160.56C47.3663 160.355 47.8045 160.298 48.2191 160.401C48.4983 160.499 48.7546 160.653 48.9722 160.853C49.1002 160.688 49.2282 160.514 49.3487 160.341C49.0683 160.061 48.7285 159.847 48.3546 159.716C47.8334 159.582 47.2827 159.625 46.7881 159.837C46.535 159.945 46.2509 159.957 45.9898 159.869C45.7288 159.782 45.509 159.601 45.3723 159.362C45.0484 158.903 44.8677 158.368 44.5213 157.916C44.2072 157.513 43.7912 157.201 43.3163 157.012L43.1355 156.96C43.0301 157.276 42.9548 157.57 42.8945 157.848Z" fill="white"/>
<path opacity="0.15" d="M44.6946 153.174C44.9732 152.632 45.3649 151.969 45.8243 151.254C47.3305 156.014 47.8577 162.95 43.4444 164.057C43.4519 164.117 40.7784 160.638 44.6946 153.174Z" fill="black"/>
<path d="M41.6133 164.118C37.0946 164.359 32.8546 161.625 30.1132 158.168C27.3719 154.711 25.2331 147.549 25.8657 147.105C26.4983 146.66 33.7884 151.172 36.5222 154.417C38.8208 157.298 40.5488 160.59 41.6133 164.118Z" fill="#C1121F"/>
<path opacity="0.2" d="M41.6133 164.118C37.0946 164.359 32.8546 161.625 30.1132 158.168C27.3719 154.711 25.2331 147.549 25.8657 147.105C26.4983 146.66 33.7884 151.172 36.5222 154.417C38.8208 157.298 40.5488 160.59 41.6133 164.118Z" fill="black"/>
<path d="M31.7324 152.748C31.9105 152.304 31.9318 151.813 31.7927 151.355C31.7444 151.049 31.8086 150.736 31.9734 150.474L31.4613 150.112C31.2587 150.487 31.1947 150.922 31.2806 151.34C31.3559 151.859 31.4764 152.507 30.7835 152.605C30.0906 152.703 28.9685 152.033 28.3585 152.786C28.0648 153.147 28.1777 153.614 28.1627 154.043C28.1506 154.237 28.0939 154.425 27.997 154.593C28.0798 154.766 28.1627 154.932 28.253 155.105C28.4312 154.89 28.546 154.629 28.5844 154.352C28.6522 153.825 28.4488 153.147 29.1568 153.034C29.6439 153.042 30.1287 153.103 30.6028 153.215C30.816 153.253 31.0355 153.229 31.2357 153.146C31.4358 153.064 31.6081 152.925 31.7324 152.748ZM29.2095 148.983C29.2653 148.899 29.334 148.826 29.4128 148.764L29.0062 148.516C28.6748 148.952 28.6748 149.555 28.3359 149.984C28.2385 150.11 28.1037 150.202 27.9508 150.247C27.7979 150.292 27.6348 150.287 27.4849 150.233C27.1774 150.127 26.8434 150.127 26.5359 150.233L26.3477 150.338L26.4531 150.67C26.5969 150.584 26.7604 150.538 26.9276 150.534C27.274 150.534 27.5903 150.707 27.9367 150.685C28.1678 150.663 28.3813 150.552 28.5317 150.376C28.8781 149.992 28.9233 149.419 29.2095 148.975V148.983ZM34.2252 155.045C34.5676 154.735 34.8068 154.328 34.9106 153.878C34.9709 153.562 35.0086 153.242 35.0235 152.921L34.6018 152.537C34.584 153.073 34.4771 153.603 34.2855 154.104C34.1538 154.356 33.9489 154.563 33.6976 154.698C33.4464 154.832 33.1604 154.888 32.8772 154.857C32.6593 154.829 32.4378 154.848 32.2284 154.915C32.0189 154.981 31.8265 155.092 31.6646 155.241C31.399 155.592 31.242 156.014 31.2128 156.453C31.2211 156.756 31.1571 157.055 31.0261 157.328C30.8951 157.6 30.7009 157.838 30.4597 158.02C30.3638 158.084 30.26 158.134 30.1509 158.171C30.2563 158.306 30.3693 158.434 30.4747 158.562C30.7305 158.463 30.958 158.303 31.1375 158.095C31.8906 157.199 31.2881 155.414 32.8922 155.414C33.3676 155.455 33.8416 155.321 34.2252 155.038V155.045ZM36.6578 155.497C36.7498 155.325 36.8637 155.165 36.9967 155.023C36.8687 154.864 36.7406 154.699 36.6051 154.541C36.2243 154.934 35.9632 155.428 35.852 155.964C35.7737 156.559 35.571 157.132 35.257 157.643C34.8654 158.155 34.2403 158.095 33.7508 158.396C33.3095 158.648 32.9689 159.044 32.7868 159.519C32.6619 159.889 32.5811 160.274 32.5458 160.663L33.0203 161.055C33.0203 161.055 33.0203 161.01 33.0203 160.987C33.0416 160.338 33.2803 159.715 33.6981 159.217C34.1725 158.766 34.8353 158.833 35.3474 158.464C36.334 157.771 36.1683 156.453 36.6578 155.489V155.497ZM38.6159 157.387C38.4841 157.488 38.3607 157.598 38.2469 157.719C37.4938 158.57 37.5766 159.669 37.2904 160.731C37.239 161.006 37.1254 161.266 36.9583 161.49C36.7913 161.715 36.5751 161.898 36.3264 162.027C35.8972 162.2 35.4076 162.027 35.0311 162.365V162.411C35.247 162.541 35.4729 162.662 35.7089 162.772C35.8327 162.745 35.9588 162.73 36.0854 162.727C36.3279 162.721 36.5665 162.665 36.7858 162.561C37.1701 162.353 37.4726 162.022 37.6444 161.62C38.1188 160.648 37.908 159.466 38.4879 158.547C38.6249 158.333 38.7923 158.14 38.9849 157.975L38.6159 157.387Z" fill="#C1121F"/>
<path opacity="0.2" d="M31.4238 150.082C31.8456 153.848 33.8489 163.909 41.6135 164.082C40.54 160.567 38.8071 157.288 36.5074 154.42C34.9901 152.778 33.2837 151.322 31.4238 150.082Z" fill="black"/>
<path d="M41.6146 164.12C38.0523 163.601 35.0022 161.349 33.4282 154.646C31.8542 147.944 31.6207 144.916 32.6751 144.253C33.9177 143.5 38.7753 150.278 40.3343 153.215C44.2881 160.641 41.6146 164.12 41.6146 164.12Z" fill="#C1121F"/>
<path opacity="0.2" d="M35.0069 151.695C35.8956 151.974 37.0479 152.275 37.7106 151.394C37.9701 150.929 38.1845 150.439 38.3507 149.933C38.2001 149.707 38.0344 149.481 37.8763 149.255C37.4847 149.88 37.4922 150.814 36.8069 151.176C36.2701 151.371 35.6786 151.349 35.1575 151.116C34.6379 150.913 34.0797 150.828 33.5233 150.867C33.2228 150.911 32.9337 151.014 32.6723 151.168C32.7099 151.364 32.7551 151.575 32.8003 151.778C32.9129 151.71 33.0313 151.652 33.1543 151.605C33.7636 151.42 34.4185 151.452 35.0069 151.695ZM33.9526 148.231C34.207 148.365 34.4953 148.42 34.781 148.389C35.3232 148.276 35.6019 147.749 35.8805 147.327C35.96 147.204 36.0508 147.088 36.1516 146.981L35.8203 146.574L35.7525 146.642C35.4136 147.049 35.1349 147.885 34.5023 147.892C34.1977 147.839 33.8997 147.754 33.6137 147.636C33.0974 147.52 32.5563 147.612 32.1074 147.892C32.1074 148.043 32.1451 148.208 32.1677 148.367C32.458 148.194 32.7866 148.096 33.1241 148.08C33.4083 148.065 33.692 148.117 33.9526 148.231ZM37.8386 155.672C38.1148 155.14 38.4818 154.661 38.9231 154.256C39.1892 154.085 39.4867 153.968 39.7982 153.912C40.1097 153.857 40.4292 153.864 40.7381 153.932C40.6176 153.684 40.4971 153.435 40.3616 153.179C39.9491 153.118 39.5285 153.144 39.1265 153.254C38.5779 153.428 38.1017 153.778 37.7708 154.248C37.5144 154.716 37.2089 155.156 36.8596 155.559C36.1065 156.222 35.1575 155.642 34.3442 155.484C34.1114 155.436 33.8735 155.418 33.6362 155.431C33.704 155.664 33.7643 155.89 33.8321 156.116C34.1492 156.111 34.465 156.159 34.7659 156.259C35.9784 156.636 37.0328 156.854 37.8386 155.672ZM41.9356 156.975L41.7548 157.027C41.2811 157.218 40.8656 157.53 40.5498 157.931C40.2034 158.383 40.0227 158.918 39.6988 159.377C39.5621 159.616 39.3423 159.797 39.0813 159.884C38.8202 159.972 38.5361 159.96 38.283 159.852C37.7884 159.64 37.2376 159.598 36.7165 159.731C36.344 159.861 36.0064 160.075 35.7299 160.356C35.8504 160.529 35.9709 160.703 36.0989 160.868C36.318 160.67 36.5739 160.516 36.852 160.416C37.2666 160.313 37.7048 160.37 38.0796 160.575C38.5173 160.792 39.0213 160.836 39.4897 160.696C39.958 160.556 40.3558 160.243 40.6026 159.822C40.9038 159.377 41.0846 158.85 41.4235 158.428C41.6269 158.184 41.8848 157.99 42.1766 157.863C42.1013 157.57 42.0259 157.276 41.9356 156.975Z" fill="white"/>
<path opacity="0.15" d="M40.3561 153.174C40.0774 152.632 39.6858 151.969 39.2264 151.254C37.7202 156.014 37.193 162.95 41.6138 164.057C41.6138 164.117 44.2873 160.638 40.3561 153.174Z" fill="black"/>
<path d="M42.5302 164.817C39.5177 164.817 38.5311 160.735 38.8249 157.444C39.1186 154.153 41.2047 147.902 42.5302 147.902C43.8557 147.902 45.9267 154.153 46.228 157.444C46.5292 160.735 45.5276 164.817 42.5302 164.817Z" fill="#C1121F"/>
<path opacity="0.3" d="M42.5302 164.817C39.5177 164.817 38.5311 160.735 38.8249 157.444C39.1186 154.153 41.2047 147.902 42.5302 147.902C43.8557 147.902 45.9267 154.153 46.228 157.444C46.5292 160.735 45.5276 164.817 42.5302 164.817Z" fill="white"/>
<path opacity="0.2" d="M43.6093 151.745C43.8844 151.44 44.2522 151.233 44.6561 151.157C44.5959 150.992 44.5281 150.834 44.4678 150.683C44.0871 150.774 43.7431 150.979 43.4813 151.27C43.2403 151.504 43.0219 151.7 42.6604 151.579C42.4187 151.47 42.205 151.308 42.0353 151.105C41.6859 150.744 41.2464 150.484 40.7625 150.352L40.529 150.916C40.8779 150.99 41.2005 151.157 41.4629 151.398C41.7493 151.767 42.1365 152.044 42.5775 152.197C42.774 152.218 42.9727 152.188 43.1537 152.109C43.3348 152.029 43.4919 151.904 43.6093 151.745ZM45.7481 154.757C45.7105 154.592 45.6653 154.433 45.6276 154.268C45.2134 154.554 45.0251 155.059 44.626 155.352C43.9557 155.857 43.293 155.051 42.8863 154.599C42.1784 153.786 41.3801 153.477 40.4839 154.208C40.1439 154.567 39.7267 154.845 39.2638 155.021C39.2186 155.217 39.181 155.405 39.1433 155.593C39.2611 155.573 39.377 155.543 39.4897 155.503C39.9155 155.297 40.3007 155.017 40.6269 154.674C40.744 154.561 40.8842 154.474 41.0381 154.419C41.1919 154.365 41.3557 154.345 41.5181 154.36C41.6806 154.375 41.8379 154.425 41.9791 154.507C42.1204 154.588 42.2423 154.699 42.3365 154.833C42.9767 155.495 43.8427 156.602 44.7992 155.819C45.1607 155.495 45.3565 154.991 45.7481 154.727V154.757ZM46.2753 158.726C46.2753 158.561 46.2753 158.387 46.2753 158.214C45.8288 158.004 45.3237 157.953 44.8444 158.071C44.4042 158.185 44.0033 158.417 43.6846 158.741C43.4285 158.99 43.2252 159.419 42.8863 159.547C42.7302 159.572 42.5705 159.559 42.4201 159.511C42.2696 159.463 42.1327 159.379 42.0202 159.268C41.606 158.952 41.3499 158.515 40.9207 158.184C40.7362 158.053 40.5263 157.962 40.3046 157.916C40.0828 157.871 39.854 157.872 39.6328 157.92C39.3456 157.975 39.0653 158.061 38.7969 158.176C38.7969 158.357 38.7969 158.53 38.7969 158.711C39.0715 158.553 39.3816 158.465 39.6986 158.457C40.0157 158.45 40.3297 158.521 40.6119 158.666C40.972 158.993 41.3139 159.34 41.6361 159.705C41.7761 159.85 41.9484 159.959 42.1388 160.024C42.3293 160.089 42.5324 160.108 42.7316 160.079C42.9308 160.051 43.1203 159.975 43.2847 159.859C43.449 159.743 43.5835 159.59 43.6771 159.412C43.9605 159.01 44.3744 158.719 44.8482 158.589C45.322 158.458 45.8263 158.496 46.2753 158.696V158.726ZM39.5876 161.663C39.4503 161.62 39.309 161.59 39.1659 161.573C39.2337 161.814 39.309 162.04 39.3918 162.258C39.5132 162.297 39.6295 162.35 39.7383 162.416C40.1525 162.657 40.4914 163.049 40.8905 163.275C41.2764 163.476 41.7056 163.579 42.1407 163.576C42.5507 163.59 42.956 163.486 43.308 163.275C43.6921 163.026 43.8653 162.59 44.2268 162.319C44.4397 162.159 44.6898 162.056 44.9535 162.021C45.2171 161.985 45.4855 162.018 45.7331 162.115C45.8008 161.942 45.8536 161.761 45.9063 161.573C45.6016 161.48 45.2804 161.454 44.9649 161.498C44.5384 161.558 44.1424 161.753 43.8352 162.055C43.6695 162.228 43.549 162.432 43.3833 162.605C43.1511 162.828 42.8467 162.962 42.5248 162.981C41.9151 163.035 41.3083 162.851 40.8303 162.469C40.4698 162.118 40.0488 161.835 39.5876 161.633V161.663Z" fill="white"/>
<path d="M192.665 230.92C190.78 230.955 188.919 230.49 187.273 229.572C183.213 227.222 180.977 221.966 180.977 214.751C180.977 198.182 192.665 177.923 207.027 169.632L262.087 137.843C265.853 135.674 269.505 134.529 272.683 134.529C274.569 134.496 276.43 134.964 278.076 135.885C282.135 138.227 284.372 143.491 284.372 150.706C284.372 167.274 272.691 187.526 258.321 195.825L203.261 227.614C199.496 229.775 195.843 230.92 192.665 230.92Z" fill="#E0E0E0"/>
<path d="M279.959 132.625L262.148 122.345C257.094 119.423 250.098 119.845 242.401 124.303L187.333 156.092C171.902 165.002 159.4 186.661 159.4 204.473C159.4 213.374 162.526 219.633 167.579 222.547L185.39 232.827C190.444 235.749 197.44 235.328 205.145 230.869L205.679 230.545L259.663 199.381L259.934 199.231L260.205 199.08C275.636 190.171 288.138 168.511 288.138 150.7C288.138 141.806 285.012 135.547 279.959 132.625ZM258.322 195.827L203.262 227.616C199.496 229.785 195.844 230.929 192.665 230.929C190.78 230.962 188.919 230.494 187.273 229.574C183.214 227.232 180.977 221.967 180.977 214.753C180.977 198.184 192.658 177.933 207.027 169.633L262.088 137.844C265.853 135.683 269.506 134.531 272.684 134.531C274.57 134.499 276.43 134.966 278.076 135.886C282.136 138.236 284.372 143.5 284.372 150.708C284.372 167.291 272.691 187.535 258.322 195.827Z" fill="#E0E0E0"/>
<path d="M279.96 132.625C274.906 129.71 267.91 130.132 260.206 134.583L205.115 166.372C189.714 175.281 177.25 196.941 177.25 214.752C177.25 223.662 180.375 229.92 185.429 232.827C190.482 235.734 197.479 235.327 205.183 230.869L259.972 199.238L260.243 199.087C275.675 190.178 288.176 168.518 288.176 150.707C288.139 141.805 285.013 135.547 279.96 132.625ZM258.323 195.826L203.263 227.615C199.497 229.784 195.844 230.929 192.666 230.929C190.781 230.961 188.92 230.494 187.274 229.573C183.215 227.231 180.978 221.967 180.978 214.752C180.978 198.184 192.659 177.932 207.028 169.633L262.088 137.844C265.854 135.683 269.507 134.53 272.685 134.53C274.57 134.498 276.431 134.966 278.077 135.886C282.136 138.236 284.373 143.5 284.373 150.707C284.373 167.291 272.692 187.535 258.323 195.826Z" fill="#F0F0F0"/>
<path d="M252.809 195.741C256.574 197.91 261.756 197.594 267.495 194.288C278.964 187.661 288.258 171.559 288.258 158.312C288.258 151.692 285.938 147.015 282.18 144.869L277.134 141.954C273.369 139.785 268.187 140.101 262.449 143.415C250.979 150.035 241.678 166.144 241.678 179.384C241.678 186.011 244.005 190.681 247.763 192.827L252.809 195.741Z" fill="#C1121F"/>
<path d="M288.259 158.328C288.259 151.708 285.939 147.031 282.181 144.885C278.423 142.738 273.227 143.025 267.496 146.338C256.018 152.958 246.725 169.067 246.725 182.315C246.725 188.934 249.044 193.611 252.802 195.758C256.56 197.904 261.757 197.61 267.496 194.304C278.965 187.677 288.259 171.575 288.259 158.328Z" fill="#C1121F"/>
<path opacity="0.4" d="M288.259 158.328C288.259 151.708 285.939 147.031 282.181 144.885C278.423 142.738 273.227 143.025 267.496 146.338C256.018 152.958 246.725 169.067 246.725 182.315C246.725 188.934 249.044 193.611 252.802 195.758C256.56 197.904 261.757 197.61 267.496 194.304C278.965 187.677 288.259 171.575 288.259 158.328Z" fill="white"/>
<path d="M264.197 184.763C263.515 184.763 262.854 184.532 262.321 184.108L255.543 178.746C255.233 178.499 254.975 178.193 254.783 177.846C254.591 177.498 254.47 177.117 254.425 176.723C254.381 176.329 254.414 175.93 254.524 175.549C254.634 175.168 254.818 174.812 255.065 174.502C255.312 174.192 255.618 173.934 255.965 173.742C256.312 173.55 256.694 173.428 257.088 173.384C257.482 173.34 257.881 173.373 258.262 173.483C258.643 173.593 258.999 173.777 259.309 174.024L263.074 177.036L273.37 154.752C273.527 154.379 273.757 154.043 274.047 153.761C274.337 153.48 274.68 153.26 275.057 153.114C275.433 152.968 275.836 152.899 276.239 152.912C276.643 152.924 277.04 153.018 277.407 153.187C277.774 153.357 278.103 153.598 278.375 153.897C278.646 154.196 278.855 154.546 278.988 154.928C279.122 155.309 279.177 155.713 279.151 156.117C279.125 156.52 279.018 156.913 278.837 157.274L266.938 183.046C266.747 183.459 266.464 183.823 266.112 184.112C265.76 184.4 265.347 184.605 264.905 184.71C264.671 184.754 264.434 184.772 264.197 184.763Z" fill="#FAFAFA"/>
<path d="M192.665 133.748C190.779 133.78 188.919 133.312 187.273 132.392C183.213 130.05 180.977 124.786 180.977 117.571C180.977 101.003 192.665 80.7438 207.027 72.452L262.087 40.663C265.853 38.494 269.505 37.3493 272.683 37.3493C274.569 37.3161 276.43 37.7838 278.076 38.7049C282.135 41.0471 284.372 46.3114 284.372 53.5262C284.372 70.0948 272.691 90.3536 258.321 98.6454L203.261 130.434C199.496 132.603 195.843 133.748 192.665 133.748Z" fill="#E0E0E0"/>
<path d="M279.959 35.4457L262.148 25.1656C257.094 22.2436 250.098 22.6653 242.401 27.1237L187.333 58.9127C171.902 67.8221 159.4 89.4817 159.4 107.293C159.4 116.195 162.526 122.453 167.579 125.368L185.39 135.648C190.444 138.57 197.44 138.148 205.145 133.69L205.679 133.366L259.663 102.202L259.934 102.051L260.205 101.901C275.636 92.9912 288.138 71.3316 288.138 53.5204C288.138 44.6261 285.012 38.3452 279.959 35.4457ZM258.322 98.6471L203.262 130.436C199.496 132.605 195.844 133.75 192.665 133.75C190.78 133.782 188.919 133.314 187.273 132.394C183.214 130.052 180.977 124.788 180.977 117.573C180.977 101.004 192.658 80.7531 207.027 72.4537L262.088 40.6648C265.853 38.5033 269.506 37.351 272.684 37.351C274.57 37.3189 276.43 37.7866 278.076 38.7067C282.136 41.0564 284.372 46.3206 284.372 53.528C284.372 70.1115 272.691 90.3553 258.322 98.6471Z" fill="#E0E0E0"/>
<path d="M279.96 35.4453C274.906 32.5307 267.91 32.9525 260.206 37.4034L205.115 69.2225C189.714 78.1017 177.25 99.7613 177.25 117.572C177.25 126.482 180.375 132.74 185.429 135.647C190.482 138.554 197.479 138.148 205.183 133.689L259.972 102.058L260.243 101.908C275.675 92.9983 288.176 71.3388 288.176 53.5276C288.139 44.6258 285.013 38.3448 279.96 35.4453ZM258.323 98.6467L203.263 130.436C199.497 132.605 195.844 133.749 192.666 133.749C190.781 133.782 188.92 133.314 187.274 132.394C183.215 130.052 180.978 124.787 180.978 117.572C180.978 101.004 192.659 80.7527 207.028 72.4534L262.088 40.6644C265.854 38.5029 269.507 37.3507 272.685 37.3507C274.57 37.3185 276.431 37.7862 278.077 38.7063C282.136 41.056 284.373 46.3203 284.373 53.5276C284.373 70.1112 272.692 90.3549 258.323 98.6467Z" fill="#F0F0F0"/>
<path d="M197.065 131.784C200.83 133.953 206.012 133.644 211.75 130.33C223.22 123.71 232.514 107.601 232.514 94.3614C232.514 87.734 230.194 83.0647 226.436 80.9107L221.39 78.0037C217.625 75.8348 212.443 76.1435 206.704 79.4572C195.235 86.0846 185.934 102.186 185.934 115.434C185.934 122.053 188.261 126.73 192.019 128.877L197.065 131.784Z" fill="#263238"/>
<path d="M232.511 94.3529C232.511 87.733 230.191 83.0562 226.433 80.9098C222.675 78.7634 217.479 79.0571 211.747 82.3633C200.27 88.9907 190.977 105.092 190.977 118.34C190.977 124.959 193.296 129.636 197.054 131.783C200.812 133.929 206.009 133.643 211.747 130.329C223.187 123.709 232.511 107.63 232.511 94.3529Z" fill="#455A64"/>
<path d="M220.81 109.424L215.599 105.485L221.684 93.9024C222.054 93.1944 222.128 92.3681 221.89 91.6054C221.651 90.8428 221.119 90.2061 220.411 89.8356C219.703 89.4651 218.877 89.391 218.114 89.6297C217.351 89.8684 216.715 90.4003 216.344 91.1084L210.749 101.803L206.343 98.4663C205.705 97.984 204.901 97.7749 204.109 97.885C203.316 97.9952 202.6 98.4156 202.118 99.0537C201.635 99.6919 201.426 100.496 201.537 101.288C201.647 102.08 202.067 102.796 202.705 103.279L207.917 107.21L201.854 118.793C201.484 119.501 201.41 120.327 201.648 121.09C201.887 121.853 202.419 122.489 203.127 122.86C203.835 123.23 204.661 123.304 205.424 123.066C206.187 122.827 206.823 122.295 207.194 121.587L212.79 110.893L217.195 114.229C217.718 114.624 218.355 114.839 219.01 114.839C219.642 114.84 220.258 114.643 220.771 114.274C221.284 113.906 221.669 113.386 221.87 112.788C222.072 112.189 222.08 111.542 221.894 110.939C221.708 110.335 221.336 109.805 220.833 109.424H220.81Z" fill="#FAFAFA"/>
<path d="M131.437 263.812C130.873 270.349 130.511 275.199 130.617 276.321C130.986 280.388 133.268 282.911 135.03 284.605C138.713 288.107 141.333 289.5 145.912 292.52C145.302 294.14 135.873 294.298 133.162 293.138C129.235 291.419 125.422 289.452 121.745 287.249C117.979 284.786 117.068 283.272 116.902 279.394C116.902 278.912 116.503 275.756 116.533 275.545C116.481 274.634 115.893 269.724 115.125 263.684L131.437 263.812Z" fill="#FFA8A7"/>
<path d="M75.9557 276.733V261.113L92.7426 262.326L89.6172 277.637C89.6172 277.637 87.7495 298.483 86.8683 301.864C84.0291 312.8 74.4645 308.386 73.3122 302.617C72.5667 298.739 75.9557 276.733 75.9557 276.733Z" fill="#FFA8A7"/>
<path d="M153.426 298.653C153.675 298.653 153.863 301.191 152.462 302.177C150.851 303.315 146.219 305.054 140.345 303.977C134.47 302.9 131.368 301.002 129.123 299.014C126.879 297.026 123.738 294.209 121.095 293.494C118.64 292.831 114.678 291.28 113.933 290.481C113.187 289.683 113.519 286.535 113.519 286.535L153.426 298.653Z" fill="#263238"/>
<path d="M116.534 275.523C116.3 275.613 116.088 275.75 115.91 275.926C115.732 276.103 115.593 276.314 115.502 276.548C115.261 277.414 115.171 278.543 114.682 279.959C113.996 281.932 113.341 285.984 113.552 287.671C113.763 289.358 119.08 291.045 121.61 292.122C124.554 293.531 127.272 295.368 129.676 297.575C132.312 299.879 138.021 302.387 141.884 302.673C147.781 303.11 151.675 301.852 153.023 299.947C154.657 297.597 154.107 295.022 147.532 291.663C146.282 291.03 141.952 288.274 140.476 287.28C138.924 286.236 137.455 285.073 136.085 283.8C135.404 283.158 134.758 282.479 134.15 281.767C133.517 281.137 132.986 280.413 132.576 279.62C132.515 279.447 132.47 279.251 132.417 279.078C132.26 278.587 132.147 278.083 132.079 277.572C132.003 277.037 131.988 276.269 131.476 275.923C130.964 275.576 122.439 276.608 121.776 277.429C121.324 278.099 121.064 278.881 121.023 279.688C120.978 280.057 120.963 280.441 120.932 280.795C120.932 280.953 120.932 281.24 120.737 281.164C120.541 281.089 120.307 280.517 120.232 280.328C120.074 279.907 119.983 279.455 119.81 279.033C119.663 278.522 119.406 278.049 119.057 277.647C117.988 276.698 116.888 276.804 116.587 276.48C116.625 276.51 116.549 275.84 116.534 275.523Z" fill="#37474F"/>
<path d="M147.877 291.863C139.299 291.863 136.467 298.099 135.895 301.112C137.794 301.92 139.801 302.45 141.852 302.686C147.749 303.122 151.913 301.88 153.231 299.982C154.798 297.745 153.796 294.401 147.877 291.863Z" fill="#FAFAFA"/>
<path d="M135.28 292.628C135.185 292.622 135.095 292.585 135.023 292.522C134.986 292.487 134.956 292.444 134.935 292.397C134.915 292.35 134.904 292.299 134.904 292.247C134.904 292.196 134.915 292.145 134.935 292.097C134.956 292.05 134.986 292.008 135.023 291.972C136.311 290.692 140.363 288.011 143.443 288.516C143.496 288.521 143.547 288.537 143.593 288.563C143.64 288.589 143.68 288.625 143.712 288.667C143.744 288.71 143.766 288.758 143.778 288.81C143.791 288.862 143.792 288.915 143.782 288.967C143.771 289.02 143.75 289.07 143.72 289.114C143.69 289.158 143.652 289.196 143.607 289.226C143.562 289.255 143.512 289.275 143.459 289.285C143.407 289.295 143.353 289.295 143.3 289.284C140.423 288.817 136.658 291.49 135.641 292.507C135.594 292.553 135.537 292.588 135.474 292.609C135.412 292.63 135.345 292.636 135.28 292.628Z" fill="#F5F5F5"/>
<path d="M131.739 290.401C131.645 290.398 131.554 290.364 131.482 290.303C131.445 290.268 131.415 290.225 131.394 290.178C131.374 290.131 131.363 290.08 131.363 290.028C131.363 289.977 131.374 289.926 131.394 289.878C131.415 289.831 131.445 289.789 131.482 289.753C132.77 288.465 136.822 285.784 139.902 286.289C139.955 286.295 140.006 286.312 140.052 286.339C140.098 286.365 140.138 286.4 140.17 286.442C140.203 286.484 140.226 286.532 140.24 286.584C140.253 286.635 140.256 286.688 140.249 286.741C140.224 286.846 140.159 286.938 140.067 286.997C139.976 287.056 139.866 287.078 139.759 287.057C136.882 286.59 133.117 289.264 132.1 290.28C132.053 290.327 131.996 290.362 131.933 290.383C131.871 290.404 131.804 290.41 131.739 290.401Z" fill="#F5F5F5"/>
<path d="M128.492 287.921C128.398 287.918 128.308 287.883 128.236 287.823C128.197 287.788 128.167 287.746 128.145 287.698C128.124 287.651 128.113 287.6 128.113 287.548C128.113 287.496 128.124 287.445 128.145 287.397C128.167 287.35 128.197 287.307 128.236 287.273C129.524 285.985 133.591 283.304 136.656 283.809C136.708 283.815 136.759 283.832 136.804 283.858C136.85 283.885 136.89 283.92 136.922 283.962C136.953 284.004 136.976 284.053 136.989 284.104C137.001 284.155 137.003 284.208 136.995 284.26C136.984 284.313 136.963 284.363 136.933 284.407C136.903 284.451 136.864 284.489 136.82 284.519C136.775 284.548 136.725 284.568 136.672 284.578C136.619 284.588 136.565 284.588 136.513 284.577C133.636 284.117 129.87 286.783 128.846 287.8C128.801 287.846 128.745 287.882 128.684 287.903C128.622 287.923 128.556 287.93 128.492 287.921Z" fill="#F5F5F5"/>
<path d="M125.285 285.441C125.19 285.436 125.1 285.398 125.029 285.336C124.99 285.302 124.959 285.26 124.938 285.214C124.917 285.167 124.906 285.116 124.906 285.065C124.906 285.014 124.917 284.963 124.938 284.916C124.959 284.869 124.99 284.828 125.029 284.794C126.798 282.964 131.054 280.832 134.164 281.337C134.216 281.343 134.267 281.36 134.312 281.387C134.358 281.413 134.398 281.449 134.43 281.491C134.461 281.533 134.484 281.581 134.497 281.632C134.509 281.684 134.511 281.737 134.503 281.789C134.479 281.894 134.416 281.986 134.326 282.045C134.236 282.104 134.127 282.125 134.021 282.105C131.249 281.653 127.243 283.694 125.654 285.313C125.606 285.361 125.548 285.398 125.484 285.42C125.42 285.442 125.352 285.45 125.285 285.441Z" fill="#F5F5F5"/>
<path d="M88.231 302.964C87.9675 306.587 87.3348 308.989 85.9265 311.098C84.5182 313.207 81.9049 313.847 79.2765 313.199C76.6481 312.551 73.2516 310.849 72.5587 307.716C71.8658 304.583 71.4215 302.445 72.0617 299.078L88.231 302.964Z" fill="#263238"/>
<path d="M75.9564 276.736C74.8719 276.623 75.1053 281.616 74.4501 286.482C73.697 291.701 72.8836 293.764 72.236 298.042C71.4828 302.93 72.3414 305.121 74.1489 308.096C75.9563 311.071 82.4331 314.046 85.7017 309.843C88.3602 306.417 88.5183 302.583 88.33 297.695C88.1417 292.642 88.7141 289.261 89.1961 285.442C89.7007 281.503 90.5894 278.054 89.648 277.64C89.3974 278.912 89.0755 280.169 88.684 281.406C88.571 281.677 88.1418 282.354 87.9836 281.33C87.9384 281.029 88.0438 280.329 87.9836 280.027C87.9158 279.176 87.366 279.033 87.0121 278.845C85.5599 278.185 83.9828 277.846 82.388 277.851C80.2642 277.851 78.4266 277.73 77.2291 278.288C76.476 278.619 76.5287 279.252 76.476 279.869C76.4233 280.487 76.3555 281.059 76.1597 280.908C75.753 280.637 75.9564 276.736 75.9564 276.736Z" fill="#37474F"/>
<path d="M71.8734 300.869C71.6498 303.505 72.3384 306.137 73.8239 308.325C75.6314 311.3 82.6429 314.29 85.8738 310.088C87.493 307.994 87.9524 305.501 88.2009 302.963C86.3407 299.672 74.9385 298.121 71.8734 300.869Z" fill="#FAFAFA"/>
<path d="M85.9185 297.62C85.8739 297.63 85.8276 297.63 85.783 297.62C85.783 297.62 80.7296 295.617 75.8192 296.619C75.7177 296.64 75.6117 296.622 75.5225 296.569C75.4332 296.516 75.3671 296.432 75.3372 296.332C75.3275 296.283 75.3277 296.231 75.338 296.181C75.3482 296.131 75.3683 296.084 75.397 296.042C75.4258 296 75.4626 295.964 75.5053 295.936C75.5481 295.909 75.5959 295.89 75.646 295.881C80.8425 294.826 85.9486 296.86 86.1444 296.95C86.1904 296.97 86.2317 297 86.2659 297.036C86.3001 297.073 86.3265 297.116 86.3434 297.163C86.3603 297.211 86.3674 297.261 86.3643 297.311C86.3612 297.361 86.3479 297.41 86.3252 297.455C86.2798 297.518 86.2175 297.567 86.1456 297.596C86.0737 297.625 85.995 297.634 85.9185 297.62Z" fill="#F5F5F5"/>
<path d="M76.1061 292.935C76.0315 292.927 75.9603 292.9 75.9005 292.854C75.8407 292.809 75.7946 292.748 75.7672 292.679C75.7522 292.631 75.7469 292.58 75.7517 292.53C75.7565 292.48 75.7713 292.432 75.7952 292.387C75.819 292.343 75.8515 292.304 75.8907 292.273C75.9298 292.241 75.9749 292.218 76.0232 292.204C80.9185 290.698 86.3032 293.085 86.5066 293.183C86.5519 293.204 86.5925 293.234 86.6258 293.271C86.6591 293.308 86.6843 293.352 86.6998 293.399C86.7154 293.447 86.721 293.497 86.7162 293.546C86.7115 293.596 86.6965 293.644 86.6723 293.688C86.6161 293.777 86.529 293.843 86.4276 293.872C86.3261 293.901 86.2175 293.892 86.1225 293.846C86.0773 293.846 80.8507 291.526 76.2793 292.92C76.223 292.935 76.1642 292.941 76.1061 292.935Z" fill="#F5F5F5"/>
<path d="M76.3314 289.5C76.2568 289.492 76.1857 289.465 76.1259 289.419C76.0661 289.374 76.0199 289.313 75.9925 289.244C75.9763 289.196 75.9699 289.146 75.9737 289.096C75.9776 289.046 75.9915 288.997 76.0148 288.953C76.038 288.909 76.0701 288.869 76.109 288.838C76.1479 288.806 76.1928 288.783 76.241 288.769C81.6258 287.037 86.7319 289.613 86.9278 289.718C86.9712 289.743 87.0092 289.776 87.0394 289.816C87.0696 289.856 87.0914 289.902 87.1033 289.95C87.1153 289.999 87.1173 290.05 87.1091 290.099C87.1009 290.148 87.0828 290.196 87.0558 290.238C86.996 290.325 86.9049 290.387 86.8012 290.409C86.6975 290.432 86.5891 290.413 86.4985 290.358C86.4533 290.358 81.5204 287.865 76.5122 289.477C76.4538 289.496 76.3925 289.503 76.3314 289.5Z" fill="#F5F5F5"/>
<path d="M76.6256 286.117C76.5524 286.112 76.482 286.086 76.4223 286.044C76.3625 286.001 76.3156 285.943 76.2867 285.876C76.2691 285.828 76.2615 285.778 76.2642 285.727C76.267 285.677 76.28 285.628 76.3026 285.582C76.3252 285.537 76.3569 285.497 76.3956 285.465C76.4343 285.432 76.4792 285.408 76.5277 285.394C81.5735 283.692 87.0713 286.335 87.2821 286.456C87.3266 286.478 87.366 286.51 87.3976 286.549C87.4292 286.587 87.4525 286.632 87.466 286.68C87.4794 286.728 87.4827 286.779 87.4757 286.828C87.4687 286.878 87.4515 286.925 87.4252 286.968C87.3666 287.057 87.276 287.12 87.1722 287.143C87.0685 287.167 86.9595 287.15 86.8679 287.096C86.8228 287.096 81.4907 284.52 76.8063 286.102C76.7475 286.118 76.6862 286.123 76.6256 286.117Z" fill="#EBEBEB"/>
<path d="M82.7876 150.008C81.673 160.243 81.2814 162.766 80.5283 185.502C79.7752 207.553 79.7752 210.784 79.6396 213.443C79.3384 219.535 75.5803 221.975 75.2791 236.345C75.008 249.517 75.4975 265.649 75.4975 265.649C75.4975 265.649 78.0882 267.87 83.488 268.141C86.4046 268.311 89.3189 267.773 91.9832 266.575C91.9832 266.575 99.198 237.06 101.465 227.985C104.138 217.299 108.469 198.712 108.469 198.712C108.469 198.712 110.645 215.28 111.481 220.642C112.234 225.741 110.374 227.729 111.557 239.147C112.498 248.252 115.322 263.465 115.322 263.465C117.836 264.679 120.597 265.296 123.388 265.265C129.556 264.993 131.507 263.005 131.507 263.005C131.507 263.005 134.963 228.964 134.994 215.943C134.994 202.161 134.24 170.387 133.533 150.091L82.7876 150.008Z" fill="#455A64"/>
<path d="M108.459 198.712L111.622 175.802C111.622 175.802 119.643 173.543 124.651 168.316C124.41 172.082 117.391 177.181 114.047 178.039L110.282 198.373L111.426 220.65L108.459 198.712Z" fill="#37474F"/>
<path d="M97.3203 153.059C96.1601 154.973 95.2178 157.012 94.5112 159.136C93.7911 161.233 93.1951 163.371 92.7263 165.538C92.2665 167.694 91.922 169.874 91.6946 172.067C91.4411 174.257 91.368 176.463 91.4762 178.665C91.9582 176.511 92.4025 174.364 92.8468 172.218C93.2912 170.071 93.7204 167.94 94.1874 165.809C94.6543 163.678 95.1288 161.546 95.6258 159.422C96.1229 157.299 96.6651 155.19 97.3203 153.059Z" fill="#37474F"/>
<path d="M94.2633 153.961C93.1276 155.004 92.0983 156.156 91.1906 157.403C90.2784 158.625 89.4553 159.911 88.728 161.251C88.0094 162.582 87.4023 163.97 86.9129 165.401C86.41 166.821 86.101 168.303 85.9941 169.806L87.9974 165.8C88.6752 164.482 89.353 163.172 90.061 161.869C90.7689 160.566 91.4768 159.27 92.1847 157.96C92.8927 156.65 93.6081 155.339 94.2633 153.961Z" fill="#37474F"/>
<path d="M99.1881 179.266C98.435 186.119 97.7722 192.987 97.1095 199.841C96.4467 206.694 94.9405 214.285 93.8485 221.071C92.7565 227.857 87.5148 254.555 86.6562 261.393C88.0872 254.615 94.1874 228.105 95.3246 221.274C96.4618 214.444 97.8099 206.807 98.2617 199.924C98.7136 193.04 99.0073 186.157 99.1881 179.266Z" fill="#37474F"/>
<path d="M126.852 178.973L127.605 196.957C127.71 199.969 127.846 202.944 127.921 205.942C127.996 208.939 128.109 211.967 127.989 214.889C127.868 217.811 126.949 246.52 127.236 252.544C128.154 245.879 129.111 220.981 129.495 214.949C129.623 208.879 129.216 202.899 128.787 196.874C128.358 190.849 127.703 184.922 126.852 178.973Z" fill="#37474F"/>
<path d="M114.547 259.962L115.466 266.266C115.466 266.266 118.847 267.81 124.503 267.471C130.159 267.132 131.469 265.339 131.469 265.339L132.019 259.367C132.019 259.367 129.895 260.873 124.721 261.122C118.026 261.393 114.547 259.962 114.547 259.962Z" fill="#37474F"/>
<path d="M75.1875 261.219L75.3984 267.515C75.3984 267.515 78.0719 269.526 83.6826 270.038C89.2933 270.55 91.8163 268.675 91.8163 268.675L92.9836 263.109C92.9836 263.109 90.1519 264.224 84.9931 263.802C81.611 263.451 78.3035 262.579 75.1875 261.219Z" fill="#37474F"/>
<path d="M184.782 121.125C176.394 125.038 167.683 128.218 158.747 130.63C152.451 132.241 148.467 129.748 144.438 126.864C138.091 122.309 132.124 117.247 126.596 111.726C123.207 103.344 123.14 93.968 124.706 89.6602C132.034 90.2928 134.677 93.7496 140.258 99.059C145.839 104.368 155.117 113.903 155.117 113.903C155.117 113.903 175.737 110.838 176.957 110.484C178.855 109.919 179.638 109.633 180.248 108.465C180.837 107.241 181.355 105.984 181.8 104.7C182.473 102.923 183.258 101.189 184.15 99.5109C184.707 98.4565 185.257 97.3871 185.897 96.3779C186.416 95.557 187.117 94.3445 188.058 93.9604C188.592 93.8161 189.16 93.8807 189.647 94.1412C190.107 93.5985 190.611 93.0948 191.153 92.635C191.402 92.3924 191.704 92.2118 192.035 92.1078C192.269 92.0514 192.514 92.0625 192.742 92.1398C192.97 92.2171 193.171 92.3575 193.322 92.5446C193.826 92.0533 194.488 91.757 195.19 91.7086C195.535 91.7342 195.861 91.8729 196.118 92.1031C196.376 92.3332 196.55 92.642 196.614 92.9814C196.597 93.4565 196.614 93.9322 196.666 94.4048C196.825 94.77 197.033 95.1119 197.284 95.4215C197.536 95.9213 197.655 96.4776 197.63 97.0368C197.605 97.5961 197.437 98.1395 197.141 98.6147C196.388 100.219 195.378 101.695 194.52 103.254C193.892 104.393 193.331 105.567 192.84 106.771C192.682 107.155 192.125 108.104 192.23 108.518C192.336 108.932 193.172 108.812 193.488 108.646C194.305 108.136 195.078 107.559 195.8 106.922C196.529 106.282 197.453 105.911 198.421 105.867C198.597 105.862 198.77 105.909 198.918 106.003C199.295 106.266 199.167 106.854 198.986 107.276C198.082 109.347 196.606 111.041 195.22 112.811C193.741 114.801 191.992 116.575 190.024 118.083C188.379 119.265 186.624 120.284 184.782 121.125Z" fill="#FFA8A7"/>
<path d="M196.348 94.4358C196.196 94.3326 196.016 94.2773 195.832 94.2773C195.648 94.2773 195.469 94.3326 195.317 94.4358C194.936 94.7188 194.609 95.0683 194.353 95.4676C193.657 96.3903 193.038 97.3674 192.5 98.3897C191.943 99.4139 191.4 100.453 190.851 101.477C190.281 102.422 189.833 103.434 189.518 104.49C189.518 104.535 189.518 104.618 189.578 104.55C190.082 103.631 190.512 102.667 191.009 101.741C191.506 100.815 191.995 99.911 192.515 98.9922C193.002 98.102 193.553 97.2487 194.164 96.4391C194.473 96.0324 194.789 95.6182 195.136 95.2341C195.377 94.9705 195.889 94.481 196.333 94.5413C196.371 94.5639 196.386 94.4509 196.348 94.4358Z" fill="#F28F8F"/>
<path d="M193.222 92.5703C191.669 94.1273 190.352 95.9034 189.313 97.8421C188.3 99.5157 187.501 101.309 186.934 103.182C187.695 101.38 188.586 99.6356 189.6 97.9626C190.684 96.1024 192.047 94.4531 193.252 92.6908C193.305 92.6908 193.29 92.5251 193.222 92.5703Z" fill="#F28F8F"/>
<path d="M189.299 94.3539C188.321 95.5344 187.472 96.8171 186.769 98.1797C186.385 98.9328 186.016 99.6257 185.684 100.364C185.268 101.139 184.959 101.968 184.766 102.826C184.766 102.872 184.803 102.947 184.848 102.887C185.248 102.194 185.581 101.465 185.843 100.71C186.174 99.957 186.535 99.2416 186.92 98.5186C187.673 97.1178 188.516 95.7622 189.314 94.3915C189.299 94.3765 189.299 94.3313 189.299 94.3539Z" fill="#F28F8F"/>
<path d="M124.448 89.332C133.365 91.0115 133.629 92.3445 139.684 98.1887C146.507 104.824 155.138 113.733 155.138 113.733L167.496 111.752C167.496 111.752 170.908 115.179 171.646 118.824C172.738 124.239 172.015 126.559 172.015 126.559C167.906 128.262 163.693 129.7 159.4 130.866C154.046 132.124 152.035 132.207 147.094 129.225C136.415 122.778 126.263 111.993 126.263 111.993C126.263 111.993 120.668 99.3936 124.448 89.332Z" fill="#455A64"/>
<path d="M133.171 114.443C133.066 98.8611 128.652 91.1417 124.48 89.3192C122.13 88.7167 109.674 87.1954 103.355 88.069C94.3178 89.3342 88.3682 92.4672 81.5751 97.4302C76.3033 107.462 82.509 117.569 82.7048 132.074C82.8629 143.521 82.4638 146.292 81.6579 158.93C91.712 167.402 127.598 166.95 133.864 156.113C133.773 143.875 133.299 132.352 133.171 114.443Z" fill="#C1121F"/>
<path d="M99.0023 82.5206C98.2492 78.755 94.3857 74.9894 92.6008 71.7134C90.8159 68.4373 89.8444 66.1629 89.9423 63.1731C89.995 61.4108 91.0418 58.9857 92.3372 58.4435C92.0028 57.3857 91.8867 56.271 91.9959 55.167C92.1051 54.063 92.4374 52.9926 92.9726 52.0208C93.5077 51.049 94.2347 50.1961 95.1093 49.5136C95.984 48.8311 96.9881 48.3334 98.0609 48.0505C99.2799 47.7614 100.478 47.3889 101.646 46.9359C103.046 46.3033 103.34 45.151 104.455 44.1418C106.375 42.4172 109.727 42.2817 111.037 44.7745C112.302 43.0423 114.049 43.0348 116.151 43.5017C117.023 43.6723 117.798 44.1675 118.32 44.8874C118.841 45.6073 119.07 46.4982 118.96 47.3802C121.663 45.761 124.232 47.6288 124.54 49.2404C124.766 50.4304 124.54 51.4395 125.346 52.4864C126.265 53.6687 127.922 53.601 128.404 52.6144C128.735 54.2938 128.11 55.6269 126.273 55.5666C126.597 56.0297 126.817 56.5581 126.915 57.1149C127.014 57.6717 126.99 58.2434 126.845 58.7899C126.643 59.4747 126.237 60.0816 125.681 60.5297C125.126 60.9778 124.447 61.2457 123.735 61.2978C123.684 62.2146 123.427 63.1081 122.981 63.9111C122.449 64.7396 121.726 65.429 120.873 65.9219C118.131 67.3303 115.066 67.8499 112.084 68.5578L108.552 69.3938C108.348 69.4465 107.271 69.5369 107.151 69.7252L99.0023 82.5206Z" fill="#263238"/>
<path d="M94.2969 77.7838C96.9931 79.2901 98.7328 77.5202 98.7328 77.5202L99.2449 88.8772C101.12 94.3448 107.612 97.9522 112.259 97.538C117.666 97.0636 117.99 93.2679 114.254 89.1483L114.307 85.7593C115.776 85.7327 117.243 85.617 118.698 85.4129C121.643 84.9233 123.796 82.4607 124.55 79.2373C125.364 75.0465 125.364 70.7381 124.55 66.5473C124.324 65.5295 124.24 64.4853 124.301 63.4445C124.512 60.6881 123.97 59.1066 123.194 56.8171C119.865 54.2942 112.319 53.6164 105.428 58.0823C106.362 62.232 104.833 65.6135 101.843 67.2628C102.016 68.3849 102.242 71.2317 100.39 71.2317C99.0491 71.2317 98.8834 69.5598 97.5052 68.1214C96.127 66.6829 92.8811 66.3892 91.7062 68.5958C90.0569 71.6836 91.3447 76.1345 94.2969 77.7838Z" fill="#FFA8A7"/>
<path d="M114.305 85.7883C109.598 85.3666 105.945 84.9448 103.407 81.6236C102.21 79.9113 101.2 78.0758 100.395 76.1484C100.762 78.5533 101.509 80.8844 102.609 83.0545C103.851 85.1858 106.879 87.046 114.244 87.4678L114.305 85.7883Z" fill="#F28F8F"/>
<path d="M111.807 67.7147C111.799 67.9745 111.716 68.2264 111.566 68.439C111.417 68.6516 111.208 68.8157 110.966 68.9107C110.724 69.0057 110.46 69.0275 110.206 68.9734C109.952 68.9193 109.719 68.7916 109.537 68.6063C109.354 68.4211 109.231 68.1863 109.181 67.9312C109.131 67.6762 109.157 67.4121 109.256 67.1718C109.355 66.9315 109.523 66.7257 109.738 66.5798C109.953 66.434 110.206 66.3546 110.466 66.3516C110.824 66.3555 111.166 66.5011 111.418 66.7566C111.669 67.012 111.809 67.3565 111.807 67.7147Z" fill="#263238"/>
<path d="M111.324 63.3943L108.371 64.7048C108.207 64.3001 108.204 63.8477 108.364 63.4411C108.524 63.0346 108.834 62.705 109.23 62.5207C109.424 62.4364 109.634 62.3922 109.845 62.3907C110.057 62.3892 110.267 62.4304 110.463 62.512C110.658 62.5936 110.835 62.7138 110.983 62.8654C111.131 63.017 111.247 63.1969 111.324 63.3943Z" fill="#263238"/>
<path d="M122.636 63.5422L119.48 62.7891C119.52 62.5812 119.602 62.3835 119.721 62.2082C119.839 62.0329 119.993 61.8837 120.171 61.7695C120.349 61.6554 120.549 61.5787 120.758 61.5442C120.967 61.5098 121.18 61.5182 121.386 61.569C121.806 61.678 122.168 61.9424 122.4 62.3088C122.633 62.6752 122.717 63.1161 122.636 63.5422Z" fill="#263238"/>
<path d="M122.274 66.6994C122.267 66.9576 122.183 67.2081 122.035 67.4195C121.886 67.6309 121.679 67.7939 121.438 67.8884C121.198 67.9828 120.935 68.0045 120.682 67.9507C120.429 67.8968 120.198 67.7699 120.017 67.5857C119.836 67.4014 119.713 67.168 119.663 66.9144C119.614 66.6608 119.64 66.3982 119.738 66.1593C119.837 65.9205 120.003 65.7158 120.217 65.5708C120.431 65.4258 120.683 65.3468 120.941 65.3438C121.118 65.3447 121.292 65.3806 121.455 65.4494C121.618 65.5181 121.766 65.6184 121.889 65.7444C122.013 65.8703 122.111 66.0196 122.177 66.1835C122.243 66.3474 122.276 66.5227 122.274 66.6994Z" fill="#263238"/>
<path d="M120.998 72.0522L116.111 74.4546L115.26 64.9805L120.998 72.0522Z" fill="#F28F8F"/>
<path d="M111.391 75.6445L116.731 77.4746C116.625 77.8322 116.449 78.1649 116.213 78.4529C115.976 78.741 115.684 78.9785 115.354 79.1514C115.024 79.3242 114.662 79.4289 114.29 79.4591C113.919 79.4893 113.545 79.4445 113.191 79.3273C112.473 79.0659 111.884 78.5361 111.548 77.8492C111.212 77.1623 111.156 76.372 111.391 75.6445Z" fill="#B16668"/>
<path d="M111.95 76.6149C111.727 76.5668 111.5 76.544 111.272 76.5472C111.264 77.1524 111.444 77.7452 111.788 78.2432C112.132 78.7412 112.623 79.1197 113.192 79.3261C113.481 79.422 113.784 79.4679 114.088 79.4617C114.165 78.8034 113.986 78.1408 113.588 77.6109C113.19 77.0811 112.603 76.7245 111.95 76.6149Z" fill="#F28F8F"/>
<path d="M140.658 129.892C142.63 129.699 144.576 129.301 146.465 128.702C148.046 128.332 149.656 128.1 151.277 128.009C152.957 127.844 154.644 127.723 156.331 127.543C156.752 127.497 156.925 127.897 156.948 128.296C156.952 128.65 156.878 129.002 156.731 129.325C156.584 129.648 156.368 129.934 156.097 130.163C155.548 130.617 154.916 130.959 154.237 131.173C153.641 131.383 153.032 131.557 152.414 131.692C151.767 131.828 150.223 132.144 150.577 133.101L140.658 129.892Z" fill="#FFA8A7"/>
<path d="M140.658 129.893C141.983 129.963 143.309 129.795 144.574 129.396C145.214 129.186 145.866 129.013 146.525 128.876C147.189 128.735 147.86 128.632 148.536 128.567C149.816 128.394 151.134 128.289 152.437 128.115C153.74 127.942 155.035 127.776 156.331 127.543C155.013 127.543 153.702 127.618 152.392 127.694C151.081 127.769 149.786 127.867 148.468 128.025C147.804 128.116 147.148 128.251 146.502 128.432C145.855 128.62 145.215 128.755 144.567 128.996C143.919 129.237 143.746 129.275 142.94 129.524C142.189 129.7 141.427 129.824 140.658 129.893Z" fill="#F28F8F"/>
<path d="M81.7937 98.1678C86.2371 97.4147 91.5089 100.164 96.5548 106.859L111.881 126.779C111.881 126.779 124.465 128.548 130.52 129.264C137.539 130.092 138.579 130.017 140.657 129.897L150.576 133.082C150.824 133.775 152.082 134.332 152.707 134.686C156.013 136.675 161.428 137.044 163.552 137.285C165.676 137.526 165.932 138.294 165.39 139.122C164.985 139.493 164.474 139.725 163.928 139.785C165.111 139.868 166.09 140.109 166.466 140.764C166.941 141.592 165.585 142.044 164.96 142.187L163.364 142.594C163.457 142.761 163.505 142.949 163.505 143.14C163.505 143.331 163.457 143.519 163.364 143.686C163.139 143.955 162.859 144.174 162.543 144.326C161.037 145.079 159.026 145.079 157.655 145.004C158.755 145.328 159.282 145.305 159.741 145.622C159.899 145.708 160.021 145.848 160.085 146.017C160.148 146.185 160.149 146.371 160.088 146.54C159.937 146.977 158.009 147.188 157.542 147.211C153.776 147.422 153.882 147.278 151.743 146.683C150.449 146.323 149.189 145.85 147.977 145.268C147.224 144.861 145.891 144.191 144.762 143.52C141.877 141.803 139.723 141.502 138.405 141.555C128.359 141.954 123.441 141.992 111.482 142.217C105.103 142.338 103.197 140.229 99.4317 135.801C95.4778 131.124 91.4487 126.583 85.0321 119.097C80.4532 113.705 77.7345 106.881 81.7937 98.1678Z" fill="#FFA8A7"/>
<path d="M163.379 142.594C161.422 142.879 159.441 142.97 157.467 142.865C156.494 142.739 155.542 142.486 154.635 142.112L151.818 141.133C152.694 141.612 153.596 142.04 154.522 142.413C155.444 142.83 156.424 143.102 157.429 143.219C159.433 143.329 161.441 143.118 163.379 142.594Z" fill="#F28F8F"/>
<path d="M163.693 139.902C161.736 140.184 159.756 140.274 157.781 140.174C156.808 140.048 155.856 139.794 154.949 139.42L152.133 138.441C153.008 138.921 153.911 139.349 154.837 139.722C155.758 140.139 156.739 140.411 157.744 140.528C159.747 140.634 161.755 140.423 163.693 139.902Z" fill="#F28F8F"/>
<path d="M157.669 145.003C156.649 144.842 155.642 144.605 154.656 144.295C153.655 144.009 152.698 143.61 151.682 143.316C152.57 143.889 153.53 144.342 154.536 144.664C155.546 144.989 156.612 145.105 157.669 145.003Z" fill="#F28F8F"/>
<path d="M84.5116 95.3711C79.7594 98.2179 78.4867 100.989 77.8541 103.196C77.2214 105.403 76.9277 111.149 81.2958 117.106C85.6639 123.063 99.8149 137.146 102.383 139.534C104.951 141.921 104.929 142.599 110.261 142.546C115.864 142.463 120.104 142.147 120.104 142.147C118.631 139.877 118.017 137.156 118.372 134.473C118.854 129.675 120.955 127.695 120.955 127.695L112.136 126.332C112.136 126.332 103.031 114.335 97.9396 107.745C92.8486 101.155 89.1357 97.0129 84.5116 95.3711Z" fill="#455A64"/>
<path d="M173.629 50.3519C169.875 54.5517 164.661 57.1616 159.049 57.6496L156.518 57.7249C150.939 57.5992 145.612 55.374 141.601 51.4935C137.59 47.6129 135.19 42.3624 134.88 36.7901C134.57 31.2178 136.373 25.7336 139.929 21.4322C143.485 17.1307 148.532 14.3285 154.063 13.5848L156.593 13.389C160.919 13.2867 165.18 14.4522 168.851 16.7417C172.522 19.0313 175.443 22.3449 177.254 26.2742C179.065 30.2035 179.686 34.5768 179.042 38.8552C178.398 43.1335 176.516 47.1299 173.629 50.3519Z" fill="white"/>
<path d="M173.148 17.6126C168.635 13.6702 162.814 11.551 156.822 11.6687C150.83 11.7864 145.097 14.1324 140.741 18.249C136.386 22.3657 133.72 27.9574 133.265 33.9332C132.81 39.909 134.597 45.84 138.279 50.5689L135.643 57.5653C135.545 57.8292 135.529 58.1165 135.596 58.3898C135.664 58.6632 135.812 58.9098 136.022 59.0976C136.231 59.2854 136.493 59.4057 136.772 59.4427C137.051 59.4797 137.335 59.4317 137.586 59.305L144.251 55.9085C149.358 59.0388 155.447 60.1554 161.332 59.0405C167.217 57.9256 172.476 54.6592 176.084 49.878C179.692 45.0968 181.39 39.1434 180.847 33.1784C180.304 27.2134 177.56 21.6642 173.148 17.6126ZM173.63 50.3505C169.876 54.5503 164.662 57.1602 159.05 57.6482L156.52 57.7235C150.94 57.5978 145.613 55.3726 141.602 51.4921C137.591 47.6115 135.191 42.361 134.881 36.7887C134.571 31.2164 136.374 25.7322 139.93 21.4308C143.486 17.1293 148.533 14.3271 154.064 13.5834L156.595 13.3801C160.92 13.2798 165.181 14.4469 168.851 16.7374C172.521 19.028 175.442 22.342 177.252 26.2715C179.063 30.2009 179.685 34.5741 179.041 38.8525C178.398 43.1309 176.517 47.1276 173.63 50.3505Z" fill="#455A64"/>
<path opacity="0.7" d="M173.629 50.3514C169.875 54.5512 164.661 57.1611 159.049 57.6491L156.518 57.7244C150.939 57.5987 145.612 55.3735 141.601 51.4929C137.59 47.6124 135.19 42.3619 134.88 36.7896C134.57 31.2173 136.373 25.7331 139.929 21.4316C143.485 17.1302 148.532 14.328 154.063 13.5843L156.593 13.381C160.919 13.2807 165.179 14.4477 168.85 16.7383C172.52 19.0288 175.44 22.3429 177.251 26.2723C179.062 30.2018 179.683 34.575 179.04 38.8534C178.396 43.1317 176.515 47.1285 173.629 50.3514Z" fill="white"/>
<path d="M149.452 25.9287C149.452 26.0643 149.452 26.2526 149.452 26.471C149.452 26.6894 149.452 26.8701 149.452 27.0132C149.435 27.4514 149.33 27.8818 149.143 28.2785C148.96 28.6698 148.705 29.0226 148.39 29.3177C148.042 29.6239 147.638 29.8592 147.2 30.0106C146.189 30.3521 145.093 30.3521 144.082 30.0106C143.645 29.8575 143.241 29.6224 142.892 29.3177C142.577 29.0226 142.321 28.6698 142.139 28.2785C141.952 27.8818 141.847 27.4514 141.83 27.0132C141.83 26.8701 141.83 26.6894 141.83 26.471C141.83 26.2526 141.83 26.0643 141.83 25.9287C141.838 25.4877 141.941 25.0536 142.131 24.656C142.309 24.264 142.565 23.9128 142.884 23.6242C143.24 23.3217 143.645 23.0823 144.082 22.9163C145.093 22.5748 146.189 22.5748 147.2 22.9163C147.637 23.0805 148.043 23.3201 148.397 23.6242C148.714 23.9147 148.97 24.2655 149.15 24.656C149.331 25.0572 149.433 25.4892 149.452 25.9287ZM144.323 26.9379C144.326 27.1006 144.361 27.261 144.427 27.4098C144.493 27.5585 144.588 27.6925 144.707 27.804C144.969 28.0031 145.289 28.1109 145.618 28.1109C145.947 28.1109 146.267 28.0031 146.53 27.804C146.764 27.5843 146.902 27.2812 146.914 26.9605C146.926 26.8026 146.926 26.6439 146.914 26.486C146.926 26.3256 146.926 26.1645 146.914 26.004C146.9 25.6858 146.762 25.3855 146.53 25.1681C146.267 24.969 145.947 24.8612 145.618 24.8612C145.289 24.8612 144.969 24.969 144.707 25.1681C144.474 25.3855 144.336 25.6858 144.323 26.004C144.31 26.1645 144.31 26.3256 144.323 26.486C144.311 26.6364 144.311 26.7875 144.323 26.9379Z" fill="#C1121F"/>
<path d="M158.285 29.7441C158.285 29.7934 158.275 29.8421 158.255 29.8873C158.236 29.9326 158.207 29.9735 158.172 30.0077C158.137 30.0441 158.095 30.0729 158.048 30.0923C158.002 30.1117 157.951 30.1214 157.901 30.1207H156.154C156.103 30.1214 156.053 30.1117 156.006 30.0923C155.96 30.0729 155.918 30.0441 155.883 30.0077C155.847 29.9735 155.819 29.9326 155.799 29.8873C155.78 29.8421 155.77 29.7934 155.77 29.7441V26.1819C155.789 25.8313 155.685 25.485 155.476 25.2028C155.357 25.0762 155.212 24.9779 155.05 24.9153C154.889 24.8527 154.715 24.8274 154.542 24.8413C154.371 24.8258 154.199 24.8504 154.04 24.9131C153.88 24.9759 153.738 25.0751 153.623 25.2028C153.414 25.485 153.31 25.8313 153.329 26.1819V29.7441C153.329 29.7934 153.319 29.8421 153.3 29.8873C153.28 29.9326 153.252 29.9735 153.217 30.0077C153.183 30.0439 153.142 30.0726 153.097 30.0921C153.051 30.1115 153.002 30.1213 152.953 30.1207H151.176C151.126 30.1213 151.077 30.1115 151.032 30.0921C150.986 30.0726 150.946 30.0439 150.912 30.0077C150.876 29.9735 150.848 29.9326 150.829 29.8873C150.809 29.8421 150.799 29.7934 150.799 29.7441V23.1769C150.797 23.1274 150.807 23.0781 150.826 23.0326C150.846 22.9871 150.875 22.9464 150.912 22.9133C150.945 22.8762 150.986 22.8463 151.031 22.8255C151.077 22.8048 151.126 22.7937 151.176 22.7929H152.885C152.935 22.7945 152.984 22.806 153.029 22.8267C153.074 22.8474 153.115 22.8768 153.149 22.9133C153.186 22.9464 153.215 22.9871 153.234 23.0326C153.254 23.0781 153.263 23.1274 153.262 23.1769V23.5008C153.348 23.3971 153.441 23.299 153.54 23.2071C153.664 23.0947 153.804 23.0008 153.955 22.9284C154.133 22.845 154.32 22.7795 154.512 22.7326C154.759 22.6759 155.012 22.6506 155.265 22.6573C155.684 22.6508 156.102 22.7145 156.5 22.8456C156.864 22.966 157.196 23.1668 157.472 23.433C157.749 23.7158 157.962 24.0548 158.097 24.4271C158.256 24.8895 158.333 25.3765 158.323 25.8656L158.285 29.7441Z" fill="#C1121F"/>
<path d="M160.794 44.1985C160.794 44.3416 160.794 44.5224 160.794 44.7408C160.794 44.9592 160.794 45.1399 160.794 45.283C160.781 45.7217 160.675 46.1528 160.485 46.5483C160.307 46.9422 160.051 47.2958 159.732 47.5875C159.385 47.8951 158.981 48.1307 158.542 48.2804C158.044 48.4586 157.519 48.5453 156.99 48.5365C156.46 48.5448 155.932 48.458 155.431 48.2804C154.993 48.1307 154.588 47.8951 154.242 47.5875C153.923 47.2958 153.666 46.9422 153.488 46.5483C153.298 46.1528 153.193 45.7217 153.18 45.283C153.18 45.1399 153.18 44.9592 153.18 44.7408C153.18 44.5224 153.18 44.3416 153.18 44.1985C153.184 43.7604 153.285 43.3287 153.473 42.9333C153.652 42.5397 153.908 42.1862 154.227 41.894C154.579 41.5884 154.985 41.3509 155.424 41.1936C155.924 41.0134 156.452 40.9241 156.983 40.93C157.512 40.9236 158.037 41.0129 158.534 41.1936C158.973 41.3509 159.379 41.5884 159.732 41.894C160.055 42.1823 160.311 42.5368 160.485 42.9333C160.676 43.3287 160.781 43.7598 160.794 44.1985ZM155.672 45.2152C155.676 45.3735 155.711 45.5294 155.777 45.6732C155.844 45.817 155.939 45.9457 156.057 46.0512C156.312 46.2613 156.637 46.3687 156.968 46.3524C157.296 46.369 157.619 46.2614 157.872 46.0512C157.989 45.945 158.085 45.8163 158.152 45.6727C158.219 45.5292 158.257 45.3736 158.263 45.2152C158.293 44.8946 158.293 44.5719 158.263 44.2512C158.257 44.0928 158.219 43.9373 158.152 43.7937C158.085 43.6502 157.989 43.5215 157.872 43.4153C157.619 43.2051 157.296 43.0975 156.968 43.114C156.637 43.0978 156.312 43.2052 156.057 43.4153C155.939 43.5208 155.844 43.6495 155.777 43.7933C155.711 43.9371 155.676 44.093 155.672 44.2512C155.632 44.5713 155.632 44.8952 155.672 45.2152Z" fill="#C1121F"/>
<path d="M170.659 41.0761H172.391C172.442 41.0753 172.492 41.085 172.538 41.1044C172.585 41.1238 172.627 41.1526 172.662 41.189C172.699 41.2226 172.727 41.2635 172.747 41.3089C172.766 41.3543 172.776 41.4032 172.775 41.4526V42.8685C172.775 42.9703 172.735 43.068 172.663 43.1401C172.591 43.2121 172.493 43.2526 172.391 43.2526H170.659V48.0122C170.661 48.0618 170.651 48.111 170.632 48.1566C170.612 48.2021 170.583 48.2428 170.546 48.2758C170.511 48.3122 170.469 48.341 170.422 48.3605C170.376 48.3799 170.325 48.3895 170.275 48.3888H168.505C168.455 48.3895 168.404 48.3799 168.358 48.3605C168.311 48.341 168.269 48.3122 168.234 48.2758C168.197 48.2428 168.168 48.2021 168.148 48.1566C168.129 48.111 168.119 48.0618 168.121 48.0122V43.2601H165.417V48.0198C165.419 48.0693 165.41 48.1186 165.39 48.1641C165.371 48.2096 165.341 48.2504 165.304 48.2834C165.27 48.3188 165.229 48.3471 165.184 48.3665C165.139 48.3859 165.09 48.396 165.041 48.3963H163.263C163.213 48.3971 163.163 48.3874 163.116 48.368C163.07 48.3486 163.027 48.3198 162.992 48.2834C162.955 48.2504 162.926 48.2096 162.907 48.1641C162.887 48.1186 162.878 48.0693 162.879 48.0198V43.2601H161.908C161.859 43.2598 161.81 43.2497 161.765 43.2303C161.719 43.2109 161.678 43.1826 161.644 43.1471C161.608 43.1121 161.579 43.0699 161.56 43.0233C161.54 42.9766 161.531 42.9265 161.531 42.876V41.4526C161.531 41.4032 161.54 41.3543 161.56 41.3089C161.579 41.2635 161.608 41.2226 161.644 41.189C161.678 41.1536 161.719 41.1253 161.765 41.1059C161.81 41.0865 161.859 41.0763 161.908 41.0761H162.879V40.692C162.875 40.2957 162.955 39.903 163.113 39.5397C163.26 39.212 163.479 38.9212 163.753 38.6887C164.04 38.4508 164.37 38.2694 164.725 38.154C165.119 38.0315 165.531 37.9705 165.945 37.9732H167.285C167.334 37.9726 167.383 37.9824 167.429 38.0018C167.474 38.0213 167.515 38.05 167.549 38.0862C167.585 38.1212 167.614 38.1634 167.633 38.21C167.653 38.2567 167.662 38.3068 167.662 38.3573V39.7807C167.661 39.8299 167.651 39.8786 167.632 39.9239C167.612 39.9692 167.584 40.0101 167.549 40.0443C167.515 40.0805 167.474 40.1092 167.429 40.1287C167.383 40.1481 167.334 40.1579 167.285 40.1573H166.02C165.933 40.1485 165.845 40.1595 165.763 40.1895C165.681 40.2195 165.606 40.2677 165.545 40.3305C165.449 40.4551 165.401 40.6101 165.41 40.7673V41.0761H168.114V40.692C168.106 40.2954 168.185 39.9019 168.347 39.5397C168.494 39.212 168.713 38.9212 168.987 38.6887C169.273 38.4493 169.603 38.2677 169.959 38.154C170.366 38.0271 170.79 37.9661 171.216 37.9732H172.557C172.606 37.9735 172.655 37.9837 172.7 38.0031C172.745 38.0225 172.786 38.0507 172.82 38.0862C172.857 38.1212 172.886 38.1634 172.905 38.21C172.925 38.2567 172.934 38.3068 172.933 38.3573V39.7807C172.932 39.88 172.891 39.9746 172.821 40.0448C172.751 40.115 172.656 40.1553 172.557 40.1573H171.284C171.198 40.1479 171.111 40.1587 171.03 40.1888C170.949 40.2189 170.876 40.2674 170.817 40.3305C170.721 40.4551 170.673 40.6101 170.682 40.7673L170.659 41.0761Z" fill="#C1121F"/>
<path d="M144.632 48.499C144.409 48.4968 144.193 48.4294 144.008 48.3053C143.824 48.1811 143.68 48.0056 143.594 47.8004C143.508 47.5952 143.484 47.3694 143.526 47.1509C143.567 46.9324 143.671 46.7308 143.826 46.571L167.383 22.9006C167.481 22.7716 167.605 22.6651 167.748 22.5883C167.89 22.5116 168.048 22.4663 168.209 22.4556C168.371 22.4449 168.532 22.469 168.684 22.5263C168.835 22.5837 168.972 22.6728 169.086 22.7878C169.2 22.9028 169.288 23.0409 169.344 23.1928C169.4 23.3447 169.422 23.5068 169.41 23.6682C169.398 23.8296 169.351 23.9864 169.273 24.1282C169.195 24.2699 169.087 24.3932 168.957 24.4897L145.43 48.1375C145.328 48.2486 145.205 48.3379 145.068 48.4C144.931 48.4621 144.782 48.4958 144.632 48.499Z" fill="#37474F"/>
</svg>
