<svg width="70" height="57" viewBox="0 0 70 57" fill="none" xmlns="http://www.w3.org/2000/svg">
<path d="M62.1491 41.6256H36.8497C36.6322 41.6252 36.4238 41.5386 36.27 41.3849C36.1162 41.2311 36.0297 41.0226 36.0293 40.8052V3.94595C36.03 3.72873 36.1168 3.52063 36.2705 3.36716C36.4242 3.21368 36.6325 3.12732 36.8497 3.12695H62.1491C62.3663 3.12732 62.5746 3.21368 62.7283 3.36716C62.882 3.52063 62.9688 3.72873 62.9695 3.94595V40.8052C62.9691 41.0226 62.8826 41.2311 62.7288 41.3849C62.575 41.5386 62.3666 41.6252 62.1491 41.6256ZM36.8497 3.16195C36.7462 3.16122 36.6436 3.18094 36.5477 3.21999C36.4519 3.25904 36.3647 3.31665 36.2912 3.38951C36.2177 3.46236 36.1593 3.54903 36.1194 3.64452C36.0795 3.74002 36.0589 3.84246 36.0587 3.94595V40.8052C36.0587 41.0135 36.1414 41.2132 36.2887 41.3605C36.436 41.5078 36.6358 41.5906 36.8441 41.5906H62.1491C62.3574 41.5906 62.5572 41.5078 62.7045 41.3605C62.8518 41.2132 62.9345 41.0135 62.9345 40.8052V3.94595C62.9345 3.73765 62.8518 3.53788 62.7045 3.39059C62.5572 3.2433 62.3574 3.16055 62.1491 3.16055L36.8497 3.16195Z" fill="#E0E0E0"/>
<path d="M32.9692 41.626H7.66415C7.44668 41.6256 7.23822 41.539 7.08445 41.3853C6.93067 41.2315 6.84412 41.023 6.84375 40.8056V3.94638C6.84412 3.72891 6.93067 3.52045 7.08445 3.36668C7.23822 3.2129 7.44668 3.12635 7.66415 3.12598H32.9692C33.1866 3.12635 33.3951 3.2129 33.5489 3.36668C33.7026 3.52045 33.7892 3.72891 33.7896 3.94638V40.8056C33.7892 41.023 33.7026 41.2315 33.5489 41.3853C33.3951 41.539 33.1866 41.6256 32.9692 41.626ZM7.66415 3.16238C7.45609 3.16238 7.25653 3.24493 7.10928 3.39192C6.96203 3.53891 6.87912 3.73832 6.87875 3.94638V40.8056C6.87875 41.0139 6.9615 41.2136 7.10879 41.3609C7.25608 41.5082 7.45585 41.591 7.66415 41.591H32.9692C33.1775 41.591 33.3772 41.5082 33.5245 41.3609C33.6718 41.2136 33.7546 41.0139 33.7546 40.8056V3.94638C33.7546 3.73808 33.6718 3.53831 33.5245 3.39102C33.3772 3.24372 33.1775 3.16098 32.9692 3.16098L7.66415 3.16238Z" fill="#E0E0E0"/>
<path d="M70 50.1753H0V50.2103H70V50.1753Z" fill="#E0E0E0"/>
<path d="M20.7773 30.7224V6.88037L11.0417 6.88037L11.0417 30.7224H20.7773Z" fill="#E0E0E0"/>
<path d="M20.2402 7.41357H11.5742V30.186H20.2402V7.41357Z" fill="#F0F0F0"/>
<path d="M16.3798 6.87891H15.7344V30.7209H16.3798V6.87891Z" fill="#E0E0E0"/>
<path d="M60.6367 30.7209V6.87891L50.9011 6.87891V30.7209H60.6367Z" fill="#E0E0E0"/>
<path d="M60.1035 7.41357H51.4375V30.186H60.1035V7.41357Z" fill="#F0F0F0"/>
<path d="M56.2411 6.87891H55.5957V30.7209H56.2411V6.87891Z" fill="#E0E0E0"/>
<path d="M22.3464 30.2379C22.3555 30.2407 22.3652 30.2407 22.3744 30.2379C22.3917 30.2318 22.406 30.2192 22.4141 30.2027C22.4223 30.1862 22.4236 30.1672 22.4178 30.1497C21.484 27.4771 23.2578 26.1177 25.1282 24.6785C25.3036 24.546 25.4782 24.4111 25.6518 24.2739C27.693 22.6737 27.5418 20.1747 27.539 20.1495C27.5375 20.1312 27.5289 20.1141 27.5151 20.1021C27.5012 20.09 27.4831 20.0839 27.4648 20.0851C27.4556 20.0856 27.4467 20.088 27.4385 20.092C27.4302 20.0961 27.4229 20.1017 27.4169 20.1086C27.4109 20.1155 27.4064 20.1236 27.4035 20.1323C27.4007 20.141 27.3996 20.1502 27.4004 20.1593C27.4004 20.1845 27.5404 22.6107 25.565 24.1647C25.3914 24.3047 25.2164 24.4349 25.0428 24.5679C23.1304 26.0351 21.3188 27.4239 22.2904 30.1917C22.2946 30.2038 22.302 30.2145 22.3119 30.2226C22.3218 30.2308 22.3337 30.2361 22.3464 30.2379Z" fill="#F5F5F5"/>
<path d="M30.5584 16.9663C30.2686 18.4601 28.8462 20.0855 27.5302 19.8307C26.2142 19.5759 25.5114 17.5263 25.7914 16.0367C26.0714 14.5471 27.3818 13.5405 28.6978 13.7967C30.0138 14.0529 30.8482 15.4683 30.5584 16.9663Z" fill="#E0E0E0"/>
<path d="M30.5584 16.9663C30.2686 18.4601 28.8462 20.0855 27.5302 19.8307C26.2142 19.5759 25.5114 17.5263 25.7914 16.0367C26.0714 14.5471 27.3818 13.5405 28.6978 13.7967C30.0138 14.0529 30.8482 15.4683 30.5584 16.9663Z" fill="#E6E6E6"/>
<path d="M27.3695 19.7852L27.0391 20.1282L27.8553 20.2906L27.6803 19.844L27.3695 19.7852Z" fill="#E6E6E6"/>
<path d="M41.8531 23.6861C41.8633 23.6858 41.8733 23.6834 41.8825 23.6791C41.899 23.6707 41.9115 23.6561 41.9173 23.6386C41.9231 23.621 41.9216 23.6018 41.9133 23.5853C40.6631 21.0471 42.2549 19.4819 43.9405 17.8257C44.0973 17.6717 44.2541 17.5177 44.4095 17.3609C46.2421 15.5255 45.7885 13.0629 45.7843 13.0377C45.7803 13.0197 45.7694 13.004 45.754 12.9938C45.7386 12.9836 45.7199 12.9798 45.7017 12.9831C45.6836 12.9865 45.6675 12.997 45.657 13.0122C45.6465 13.0274 45.6425 13.0461 45.6457 13.0643C45.6457 13.0881 46.0895 15.4793 44.3115 17.2643C44.1561 17.4197 43.9979 17.5737 43.8411 17.7277C42.1191 19.4203 40.4923 21.0191 41.7887 23.6483C41.7947 23.6602 41.8039 23.67 41.8153 23.6767C41.8268 23.6835 41.8399 23.6867 41.8531 23.6861Z" fill="#F5F5F5"/>
<path d="M48.3951 9.50503C48.2887 11.0226 47.0749 12.809 45.7351 12.7152C44.3953 12.6214 43.4447 10.6838 43.5511 9.16623C43.6575 7.64863 44.8307 6.49503 46.1663 6.58883C47.5019 6.68263 48.5015 7.98743 48.3951 9.50503Z" fill="#E0E0E0"/>
<path d="M48.3951 9.50503C48.2887 11.0226 47.0749 12.809 45.7351 12.7152C44.3953 12.6214 43.4447 10.6838 43.5511 9.16623C43.6575 7.64863 44.8307 6.49503 46.1663 6.58883C47.5019 6.68263 48.5015 7.98743 48.3951 9.50503Z" fill="#E6E6E6"/>
<path d="M45.5727 12.6963L45.2871 13.0771L46.1173 13.1401L45.8877 12.7187L45.5727 12.6963Z" fill="#E6E6E6"/>
<path d="M27.5416 11.986C29.1243 11.986 30.4074 10.7029 30.4074 9.12019C30.4074 7.53746 29.1243 6.25439 27.5416 6.25439C25.9588 6.25439 24.6758 7.53746 24.6758 9.12019C24.6758 10.7029 25.9588 11.986 27.5416 11.986Z" fill="#E0E0E0"/>
<path d="M30.1107 9.71963C30.4429 8.29973 29.5612 6.87934 28.1413 6.54709C26.7214 6.21484 25.301 7.09655 24.9688 8.51645C24.6365 9.93635 25.5182 11.3567 26.9381 11.689C28.358 12.0212 29.7784 11.1395 30.1107 9.71963Z" fill="#FAFAFA"/>
<path d="M27.5486 6.71924H27.4492V7.26944H27.5486V6.71924Z" fill="#E0E0E0"/>
<path d="M27.5486 10.9556H27.4492V11.5058H27.5486V10.9556Z" fill="#E0E0E0"/>
<path d="M25.6557 9.06299H25.1055V9.16239H25.6557V9.06299Z" fill="#E0E0E0"/>
<path d="M29.892 9.06299H29.3418V9.16239H29.892V9.06299Z" fill="#E0E0E0"/>
<path d="M29.1546 7.38237L28.7656 7.77148L28.8359 7.84176L29.2249 7.45264L29.1546 7.38237Z" fill="#E0E0E0"/>
<path d="M26.1605 10.3809L25.7715 10.77L25.8418 10.8403L26.2308 10.4512L26.1605 10.3809Z" fill="#E0E0E0"/>
<path d="M25.8418 7.38673L25.7715 7.45703L26.1606 7.84601L26.2309 7.77572L25.8418 7.38673Z" fill="#E0E0E0"/>
<path d="M28.8398 10.3804L28.7695 10.4507L29.1586 10.8397L29.2289 10.7694L28.8398 10.3804Z" fill="#E0E0E0"/>
<path d="M27.48 9.04782L27.4492 9.12598L28.3832 9.49371L28.414 9.41555L27.48 9.04782Z" fill="#E0E0E0"/>
<path d="M27.54 9.15551H26V9.07011H27.456V7.87451H27.54V9.15551Z" fill="#E0E0E0"/>
<path d="M63.8369 56.1451C63.8369 56.5651 50.8673 56.9011 34.8667 56.9011C18.8661 56.9011 5.89648 56.5623 5.89648 56.1451C5.89648 55.7279 18.8675 55.3877 34.8667 55.3877C50.8659 55.3877 63.8369 55.7265 63.8369 56.1451Z" fill="#F5F5F5"/>
<path d="M35.6126 3.20663C23 3.20663 7.55244 0.556433 7.39844 0.529833L7.42224 0.389833C7.57624 0.416433 23.0126 3.06383 35.6126 3.06383C48.2126 3.06383 62.5192 0.123833 62.662 0.0986328L62.69 0.238633C62.5472 0.268033 48.2252 3.20663 35.6126 3.20663Z" fill="black"/>
<g opacity="0.5">
<path d="M35.6126 3.20663C23 3.20663 7.55244 0.556433 7.39844 0.529833L7.42224 0.389833C7.57624 0.416433 23.0126 3.06383 35.6126 3.06383C48.2126 3.06383 62.5192 0.123833 62.662 0.0986328L62.69 0.238633C62.5472 0.268033 48.2252 3.20663 35.6126 3.20663Z" fill="white"/>
</g>
<path d="M15.2715 1.47656L17.1993 7.07656L20.3325 2.04076L15.2715 1.47656Z" fill="#00CDB4"/>
<path d="M20.9395 2.11719L23.0115 7.66679L26.0145 2.55119L20.9395 2.11719Z" fill="black"/>
<path d="M26.6309 2.63428L28.8933 8.10828L31.7185 2.89328L26.6309 2.63428Z" fill="#00CDB4"/>
<path d="M32.3359 2.9082L34.8209 8.2842L37.4305 2.9572L32.3359 2.9082Z" fill="black"/>
<path d="M38.0488 2.89988L40.8054 8.14148L43.1392 2.68848L38.0488 2.89988Z" fill="#00CDB4"/>
<path d="M43.7559 2.64663L46.7239 7.77203L48.8337 2.22803L43.7559 2.64663Z" fill="black"/>
<path d="M55.084 1.37946L58.4804 6.23186L60.1058 0.526855L55.084 1.37946Z" fill="black"/>
<path d="M9.78906 0.688477L11.5559 6.34168L14.8333 1.39828L9.78906 0.688477Z" fill="black"/>
<path d="M49.6016 2.08189L52.7866 7.07429L54.6556 1.44629L49.6016 2.08189Z" fill="#00CDB4"/>
<path d="M33.1113 34.4242H24.3459C24.2973 34.4242 24.2494 34.4127 24.2062 34.3906C24.1629 34.3685 24.1255 34.3365 24.0971 34.2971C24.0687 34.2577 24.05 34.2122 24.0426 34.1642C24.0352 34.1162 24.0394 34.0671 24.0547 34.021L25.9587 28.2236C25.9789 28.1623 26.0179 28.1089 26.0702 28.071C26.1224 28.033 26.1853 28.0125 26.2499 28.0122H35.0153C35.0638 28.0122 35.1117 28.0237 35.155 28.0458C35.1982 28.0679 35.2356 28.0999 35.264 28.1393C35.2925 28.1787 35.3112 28.2242 35.3185 28.2722C35.3259 28.3202 35.3218 28.3693 35.3065 28.4154L33.4025 34.2128C33.3822 34.2741 33.3432 34.3275 33.291 34.3655C33.2387 34.4034 33.1758 34.4239 33.1113 34.4242Z" fill="#00CDB4"/>
<g opacity="0.6">
<path d="M33.1132 34.4242H24.3478C24.2993 34.4242 24.2514 34.4127 24.2081 34.3906C24.1649 34.3685 24.1275 34.3365 24.0991 34.2971C24.0706 34.2577 24.0519 34.2122 24.0446 34.1642C24.0372 34.1162 24.0413 34.0671 24.0566 34.021L25.9606 28.2236C25.9809 28.1623 26.0199 28.1089 26.0721 28.071C26.1244 28.033 26.1873 28.0125 26.2518 28.0122H35.0172C35.0658 28.0122 35.1137 28.0237 35.1569 28.0458C35.2002 28.0679 35.2376 28.0999 35.266 28.1393C35.2944 28.1787 35.3131 28.2242 35.3205 28.2722C35.3279 28.3202 35.3237 28.3693 35.3084 28.4154L33.4044 34.2128C33.3842 34.2741 33.3452 34.3275 33.2929 34.3655C33.2407 34.4034 33.1778 34.4239 33.1132 34.4242Z" fill="white"/>
</g>
<g opacity="0.4">
<path d="M32.3206 33.8348H25.1666C25.127 33.8348 25.0879 33.8254 25.0526 33.8073C25.0173 33.7893 24.9868 33.7632 24.9636 33.731C24.9403 33.6989 24.9251 33.6618 24.919 33.6226C24.9129 33.5835 24.9162 33.5434 24.9286 33.5058L26.4826 28.7738C26.4995 28.7239 26.5314 28.6805 26.5741 28.6497C26.6167 28.6188 26.668 28.602 26.7206 28.6016H33.8746C33.9142 28.6016 33.9533 28.611 33.9886 28.629C34.0239 28.647 34.0544 28.6732 34.0776 28.7053C34.1008 28.7374 34.1161 28.7746 34.1222 28.8137C34.1283 28.8529 34.125 28.8929 34.1126 28.9306L32.5586 33.6626C32.5419 33.7125 32.51 33.756 32.4673 33.7869C32.4246 33.8178 32.3733 33.8345 32.3206 33.8348Z" fill="white"/>
</g>
<path d="M21.225 34.2954L21.0388 34.8554C21.0257 34.8948 21.0221 34.9368 21.0284 34.9778C21.0348 35.0189 21.0507 35.0578 21.0751 35.0915C21.0994 35.1251 21.1314 35.1525 21.1685 35.1713C21.2055 35.1902 21.2464 35.1999 21.288 35.1998H32.8968C32.9517 35.1999 33.0052 35.1826 33.0497 35.1504C33.0942 35.1182 33.1274 35.0728 33.1446 35.0206L33.3854 34.2982L21.225 34.2954Z" fill="#00CDB4"/>
<g opacity="0.4">
<path d="M21.2289 34.2954L21.0427 34.8554C21.0296 34.8948 21.026 34.9368 21.0323 34.9778C21.0387 35.0189 21.0547 35.0578 21.079 35.0915C21.1033 35.1251 21.1353 35.1525 21.1724 35.1713C21.2094 35.1902 21.2503 35.1999 21.2919 35.1998H32.9007C32.9556 35.1999 33.0091 35.1826 33.0536 35.1504C33.0982 35.1182 33.1313 35.0728 33.1485 35.0206L33.3893 34.2982L21.2289 34.2954Z" fill="white"/>
</g>
<path d="M51.2099 35.1968H19.4355V36.2594H51.2099V35.1968Z" fill="black"/>
<g opacity="0.8">
<path d="M51.208 35.1968H19.4336V36.2594H51.208V35.1968Z" fill="white"/>
</g>
<path d="M21.7575 36.2598L18.5977 56.1314L19.2319 56.1454L23.1477 36.2598H21.7575Z" fill="black"/>
<g opacity="0.8">
<path d="M21.7575 36.2593L18.5977 56.1295L19.2319 56.1435L23.1477 36.2593H21.7575Z" fill="white"/>
</g>
<path d="M49.2203 36.2598L52.3801 56.1314L51.7459 56.1454L47.8301 36.2598H49.2203Z" fill="black"/>
<g opacity="0.8">
<path d="M49.2222 36.2598L52.382 56.13L51.7478 56.144L47.832 36.2598H49.2222Z" fill="white"/>
</g>
<path d="M48.9846 37.3584H21.8008V37.7658H48.9846V37.3584Z" fill="black"/>
<g opacity="0.8">
<path d="M48.9826 37.3584H21.7988V37.7658H48.9826V37.3584Z" fill="white"/>
</g>
<path d="M54.8592 6.72035C54.8665 6.72282 54.8744 6.72334 54.882 6.72187C54.8896 6.7204 54.8967 6.71698 54.9026 6.71195C54.9247 6.69097 54.9509 6.6748 54.9796 6.66444C55.0082 6.65408 55.0387 6.64976 55.0692 6.65175C55.1295 6.6615 55.1842 6.69284 55.2232 6.73995C55.2267 6.74445 55.2312 6.7482 55.2362 6.75099C55.2413 6.75378 55.2468 6.75555 55.2525 6.7562C55.2582 6.75685 55.264 6.75637 55.2696 6.75478C55.2751 6.75319 55.2803 6.75053 55.2848 6.74695C55.2893 6.74336 55.293 6.73892 55.2958 6.73389C55.2986 6.72885 55.3004 6.72332 55.301 6.7176C55.3017 6.71188 55.3012 6.70608 55.2996 6.70055C55.298 6.69502 55.2954 6.68985 55.2918 6.68535C55.2374 6.62076 55.1611 6.57841 55.0776 6.56635C55.0356 6.5631 54.9935 6.56851 54.9538 6.58223C54.914 6.59596 54.8775 6.61772 54.8466 6.64615C54.841 6.6512 54.8369 6.65756 54.8345 6.66464C54.832 6.67172 54.8314 6.6793 54.8327 6.68668C54.8339 6.69406 54.837 6.701 54.8416 6.70688C54.8463 6.71277 54.8523 6.71739 54.8592 6.72035Z" fill="black"/>
<path d="M54.8651 6.88623C54.7803 7.05714 54.6512 7.20217 54.4913 7.30623C54.2421 7.45463 54.6467 7.68843 54.6467 7.68843L54.8651 6.88623Z" fill="#FF5652"/>
<path d="M56.9235 10.6435L56.9081 10.7331C56.7541 10.9375 56.4195 10.8549 56.1661 10.8115L54.7031 10.5637C54.7913 10.4391 54.9831 10.1353 55.0237 10.0723C55.0786 9.97402 55.1254 9.87149 55.1637 9.76569C55.1697 9.75297 55.1748 9.73987 55.1791 9.72649C55.1831 9.71314 55.1864 9.69958 55.1889 9.68589C55.2029 9.64249 55.2183 9.59769 55.2295 9.54589C55.2407 9.49409 55.2547 9.42969 55.2659 9.36949C55.2659 9.34569 55.2729 9.32049 55.2743 9.29529V9.24069L55.7209 9.08669L56.4573 8.83469L57.2707 8.55469C56.9277 9.12589 56.8843 9.93649 56.9235 10.6435Z" fill="#FF8B7B"/>
<path d="M58.1004 5.62603C58.1004 5.62603 57.9954 4.52843 56.5366 4.86863C55.215 5.17803 55.2864 4.75943 54.8314 5.06603C54.3764 5.37263 55.0582 6.77683 55.3914 6.82163C55.7246 6.86643 58.7934 6.85943 58.7934 6.85943C58.7934 6.85943 58.9768 5.97323 58.1004 5.62603Z" fill="black"/>
<g opacity="0.2">
<path d="M55.7481 9.53557C55.5776 9.65305 55.3769 9.71913 55.1699 9.72597C55.1767 9.71279 55.1828 9.69923 55.1881 9.68537C55.2021 9.64197 55.2175 9.59717 55.2287 9.54537C55.2399 9.49357 55.2539 9.42917 55.2651 9.36897C55.2651 9.34517 55.2721 9.31997 55.2735 9.29477V9.24017L55.7201 9.08617L55.9413 9.05957C56.0155 9.13517 55.9511 9.38157 55.7481 9.53557Z" fill="black"/>
</g>
<path d="M57.9626 7.50472C58.0698 7.27556 58.1167 7.02277 58.0988 6.77039C58.0808 6.518 57.9987 6.27439 57.8601 6.06271C57.7215 5.85102 57.5311 5.67829 57.3069 5.56092C57.0827 5.44355 56.8323 5.38544 56.5794 5.39212C55.4328 5.41592 54.7188 6.86912 54.5886 7.86452C54.4486 8.96912 55.5182 9.91272 56.5892 9.42272C57.3004 9.09792 57.5132 8.49592 57.9626 7.50472Z" fill="#FF8B7B"/>
<path d="M57.668 8.61204C57.2326 9.07684 57.388 9.50524 56.8784 9.48704C55.4924 9.43944 55.5414 7.44724 56.1308 7.17144C56.2442 7.11824 56.226 7.04964 56.1434 6.96984C56.0644 7.06425 55.9762 7.15054 55.8802 7.22744C55.5204 7.51864 55.232 7.10424 55.4602 6.88304C55.5441 6.80177 55.5941 6.69172 55.6002 6.57504C55.5396 6.52808 55.4859 6.47296 55.4406 6.41124C55.2334 6.10184 55.6436 5.61604 55.6898 5.58104C57.0114 4.55624 58.6522 6.12424 58.788 6.85924C58.9686 7.80704 58.1034 8.14584 57.668 8.61204Z" fill="black"/>
<path d="M58.0785 5.77734C58.2243 5.77808 58.366 5.82513 58.4833 5.9117C58.6005 5.99827 58.6873 6.11987 58.7309 6.25894C58.9269 6.76854 58.6917 7.32154 58.4579 7.58334C58.2241 7.84514 57.3561 6.67614 58.0785 5.77734Z" fill="black"/>
<path d="M56.4184 7.67114C56.2522 7.88905 56.0066 8.03247 55.7352 8.07014C55.3754 8.11634 55.248 7.78174 55.3922 7.46954C55.521 7.18954 55.864 6.82554 56.2042 6.92354C56.5444 7.02154 56.6242 7.40234 56.4184 7.67114Z" fill="#FF8B7B"/>
<path d="M63.5513 17.4475C63.5352 17.5894 63.4994 17.7284 63.4449 17.8605C63.3698 18.0377 63.2587 18.1974 63.1187 18.3295L63.0641 18.3785L63.0473 18.3925H63.0403L63.0067 18.4177L62.9381 18.4667C62.8947 18.4947 62.8513 18.5255 62.8065 18.5521C62.7183 18.6039 62.6315 18.6515 62.5475 18.6921C62.2437 18.8307 61.924 18.9313 61.5955 18.9917C61.4723 19.0127 61.3505 19.0323 61.2301 19.0449C60.7981 19.096 60.3626 19.1114 59.9281 19.0911L59.7391 19.0813C59.2837 19.0549 58.83 19.0054 58.3797 18.9329C57.8739 18.8527 57.3729 18.7448 56.8789 18.6095L57.0595 17.3495C57.9908 17.3398 58.9209 17.279 59.8455 17.1675H59.8847C60.2243 17.1221 60.5603 17.0524 60.8899 16.9589C60.9193 16.9519 60.9501 16.9421 60.9795 16.9323C60.9403 16.8707 60.8983 16.8077 60.8549 16.7433C60.8115 16.6789 60.7527 16.5935 60.6981 16.5179C60.4839 16.2113 60.2445 15.9047 59.9981 15.5939C59.9533 15.5365 59.9085 15.4805 59.8651 15.4231C59.2841 14.6937 58.6639 13.9531 58.0731 13.2307L59.9729 11.5059C60.3117 11.8041 60.5721 12.1723 60.8899 12.5615C61.2077 12.9507 61.6123 13.4785 61.9077 13.8915C62.2031 14.3045 62.4915 14.7315 62.7687 15.1837C62.9087 15.4119 63.0417 15.6513 63.1705 15.9159C63.2349 16.0475 63.2993 16.1875 63.3595 16.3457C63.4362 16.5354 63.4934 16.7324 63.5303 16.9337C63.5609 17.1031 63.568 17.276 63.5513 17.4475Z" fill="#00CDB4"/>
<g opacity="0.2">
<path d="M60.7 16.5211C60.4858 16.2145 60.2464 15.9079 60 15.5971L60.2156 12.7495V12.8335L60.8512 16.7535C60.8064 16.6723 60.7546 16.5967 60.7 16.5211Z" fill="black"/>
</g>
<g opacity="0.2">
<path d="M61.2273 19.0502C60.7953 19.1014 60.3599 19.1168 59.9253 19.0964L59.7363 19.0866L59.8763 17.17C60.216 17.1247 60.5519 17.055 60.8815 16.9614L61.2273 19.0502Z" fill="black"/>
</g>
<path d="M59.5373 44.7822V47.5696L58.1373 47.6704L57.6445 45.051C58.2871 44.624 58.9185 44.5218 59.5373 44.7822Z" fill="#FF8B7B"/>
<path d="M59.4915 47.2784C59.6315 47.6466 59.6315 49.153 59.6315 49.153H56.6607C56.4843 48.6084 56.7573 48.2374 57.1031 48.187C57.2803 48.1307 57.4373 48.0242 57.5553 47.8804C57.5553 47.8622 57.7373 47.0264 57.8507 46.9858C57.8507 46.9858 57.9277 46.899 57.9907 46.9858C58.0488 47.1027 58.0902 47.2271 58.1139 47.3554C58.5871 46.7856 59.0421 46.8598 59.4915 47.2784Z" fill="black"/>
<path d="M59.5302 47.7171C59.3675 47.6555 59.1922 47.635 59.0198 47.6575C58.8474 47.68 58.6832 47.7447 58.5418 47.8459C58.49 47.8809 58.441 47.7969 58.4928 47.7619C58.6453 47.6538 58.822 47.5845 59.0074 47.5601C59.1928 47.5357 59.3814 47.5569 59.5568 47.6219C59.6142 47.6429 59.589 47.7367 59.5302 47.7157V47.7171Z" fill="white"/>
<path d="M56.6765 48.9364H59.6053C59.6167 48.9345 59.627 48.9286 59.6345 48.9197C59.642 48.9109 59.6461 48.8997 59.6461 48.8881C59.6461 48.8766 59.642 48.8654 59.6345 48.8565C59.627 48.8477 59.6167 48.8418 59.6053 48.8398H56.6779C56.6649 48.8398 56.6524 48.845 56.6433 48.8542C56.6341 48.8634 56.6289 48.8758 56.6289 48.8888C56.6289 48.9018 56.6341 48.9143 56.6433 48.9235C56.6524 48.9327 56.6649 48.9378 56.6779 48.9378L56.6765 48.9364Z" fill="white"/>
<path d="M60.058 46.1558L57.0704 46.3028C56.3998 44.2896 55.7376 37.0712 55.6704 34.904C55.5878 32.314 54.5882 25.8152 55.4716 24.4628C56.355 23.1104 60.4948 24.1478 60.4948 24.1478C60.4948 24.1478 59.8592 32.1012 60.0594 34.624C60.2288 36.8122 60.4976 43.241 60.058 46.1558Z" fill="black"/>
<path d="M56.7461 45.5763L56.9407 46.4975L60.1775 46.4009L60.2965 45.5161L56.7461 45.5763Z" fill="#00CDB4"/>
<path d="M53.4884 44.4188V47.566L52.1402 47.6682L51.4766 44.7282C51.7537 44.5017 52.0865 44.3536 52.4403 44.2992C52.7941 44.2448 53.1559 44.2861 53.4884 44.4188Z" fill="#FF8B7B"/>
<path d="M53.4908 47.2857C53.6308 47.6539 53.6378 49.1589 53.6378 49.1589H50.2232C50.1835 49.0636 50.1664 48.9605 50.1734 48.8575C50.1804 48.7546 50.2113 48.6547 50.2636 48.5657C50.3159 48.4767 50.3881 48.4012 50.4747 48.345C50.5612 48.2888 50.6597 48.2535 50.7622 48.2419C50.912 48.2209 51.4328 48.0193 51.5616 47.8849C51.5616 47.8681 51.7436 47.0323 51.8556 46.9917C51.8556 46.9917 51.934 46.9049 51.9956 46.9917C52.0537 47.1085 52.0952 47.2329 52.1188 47.3613C52.5864 46.7859 53.0414 46.8657 53.4908 47.2857Z" fill="black"/>
<path d="M53.5287 47.7225C53.3658 47.6614 53.1903 47.6411 53.0178 47.6636C52.8452 47.6861 52.6808 47.7505 52.5389 47.8513C52.4885 47.8877 52.4395 47.8037 52.4899 47.7673C52.6427 47.6595 52.8193 47.5904 53.0046 47.566C53.19 47.5416 53.3785 47.5626 53.5539 47.6273C53.6127 47.6497 53.5875 47.7435 53.5287 47.7211V47.7225Z" fill="white"/>
<path d="M50.2251 48.9434H53.6047C53.6115 48.9429 53.6182 48.941 53.6242 48.9378C53.6303 48.9345 53.6356 48.9301 53.6398 48.9246C53.6441 48.9192 53.6471 48.913 53.6488 48.9063C53.6504 48.8997 53.6507 48.8927 53.6495 48.886C53.6491 48.8732 53.6438 48.8611 53.6346 48.8522C53.6255 48.8433 53.6132 48.8384 53.6005 48.8384H50.2209C50.2079 48.8384 50.1954 48.8435 50.1862 48.8527C50.177 48.8619 50.1719 48.8744 50.1719 48.8874C50.1719 48.9004 50.177 48.9128 50.1862 48.922C50.1954 48.9312 50.2079 48.9364 50.2209 48.9364L50.2251 48.9434Z" fill="white"/>
<path d="M54.0927 46.1554L51.1303 46.3024C50.7691 44.0736 49.3215 35.9578 49.4405 34.4024C49.5805 32.504 51.3011 24.2832 51.9381 23.649C52.5751 23.0148 57.2469 24.6654 57.2469 24.6654C57.2469 24.6654 55.3303 31.727 53.8141 34.7846C53.4991 35.4202 54.3349 43.445 54.0927 46.1554Z" fill="black"/>
<path d="M50.791 45.6449L50.9422 46.4975L54.2336 46.3029L54.2994 45.4111L50.791 45.6449Z" fill="#00CDB4"/>
<path d="M51.8154 15.8667C51.8154 15.8667 52.0954 19.8091 51.7692 21.3267C51.513 22.5069 51.1588 23.6745 51.7328 24.0119C52.3068 24.3493 60.5318 25.4721 60.8062 24.0553C61.1856 22.0841 60.1482 17.8589 60.3862 15.8667C60.6242 13.8745 60.4128 12.3359 60.0992 11.9327C59.7856 11.5295 51.8154 15.8667 51.8154 15.8667Z" fill="#00CDB4"/>
<path d="M58.9314 16.6549C57.5454 16.9727 51.9006 16.5289 51.9006 16.5289C51.832 15.9829 51.664 14.7873 51.5814 13.6113C51.566 13.4055 51.5534 13.1983 51.5464 12.9953V12.8889C51.5394 12.6859 51.5352 12.4871 51.538 12.2981C51.538 11.6807 51.5954 11.1571 51.7382 10.8617C52.0294 10.2555 54.3884 10.1267 54.3884 10.1267C56.4716 9.75566 56.6116 10.1589 56.6116 10.1589C56.6116 10.1589 58.2538 10.7399 59.0224 11.0367C60.0024 11.4161 60.2376 11.4567 60.3608 12.6649C60.4686 13.7569 60.316 16.3343 58.9314 16.6549Z" fill="#00CDB4"/>
<g opacity="0.2">
<path d="M54.5762 10.0874C54.5762 10.0874 55.9328 10.9274 56.9114 10.905C57.89 10.8826 57.3314 10.471 57.3314 10.471L54.5762 10.0874Z" fill="black"/>
</g>
<path d="M54.6523 10.0875C54.7116 9.97863 54.802 9.88984 54.912 9.83249C55.0219 9.77514 55.1465 9.75184 55.2697 9.76554C55.6967 9.81874 56.7313 9.76554 56.9609 9.90554C57.1905 10.0455 57.3291 10.4655 57.3291 10.4655C57.3291 10.4655 57.0491 10.6965 56.3673 10.6265C55.6855 10.5565 54.6523 10.0875 54.6523 10.0875Z" fill="#00CDB4"/>
<g opacity="0.2">
<path d="M51.8993 23.7835L51.8027 23.7513C52.1229 22.705 52.3538 21.6334 52.4929 20.5481C52.7379 18.6917 52.3347 13.4963 52.2997 13.0021L52.4005 12.9951C52.4355 13.4893 52.8401 18.6945 52.5923 20.5621C52.4527 21.6536 52.2209 22.7312 51.8993 23.7835Z" fill="black"/>
</g>
<g opacity="0.2">
<path d="M53.253 12.9054C52.5866 12.9852 51.9608 13.0454 51.5464 12.9936V12.8872C51.5394 12.6842 51.5352 12.4854 51.538 12.2964C52.0879 12.5561 52.6624 12.7601 53.253 12.9054Z" fill="black"/>
</g>
<g opacity="0.2">
<path d="M54.7831 23.5765C55.9097 23.6203 57.0378 23.5538 58.1515 23.3777C58.6396 23.3222 59.1203 23.2138 59.5851 23.0543C59.9169 22.9241 60.2123 22.7197 60.3397 22.3739C60.3607 22.3151 60.2669 22.2899 60.2459 22.3473C60.1059 22.7407 59.7027 22.9297 59.3247 23.0403C58.8697 23.1637 58.4065 23.2545 57.9387 23.3119C56.8942 23.4647 55.8378 23.5204 54.7831 23.4785C54.7201 23.4785 54.7215 23.5737 54.7831 23.5765Z" fill="black"/>
</g>
<g opacity="0.3">
<path d="M56.1081 29.4515C56.1641 29.3367 56.2215 29.2219 56.2747 29.1043C56.5518 28.4777 56.7734 27.8279 56.9369 27.1625C57.4252 27.1145 57.9071 27.0155 58.3747 26.8671C58.4349 26.8489 58.4083 26.7551 58.3495 26.7733C57.6095 27.0084 56.8353 27.1177 56.0591 27.0967C56.0461 27.0967 56.0337 27.1019 56.0245 27.1111C56.0153 27.1203 56.0101 27.1327 56.0101 27.1457C56.0101 27.1587 56.0153 27.1712 56.0245 27.1804C56.0337 27.1896 56.0461 27.1947 56.0591 27.1947C56.3179 27.2001 56.5768 27.1922 56.8347 27.1709C56.6688 27.832 56.4449 28.4771 56.1655 29.0987C55.8749 29.7169 55.5477 30.3172 55.1855 30.8963C55.1519 30.9495 55.2359 30.9985 55.2681 30.9453C55.5299 30.5155 55.7847 30.0801 56.0143 29.6335C56.0353 30.1669 56.0997 31.8161 56.1711 34.0001C56.2957 37.7717 57.2533 43.9009 57.5207 45.5543H57.6187C57.3555 43.9275 56.3937 37.7745 56.2677 33.9973C56.1879 31.4143 56.1137 29.5789 56.1081 29.4515Z" fill="white"/>
<path d="M59.9173 25.1635C59.9264 25.3555 59.8914 25.5471 59.8151 25.7235C59.7667 25.8131 59.6925 25.8861 59.6021 25.933C59.5118 25.9799 59.4094 25.9986 59.3083 25.9867C58.8407 25.9405 58.6461 25.4337 58.6083 25.0319C58.6083 24.9731 58.5103 24.9731 58.5159 25.0319C58.5551 25.4855 58.7819 26.0329 59.3041 26.0777C59.4055 26.0883 59.5079 26.0729 59.6017 26.033C59.6955 25.9931 59.7776 25.9299 59.8403 25.8495C59.9803 25.6563 59.9971 25.3987 60.0055 25.1663C60.0028 25.1568 59.9972 25.1484 59.9895 25.1423C59.9817 25.1362 59.9722 25.1327 59.9624 25.1324C59.9525 25.1321 59.9428 25.1349 59.9347 25.1405C59.9266 25.1461 59.9205 25.1542 59.9173 25.1635Z" fill="white"/>
<path d="M59.6465 34.6054C58.7859 34.5587 57.923 34.5821 57.0663 34.6754C57.0047 34.6824 57.0033 34.779 57.0663 34.772C57.923 34.6791 58.786 34.6562 59.6465 34.7034C59.7095 34.7006 59.7095 34.6054 59.6465 34.6054Z" fill="white"/>
<path d="M49.9673 34.6054C50.0345 33.4224 51.5073 28.3978 51.5241 28.3474C51.5271 28.3352 51.5253 28.3223 51.5191 28.3113C51.5128 28.3004 51.5026 28.2923 51.4906 28.2887C51.4785 28.2851 51.4655 28.2862 51.4543 28.292C51.4431 28.2977 51.4345 28.3075 51.4303 28.3194C51.3701 28.5266 49.9379 33.4056 49.8707 34.5998C49.8133 35.6274 51.3505 45.1278 51.4107 45.5324C51.4127 45.5439 51.4187 45.5543 51.4277 45.5617C51.4367 45.5692 51.448 45.5732 51.4597 45.573C51.4723 45.5706 51.4836 45.5635 51.4911 45.5531C51.4987 45.5427 51.502 45.5298 51.5003 45.517C51.4947 45.4204 49.9099 35.626 49.9673 34.6054Z" fill="white"/>
<path d="M55.9235 25.085C55.9235 25.0728 55.9186 25.061 55.91 25.0524C55.9013 25.0437 55.8896 25.0388 55.8773 25.0388C55.8651 25.0388 55.8533 25.0437 55.8446 25.0524C55.836 25.061 55.8311 25.0728 55.8311 25.085C55.8437 25.7388 55.3873 26.4332 54.6621 26.3618C53.9117 26.2862 53.6905 25.435 53.7367 24.8092C53.7367 24.7504 53.6485 24.7504 53.6443 24.8092C53.5953 25.4896 53.8599 26.3786 54.6621 26.4542C55.4363 26.5186 55.9375 25.785 55.9235 25.085Z" fill="white"/>
<path d="M50.807 27.8294C51.9172 27.4094 52.277 26.1928 52.5402 25.1498C52.5436 25.1376 52.5419 25.1245 52.5356 25.1135C52.5293 25.1025 52.5189 25.0944 52.5066 25.091C52.4944 25.0877 52.4813 25.0894 52.4703 25.0957C52.4592 25.102 52.4512 25.1124 52.4478 25.1246C52.193 26.127 51.8542 27.331 50.7804 27.7356C50.723 27.758 50.7482 27.8518 50.807 27.8294Z" fill="white"/>
<path d="M53.2926 34.6937L51.1268 34.5537C51.0638 34.5537 51.0652 34.6461 51.1268 34.6503L53.2926 34.7903C53.3542 34.7945 53.3542 34.6979 53.2926 34.6937Z" fill="white"/>
</g>
<path d="M53.6005 12.9589L53.4857 12.9421L53.3863 12.9267L53.1931 12.8917C53.0657 12.8651 52.9411 12.8371 52.8165 12.8077C52.5673 12.7489 52.3223 12.6761 52.0759 12.5977C51.5732 12.4344 51.0859 12.2269 50.6199 11.9775C50.1076 11.7054 49.6362 11.3623 49.2199 10.9583C48.9848 10.7281 48.7776 10.4711 48.6025 10.1925L48.5843 10.1659L48.5619 10.1295L48.5171 10.0525C48.4891 10.0035 48.4667 9.95593 48.4415 9.91253C48.3981 9.82013 48.3603 9.72913 48.3281 9.64373C48.2719 9.4866 48.2251 9.32625 48.1881 9.16353C48.1279 8.88279 48.0858 8.59847 48.0621 8.31233C48.0383 8.04073 48.0229 7.78033 48.0215 7.52273C48.0215 7.00753 48.0341 6.50913 48.0761 6.01493C48.1573 5.02653 48.3029 4.43433 48.5213 3.46973C48.7243 3.68113 49.1961 3.66853 49.6861 3.57193C49.7785 4.50153 49.8499 5.07273 49.9577 5.98273C50.0165 6.43773 50.0725 6.88713 50.1523 7.31833C50.2139 7.71414 50.3114 8.10354 50.4435 8.48173C50.5009 8.63573 50.5681 8.74913 50.5835 8.73933C50.6747 8.84248 50.776 8.93628 50.8859 9.01933C51.1604 9.23119 51.4588 9.41021 51.7749 9.55273C52.1311 9.7157 52.4972 9.85598 52.8711 9.97273C53.0615 10.0357 53.2575 10.0917 53.4521 10.1463C53.5501 10.1729 53.6481 10.1995 53.7447 10.2233L54.0107 10.2891L53.6005 12.9589Z" fill="#00CDB4"/>
<path d="M49.6812 3.56639C49.4966 3.65665 49.2919 3.69836 49.0867 3.68758C48.8814 3.67681 48.6822 3.61389 48.508 3.50479C48.508 3.50479 48.2644 2.72359 48.151 2.28399L47.9564 2.30079C47.913 1.95919 48.3092 1.81779 48.3568 1.80239C48.6383 1.69655 48.9384 1.64892 49.2388 1.66239C49.908 1.65259 49.6812 3.56639 49.6812 3.56639Z" fill="#FF8B7B"/>
<g opacity="0.2">
<path d="M48.6295 2.13814C48.6202 2.13814 48.6113 2.13445 48.6047 2.12789C48.5982 2.12132 48.5945 2.11242 48.5945 2.10314C48.5945 1.87634 48.4391 1.83714 48.4377 1.83714C48.4284 1.83481 48.4205 1.82897 48.4155 1.82086C48.4105 1.81275 48.409 1.80301 48.4111 1.79374C48.4134 1.78488 48.4191 1.77728 48.4269 1.77257C48.4348 1.76786 48.4442 1.76641 48.4531 1.76854C48.5212 1.79174 48.5794 1.83761 48.6179 1.89849C48.6563 1.95937 48.6728 2.0316 48.6645 2.10314C48.6645 2.10773 48.6636 2.11228 48.6618 2.11653C48.66 2.12078 48.6575 2.12464 48.6542 2.12789C48.651 2.13114 48.6471 2.13371 48.6429 2.13547C48.6386 2.13723 48.6341 2.13814 48.6295 2.13814Z" fill="black"/>
</g>
<g opacity="0.2">
<path d="M48.9629 2.06739C48.9536 2.06739 48.9447 2.0637 48.9381 2.05714C48.9315 2.05058 48.9279 2.04167 48.9279 2.03239C48.9279 1.80559 48.7725 1.76639 48.7711 1.76639C48.762 1.76416 48.7541 1.75841 48.7493 1.7504C48.7444 1.7424 48.7429 1.73279 48.7452 1.72369C48.7474 1.71459 48.7531 1.70676 48.7611 1.7019C48.7691 1.69704 48.7788 1.69556 48.7879 1.69779C48.8555 1.72168 48.913 1.76775 48.9512 1.8285C48.9893 1.88925 49.0057 1.96111 48.9979 2.03239C48.9979 2.04167 48.9942 2.05058 48.9876 2.05714C48.981 2.0637 48.9721 2.06739 48.9629 2.06739Z" fill="black"/>
</g>
<g opacity="0.2">
<path d="M49.2808 2.04623C49.2715 2.04623 49.2626 2.04254 49.256 2.03598C49.2495 2.02942 49.2458 2.02051 49.2458 2.01123C49.2458 1.78583 49.0904 1.74523 49.089 1.74523C49.0845 1.74426 49.0803 1.74238 49.0765 1.7397C49.0728 1.73703 49.0697 1.73362 49.0673 1.72968C49.0649 1.72575 49.0634 1.72137 49.0628 1.71682C49.0622 1.71227 49.0625 1.70765 49.0638 1.70323C49.0647 1.69875 49.0666 1.69451 49.0693 1.69078C49.072 1.68705 49.0754 1.68391 49.0793 1.68155C49.0833 1.67919 49.0876 1.67765 49.0922 1.67705C49.0967 1.67645 49.1014 1.67678 49.1058 1.67803C49.1734 1.70144 49.2311 1.7472 49.2693 1.80776C49.3074 1.86833 49.3238 1.9401 49.3158 2.01123C49.3158 2.02051 49.3121 2.02942 49.3055 2.03598C49.299 2.04254 49.2901 2.04623 49.2808 2.04623Z" fill="black"/>
</g>
<g opacity="0.2">
<path d="M48.125 2.29677C48.1186 2.29665 48.1123 2.29476 48.1068 2.2913C48.1014 2.28784 48.097 2.28295 48.0942 2.27717C48.0801 2.23871 48.0765 2.19723 48.0836 2.15691C48.0908 2.11659 48.1084 2.07887 48.1348 2.04757C48.1402 2.03996 48.1484 2.0348 48.1576 2.03322C48.1668 2.03165 48.1762 2.03378 48.1838 2.03917C48.1914 2.04455 48.1966 2.05274 48.1982 2.06193C48.1997 2.07112 48.1976 2.08056 48.1922 2.08817C48.1733 2.10931 48.1601 2.13497 48.154 2.16268C48.1478 2.19039 48.149 2.21921 48.1572 2.24637C48.1611 2.25456 48.1617 2.26396 48.1589 2.27259C48.156 2.28121 48.1499 2.28838 48.1418 2.29257L48.125 2.29677Z" fill="black"/>
</g>
<path d="M60.6951 49.166H49.1465V50.4708H60.6951V49.166Z" fill="#00CDB4"/>
<path d="M60.957 56.104H59.7908L58.3334 52.7132H51.3404L49.8816 56.104H48.7168L50.6068 50.4634L52.3008 50.4816L51.5728 52.1728H58.101L57.3744 50.4816L59.067 50.4634L60.957 56.104Z" fill="#00CDB4"/>
<g opacity="0.2">
<path d="M60.955 56.1045H59.7888L58.3314 52.7137H51.3384L49.8796 56.1045H48.7148L50.6048 50.4639L52.2988 50.4821L51.5708 52.1733H58.099L57.3724 50.4821L59.065 50.4639L60.955 56.1045Z" fill="black"/>
</g>
<path d="M36.2155 25.2734C36.0993 25.4134 35.9873 25.5534 35.9005 25.6822C35.9523 25.7192 36.0061 25.7533 36.0615 25.7844C36.3787 25.9578 36.7086 26.1067 37.0485 26.2296L36.8763 27.4392C36.7475 27.4392 36.6425 27.4392 36.5277 27.4294C36.4129 27.4196 36.3009 27.414 36.1875 27.4014C35.9515 27.3752 35.7176 27.3327 35.4875 27.274C35.2224 27.2078 34.9672 27.1066 34.7287 26.973C34.5704 26.8813 34.4261 26.7672 34.3003 26.6342C34.1246 26.4465 33.9993 26.2172 33.9363 25.9678C33.9021 25.8268 33.8898 25.6814 33.8999 25.5366C33.9031 25.4684 33.9116 25.4006 33.9251 25.3336L33.9461 25.2398L33.9685 25.1642C33.9839 25.1166 34.0021 25.062 34.0189 25.0242L34.0623 24.9164C34.0931 24.8408 34.1197 24.7862 34.1491 24.726C34.2625 24.4936 34.3689 24.2934 34.4837 24.1044C34.7105 23.7236 34.9387 23.3694 35.1753 23.0194C35.6499 22.3194 36.1399 21.6544 36.6523 21.0048C37.1647 20.3552 37.6841 19.7196 38.2483 19.1064L40.1117 20.722C39.6091 21.345 39.0757 21.9624 38.5465 22.57L36.9617 24.383C36.7069 24.6784 36.4479 24.978 36.2155 25.2734Z" fill="black"/>
<path d="M43.0039 51.3169L43.4491 54.5859L44.5145 54.6391L44.8603 51.4891L43.0039 51.3169Z" fill="#CE7A63"/>
<path d="M45.4189 56.1043H43.0389C43.003 55.9843 43.0055 55.856 43.0459 55.7375C43.0557 55.6969 43.0669 55.6507 43.0823 55.5975C43.1047 55.5233 43.1299 55.4337 43.1579 55.3357C43.2671 54.9367 43.3945 54.4145 43.3945 54.4145C43.3945 54.4145 43.7907 53.5661 44.2555 53.7789C44.6615 53.9637 44.5649 54.4957 44.5649 54.4957C44.6122 54.7251 44.7349 54.9321 44.9135 55.0837C45.1053 55.2545 45.2943 55.3861 45.3853 55.5975C45.403 55.6385 45.4166 55.6812 45.4259 55.7249C45.4259 55.7249 45.4259 55.7361 45.4259 55.7417C45.4464 55.8619 45.4441 55.9849 45.4189 56.1043Z" fill="black"/>
<g opacity="0.3">
<path d="M43.0459 55.7378C43.0055 55.8564 43.003 55.9846 43.0389 56.1046H45.4189C45.4455 55.9841 45.4489 55.8596 45.4287 55.7378H43.0459Z" fill="white"/>
</g>
<path d="M44.4712 54.6259C44.4089 54.5758 44.3302 54.5507 44.2504 54.5557C44.1707 54.5606 44.0956 54.5951 44.04 54.6525C44.0078 54.6847 43.9588 54.6343 43.991 54.6021C44.06 54.5325 44.1526 54.4913 44.2504 54.4863C44.3483 54.4814 44.4445 54.5132 44.5202 54.5755C44.5566 54.6035 44.5062 54.6525 44.4712 54.6259Z" fill="white"/>
<path d="M44.5397 54.8481C44.4774 54.798 44.3987 54.7729 44.3189 54.7778C44.2392 54.7827 44.1641 54.8173 44.1085 54.8747C44.1018 54.8812 44.0928 54.8847 44.0835 54.8846C44.0742 54.8845 44.0653 54.8806 44.0588 54.874C44.0523 54.8673 44.0487 54.8583 44.0488 54.849C44.049 54.8396 44.0528 54.8308 44.0595 54.8243C44.1285 54.7547 44.221 54.7134 44.3189 54.7085C44.4168 54.7036 44.513 54.7354 44.5887 54.7977C44.6251 54.8257 44.5747 54.8747 44.5397 54.8481Z" fill="white"/>
<path d="M44.6058 55.0527C44.5437 55.0026 44.4652 54.9776 44.3857 54.9826C44.3062 54.9875 44.2314 55.022 44.176 55.0793C44.1438 55.1115 44.0934 55.0611 44.1256 55.0303C44.1945 54.9601 44.2872 54.9183 44.3854 54.9131C44.4836 54.908 44.5802 54.9398 44.6562 55.0023C44.6912 55.0303 44.6408 55.0807 44.6058 55.0527Z" fill="white"/>
<path d="M35.7382 51.8522L34.6252 54.8566L33.6172 54.5304L33.9644 51.3594L35.7382 51.8522Z" fill="#CE7A63"/>
<path d="M36.9246 31.2822C36.9246 31.2822 34.8666 40.0714 34.6846 41.8564C34.5026 43.6414 33.1992 52.9808 33.1992 52.9808L35.6338 53.5156C35.6338 53.5156 38.403 43.465 38.6018 42.499C38.8006 41.533 41.3052 34.5708 41.3052 34.5708L40.9832 31.8968L36.9246 31.2822Z" fill="#00CDB4"/>
<g opacity="0.2">
<path d="M38.3583 31.9459C38.2106 32.4207 37.9482 32.8518 37.5944 33.2012C37.2407 33.5506 36.8063 33.8075 36.3297 33.9493C36.319 33.9523 36.3098 33.9594 36.3043 33.9691C36.2988 33.9788 36.2974 33.9904 36.3003 34.0011C36.3033 34.0119 36.3104 34.021 36.3202 34.0265C36.3299 34.0321 36.3414 34.0335 36.3521 34.0305C36.8426 33.8844 37.2895 33.6196 37.6533 33.2597C38.0172 32.8998 38.2867 32.4558 38.4381 31.9669C38.4549 31.9151 38.3737 31.8941 38.3583 31.9459Z" fill="black"/>
</g>
<g opacity="0.2">
<path d="M40.7344 34.5941C39.6606 36.7529 39.0404 39.0993 38.2816 41.3771C37.4934 43.7403 36.8634 46.1539 36.2978 48.5787C35.98 49.9451 35.6818 51.3143 35.3878 52.6863C35.3766 52.7381 35.4578 52.7605 35.469 52.7087C35.9884 50.2811 36.5218 47.8549 37.1588 45.4553C37.786 43.0907 38.5588 40.7709 39.3176 38.4441C39.7186 37.14 40.2166 35.8675 40.8072 34.6375C40.831 34.5885 40.7582 34.5465 40.7344 34.5941Z" fill="black"/>
</g>
<g opacity="0.2">
<path d="M33.3911 52.2966L35.7277 52.886C35.7382 52.8881 35.7492 52.8861 35.7583 52.8804C35.7674 52.8747 35.7739 52.8657 35.7766 52.8553C35.7793 52.8449 35.7779 52.8339 35.7727 52.8245C35.7675 52.8151 35.7589 52.808 35.7487 52.8048L33.4205 52.2154C33.4097 52.2124 33.3982 52.2138 33.3885 52.2194C33.3788 52.2249 33.3717 52.234 33.3687 52.2448C33.3657 52.2555 33.3672 52.2671 33.3727 52.2768C33.3782 52.2865 33.3873 52.2936 33.3981 52.2966H33.3911Z" fill="black"/>
</g>
<path d="M34.7349 56.1192L33.8207 56.1122C33.7308 56.0618 33.6309 56.0322 33.5281 56.0254C33.4189 56.038 33.0423 56.1066 33.0423 56.1066L30.6133 56.0884C30.631 55.9962 30.6553 55.9054 30.6861 55.8168C30.7153 55.7292 30.7543 55.6451 30.8023 55.5662C30.8615 55.4636 30.9462 55.3781 31.0483 55.318C31.1504 55.2579 31.2663 55.2252 31.3847 55.2232C31.7249 55.205 32.8001 54.498 32.8001 54.498C32.9137 54.4556 33.0128 54.3817 33.086 54.285C33.1591 54.1883 33.2032 54.0728 33.2131 53.952C33.237 53.8682 33.2814 53.7917 33.3423 53.7294C33.4031 53.6671 33.4785 53.6209 33.5617 53.595C33.7843 53.5642 33.9075 53.707 33.9369 53.9282L33.9733 54.1872L34.4871 54.1102C34.4871 54.1102 35.0107 53.8526 34.9827 54.1102C34.9673 54.2502 34.8749 54.9026 34.8161 55.4178C34.8021 55.5368 34.7895 55.6502 34.7783 55.7496C34.7475 55.968 34.7349 56.1192 34.7349 56.1192Z" fill="black"/>
<g opacity="0.3">
<path d="M30.6133 56.0887L33.0423 56.1069C33.0423 56.1069 33.4189 56.0383 33.5281 56.0257C33.6309 56.0325 33.7308 56.0621 33.8207 56.1125L34.7349 56.1195C34.7349 56.1195 34.7531 55.9683 34.7783 55.7471L30.6861 55.8171C30.6553 55.9057 30.631 55.9965 30.6133 56.0887Z" fill="white"/>
</g>
<path d="M32.2661 54.7662C32.272 54.7614 32.2794 54.7588 32.2871 54.7588C32.2947 54.7588 32.3021 54.7614 32.3081 54.7662C32.3689 54.8092 32.4173 54.8677 32.4481 54.9356C32.4649 54.972 32.4103 55.0084 32.3921 54.9706C32.3643 54.9102 32.3208 54.8584 32.2661 54.8208C32.2623 54.8177 32.2592 54.8139 32.2571 54.8096C32.255 54.8052 32.2539 54.8004 32.2539 54.7956C32.2539 54.7907 32.255 54.7859 32.2571 54.7816C32.2592 54.7772 32.2623 54.7734 32.2661 54.7704V54.7662Z" fill="white"/>
<path d="M32.4619 54.6466C32.468 54.6421 32.4754 54.6396 32.4829 54.6396C32.4905 54.6396 32.4979 54.6421 32.5039 54.6466C32.5643 54.6897 32.6125 54.7475 32.6439 54.8146C32.6621 54.8524 32.6075 54.8888 32.5893 54.851C32.5616 54.7907 32.518 54.739 32.4633 54.7012C32.4595 54.6982 32.4565 54.6944 32.4544 54.69C32.4523 54.6857 32.4512 54.6809 32.4512 54.676C32.4512 54.6712 32.4523 54.6664 32.4544 54.6621C32.4565 54.6577 32.4595 54.6539 32.4633 54.6508L32.4619 54.6466Z" fill="white"/>
<path d="M32.6606 54.5429C32.6663 54.5382 32.6735 54.5356 32.6809 54.5356C32.6883 54.5356 32.6955 54.5382 32.7012 54.5429C32.7621 54.5859 32.8104 54.6444 32.8412 54.7123C32.8594 54.7487 32.8048 54.7851 32.7866 54.7473C32.7584 54.6872 32.715 54.6355 32.6606 54.5974C32.6568 54.5944 32.6537 54.5906 32.6516 54.5862C32.6495 54.5819 32.6484 54.5771 32.6484 54.5723C32.6484 54.5674 32.6495 54.5626 32.6516 54.5583C32.6537 54.5539 32.6568 54.5501 32.6606 54.5471V54.5429Z" fill="white"/>
<path d="M45.5593 38.5596C45.8491 36.097 45.6475 30.5796 45.6475 30.5796L40.5039 30.623C40.5039 30.623 41.2333 35.6784 41.8675 38.2768L45.5593 38.5596Z" fill="#00CDB4"/>
<g opacity="0.2">
<path d="M41.2665 31.9452C41.2091 32.7852 41.1545 33.6252 41.0971 34.4568C41.0971 34.5114 41.0117 34.5114 41.0145 34.4568C41.0439 34.0284 41.0719 33.5972 41.0999 33.1674C40.8941 33.3256 40.6519 33.1338 40.5847 32.9196C40.492 32.5578 40.4983 32.1777 40.6029 31.8192C40.6155 31.766 40.6967 31.7898 40.6841 31.8402C40.6218 32.0818 40.5982 32.3318 40.6141 32.5808C40.6152 32.7145 40.6423 32.8467 40.6939 32.97C40.7597 33.0988 40.9277 33.2094 41.0607 33.0918C41.0673 33.0872 41.0751 33.0847 41.0831 33.0847C41.0911 33.0847 41.0989 33.0872 41.1055 33.0918C41.1321 32.7124 41.1573 32.3316 41.1825 31.9522C41.1867 31.8948 41.2693 31.8948 41.2665 31.9452Z" fill="black"/>
</g>
<g opacity="0.2">
<path d="M43.7267 32.0851C43.7206 32.6199 43.9175 33.137 44.2775 33.5324C44.6376 33.9278 45.1341 34.1721 45.6671 34.2159C45.7203 34.2159 45.7203 34.1375 45.6671 34.1333C45.1559 34.0899 44.6802 33.8545 44.3355 33.4745C43.9909 33.0945 43.8029 32.5981 43.8093 32.0851C43.8075 32.0755 43.8024 32.0668 43.7949 32.0605C43.7873 32.0542 43.7778 32.0508 43.768 32.0508C43.7582 32.0508 43.7487 32.0542 43.7411 32.0605C43.7336 32.0668 43.7285 32.0755 43.7267 32.0851Z" fill="black"/>
</g>
<path d="M42.8495 53.5963H45.1399C45.4423 50.0613 45.6369 37.6447 45.6369 37.6447L41.2969 35.3403C41.2969 35.3403 41.8233 40.7373 42.0305 42.5279C42.0291 42.5321 42.4113 51.1057 42.8495 53.5963Z" fill="#00CDB4"/>
<g opacity="0.2">
<path d="M41.6582 34.7064C41.9382 37.0654 42.1664 39.43 42.3582 41.7974C42.55 44.1648 42.7222 46.521 42.8888 48.8842C42.9821 50.2245 43.0755 51.5643 43.1688 52.9036C43.1688 52.9568 43.2556 52.9582 43.2528 52.9036C43.0792 50.5236 42.9182 48.1548 42.746 45.7818C42.5738 43.4088 42.3876 41.0596 42.1608 38.7034C42.0404 37.3715 41.9032 36.0392 41.7492 34.7064C41.7492 34.6532 41.6596 34.6532 41.6652 34.7064H41.6582Z" fill="black"/>
</g>
<g opacity="0.2">
<path d="M42.792 52.9463H45.1538C45.1649 52.9463 45.1756 52.9419 45.1835 52.934C45.1914 52.9261 45.1958 52.9154 45.1958 52.9043C45.1958 52.8932 45.1914 52.8825 45.1835 52.8746C45.1756 52.8667 45.1649 52.8623 45.1538 52.8623H42.792C42.7809 52.8623 42.7702 52.8667 42.7623 52.8746C42.7544 52.8825 42.75 52.8932 42.75 52.9043C42.75 52.9154 42.7544 52.9261 42.7623 52.934C42.7702 52.9419 42.7809 52.9463 42.792 52.9463Z" fill="black"/>
</g>
<g opacity="0.2">
<path d="M44.268 42.9111C44.6098 43.0361 44.9847 43.0361 45.3264 42.9111C45.3754 42.8929 45.3544 42.8131 45.304 42.8313C44.9769 42.9517 44.6176 42.9517 44.2904 42.8313C44.24 42.8131 44.219 42.8929 44.268 42.9111Z" fill="black"/>
</g>
<path d="M46.3312 32.3654C46.2262 31.37 45.9224 28.1024 45.9112 24.6654C45.9112 24.5688 45.9224 24.4736 45.9294 24.3854C46.0145 23.6047 46.1649 22.8325 46.3788 22.0768C46.5482 21.3768 46.6462 20.7762 46.4222 20.0762C46.2402 19.5036 45.9406 19.2012 45.5696 19.015C45.5374 18.9982 45.5038 18.9828 45.4688 18.9674C44.9928 18.7588 44.4104 18.707 43.8056 18.5152C43.5099 18.4243 43.2275 18.2949 42.9656 18.1302C41.5488 17.2286 40.7816 18.1302 40.7816 18.1302C40.7816 18.1302 40.5562 18.1792 40.2412 18.2618C40.1138 18.2954 39.971 18.3332 39.8212 18.3752L39.7302 18.4018C39.2248 18.5502 38.6718 18.7434 38.4002 18.9394C38.0236 19.211 37.9256 20.4794 37.899 21.8304C37.899 21.864 37.899 21.8976 37.899 21.9312V22.2798C37.899 22.4548 37.899 22.6298 37.899 22.802C37.899 22.8398 37.899 22.8776 37.899 22.9154C37.899 23.3508 37.899 23.768 37.899 24.1334C37.899 24.174 37.899 24.2146 37.899 24.2538C37.899 24.4652 37.8892 24.6584 37.8794 24.8236C37.8794 24.895 37.8696 24.9636 37.864 25.0224C37.801 25.6734 37.0688 30.7512 36.8672 31.65C39.4432 32.2254 42.5092 32.3528 46.3312 32.3654Z" fill="black"/>
<path d="M43.157 16.0444C42.8588 16.645 42.94 17.3268 42.8854 18.066C42.765 18.2606 41.7906 20.0652 41.0808 19.046C40.8498 18.7128 40.868 18.1724 40.8008 18.0156C40.8815 17.9325 40.9573 17.8446 41.0276 17.7524C41.078 17.6547 41.1192 17.5525 41.1508 17.4472C41.1597 17.4192 41.1672 17.3907 41.1732 17.3618C41.1844 17.3184 41.1942 17.2722 41.2026 17.2218C41.211 17.1714 41.2166 17.1042 41.2208 17.044C41.2208 17.0202 41.2208 16.9936 41.2208 16.9698V16.9124L42.3618 16.4L43.157 16.0444Z" fill="#CE7A63"/>
<path d="M43.7548 13.0457C43.7548 13.0457 43.3838 11.8319 41.918 12.1455C40.994 12.3443 40.3164 12.6677 40.3164 13.4797C40.3164 14.0215 40.7854 14.4793 41.1158 14.4947C41.4462 14.5101 43.9326 13.9641 43.9326 13.9641C43.9326 13.9641 44.5486 13.3621 43.7548 13.0457Z" fill="black"/>
<g opacity="0.2">
<path d="M42.0931 17.1881C41.825 17.3928 41.487 17.4838 41.1523 17.4415C41.1613 17.4135 41.1688 17.3849 41.1747 17.3561C41.1859 17.3127 41.1957 17.2665 41.2041 17.2161C41.2125 17.1657 41.2181 17.0985 41.2223 17.0383C41.2223 17.0145 41.2223 16.9879 41.2223 16.9641V16.9137L42.2443 16.6953C42.3199 16.7653 42.2793 17.0187 42.0931 17.1881Z" fill="black"/>
</g>
<path d="M43.7431 14.937C43.8294 14.6991 43.8533 14.443 43.8127 14.1933C43.7721 13.9435 43.6684 13.7082 43.5112 13.5098C43.3541 13.3115 43.1489 13.1566 42.915 13.0599C42.6812 12.9632 42.4265 12.9279 42.1751 12.9574C41.0355 13.0848 40.4559 14.5968 40.4153 15.5992C40.3705 16.7122 41.5255 17.5592 42.5475 16.9712C43.2265 16.5834 43.3875 15.9646 43.7431 14.937Z" fill="#CE7A63"/>
<path d="M43.9551 15.1455C43.9551 15.1455 43.7423 15.7419 43.8151 16.0415C43.8879 16.3411 43.7605 16.4615 43.5673 16.3999C43.5158 16.3864 43.4712 16.3543 43.442 16.3098C43.4128 16.2654 43.4011 16.2117 43.4091 16.1591C43.4091 16.1591 43.3979 16.6869 43.0899 16.5791C42.7819 16.4713 42.9303 15.9505 42.9303 15.9505C42.9303 15.9505 43.4721 15.1679 43.9551 15.1455Z" fill="black"/>
<path d="M43.1787 13.1923C43.1787 13.1923 42.1371 13.9567 41.2705 13.3981C40.4039 12.8395 42.5375 12.1717 43.1787 13.1923Z" fill="black"/>
<path d="M42.7534 15.2005C42.9004 15.4203 43.0726 15.2355 43.5052 15.0675C43.5716 15.0399 43.6436 15.0289 43.7152 15.0353C43.5752 15.3769 43.4506 15.6583 43.3526 15.8599C43.3245 15.9167 43.2932 15.9719 43.2588 16.0251C43.5828 15.7308 43.8881 15.4166 44.173 15.0843C44.1994 15.0488 44.2224 15.0108 44.2416 14.9709C44.2416 14.9555 44.2332 14.9415 44.2276 14.9261C44.2053 14.8636 44.1757 14.8039 44.1394 14.7483C44.0798 14.6595 44.0077 14.5798 43.9252 14.5117C43.6706 14.3079 43.3758 14.1605 43.06 14.0791C42.9928 14.4123 42.6316 15.0213 42.7534 15.2005Z" fill="black"/>
<path d="M42.8893 13.4247C42.8893 13.4247 43.1203 13.6627 43.0867 13.9175C43.0596 14.0913 43.0126 14.2613 42.9467 14.4243C42.9467 14.4243 43.6929 14.7561 43.8889 14.7253C44.0849 14.6945 44.2445 14.1471 44.2445 14.1471C44.2445 14.1471 43.4045 13.1125 43.0559 13.1321C42.7073 13.1517 42.8893 13.4247 42.8893 13.4247Z" fill="black"/>
<path d="M43.708 13.2067C43.8529 13.1941 43.9981 13.228 44.1225 13.3036C44.2468 13.3791 44.3439 13.4922 44.3996 13.6267C44.6418 14.1181 44.457 14.6893 44.247 14.9707C44.037 15.2521 43.0626 14.1657 43.708 13.2067Z" fill="black"/>
<path d="M43.9933 15.7604C43.9215 15.8754 43.8276 15.975 43.717 16.0536C43.6065 16.1322 43.4816 16.1881 43.3493 16.2182C42.9951 16.298 42.8383 15.976 42.9531 15.6582C43.0567 15.3656 43.3647 14.9736 43.7133 15.0408C43.7889 15.0567 43.8594 15.0913 43.9182 15.1413C43.977 15.1914 44.0224 15.2553 44.0503 15.3274C44.0781 15.3994 44.0875 15.4773 44.0775 15.5539C44.0676 15.6305 44.0386 15.7034 43.9933 15.766V15.7604Z" fill="#CE7A63"/>
<path d="M42.0007 15.006C41.9769 15.0914 41.9125 15.146 41.8607 15.132C41.8089 15.118 41.7795 15.0354 41.8033 14.95C41.8271 14.8646 41.8915 14.81 41.9433 14.824C41.9951 14.838 42.0245 14.922 42.0007 15.006Z" fill="black"/>
<path d="M41.0691 14.7257C41.0453 14.8111 40.9809 14.8657 40.9291 14.8517C40.8773 14.8377 40.8479 14.7551 40.8717 14.6697C40.8955 14.5843 40.9599 14.5297 41.0117 14.5437C41.0634 14.5577 41.0929 14.6417 41.0691 14.7257Z" fill="black"/>
<path d="M41.7107 15.7518C41.4146 15.7801 41.1162 15.7319 40.8441 15.6118C40.8441 15.6118 40.7965 15.9954 41.1325 16.0976C41.5385 16.2208 41.7107 15.7518 41.7107 15.7518Z" fill="white"/>
<path d="M41.1699 15.3765C41.1699 15.3765 40.7779 15.3933 40.6435 15.5571C40.5091 15.7209 41.2287 15.8595 41.5451 15.8651C41.8615 15.8707 41.8419 15.7363 41.7117 15.6117C41.5815 15.4871 41.1699 15.3765 41.1699 15.3765Z" fill="black"/>
<path d="M40.8736 14.2673C40.8811 14.2698 40.8892 14.27 40.8969 14.268C40.9046 14.266 40.9115 14.2619 40.917 14.2561C40.9371 14.2335 40.9617 14.2152 40.9891 14.2022C41.0165 14.1892 41.0462 14.1818 41.0766 14.1805C41.1377 14.1854 41.1953 14.2117 41.239 14.2547C41.2429 14.2588 41.2475 14.262 41.2527 14.2642C41.2579 14.2663 41.2634 14.2675 41.2691 14.2675C41.2747 14.2675 41.2802 14.2663 41.2854 14.2642C41.2906 14.262 41.2952 14.2588 41.2992 14.2547C41.3032 14.2507 41.3064 14.2459 41.3086 14.2406C41.3108 14.2353 41.312 14.2297 41.312 14.2239C41.312 14.2182 41.3108 14.2126 41.3086 14.2073C41.3064 14.202 41.3032 14.1972 41.2992 14.1931C41.2388 14.1343 41.1593 14.0991 41.0752 14.0938C41.0331 14.0941 40.9915 14.1033 40.9532 14.1207C40.9149 14.138 40.8806 14.1632 40.8526 14.1946C40.8485 14.1985 40.8453 14.2031 40.8432 14.2083C40.841 14.2135 40.8398 14.219 40.8398 14.2246C40.8398 14.2303 40.841 14.2358 40.8432 14.241C40.8453 14.2462 40.8485 14.2508 40.8526 14.2547C40.8582 14.2609 40.8655 14.2653 40.8736 14.2673Z" fill="black"/>
<path d="M42.3187 14.706C42.3251 14.7074 42.3318 14.7074 42.3383 14.706C42.3494 14.7036 42.3591 14.697 42.3653 14.6876C42.3716 14.6782 42.374 14.6667 42.3719 14.6556C42.3554 14.5729 42.3084 14.4995 42.2403 14.4498C42.2047 14.4271 42.1648 14.412 42.1232 14.4055C42.0815 14.399 42.0389 14.4012 41.9981 14.412C41.9926 14.4131 41.9875 14.4154 41.9829 14.4186C41.9783 14.4217 41.9744 14.4258 41.9715 14.4305C41.9685 14.4351 41.9664 14.4404 41.9655 14.4459C41.9645 14.4513 41.9647 14.457 41.9659 14.4624C41.9667 14.4681 41.9687 14.4735 41.9717 14.4783C41.9748 14.4832 41.9788 14.4873 41.9836 14.4905C41.9883 14.4936 41.9937 14.4958 41.9993 14.4967C42.005 14.4977 42.0108 14.4974 42.0163 14.496C42.0457 14.4883 42.0763 14.4865 42.1063 14.4908C42.1364 14.4952 42.1653 14.5055 42.1913 14.5212C42.2401 14.5582 42.2743 14.6112 42.2879 14.671C42.289 14.6792 42.2925 14.6869 42.298 14.6932C42.3035 14.6994 42.3107 14.7039 42.3187 14.706Z" fill="black"/>
<path d="M41.4681 14.7031C41.3733 14.8634 41.2336 14.9924 41.0663 15.0741C40.8031 15.1931 41.1783 15.4717 41.1783 15.4717L41.4681 14.7031Z" fill="#BA4D3C"/>
<g opacity="0.3">
<path d="M44.3191 30.3021C44.3306 30.3021 44.3416 30.2975 44.3498 30.2893C44.3579 30.2812 44.3625 30.2702 44.3625 30.2587C44.3625 30.2471 44.3579 30.2361 44.3498 30.228C44.3416 30.2198 44.3306 30.2153 44.3191 30.2153C44.1262 30.21 43.9381 30.1541 43.7737 30.0531C43.6093 29.9521 43.4744 29.8095 43.3825 29.6399C43.1571 29.2633 43.1137 28.8111 43.1025 28.3799C43.1025 28.3253 43.0129 28.3239 43.0157 28.3799C43.0325 28.8503 43.0815 29.3599 43.3559 29.7547C43.4588 29.9183 43.6007 30.0539 43.7687 30.1494C43.9368 30.2449 44.1258 30.2973 44.3191 30.3021Z" fill="white"/>
</g>
<g opacity="0.3">
<path d="M38.5078 28.0371C38.4504 28.7651 38.1452 29.7171 37.2744 29.7619C37.2184 29.7619 37.2184 29.8515 37.2744 29.8487C37.4595 29.8329 37.6389 29.7764 37.7996 29.6832C37.9603 29.5901 38.0984 29.4625 38.204 29.3097C38.4728 28.9429 38.5596 28.4809 38.5946 28.0371C38.5988 27.9811 38.512 27.9825 38.5078 28.0371Z" fill="white"/>
</g>
<g opacity="0.3">
<path d="M41.1334 27.1245C41.1023 27.1245 41.0719 27.1337 41.0461 27.151C41.0203 27.1683 41.0002 27.1929 40.9884 27.2216C40.9765 27.2504 40.9735 27.282 40.9797 27.3124C40.9858 27.3429 41.0009 27.3708 41.023 27.3927C41.0451 27.4146 41.0731 27.4294 41.1036 27.4353C41.1341 27.4412 41.1657 27.4379 41.1943 27.4258C41.223 27.4137 41.2474 27.3934 41.2644 27.3674C41.2815 27.3414 41.2904 27.311 41.2902 27.2799C41.2898 27.2386 41.2731 27.199 41.2437 27.1699C41.2144 27.1408 41.1747 27.1245 41.1334 27.1245Z" fill="white"/>
</g>
<g opacity="0.3">
<path d="M41.0396 28.3853C41.0086 28.3853 40.9783 28.3944 40.9525 28.4117C40.9267 28.4289 40.9066 28.4534 40.8948 28.482C40.8829 28.5107 40.8798 28.5422 40.8858 28.5726C40.8919 28.6031 40.9068 28.631 40.9287 28.6529C40.9507 28.6749 40.9786 28.6898 41.009 28.6958C41.0394 28.7019 41.071 28.6988 41.0996 28.6869C41.1283 28.675 41.1528 28.655 41.17 28.6292C41.1872 28.6034 41.1964 28.5731 41.1964 28.5421C41.1964 28.5005 41.1799 28.4606 41.1505 28.4312C41.1211 28.4018 41.0812 28.3853 41.0396 28.3853Z" fill="white"/>
</g>
<g opacity="0.3">
<path d="M40.9791 29.77C40.9481 29.77 40.9177 29.7792 40.892 29.7964C40.8662 29.8137 40.8461 29.8382 40.8342 29.8668C40.8223 29.8955 40.8192 29.927 40.8253 29.9574C40.8313 29.9878 40.8463 30.0158 40.8682 30.0377C40.8901 30.0596 40.9181 30.0746 40.9485 30.0806C40.9789 30.0867 41.0104 30.0836 41.0391 30.0717C41.0677 30.0598 41.0922 30.0397 41.1094 30.0139C41.1267 29.9881 41.1359 29.9578 41.1359 29.9268C41.1359 29.8852 41.1193 29.8454 41.0899 29.8159C41.0605 29.7865 41.0207 29.77 40.9791 29.77Z" fill="white"/>
</g>
<g opacity="0.3">
<path d="M40.7508 26.5126L40.377 31.9726C40.377 32.0286 40.461 32.0286 40.4638 31.9726L40.8376 26.5126C40.8418 26.458 40.755 26.458 40.7508 26.5126Z" fill="white"/>
</g>
<g opacity="0.3">
<path d="M45.3683 25.4637C45.3963 24.9135 45.4383 24.3633 45.4901 23.8145H45.4033C45.2017 25.9479 45.1764 28.0944 45.3277 30.2321C45.3725 30.8649 45.4327 31.4963 45.5083 32.1263C45.5083 32.1809 45.6007 32.1823 45.5937 32.1263C45.3297 29.9158 45.2543 27.6869 45.3683 25.4637Z" fill="white"/>
</g>
<path d="M40.9923 26.3359L42.6723 20.4685C42.2985 20.0485 41.7091 19.6019 41.3997 19.3149L40.3301 20.1451L40.6675 26.3359H40.9923Z" fill="white"/>
<path d="M40.965 26.336L41.7042 23.417L41.5796 20.547L41.0728 20.4966L40.5898 23.1426C40.615 24.2066 40.6388 25.4722 40.6654 26.336H40.965Z" fill="#00CDB4"/>
<path d="M40.6738 19.8763L41.2772 20.8143L42.1648 20.0317L41.3962 19.3149L40.6738 19.8763Z" fill="#00CDB4"/>
<path d="M40.8752 17.8729C40.7646 17.7329 40.1584 17.9205 40.0352 18.3055L40.3236 20.1451L41.3932 19.3149C41.3932 19.3149 40.724 18.6989 40.8752 17.8729Z" fill="white"/>
<path d="M42.8813 18.0661C42.5529 18.6483 42.0247 19.0919 41.3945 19.3149C41.3945 19.3149 42.2275 20.0149 42.6671 20.4685L43.6471 18.4091C43.6569 18.2635 43.2551 17.8631 42.8813 18.0661Z" fill="white"/>
<path d="M43.6337 18.3784C43.6337 18.3784 44.2679 18.3784 44.6263 18.7116L43.6393 21.429L43.0401 21.5074L43.1801 22.2634L42.3401 25.4834L40.8757 26.4858C40.7455 26.4928 42.5711 19.9058 43.6337 18.3784Z" fill="black"/>
<g opacity="0.3">
<path d="M43.6337 18.3779C43.6337 18.3779 44.2679 18.3779 44.6263 18.7111L43.6393 21.4285L43.0401 21.5069L43.1801 22.2629L42.3401 25.4829L40.8757 26.4853C40.7455 26.4923 42.5711 19.9053 43.6337 18.3779Z" fill="white"/>
</g>
<path d="M40.0372 18.3052C40.0372 18.3052 39.3638 18.3178 39.0488 18.6174L39.3372 21.3054H40.0372L39.4338 22.249L39.6956 25.567L40.8044 26.5022C40.8044 26.5022 40.7498 22.0124 40.0372 18.3052Z" fill="black"/>
<g opacity="0.3">
<path d="M40.0372 18.3057C40.0372 18.3057 39.3638 18.3183 39.0488 18.6179L39.3372 21.3059H40.0372L39.4338 22.2495L39.6956 25.5675L40.8044 26.5027C40.8044 26.5027 40.7498 22.0129 40.0372 18.3057Z" fill="white"/>
</g>
<path d="M49.0198 26.0446C48.9952 26.184 48.9563 26.3205 48.9036 26.452C48.8527 26.5793 48.7884 26.7009 48.7118 26.8146C48.5813 27.0086 48.4222 27.1818 48.24 27.3284C48.0917 27.448 47.9328 27.5539 47.7654 27.6448C47.4791 27.7935 47.179 27.914 46.8694 28.0046C46.5908 28.0876 46.3075 28.154 46.021 28.2034C45.4794 28.2977 44.9322 28.3557 44.383 28.377C43.8398 28.3952 43.2196 28.4582 42.668 28.4162L42.7142 27.1338C43.6791 26.9596 44.631 26.7196 45.5632 26.4156C45.783 26.3358 45.9972 26.2532 46.1918 26.1622C46.3689 26.0837 46.537 25.986 46.693 25.871C46.7443 25.836 46.7913 25.7951 46.833 25.7492C46.833 25.7072 46.8218 25.647 46.8148 25.6092C46.7793 25.4373 46.7283 25.2691 46.6622 25.1066C46.5894 24.9148 46.4942 24.7132 46.3962 24.5074C46.1974 24.0972 45.9566 23.68 45.7088 23.2642C45.461 22.8484 45.195 22.4242 44.9234 22.0182L44.5118 21.3994L44.103 20.796L46.0476 19.3638C46.2395 19.5573 46.4143 19.7671 46.5698 19.991C46.7238 20.2108 46.8708 20.4334 47.0164 20.6574C47.3048 21.1082 47.5834 21.5674 47.8424 22.0448C48.111 22.5309 48.3517 23.032 48.5634 23.5456C48.6764 23.8201 48.7745 24.1005 48.8574 24.3856C48.9563 24.7116 49.0206 25.0471 49.0492 25.3866C49.0663 25.6063 49.0564 25.8273 49.0198 26.0446Z" fill="black"/>
<g opacity="0.2">
<path d="M38.7195 24.8446L35.9727 26.8312L36.1239 25.889L37.7759 24.6934L38.7195 24.8446Z" fill="black"/>
</g>
<g opacity="0.2">
<path d="M42.5744 26.313L42.4232 27.2566L38.4514 30.1294L37.5078 29.9782L42.5744 26.313Z" fill="black"/>
</g>
<g opacity="0.2">
<path d="M42.265 28.2354L42.1138 29.1762L40.3694 30.439L39.4258 30.2864L42.265 28.2354Z" fill="black"/>
</g>
<path d="M42.4484 27.1105C42.4484 27.1105 41.4264 27.3569 41.3284 27.5557C41.2304 27.7545 41.5482 27.7433 41.5482 27.7433C41.5482 27.7433 41.201 27.7769 41.1954 27.9253C41.1884 28.1045 41.5188 28.0919 41.5188 28.0919C41.5188 28.0919 41.2388 28.1311 41.2388 28.2627C41.2388 28.3943 41.6168 28.4125 41.6168 28.4125C41.6168 28.4125 41.4236 28.4783 41.4768 28.5693C41.53 28.6603 42.3238 28.7009 42.5604 28.5553C42.797 28.4097 42.811 27.3905 42.769 27.1679C42.727 26.9453 42.818 26.8235 42.5436 26.4819L42.4428 27.1105H42.4484Z" fill="#CE7A63"/>
<path opacity="0.2" d="M41.5484 27.76L42.149 27.6732C42.151 27.6729 42.153 27.6722 42.1547 27.6711C42.1564 27.67 42.1579 27.6685 42.1591 27.6668C42.1603 27.6651 42.1611 27.6632 42.1615 27.6612C42.162 27.6592 42.162 27.6571 42.1616 27.655C42.1612 27.6508 42.1593 27.6469 42.1562 27.6441C42.1531 27.6412 42.149 27.6396 42.1448 27.6396L41.5442 27.7264C41.5399 27.7275 41.5363 27.7301 41.5339 27.7337C41.5316 27.7374 41.5307 27.7418 41.5316 27.746C41.5322 27.75 41.5343 27.7536 41.5374 27.7562C41.5405 27.7587 41.5444 27.7601 41.5484 27.76Z" fill="black"/>
<path opacity="0.2" d="M41.537 28.1067L42.1208 28.0703C42.125 28.0696 42.1288 28.0673 42.1314 28.064C42.134 28.0606 42.1352 28.0563 42.1348 28.0521C42.135 28.05 42.1347 28.0479 42.134 28.046C42.1333 28.044 42.1322 28.0422 42.1307 28.0407C42.1293 28.0392 42.1275 28.0381 42.1255 28.0374C42.1235 28.0367 42.1214 28.0365 42.1194 28.0367L41.5356 28.0745C41.5335 28.0747 41.5316 28.0753 41.5298 28.0762C41.528 28.0771 41.5264 28.0784 41.5251 28.08C41.5238 28.0815 41.5228 28.0833 41.5222 28.0853C41.5216 28.0872 41.5214 28.0893 41.5216 28.0913C41.5213 28.0934 41.5216 28.0955 41.5223 28.0974C41.523 28.0994 41.5241 28.1012 41.5256 28.1027C41.5271 28.1042 41.5288 28.1053 41.5308 28.106C41.5328 28.1067 41.5349 28.1069 41.537 28.1067Z" fill="black"/>
<path opacity="0.2" d="M41.6385 28.4289L42.0738 28.4135C42.0778 28.4128 42.0814 28.4108 42.084 28.4077C42.0865 28.4046 42.0879 28.4007 42.0878 28.3967C42.088 28.3945 42.0878 28.3924 42.0871 28.3904C42.0864 28.3883 42.0853 28.3865 42.0839 28.3849C42.0824 28.3833 42.0807 28.382 42.0787 28.3812C42.0767 28.3803 42.0746 28.3799 42.0725 28.3799L41.637 28.3953C41.6331 28.396 41.6295 28.398 41.6269 28.4011C41.6244 28.4042 41.623 28.4081 41.623 28.4121C41.6244 28.4219 41.6301 28.4289 41.6385 28.4289Z" fill="black"/>
<path d="M36.1479 25.8875C36.1479 25.8875 37.0565 26.4167 37.0915 26.6351C37.1265 26.8535 36.8269 26.7527 36.8269 26.7527C36.8269 26.7527 37.1489 26.8843 37.1069 27.0327C37.0621 27.2049 36.7499 27.0985 36.7499 27.0985C36.7499 27.0985 37.0075 27.2161 36.9669 27.3421C36.9263 27.4681 36.5609 27.3771 36.5609 27.3771C36.5609 27.3771 36.7275 27.4947 36.6491 27.5661C36.5707 27.6375 35.7993 27.4485 35.6145 27.2427C35.4297 27.0369 35.7083 26.0541 35.8133 25.8525C35.9183 25.6509 35.8637 25.5095 36.2249 25.2617L36.1423 25.8917L36.1479 25.8875Z" fill="#CE7A63"/>
<path opacity="0.2" d="M36.8175 26.7658L36.2659 26.5096C36.2632 26.5068 36.2617 26.503 36.2617 26.4991C36.2617 26.4953 36.2632 26.4915 36.2659 26.4886C36.2665 26.4867 36.2675 26.4849 36.2688 26.4834C36.2702 26.4818 36.2718 26.4806 36.2736 26.4797C36.2754 26.4787 36.2774 26.4782 36.2794 26.4781C36.2815 26.4779 36.2835 26.4782 36.2855 26.4788L36.8357 26.735C36.8375 26.7359 36.8392 26.7372 36.8405 26.7387C36.8419 26.7403 36.843 26.7421 36.8436 26.7441C36.8443 26.746 36.8445 26.7481 36.8443 26.7502C36.8442 26.7522 36.8436 26.7542 36.8427 26.756C36.8315 26.7658 36.8245 26.7658 36.8175 26.7658Z" fill="black"/>
<path opacity="0.2" d="M36.7282 27.1042L36.1794 26.9055C36.1756 26.9036 36.1727 26.9005 36.1711 26.8966C36.1696 26.8927 36.1695 26.8884 36.171 26.8845C36.1725 26.8807 36.1753 26.8775 36.1788 26.8754C36.1824 26.8734 36.1865 26.8726 36.1906 26.8733L36.7394 27.0776C36.7431 27.0795 36.7461 27.0826 36.7476 27.0865C36.7492 27.0904 36.7493 27.0947 36.7478 27.0987C36.7458 27.1018 36.7427 27.1041 36.739 27.1052C36.7354 27.1062 36.7316 27.1059 36.7282 27.1042Z" fill="black"/>
<path opacity="0.2" d="M36.5386 27.3834L36.127 27.2434C36.1251 27.2428 36.1233 27.2418 36.1218 27.2404C36.1203 27.2391 36.1191 27.2374 36.1183 27.2356C36.1175 27.2337 36.1171 27.2317 36.1172 27.2297C36.1172 27.2276 36.1177 27.2256 36.1186 27.2238C36.1191 27.2218 36.12 27.2198 36.1213 27.2181C36.1226 27.2164 36.1242 27.215 36.126 27.2139C36.1278 27.2129 36.1299 27.2122 36.132 27.212C36.1341 27.2118 36.1362 27.212 36.1383 27.2126L36.5498 27.3526C36.5536 27.3544 36.5566 27.3576 36.5581 27.3615C36.5597 27.3654 36.5597 27.3697 36.5583 27.3736C36.5576 27.3756 36.5566 27.3773 36.5553 27.3789C36.5539 27.3804 36.5523 27.3817 36.5505 27.3826C36.5487 27.3835 36.5467 27.3841 36.5447 27.3842C36.5426 27.3843 36.5406 27.3841 36.5386 27.3834Z" fill="black"/>
<path d="M12.962 17.2239C13.319 17.7839 15.6458 17.9113 17.1382 17.4773C17.0402 16.9089 17.0836 15.9149 17.1382 15.1771C17.2138 14.1971 16.945 13.4439 16.2548 13.0491C15.6094 12.6781 14.0568 12.6977 13.5738 13.0715C13.5738 13.0715 12.43 13.6693 12.8738 14.9209C13.2994 16.1263 13.2658 16.7269 12.962 17.2239Z" fill="black"/>
<path d="M16.5161 15.8813C16.5176 15.893 16.5176 15.9047 16.5161 15.9163C16.6405 15.9344 16.7545 15.9956 16.8382 16.0893C16.922 16.1829 16.97 16.3031 16.974 16.4287C16.978 16.5543 16.9376 16.6773 16.86 16.7761C16.7823 16.8749 16.6724 16.9432 16.5494 16.969C16.4265 16.9948 16.2983 16.9766 16.1875 16.9174C16.0767 16.8582 15.9902 16.7618 15.9433 16.6453C15.8964 16.5287 15.8921 16.3993 15.931 16.2799C15.9699 16.1604 16.0497 16.0585 16.1563 15.9919C16.1506 15.9824 16.1455 15.9726 16.1409 15.9625C16.0266 16.0336 15.941 16.1427 15.8992 16.2707C15.8575 16.3986 15.8623 16.5372 15.9128 16.662C15.9633 16.7868 16.0562 16.8897 16.1752 16.9527C16.2942 17.0156 16.4316 17.0345 16.5631 17.006C16.6947 16.9776 16.8119 16.9035 16.8943 16.797C16.9766 16.6905 17.0186 16.5584 17.013 16.4239C17.0074 16.2894 16.9544 16.1612 16.8635 16.062C16.7726 15.9627 16.6496 15.8987 16.5161 15.8813Z" fill="white"/>
<path d="M19.4026 31.0264C19.4026 31.0264 20.5506 39.6028 20.4442 40.6766C19.8464 46.6546 17.7226 52.8748 17.7226 52.8748L16.5634 52.9686C16.45 52.9686 16.604 42.2866 17.1318 40.7886C17.3684 40.1152 15.5078 32.1674 15.5078 32.1674L19.4026 31.0264Z" fill="#FF8B7B"/>
<path d="M18.3457 27.231C18.3457 27.231 19.7905 31.9 20.2483 35.099L16.0217 36.0636L13.8867 28.8004L18.3457 27.231Z" fill="black"/>
<path d="M15.5827 30.9663C15.9096 32.4067 16.3143 33.8284 16.7951 35.2251C16.8105 35.2685 16.7419 35.2867 16.7265 35.2433C16.2451 33.8472 15.8399 32.426 15.5127 30.9859C15.5029 30.9411 15.5715 30.9215 15.5827 30.9663Z" fill="#00CDB4"/>
<path d="M20.2498 34.3359L20.443 35.2431L15.8804 36.2441L15.6914 35.3593L20.2498 34.3359Z" fill="#00CDB4"/>
<g opacity="0.2">
<path d="M20.3801 40.6961C20.2176 40.7708 20.0404 40.8081 19.8616 40.8052C19.6828 40.8023 19.5069 40.7593 19.3469 40.6793C19.2643 40.6387 19.3371 40.5169 19.4197 40.5575C19.5576 40.6252 19.7088 40.6617 19.8625 40.6644C20.0161 40.667 20.1685 40.6358 20.3087 40.5729C20.3927 40.5351 20.4641 40.6583 20.3801 40.6961Z" fill="black"/>
</g>
<path d="M15.4348 30.2663C15.9136 33.5339 14.7908 38.2393 14.2868 41.0673C14.1608 41.7673 11.4308 52.9267 11.4308 52.9267L10.378 52.7475C10.378 52.7475 9.71023 44.0353 10.8498 41.0673C11.3776 39.6953 11.3538 29.2065 11.3538 29.2065L15.4348 30.2663Z" fill="#FF8B7B"/>
<path d="M16.1549 28.3864L15.3877 36.1116C15.3877 36.1116 11.6945 35.8134 10.7761 35.5992C10.7761 35.5992 10.5591 30.5466 11.4257 28.3864C12.2923 26.2262 16.1549 28.3864 16.1549 28.3864Z" fill="black"/>
<path d="M12.0685 28.6257C11.8718 30.2773 11.7625 31.9381 11.7409 33.6013C11.7409 34.0717 11.7409 34.5421 11.7409 35.0125C11.7392 35.0207 11.7348 35.0282 11.7283 35.0335C11.7218 35.0388 11.7136 35.0418 11.7052 35.0418C11.6968 35.0418 11.6886 35.0388 11.6821 35.0335C11.6756 35.0282 11.6711 35.0207 11.6695 35.0125C11.64 33.3496 11.6989 31.6864 11.8459 30.0299C11.8879 29.5632 11.9345 29.0965 11.9859 28.6299C11.9859 28.5837 12.0629 28.5837 12.0573 28.6299L12.0685 28.6257Z" fill="#00CDB4"/>
<path d="M15.5678 35.2631L15.4726 36.1857L10.6328 35.7293L10.623 34.8193L15.5678 35.2631Z" fill="#00CDB4"/>
<g opacity="0.2">
<path d="M14.3346 40.6265C14.1725 40.7026 13.9954 40.7413 13.8164 40.7399C13.6373 40.7384 13.4609 40.6968 13.3 40.6181C13.2174 40.5775 13.2902 40.4543 13.3728 40.4949C13.5113 40.5615 13.6627 40.5968 13.8164 40.5983C13.97 40.5997 14.1221 40.5673 14.2618 40.5033C14.3458 40.4655 14.4186 40.5887 14.3346 40.6265Z" fill="black"/>
</g>
<path d="M12.759 24.8457C12.759 24.8457 12.6848 25.9657 12.5938 26.8673C12.5938 26.8673 15.2958 28.4871 17.9978 26.3829L17.4644 24.8821L12.759 24.8457Z" fill="#00CDB4"/>
<path d="M14.1009 25.7372C13.2749 25.754 12.6225 25.6462 12.5945 25.3326C12.5553 24.8692 12.3663 24.2938 12.1227 23.6862C12.0625 23.5364 11.9995 23.3866 11.9337 23.234C11.8329 22.9974 11.7237 22.7566 11.6173 22.5214C11.0069 21.176 10.4777 20.35 10.9733 19.6108C11.4269 18.9332 13.5871 17.8916 13.5871 17.8916L15.0655 17.9728C15.0655 17.9728 15.4701 18.103 15.9391 18.3088C16.4991 18.5524 17.1417 18.9024 17.2971 19.2636C17.6289 20.0364 17.0955 21.3202 17.2705 23.346C17.3178 23.8822 17.4087 24.4136 17.5421 24.935C17.6289 25.278 15.5877 25.7092 14.1009 25.7372Z" fill="#00CDB4"/>
<g opacity="0.2">
<path d="M12.9704 22.3384L12.1304 23.688C12.0702 23.5382 12.0072 23.3884 11.9414 23.2358L12.9704 22.3384Z" fill="black"/>
</g>
<path d="M17.2956 19.2637C17.2956 19.2637 18.4394 22.8029 19.2948 22.9219C19.9206 22.7101 20.5351 22.4662 21.1358 22.1911C21.9856 21.7599 22.1242 21.7529 22.7038 22.3605C23.2834 22.9681 23.4248 23.3405 23.1056 23.9229C22.7864 24.5053 19.4922 26.1629 18.6256 26.1391C17.759 26.1153 16.541 23.8697 16.541 23.8697L17.2956 19.2637Z" fill="#00CDB4"/>
<path d="M22.1372 22.3858C22.1295 22.1406 22.2077 21.9004 22.3584 21.7068C22.5992 21.4506 22.7224 21.1818 22.9184 21.0068C23.1144 20.8318 23.071 21.1804 23.0136 21.3624C22.9562 21.5444 22.8904 21.753 23.0346 21.774C23.1788 21.795 24.3478 21.3414 24.5438 21.3946C24.7398 21.4478 24.5746 21.5794 24.5746 21.5794C24.5746 21.5794 24.8378 21.48 24.933 21.5794C25.0282 21.6788 24.8826 21.7908 24.8826 21.7908C24.8826 21.7908 25.0618 21.7306 25.0898 21.8608C25.1178 21.991 24.2358 22.5076 24.2092 22.5524C24.2092 22.5524 24.6418 22.159 24.7818 22.2598C24.9218 22.3606 24.6166 22.5916 24.3786 22.7806C24.1343 22.9781 23.8291 23.0849 23.5148 23.083C23.2026 23.0718 22.6748 23.223 22.4606 22.929C22.3324 22.7609 22.2239 22.5786 22.1372 22.3858Z" fill="#FF8B7B"/>
<g opacity="0.2">
<path d="M24.8507 21.8297C24.5511 21.9459 24.2557 22.0719 23.9673 22.2077C24.0004 22.2845 24.028 22.3635 24.0499 22.4443C24.0597 22.4849 23.9953 22.4849 23.9841 22.4443C23.9146 22.1928 23.7908 21.9596 23.6215 21.7611C23.5935 21.7275 23.6439 21.6967 23.6719 21.7303C23.7144 21.7808 23.7542 21.8336 23.7909 21.8885C23.7917 21.8857 23.7931 21.8831 23.7951 21.8809C23.797 21.8787 23.7994 21.877 23.8021 21.8759C24.0228 21.7513 24.2579 21.6539 24.5021 21.5861C24.5399 21.5763 24.5679 21.6351 24.5287 21.6463C24.291 21.7117 24.062 21.8058 23.8469 21.9263C23.8429 21.928 23.8386 21.9288 23.8343 21.9288C23.83 21.9288 23.8257 21.928 23.8217 21.9263C23.8674 21.9956 23.9081 22.0681 23.9435 22.1433C24.2319 22.007 24.5264 21.881 24.8269 21.7653C24.8605 21.7569 24.8871 21.8157 24.8507 21.8297Z" fill="black"/>
</g>
<g opacity="0.2">
<path d="M23.5818 22.1562C23.415 22.122 23.2415 22.1448 23.0892 22.221C22.9369 22.2971 22.8145 22.4222 22.7418 22.5762C22.7264 22.6112 22.6648 22.5762 22.6802 22.5468C22.83 22.2122 23.1786 22.0414 23.586 22.0974C23.5907 22.0963 23.5955 22.0964 23.6002 22.0975C23.6049 22.0987 23.6092 22.1009 23.6129 22.1041C23.6165 22.1072 23.6194 22.1112 23.6212 22.1156C23.6231 22.12 23.6239 22.1248 23.6235 22.1296C23.6232 22.1344 23.6217 22.1391 23.6193 22.1432C23.6168 22.1473 23.6134 22.1508 23.6093 22.1534C23.6053 22.156 23.6007 22.1576 23.5959 22.1581C23.5911 22.1586 23.5863 22.1579 23.5818 22.1562Z" fill="black"/>
</g>
<path d="M11.3523 19.264C11.3523 19.264 8.27232 21.5488 7.78652 22.6646C7.30072 23.7804 9.54492 27.118 10.7517 27.4246C11.9585 27.7312 12.9497 26.0246 12.3225 25.2924C11.6953 24.5602 11.0877 23.7832 11.0877 23.7832C11.0877 23.7832 12.4247 22.9586 12.5927 22.6632C13.1877 21.6272 11.9277 18.8048 11.3523 19.264Z" fill="#00CDB4"/>
<g opacity="0.2">
<path d="M22.9333 23.9422C22.7094 23.9371 22.489 23.8853 22.2863 23.7901C22.0836 23.6948 21.903 23.5583 21.7562 23.3891C21.6093 23.22 21.4994 23.0221 21.4336 22.808C21.3677 22.5939 21.3473 22.3684 21.3737 22.146C21.3807 22.09 21.2925 22.09 21.2855 22.146C21.2599 22.3797 21.2831 22.6162 21.3537 22.8405C21.4243 23.0647 21.5408 23.2718 21.6958 23.4487C21.8507 23.6255 22.0408 23.7681 22.2538 23.8676C22.4669 23.967 22.6983 24.021 22.9333 24.0262C22.9865 24.0318 22.9865 23.9436 22.9333 23.9422Z" fill="black"/>
<path d="M17.8674 25.6628C17.8254 25.702 17.8884 25.7636 17.929 25.7244C18.0302 25.6282 18.1515 25.5555 18.2842 25.5117C18.4168 25.4679 18.5575 25.454 18.6961 25.471C18.8348 25.488 18.968 25.5355 19.0861 25.61C19.2042 25.6846 19.3044 25.7844 19.3794 25.9022C19.4102 25.9498 19.4872 25.9022 19.4564 25.8574C19.3743 25.7282 19.2646 25.6188 19.1352 25.537C19.0057 25.4553 18.8598 25.4032 18.7079 25.3846C18.5559 25.366 18.4017 25.3813 18.2564 25.4294C18.1111 25.4775 17.9782 25.5572 17.8674 25.6628Z" fill="black"/>
<path d="M17.9472 21.5582C17.6527 20.9988 17.4926 20.3786 17.4796 19.7466C17.478 19.7383 17.4735 19.7309 17.467 19.7255C17.4605 19.7202 17.4523 19.7173 17.4439 19.7173C17.4355 19.7173 17.4273 19.7202 17.4208 19.7255C17.4143 19.7309 17.4098 19.7383 17.4082 19.7466C17.4217 20.3913 17.5851 21.024 17.8856 21.5946C17.9094 21.6352 17.971 21.5988 17.9472 21.5582Z" fill="black"/>
<path d="M16.0245 20.1342C16.0336 20.1316 16.0413 20.1255 16.0459 20.1172C16.0505 20.1089 16.0516 20.0992 16.049 20.0901C16.0464 20.081 16.0403 20.0733 16.0321 20.0687C16.0238 20.0641 16.014 20.063 16.0049 20.0656C15.6185 20.1817 15.2114 20.213 14.8118 20.1571C14.4121 20.1013 14.0292 19.9598 13.6893 19.7422C13.6501 19.7184 13.6151 19.78 13.6529 19.8052C14.0015 20.027 14.3937 20.1712 14.8029 20.228C15.2121 20.2847 15.6288 20.2528 16.0245 20.1342Z" fill="black"/>
<path d="M17.2197 23.5948C16.3026 23.9368 15.3031 23.992 14.3539 23.753C14.3063 23.7418 14.2867 23.8132 14.3329 23.8244C15.2977 24.068 16.3136 24.0129 17.2463 23.6662C17.2841 23.6494 17.2645 23.578 17.2197 23.5948Z" fill="black"/>
<path d="M12.1062 25.0075C11.8306 24.9206 11.5365 24.9096 11.2551 24.9757C10.9737 25.0419 10.7154 25.1827 10.5073 25.3833C10.2992 25.584 10.149 25.837 10.0727 26.1158C9.99635 26.3946 9.99661 26.6889 10.0734 26.9675C10.0778 26.9774 10.0856 26.9853 10.0953 26.9899C10.105 26.9945 10.1161 26.9954 10.1264 26.9925C10.1368 26.9896 10.1458 26.9831 10.1517 26.9742C10.1577 26.9652 10.1602 26.9544 10.1588 26.9437C10.087 26.6804 10.0875 26.4026 10.1602 26.1395C10.2329 25.8764 10.3751 25.6377 10.572 25.4486C10.7688 25.2595 11.013 25.1269 11.2788 25.0648C11.5446 25.0027 11.8222 25.0134 12.0824 25.0957C12.0941 25.0989 12.1066 25.0973 12.1171 25.0912C12.1276 25.0852 12.1353 25.0752 12.1384 25.0635C12.1416 25.0518 12.14 25.0394 12.1339 25.0289C12.1279 25.0184 12.1179 25.0107 12.1062 25.0075Z" fill="black"/>
<path d="M8.16139 22.125C8.30982 22.3745 8.36021 22.6703 8.30277 22.9549C8.24533 23.2395 8.08417 23.4926 7.85059 23.665C7.80579 23.6986 7.85059 23.7742 7.89539 23.7406C8.14902 23.5559 8.3246 23.2832 8.38778 22.9758C8.45096 22.6685 8.39719 22.3486 8.23699 22.0788C8.23086 22.0688 8.221 22.0616 8.20958 22.0589C8.19816 22.0561 8.18611 22.058 8.17609 22.0641C8.16606 22.0702 8.15888 22.0801 8.15613 22.0915C8.15337 22.1029 8.15526 22.115 8.16139 22.125Z" fill="black"/>
</g>
<path d="M17.2964 20.1152C17.2964 20.1152 17.2194 20.6458 17.8396 21.3612C18.5886 22.2264 17.4742 23.1714 17.2334 23.4444C16.9926 23.7174 17.2964 20.1152 17.2964 20.1152Z" fill="#00CDB4"/>
<path d="M16.0031 18.3147C16.0031 18.3147 16.4497 20.3125 16.3727 20.6345C16.3125 20.8893 14.1523 21.0755 13.8877 20.7955C13.6231 20.5155 12.9385 18.1943 12.9385 18.1943C12.7362 18.2101 12.5401 18.2717 12.3651 18.3742C12.19 18.4768 12.0404 18.6178 11.9277 18.7865C12.1349 18.5737 13.2549 21.6089 12.9385 23.7775C12.7845 24.8345 12.1587 26.7917 12.1587 26.7917C14.0944 26.817 16.0221 26.5397 17.8721 25.9699C17.8721 25.9699 17.4031 24.9521 17.3779 24.3081C17.3527 23.6641 17.1581 24.0407 17.5417 23.3925C17.9253 22.7443 18.5315 22.3523 17.9309 21.4759C17.3303 20.5995 16.7507 19.9219 16.7899 18.7067C16.5776 18.4935 16.3012 18.3558 16.0031 18.3147Z" fill="black"/>
<path d="M13.2443 19.2775C13.0937 19.2596 12.9411 19.2773 12.7986 19.3291C12.6562 19.3809 12.5278 19.4653 12.4239 19.5757C12.3931 19.6093 12.3413 19.5589 12.3735 19.5253C12.484 19.4083 12.6202 19.3186 12.7713 19.2633C12.9224 19.2079 13.0843 19.1883 13.2443 19.2061C13.2891 19.2061 13.2891 19.2817 13.2443 19.2775Z" fill="#00CDB4"/>
<path d="M16.7973 19.2522C16.6134 19.1842 16.4107 19.1872 16.2289 19.2606C16.1855 19.2774 16.1673 19.2088 16.2093 19.192C16.4037 19.114 16.6201 19.1105 16.8169 19.1822C16.8589 19.199 16.8407 19.2676 16.7973 19.2522Z" fill="#00CDB4"/>
<path d="M17.2719 21.7923C16.1525 22.0946 14.988 22.1941 13.8335 22.0863C13.7873 22.0863 13.7873 22.0107 13.8335 22.0149C14.9798 22.1234 16.1362 22.0257 17.2481 21.7265C17.2572 21.7244 17.2667 21.726 17.2747 21.7308C17.2827 21.7355 17.2885 21.7432 17.291 21.7522C17.2935 21.7611 17.2925 21.7707 17.2882 21.779C17.2838 21.7872 17.2765 21.7935 17.2677 21.7965L17.2719 21.7923Z" fill="#00CDB4"/>
<path d="M13.849 22.0614C13.7979 22.5775 13.7937 23.0971 13.8364 23.614C13.8476 23.7414 13.8602 23.8688 13.877 23.9962C13.8765 24.0607 13.8896 24.1245 13.9154 24.1836C13.9412 24.2427 13.9791 24.2957 14.0268 24.3392C14.1345 24.397 14.2562 24.4236 14.3782 24.4162C14.5098 24.4246 14.6428 24.4302 14.7744 24.433C15.3094 24.4438 15.8445 24.4124 16.3746 24.3392C16.5901 24.3251 16.8021 24.2779 17.0032 24.1992C17.244 24.0816 17.328 23.8562 17.3392 23.6C17.3595 23.0008 17.3173 22.4012 17.2132 21.8108C17.2132 21.766 17.2748 21.7464 17.2818 21.7926C17.3815 22.3765 17.4256 22.9685 17.4134 23.5608C17.4198 23.6667 17.4052 23.7728 17.3704 23.873C17.3355 23.9732 17.2812 24.0655 17.2104 24.1446C17.0553 24.2706 16.8672 24.3493 16.6686 24.3714C16.0899 24.4719 15.5031 24.5187 14.9158 24.5114C14.6503 24.5269 14.3839 24.5114 14.122 24.4652C13.9176 24.4134 13.842 24.2482 13.8126 24.0564C13.7191 23.3972 13.7073 22.729 13.7776 22.067C13.7776 22.0208 13.8546 22.0208 13.849 22.067V22.0614Z" fill="#00CDB4"/>
<path d="M13.207 21.2463C13.2068 21.3042 13.2237 21.3609 13.2557 21.4092C13.2876 21.4575 13.3332 21.4952 13.3867 21.5176C13.4401 21.54 13.499 21.546 13.5559 21.5348C13.6127 21.5237 13.665 21.4959 13.706 21.4551C13.7471 21.4142 13.7751 21.3621 13.7865 21.3053C13.7979 21.2485 13.7922 21.1896 13.7701 21.136C13.748 21.0825 13.7105 21.0367 13.6623 21.0045C13.6142 20.9723 13.5576 20.9551 13.4996 20.9551C13.4223 20.9551 13.3481 20.9857 13.2932 21.0403C13.2384 21.0949 13.2074 21.1689 13.207 21.2463Z" fill="#00CDB4"/>
<path d="M16.6152 20.8863C16.6152 20.9442 16.6324 21.0008 16.6645 21.0489C16.6967 21.097 16.7424 21.1345 16.7959 21.1567C16.8493 21.1788 16.9082 21.1846 16.9649 21.1733C17.0217 21.162 17.0738 21.1342 17.1147 21.0932C17.1557 21.0523 17.1835 21.0002 17.1948 20.9434C17.2061 20.8867 17.2003 20.8278 17.1782 20.7744C17.156 20.7209 17.1185 20.6752 17.0704 20.6431C17.0223 20.6109 16.9657 20.5938 16.9078 20.5938C16.8302 20.5938 16.7558 20.6246 16.7009 20.6794C16.6461 20.7343 16.6152 20.8087 16.6152 20.8863Z" fill="#00CDB4"/>
<path d="M11.4671 29.5665C12.2427 31.5937 17.8119 30.2357 18.4881 29.4937C19.1643 28.7517 17.7685 25.7417 17.7685 25.7417C16.2363 26.412 14.5328 26.5863 12.8965 26.2401L12.8139 26.2219C12.7411 26.2065 12.6739 26.1883 12.5927 26.1701C12.5927 26.1701 12.5535 26.2149 12.4877 26.2961C12.4709 26.3171 12.4527 26.3395 12.4331 26.3661C12.0257 26.8883 11.0107 28.3681 11.4671 29.5665Z" fill="black"/>
<path d="M16.2013 27.5405C16.0389 29.3988 15.8769 31.2561 15.7155 33.1125C15.6707 33.6436 15.624 34.1732 15.5755 34.7015C15.5755 34.7477 15.4999 34.7477 15.5041 34.7015C15.6655 32.8442 15.827 30.9868 15.9885 29.1295C16.0351 28.5984 16.0818 28.0688 16.1285 27.5405C16.1285 27.4943 16.2041 27.4943 16.2013 27.5405Z" fill="#00CDB4"/>
<path d="M16.0242 28.7989C15.8184 28.8941 15.649 28.7205 15.5916 28.5329C15.511 28.2184 15.4943 27.8908 15.5426 27.5697C15.5426 27.5249 15.6196 27.5249 15.614 27.5697C15.5853 27.7984 15.5853 28.0298 15.614 28.2585C15.6364 28.4321 15.7092 28.8661 15.9892 28.7359C16.0312 28.7177 16.0676 28.7793 16.0256 28.7989H16.0242Z" fill="#00CDB4"/>
<path d="M12.4336 26.3646C13.7549 26.7928 15.175 26.8099 16.5062 26.4136C16.9323 26.2851 17.3446 26.1144 17.7368 25.904C17.7844 25.8788 17.7368 25.8074 17.6906 25.834C16.2115 26.6146 14.4952 26.8182 12.8746 26.4052L12.799 26.3856C12.694 26.3576 12.5918 26.3268 12.4882 26.2946C12.4714 26.3156 12.4532 26.338 12.4336 26.3646Z" fill="#00CDB4"/>
<path d="M17.0333 25.4953C17.1304 25.6679 17.1918 25.8584 17.2139 26.0553C17.2139 26.1085 17.3035 26.1043 17.2979 26.0553C17.275 25.843 17.2087 25.6376 17.1033 25.4519C17.0767 25.4043 17.0067 25.4519 17.0333 25.4981V25.4953Z" fill="#00CDB4"/>
<path d="M12.9677 25.627C12.8718 25.87 12.8142 26.1265 12.7969 26.3872C12.7969 26.4418 12.8781 26.4362 12.8823 26.3872C12.8986 26.1396 12.9543 25.8962 13.0475 25.6662C13.0671 25.6158 12.9929 25.5766 12.9719 25.627H12.9677Z" fill="#00CDB4"/>
<path d="M14.5067 25.8748C14.4394 26.105 14.4171 26.346 14.4409 26.5846C14.4409 26.6392 14.5305 26.635 14.5249 26.5846C14.502 26.3535 14.5239 26.1201 14.5893 25.8972C14.6033 25.844 14.5207 25.8272 14.5067 25.879V25.8748Z" fill="#00CDB4"/>
<path d="M15.8676 26.0662C15.8701 26.1073 15.8848 26.1467 15.9097 26.1795C15.9346 26.2123 15.9686 26.237 16.0075 26.2504C16.0464 26.2639 16.0884 26.2656 16.1283 26.2552C16.1681 26.2449 16.204 26.2229 16.2314 26.1922C16.2588 26.1615 16.2765 26.1234 16.2823 26.0826C16.2881 26.0418 16.2817 26.0003 16.2639 25.9632C16.2461 25.926 16.2177 25.895 16.1823 25.874C16.1469 25.853 16.1061 25.8429 16.065 25.845C16.0375 25.8464 16.0105 25.8533 15.9856 25.8652C15.9608 25.8771 15.9385 25.8939 15.9202 25.9144C15.9018 25.935 15.8877 25.959 15.8787 25.9851C15.8697 26.0111 15.8659 26.0387 15.8676 26.0662Z" fill="#00CDB4"/>
<path d="M13.0312 27.0772C12.7988 27.7604 12.4138 28.6256 11.5682 28.641C11.5136 28.641 11.5192 28.7264 11.5682 28.725C12.4558 28.7082 12.8646 27.815 13.1082 27.0954C13.1264 27.0436 13.0424 27.0268 13.0256 27.0772H13.0312Z" fill="#00CDB4"/>
<path d="M17.2256 26.845C17.3503 27.0874 17.5229 27.302 17.733 27.4757C17.9431 27.6495 18.1863 27.7788 18.4478 27.8558C18.4996 27.8712 18.5178 27.7886 18.466 27.7732C18.2148 27.6977 17.9816 27.5719 17.7806 27.4034C17.5797 27.235 17.4151 27.0273 17.297 26.7932C17.2718 26.7456 17.2018 26.7932 17.2256 26.8394V26.845Z" fill="#00CDB4"/>
<path d="M9.84766 56.0976H10.6317L10.7997 55.6636C10.7997 55.6636 11.4507 56.0556 11.8987 56.0976C12.3467 56.1396 13.4527 56.1116 13.4527 56.1116C13.4988 56.0057 13.5326 55.8949 13.5535 55.7812C13.5857 55.5992 13.5787 55.392 13.4135 55.2982C13.0901 55.112 12.1773 54.755 11.8903 54.482C11.6033 54.209 11.5543 53.3998 11.5543 53.3998C11.5543 53.3998 11.8637 52.2798 11.7573 52.1874C11.4871 51.9396 10.9733 52.8342 10.8725 52.8342C10.7717 52.8342 10.8515 52.375 10.5141 52.375C10.1767 52.375 10.2761 53.075 10.2131 53.4782C10.1767 53.712 10.0591 54.559 9.96666 55.2268C9.90086 55.7084 9.84766 56.0976 9.84766 56.0976Z" fill="#00CDB4"/>
<path d="M11.5843 53.6949C11.5304 53.6783 11.4738 53.6728 11.4178 53.6785C11.3617 53.6843 11.3074 53.7013 11.2581 53.7285C11.1951 53.7621 11.1377 53.6655 11.2021 53.6319C11.2641 53.5971 11.3326 53.5753 11.4033 53.5676C11.474 53.5599 11.5456 53.5665 11.6137 53.5871C11.6823 53.6081 11.6529 53.7159 11.5843 53.6949Z" fill="white"/>
<path d="M11.614 53.9728C11.5589 53.9564 11.501 53.9516 11.4439 53.9586C11.3869 53.9656 11.3318 53.9842 11.2822 54.0134C11.2178 54.0484 11.1618 53.9518 11.2248 53.9168C11.2877 53.8802 11.3573 53.8567 11.4295 53.8478C11.5017 53.8389 11.575 53.8447 11.6448 53.865C11.6591 53.869 11.6712 53.8786 11.6784 53.8916C11.6857 53.9046 11.6874 53.92 11.6833 53.9343C11.6793 53.9486 11.6697 53.9606 11.6567 53.9679C11.6437 53.9751 11.6283 53.9768 11.614 53.9728Z" fill="white"/>
<path d="M11.6846 54.2469C11.6236 54.2253 11.5587 54.217 11.4942 54.2226C11.4297 54.2281 11.3672 54.2474 11.3108 54.2791C11.2478 54.3127 11.1904 54.2161 11.2548 54.1825C11.3239 54.1431 11.4005 54.1189 11.4797 54.1114C11.5589 54.1039 11.6388 54.1134 11.714 54.1391C11.7812 54.1629 11.7532 54.2707 11.6846 54.2469Z" fill="white"/>
<path d="M9.84766 56.0979H10.6317L10.7997 55.6639C10.7997 55.6639 11.4507 56.0559 11.8987 56.0979C12.3467 56.1399 13.4527 56.1118 13.4527 56.1118C13.4988 56.0059 13.5326 55.8951 13.5535 55.7814C13.0383 55.8248 12.0891 55.8809 11.7083 55.7479C11.3597 55.619 11.0301 55.4439 10.7283 55.2271H9.96806C9.90086 55.7087 9.84766 56.0979 9.84766 56.0979Z" fill="black"/>
<path d="M10.1587 54.1141C10.3516 54.2543 10.5069 54.4397 10.6112 54.654C10.7154 54.8684 10.7653 55.1051 10.7565 55.3433C10.7565 55.3783 10.6991 55.3783 10.7005 55.3433C10.7093 55.1148 10.6619 54.8876 10.5626 54.6817C10.4633 54.4757 10.315 54.2972 10.1307 54.1617C10.1027 54.1407 10.1307 54.0931 10.1587 54.1141Z" fill="black"/>
<path d="M16.0684 56.0976H16.8524L17.0204 55.6636C17.0204 55.6636 17.6714 56.0556 18.1194 56.0976C18.5674 56.1396 19.6734 56.1116 19.6734 56.1116C19.7187 56.0054 19.7525 55.8947 19.7742 55.7812C19.8064 55.5992 19.7994 55.392 19.6342 55.2982C19.3094 55.112 18.398 54.755 18.111 54.482C17.824 54.209 17.775 53.3998 17.775 53.3998C17.775 53.3998 18.0844 52.2798 17.978 52.1874C17.7078 51.9396 17.1926 52.8342 17.0932 52.8342C16.9938 52.8342 17.0722 52.375 16.7348 52.375C16.3974 52.375 16.4954 53.075 16.4338 53.4782C16.3974 53.712 16.2798 54.559 16.1874 55.2268C16.1286 55.7084 16.0684 56.0976 16.0684 56.0976Z" fill="#00CDB4"/>
<path d="M17.8069 53.695C17.7531 53.6784 17.6964 53.6729 17.6404 53.6786C17.5844 53.6844 17.5301 53.7014 17.4807 53.7286C17.4177 53.7622 17.3603 53.6656 17.4247 53.632C17.4868 53.5972 17.5552 53.5753 17.6259 53.5676C17.6967 53.5599 17.7682 53.5665 17.8363 53.5872C17.9049 53.6082 17.8755 53.716 17.8069 53.695Z" fill="white"/>
<path d="M17.8353 53.9728C17.7799 53.9562 17.7218 53.9513 17.6645 53.9583C17.6071 53.9653 17.5519 53.984 17.5021 54.0134C17.4894 54.0195 17.4748 54.0205 17.4614 54.0164C17.4479 54.0122 17.4365 54.0031 17.4294 53.991C17.4224 53.9788 17.4201 53.9643 17.4232 53.9506C17.4263 53.9368 17.4345 53.9248 17.4461 53.9168C17.509 53.8802 17.5786 53.8567 17.6508 53.8478C17.723 53.8389 17.7962 53.8447 17.8661 53.865C17.8804 53.869 17.8925 53.8786 17.8997 53.8916C17.9069 53.9046 17.9087 53.92 17.9046 53.9343C17.9005 53.9486 17.8909 53.9606 17.8779 53.9679C17.8649 53.9751 17.8496 53.9768 17.8353 53.9728Z" fill="white"/>
<path d="M17.9073 54.2469C17.8463 54.2253 17.7813 54.217 17.7169 54.2226C17.6524 54.2281 17.5899 54.2474 17.5335 54.2791C17.4705 54.3127 17.4131 54.2161 17.4775 54.1825C17.5465 54.1431 17.6232 54.1189 17.7024 54.1114C17.7816 54.1039 17.8614 54.1134 17.9367 54.1391C18.0039 54.1629 17.9759 54.2707 17.9073 54.2469Z" fill="white"/>
<path d="M16.0684 56.0979H16.8524L17.0204 55.6639C17.0204 55.6639 17.6714 56.0559 18.1194 56.0979C18.5674 56.1399 19.6734 56.1118 19.6734 56.1118C19.7187 56.0057 19.7525 55.8949 19.7742 55.7814C19.259 55.8248 18.3098 55.8809 17.929 55.7479C17.5804 55.619 17.2508 55.4439 16.949 55.2271H16.1916C16.1286 55.7087 16.0684 56.0979 16.0684 56.0979Z" fill="black"/>
<path d="M16.3814 54.1141C16.5742 54.2543 16.7296 54.4397 16.8338 54.654C16.9381 54.8684 16.988 55.1051 16.9792 55.3433C16.9792 55.3783 16.9218 55.3783 16.9232 55.3433C16.9319 55.1148 16.8846 54.8876 16.7853 54.6817C16.6859 54.4757 16.5377 54.2972 16.3534 54.1617C16.3254 54.1407 16.3534 54.0931 16.3814 54.1141Z" fill="black"/>
<path d="M13.584 17.9869C13.9408 18.2058 14.2802 18.452 14.599 18.7233C14.7028 18.8129 14.8165 18.8904 14.9378 18.9543C15.264 19.1279 15.5608 19.2259 15.6378 19.0691C15.6563 19.0342 15.6704 18.997 15.6798 18.9585C15.7129 18.828 15.7077 18.6907 15.6647 18.5631C15.6218 18.4354 15.5429 18.3229 15.4376 18.2389C15.3338 18.1582 15.2556 18.0491 15.2126 17.9249C15.1696 17.8006 15.1636 17.6665 15.1954 17.5389C15.2239 17.3854 15.271 17.236 15.3354 17.0937L15.1478 16.8781L14.1594 15.8813C14.1846 16.5463 14.1034 17.6257 13.584 17.9869Z" fill="#FF8B7B"/>
<g opacity="0.2">
<path d="M15.1982 17.5434C15.2268 17.3899 15.2738 17.2404 15.3382 17.0982L15.1478 16.8784L14.6074 16.9526C14.7331 17.2098 14.941 17.4177 15.1982 17.5434Z" fill="black"/>
</g>
<path d="M13.8663 14.7264C13.9055 15.8198 13.8985 16.2832 14.4263 16.8572C15.2201 17.7196 16.5263 17.4298 16.8063 16.3476C17.0611 15.3676 16.9547 13.7492 15.9173 13.2886C14.8799 12.828 13.8271 13.633 13.8663 14.7264Z" fill="#FF8B7B"/>
<path d="M16.8547 14.6601C16.8547 14.6601 17.5253 13.8285 16.1883 13.2013C16.1883 13.2013 15.1635 12.3739 14.0799 13.1033C12.9963 13.8327 13.0663 15.2551 14.0939 16.3807C14.0939 16.3807 13.8965 15.3027 14.2773 14.9681C14.6581 14.6335 15.0767 14.3353 14.8737 14.0105C14.9617 14.0453 15.0391 14.1023 15.0985 14.1759C15.1579 14.2495 15.1972 14.3372 15.2125 14.4305L15.7725 14.2793C15.7474 14.1247 15.6886 13.9775 15.6003 13.8481C15.7656 13.9483 15.8984 14.0942 15.9825 14.2681L16.4641 14.3591C16.4641 14.3591 16.3927 13.9181 16.2569 13.7599C16.2527 13.7613 16.7931 14.1771 16.8547 14.6601Z" fill="black"/>
<path d="M16.3259 16.1331C16.3259 16.1331 15.7659 15.9553 15.6259 15.7383C15.6259 15.7383 15.5951 16.1583 15.8891 16.2787C15.9668 16.3142 16.0551 16.319 16.1362 16.292C16.2173 16.2649 16.2851 16.2082 16.3259 16.1331Z" fill="white"/>
<path d="M15.7695 14.9927C15.7695 15.0809 15.8129 15.1551 15.8703 15.1565C15.9277 15.1579 15.9767 15.0865 15.9795 14.9969C15.9823 14.9073 15.9361 14.8359 15.8787 14.8345C15.8213 14.8331 15.7709 14.9031 15.7695 14.9927Z" fill="black"/>
<path d="M16.6621 15.0386C16.6621 15.1268 16.7055 15.1996 16.7643 15.201C16.8231 15.2024 16.8707 15.1324 16.8735 15.0428C16.8763 14.9532 16.8301 14.8818 16.7713 14.8804C16.7125 14.879 16.6649 14.949 16.6621 15.0386Z" fill="black"/>
<path d="M16.7461 14.8845L16.9603 14.8271C16.9603 14.8271 16.8469 14.9923 16.7461 14.8845Z" fill="black"/>
<path d="M16.2813 15.064C16.2813 15.064 16.4283 15.3034 16.5893 15.512C16.6006 15.5281 16.6083 15.5464 16.612 15.5657C16.6157 15.5851 16.6153 15.6049 16.6108 15.6241C16.6064 15.6432 16.5979 15.6612 16.586 15.6769C16.5741 15.6926 16.559 15.7055 16.5417 15.715C16.452 15.7546 16.3581 15.7837 16.2617 15.8018L16.2813 15.064Z" fill="#FF5652"/>
<path d="M13.4577 15.4712C13.4955 15.5633 13.5525 15.6463 13.625 15.7146C13.6974 15.7829 13.7836 15.835 13.8777 15.8674C14.1185 15.9416 14.2459 15.6784 14.1843 15.4068C14.1283 15.1618 13.9365 14.8286 13.6915 14.8762C13.4465 14.9238 13.3513 15.2304 13.4563 15.4712" fill="#FF8B7B"/>
<path d="M14.243 15.6445C14.2439 15.6557 14.2439 15.6669 14.243 15.6781C14.3646 15.7127 14.4701 15.7889 14.541 15.8935C14.612 15.9981 14.6438 16.1244 14.6309 16.2501C14.618 16.3758 14.5612 16.493 14.4706 16.581C14.3799 16.6691 14.2611 16.7223 14.135 16.7315C14.0089 16.7406 13.8837 16.7051 13.7812 16.631C13.6788 16.557 13.6057 16.4492 13.5748 16.3267C13.5439 16.2041 13.5572 16.0746 13.6123 15.9609C13.6674 15.8471 13.7608 15.7564 13.8762 15.7047C13.8716 15.6943 13.8679 15.6835 13.865 15.6725C13.7415 15.727 13.6412 15.8233 13.5819 15.9445C13.5225 16.0656 13.5078 16.2039 13.5404 16.3348C13.573 16.4658 13.6508 16.581 13.7601 16.6602C13.8694 16.7393 14.0031 16.7773 14.1377 16.7675C14.2723 16.7577 14.3991 16.7007 14.4957 16.6065C14.5924 16.5123 14.6526 16.387 14.6659 16.2527C14.6791 16.1184 14.6445 15.9837 14.5682 15.8725C14.4918 15.7612 14.3786 15.6805 14.2486 15.6445H14.243Z" fill="white"/>
<path d="M15.4882 14.7932C15.5021 14.789 15.5136 14.7794 15.5204 14.7666C15.549 14.7076 15.591 14.6561 15.643 14.6163C15.695 14.5764 15.7556 14.5492 15.82 14.537C15.8268 14.5363 15.8334 14.5342 15.8394 14.5309C15.8454 14.5276 15.8507 14.5232 15.855 14.5179C15.8593 14.5125 15.8625 14.5064 15.8644 14.4999C15.8664 14.4933 15.867 14.4864 15.8662 14.4796C15.8655 14.4728 15.8634 14.4662 15.8601 14.4602C15.8569 14.4542 15.8524 14.4489 15.8471 14.4446C15.8418 14.4403 15.8356 14.4371 15.8291 14.4352C15.8225 14.4333 15.8156 14.4327 15.8088 14.4334C15.7277 14.4464 15.6508 14.4786 15.5845 14.5273C15.5183 14.576 15.4646 14.6398 15.428 14.7134C15.4232 14.7224 15.4211 14.7326 15.4221 14.7428C15.4231 14.753 15.427 14.7626 15.4334 14.7705C15.4399 14.7785 15.4485 14.7843 15.4583 14.7873C15.468 14.7904 15.4784 14.7905 15.4882 14.7876" fill="black"/>
<path d="M16.9791 14.6606C16.9922 14.6596 17.0045 14.6542 17.0141 14.6452C17.0191 14.6404 17.023 14.6346 17.0257 14.6282C17.0284 14.6219 17.0298 14.615 17.0298 14.6081C17.0298 14.6012 17.0284 14.5943 17.0257 14.588C17.023 14.5816 17.0191 14.5758 17.0141 14.571C16.9563 14.5115 16.8851 14.4665 16.8065 14.44C16.7278 14.4135 16.644 14.4061 16.5619 14.4184C16.5485 14.4217 16.5368 14.4302 16.5295 14.4419C16.5222 14.4537 16.5198 14.4679 16.5227 14.4814C16.524 14.4881 16.5267 14.4945 16.5305 14.5001C16.5344 14.5057 16.5393 14.5105 16.5451 14.5142C16.5509 14.5179 16.5573 14.5203 16.5641 14.5214C16.5708 14.5225 16.5777 14.5222 16.5843 14.5206C16.6494 14.512 16.7156 14.5188 16.7776 14.5404C16.8396 14.5621 16.8957 14.598 16.9413 14.6452C16.9514 14.655 16.965 14.6605 16.9791 14.6606Z" fill="black"/>
<path d="M15.8496 14.8382L16.0652 14.7822C16.0652 14.7822 15.9518 14.946 15.8496 14.8382Z" fill="black"/>
<path d="M14.1181 15.1761C13.5721 14.3935 13.8675 13.0159 13.8801 12.9585L13.9487 12.9725C13.9487 12.9865 13.6477 14.3725 14.1755 15.1355L14.1181 15.1761Z" fill="#00CDB4"/>
<path d="M12.1374 25.7398C12.1374 25.7398 13.0026 26.2242 13.1174 26.4244C13.2322 26.6246 12.1696 27.501 11.7972 27.5892C11.4248 27.6774 11.6712 27.2826 11.6712 27.2826C11.6712 27.2826 11.2022 27.3176 11.0454 26.941C10.8886 26.5644 11.2834 25.6642 12.1374 25.7398Z" fill="#FF8B7B"/>
<path d="M62.2505 23.7338C62.2442 23.9356 62.3004 24.1344 62.4114 24.303C62.5224 24.4717 62.6828 24.6019 62.8707 24.676L63.0989 24.2868C62.9386 24.1942 62.8057 24.0609 62.7137 23.9003C62.6218 23.7397 62.574 23.5576 62.5753 23.3726L62.2505 23.7338Z" fill="#00CDB4"/>
<g opacity="0.3">
<path d="M62.2524 23.7342C62.2462 23.9361 62.3024 24.1349 62.4134 24.3035C62.5244 24.4722 62.6848 24.6024 62.8726 24.6764L63.1008 24.2872C62.9406 24.1947 62.8077 24.0614 62.7157 23.9008C62.6237 23.7402 62.5759 23.5581 62.5772 23.373L62.2524 23.7342Z" fill="white"/>
</g>
<path d="M21.9231 10.2705C21.9044 10.4715 21.8239 10.6619 21.6929 10.8155C21.5618 10.9691 21.3865 11.0785 21.1909 11.1287L21.0117 10.7087C21.1818 10.6368 21.3299 10.5212 21.441 10.3737C21.5522 10.2262 21.6223 10.052 21.6445 9.86865L21.9231 10.2705Z" fill="#00CDB4"/>
<g opacity="0.3">
<path d="M21.9231 10.27C21.9044 10.471 21.8239 10.6614 21.6929 10.815C21.5618 10.9686 21.3865 11.078 21.1909 11.1282L21.0117 10.7082C21.1818 10.6363 21.3299 10.5207 21.441 10.3732C21.5522 10.2257 21.6223 10.0515 21.6445 9.86816L21.9231 10.27Z" fill="white"/>
</g>
<path d="M31.0567 23.7745C31.046 23.9766 30.9729 24.1705 30.8476 24.3294C30.7222 24.4883 30.5508 24.6046 30.3567 24.6621L30.1621 24.2533C30.3296 24.1747 30.4732 24.0531 30.5782 23.9009C30.6832 23.7486 30.7459 23.5712 30.7599 23.3867L31.0567 23.7745Z" fill="#00CDB4"/>
<g opacity="0.5">
<path d="M31.0528 23.7745C31.0421 23.9766 30.969 24.1705 30.8437 24.3294C30.7183 24.4883 30.5469 24.6046 30.3528 24.6621L30.1582 24.2533C30.3257 24.1747 30.4693 24.0531 30.5743 23.9009C30.6793 23.7486 30.742 23.5712 30.756 23.3867L31.0528 23.7745Z" fill="white"/>
</g>
<path d="M48.7291 14.2094C48.7774 14.4056 48.7639 14.6119 48.6905 14.8001C48.6171 14.9883 48.4873 15.1492 48.3189 15.2608L48.0137 14.9262C48.1511 14.8025 48.2532 14.6445 48.3098 14.4684C48.3664 14.2924 48.3753 14.1045 48.3357 13.9238L48.7291 14.2094Z" fill="#00CDB4"/>
<g opacity="0.5">
<path d="M48.7291 14.2094C48.7774 14.4056 48.7639 14.6119 48.6905 14.8001C48.6171 14.9883 48.4873 15.1492 48.3189 15.2608L48.0137 14.9262C48.1511 14.8025 48.2532 14.6445 48.3098 14.4684C48.3664 14.2924 48.3753 14.1045 48.3357 13.9238L48.7291 14.2094Z" fill="white"/>
</g>
<path d="M5.02148 29.6135C5.0486 29.8138 5.13702 30.0009 5.27462 30.149C5.41222 30.2971 5.59227 30.3991 5.79008 30.4409L5.94968 30.0209C5.77623 29.9563 5.62302 29.8468 5.50569 29.7037C5.38837 29.5605 5.31114 29.3888 5.28188 29.2061L5.02148 29.6135Z" fill="#00CDB4"/>
<g opacity="0.8">
<path d="M5.02148 29.6144C5.0486 29.8148 5.13702 30.0018 5.27462 30.15C5.41222 30.2981 5.59227 30.4 5.79008 30.4418L5.94968 30.0218C5.77623 29.9573 5.62302 29.8478 5.50569 29.7047C5.38837 29.5615 5.31114 29.3898 5.28188 29.207L5.02148 29.6144Z" fill="white"/>
</g>
<path d="M31.2207 8.96404C31.2478 9.16439 31.3362 9.35145 31.4738 9.49958C31.6114 9.64771 31.7915 9.74965 31.9893 9.79144L32.1489 9.37144C31.9756 9.30692 31.8225 9.19745 31.7054 9.05427C31.5883 8.91109 31.5114 8.73935 31.4825 8.55664L31.2207 8.96404Z" fill="#00CDB4"/>
<g opacity="0.8">
<path d="M31.2207 8.96355C31.2478 9.1639 31.3362 9.35096 31.4738 9.49909C31.6114 9.64722 31.7915 9.74917 31.9893 9.79095L32.1489 9.37095C31.9756 9.30643 31.8225 9.19697 31.7054 9.05379C31.5883 8.9106 31.5114 8.73886 31.4825 8.55615L31.2207 8.96355Z" fill="white"/>
</g>
<path d="M61.7292 6.92404C61.6576 7.1131 61.5293 7.27539 61.3619 7.38867C61.1945 7.50196 60.9961 7.5607 60.794 7.55684L60.7324 7.10884C60.917 7.08579 61.0921 7.01397 61.2398 6.90078C61.3874 6.7876 61.5022 6.63712 61.5724 6.46484L61.7292 6.92404Z" fill="#00CDB4"/>
<g opacity="0.8">
<path d="M61.7292 6.92404C61.6576 7.1131 61.5293 7.27539 61.3619 7.38867C61.1945 7.50196 60.9961 7.5607 60.794 7.55684L60.7324 7.10884C60.917 7.08579 61.0921 7.01397 61.2398 6.90078C61.3874 6.7876 61.5022 6.63712 61.5724 6.46484L61.7292 6.92404Z" fill="white"/>
</g>
<path d="M20.7328 28.6197C20.7472 28.8214 20.6989 29.0228 20.5944 29.196C20.4898 29.3692 20.3343 29.5058 20.149 29.5871L19.9082 29.2063C20.0643 29.1072 20.1914 28.9687 20.2768 28.8047C20.3621 28.6407 20.4025 28.4571 20.394 28.2725L20.7328 28.6197Z" fill="#00CDB4"/>
<g opacity="0.8">
<path d="M20.7328 28.6197C20.7472 28.8214 20.6989 29.0228 20.5944 29.196C20.4898 29.3692 20.3343 29.5058 20.149 29.5871L19.9082 29.2063C20.0643 29.1072 20.1914 28.9687 20.2768 28.8047C20.3621 28.6407 20.4025 28.4571 20.394 28.2725L20.7328 28.6197Z" fill="white"/>
</g>
</svg>
