<svg width="446" height="354" viewBox="0 0 446 354" fill="none" xmlns="http://www.w3.org/2000/svg">
<path d="M437.848 68.8378L430.879 102.587L426.394 98.2106L418.763 103.657L412.931 96.4121L399.854 105.922L388.677 87.2304L376.211 94.5336L371.267 87.7183L355.438 96.6379L350.676 86.4367L361.772 32.6934L421.261 44.9769L437.848 68.8378Z" fill="#EBEBEB"/>
<path d="M421.261 44.9766L437.848 68.8374L417.213 64.5779L421.261 44.9766Z" fill="#DBDBDB"/>
<path d="M429.393 109.329L419.178 158.842L339.047 142.299L349.19 93.1865L353.952 103.38L369.789 94.4608L374.725 101.276L387.198 93.9802L398.368 112.671L411.452 103.162L417.277 110.4L424.915 104.96L429.393 109.329Z" fill="#EBEBEB"/>
<path d="M314.706 103.526L233.046 108.579L226.559 3.75716L287.197 0L309.456 18.6766L314.706 103.526Z" fill="#EBEBEB"/>
<path d="M287.197 0L309.456 18.6766L288.428 19.9799L287.197 0Z" fill="#DBDBDB"/>
<path d="M264.588 70.5338L264.268 68.1673C263.445 63.267 264.785 57.7842 269.044 52.0538C272.889 46.9569 274.971 43.3162 274.738 39.1804C274.476 34.5204 271.382 31.5787 265.622 31.8117C262.331 31.9827 259.169 33.1509 256.557 35.1611L254.045 29.5327C256.957 27.1662 262.054 25.4187 266.896 25.1639C277.403 24.5814 282.515 30.7996 282.915 37.7387C283.265 43.9497 280.047 48.617 275.954 54.0707C272.197 59.0438 270.967 63.1432 271.498 67.7814L271.724 70.1551L264.588 70.5338ZM263.292 83.429C263.103 80.0504 265.251 77.5457 268.447 77.3709C271.644 77.1962 273.974 79.4388 274.163 82.8246C274.338 86.0211 272.379 88.5987 269.001 88.788C265.775 88.9701 263.445 86.6255 263.263 83.429H263.292Z" fill="#DBDBDB"/>
<path d="M60.3335 52.7022L52.1202 48.9814L50.977 51.4935C50.8083 51.8525 50.5449 52.1587 50.2152 52.3794C49.8855 52.6 49.502 52.7267 49.1057 52.7459C48.6544 52.7607 48.2044 52.8045 47.7587 52.877C47.3674 52.9351 46.9677 52.8858 46.6022 52.7345C46.2367 52.5832 45.9192 52.3354 45.6835 52.0178L44.0744 49.7678L36.7421 55.0249L38.3512 57.2749C38.5751 57.5996 38.7068 57.9789 38.7324 58.3725C38.7581 58.766 38.6767 59.1592 38.4969 59.5102C38.2893 59.9107 38.1021 60.3214 37.9362 60.7408C37.792 61.1106 37.5497 61.4341 37.2354 61.6766C36.9211 61.9191 36.5466 62.0713 36.1523 62.1169L33.4072 62.3863L34.2883 71.3642L37.0479 71.0875C37.4436 71.0559 37.8405 71.1327 38.1959 71.3098C38.5513 71.4868 38.8517 71.7574 39.0648 72.0923C39.1813 72.2817 39.3051 72.4637 39.4362 72.6457C39.5672 72.8278 39.6983 73.0025 39.8366 73.1773C40.0879 73.483 40.2495 73.8524 40.3035 74.2444C40.3575 74.6365 40.3017 75.0358 40.1424 75.3981L38.992 77.932L47.2126 81.66L48.3558 79.1334C48.5261 78.7747 48.7911 78.4692 49.1221 78.2498C49.4531 78.0305 49.8376 77.9054 50.2343 77.8883C50.6806 77.8699 51.1255 77.8261 51.5668 77.7572C51.9581 77.6991 52.3578 77.7483 52.7233 77.8997C53.0888 78.051 53.4063 78.2987 53.642 78.6164L55.2512 80.8663L62.5907 75.6092L60.9816 73.3593C60.7509 73.0375 60.6149 72.6575 60.5892 72.2624C60.5635 71.8673 60.6489 71.4729 60.8359 71.1239C61.0388 70.7258 61.2211 70.3175 61.382 69.9007C61.5221 69.5281 61.7632 69.202 62.0783 68.9589C62.3934 68.7158 62.7701 68.5654 63.166 68.5245L65.9256 68.2478L65.0373 59.2699L62.2776 59.5394C61.8843 59.5739 61.4892 59.499 61.1358 59.323C60.7824 59.1469 60.4846 58.8766 60.2753 58.5418C60.1515 58.3525 60.0277 58.1705 59.8967 57.9884C59.7656 57.8064 59.6345 57.6244 59.4962 57.4569C59.2466 57.1474 59.0862 56.7757 59.0323 56.3818C58.9784 55.9878 59.0331 55.5867 59.1904 55.2215L60.3335 52.7022ZM55.6735 61.0102C56.525 62.1984 57.0049 63.6124 57.0527 65.0735C57.1005 66.5345 56.7139 67.9769 55.9419 69.2182C55.1699 70.4595 54.0471 71.444 52.7155 72.0471C51.3839 72.6503 49.9034 72.845 48.4612 72.6067C47.0189 72.3683 45.6797 71.7076 44.613 70.7082C43.5463 69.7087 42.7999 68.4153 42.4683 66.9916C42.1367 65.5679 42.2347 64.0779 42.75 62.7099C43.2653 61.3419 44.1747 60.1575 45.3631 59.3063C46.9564 58.1654 48.9376 57.7039 50.8711 58.0234C52.8046 58.3429 54.532 59.4173 55.6735 61.0102Z" fill="#EBEBEB"/>
<path d="M431.607 171.825L426.132 174.985L427.1 176.66C427.245 176.9 427.317 177.177 427.308 177.457C427.299 177.737 427.209 178.009 427.049 178.24C426.882 178.502 426.722 178.771 426.576 179.055C426.456 179.306 426.267 179.518 426.031 179.665C425.795 179.812 425.522 179.889 425.244 179.885H423.321V186.213H425.258C425.536 186.209 425.81 186.286 426.046 186.433C426.282 186.58 426.471 186.791 426.591 187.043C426.736 187.327 426.896 187.596 427.064 187.858C427.224 188.089 427.313 188.36 427.322 188.641C427.331 188.921 427.259 189.198 427.115 189.438L426.146 191.113L431.622 194.273L432.598 192.591C432.739 192.352 432.944 192.158 433.19 192.029C433.435 191.901 433.712 191.843 433.988 191.863H434.92C435.197 191.844 435.473 191.902 435.719 192.03C435.964 192.159 436.169 192.353 436.311 192.591L437.287 194.28L442.755 191.12L441.787 189.438C441.649 189.197 441.581 188.921 441.592 188.644C441.602 188.366 441.69 188.096 441.845 187.865C442.012 187.603 442.173 187.327 442.318 187.05C442.438 186.799 442.627 186.587 442.863 186.44C443.099 186.293 443.373 186.217 443.651 186.22H445.588V179.892H443.636C443.358 179.896 443.085 179.819 442.848 179.672C442.612 179.525 442.423 179.314 442.304 179.062C442.158 178.786 441.998 178.509 441.83 178.247C441.675 178.016 441.587 177.747 441.577 177.469C441.567 177.191 441.634 176.916 441.772 176.674L442.741 174.992L437.272 171.832L436.297 173.492C436.155 173.731 435.95 173.925 435.705 174.054C435.459 174.182 435.182 174.24 434.906 174.22H434.44H433.974C433.696 174.239 433.419 174.181 433.173 174.052C432.926 173.924 432.72 173.73 432.576 173.492L431.607 171.825ZM434.44 177.868C435.466 177.867 436.469 178.17 437.323 178.739C438.177 179.308 438.842 180.118 439.235 181.065C439.629 182.013 439.732 183.056 439.532 184.062C439.332 185.068 438.838 185.993 438.113 186.718C437.387 187.444 436.463 187.938 435.457 188.138C434.45 188.337 433.407 188.234 432.46 187.841C431.512 187.447 430.703 186.782 430.134 185.928C429.564 185.075 429.261 184.071 429.263 183.045C429.262 182.365 429.395 181.691 429.655 181.062C429.915 180.433 430.296 179.861 430.777 179.38C431.257 178.898 431.828 178.516 432.457 178.256C433.086 177.995 433.759 177.861 434.44 177.861V177.868Z" fill="#EBEBEB"/>
<path d="M76.9487 25.7977L71.9319 29.6422L73.0896 31.1786C73.2623 31.3975 73.3685 31.6614 73.3956 31.9389C73.4227 32.2164 73.3696 32.4959 73.2426 32.7441C73.1032 33.0275 72.9816 33.3193 72.8785 33.6178C72.7887 33.8808 72.6274 34.1135 72.4125 34.2897C72.1977 34.466 71.9379 34.5787 71.6625 34.6154L69.7402 34.8629L70.5557 41.1321L72.478 40.8846C72.7578 40.8456 73.043 40.8864 73.3006 41.0023C73.5582 41.1183 73.7779 41.3046 73.9343 41.5399C74.1096 41.7932 74.2992 42.0363 74.5022 42.268C74.6898 42.4743 74.8142 42.7301 74.8607 43.005C74.9072 43.28 74.8737 43.5625 74.7643 43.8189L74.0362 45.6101L79.8613 48.0348L80.5894 46.2436C80.6978 45.9867 80.8759 45.7652 81.1037 45.6043C81.3315 45.4435 81.5998 45.3496 81.8782 45.3335L82.3442 45.2825L82.8029 45.2097C83.0724 45.1589 83.3506 45.1829 83.6074 45.2792C83.8641 45.3755 84.0895 45.5403 84.2592 45.7558L85.446 47.3067L90.4629 43.4622L89.2906 41.9258C89.1213 41.7038 89.0172 41.439 88.9902 41.1612C88.9632 40.8833 89.0143 40.6034 89.1377 40.353C89.2757 40.0715 89.3972 39.7822 89.5017 39.4866C89.5915 39.2236 89.7528 38.9909 89.9677 38.8146C90.1825 38.6384 90.4423 38.5256 90.7177 38.489L92.64 38.2415L91.8245 31.9722L89.9022 32.2198C89.6231 32.2596 89.3384 32.2198 89.0809 32.1052C88.8233 31.9906 88.6032 31.8057 88.4459 31.5718C88.2639 31.3096 88.0746 31.0621 87.8707 30.8436C87.7011 30.6329 87.5913 30.3804 87.5529 30.1127C87.5144 29.8449 87.5488 29.5718 87.6523 29.3218L88.3804 27.5306L82.5554 25.106L81.8272 26.8972C81.7175 27.1531 81.5389 27.3737 81.3114 27.5344C81.0839 27.695 80.8164 27.7895 80.5384 27.8073L80.0724 27.851L79.6428 27.8656C79.3734 27.9164 79.0951 27.8923 78.8384 27.796C78.5816 27.6997 78.3562 27.5349 78.1866 27.3195L76.9487 25.7977ZM80.5384 31.4261C81.5527 31.2958 82.5829 31.4687 83.499 31.9231C84.4151 32.3775 85.1761 33.0931 85.686 33.9795C86.1959 34.8659 86.4319 35.8835 86.3641 36.9039C86.2964 37.9242 85.928 38.9017 85.3053 39.7129C84.6827 40.5241 83.8338 41.1328 82.8657 41.4621C81.8975 41.7914 80.8535 41.8267 79.8654 41.5633C78.8773 41.3 77.9892 40.7499 77.3134 39.9825C76.6375 39.2151 76.2041 38.2647 76.0677 37.2512C75.9767 36.5749 76.0203 35.8872 76.1961 35.2278C76.3718 34.5684 76.6761 33.9502 77.0916 33.4089C77.5071 32.8675 78.0255 32.4137 78.6171 32.0734C79.2086 31.7331 79.8616 31.5131 80.5384 31.4261Z" fill="#EBEBEB"/>
<path d="M39.4644 190.079C39.738 183.04 39.6407 175.992 39.1732 168.963C38.1313 154.45 35.9179 140.044 32.5544 125.887C30.705 117.921 28.4332 110.086 26.0595 102.259C25.9867 102.019 25.6081 102.084 25.6736 102.332C33.0059 129.928 39.0203 158.398 38.6052 187.086C38.4887 195.096 37.5567 202.996 36.7995 210.976C36.7995 211.188 37.1271 211.275 37.1781 211.056C38.6853 204.205 39.1804 197.054 39.4644 190.079Z" fill="#EBEBEB"/>
<path d="M25.6742 102.31C25.6742 102.31 14.5775 130.488 17.0604 137.085C19.5433 143.682 24.6694 145.095 24.6694 145.095C24.6694 145.095 17.8759 154.793 22.6233 163.888C27.3708 172.982 37.9141 172.552 38.6422 182.863C38.6204 182.914 39.2029 139.801 25.6742 102.31Z" fill="#EBEBEB"/>
<path d="M37.4118 165.111C37.4298 165.064 37.4298 165.012 37.4118 164.965C35.9554 145.727 32.3456 126.713 26.6501 108.28C26.6501 108.229 26.5408 108.244 26.5554 108.28C28.7544 116.532 30.696 124.818 32.3805 133.138C30.8886 131.725 29.0661 130.709 27.0797 130.182C27.0797 130.182 27.0214 130.226 27.0797 130.241C29.1664 131.005 31.0427 132.253 32.5552 133.881C32.8756 135.519 33.196 137.15 33.4945 138.789C31.0116 136.015 27.5748 134.638 24.1307 133.328C24.1229 133.331 24.1163 133.337 24.1116 133.344C24.107 133.351 24.1045 133.359 24.1045 133.368C24.1045 133.376 24.107 133.385 24.1116 133.392C24.1163 133.399 24.1229 133.404 24.1307 133.408C27.7204 134.864 31.2883 136.743 33.7202 139.837C34.5648 144.512 35.3075 149.203 35.9483 153.912C34.1555 152.034 31.8564 150.716 29.3296 150.118C29.2495 150.118 29.2058 150.213 29.2859 150.235C31.8815 150.999 34.1988 152.502 35.9556 154.56H35.9993C36.2177 156.211 36.4264 157.868 36.6255 159.533C35.2386 158.36 33.6727 157.416 31.9873 156.737C31.9436 156.737 31.9145 156.788 31.9873 156.803C33.7072 157.548 35.2823 158.59 36.64 159.883C36.64 159.883 36.6764 159.883 36.6983 159.883C36.8803 161.463 37.0623 163.043 37.2225 164.623C34.7222 161.6 31.4773 159.281 27.8078 157.895C27.7923 157.895 27.7775 157.901 27.7666 157.912C27.7557 157.923 27.7495 157.938 27.7495 157.953C27.7495 157.969 27.7557 157.983 27.7666 157.994C27.7775 158.005 27.7923 158.011 27.8078 158.011C31.4313 159.609 34.6141 162.059 37.0842 165.154C37.1114 165.188 37.1481 165.213 37.1896 165.226C37.2311 165.239 37.2755 165.24 37.3172 165.227C37.5575 167.652 37.7759 170.077 37.9507 172.509C37.9507 172.545 38.0089 172.545 38.0089 172.509C37.8196 170.067 37.6206 167.601 37.4118 165.111Z" fill="white"/>
<path d="M28.4917 127.409C26.482 126.158 24.1863 125.441 21.822 125.326C21.8104 125.326 21.7993 125.331 21.7911 125.339C21.7829 125.347 21.7783 125.358 21.7783 125.37C21.7783 125.381 21.7829 125.393 21.7911 125.401C21.7993 125.409 21.8104 125.414 21.822 125.414C24.1078 125.847 26.3261 126.582 28.4189 127.598C28.5063 127.62 28.5718 127.467 28.4917 127.409Z" fill="white"/>
<path d="M29.8392 157.24C28.2946 156.354 26.5938 155.773 24.8297 155.529C24.7714 155.529 24.7641 155.609 24.8297 155.624C26.5524 155.969 28.2188 156.553 29.781 157.357C29.8465 157.393 29.9047 157.277 29.8392 157.24Z" fill="white"/>
<path d="M68.6482 137.573C63.9538 140.818 59.6424 144.585 55.7967 148.801C51.8305 153.265 48.7713 158.458 46.7897 164.092C42.5722 175.828 40.3045 188.175 40.0763 200.644C39.9349 207.549 40.597 214.447 42.0495 221.199C42.0613 221.248 42.0915 221.291 42.1339 221.318C42.1763 221.345 42.2276 221.356 42.2772 221.346C42.3268 221.337 42.3708 221.309 42.4003 221.268C42.4298 221.227 42.4424 221.176 42.4354 221.126C40.628 209.211 40.6968 197.087 42.6393 185.193C44.547 173.543 47.5396 160.859 54.952 151.386C58.9859 146.223 64.0173 142.167 68.9904 137.973C69.2525 137.74 68.9176 137.384 68.6482 137.573Z" fill="#EBEBEB"/>
<path d="M41.707 192.242C44.3791 187.92 47.5193 183.905 51.0708 180.271C56.6264 174.716 61.3011 170.769 62.0292 167.099C62.7573 163.43 56.4663 160.721 56.4663 160.721C56.4663 160.721 64.148 162.104 66.2523 158.879C68.3566 155.653 69.3687 136.969 69.3687 136.969C69.3687 136.969 55.3886 146.952 48.8718 160.947C42.3551 174.941 41.707 192.242 41.707 192.242Z" fill="#EBEBEB"/>
<path d="M64.3519 154.495C63.4313 154.358 62.4982 154.326 61.5704 154.4C61.4612 154.4 61.4685 154.59 61.5704 154.597C62.4879 154.597 63.4126 154.553 64.33 154.597C64.3405 154.594 64.3501 154.589 64.3576 154.581C64.3651 154.573 64.3702 154.563 64.3725 154.553C64.3748 154.542 64.374 154.531 64.3704 154.521C64.3668 154.511 64.3603 154.502 64.3519 154.495Z" fill="white"/>
<path d="M54.3115 172.618C52.8353 172.648 51.3759 172.939 50.001 173.477C50.001 173.477 50.001 173.55 50.001 173.543C51.4572 173.201 52.8625 173.062 54.3042 172.815C54.3231 172.807 54.3392 172.793 54.3507 172.776C54.3623 172.759 54.3688 172.739 54.3696 172.719C54.3703 172.698 54.3653 172.678 54.355 172.66C54.3448 172.642 54.3297 172.628 54.3115 172.618Z" fill="white"/>
<path d="M51.2972 166.356C50.6843 166.351 50.0723 166.405 49.4696 166.516C49.4585 166.521 49.4489 166.528 49.4421 166.538C49.4353 166.548 49.4316 166.559 49.4316 166.571C49.4316 166.583 49.4353 166.595 49.4421 166.604C49.4489 166.614 49.4585 166.622 49.4696 166.626C50.08 166.661 50.6923 166.634 51.2972 166.546C51.3223 166.546 51.3464 166.536 51.3642 166.518C51.3819 166.5 51.3919 166.476 51.3919 166.451C51.3919 166.426 51.3819 166.402 51.3642 166.384C51.3464 166.366 51.3223 166.356 51.2972 166.356Z" fill="white"/>
<path d="M0.720821 157.393C5.27106 158.936 9.63138 160.99 13.718 163.517C17.9582 166.211 21.6352 169.703 24.5453 173.798C30.6681 182.321 35.356 191.788 38.4235 201.824C40.1342 207.381 41.1899 213.118 41.569 218.92C41.561 218.958 41.5404 218.991 41.5106 219.016C41.4808 219.04 41.4436 219.053 41.4052 219.053C41.3668 219.053 41.3296 219.04 41.2997 219.016C41.2699 218.991 41.2493 218.958 41.2413 218.92C39.9561 208.861 37.1011 199.065 32.7805 189.89C28.5354 180.897 23.1837 171.33 14.9995 165.373C10.5433 162.133 5.53377 160.007 0.538788 157.764C0.276661 157.677 0.458694 157.306 0.720821 157.393Z" fill="#EBEBEB"/>
<path d="M35.1615 195.409C31.9981 192.531 28.5284 190.008 24.8147 187.887C19.0334 184.676 14.3369 182.565 12.9025 179.761C11.4681 176.958 15.9315 173.317 15.9315 173.317C15.9315 173.317 10.0337 176.23 7.58713 174.082C5.14061 171.934 0 157.08 0 157.08C0 157.08 13.6233 161.922 22.1206 171.745C30.6179 181.567 35.1615 195.409 35.1615 195.409Z" fill="#EBEBEB"/>
<path d="M23.8536 181.734C22.5142 181.641 21.1693 181.807 19.8926 182.222C19.8926 182.222 19.8926 182.288 19.8926 182.28C21.1951 182.057 22.5111 181.921 23.8318 181.873C23.9264 181.873 23.9483 181.742 23.8536 181.734Z" fill="white"/>
<path d="M11.9705 166.153C11.3595 166.103 10.7446 166.137 10.1429 166.255C10.0774 166.255 10.0992 166.371 10.1429 166.364C10.7473 166.298 11.3371 166.32 11.9341 166.305C11.9527 166.306 11.9709 166.3 11.9857 166.289C12.0005 166.278 12.0109 166.262 12.0152 166.244C12.0195 166.226 12.0174 166.207 12.0093 166.19C12.0011 166.174 11.9874 166.16 11.9705 166.153Z" fill="white"/>
<path d="M52.7314 237.698H21.9824L26.3658 205.58L27.4871 197.345H47.2267L48.3481 205.58L52.7314 237.698Z" fill="#DBDBDB"/>
<path d="M48.3485 205.58H26.3662L27.4875 197.345H47.2272L48.3485 205.58Z" fill="#C7C7C7"/>
<path d="M50.0448 194.491H24.6621V201.467H50.0448V194.491Z" fill="#DBDBDB"/>
<path d="M2.43164 237.699L57.7769 237.524L113.122 237.459L223.813 237.335L334.503 237.459L389.849 237.524L445.194 237.699L389.849 237.881L334.503 237.939L223.813 238.063L113.122 237.939L57.7769 237.874L2.43164 237.699Z" fill="#263238"/>
<path d="M225.269 291.966C340.577 291.966 434.053 281.723 434.053 269.088C434.053 256.453 340.577 246.21 225.269 246.21C109.96 246.21 16.4844 256.453 16.4844 269.088C16.4844 281.723 109.96 291.966 225.269 291.966Z" fill="#EBEBEB"/>
<path d="M176.666 265.302C174.97 265.878 126.323 266.03 124.459 264.88C123.731 264.443 123.316 257.358 123.003 248.781C122.938 246.932 122.887 245.017 122.843 243.08L118.962 217.129L151.488 216.918L154.553 242.876L154.429 248.584C154.429 248.584 173.084 256.849 174.992 258.349C176.899 259.849 178.363 264.727 176.666 265.302Z" fill="#EB9481"/>
<path d="M176.666 265.302C174.97 265.877 126.323 266.03 124.459 264.88C123.6 264.341 123.134 253.994 122.872 243.079L154.517 242.875L154.393 248.584C154.393 248.584 173.048 256.848 174.955 258.348C176.863 259.848 178.363 264.727 176.666 265.302Z" fill="white"/>
<path d="M176.666 265.302C174.97 265.878 126.323 266.031 124.459 264.88C123.731 264.443 123.316 257.358 123.003 248.781L154.364 248.584C154.364 248.584 173.018 256.849 174.926 258.349C176.834 259.849 178.363 264.727 176.666 265.302Z" fill="#A6A6A6"/>
<path d="M175.96 263.358C167.805 263.183 134.894 263.263 126.819 263.715C126.753 263.715 126.753 263.759 126.819 263.766C134.901 264.108 167.812 263.766 175.96 263.489C176.135 263.482 176.135 263.358 175.96 263.358Z" fill="#263238"/>
<path d="M171.817 256.608C170.91 256.587 170.009 256.755 169.17 257.101C168.332 257.447 167.574 257.963 166.945 258.617C165.8 259.784 165.152 261.351 165.14 262.986C165.14 263.037 165.227 263.037 165.234 262.986C165.505 261.375 166.29 259.895 167.471 258.766C168.652 257.638 170.166 256.921 171.787 256.724C171.803 256.728 171.819 256.726 171.833 256.717C171.847 256.709 171.856 256.696 171.86 256.68C171.864 256.665 171.862 256.649 171.854 256.635C171.845 256.621 171.832 256.611 171.817 256.608Z" fill="#263238"/>
<path d="M157.553 249.385C154.291 249.349 150.512 250.514 148.487 253.193C148.415 253.295 148.56 253.404 148.655 253.353C151.505 251.849 154.507 250.653 157.611 249.786C157.659 249.772 157.7 249.742 157.728 249.701C157.755 249.659 157.766 249.609 157.759 249.56C157.752 249.51 157.727 249.465 157.689 249.433C157.651 249.401 157.602 249.384 157.553 249.385Z" fill="#263238"/>
<path d="M160.086 250.354C156.817 250.354 153.038 251.49 151.021 254.162C150.941 254.271 151.087 254.381 151.189 254.33C154.034 252.82 157.035 251.621 160.137 250.754C160.185 250.741 160.226 250.712 160.253 250.671C160.28 250.63 160.292 250.581 160.286 250.532C160.279 250.483 160.256 250.439 160.219 250.406C160.183 250.373 160.136 250.355 160.086 250.354Z" fill="#263238"/>
<path d="M162.606 251.33C159.344 251.33 155.565 252.458 153.541 255.138C153.468 255.24 153.614 255.349 153.709 255.298C156.559 253.794 159.561 252.598 162.665 251.73C162.713 251.717 162.754 251.687 162.781 251.645C162.809 251.604 162.82 251.553 162.813 251.504C162.805 251.455 162.781 251.41 162.743 251.378C162.705 251.346 162.656 251.329 162.606 251.33Z" fill="#263238"/>
<path d="M165.133 252.305C161.863 252.269 158.084 253.434 156.067 256.113C155.987 256.215 156.14 256.324 156.235 256.273C159.084 254.768 162.087 253.572 165.191 252.706C165.239 252.692 165.28 252.662 165.308 252.621C165.335 252.579 165.346 252.529 165.339 252.48C165.332 252.43 165.307 252.385 165.269 252.353C165.231 252.321 165.182 252.304 165.133 252.305Z" fill="#263238"/>
<path d="M128.872 255.961C125.231 255.961 125.231 261.676 128.872 261.654C132.513 261.633 132.542 255.939 128.872 255.961Z" fill="#263238"/>
<path d="M161.055 240.662C159.403 239.293 157.32 240.662 156.308 242.067C154.623 244.551 153.619 247.433 153.396 250.426C153.396 250.492 153.446 250.521 153.497 250.521C153.51 250.582 153.538 250.64 153.578 250.689C153.618 250.737 153.669 250.776 153.726 250.801C153.784 250.826 153.847 250.837 153.91 250.832C153.973 250.828 154.033 250.808 154.087 250.776C156.403 249.166 159.082 247.725 160.837 245.446C161.835 244.12 162.65 241.936 161.055 240.662ZM157.08 247.608C155.959 248.431 154.801 249.196 153.709 250.062C154.291 248.431 154.794 246.785 155.536 245.213C155.879 244.459 156.273 243.729 156.716 243.028C157.444 241.943 160.619 239.206 160.954 242.752C161.143 244.696 158.412 246.632 157.08 247.608Z" fill="#263238"/>
<path d="M145.269 251.664C148.109 252.087 151.043 251.271 153.832 250.827C153.893 250.811 153.949 250.782 153.996 250.74C154.043 250.699 154.079 250.647 154.103 250.589C154.126 250.531 154.135 250.468 154.13 250.406C154.125 250.344 154.105 250.283 154.072 250.23C154.083 250.222 154.091 250.211 154.097 250.199C154.103 250.187 154.106 250.174 154.106 250.161C154.106 250.148 154.103 250.134 154.097 250.122C154.091 250.11 154.083 250.1 154.072 250.092C151.832 248.093 149.104 246.72 146.165 246.109C144.446 245.781 142.014 246.254 141.796 248.388C141.534 250.398 143.609 251.402 145.269 251.664ZM143.289 249.815C141.104 247.019 145.276 246.779 146.529 247.07C147.341 247.273 148.139 247.531 148.917 247.842C150.51 248.502 152.067 249.243 153.584 250.063C152.201 250.201 150.839 250.448 149.463 250.638C147.818 250.856 144.512 251.351 143.289 249.815Z" fill="#263238"/>
<path d="M71.1387 97.1836C71.1387 97.1836 108.907 161.434 109.919 165.948C111.47 172.88 119.69 241.332 119.69 241.332L159.01 240.604C159.01 240.604 152.238 180.249 145.823 160.364C141.207 146.041 107.873 98.5379 107.873 98.5379L71.1387 97.1836Z" fill="#37474F"/>
<path d="M155.434 234.604C149.791 234.56 129.79 234.335 122.275 235.034C122.217 235.034 122.224 235.136 122.275 235.143C124.86 235.514 149.784 234.939 155.427 234.757C155.439 234.761 155.452 234.763 155.464 234.761C155.477 234.76 155.488 234.755 155.499 234.748C155.509 234.741 155.518 234.732 155.524 234.721C155.53 234.71 155.534 234.698 155.534 234.685C155.535 234.673 155.533 234.66 155.528 234.649C155.522 234.638 155.515 234.627 155.505 234.62C155.495 234.612 155.484 234.606 155.472 234.603C155.459 234.601 155.447 234.601 155.434 234.604Z" fill="#263238"/>
<path d="M77.5826 103.081C80.0583 106.962 82.6796 110.763 85.1989 114.615C87.7182 118.467 90.2521 122.318 92.7496 126.163C97.73 133.93 102.584 141.747 107.312 149.616C109.62 153.264 111.594 157.111 113.21 161.113C114.686 165.116 115.795 169.245 116.523 173.448C117.295 177.664 117.805 181.923 118.278 186.183C118.763 190.712 119.271 195.243 119.8 199.777C120.834 209.053 121.87 218.33 122.909 227.606C123.033 228.742 123.156 229.878 123.273 231.021C123.273 231.189 122.989 231.218 122.967 231.021C121.809 221.81 120.848 212.563 119.8 203.352C119.275 198.755 118.754 194.161 118.234 189.569C117.746 185.295 117.28 181.013 116.618 176.768C116.01 172.578 115.085 168.44 113.851 164.39C112.491 160.196 110.669 156.167 108.419 152.376C103.868 144.519 99.048 136.801 94.2277 129.076C89.4075 121.35 84.4562 113.559 79.3738 105.928C78.7477 104.989 78.1142 104.05 77.4589 103.125C77.4079 103.074 77.5389 103.008 77.5826 103.081Z" fill="#263238"/>
<path d="M83.5165 269.088C81.7253 268.979 35.4598 250.237 34.1783 248.46C34.1212 248.356 34.0959 248.237 34.1055 248.118C34.1055 246.523 37.3166 240.96 39.9961 233.65C40.1636 233.184 41.3577 231.014 43.0105 228.094C47.6051 220.092 55.6145 206.309 55.6145 206.309L85.8538 218.323L71.3785 239.985L69.1286 245.227C69.1286 245.227 83.3199 259.899 84.514 261.974C85.7082 264.049 85.3004 269.19 83.5165 269.088Z" fill="#EB9481"/>
<path d="M83.5165 269.089C81.7253 268.979 35.4598 250.237 34.1783 248.461C34.1212 248.356 34.0959 248.237 34.1055 248.118C34.1055 246.524 37.3166 240.961 39.9961 233.65C40.1636 233.184 41.3577 231.015 43.0105 228.095L71.4077 239.985L69.1578 245.228C69.1578 245.228 83.349 259.9 84.5432 261.975C85.7373 264.05 85.3004 269.19 83.5165 269.089Z" fill="white"/>
<path d="M83.5167 269.089C81.7255 268.979 35.46 250.237 34.1785 248.461C33.6834 247.783 35.7513 241.471 40.0036 233.65L69.1288 245.235C69.1288 245.235 83.3201 259.892 84.5215 261.982C85.723 264.072 85.3007 269.19 83.5167 269.089Z" fill="#A6A6A6"/>
<path d="M83.5893 267.02C76.0968 263.802 45.559 251.526 37.9063 248.919C37.8408 248.919 37.8262 248.919 37.9063 248.963C45.2677 252.312 75.9002 264.341 83.5602 267.166C83.7058 267.202 83.7495 267.086 83.5893 267.02Z" fill="#263238"/>
<path d="M82.2786 259.207C81.4477 258.842 80.5502 258.654 79.6427 258.654C78.7353 258.654 77.8377 258.842 77.0069 259.207C75.5131 259.861 74.329 261.066 73.7012 262.571C73.7012 262.615 73.7667 262.651 73.7886 262.608C74.6469 261.212 75.9347 260.131 77.4588 259.529C78.9828 258.926 80.6612 258.834 82.2422 259.266C82.2544 259.262 82.2649 259.254 82.2716 259.243C82.2784 259.233 82.2808 259.22 82.2786 259.207Z" fill="#263238"/>
<path d="M71.7719 247.164C68.7647 245.904 64.8182 245.569 61.9421 247.295C61.8329 247.36 61.9421 247.513 62.0368 247.506C65.2429 247.181 68.4746 247.198 71.6772 247.557C71.7265 247.562 71.776 247.549 71.8166 247.521C71.8571 247.492 71.8859 247.45 71.8975 247.402C71.9091 247.354 71.9027 247.303 71.8796 247.259C71.8565 247.215 71.8182 247.181 71.7719 247.164Z" fill="#263238"/>
<path d="M73.7445 249.014C70.7373 247.754 66.7909 247.419 63.9148 249.145C63.8055 249.21 63.9148 249.363 64.0094 249.356C67.2154 249.027 70.4475 249.044 73.6499 249.407C73.6992 249.412 73.7487 249.4 73.7892 249.371C73.8298 249.342 73.8585 249.3 73.8701 249.252C73.8817 249.204 73.8754 249.153 73.8523 249.109C73.8291 249.065 73.7908 249.031 73.7445 249.014Z" fill="#263238"/>
<path d="M75.7255 250.863C72.711 249.604 68.7645 249.269 65.8957 250.994C65.7792 251.06 65.8957 251.213 65.9831 251.206C69.1891 250.877 72.4212 250.894 75.6235 251.257C75.6738 251.265 75.7254 251.254 75.7682 251.227C75.811 251.199 75.8418 251.156 75.8546 251.107C75.8674 251.057 75.8612 251.005 75.8373 250.96C75.8134 250.915 75.7735 250.88 75.7255 250.863Z" fill="#263238"/>
<path d="M77.6991 252.713C74.6846 251.453 70.7455 251.118 67.8693 252.836C67.7528 252.909 67.8693 253.062 67.9567 253.055C71.1627 252.726 74.3948 252.743 77.5972 253.106C77.6475 253.114 77.6991 253.103 77.7418 253.076C77.7846 253.048 77.8154 253.005 77.8282 252.956C77.841 252.906 77.8349 252.854 77.811 252.809C77.7871 252.764 77.7472 252.73 77.6991 252.713Z" fill="#263238"/>
<path d="M42.7121 242.497C39.3118 241.143 37.2002 246.436 40.6151 247.791C44.03 249.145 46.1489 243.851 42.7121 242.497Z" fill="#263238"/>
<path d="M78.288 240.392C77.2613 238.507 74.8366 238.973 73.3585 239.912C70.8686 241.58 68.86 243.872 67.5335 246.56C67.5276 246.572 67.5245 246.585 67.5244 246.598C67.5243 246.611 67.5271 246.624 67.5327 246.636C67.5383 246.648 67.5465 246.658 67.5568 246.666C67.567 246.675 67.5789 246.681 67.5917 246.684C67.5917 246.924 67.7519 247.208 68.0359 247.15C70.7955 246.516 73.8172 246.188 76.2929 244.732C77.7128 243.888 79.2564 242.176 78.288 240.392ZM71.9896 245.337C70.6426 245.679 69.2883 245.955 67.9558 246.349C69.058 245.021 70.2269 243.75 71.4581 242.54C72.0642 241.963 72.7089 241.428 73.3877 240.939C74.4434 240.21 78.4336 238.863 77.4142 242.278C76.8536 244.164 73.5988 244.929 71.9896 245.337Z" fill="#263238"/>
<path d="M59.5245 244.667C62.0002 246.123 65.0219 246.465 67.7743 247.106C68.0582 247.172 68.2476 246.888 68.2257 246.64C68.2394 246.639 68.2524 246.634 68.2636 246.626C68.2748 246.618 68.2837 246.607 68.2896 246.595C68.2954 246.582 68.298 246.568 68.297 246.555C68.296 246.541 68.2915 246.528 68.2839 246.516C66.9595 243.824 64.9508 241.526 62.4589 239.854C61.0026 238.907 58.5634 238.434 57.5295 240.313C56.4955 242.191 58.0755 243.815 59.5245 244.667ZM58.3886 242.206C57.3765 238.791 61.3594 240.145 62.4152 240.881C63.0932 241.371 63.7355 241.909 64.3375 242.49C65.5663 243.702 66.7328 244.975 67.8325 246.305C66.5 245.912 65.1457 245.628 63.7987 245.286C62.1677 244.849 58.942 244.121 58.3886 242.206Z" fill="#263238"/>
<path d="M73.7297 238.777L39.8789 225.109C39.8789 225.109 81.8484 163.4 82.1542 158.806C82.4309 154.743 63.9946 119.341 63.2738 109.023C62.4874 97.8831 67.8464 89.2692 73.7443 83.9175L108.658 98.7641C108.658 98.7641 104.974 104.655 99.1925 107.939C99.1925 107.939 117.097 148.86 116.078 161.442C115.058 174.024 73.7297 238.777 73.7297 238.777Z" fill="#37474F"/>
<path d="M75.2303 232.34C70.3373 230.236 71.7717 230.767 66.8495 228.699C64.4467 227.694 48.6462 221.119 46.2143 220.573C46.1633 220.573 46.1269 220.646 46.1779 220.675C48.2822 221.964 64.2137 228.262 66.6384 229.223C71.5969 231.175 70.1917 230.563 75.1721 232.456C75.1795 232.466 75.1894 232.474 75.2007 232.479C75.2121 232.484 75.2245 232.486 75.2369 232.485C75.2492 232.484 75.2611 232.48 75.2713 232.473C75.2816 232.466 75.2899 232.456 75.2955 232.445C75.301 232.434 75.3036 232.422 75.3031 232.409C75.3025 232.397 75.2988 232.385 75.2923 232.374C75.2857 232.364 75.2766 232.355 75.2658 232.349C75.2549 232.343 75.2427 232.34 75.2303 232.34Z" fill="#263238"/>
<path d="M104.916 107.189C101.281 108.036 97.7247 109.191 94.2852 110.64C94.2714 110.645 94.2586 110.652 94.2476 110.662C94.2366 110.672 94.2277 110.684 94.2212 110.697C94.2148 110.71 94.2111 110.724 94.2102 110.739C94.2093 110.753 94.2113 110.768 94.2161 110.782C94.2208 110.796 94.2283 110.809 94.238 110.82C94.2478 110.831 94.2595 110.84 94.2727 110.846C94.2859 110.852 94.3002 110.856 94.3149 110.857C94.3295 110.858 94.3442 110.856 94.3581 110.851C97.9259 109.81 101.552 108.834 105.062 107.604C105.331 107.509 105.193 107.13 104.916 107.189Z" fill="#263238"/>
<path d="M100.759 105.776C100.419 106.379 100.12 107.005 99.863 107.647C99.6117 108.135 99.456 108.666 99.4043 109.213C99.4043 109.322 99.5499 109.344 99.6155 109.278C99.9808 108.841 100.276 108.35 100.489 107.822C100.788 107.247 101.094 106.679 101.378 106.089C101.574 105.659 100.984 105.383 100.759 105.776Z" fill="#263238"/>
<path d="M101.196 102.47C101.414 101.931 101.625 101.4 101.851 100.861C102.077 100.322 102.361 99.7688 102.579 99.2008C102.579 99.1135 102.754 99.2008 102.717 99.2664C102.499 99.8052 102.361 100.373 102.193 100.926C102.026 101.48 101.836 102.033 101.654 102.587C101.312 103.613 100.926 104.633 100.453 105.63C101.026 105.659 101.598 105.559 102.128 105.339C102.669 104.993 103.085 104.482 103.314 103.883C103.62 103.286 103.904 102.674 104.217 102.077C104.603 101.431 104.927 100.751 105.186 100.045C105.186 99.9581 105.361 100.045 105.324 100.111C104.849 101.603 104.227 103.045 103.467 104.414C103.14 104.946 102.885 105.506 102.288 105.71C101.642 105.891 100.965 105.938 100.3 105.849C100.213 105.849 100.111 105.849 100.14 105.718C100.438 104.618 100.79 103.535 101.196 102.47Z" fill="#263238"/>
<path d="M99.7105 109.271C100.956 111.899 102.048 114.521 103.206 117.142C104.363 119.763 105.39 122.297 106.431 124.904C108.514 130.161 110.378 135.52 112.016 140.923C112.824 143.602 113.574 146.303 114.244 149.027C114.982 151.741 115.522 154.506 115.86 157.298C116.153 160.086 115.905 162.904 115.132 165.599C114.329 168.262 113.299 170.852 112.052 173.339C111.288 174.912 111.033 174.701 111.397 173.907C112.438 171.65 115.169 164.813 114.972 159.068C114.813 156.317 114.389 153.589 113.705 150.92C113.069 148.168 112.353 145.437 111.557 142.728C110.006 137.384 108.164 132.149 106.271 126.921C105.208 124.008 104.087 121.096 102.994 118.183C101.902 115.271 100.81 112.591 99.5867 109.373C99.5503 109.242 99.6741 109.191 99.7105 109.271Z" fill="#263238"/>
<path d="M74.0146 100.584C74.619 100.358 75.4709 100.729 76.0825 100.831C76.8746 100.966 77.675 101.046 78.478 101.071C79.2726 101.099 80.0682 101.073 80.859 100.991C81.6555 100.971 82.4361 100.764 83.1381 100.387C84.2899 99.548 85.2772 98.5038 86.0506 97.307C86.9722 96.084 87.7333 94.7479 88.3151 93.3314C88.3151 93.244 88.468 93.3314 88.4389 93.3897C88.184 94.1979 87.9947 95.0134 87.7108 95.807C87.3969 96.5527 87.0218 97.2712 86.5894 97.955C85.8884 99.3311 84.8516 100.508 83.575 101.377C82.1697 102.178 80.3639 102.105 78.7984 102.04C77.8905 101.987 76.9876 101.868 76.0971 101.683C75.4563 101.545 74.3787 101.443 73.9709 100.882C73.9517 100.861 73.9375 100.835 73.9292 100.808C73.9209 100.78 73.9188 100.751 73.923 100.723C73.9271 100.694 73.9375 100.667 73.9533 100.643C73.9692 100.619 73.9901 100.599 74.0146 100.584Z" fill="#263238"/>
<path d="M49.5419 218.636C55.1048 210.209 60.5658 201.714 65.9249 193.151C71.2839 184.588 76.5701 175.96 81.7836 167.266C83.0287 165.191 84.4631 163.123 85.264 160.822C86.1378 158.325 85.6427 155.9 84.8563 153.454C83.3714 148.99 81.6357 144.615 79.6574 140.347C77.706 136.044 75.6017 131.813 73.5338 127.568C71.4659 123.323 69.3034 119.129 67.7088 114.702C66.2525 110.472 65.6627 106.089 66.7986 101.705C67.9345 97.3218 70.381 93.4482 72.9368 89.8002C73.6066 88.8391 74.2984 87.8853 74.9755 86.8877C75.0265 86.8149 75.1357 86.8877 75.0848 86.9751C72.2669 90.7759 69.5218 94.8025 67.869 99.266C67.0242 101.466 66.5517 103.791 66.471 106.147C66.4572 108.538 66.8284 110.915 67.5704 113.188C68.9393 117.615 71.1019 121.802 73.1188 125.967C75.1357 130.131 77.291 134.442 79.2788 138.731C81.3295 143.047 83.1523 147.468 84.7398 151.975C85.4169 153.978 86.196 156.075 86.1378 158.223C86.0868 160.575 84.9655 162.693 83.8005 164.674C78.7036 173.302 73.4829 181.829 68.1675 190.304C62.8521 198.78 57.3839 207.255 51.8501 215.643L49.7531 218.811C49.6438 218.942 49.4545 218.789 49.5419 218.636Z" fill="#263238"/>
<path d="M110.596 59.5178C113.749 66.435 129.673 75.9663 137.129 76.9929C142.488 77.7211 158.784 77.9832 164.369 77.1313C170.922 76.1265 165.912 58.4693 162.046 58.928C151.415 60.1658 142.386 61.5493 139.547 61.5493C136.081 61.5493 117.331 55.5349 115.074 54.683C109.54 52.6224 108.812 55.5931 110.596 59.5178Z" fill="#EB9481"/>
<path d="M110.698 61.3599C114.688 67.2651 127.947 76.9201 127.947 76.9201L129.789 72.8426L135.884 59.3576C135.884 59.3576 123.702 55.5349 115.685 53.7874C114.742 53.5727 113.782 53.4363 112.816 53.3796C107.698 53.1029 107.253 56.263 110.698 61.3599Z" fill="#CACACA"/>
<path d="M110.698 61.3593C114.688 67.2645 127.947 76.9195 127.947 76.9195L129.789 72.8419C124.845 67.097 117.207 58.3958 112.816 53.3935C107.698 53.1023 107.253 56.2624 110.698 61.3593Z" fill="#263238"/>
<path d="M125.559 74.1821C126.571 71.6992 131.07 61.7019 132.192 59.6195C132.265 59.4738 132.381 59.4884 132.316 59.6195C130.364 64.5911 128.142 69.4525 125.66 74.1821C125.631 74.2695 125.515 74.2403 125.559 74.1821Z" fill="#263238"/>
<path d="M160.094 59.1094C166.56 58.2647 174.562 56.8158 181.341 59.6919C182.102 59.9905 182.741 60.5368 183.154 61.2428C186.212 62.4806 186.547 64.2937 186.547 64.2937C189.044 66.3179 189.132 68.2256 189.132 68.2256C189.132 68.2256 192.714 69.6818 192.168 72.0264C191.571 74.6186 186.663 72.0264 183.095 72.2376C174.904 72.7473 163.436 75.7545 161.069 76.1331L160.094 59.1094Z" fill="#EB9481"/>
<path d="M174.14 66.7408C176.535 66.577 178.939 66.577 181.334 66.7408C183.942 67.068 186.522 67.5913 189.052 68.3062C189.069 68.312 189.087 68.3111 189.102 68.3036C189.118 68.2961 189.13 68.2826 189.136 68.2662C189.142 68.2498 189.141 68.2317 189.133 68.216C189.126 68.2003 189.112 68.1883 189.096 68.1825C184.343 66.3178 179.17 65.7939 174.14 66.668C174.024 66.6534 174.024 66.748 174.14 66.7408Z" fill="#263238"/>
<path d="M172.617 59.1757C176.615 59.3796 179.112 60.0204 183.132 61.2291V61.1854C178.705 59.3359 176.892 59.1612 172.596 59.001C172.457 59.0592 172.465 59.1757 172.617 59.1757Z" fill="#263238"/>
<path d="M173.266 73.4756C172.224 73.9634 172.479 74.5095 174.467 74.9683C176.455 75.427 184.719 75.5653 184.428 78.4487C184.137 81.3321 172.479 80.9681 169.224 79.9487C165.97 78.9293 161.069 76.1333 161.069 76.1333C163.378 75.7474 168.795 74.2838 173.266 73.4756Z" fill="#EB9481"/>
<path d="M119.253 70.5415C119.202 71.7866 119.086 73.0535 118.911 74.3132C118.911 74.2622 118.911 74.2185 118.962 74.1748C119.202 73.5195 119.442 72.8496 119.734 72.2162C119.734 72.2162 119.806 72.2162 119.799 72.2162C119.659 72.9103 119.449 73.5885 119.173 74.2404C119.042 74.5535 118.918 74.8593 118.78 75.1651C118.692 75.7258 118.59 76.2791 118.481 76.8325C118.263 77.8737 117.28 82.3008 117.025 83.0508C116.981 83.2037 116.792 83.1673 116.806 82.9925C116.857 82.177 117.68 77.5679 117.848 76.5194C118.173 74.4949 118.608 72.4896 119.151 70.5123C119.187 70.4759 119.26 70.5051 119.253 70.5415Z" fill="#263238"/>
<path d="M111.681 103.65C109.737 104.647 107.232 106.198 95.9462 103.978C95.2181 103.832 94.5336 103.657 93.8201 103.446C83.2403 100.271 70.5199 87.8276 69.8281 86.9466C69.8281 86.9466 86.6407 59.6926 108.142 51.1225C110.8 50.0667 115.198 52.1055 117.608 54.6467C118.475 55.5569 120.36 62.2484 119.64 67.6657C118.919 73.083 113.618 102.652 111.681 103.65Z" fill="#CACACA"/>
<path d="M110.166 67.4175C110.247 68.5692 110.085 69.7251 109.692 70.8106C109.6 69.6585 109.761 68.5003 110.166 67.4175Z" fill="white"/>
<path d="M102.833 85.9775C102.88 86.5507 102.86 87.1272 102.775 87.6959C102.705 88.2689 102.566 88.8312 102.36 89.3706C102.31 88.7952 102.329 88.2157 102.418 87.645C102.493 87.0752 102.632 86.5157 102.833 85.9775Z" fill="white"/>
<path d="M90.3751 71.9468C90.4571 73.1009 90.2959 74.2593 89.9018 75.3472C89.8103 74.1928 89.9719 73.0323 90.3751 71.9468Z" fill="white"/>
<path d="M114.964 85.0312C115.011 85.6068 114.991 86.1858 114.906 86.7569C114.836 87.3299 114.697 87.8922 114.491 88.4316C114.441 87.8562 114.46 87.2767 114.549 86.706C114.623 86.1336 114.762 85.5717 114.964 85.0312Z" fill="white"/>
<path d="M98.9678 69.5442C99.5406 69.4954 100.117 69.5125 100.686 69.5951C101.259 69.6678 101.822 69.8096 102.361 70.0175C101.209 70.1002 100.053 69.9389 98.9678 69.5442Z" fill="white"/>
<path d="M84.8271 82.9487C85.9788 82.8675 87.1347 83.0287 88.2202 83.422C87.0682 83.5143 85.9099 83.3527 84.8271 82.9487Z" fill="white"/>
<path d="M101.486 97.4601C102.638 97.3773 103.794 97.5386 104.879 97.9333C103.727 98.0242 102.569 97.8627 101.486 97.4601Z" fill="white"/>
<path d="M80.4658 92.1889C81.6175 92.1077 82.7734 92.2689 83.8589 92.6622C82.7069 92.7531 81.549 92.5916 80.4658 92.1889Z" fill="white"/>
<path d="M110.057 54.3696C111.208 54.2884 112.364 54.4496 113.45 54.8429C112.298 54.9241 111.142 54.7628 110.057 54.3696Z" fill="white"/>
<path d="M105.943 59.0151C105.575 59.4576 105.154 59.8537 104.691 60.1947C104.239 60.5436 103.751 60.8415 103.234 61.083C103.6 60.6434 104.015 60.2475 104.472 59.9035C104.928 59.5532 105.421 59.2553 105.943 59.0151Z" fill="white"/>
<path d="M83.5235 72.2158C83.1509 72.6545 82.7282 73.0479 82.2639 73.3881C81.8173 73.7436 81.3281 74.042 80.8076 74.2764C81.1822 73.8396 81.6047 73.4464 82.0673 73.1041C82.5149 72.7502 83.004 72.4519 83.5235 72.2158Z" fill="white"/>
<path d="M111.521 78.1729C111.148 78.6138 110.725 79.0097 110.261 79.3524C109.813 79.7064 109.324 80.0047 108.805 80.2407C109.177 79.7998 109.6 79.4039 110.064 79.0612C110.514 78.7107 111.003 78.4127 111.521 78.1729Z" fill="white"/>
<path d="M93.3898 89.5894C93.0173 90.0303 92.5945 90.4262 92.1301 90.7689C91.6817 91.1219 91.1928 91.4201 90.6738 91.6572C91.0463 91.2163 91.4691 90.8204 91.9335 90.4777C92.3836 90.1273 92.8722 89.8292 93.3898 89.5894Z" fill="white"/>
<path d="M118.467 62.5762C118.094 63.0171 117.672 63.413 117.207 63.7557C116.756 64.1046 116.268 64.4026 115.751 64.6441C116.123 64.2031 116.546 63.8072 117.011 63.4645C117.459 63.1116 117.948 62.8134 118.467 62.5762Z" fill="white"/>
<path d="M118.088 75.8063C117.647 75.4338 117.252 75.011 116.909 74.5466C116.554 74.0992 116.256 73.6102 116.021 73.0903C116.463 73.4584 116.859 73.879 117.2 74.3427C117.548 74.7972 117.846 75.2879 118.088 75.8063Z" fill="white"/>
<path d="M77.6773 84.9225C77.2363 84.55 76.8404 84.1272 76.4977 83.6628C76.1473 83.2127 75.8492 82.7241 75.6094 82.2065C76.0503 82.579 76.4462 83.0018 76.7889 83.4662C77.1419 83.9146 77.4401 84.4035 77.6773 84.9225Z" fill="white"/>
<path d="M113.173 95.7638C112.731 95.3957 112.335 94.9752 111.994 94.5114C111.645 94.0603 111.347 93.5719 111.105 93.0552C111.546 93.4277 111.942 93.8504 112.285 94.3148C112.636 94.7617 112.935 95.248 113.173 95.7638Z" fill="white"/>
<path d="M95.3853 64.8542C94.9445 64.4842 94.5486 64.0639 94.2057 63.6018C93.8583 63.1496 93.5605 62.6614 93.3174 62.1455C93.7599 62.5136 94.156 62.9342 94.497 63.3979C94.8444 63.8501 95.1422 64.3383 95.3853 64.8542Z" fill="white"/>
<path d="M95.6978 101.939C95.2568 101.566 94.8609 101.143 94.5182 100.679C94.1689 100.228 93.871 99.7396 93.6299 99.2227C94.0724 99.5908 94.4685 100.011 94.8095 100.475C95.1598 100.928 95.4578 101.419 95.6978 101.939Z" fill="white"/>
<path d="M98.7198 80.0655C98.283 79.691 97.8898 79.2684 97.5475 78.8059C97.192 78.3593 96.8936 77.8701 96.6592 77.3496C97.0978 77.7222 97.4913 78.145 97.8315 78.6093C98.1854 79.0569 98.4837 79.5459 98.7198 80.0655Z" fill="white"/>
<path d="M113.669 61.9055C110.924 61.3958 108.346 55.7236 108.019 51.9082C108.019 51.6461 109.3 49.5709 110.764 46.9715C111.652 45.3914 112.591 43.6075 113.341 41.9182C113.494 41.576 114.39 42.7337 114.39 42.7337L116.341 44.19L122.785 49.134C121.251 50.9754 119.947 52.9976 118.904 55.1557C118.801 55.3895 118.723 55.6336 118.671 55.8838C118.668 55.925 118.668 55.9664 118.671 56.0076C118.271 57.4493 116.312 62.3933 113.669 61.9055Z" fill="#EB9481"/>
<path d="M118.671 55.9206C118.668 55.9618 118.668 56.0032 118.671 56.0444C118.288 55.9322 117.915 55.7885 117.557 55.6148C110.501 52.3091 113.61 42.8579 113.61 42.8579L116.377 44.2268L122.821 49.1708C121.286 51.0122 119.983 53.0344 118.94 55.1925C118.824 55.4249 118.734 55.669 118.671 55.9206Z" fill="#263238"/>
<path d="M130.189 29.0156C130.189 29.0156 133.415 31.0617 133.43 34.7023C133.444 38.343 131.973 41.9036 131.668 42.0346C131.362 42.1657 130.189 29.0156 130.189 29.0156Z" fill="#263238"/>
<path d="M114.185 30.9087C112.248 34.7314 112.35 46.782 114.767 49.8838C118.277 54.3837 125.034 55.9346 129.119 51.4857C133.072 47.1752 132.665 31.4767 129.847 28.5496C125.747 24.2245 117.054 25.2511 114.185 30.9087Z" fill="#EB9481"/>
<path d="M124.466 40.5571C124.466 40.5571 124.401 40.6008 124.408 40.6299C124.452 41.4527 124.364 42.3993 123.629 42.6906C123.629 42.6906 123.629 42.7415 123.629 42.7342C124.539 42.5886 124.641 41.3289 124.466 40.5571Z" fill="#263238"/>
<path d="M123.716 39.7202C122.391 39.6474 122.347 42.2978 123.578 42.3633C124.808 42.4289 124.823 39.7785 123.716 39.7202Z" fill="#263238"/>
<path d="M128.959 40.5283C128.959 40.5283 129.025 40.5283 129.025 40.6011C128.981 41.4239 129.076 42.3705 129.818 42.6545C129.818 42.6545 129.818 42.7054 129.818 42.6982C128.901 42.5598 128.792 41.3001 128.959 40.5283Z" fill="#263238"/>
<path d="M129.709 39.6834C131.027 39.6033 131.093 42.2537 129.87 42.3265C128.646 42.3993 128.603 39.749 129.709 39.6834Z" fill="#263238"/>
<path d="M122.887 37.703C123.234 37.604 123.577 37.4873 123.913 37.3535C124.296 37.2843 124.644 37.0896 124.903 36.8001C124.966 36.6941 124.993 36.5704 124.978 36.448C124.964 36.3256 124.909 36.2113 124.823 36.123C124.626 35.9732 124.393 35.8787 124.147 35.8492C123.901 35.8198 123.652 35.8565 123.425 35.9555C122.934 36.087 122.509 36.3957 122.231 36.822C122.176 36.9234 122.151 37.0386 122.159 37.1538C122.167 37.2691 122.208 37.3797 122.277 37.4724C122.346 37.5651 122.44 37.6361 122.548 37.677C122.656 37.7179 122.773 37.7269 122.887 37.703Z" fill="#263238"/>
<path d="M130.612 38.8752C130.258 38.796 129.908 38.6988 129.563 38.584C129.18 38.5332 128.824 38.3565 128.551 38.0815C128.481 37.9803 128.447 37.8583 128.455 37.7354C128.463 37.6124 128.512 37.4958 128.595 37.4044C128.783 37.2438 129.01 37.1368 129.254 37.0945C129.497 37.0522 129.748 37.0763 129.978 37.1641C130.477 37.2673 130.918 37.553 131.216 37.965C131.279 38.0626 131.311 38.1761 131.31 38.2919C131.309 38.4077 131.275 38.5206 131.211 38.6171C131.147 38.7135 131.056 38.7893 130.95 38.8351C130.843 38.8809 130.726 38.8949 130.612 38.8752Z" fill="#263238"/>
<path d="M122.603 48.3412C122.799 48.5377 122.989 48.7999 123.287 48.829C123.593 48.8288 123.896 48.7643 124.176 48.6397C124.176 48.6397 124.227 48.6397 124.176 48.6834C124.056 48.8434 123.896 48.968 123.711 49.0436C123.526 49.1193 123.324 49.1433 123.127 49.113C122.961 49.0676 122.811 48.9744 122.698 48.845C122.584 48.7156 122.51 48.5556 122.486 48.3848C122.481 48.3694 122.481 48.3523 122.488 48.3373C122.495 48.3222 122.507 48.3105 122.523 48.3047C122.538 48.2989 122.555 48.2995 122.57 48.3064C122.585 48.3132 122.597 48.3257 122.603 48.3412Z" fill="#263238"/>
<path d="M127.365 44.8314C127.365 44.8314 127.401 46.0547 127.365 46.6299C126.246 46.5112 125.116 46.5504 124.008 46.7464C123.746 46.8046 123.775 46.5935 124.074 46.4551C124.966 46.0473 125.96 45.9154 126.928 46.0765C126.986 45.9236 126.833 44.1834 126.928 44.1906C127.368 44.2771 127.795 44.4241 128.195 44.6275C128.195 42.0645 127.787 39.5306 127.823 36.9676C127.823 36.8802 127.962 36.8656 127.976 36.9676C128.494 39.6789 128.738 42.4354 128.705 45.1955C128.712 45.5086 127.583 44.9479 127.365 44.8314Z" fill="#263238"/>
<path d="M125.726 46.1928C125.436 46.9563 124.897 47.6 124.197 48.0205C123.097 48.4646 122.74 47.4671 123.847 46.5642C124.428 46.2708 125.077 46.1424 125.726 46.1928Z" fill="#263238"/>
<path d="M124.583 47.7945C124.467 47.8891 124.337 47.9652 124.198 48.0202C123.185 48.4279 122.785 47.6197 123.6 46.8042C124.154 46.8479 124.787 47.0518 124.583 47.7945Z" fill="#FF99BA"/>
<path d="M113.632 41.2125C114.965 41.6203 116.494 37.6156 116.931 36.1156C117.309 34.7613 117.746 30.458 117.812 30.1595C117.877 29.861 123.637 33.9676 126.972 32.9919C130.306 32.0162 132.571 28.9945 132.622 27.5892C132.673 26.1839 128.501 22.6161 124.896 22.434C121.292 22.252 116.406 26.8028 116.406 26.8028C116.997 26.1331 117.532 25.4172 118.008 24.6621C117.95 24.5019 115.62 25.4339 115.19 27.0941C115.19 27.0941 115.656 25.0043 115.482 24.9679C115.307 24.9315 113.494 26.7154 113.902 28.0698C113.902 28.0698 111.805 29.8828 111.615 31.8706C111.426 33.8584 112.067 40.732 113.632 41.2125Z" fill="#263238"/>
<path d="M129.36 32.2342C128.368 32.772 127.3 33.155 126.192 33.3701C124.949 33.481 123.698 33.2808 122.552 32.7876C121.397 32.3414 120.324 31.7066 119.377 30.909C118.54 30.2246 117.79 29.3872 116.894 28.7756C116.668 28.6154 116.414 28.9431 116.552 29.1469C118.046 31.2575 120.181 32.8303 122.639 33.6322C123.781 34.0045 125 34.0741 126.177 33.8341C127.353 33.5942 128.448 33.053 129.352 32.2633C129.352 32.2633 129.374 32.2342 129.36 32.2342Z" fill="#263238"/>
<path d="M115.023 40.8555C115.023 40.8555 112.955 36.6615 111.091 37.3386C109.227 38.0158 110.363 43.819 112.278 44.8821C112.512 45.0338 112.775 45.1367 113.051 45.1844C113.326 45.2321 113.608 45.2238 113.88 45.1599C114.152 45.096 114.408 44.9778 114.633 44.8125C114.858 44.6471 115.048 44.438 115.19 44.1976L115.023 40.8555Z" fill="#EB9481"/>
<path d="M111.462 38.9917C111.462 38.9917 111.418 38.9917 111.462 39.05C112.787 39.8363 113.326 41.2343 113.646 42.6906C113.586 42.5364 113.493 42.3972 113.373 42.2826C113.254 42.1679 113.111 42.0806 112.955 42.0266C112.798 41.9725 112.632 41.9532 112.467 41.9698C112.302 41.9864 112.143 42.0385 112.001 42.1227C111.957 42.1227 112.001 42.2028 112.001 42.2028C112.261 42.1623 112.528 42.2035 112.764 42.3209C113 42.4383 113.194 42.6259 113.319 42.8581C113.527 43.2469 113.693 43.657 113.814 44.0813C113.857 44.2197 114.098 44.1833 114.076 44.0304C114.389 42.2173 113.37 39.4723 111.462 38.9917Z" fill="#263238"/>
<path d="M101.37 59.5831C99.9136 67.8329 108.855 95.6256 114.586 100.817C123.112 108.535 138.876 113.61 144.592 115.263C147.082 115.991 153.97 98.4654 151.451 97.3076C146.055 94.8538 129.294 89.6113 127.699 88.3006C126.105 86.99 116.493 73.1045 112.212 65.1096C106.481 54.3479 102.091 55.4109 101.37 59.5831Z" fill="#EB9481"/>
<path d="M147.206 95.7637C147.206 95.7637 154.647 97.6641 159.446 99.1276C162.125 99.9504 166.596 101.763 168.293 103.263C170.827 105.513 179.986 116.523 177.365 118.802C174.991 120.87 168.322 110.406 168.322 110.406C168.322 110.406 175.982 120.367 172.691 122.326C169.399 124.285 163.378 111.462 163.378 111.462C163.378 111.462 171.016 121.874 167.28 123.353C164.455 124.467 158.397 113.159 158.397 113.159C158.397 113.159 164.907 122.151 162.038 123.425C158.878 124.838 152.638 114.746 152.638 114.746C144.832 116.763 140.26 114.528 137.252 112.562C136.546 112.081 147.206 95.7637 147.206 95.7637Z" fill="#EB9481"/>
<path d="M165.889 106.787C166.836 107.923 167.797 109.074 168.635 110.29C169.472 111.506 170.266 112.758 170.986 114.047C171.963 115.714 172.745 117.488 173.316 119.333C172.064 116.129 169.13 111.724 168.292 110.508C167.455 109.292 166.676 108.033 165.846 106.817C165.824 106.787 165.868 106.758 165.889 106.787Z" fill="#263238"/>
<path d="M161.442 109.737C163.058 111.019 166.444 115.781 167.747 118.977C167.805 119.108 167.747 119.101 167.653 118.977C166.633 117.397 162.497 111.281 161.405 109.759C161.383 109.737 161.42 109.715 161.442 109.737Z" fill="#263238"/>
<path d="M157.166 111.601C159.175 113.708 160.762 116.179 161.841 118.882C161.892 119.013 161.79 118.991 161.71 118.882C160.203 116.428 159.038 114.513 157.086 111.666C157.057 111.601 157.123 111.535 157.166 111.601Z" fill="#263238"/>
<path d="M109.497 60.1875C102.849 50.7874 98.8731 54.2678 100.206 64.4762C101.458 74.022 104.8 85.3955 104.8 85.3955L121.547 77.2695C121.547 77.2695 113.727 66.2092 109.497 60.1875Z" fill="#CACACA"/>
<path d="M113.538 63.8867C113.758 64.4177 113.917 64.9723 114.011 65.5396C114.113 66.1087 114.15 66.6877 114.12 67.2652C113.902 66.7315 113.745 66.1745 113.654 65.6051C113.546 65.0391 113.507 64.4621 113.538 63.8867Z" fill="white"/>
<path d="M103.613 69.602C104.682 69.1673 105.832 68.9686 106.985 69.0195C106.453 69.2379 105.899 69.3942 105.332 69.4855C104.766 69.5936 104.189 69.6327 103.613 69.602Z" fill="white"/>
<path d="M104.043 54.9814C103.592 56.0456 102.919 57.0013 102.069 57.7847C102.52 56.7206 103.193 55.7649 104.043 54.9814Z" fill="white"/>
<path d="M118.234 73.9927C118.013 74.5252 117.732 75.0309 117.397 75.4999C117.07 75.9749 116.689 76.4099 116.261 76.796C116.712 75.7318 117.384 74.7762 118.234 73.9927Z" fill="white"/>
<path d="M106.584 79.6944C106.05 79.476 105.544 79.1949 105.076 78.8571C104.601 78.5308 104.166 78.1495 103.78 77.7212C104.844 78.1721 105.8 78.8448 106.584 79.6944Z" fill="white"/>
<path d="M111.681 63.02C112.576 64.2506 113.501 65.452 114.419 66.6607C114.186 66.049 113.982 65.4301 113.807 64.8039H113.851C114.033 65.2845 114.244 65.7578 114.419 66.2602L114.681 66.9883C114.703 67.038 114.723 67.0891 114.739 67.1412C115.467 68.0805 116.195 69.0198 116.865 69.981C117.688 71.1314 118.482 72.2964 119.283 73.4614C120.083 74.6264 120.892 76.0754 121.758 77.2477C121.838 77.3497 120.302 77.9758 120.134 78.0559C119.967 78.136 119.88 77.9977 120.04 77.9467C120.2 77.8957 121.423 77.1458 121.438 77.1312C120.637 75.9516 119.712 74.8667 118.875 73.7236C118.037 72.5804 117.207 71.4372 116.399 70.2795C114.761 67.9203 113.261 65.4738 111.63 63.1074L111.681 63.02Z" fill="#263238"/>
<path d="M100.598 71.2333C100.853 71.7284 101.13 72.2163 101.327 72.726L101.603 73.3595C101.217 71.5464 100.875 69.7188 100.475 67.9058C101.246 70.8183 102.026 73.7963 102.739 76.7526C103.416 79.5777 104.239 82.432 104.632 85.3154C105.14 85.0927 105.666 84.9148 106.205 84.7838C105.664 85.1338 105.082 85.4151 104.472 85.6212C103.594 82.6891 102.865 79.7145 102.288 76.7089C102.106 75.8934 101.938 75.0779 101.763 74.2623C101.574 73.7672 101.348 73.2939 101.123 72.8061C100.897 72.3182 100.693 71.7721 100.489 71.2552C100.533 71.226 100.584 71.1969 100.598 71.2333Z" fill="#263238"/>
<path d="M105.048 82.5845C107.378 81.2738 117.113 76.2352 119.29 75.3032C119.443 75.2376 119.523 75.3032 119.37 75.4051C114.749 78.0902 109.985 80.521 105.098 82.6864C105.04 82.701 104.982 82.6209 105.048 82.5845Z" fill="#263238"/>
<path d="M371.857 274.01H150.01L182.084 92.0864H403.931L371.857 274.01Z" fill="#CACACA"/>
<path d="M258.013 73.2422H185.411L182.083 92.0862H259.782L258.013 73.2422Z" fill="#CACACA"/>
<g opacity="0.1">
<path d="M371.857 274.01H150.01L182.084 92.0864H403.931L371.857 274.01Z" fill="black"/>
<path d="M258.014 73.2422H185.412L182.084 92.0862H259.783L258.014 73.2422Z" fill="black"/>
</g>
<path d="M177.577 80.9314C177.092 78.8478 177.092 76.6804 177.577 74.5967C178.062 76.6804 178.062 78.8478 177.577 80.9314Z" fill="#263238"/>
<path d="M171.125 82.7964C170.383 82.0276 169.745 81.1661 169.224 80.2333C168.679 79.32 168.251 78.3414 167.95 77.3208C168.694 78.085 169.333 78.9444 169.851 79.8765C170.395 80.7931 170.823 81.7739 171.125 82.7964Z" fill="#263238"/>
<path d="M166.465 87.6376C164.419 87.0155 162.543 85.9319 160.982 84.4702C162.003 84.7669 162.982 85.1927 163.895 85.7372C164.828 86.2607 165.691 86.8992 166.465 87.6376Z" fill="#263238"/>
<path d="M164.834 94.162C162.75 94.6475 160.583 94.6475 158.499 94.162C160.583 93.6765 162.75 93.6765 164.834 94.162Z" fill="#263238"/>
<path d="M166.728 100.613C165.955 101.35 165.094 101.989 164.164 102.513C163.251 103.058 162.273 103.483 161.252 103.78C162.021 103.039 162.882 102.4 163.815 101.88C164.727 101.333 165.706 100.907 166.728 100.613Z" fill="#263238"/>
<path d="M171.562 105.266C170.942 107.315 169.858 109.194 168.395 110.756C168.691 109.734 169.119 108.755 169.669 107.844C170.188 106.908 170.824 106.041 171.562 105.266Z" fill="#263238"/>
<path d="M178.086 106.875C178.34 107.911 178.462 108.975 178.45 110.042C178.466 111.109 178.343 112.174 178.086 113.209C177.825 112.174 177.702 111.109 177.722 110.042C177.71 108.975 177.832 107.911 178.086 106.875Z" fill="#263238"/>
<path d="M184.537 105.047C185.279 105.816 185.917 106.678 186.438 107.61C186.985 108.522 187.411 109.501 187.704 110.523C186.241 108.961 185.157 107.082 184.537 105.033V105.047Z" fill="#263238"/>
<path d="M189.19 100.169C190.212 100.463 191.191 100.889 192.103 101.436C193.036 101.956 193.897 102.595 194.666 103.336C193.644 103.042 192.665 102.616 191.753 102.069C190.821 101.549 189.959 100.91 189.19 100.169Z" fill="#263238"/>
<path d="M190.799 93.6448C192.885 93.1594 195.055 93.1594 197.141 93.6448C195.055 94.1301 192.885 94.1301 190.799 93.6448Z" fill="#263238"/>
<path d="M188.935 87.1937C189.706 86.4568 190.568 85.8207 191.498 85.3006C192.408 84.7483 193.388 84.3197 194.411 84.0264C192.849 85.49 190.97 86.5739 188.921 87.1937H188.935Z" fill="#263238"/>
<path d="M184.093 82.541C184.393 81.5213 184.818 80.5429 185.36 79.6284C185.88 78.6957 186.519 77.8342 187.26 77.0654C186.966 78.0872 186.54 79.0663 185.993 79.978C185.473 80.9107 184.834 81.7722 184.093 82.541Z" fill="#263238"/>
<path d="M371.529 274.01H149.209L117.637 98.6909H339.964L371.529 274.01Z" fill="#CACACA"/>
<path d="M194.68 205.864C199.784 205.864 203.92 201.727 203.92 196.624C203.92 191.521 199.784 187.384 194.68 187.384C189.577 187.384 185.44 191.521 185.44 196.624C185.44 201.727 189.577 205.864 194.68 205.864Z" fill="#263238"/>
<path d="M267.726 205.864C272.829 205.864 276.966 201.727 276.966 196.624C276.966 191.521 272.829 187.384 267.726 187.384C262.623 187.384 258.486 191.521 258.486 196.624C258.486 201.727 262.623 205.864 267.726 205.864Z" fill="#263238"/>
<path d="M244.477 207.343L243.967 206.375C243.923 206.288 239.147 197.463 229.543 197.463C220.805 197.463 218.621 205.771 218.563 206.127L218.301 207.183L216.182 206.674L216.436 205.61C216.436 205.509 219.043 195.278 229.543 195.278C240.465 195.278 245.686 204.948 245.904 205.363L246.414 206.324L244.477 207.343Z" fill="#263238"/>
<path d="M356.85 195.919L356.697 195.19C357.171 195.088 357.637 194.979 358.103 194.855L358.285 195.584C357.789 195.707 357.331 195.817 356.85 195.919Z" fill="#263238"/>
<path d="M361.103 194.746L360.87 194.062C361.78 193.749 362.69 193.407 363.571 193.035L363.855 193.705C362.959 194.084 362.035 194.433 361.103 194.746ZM366.527 192.424L366.2 191.783C367.051 191.339 367.903 190.858 368.712 190.327L369.09 190.946C368.26 191.521 367.394 192.009 366.527 192.424ZM371.537 189.344L371.107 188.754C371.894 188.179 372.651 187.574 373.364 186.955L373.845 187.502C373.08 188.164 372.352 188.783 371.529 189.373L371.537 189.344ZM375.978 185.47L375.447 184.968C376.117 184.24 376.75 183.511 377.333 182.783L377.908 183.227C377.304 184.028 376.656 184.778 375.993 185.499L375.978 185.47ZM379.583 180.81L378.964 180.424C379.467 179.611 379.915 178.764 380.303 177.89L380.973 178.189C380.562 179.1 380.095 179.985 379.575 180.839L379.583 180.81ZM381.993 175.407L381.265 175.203C381.531 174.29 381.728 173.358 381.854 172.415L382.582 172.509C382.462 173.499 382.262 174.478 381.985 175.436L381.993 175.407ZM382.801 169.582H382.073V169.371C382.073 168.49 382.022 167.594 381.934 166.713L382.663 166.641C382.758 167.548 382.807 168.459 382.808 169.371L382.801 169.582ZM381.49 163.881C381.294 162.942 381.051 162.014 380.762 161.1L381.49 160.881C381.789 161.828 382.044 162.789 382.218 163.728L381.49 163.881ZM379.765 158.398C379.415 157.539 379.036 156.658 378.57 155.77L379.226 155.442C379.67 156.345 380.078 157.248 380.435 158.121L379.765 158.398ZM377.216 153.207C376.765 152.413 376.27 151.576 375.76 150.716L376.379 150.33C376.91 151.197 377.413 152.042 377.835 152.85L377.216 153.207ZM374.173 148.263C373.641 147.462 373.102 146.653 372.549 145.845L373.153 145.437C373.707 146.246 374.245 147.054 374.777 147.869L374.173 148.263ZM370.896 143.442C370.35 142.641 369.797 141.833 369.258 141.032L369.862 140.624C370.401 141.425 370.947 142.234 371.493 143.027L370.896 143.442ZM367.641 138.593C367.11 137.777 366.593 136.947 366.083 136.117L366.702 135.739C367.212 136.569 367.729 137.384 368.253 138.2L367.641 138.593ZM364.605 133.591C364.11 132.71 363.651 131.836 363.236 130.999L363.891 130.671C364.299 131.501 364.758 132.36 365.238 133.234L364.605 133.591ZM362.02 128.348C361.634 127.438 361.292 126.513 360.972 125.61L361.7 125.377C362.006 126.258 362.348 127.169 362.726 128.064L362.02 128.348ZM360.127 122.792C359.887 121.846 359.675 120.878 359.515 119.88L360.243 119.763C360.404 120.695 360.6 121.642 360.841 122.574L360.127 122.792ZM359.151 116.967C359.078 116.072 359.042 115.169 359.042 114.266V114.026H359.77V114.259C359.77 115.14 359.77 116.028 359.879 116.902L359.151 116.967ZM359.879 111.142L359.151 111.07C359.151 110.873 359.188 110.669 359.209 110.458C359.297 109.679 359.406 108.9 359.537 108.157L360.265 108.281C360.142 109.009 360.032 109.773 359.945 110.538C359.974 110.764 359.974 110.96 359.916 111.164L359.879 111.142ZM360.891 105.478L360.163 105.281C360.433 104.32 360.746 103.381 361.095 102.485L361.772 102.747C361.442 103.649 361.16 104.567 360.928 105.499L360.891 105.478ZM397.174 101.233C396.767 101.233 396.344 101.174 395.929 101.116C395.361 101.036 394.793 100.941 394.233 100.832L394.378 100.104C394.917 100.206 395.478 100.301 396.031 100.381C396.424 100.432 396.825 100.468 397.211 100.49L397.174 101.233ZM400.167 101.007L400.014 100.279C400.928 100.09 401.804 99.7504 402.606 99.2738L402.985 99.8928C402.127 100.423 401.187 100.807 400.203 101.029L400.167 101.007ZM362.988 100.14L362.34 99.7981C362.804 98.9297 363.317 98.0886 363.877 97.2788L364.474 97.6938C363.942 98.4867 363.458 99.311 363.025 100.162L362.988 100.14ZM391.386 100.097C390.446 99.7984 389.522 99.4509 388.619 99.0554L388.917 98.3855C389.793 98.7745 390.69 99.1124 391.604 99.3976L391.386 100.097ZM405.22 97.8249L404.616 97.4171C405.134 96.665 405.441 95.7873 405.504 94.8759L406.232 94.9269C406.17 95.9714 405.828 96.98 405.242 97.8467L405.22 97.8249ZM385.997 97.7156C385.145 97.2203 384.321 96.6783 383.529 96.0919L383.959 95.5094C384.73 96.078 385.532 96.6031 386.362 97.0822L385.997 97.7156ZM366.265 95.4439L365.726 94.956C366.386 94.2228 367.088 93.5298 367.831 92.8808L368.311 93.4269C367.597 94.0661 366.921 94.7468 366.287 95.4657L366.265 95.4439ZM381.257 94.2133C380.532 93.5453 379.844 92.8379 379.197 92.0945L379.743 91.6139C380.373 92.3361 381.041 93.0239 381.745 93.6745L381.257 94.2133ZM404.958 92.2401C404.541 91.408 403.964 90.6658 403.261 90.0557L403.742 89.5096C404.516 90.1788 405.151 90.9925 405.613 91.9051L404.958 92.2401ZM370.576 91.6649L370.161 91.0678C370.975 90.5117 371.819 89.9988 372.687 89.5314L373.029 90.1722C372.193 90.6344 371.381 91.14 370.597 91.6867L370.576 91.6649ZM377.376 89.7717C377.1 89.3785 376.83 88.9781 376.575 88.563L375.629 88.9344L375.352 88.2645L376.19 87.9296C376.058 87.7111 375.927 87.4927 375.804 87.2742L376.437 86.9175C376.583 87.1723 376.728 87.4271 376.881 87.6456C377.289 87.5 377.704 87.3616 378.126 87.2305L378.337 87.9587C377.981 88.0679 377.609 88.1844 377.274 88.3082C377.5 88.665 377.733 89.0363 378.003 89.3494L377.376 89.7717ZM400.917 88.5193C400.212 88.1682 399.482 87.8713 398.732 87.631L398.252 87.4781L398.463 86.75L398.958 86.9102C399.738 87.1588 400.498 87.468 401.23 87.8349L400.917 88.5193ZM381.126 87.216L380.973 86.4879C381.913 86.2767 382.888 86.1019 383.886 85.9636L383.995 86.6917C383.034 86.8446 382.08 87.0267 381.148 87.2378L381.126 87.216ZM395.47 86.8228C394.56 86.6626 393.599 86.5388 392.616 86.4515L392.674 85.7233C393.686 85.8107 394.669 85.9345 395.587 86.1019L395.47 86.8228ZM386.842 86.4005L386.791 85.6723C387.658 85.6214 388.524 85.5923 389.383 85.5923H389.74V86.3204H389.391C388.568 86.3422 387.709 86.3641 386.864 86.4223L386.842 86.4005ZM374.537 84.6602C374.143 83.7719 373.809 82.8472 373.481 81.9079L374.209 81.6822C374.515 82.5996 374.857 83.5025 375.236 84.369L374.537 84.6602ZM372.694 79.0682C372.476 78.1289 372.294 77.1532 372.156 76.1557L372.884 76.0537C373.022 77.0149 373.197 77.9687 373.408 78.8934L372.694 79.0682ZM371.879 73.2431C371.843 72.5878 371.821 71.9179 371.821 71.2481C371.821 70.935 371.821 70.6146 371.821 70.3015H372.549C372.549 70.6146 372.549 70.9204 372.549 71.2335C372.549 71.8888 372.549 72.5514 372.6 73.1849L371.879 73.2431ZM372.745 67.4181L372.017 67.3453C372.119 66.3841 372.258 65.4012 372.425 64.4328L373.153 64.5565C372.957 65.5249 372.818 66.457 372.724 67.4326L372.745 67.4181ZM373.743 61.7314L373.015 61.5566C373.248 60.6173 373.517 59.6708 373.816 58.7242L374.544 58.9499C374.216 59.9038 373.947 60.8285 373.721 61.7459L373.743 61.7314ZM375.491 56.2194L374.813 55.9573C375.17 55.0471 375.541 54.137 375.986 53.2559L376.641 53.5763C376.204 54.4501 375.818 55.3384 375.469 56.2631L375.491 56.2194ZM377.995 51.0278L377.362 50.6565C377.857 49.8192 378.388 48.9818 378.942 48.1809L379.539 48.5959C378.971 49.3968 378.454 50.2123 377.973 51.0424L377.995 51.0278ZM381.279 46.2877L380.711 45.829C381.323 45.1009 381.978 44.329 382.655 43.6446L383.18 44.147C382.495 44.8314 381.854 45.5596 381.257 46.3023L381.279 46.2877ZM385.24 42.0937L384.752 41.5549C385.48 40.9068 386.209 40.2661 386.988 39.6472L387.439 40.2224C386.66 40.8413 385.917 41.4748 385.218 42.1082L385.24 42.0937ZM389.762 38.4967L389.347 37.8924C390.141 37.3463 390.971 36.8074 391.815 36.2977L392.187 36.9167C391.342 37.4336 390.556 37.9652 389.74 38.5113L389.762 38.4967ZM394.706 35.4895L394.364 34.8488C395.223 34.39 396.111 33.9532 396.999 33.5454L397.305 34.208C396.381 34.623 395.529 35.0599 394.684 35.5041L394.706 35.4895ZM399.97 33.0721L399.701 32.3877C400.618 32.0309 401.543 31.6595 402.46 31.3901L402.693 32.1183C401.769 32.395 400.851 32.7299 399.948 33.0867L399.97 33.0721Z" fill="#263238"/>
<path d="M405.584 31.2301L405.402 30.5019C406.305 30.2689 406.859 30.167 406.859 30.167L406.99 30.8951C406.99 30.8951 406.465 31.0043 405.584 31.2301Z" fill="#263238"/>
<path d="M418.457 26.5268C416.6 20.7746 404.164 22.8424 406.589 30.364C409.013 37.8856 420.314 32.2863 418.457 26.5268Z" fill="#263238"/>
<path d="M399.824 24.2255C399.919 21.6989 403.428 19.7548 408.394 20.6504C413.36 21.546 418.028 24.8954 418.028 24.8954C418.028 24.8954 413.127 27.8661 408.11 28.4122C403.094 28.9583 399.73 26.7448 399.824 24.2255Z" fill="#EBEBEB"/>
<path d="M418.027 24.8804C415.45 24.8804 412.879 24.8076 410.309 24.7275C407.739 24.6474 405.161 24.5164 402.591 24.3125C405.168 24.3125 407.746 24.378 410.316 24.4581C412.887 24.5382 415.464 24.6693 418.027 24.8804Z" fill="#263238"/>
<path d="M404.812 21.9756C406.276 22.6756 407.656 23.5378 408.926 24.5459C408.194 24.2023 407.484 23.8132 406.8 23.3809C406.111 22.9516 405.447 22.4823 404.812 21.9756Z" fill="#263238"/>
<path d="M411.561 24.6406C410.244 25.7081 408.816 26.6309 407.302 27.393C408.626 26.3241 410.061 25.4013 411.583 24.6406H411.561Z" fill="#263238"/>
<path d="M412.312 23.2207C413.046 23.5735 413.689 24.0919 414.19 24.7352C413.823 24.5618 413.478 24.3442 413.163 24.0872C412.847 23.8318 412.562 23.5411 412.312 23.2207Z" fill="#263238"/>
<path d="M404.558 39.1889C406.109 41.184 410.091 40.7035 413.594 37.0774C417.096 33.4513 418.953 27.9976 418.953 27.9976C418.953 27.9976 413.215 28.4344 408.839 30.9101C404.463 33.3857 402.999 37.1866 404.558 39.1889Z" fill="#EBEBEB"/>
<path d="M418.953 27.9976C416.856 29.4538 414.817 31.0703 412.771 32.6358C410.725 34.2012 408.722 35.8177 406.764 37.4851C408.861 36.0288 410.899 34.4197 412.938 32.8542C414.977 31.2887 416.965 29.6723 418.953 27.9976Z" fill="#263238"/>
<path d="M409.909 38.0605C410.298 37.3532 410.646 36.6238 410.95 35.8761C411.26 35.1263 411.523 34.3578 411.737 33.5752C411.346 34.2819 410.999 35.0113 410.696 35.7596C410.389 36.5105 410.126 37.2788 409.909 38.0605Z" fill="#263238"/>
<path d="M413.856 31.9728C412.152 31.8817 410.443 31.972 408.759 32.2422C409.608 32.2932 410.459 32.2932 411.307 32.2422C412.161 32.2006 413.012 32.1106 413.856 31.9728Z" fill="#263238"/>
<path d="M415.261 32.6933C415.455 32.3337 415.607 31.9524 415.712 31.5574C415.82 31.1652 415.883 30.7622 415.902 30.356C415.514 31.0768 415.295 31.8758 415.261 32.6933Z" fill="#263238"/>
<path d="M418.458 26.5267C418.046 26.6602 417.605 26.6687 417.189 26.5511C416.773 26.4334 416.401 26.195 416.121 25.866C415.84 25.5369 415.664 25.132 415.613 24.7026C415.563 24.2731 415.642 23.8385 415.839 23.4536C416.036 23.0688 416.342 22.751 416.72 22.5407C417.098 22.3303 417.53 22.2367 417.96 22.2719C418.391 22.307 418.802 22.4692 419.141 22.7379C419.48 23.0067 419.731 23.3699 419.863 23.7816C420.04 24.332 419.991 24.9299 419.727 25.4445C419.464 25.959 419.007 26.3481 418.458 26.5267Z" fill="#455A64"/>
<path d="M419.797 30.6841C419.386 30.8171 418.945 30.8252 418.53 30.7075C418.114 30.5898 417.743 30.3515 417.462 30.0227C417.182 29.694 417.006 29.2895 416.955 28.8605C416.905 28.4315 416.983 27.9972 417.179 27.6125C417.376 27.2277 417.682 26.9099 418.059 26.6991C418.436 26.4883 418.867 26.3941 419.298 26.4282C419.728 26.4624 420.139 26.6235 420.478 26.8911C420.817 27.1587 421.069 27.5209 421.203 27.9317C421.291 28.2047 421.325 28.4925 421.302 28.7786C421.28 29.0647 421.201 29.3435 421.07 29.5991C420.94 29.8547 420.76 30.0821 420.542 30.2683C420.323 30.4544 420.07 30.5957 419.797 30.6841Z" fill="#455A64"/>
<path d="M181.078 28.8269C180.729 32.1713 179.458 35.353 177.406 38.0169C175.354 40.6808 172.602 42.7221 169.457 43.913C166.313 45.1039 162.899 45.3976 159.597 44.7613C156.295 44.125 153.235 42.5837 150.759 40.3095L141.679 41.642L146.222 33.7927C145.183 31.2387 144.74 28.4815 144.926 25.7305C145.112 22.9795 145.923 20.3071 147.296 17.9163C148.67 15.5255 150.57 13.4791 152.853 11.9327C155.136 10.3862 157.741 9.38035 160.47 8.99145C163.2 8.60255 165.983 8.84087 168.606 9.68829C171.23 10.5357 173.626 11.9699 175.613 13.8821C177.599 15.7942 179.124 18.1339 180.071 20.7234C181.018 23.313 181.362 26.0843 181.078 28.8269Z" fill="white"/>
<path d="M181.078 28.8262C180.737 32.1689 179.477 35.3518 177.438 38.0225C176.441 39.3732 175.24 40.5599 173.877 41.5394C172.544 42.5556 171.073 43.377 169.508 43.9786C167.943 44.5952 166.298 44.9874 164.623 45.1436C163.785 45.2188 162.943 45.2358 162.103 45.1946C161.26 45.173 160.42 45.0853 159.591 44.9325C156.245 44.3168 153.136 42.7813 150.613 40.4982L150.825 40.5637L141.759 41.9544L141.097 42.0564L141.432 41.4739L145.946 33.61V33.9231C144.881 31.322 144.428 28.5107 144.622 25.7066C144.817 22.9025 145.653 20.1806 147.067 17.7513C148.48 15.3297 150.421 13.2587 152.747 11.6933C155.069 10.1486 157.71 9.14966 160.473 8.77136C163.236 8.39305 166.049 8.64519 168.7 9.50889C171.324 10.4014 173.714 11.8692 175.698 13.8049C177.676 15.7357 179.189 18.0918 180.121 20.6946C181.054 23.2973 181.381 26.0782 181.078 28.8262ZM181.078 28.8262C181.373 26.0917 181.035 23.3261 180.09 20.7431C179.146 18.16 177.62 15.8285 175.632 13.9286C173.643 12.0286 171.245 10.6111 168.621 9.78548C165.998 8.95982 163.22 8.7481 160.501 9.16667C157.81 9.56498 155.247 10.5764 153.009 12.1229C150.79 13.6815 148.937 15.7039 147.577 18.0499C146.238 20.4011 145.449 23.0248 145.269 25.7244C145.092 28.4422 145.53 31.165 146.55 33.6901L146.616 33.8503L146.529 34.0032L141.956 41.8379L141.636 41.3574L150.723 40.0831H150.846L150.934 40.1632C153.363 42.4241 156.373 43.9645 159.628 44.6121C160.439 44.7773 161.262 44.8772 162.089 44.9106C162.915 44.9689 163.745 44.9689 164.572 44.9106C166.229 44.7771 167.861 44.4169 169.421 43.8403C170.984 43.2711 172.456 42.4763 173.79 41.4811C175.147 40.5095 176.35 39.3386 177.358 38.008C179.423 35.3502 180.711 32.1719 181.078 28.8262Z" fill="#263238"/>
<path d="M154.159 35.4008C154.145 35.1597 154.181 34.9183 154.264 34.6916C154.347 34.465 154.476 34.2578 154.643 34.083C154.809 33.9082 155.01 33.7695 155.233 33.6756C155.455 33.5816 155.694 33.5343 155.936 33.5367C156.43 33.5367 156.904 33.7331 157.254 34.0827C157.603 34.4323 157.8 34.9064 157.8 35.4008C157.8 35.8951 157.603 36.3692 157.254 36.7188C156.904 37.0684 156.43 37.2648 155.936 37.2648C155.694 37.2672 155.455 37.2199 155.233 37.1259C155.01 37.032 154.809 36.8933 154.643 36.7185C154.476 36.5437 154.347 36.3365 154.264 36.1099C154.181 35.8832 154.145 35.6418 154.159 35.4008ZM154.887 31.0975L154.465 16.6514H157.378L156.955 31.0975H154.887Z" fill="#CACACA"/>
<path d="M161.084 35.4008C161.07 35.1603 161.106 34.9196 161.188 34.6934C161.271 34.4672 161.399 34.2604 161.565 34.0857C161.731 33.911 161.931 33.7722 162.152 33.6777C162.374 33.5833 162.613 33.5353 162.853 33.5367C163.348 33.5367 163.822 33.7331 164.171 34.0827C164.521 34.4323 164.717 34.9064 164.717 35.4008C164.717 35.8951 164.521 36.3692 164.171 36.7188C163.822 37.0684 163.348 37.2648 162.853 37.2648C162.613 37.2662 162.374 37.2182 162.152 37.1238C161.931 37.0294 161.731 36.8905 161.565 36.7158C161.399 36.5411 161.271 36.3343 161.188 36.1081C161.106 35.882 161.07 35.6412 161.084 35.4008ZM161.812 31.0975L161.412 16.6514H164.324L163.902 31.0975H161.812Z" fill="#CACACA"/>
<path d="M168.001 35.4008C167.987 35.1597 168.023 34.9183 168.106 34.6916C168.189 34.465 168.318 34.2578 168.485 34.083C168.651 33.9082 168.852 33.7695 169.074 33.6756C169.297 33.5816 169.536 33.5343 169.778 33.5367C170.272 33.5367 170.746 33.7331 171.096 34.0827C171.445 34.4323 171.642 34.9064 171.642 35.4008C171.642 35.8951 171.445 36.3692 171.096 36.7188C170.746 37.0684 170.272 37.2648 169.778 37.2648C169.536 37.2672 169.297 37.2199 169.074 37.1259C168.852 37.032 168.651 36.8933 168.485 36.7185C168.318 36.5437 168.189 36.3365 168.106 36.1099C168.023 35.8832 167.987 35.6418 168.001 35.4008ZM168.729 31.0975L168.307 16.6514H171.219L170.804 31.0975H168.729Z" fill="#CACACA"/>
<path d="M94.703 349.966V338.33H98.7712C99.5818 338.33 100.25 338.47 100.777 338.75C101.303 339.027 101.695 339.4 101.953 339.87C102.211 340.336 102.339 340.853 102.339 341.421C102.339 341.921 102.25 342.334 102.072 342.659C101.898 342.985 101.667 343.243 101.379 343.432C101.095 343.622 100.786 343.762 100.453 343.853V343.966C100.809 343.989 101.167 344.114 101.527 344.341C101.887 344.569 102.188 344.894 102.43 345.319C102.673 345.743 102.794 346.262 102.794 346.875C102.794 347.459 102.661 347.983 102.396 348.449C102.131 348.915 101.713 349.284 101.141 349.557C100.569 349.83 99.8242 349.966 98.9076 349.966H94.703ZM96.1121 348.716H98.9076C99.828 348.716 100.481 348.538 100.868 348.182C101.258 347.822 101.453 347.387 101.453 346.875C101.453 346.481 101.353 346.118 101.152 345.784C100.951 345.447 100.665 345.178 100.294 344.978C99.9227 344.773 99.4833 344.671 98.9758 344.671H96.1121V348.716ZM96.1121 343.444H98.7258C99.15 343.444 99.5326 343.36 99.8735 343.194C100.218 343.027 100.491 342.792 100.692 342.489C100.896 342.186 100.998 341.83 100.998 341.421C100.998 340.909 100.82 340.476 100.464 340.12C100.108 339.76 99.5439 339.58 98.7712 339.58H96.1121V343.444ZM108.587 350.148C107.746 350.148 107.02 349.963 106.41 349.591C105.804 349.216 105.337 348.694 105.007 348.023C104.681 347.349 104.518 346.565 104.518 345.671C104.518 344.777 104.681 343.989 105.007 343.307C105.337 342.622 105.795 342.088 106.382 341.705C106.973 341.319 107.662 341.125 108.45 341.125C108.905 341.125 109.354 341.201 109.797 341.353C110.24 341.504 110.643 341.75 111.007 342.091C111.371 342.428 111.66 342.875 111.876 343.432C112.092 343.989 112.2 344.675 112.2 345.489V346.057H105.473V344.898H110.837C110.837 344.406 110.738 343.966 110.541 343.58C110.348 343.194 110.071 342.889 109.712 342.665C109.355 342.442 108.935 342.33 108.45 342.33C107.916 342.33 107.454 342.463 107.064 342.728C106.677 342.989 106.38 343.33 106.172 343.75C105.963 344.171 105.859 344.622 105.859 345.103V345.875C105.859 346.534 105.973 347.093 106.2 347.552C106.431 348.006 106.751 348.353 107.16 348.591C107.57 348.826 108.045 348.944 108.587 348.944C108.939 348.944 109.257 348.894 109.541 348.796C109.829 348.694 110.077 348.542 110.285 348.341C110.494 348.137 110.655 347.883 110.768 347.58L112.064 347.944C111.927 348.383 111.698 348.769 111.376 349.103C111.054 349.432 110.657 349.69 110.183 349.875C109.71 350.057 109.177 350.148 108.587 350.148ZM115.581 338.33V349.966H114.24V338.33H115.581ZM123.537 346.398V341.239H124.878V349.966H123.537V348.489H123.446C123.241 348.932 122.923 349.309 122.491 349.62C122.06 349.927 121.514 350.08 120.855 350.08C120.31 350.08 119.825 349.961 119.4 349.722C118.976 349.48 118.643 349.116 118.4 348.631C118.158 348.142 118.037 347.527 118.037 346.784V341.239H119.378V346.694C119.378 347.33 119.556 347.838 119.912 348.216C120.272 348.595 120.73 348.784 121.287 348.784C121.62 348.784 121.959 348.699 122.304 348.529C122.652 348.358 122.944 348.097 123.179 347.745C123.418 347.392 123.537 346.944 123.537 346.398ZM127.334 349.966V341.239H128.629V342.603H128.743C128.925 342.137 129.218 341.775 129.623 341.517C130.029 341.256 130.516 341.125 131.084 341.125C131.659 341.125 132.139 341.256 132.521 341.517C132.908 341.775 133.209 342.137 133.425 342.603H133.516C133.739 342.152 134.074 341.794 134.521 341.529C134.968 341.26 135.504 341.125 136.129 341.125C136.909 341.125 137.548 341.37 138.044 341.858C138.54 342.343 138.788 343.099 138.788 344.125V349.966H137.447V344.125C137.447 343.481 137.271 343.021 136.919 342.745C136.567 342.468 136.152 342.33 135.675 342.33C135.061 342.33 134.586 342.516 134.248 342.887C133.911 343.254 133.743 343.72 133.743 344.284V349.966H132.379V343.989C132.379 343.493 132.218 343.093 131.896 342.79C131.574 342.483 131.159 342.33 130.652 342.33C130.303 342.33 129.978 342.423 129.675 342.608C129.375 342.794 129.133 343.052 128.947 343.381C128.766 343.707 128.675 344.084 128.675 344.512V349.966H127.334ZM148.308 350.171C147.755 350.171 147.253 350.067 146.802 349.858C146.352 349.646 145.994 349.341 145.729 348.944C145.463 348.542 145.331 348.057 145.331 347.489C145.331 346.989 145.429 346.584 145.626 346.273C145.823 345.959 146.087 345.713 146.416 345.534C146.746 345.356 147.109 345.224 147.507 345.137C147.909 345.046 148.312 344.974 148.717 344.921C149.248 344.853 149.677 344.802 150.007 344.767C150.34 344.73 150.583 344.667 150.734 344.58C150.89 344.493 150.967 344.341 150.967 344.125V344.08C150.967 343.519 150.814 343.084 150.507 342.773C150.204 342.463 149.744 342.307 149.126 342.307C148.486 342.307 147.984 342.447 147.621 342.728C147.257 343.008 147.001 343.307 146.854 343.625L145.581 343.171C145.808 342.641 146.111 342.228 146.49 341.932C146.873 341.633 147.289 341.425 147.74 341.307C148.195 341.186 148.641 341.125 149.081 341.125C149.361 341.125 149.683 341.159 150.047 341.228C150.414 341.292 150.768 341.427 151.109 341.631C151.454 341.836 151.74 342.144 151.967 342.557C152.195 342.97 152.308 343.523 152.308 344.216V349.966H150.967V348.784H150.899C150.808 348.974 150.657 349.177 150.445 349.392C150.232 349.608 149.95 349.792 149.598 349.944C149.246 350.095 148.816 350.171 148.308 350.171ZM148.513 348.966C149.043 348.966 149.49 348.862 149.854 348.654C150.221 348.445 150.498 348.177 150.683 347.847C150.873 347.517 150.967 347.171 150.967 346.807V345.58C150.91 345.648 150.785 345.711 150.592 345.767C150.403 345.82 150.183 345.868 149.933 345.909C149.687 345.947 149.446 345.981 149.212 346.012C148.98 346.038 148.793 346.061 148.649 346.08C148.301 346.125 147.975 346.199 147.672 346.302C147.373 346.4 147.13 346.55 146.945 346.75C146.763 346.947 146.672 347.216 146.672 347.557C146.672 348.023 146.844 348.375 147.189 348.614C147.537 348.849 147.979 348.966 148.513 348.966ZM158.051 350.148C157.324 350.148 156.682 349.964 156.125 349.597C155.568 349.226 155.132 348.703 154.818 348.029C154.504 347.351 154.347 346.55 154.347 345.625C154.347 344.709 154.504 343.913 154.818 343.239C155.132 342.565 155.57 342.044 156.131 341.677C156.691 341.309 157.339 341.125 158.074 341.125C158.642 341.125 159.091 341.22 159.42 341.409C159.754 341.595 160.007 341.807 160.182 342.046C160.36 342.281 160.498 342.474 160.597 342.625H160.71V338.33H162.051V349.966H160.756V348.625H160.597C160.498 348.784 160.358 348.985 160.176 349.228C159.994 349.466 159.735 349.68 159.398 349.87C159.061 350.055 158.612 350.148 158.051 350.148ZM158.233 348.944C158.771 348.944 159.225 348.803 159.597 348.523C159.968 348.239 160.25 347.847 160.443 347.347C160.636 346.843 160.733 346.262 160.733 345.603C160.733 344.951 160.638 344.381 160.449 343.892C160.259 343.4 159.979 343.017 159.608 342.745C159.237 342.468 158.778 342.33 158.233 342.33C157.665 342.33 157.191 342.476 156.812 342.767C156.437 343.055 156.155 343.447 155.966 343.944C155.78 344.436 155.687 344.989 155.687 345.603C155.687 346.224 155.782 346.788 155.972 347.296C156.165 347.8 156.449 348.201 156.824 348.5C157.203 348.796 157.672 348.944 158.233 348.944ZM167.261 350.171C166.708 350.171 166.206 350.067 165.756 349.858C165.305 349.646 164.947 349.341 164.682 348.944C164.417 348.542 164.284 348.057 164.284 347.489C164.284 346.989 164.382 346.584 164.579 346.273C164.776 345.959 165.04 345.713 165.369 345.534C165.699 345.356 166.062 345.224 166.46 345.137C166.862 345.046 167.265 344.974 167.67 344.921C168.201 344.853 168.631 344.802 168.96 344.767C169.293 344.73 169.536 344.667 169.687 344.58C169.843 344.493 169.92 344.341 169.92 344.125V344.08C169.92 343.519 169.767 343.084 169.46 342.773C169.157 342.463 168.697 342.307 168.079 342.307C167.439 342.307 166.937 342.447 166.574 342.728C166.21 343.008 165.954 343.307 165.807 343.625L164.534 343.171C164.761 342.641 165.064 342.228 165.443 341.932C165.826 341.633 166.242 341.425 166.693 341.307C167.148 341.186 167.595 341.125 168.034 341.125C168.314 341.125 168.636 341.159 169 341.228C169.367 341.292 169.722 341.427 170.062 341.631C170.407 341.836 170.693 342.144 170.92 342.557C171.148 342.97 171.261 343.523 171.261 344.216V349.966H169.92V348.784H169.852C169.761 348.974 169.61 349.177 169.398 349.392C169.186 349.608 168.903 349.792 168.551 349.944C168.199 350.095 167.769 350.171 167.261 350.171ZM167.466 348.966C167.996 348.966 168.443 348.862 168.807 348.654C169.174 348.445 169.451 348.177 169.636 347.847C169.826 347.517 169.92 347.171 169.92 346.807V345.58C169.864 345.648 169.739 345.711 169.545 345.767C169.356 345.82 169.136 345.868 168.886 345.909C168.64 345.947 168.4 345.981 168.165 346.012C167.934 346.038 167.746 346.061 167.602 346.08C167.254 346.125 166.928 346.199 166.625 346.302C166.326 346.4 166.083 346.55 165.898 346.75C165.716 346.947 165.625 347.216 165.625 347.557C165.625 348.023 165.797 348.375 166.142 348.614C166.49 348.849 166.932 348.966 167.466 348.966ZM179.55 338.33V349.966H178.209V338.33H179.55ZM184.574 350.171C184.021 350.171 183.519 350.067 183.068 349.858C182.617 349.646 182.259 349.341 181.994 348.944C181.729 348.542 181.597 348.057 181.597 347.489C181.597 346.989 181.695 346.584 181.892 346.273C182.089 345.959 182.352 345.713 182.682 345.534C183.011 345.356 183.375 345.224 183.773 345.137C184.174 345.046 184.578 344.974 184.983 344.921C185.513 344.853 185.943 344.802 186.273 344.767C186.606 344.73 186.848 344.667 187 344.58C187.155 344.493 187.233 344.341 187.233 344.125V344.08C187.233 343.519 187.079 343.084 186.773 342.773C186.47 342.463 186.009 342.307 185.392 342.307C184.752 342.307 184.25 342.447 183.886 342.728C183.523 343.008 183.267 343.307 183.119 343.625L181.847 343.171C182.074 342.641 182.377 342.228 182.756 341.932C183.138 341.633 183.555 341.425 184.006 341.307C184.46 341.186 184.907 341.125 185.347 341.125C185.627 341.125 185.949 341.159 186.312 341.228C186.68 341.292 187.034 341.427 187.375 341.631C187.72 341.836 188.006 342.144 188.233 342.557C188.46 342.97 188.574 343.523 188.574 344.216V349.966H187.233V348.784H187.165C187.074 348.974 186.922 349.177 186.71 349.392C186.498 349.608 186.216 349.792 185.864 349.944C185.511 350.095 185.081 350.171 184.574 350.171ZM184.778 348.966C185.309 348.966 185.756 348.862 186.119 348.654C186.487 348.445 186.763 348.177 186.949 347.847C187.138 347.517 187.233 347.171 187.233 346.807V345.58C187.176 345.648 187.051 345.711 186.858 345.767C186.668 345.82 186.449 345.868 186.199 345.909C185.953 345.947 185.712 345.981 185.477 346.012C185.246 346.038 185.059 346.061 184.915 346.08C184.566 346.125 184.24 346.199 183.937 346.302C183.638 346.4 183.396 346.55 183.21 346.75C183.028 346.947 182.937 347.216 182.937 347.557C182.937 348.023 183.11 348.375 183.454 348.614C183.803 348.849 184.244 348.966 184.778 348.966ZM191.572 353.239C191.345 353.239 191.142 353.22 190.964 353.182C190.786 353.148 190.663 353.114 190.595 353.08L190.936 351.898C191.262 351.981 191.55 352.012 191.8 351.989C192.05 351.966 192.271 351.855 192.464 351.654C192.661 351.457 192.841 351.137 193.004 350.694L193.254 350.012L190.027 341.239H191.481L193.891 348.194H193.981L196.391 341.239H197.845L194.141 351.239C193.974 351.69 193.767 352.063 193.521 352.358C193.275 352.658 192.989 352.879 192.663 353.023C192.341 353.167 191.978 353.239 191.572 353.239ZM201.918 350.171C201.364 350.171 200.863 350.067 200.412 349.858C199.961 349.646 199.603 349.341 199.338 348.944C199.073 348.542 198.94 348.057 198.94 347.489C198.94 346.989 199.039 346.584 199.236 346.273C199.433 345.959 199.696 345.713 200.025 345.534C200.355 345.356 200.719 345.224 201.116 345.137C201.518 345.046 201.921 344.974 202.327 344.921C202.857 344.853 203.287 344.802 203.616 344.767C203.95 344.73 204.192 344.667 204.344 344.58C204.499 344.493 204.577 344.341 204.577 344.125V344.08C204.577 343.519 204.423 343.084 204.116 342.773C203.813 342.463 203.353 342.307 202.736 342.307C202.096 342.307 201.594 342.447 201.23 342.728C200.866 343.008 200.611 343.307 200.463 343.625L199.19 343.171C199.418 342.641 199.721 342.228 200.099 341.932C200.482 341.633 200.899 341.425 201.349 341.307C201.804 341.186 202.251 341.125 202.69 341.125C202.971 341.125 203.293 341.159 203.656 341.228C204.024 341.292 204.378 341.427 204.719 341.631C205.063 341.836 205.349 342.144 205.577 342.557C205.804 342.97 205.918 343.523 205.918 344.216V349.966H204.577V348.784H204.508C204.418 348.974 204.266 349.177 204.054 349.392C203.842 349.608 203.56 349.792 203.207 349.944C202.855 350.095 202.425 350.171 201.918 350.171ZM202.122 348.966C202.652 348.966 203.099 348.862 203.463 348.654C203.83 348.445 204.107 348.177 204.293 347.847C204.482 347.517 204.577 347.171 204.577 346.807V345.58C204.52 345.648 204.395 345.711 204.202 345.767C204.012 345.82 203.793 345.868 203.543 345.909C203.296 345.947 203.056 345.981 202.821 346.012C202.59 346.038 202.402 346.061 202.258 346.08C201.91 346.125 201.584 346.199 201.281 346.302C200.982 346.4 200.739 346.55 200.554 346.75C200.372 346.947 200.281 347.216 200.281 347.557C200.281 348.023 200.454 348.375 200.798 348.614C201.147 348.849 201.588 348.966 202.122 348.966ZM209.706 344.716V349.966H208.365V341.239H209.66V342.603H209.774C209.979 342.159 210.289 341.803 210.706 341.534C211.123 341.262 211.66 341.125 212.32 341.125C212.91 341.125 213.427 341.247 213.871 341.489C214.314 341.728 214.659 342.091 214.905 342.58C215.151 343.065 215.274 343.678 215.274 344.421V349.966H213.933V344.512C213.933 343.826 213.755 343.292 213.399 342.909C213.043 342.523 212.554 342.33 211.933 342.33C211.505 342.33 211.123 342.423 210.785 342.608C210.452 342.794 210.189 343.065 209.996 343.421C209.802 343.777 209.706 344.209 209.706 344.716ZM220.293 350.171C219.739 350.171 219.238 350.067 218.787 349.858C218.336 349.646 217.978 349.341 217.713 348.944C217.448 348.542 217.315 348.057 217.315 347.489C217.315 346.989 217.414 346.584 217.611 346.273C217.808 345.959 218.071 345.713 218.4 345.534C218.73 345.356 219.094 345.224 219.491 345.137C219.893 345.046 220.296 344.974 220.702 344.921C221.232 344.853 221.662 344.802 221.991 344.767C222.325 344.73 222.567 344.667 222.719 344.58C222.874 344.493 222.952 344.341 222.952 344.125V344.08C222.952 343.519 222.798 343.084 222.491 342.773C222.188 342.463 221.728 342.307 221.111 342.307C220.471 342.307 219.969 342.447 219.605 342.728C219.241 343.008 218.986 343.307 218.838 343.625L217.565 343.171C217.793 342.641 218.096 342.228 218.474 341.932C218.857 341.633 219.274 341.425 219.724 341.307C220.179 341.186 220.626 341.125 221.065 341.125C221.346 341.125 221.668 341.159 222.031 341.228C222.399 341.292 222.753 341.427 223.094 341.631C223.438 341.836 223.724 342.144 223.952 342.557C224.179 342.97 224.293 343.523 224.293 344.216V349.966H222.952V348.784H222.883C222.793 348.974 222.641 349.177 222.429 349.392C222.217 349.608 221.935 349.792 221.582 349.944C221.23 350.095 220.8 350.171 220.293 350.171ZM220.497 348.966C221.027 348.966 221.474 348.862 221.838 348.654C222.205 348.445 222.482 348.177 222.668 347.847C222.857 347.517 222.952 347.171 222.952 346.807V345.58C222.895 345.648 222.77 345.711 222.577 345.767C222.387 345.82 222.168 345.868 221.918 345.909C221.671 345.947 221.431 345.981 221.196 346.012C220.965 346.038 220.777 346.061 220.633 346.08C220.285 346.125 219.959 346.199 219.656 346.302C219.357 346.4 219.114 346.55 218.929 346.75C218.747 346.947 218.656 347.216 218.656 347.557C218.656 348.023 218.829 348.375 219.173 348.614C219.522 348.849 219.963 348.966 220.497 348.966ZM228.081 344.716V349.966H226.74V341.239H228.035V342.603H228.149C228.354 342.159 228.664 341.803 229.081 341.534C229.498 341.262 230.035 341.125 230.695 341.125C231.285 341.125 231.802 341.247 232.246 341.489C232.689 341.728 233.034 342.091 233.28 342.58C233.526 343.065 233.649 343.678 233.649 344.421V349.966H232.308V344.512C232.308 343.826 232.13 343.292 231.774 342.909C231.418 342.523 230.929 342.33 230.308 342.33C229.88 342.33 229.498 342.423 229.16 342.608C228.827 342.794 228.564 343.065 228.371 343.421C228.177 343.777 228.081 344.209 228.081 344.716ZM241.463 353.239C241.236 353.239 241.033 353.22 240.855 353.182C240.677 353.148 240.554 353.114 240.486 353.08L240.827 351.898C241.152 351.981 241.44 352.012 241.69 351.989C241.94 351.966 242.162 351.855 242.355 351.654C242.552 351.457 242.732 351.137 242.895 350.694L243.145 350.012L239.918 341.239H241.372L243.781 348.194H243.872L246.281 341.239H247.736L244.031 351.239C243.864 351.69 243.658 352.063 243.412 352.358C243.166 352.658 242.88 352.879 242.554 353.023C242.232 353.167 241.868 353.239 241.463 353.239ZM251.808 350.171C251.255 350.171 250.753 350.067 250.302 349.858C249.852 349.646 249.494 349.341 249.229 348.944C248.963 348.542 248.831 348.057 248.831 347.489C248.831 346.989 248.929 346.584 249.126 346.273C249.323 345.959 249.587 345.713 249.916 345.534C250.246 345.356 250.609 345.224 251.007 345.137C251.409 345.046 251.812 344.974 252.217 344.921C252.748 344.853 253.177 344.802 253.507 344.767C253.84 344.73 254.083 344.667 254.234 344.58C254.39 344.493 254.467 344.341 254.467 344.125V344.08C254.467 343.519 254.314 343.084 254.007 342.773C253.704 342.463 253.244 342.307 252.626 342.307C251.986 342.307 251.484 342.447 251.121 342.728C250.757 343.008 250.501 343.307 250.354 343.625L249.081 343.171C249.308 342.641 249.611 342.228 249.99 341.932C250.373 341.633 250.789 341.425 251.24 341.307C251.695 341.186 252.141 341.125 252.581 341.125C252.861 341.125 253.183 341.159 253.547 341.228C253.914 341.292 254.268 341.427 254.609 341.631C254.954 341.836 255.24 342.144 255.467 342.557C255.695 342.97 255.808 343.523 255.808 344.216V349.966H254.467V348.784H254.399C254.308 348.974 254.157 349.177 253.945 349.392C253.732 349.608 253.45 349.792 253.098 349.944C252.746 350.095 252.316 350.171 251.808 350.171ZM252.013 348.966C252.543 348.966 252.99 348.862 253.354 348.654C253.721 348.445 253.998 348.177 254.183 347.847C254.373 347.517 254.467 347.171 254.467 346.807V345.58C254.41 345.648 254.285 345.711 254.092 345.767C253.903 345.82 253.683 345.868 253.433 345.909C253.187 345.947 252.946 345.981 252.712 346.012C252.48 346.038 252.293 346.061 252.149 346.08C251.801 346.125 251.475 346.199 251.172 346.302C250.873 346.4 250.63 346.55 250.445 346.75C250.263 346.947 250.172 347.216 250.172 347.557C250.172 348.023 250.344 348.375 250.689 348.614C251.037 348.849 251.479 348.966 252.013 348.966ZM259.597 344.716V349.966H258.256V341.239H259.551V342.603H259.665C259.869 342.159 260.18 341.803 260.597 341.534C261.013 341.262 261.551 341.125 262.21 341.125C262.801 341.125 263.318 341.247 263.761 341.489C264.204 341.728 264.549 342.091 264.795 342.58C265.042 343.065 265.165 343.678 265.165 344.421V349.966H263.824V344.512C263.824 343.826 263.646 343.292 263.29 342.909C262.934 342.523 262.445 342.33 261.824 342.33C261.396 342.33 261.013 342.423 260.676 342.608C260.343 342.794 260.079 343.065 259.886 343.421C259.693 343.777 259.597 344.209 259.597 344.716ZM271.138 353.421C270.49 353.421 269.933 353.338 269.467 353.171C269.001 353.008 268.613 352.792 268.302 352.523C267.996 352.258 267.751 351.974 267.57 351.671L268.638 350.921C268.759 351.08 268.912 351.262 269.098 351.466C269.284 351.675 269.537 351.855 269.859 352.006C270.185 352.161 270.611 352.239 271.138 352.239C271.842 352.239 272.424 352.069 272.882 351.728C273.34 351.387 273.57 350.853 273.57 350.125V348.353H273.456C273.357 348.512 273.217 348.709 273.035 348.944C272.857 349.175 272.6 349.381 272.263 349.563C271.929 349.741 271.479 349.83 270.91 349.83C270.206 349.83 269.573 349.663 269.013 349.33C268.456 348.997 268.015 348.512 267.689 347.875C267.367 347.239 267.206 346.466 267.206 345.557C267.206 344.663 267.363 343.885 267.677 343.222C267.992 342.555 268.429 342.04 268.99 341.677C269.551 341.309 270.198 341.125 270.933 341.125C271.501 341.125 271.952 341.22 272.285 341.409C272.623 341.595 272.88 341.807 273.058 342.046C273.24 342.281 273.38 342.474 273.479 342.625H273.615V341.239H274.91V350.216C274.91 350.966 274.74 351.576 274.399 352.046C274.062 352.519 273.607 352.866 273.035 353.086C272.467 353.309 271.835 353.421 271.138 353.421ZM271.092 348.625C271.63 348.625 272.085 348.502 272.456 348.256C272.827 348.01 273.109 347.656 273.302 347.194C273.496 346.731 273.592 346.178 273.592 345.534C273.592 344.906 273.498 344.351 273.308 343.87C273.119 343.389 272.838 343.012 272.467 342.739C272.096 342.466 271.638 342.33 271.092 342.33C270.524 342.33 270.051 342.474 269.672 342.762C269.297 343.05 269.015 343.436 268.825 343.921C268.64 344.406 268.547 344.944 268.547 345.534C268.547 346.141 268.641 346.677 268.831 347.142C269.024 347.605 269.308 347.968 269.683 348.233C270.062 348.495 270.532 348.625 271.092 348.625ZM285.16 350.148C284.433 350.148 283.791 349.964 283.234 349.597C282.677 349.226 282.242 348.703 281.927 348.029C281.613 347.351 281.456 346.55 281.456 345.625C281.456 344.709 281.613 343.913 281.927 343.239C282.242 342.565 282.679 342.044 283.24 341.677C283.801 341.309 284.448 341.125 285.183 341.125C285.751 341.125 286.2 341.22 286.53 341.409C286.863 341.595 287.117 341.807 287.291 342.046C287.469 342.281 287.607 342.474 287.706 342.625H287.82V338.33H289.16V349.966H287.865V348.625H287.706C287.607 348.784 287.467 348.985 287.285 349.228C287.104 349.466 286.844 349.68 286.507 349.87C286.17 350.055 285.721 350.148 285.16 350.148ZM285.342 348.944C285.88 348.944 286.335 348.803 286.706 348.523C287.077 348.239 287.359 347.847 287.552 347.347C287.746 346.843 287.842 346.262 287.842 345.603C287.842 344.951 287.748 344.381 287.558 343.892C287.369 343.4 287.088 343.017 286.717 342.745C286.346 342.468 285.888 342.33 285.342 342.33C284.774 342.33 284.301 342.476 283.922 342.767C283.547 343.055 283.265 343.447 283.075 343.944C282.89 344.436 282.797 344.989 282.797 345.603C282.797 346.224 282.891 346.788 283.081 347.296C283.274 347.8 283.558 348.201 283.933 348.5C284.312 348.796 284.782 348.944 285.342 348.944ZM291.802 349.966V341.239H293.143V349.966H291.802ZM292.484 339.784C292.223 339.784 291.998 339.695 291.808 339.517C291.623 339.339 291.53 339.125 291.53 338.875C291.53 338.625 291.623 338.411 291.808 338.233C291.998 338.055 292.223 337.966 292.484 337.966C292.746 337.966 292.969 338.055 293.155 338.233C293.344 338.411 293.439 338.625 293.439 338.875C293.439 339.125 293.344 339.339 293.155 339.517C292.969 339.695 292.746 339.784 292.484 339.784ZM299.395 341.239V342.375H294.872V341.239H299.395ZM296.19 339.148H297.531V347.466C297.531 347.845 297.586 348.129 297.696 348.319C297.81 348.504 297.954 348.629 298.128 348.694C298.306 348.754 298.493 348.784 298.69 348.784C298.838 348.784 298.959 348.777 299.054 348.762C299.149 348.743 299.224 348.728 299.281 348.716L299.554 349.921C299.463 349.955 299.336 349.989 299.173 350.023C299.01 350.061 298.804 350.08 298.554 350.08C298.175 350.08 297.804 349.999 297.44 349.836C297.08 349.673 296.781 349.425 296.543 349.091C296.308 348.758 296.19 348.338 296.19 347.83V339.148ZM303.98 350.171C303.427 350.171 302.925 350.067 302.474 349.858C302.024 349.646 301.666 349.341 301.4 348.944C301.135 348.542 301.003 348.057 301.003 347.489C301.003 346.989 301.101 346.584 301.298 346.273C301.495 345.959 301.758 345.713 302.088 345.534C302.418 345.356 302.781 345.224 303.179 345.137C303.58 345.046 303.984 344.974 304.389 344.921C304.919 344.853 305.349 344.802 305.679 344.767C306.012 344.73 306.255 344.667 306.406 344.58C306.561 344.493 306.639 344.341 306.639 344.125V344.08C306.639 343.519 306.486 343.084 306.179 342.773C305.876 342.463 305.416 342.307 304.798 342.307C304.158 342.307 303.656 342.447 303.293 342.728C302.929 343.008 302.673 343.307 302.525 343.625L301.253 343.171C301.48 342.641 301.783 342.228 302.162 341.932C302.544 341.633 302.961 341.425 303.412 341.307C303.866 341.186 304.313 341.125 304.753 341.125C305.033 341.125 305.355 341.159 305.719 341.228C306.086 341.292 306.44 341.427 306.781 341.631C307.126 341.836 307.412 342.144 307.639 342.557C307.866 342.97 307.98 343.523 307.98 344.216V349.966H306.639V348.784H306.571C306.48 348.974 306.329 349.177 306.116 349.392C305.904 349.608 305.622 349.792 305.27 349.944C304.918 350.095 304.488 350.171 303.98 350.171ZM304.185 348.966C304.715 348.966 305.162 348.862 305.525 348.654C305.893 348.445 306.169 348.177 306.355 347.847C306.544 347.517 306.639 347.171 306.639 346.807V345.58C306.582 345.648 306.457 345.711 306.264 345.767C306.075 345.82 305.855 345.868 305.605 345.909C305.359 345.947 305.118 345.981 304.883 346.012C304.652 346.038 304.465 346.061 304.321 346.08C303.972 346.125 303.647 346.199 303.344 346.302C303.044 346.4 302.802 346.55 302.616 346.75C302.435 346.947 302.344 347.216 302.344 347.557C302.344 348.023 302.516 348.375 302.861 348.614C303.209 348.849 303.65 348.966 304.185 348.966ZM310.427 349.966V341.239H311.723V342.603H311.837C312.018 342.137 312.312 341.775 312.717 341.517C313.123 341.256 313.609 341.125 314.177 341.125C314.753 341.125 315.232 341.256 315.615 341.517C316.001 341.775 316.302 342.137 316.518 342.603H316.609C316.833 342.152 317.168 341.794 317.615 341.529C318.062 341.26 318.598 341.125 319.223 341.125C320.003 341.125 320.641 341.37 321.138 341.858C321.634 342.343 321.882 343.099 321.882 344.125V349.966H320.541V344.125C320.541 343.481 320.365 343.021 320.013 342.745C319.66 342.468 319.246 342.33 318.768 342.33C318.155 342.33 317.679 342.516 317.342 342.887C317.005 343.254 316.837 343.72 316.837 344.284V349.966H315.473V343.989C315.473 343.493 315.312 343.093 314.99 342.79C314.668 342.483 314.253 342.33 313.746 342.33C313.397 342.33 313.071 342.423 312.768 342.608C312.469 342.794 312.227 343.052 312.041 343.381C311.859 343.707 311.768 344.084 311.768 344.512V349.966H310.427ZM324.516 349.966V338.33H325.856V342.625H325.97C326.069 342.474 326.205 342.281 326.379 342.046C326.557 341.807 326.811 341.595 327.141 341.409C327.474 341.22 327.925 341.125 328.493 341.125C329.228 341.125 329.875 341.309 330.436 341.677C330.997 342.044 331.434 342.565 331.748 343.239C332.063 343.913 332.22 344.709 332.22 345.625C332.22 346.55 332.063 347.351 331.748 348.029C331.434 348.703 330.998 349.226 330.442 349.597C329.885 349.964 329.243 350.148 328.516 350.148C327.955 350.148 327.506 350.055 327.169 349.87C326.832 349.68 326.572 349.466 326.391 349.228C326.209 348.985 326.069 348.784 325.97 348.625H325.811V349.966H324.516ZM325.834 345.603C325.834 346.262 325.93 346.843 326.123 347.347C326.317 347.847 326.599 348.239 326.97 348.523C327.341 348.803 327.796 348.944 328.334 348.944C328.894 348.944 329.362 348.796 329.737 348.5C330.116 348.201 330.4 347.8 330.589 347.296C330.783 346.788 330.879 346.224 330.879 345.603C330.879 344.989 330.784 344.436 330.595 343.944C330.409 343.447 330.127 343.055 329.748 342.767C329.373 342.476 328.902 342.33 328.334 342.33C327.788 342.33 327.33 342.468 326.959 342.745C326.588 343.017 326.307 343.4 326.118 343.892C325.928 344.381 325.834 344.951 325.834 345.603ZM336.839 350.171C336.286 350.171 335.784 350.067 335.334 349.858C334.883 349.646 334.525 349.341 334.26 348.944C333.995 348.542 333.862 348.057 333.862 347.489C333.862 346.989 333.961 346.584 334.158 346.273C334.355 345.959 334.618 345.713 334.947 345.534C335.277 345.356 335.641 345.224 336.038 345.137C336.44 345.046 336.843 344.974 337.248 344.921C337.779 344.853 338.209 344.802 338.538 344.767C338.872 344.73 339.114 344.667 339.266 344.58C339.421 344.493 339.498 344.341 339.498 344.125V344.08C339.498 343.519 339.345 343.084 339.038 342.773C338.735 342.463 338.275 342.307 337.658 342.307C337.017 342.307 336.516 342.447 336.152 342.728C335.788 343.008 335.533 343.307 335.385 343.625L334.112 343.171C334.339 342.641 334.642 342.228 335.021 341.932C335.404 341.633 335.82 341.425 336.271 341.307C336.726 341.186 337.173 341.125 337.612 341.125C337.892 341.125 338.214 341.159 338.578 341.228C338.945 341.292 339.3 341.427 339.641 341.631C339.985 341.836 340.271 342.144 340.498 342.557C340.726 342.97 340.839 343.523 340.839 344.216V349.966H339.498V348.784H339.43C339.339 348.974 339.188 349.177 338.976 349.392C338.764 349.608 338.481 349.792 338.129 349.944C337.777 350.095 337.347 350.171 336.839 350.171ZM337.044 348.966C337.574 348.966 338.021 348.862 338.385 348.654C338.752 348.445 339.029 348.177 339.214 347.847C339.404 347.517 339.498 347.171 339.498 346.807V345.58C339.442 345.648 339.317 345.711 339.123 345.767C338.934 345.82 338.714 345.868 338.464 345.909C338.218 345.947 337.978 345.981 337.743 346.012C337.512 346.038 337.324 346.061 337.18 346.08C336.832 346.125 336.506 346.199 336.203 346.302C335.904 346.4 335.661 346.55 335.476 346.75C335.294 346.947 335.203 347.216 335.203 347.557C335.203 348.023 335.375 348.375 335.72 348.614C336.069 348.849 336.51 348.966 337.044 348.966ZM344.628 344.716V349.966H343.287V338.33H344.628V342.603H344.741C344.946 342.152 345.253 341.794 345.662 341.529C346.075 341.26 346.624 341.125 347.31 341.125C347.904 341.125 348.425 341.245 348.872 341.483C349.319 341.718 349.666 342.08 349.912 342.569C350.162 343.053 350.287 343.671 350.287 344.421V349.966H348.946V344.512C348.946 343.819 348.766 343.283 348.406 342.904C348.05 342.521 347.556 342.33 346.923 342.33C346.484 342.33 346.09 342.423 345.741 342.608C345.397 342.794 345.124 343.065 344.923 343.421C344.726 343.777 344.628 344.209 344.628 344.716Z" fill="#CACACA"/>
</svg>
