<svg width="404" height="410" viewBox="0 0 404 410" fill="none" xmlns="http://www.w3.org/2000/svg">
<path d="M101.437 2.36621H23.0645V84.0615H101.437V2.36621Z" fill="#E0E0E0"/>
<path d="M96.1303 2.36621H17.7578V84.0615H96.1303V2.36621Z" fill="#EBEBEB"/>
<path d="M85.5991 13.3496H28.2988V73.0774H85.5991V13.3496Z" fill="#FAFAFA"/>
<path d="M28.298 73.4746C27.8764 74.0766 27.3973 74.6361 26.8674 75.1452C25.9444 76.0683 24.6522 77.4066 23.1754 78.8373C21.6985 80.2679 20.4063 81.5325 19.4833 82.4278C18.9841 82.9458 18.4371 83.4155 17.8496 83.8307C18.2547 83.2268 18.7218 82.6669 19.2433 82.1601C20.1664 81.2371 21.4586 79.8895 22.9354 78.4681C24.4122 77.0466 25.7044 75.7729 26.6736 74.8683C27.1625 74.3458 27.7072 73.8784 28.298 73.4746Z" fill="#E0E0E0"/>
<path d="M85.5977 73.2993C86.1836 73.7233 86.7275 74.2024 87.2221 74.73C88.1452 75.653 89.4835 76.9452 90.9142 78.422C92.3448 79.8988 93.6001 81.191 94.5047 82.114C95.0253 82.6108 95.4953 83.158 95.9076 83.7478C95.3172 83.333 94.7726 82.8565 94.2832 82.3263C93.3601 81.4033 92.0218 80.1111 90.5911 78.6343C89.1605 77.1575 87.9052 75.8653 87.0006 74.9423C86.4764 74.4456 86.0061 73.8949 85.5977 73.2993Z" fill="#E0E0E0"/>
<path d="M85.4414 13.5068C85.8618 12.918 86.3412 12.3737 86.8721 11.8823C87.7951 10.9593 89.0781 9.6209 90.5179 8.19024C91.9578 6.75958 93.287 5.49506 94.2561 4.59975C94.7571 4.08001 95.3073 3.61015 95.8991 3.19678C95.4768 3.78119 94.9975 4.32226 94.4684 4.81204C93.5454 5.73505 92.2624 7.08264 90.7764 8.50407C89.2903 9.9255 88.0074 11.1992 87.029 12.1038C86.5485 12.6239 86.0166 13.0939 85.4414 13.5068Z" fill="#E0E0E0"/>
<path d="M28.142 13.6545C27.5561 13.2305 27.0121 12.7515 26.5175 12.2238C25.5945 11.3008 24.2469 10.0086 22.8255 8.5318C21.4041 7.05499 20.1303 5.76278 19.2258 4.83978C18.706 4.34479 18.239 3.79729 17.832 3.20605C18.4157 3.62581 18.9567 4.10191 19.4473 4.62748C20.3703 5.55049 21.7179 6.8427 23.1393 8.31951C24.5608 9.79632 25.8345 11.0885 26.739 12.0115C27.2633 12.5082 27.7336 13.0589 28.142 13.6545Z" fill="#E0E0E0"/>
<path d="M85.442 73.0774C85.442 73.0774 85.442 72.9759 85.442 72.7913C85.442 72.6067 85.442 72.3113 85.442 71.9606C85.442 71.2129 85.442 70.1145 85.442 68.7393C85.442 65.9149 85.442 61.7983 85.442 56.5648C85.442 46.1071 85.3866 31.2006 85.3404 13.3496L85.5343 13.5342H28.3909L28.6032 13.3219C28.6032 35.2433 28.6032 55.7803 28.6032 73.0497L28.4186 72.8651L69.8062 72.9574L81.4176 73.0128H84.4913H81.4638H69.8801L28.3448 73.1051H28.1602V72.9205C28.1602 55.6233 28.1602 35.0772 28.1602 13.1927V12.9712H28.3817H85.525H85.7096V13.165C85.7096 31.0621 85.6358 46.0148 85.6173 56.5463C85.6173 61.7613 85.6173 65.8595 85.5619 68.6747C85.5619 70.0592 85.5619 71.1299 85.5619 71.859C85.5619 72.2098 85.5619 72.4774 85.5619 72.6713C85.5619 72.8651 85.442 73.0774 85.442 73.0774Z" fill="#E0E0E0"/>
<path d="M43.4163 38.2988C43.4163 38.2988 42.1887 53.0669 58.1844 53.0669C58.2028 45.1937 51.6956 38.9634 43.4163 38.2988Z" fill="#EBEBEB"/>
<path d="M72.7232 38.3079C72.7232 38.3079 57.9551 37.0803 57.9551 53.076C65.8283 53.1037 72.0586 46.5872 72.7232 38.3079Z" fill="#EBEBEB"/>
<path d="M57.4927 30.2129C57.4927 30.2129 45.4105 41.0582 58.1572 53.085C64.0829 46.8086 63.5476 36.9601 57.4927 30.2129Z" fill="#E0E0E0"/>
<path d="M303.216 301.522C298.339 298.473 292.83 296.579 287.11 295.984C284.479 295.716 281.572 295.79 279.486 297.387C279.244 297.529 279.044 297.733 278.906 297.978C278.769 298.223 278.698 298.5 278.701 298.78C278.833 299.167 279.098 299.494 279.449 299.703C286.002 304.697 295.915 305.334 303.216 301.503" fill="#E0E0E0"/>
<path d="M302.8 301.06C299.07 298.324 295.589 295.263 292.398 291.913C289.194 288.54 286.942 284.377 285.872 279.849C285.595 278.474 285.512 276.905 286.389 275.816C294.696 282.277 301.157 290.667 302.8 301.06Z" fill="#E0E0E0"/>
<path d="M303.134 301.457C302.364 296.93 302.427 292.301 303.319 287.797C304.362 283.339 306.789 279.074 310.601 276.527C312.032 279.877 311.413 283.736 310.407 287.234C308.843 292.657 306.405 297.788 303.189 302.426" fill="#E0E0E0"/>
<path d="M311.255 316.05C306.327 316.65 302.025 319.253 298.333 322.585C294.635 325.959 292.058 330.385 290.949 335.267C295.795 334.971 299.902 331.575 302.874 327.735C305.847 323.895 307.923 319.705 311.182 316.124" fill="#E0E0E0"/>
<path d="M313.026 318.348C311.085 313.416 310.406 308.077 311.051 302.816C311.696 297.555 313.644 292.538 316.719 288.221C319.534 298.217 318.5 309.514 313.026 318.348Z" fill="#E0E0E0"/>
<path d="M323.762 331.141C319.251 330.86 314.758 331.912 310.841 334.167C306.925 336.423 303.759 339.781 301.739 343.823C301.462 344.367 301.222 345.06 301.591 345.549C301.781 345.733 302.013 345.868 302.267 345.942C302.522 346.016 302.79 346.027 303.049 345.974C307.387 345.697 311.236 343.085 314.412 340.112C317.587 337.14 320.356 333.698 323.863 331.132" fill="#E0E0E0"/>
<path d="M323.421 330.448C321.11 323.003 320.97 315.053 323.015 307.53C323.818 304.576 325.175 301.475 327.907 300.091C328.016 300.017 328.138 299.968 328.267 299.946C328.396 299.923 328.528 299.929 328.655 299.961C328.875 300.077 329.043 300.272 329.126 300.506C330.04 302.57 330.436 304.826 330.279 307.078C330.116 309.32 329.77 311.546 329.246 313.733C328.387 317.803 327.935 322.178 325.701 325.686C325.172 326.528 324.697 327.403 324.28 328.307C323.855 329.23 323.855 329.516 323.468 330.227" fill="#E0E0E0"/>
<path d="M351.849 334.685C349.745 326.664 351.979 316.954 357.028 310.382C357.406 309.902 357.895 309.385 358.504 309.459C359.427 309.542 359.677 310.788 359.63 311.721C359.252 319.961 356.555 327.928 351.849 334.703" fill="#E0E0E0"/>
<path d="M354.414 336.43C364.152 338.968 375.32 336.504 383.415 330.532C378.563 328.1 373.019 327.422 367.724 328.612C362.481 329.812 357.691 332.156 354.423 336.43" fill="#E0E0E0"/>
<path d="M356.576 331.095C362.031 322.206 372.48 316.41 382.9 315.884C381.7 320.12 378.211 323.406 374.289 325.4C370.366 327.394 365.982 328.252 361.653 329.092C359.973 329.415 357.665 329.775 356.576 331.095Z" fill="#E0E0E0"/>
<path d="M352.394 305.214C353.871 300.156 355.357 295.061 355.763 289.8C356.17 284.539 355.413 279.065 352.69 274.552C347.595 284.409 347.087 295.919 352.238 305.74" fill="#E0E0E0"/>
<path d="M369.543 296.546C375.496 285.72 387.643 277.08 399.938 275.862C395.193 287.676 382.262 296.796 369.543 296.546Z" fill="#E0E0E0"/>
<path d="M365.795 298.67C374.674 300.017 382.243 305.694 390.541 309.127C392.278 309.971 394.208 310.34 396.134 310.198C397.032 310.194 397.908 309.913 398.641 309.393C399.374 308.874 399.929 308.142 400.232 307.296C400.534 306.45 400.569 305.532 400.331 304.666C400.093 303.799 399.595 303.027 398.903 302.454C397.727 301.37 396.346 300.532 394.842 299.99C385.796 296.224 376.105 296.132 366.579 298.411" fill="#E0E0E0"/>
<path d="M360.654 304.9C362.666 305.472 363.349 306.515 364.946 307.872C370.376 312.486 376.797 315.784 383.711 317.508C384.431 317.684 385.363 317.757 385.723 317.111C386.083 316.465 385.64 315.856 385.234 315.358C382.22 311.82 378.307 309.161 373.909 307.66C369.571 306.054 365.823 304.106 360.654 304.522" fill="#E0E0E0"/>
<path d="M354.848 267.269C358.493 270.622 362.799 273.176 367.49 274.766C372.181 276.355 377.153 276.946 382.086 276.499C382.538 276.508 382.978 276.35 383.322 276.056C384.005 275.308 383.184 274.154 382.399 273.536C374.388 267.297 364.696 264.703 354.857 267.232" fill="#E0E0E0"/>
<path d="M361.725 264.758C366.545 261.209 372.137 258.85 378.044 257.875C383.95 256.899 390.004 257.335 395.71 259.146C391.427 263.364 385.492 265.607 379.511 266.253C373.54 266.8 367.52 266.294 361.725 264.758Z" fill="#E0E0E0"/>
<path d="M358.994 247.47C358.209 239.477 358.717 233.173 358.163 225.143C358.163 224.497 357.988 223.731 357.388 223.5C356.548 223.177 355.856 224.201 355.542 225.051C354.378 228.773 354.08 232.712 354.67 236.567C355.26 240.422 356.723 244.092 358.948 247.295" fill="#E0E0E0"/>
<path d="M358.42 248.347C363.838 244.996 367.899 240.631 371.656 235.489C374.268 231.908 376.474 227.625 375.883 223.232C372.191 223.158 368.721 225.179 366.33 227.976C364.052 230.871 362.396 234.205 361.466 237.769C360.404 241.286 359.666 244.895 358.42 248.347Z" fill="#E0E0E0"/>
<path d="M371.426 244.739C383.34 240.326 394.371 233.821 403.999 225.531C400.113 223.962 395.692 224.903 391.769 226.454C382.88 230.044 375.616 236.099 371.26 244.628" fill="#E0E0E0"/>
<path d="M362.076 252.722C368.094 253.377 374.204 253.811 380.167 252.814C386.13 251.818 391.575 249.51 397.049 247.203C397.537 247.053 397.95 246.723 398.203 246.28C398.288 246.026 398.293 245.752 398.219 245.495C398.145 245.238 397.994 245.009 397.787 244.84C397.367 244.504 396.874 244.273 396.347 244.166C390.394 242.495 383.961 243.243 378.1 245.255C372.515 247.15 367.145 249.625 362.076 252.639" fill="#E0E0E0"/>
<path d="M327.741 267.546C323.642 259.239 323.91 249.603 327.445 241.065C329.947 244.868 330.214 249.704 329.79 254.236C329.365 258.768 327.944 263.411 327.87 267.961" fill="#E0E0E0"/>
<path d="M311.347 259.276C306.211 259.209 301.118 260.215 296.393 262.229C291.668 264.242 287.415 267.22 283.906 270.971C289.02 271.774 294.281 270.454 298.933 268.202C303.585 265.949 307.72 262.747 311.855 259.581" fill="#E0E0E0"/>
<path d="M300.336 255.593C295.324 255.187 290.497 254.568 285.679 256.045C280.861 257.522 276.449 260.872 274.52 265.515C279.247 265.895 283.99 264.999 288.254 262.921C292.492 260.843 296.535 258.391 300.336 255.593Z" fill="#E0E0E0"/>
<path d="M316.645 255.759C312.141 252.806 307.507 249.806 302.264 248.578C297.022 247.351 290.93 248.255 287.266 252.215C291.521 254.707 296.671 254.984 301.6 254.984C306.529 254.984 312.565 254.919 317.208 256.562" fill="#E0E0E0"/>
<path d="M316.673 255.999C308.966 248.431 306.049 234.835 309.15 224.497C315.232 233.809 317.891 244.944 316.673 255.999Z" fill="#E0E0E0"/>
<path d="M337.865 234.557C339.324 231.179 340.339 227.635 341.65 224.192C342.836 220.702 344.661 217.463 347.031 214.639C349.444 211.802 352.874 210.025 356.584 209.691C355.396 214.904 353.136 219.812 349.946 224.103C346.757 228.394 342.708 231.973 338.059 234.613" fill="#E0E0E0"/>
<path d="M334.037 239.025C331.627 235.721 328.849 231.226 325.591 228.752C322.333 226.278 318.078 224.783 314.1 225.734C316.162 229.346 319.037 232.428 322.498 234.735C325.958 237.042 329.909 238.511 334.037 239.025Z" fill="#E0E0E0"/>
<path d="M334.803 234.825C333.224 230.819 331.637 226.767 331 222.512C330.363 218.257 330.751 213.707 332.929 209.996C337.156 217.989 338.522 226.61 335.015 234.917" fill="#E0E0E0"/>
<path d="M337.902 210.005C340.302 202.077 347.557 196.234 355.393 193.557C356.367 193.163 357.42 193.005 358.467 193.096C358.987 193.156 359.479 193.368 359.88 193.704C360.282 194.04 360.577 194.486 360.728 194.988C361.014 196.336 359.898 197.545 358.882 198.44C352.754 203.67 345.63 207.604 337.939 210.005" fill="#E0E0E0"/>
<path d="M337.994 203.517C338.299 198.413 338.613 193.225 340.274 188.38C341.936 183.534 345.148 178.993 349.809 176.879C350.603 182.039 348.323 187.17 345.572 191.647C342.822 196.124 339.517 200.277 337.865 205.234" fill="#E0E0E0"/>
<path d="M337.865 207.043C335.89 201.265 335.678 193.927 332.226 188.887C329.807 185.371 325.931 182.971 323.845 179.251C322.587 182.823 322.762 186.743 324.334 190.189C325.906 193.599 328.072 196.702 330.73 199.354C333.296 202.123 335.484 204.144 337.865 207.043Z" fill="#E0E0E0"/>
<path d="M337.903 377.181C337.756 377.181 337.617 338.636 337.608 291.11C337.599 243.585 337.709 205.021 337.866 205.021C338.023 205.021 338.153 243.557 338.162 291.11C338.171 338.664 338.06 377.181 337.903 377.181Z" fill="#E0E0E0"/>
<path d="M371.582 261.731C371.117 261.958 370.632 262.14 370.133 262.276L366.145 263.623C362.786 264.768 358.161 266.392 353.149 268.478C348.138 270.564 343.504 272.336 340.837 274.644C339.775 275.535 338.929 276.655 338.363 277.921C337.984 278.844 337.92 279.379 337.864 279.37C337.842 279.235 337.842 279.098 337.864 278.964C337.924 278.58 338.02 278.203 338.151 277.837C338.653 276.493 339.481 275.295 340.56 274.348C342.17 272.989 343.97 271.872 345.904 271.035C348.036 270.038 350.408 268.995 352.919 267.961C357.949 265.903 362.61 264.269 366.007 263.245C367.705 262.719 369.09 262.322 370.059 262.063C370.555 261.904 371.065 261.793 371.582 261.731Z" fill="#E0E0E0"/>
<path d="M382.623 234.613C382.623 234.613 382.503 234.779 382.217 235.047L380.98 236.21L376.365 240.4L360.997 254.088C354.997 259.423 349.819 264.527 346.229 268.367C344.429 270.287 343.007 271.875 342.038 272.982C341.595 273.499 341.226 273.905 340.921 274.256C340.617 274.607 340.524 274.699 340.506 274.681C340.601 274.508 340.713 274.344 340.838 274.191C341.069 273.878 341.41 273.416 341.872 272.844C342.795 271.69 344.17 270.075 345.933 268.099C350.571 263.033 355.476 258.217 360.627 253.673C366.645 248.338 372.128 243.52 376.106 240.105L380.841 236.043L382.143 234.964C382.289 234.829 382.45 234.711 382.623 234.613Z" fill="#E0E0E0"/>
<path d="M354.527 259.516C354.37 259.442 355.616 256.553 356.872 252.889C358.127 249.224 358.718 246.141 358.884 246.169C359.05 246.197 358.671 249.363 357.398 253.073C356.865 254.643 356.249 256.184 355.552 257.688C355.299 258.343 354.954 258.959 354.527 259.516Z" fill="#E0E0E0"/>
<path d="M337.939 282.822C337.595 282.498 337.285 282.14 337.016 281.751L334.644 278.714C332.66 276.139 329.909 272.595 326.826 268.709C323.744 264.823 320.91 261.325 318.861 258.824L316.452 255.842C316.135 255.491 315.857 255.107 315.621 254.698C315.987 254.998 316.321 255.336 316.618 255.704C317.236 256.368 318.113 257.356 319.175 258.584C321.307 261.048 324.196 264.491 327.279 268.386C330.362 272.281 333.075 275.862 334.986 278.493C335.909 279.813 336.693 280.883 337.21 281.64C337.487 282.012 337.731 282.408 337.939 282.822Z" fill="#E0E0E0"/>
<path d="M330.555 273.361C330.463 273.462 328.497 271.118 327.463 267.573C326.881 265.684 326.644 263.705 326.762 261.731H327.002C326.9 262.174 326.817 262.414 326.771 262.405C326.725 262.395 326.725 262.146 326.771 261.694H327.02C327.136 263.617 327.467 265.521 328.008 267.37C328.996 270.822 330.703 273.268 330.555 273.361Z" fill="#E0E0E0"/>
<path d="M321.067 261.371C320.404 260.863 319.678 260.441 318.908 260.116C316.964 259.535 314.919 259.371 312.908 259.636C310.872 259.793 308.853 260.12 306.872 260.614C306.06 260.874 305.23 261.072 304.389 261.205C305.13 260.766 305.933 260.439 306.77 260.236C308.753 259.62 310.8 259.232 312.871 259.082C314.956 258.804 317.077 259.032 319.055 259.747C319.896 260.034 320.609 260.61 321.067 261.371Z" fill="#E0E0E0"/>
<path d="M318.759 258.464C318.759 258.547 317.504 257.956 315.455 257.255C310.094 255.418 304.353 254.983 298.776 255.99C296.644 256.369 295.352 256.766 295.324 256.673C295.594 256.503 295.891 256.378 296.201 256.304C297.019 256.017 297.855 255.783 298.702 255.603C304.334 254.366 310.205 254.812 315.584 256.886C316.392 257.195 317.181 257.553 317.947 257.956C318.492 258.252 318.778 258.427 318.759 258.464Z" fill="#E0E0E0"/>
<path d="M337.864 246.169C337.717 246.169 336.637 242.477 335.455 237.788C334.274 233.099 333.425 229.306 333.609 229.269C333.794 229.232 334.837 232.961 336.018 237.65C337.2 242.339 338.012 246.132 337.864 246.169Z" fill="#E0E0E0"/>
<path d="M338.022 246.169C337.856 246.225 337.155 243.714 335.346 241.148C334.211 239.631 332.886 238.267 331.404 237.087C331.966 237.227 332.487 237.496 332.927 237.871C334.045 238.69 335.015 239.692 335.798 240.834C336.992 242.388 337.759 244.227 338.022 246.169Z" fill="#E0E0E0"/>
<path d="M337.903 356.662C337.848 356.662 337.728 355.739 337.294 354.096C336.658 351.792 335.796 349.557 334.719 347.423C332.061 341.986 327.215 335.082 321.058 328.178C318.003 324.689 315.05 321.403 312.539 318.256C310.284 315.484 308.245 312.543 306.438 309.46C305.229 307.379 304.201 305.199 303.364 302.943C303.078 302.131 302.875 301.513 302.755 301.097C302.676 300.858 302.626 300.61 302.607 300.359C302.663 300.359 302.94 301.282 303.577 302.814C304.488 305.025 305.562 307.166 306.789 309.22C308.629 312.254 310.686 315.15 312.945 317.887C315.465 320.997 318.428 324.274 321.483 327.763C327.658 334.695 332.494 341.673 335.088 347.211C336.14 349.381 336.954 351.659 337.516 354.004C337.669 354.639 337.783 355.284 337.857 355.933C337.901 356.174 337.916 356.418 337.903 356.662Z" fill="#E0E0E0"/>
<path d="M368.343 322.262C367.83 322.601 367.297 322.909 366.746 323.185C365.303 324.006 363.921 324.932 362.611 325.954C360.672 327.461 358.854 329.118 357.175 330.91C355.264 332.922 353.298 335.267 351.295 337.768C347.289 342.799 343.542 347.247 341.299 350.801C340.155 352.564 339.324 354.05 338.779 355.093C338.528 355.65 338.235 356.187 337.902 356.699C337.929 356.542 337.978 356.389 338.05 356.247C338.17 355.961 338.336 355.527 338.585 355.001C339.29 353.485 340.082 352.012 340.957 350.589C343.145 346.952 346.865 342.439 350.861 337.417C352.874 334.907 354.858 332.562 356.806 330.55C358.513 328.764 360.365 327.121 362.344 325.64C363.689 324.645 365.119 323.771 366.617 323.028C367.143 322.76 367.54 322.594 367.863 322.474C368.007 322.371 368.17 322.299 368.343 322.262Z" fill="#E0E0E0"/>
<path d="M368.934 333.412C367.825 333.66 366.699 333.824 365.565 333.901C362.859 334.181 360.184 334.707 357.572 335.47C354.991 336.312 352.57 337.582 350.41 339.227C348.757 340.509 347.982 341.562 347.908 341.497C348.024 341.21 348.193 340.946 348.407 340.722C348.93 340.051 349.518 339.433 350.16 338.876C352.295 337.098 354.752 335.748 357.397 334.898C360.044 334.113 362.772 333.63 365.528 333.458C366.66 333.338 367.8 333.322 368.934 333.412Z" fill="#E0E0E0"/>
<path d="M348.887 340.279C348.712 340.177 350.234 337.851 351.407 334.741C352.579 331.63 352.773 328.833 352.976 328.861C353.063 329.475 353.044 330.099 352.92 330.707C352.752 332.161 352.421 333.591 351.933 334.971C351.423 336.339 350.767 337.648 349.976 338.876C349.692 339.4 349.324 339.874 348.887 340.279Z" fill="#E0E0E0"/>
<path d="M378.201 292.319C378.029 292.431 377.847 292.527 377.657 292.605L376.069 293.325C375.377 293.621 374.537 293.999 373.586 294.498C372.636 294.996 371.528 295.494 370.365 296.196L368.519 297.239C367.882 297.608 367.245 298.042 366.581 298.457C365.224 299.288 363.867 300.303 362.418 301.328C356.209 305.964 350.792 311.575 346.376 317.942C345.398 319.428 344.429 320.822 343.653 322.206C343.256 322.889 342.841 323.535 342.499 324.182L341.512 326.028C340.856 327.209 340.395 328.335 339.933 329.304C339.472 330.273 339.112 331.15 338.844 331.833L338.18 333.439C338.112 333.633 338.022 333.819 337.912 333.993C337.94 333.79 337.992 333.592 338.069 333.402C338.226 332.969 338.411 332.424 338.641 331.75C338.934 330.879 339.269 330.022 339.647 329.184C340.081 328.197 340.524 327.052 341.161 325.852L342.084 323.951C342.416 323.295 342.823 322.64 343.219 321.939C343.976 320.536 344.936 319.17 345.915 317.628C350.312 311.18 355.774 305.528 362.067 300.913C363.544 299.879 364.919 298.873 366.295 298.06C366.978 297.645 367.614 297.22 368.261 296.861L370.107 295.836C371.279 295.162 372.414 294.673 373.383 294.211C374.207 293.802 375.051 293.435 375.912 293.113L377.546 292.495C377.755 292.405 377.976 292.346 378.201 292.319Z" fill="#E0E0E0"/>
<path d="M354.109 308.453C354.335 307.677 354.796 306.99 355.429 306.487C356.912 305.193 358.806 304.467 360.773 304.438C362.699 304.425 364.607 304.799 366.385 305.537C367.138 305.775 367.853 306.12 368.508 306.561C367.75 306.411 367.009 306.188 366.293 305.897C364.531 305.294 362.682 304.982 360.82 304.974C358.974 305.013 357.189 305.64 355.725 306.764C355.147 307.289 354.607 307.853 354.109 308.453Z" fill="#E0E0E0"/>
<path d="M350.511 312.173C350.354 312.09 351.711 310.096 352.024 307.244C352.338 304.392 351.517 302.14 351.683 302.094C351.849 302.048 352.052 302.592 352.311 303.534C352.968 306.015 352.661 308.654 351.452 310.918C350.981 311.767 350.603 312.21 350.511 312.173Z" fill="#E0E0E0"/>
<path d="M311.283 362.2C312.114 376.968 316.554 391.912 323.384 407.058H353.068C359.584 392.013 363.71 377.061 364.448 362.2H311.283Z" fill="#E0E0E0"/>
<path d="M359.64 385.986C359.64 386.143 349.865 386.272 337.802 386.272C325.738 386.272 315.973 386.143 315.973 385.986C315.973 385.829 325.747 385.709 337.802 385.709C349.856 385.709 359.64 385.838 359.64 385.986Z" fill="#FAFAFA"/>
<path d="M358.976 391.321C358.976 391.478 349.811 391.607 338.513 391.607C327.216 391.607 318.041 391.478 318.041 391.321C318.041 391.164 327.206 391.044 338.513 391.044C349.82 391.044 358.976 391.174 358.976 391.321Z" fill="#FAFAFA"/>
<path d="M323.837 371.827C324.207 376.379 324.207 380.954 323.837 385.506C323.681 385.506 323.561 382.442 323.561 378.667C323.561 374.892 323.708 371.827 323.837 371.827Z" fill="#FAFAFA"/>
<path d="M339.767 371.827C339.924 371.827 340.044 374.993 340.044 378.907C340.044 382.82 339.924 385.986 339.767 385.986C339.61 385.986 339.49 382.82 339.49 378.907C339.49 374.993 339.61 371.827 339.767 371.827Z" fill="#FAFAFA"/>
<path d="M354.701 371.707C354.858 371.707 354.978 374.938 354.978 378.925C354.978 382.912 354.858 386.152 354.701 386.152C354.544 386.152 354.424 382.922 354.424 378.925C354.424 374.928 354.544 371.707 354.701 371.707Z" fill="#FAFAFA"/>
<path d="M363.527 371.827C363.527 371.984 352.063 372.104 337.923 372.104C323.782 372.104 312.318 371.984 312.318 371.827C312.318 371.67 323.773 371.55 337.923 371.55C352.072 371.55 363.527 371.67 363.527 371.827Z" fill="#FAFAFA"/>
<path d="M347.576 224.884H11.1582V235.25H347.576V224.884Z" fill="#EBEBEB"/>
<path d="M40.26 233.977L15.0527 407.013H20.4616L51.5484 235.25L40.26 233.977Z" fill="#EBEBEB"/>
<path d="M323.817 232.878L350.409 407.012H345.009L312.52 234.465L323.817 232.878Z" fill="#EBEBEB"/>
<path d="M23.9322 183.137V206.471H20.0371V208.981H23.9322V224.599H96.7759V210.384H91.3855V207.283H96.7759V202.668H99.1757V200.564H96.3144V183.137H23.9322Z" fill="#F5F5F5"/>
<path d="M77.4219 183.174V224.331H96.7589V210.126H91.3685V207.292L96.7589 207.384V202.742H99.2048L99.1587 200.342L96.3158 200.277V183.109L77.4219 183.174Z" fill="#E0E0E0"/>
<path d="M78.7976 208.639C78.7976 208.787 65.6263 208.898 49.3722 208.898C33.118 208.898 19.9375 208.787 19.9375 208.639C19.9375 208.492 33.118 208.381 49.3722 208.381C65.6263 208.381 78.7976 208.501 78.7976 208.639Z" fill="#E0E0E0"/>
<path d="M78.7976 206.267C78.7976 206.415 65.6263 206.526 49.3722 206.526C33.118 206.526 19.9375 206.415 19.9375 206.267C19.9375 206.12 33.118 206.009 49.3722 206.009C65.6263 206.009 78.7976 206.129 78.7976 206.267Z" fill="#E0E0E0"/>
<path d="M82.5789 199.889C82.5789 200.037 69.3984 200.148 53.1534 200.148C36.9085 200.148 23.7188 200.037 23.7188 199.889C23.7188 199.742 36.8901 199.631 53.1534 199.631C69.4168 199.631 82.5789 199.751 82.5789 199.889Z" fill="#E0E0E0"/>
<path d="M82.9305 217.288C82.9305 217.436 69.7592 217.556 53.505 217.556C37.2508 217.556 24.0703 217.436 24.0703 217.288C24.0703 217.141 37.2416 217.03 53.505 217.03C69.7684 217.03 82.9305 217.131 82.9305 217.288Z" fill="#E0E0E0"/>
<path d="M102.156 167.483H89.4551V182.583H102.156V167.483Z" fill="#F5F5F5"/>
<path d="M89.8906 166.495H32.498V183.525H89.8906V166.495Z" fill="#E0E0E0"/>
<path d="M102.536 167.935H88.3496V166.522H102.536C102.727 166.522 102.91 166.598 103.045 166.733C103.18 166.868 103.256 167.051 103.256 167.242C103.249 167.429 103.17 167.605 103.036 167.734C102.902 167.863 102.722 167.935 102.536 167.935Z" fill="#E0E0E0"/>
<path d="M102.536 183.534H88.3496V182.094H102.536C102.727 182.094 102.91 182.17 103.045 182.305C103.18 182.44 103.256 182.623 103.256 182.814C103.256 183.005 103.18 183.188 103.045 183.323C102.91 183.458 102.727 183.534 102.536 183.534Z" fill="#E0E0E0"/>
<path d="M85.3857 166.495H78.6016V183.525H85.3857V166.495Z" fill="#EBEBEB"/>
<path d="M44.747 166.689H37.9629V183.718H44.747V166.689Z" fill="#EBEBEB"/>
<path d="M102.158 169.984C102.158 169.984 99.3892 170.058 96.0203 170.058C92.6513 170.058 89.873 170.058 89.873 169.984C89.873 169.91 92.6421 169.901 96.0203 169.901C99.3985 169.901 102.158 169.938 102.158 169.984Z" fill="#E0E0E0"/>
<path d="M102.158 172.246C102.158 172.246 99.3892 172.32 96.0203 172.32C92.6513 172.32 89.873 172.32 89.873 172.246C89.873 172.172 92.6421 172.172 96.0203 172.172C99.3985 172.172 102.158 172.2 102.158 172.246Z" fill="#E0E0E0"/>
<path d="M102.158 175.033C102.158 175.033 99.3892 175.107 96.0203 175.107C92.6513 175.107 89.873 175.107 89.873 175.033C89.873 174.959 92.6421 174.959 96.0203 174.959C99.3985 174.959 102.158 174.987 102.158 175.033Z" fill="#E0E0E0"/>
<path d="M102.158 177.821C102.158 177.821 99.3892 177.895 96.0203 177.895C92.6513 177.895 89.873 177.895 89.873 177.821C89.873 177.747 92.6421 177.747 96.0203 177.747C99.3985 177.747 102.158 177.775 102.158 177.821Z" fill="#E0E0E0"/>
<path d="M102.158 180.608C102.158 180.608 99.3892 180.682 96.0203 180.682C92.6513 180.682 89.873 180.682 89.873 180.608C89.873 180.534 92.6421 180.534 96.0203 180.534C99.3985 180.534 102.158 180.562 102.158 180.608Z" fill="#E0E0E0"/>
<path d="M74.9474 173.5H49.1309V176.565H74.9474V173.5Z" fill="#EBEBEB"/>
<path d="M77.8366 149.964L84.9807 166.744H80.3841L77.209 157.782L77.8366 149.964Z" fill="#E0E0E0"/>
<path d="M55.9043 134.79L53.1445 166.745H76.4874L79.0533 134.79H55.9043Z" fill="#EBEBEB"/>
<path d="M58.1859 137.319L55.7676 164.086L73.2955 164.317L75.6584 137.162L58.1859 137.319Z" fill="#FAFAFA"/>
<path d="M61.9046 141.029L60.5293 159.443H69.8794L71.5223 141.029H61.9046Z" fill="#E0E0E0"/>
<path d="M330.15 16.0139L321.52 16.0605L321.752 59.0074L330.382 58.9607L330.15 16.0139Z" fill="#E0E0E0"/>
<path d="M269.095 16.1227L246.74 16.2437L246.869 39.9554L269.223 39.8344L269.095 16.1227Z" fill="#EBEBEB"/>
<path d="M291.339 16.0114L268.984 16.1323L269.113 39.844L291.468 39.7231L291.339 16.0114Z" fill="#F5F5F5"/>
<path d="M246.774 22.8105C261.625 22.9397 276.522 22.8105 291.374 22.6075C291.428 22.5966 291.477 22.5672 291.512 22.5243C291.548 22.4814 291.567 22.4276 291.567 22.3721C291.567 22.3166 291.548 22.2628 291.512 22.2198C291.477 22.1769 291.428 22.1476 291.374 22.1367C276.525 22.0506 261.662 22.1398 246.783 22.4044C246.729 22.4044 246.678 22.4258 246.64 22.4639C246.601 22.5019 246.58 22.5536 246.58 22.6075C246.58 22.6613 246.601 22.713 246.64 22.751C246.678 22.7891 246.729 22.8105 246.783 22.8105H246.774Z" fill="#E0E0E0"/>
<path d="M273.42 39.4512L232.809 39.6709L232.913 58.9891L273.525 58.7694L273.42 39.4512Z" fill="#EBEBEB"/>
<path d="M313.838 39.2231L273.227 39.4429L273.331 58.7611L313.943 58.5414L313.838 39.2231Z" fill="#F5F5F5"/>
<path d="M232.828 45.0549C259.808 45.3595 286.879 45.0549 313.859 44.658C313.922 44.658 313.984 44.6327 314.029 44.5877C314.074 44.5427 314.099 44.4816 314.099 44.418C314.099 44.3543 314.074 44.2933 314.029 44.2483C313.984 44.2033 313.922 44.178 313.859 44.178C286.879 44.0396 259.798 44.0488 232.828 44.6487C232.774 44.6487 232.723 44.6701 232.684 44.7082C232.646 44.7463 232.625 44.798 232.625 44.8518C232.625 44.9057 232.646 44.9573 232.684 44.9954C232.723 45.0335 232.774 45.0549 232.828 45.0549Z" fill="#E0E0E0"/>
<path d="M374.98 59.002H217.645V65.9245H374.98V59.002Z" fill="#E0E0E0"/>
<path d="M249.793 62.3335H243.406V85.9532H249.793V62.3335Z" fill="#E0E0E0"/>
<path d="M345.139 62.334H338.752V85.9537H345.139V62.334Z" fill="#E0E0E0"/>
<path d="M338.566 -0.000306488L329.936 0.0463867L330.255 59.118L338.885 59.0713L338.566 -0.000306488Z" fill="#EBEBEB"/>
<path d="M352.054 11.0031L338.643 11.0757L338.902 58.9421L352.313 58.8695L352.054 11.0031Z" fill="#F5F5F5"/>
<path d="M351.97 20.2351C349.741 20.4663 347.499 20.5434 345.26 20.4659C343.023 20.5436 340.784 20.4665 338.559 20.2351C343.024 19.9275 347.505 19.9275 351.97 20.2351Z" fill="#E0E0E0"/>
<path d="M351.97 18.2234C349.741 18.4546 347.499 18.5317 345.26 18.4542C343.023 18.5319 340.784 18.4548 338.559 18.2234C343.024 17.9158 347.505 17.9158 351.97 18.2234Z" fill="#E0E0E0"/>
<path d="M351.97 51.6824C347.505 51.9901 343.024 51.9901 338.559 51.6824C343.024 51.3747 347.505 51.3747 351.97 51.6824Z" fill="#E0E0E0"/>
<path d="M351.97 49.6702C347.505 49.9779 343.024 49.9779 338.559 49.6702C343.024 49.3625 347.505 49.3625 351.97 49.6702Z" fill="#E0E0E0"/>
<path d="M345.48 45.286C345.351 45.286 345.24 40.4587 345.24 34.4961C345.24 28.5334 345.351 23.7153 345.48 23.7153C345.609 23.7153 345.711 28.5427 345.711 34.4961C345.711 40.4494 345.6 45.286 345.48 45.286Z" fill="#E0E0E0"/>
<path d="M366.709 22.7739H352.107V58.9096H366.709V22.7739Z" fill="#EBEBEB"/>
<path d="M336.608 10.1006C336.61 10.5921 336.466 11.073 336.194 11.4825C335.923 11.8921 335.536 12.2117 335.082 12.4011C334.628 12.5904 334.129 12.6409 333.647 12.5461C333.165 12.4514 332.721 12.2156 332.373 11.8688C332.025 11.5219 331.788 11.0795 331.691 10.5976C331.594 10.1158 331.643 9.61605 331.831 9.16183C332.018 8.7076 332.337 8.31928 332.745 8.04605C333.154 7.77281 333.634 7.62696 334.125 7.62695C334.782 7.62695 335.412 7.88727 335.878 8.35091C336.343 8.81455 336.606 9.44371 336.608 10.1006Z" fill="#E0E0E0"/>
<path d="M334.894 16.9312H333.361V52.07H334.894V16.9312Z" fill="#E0E0E0"/>
<path d="M387.386 407.012C387.386 407.142 300.623 407.252 193.702 407.252C86.7811 407.252 0 407.142 0 407.012C0 406.883 86.7073 406.772 193.702 406.772C300.697 406.772 387.386 406.874 387.386 407.012Z" fill="#263238"/>
<path d="M192.114 290.085L230.169 407.012H223.237L178.656 290.085H192.114Z" fill="#E0E0E0"/>
<path d="M192.115 290.086H191.192H188.608L178.621 290.141L178.713 290.003C186.356 309.912 202.831 352.97 221.919 402.812C222.436 404.178 222.953 405.581 223.47 406.883L223.248 406.735H230.171L229.94 407.049C219.316 374.273 209.837 345.06 203.016 324.034C199.619 313.502 196.887 305.029 195.004 299.168C194.081 296.242 193.343 293.971 192.844 292.421L192.291 290.658C192.171 290.261 192.115 290.049 192.115 290.049C192.115 290.049 192.189 290.233 192.318 290.621L192.9 292.347C193.407 293.888 194.155 296.131 195.115 299.03C197.035 304.872 199.804 313.318 203.256 323.803C210.132 344.857 219.685 374.098 230.392 406.874L230.494 407.187H223.11L223.045 407.031C222.538 405.683 222.011 404.326 221.495 402.96C202.527 353.044 186.143 309.939 178.584 290.058V289.919H178.732L188.774 289.975H191.331C191.848 290.067 192.115 290.086 192.115 290.086Z" fill="#263238"/>
<path d="M117.222 290.085L79.166 407.012H86.0886L130.679 290.085H117.222Z" fill="#E0E0E0"/>
<path d="M117.222 290.086C117.222 290.086 117.508 290.086 118.08 290.086H120.637L130.679 290.03H130.827L130.772 290.169C123.222 310.05 106.838 353.155 87.8704 403.071L86.3105 407.141L86.2552 407.298H78.8711L78.9726 406.984L106.118 323.914L114.259 299.14C115.182 296.242 115.967 293.999 116.474 292.458L117.056 290.732C117.185 290.344 117.259 290.16 117.259 290.16C117.259 290.16 117.204 290.372 117.084 290.769L116.53 292.532C116.031 294.082 115.302 296.353 114.37 299.279C112.478 305.14 109.755 313.613 106.358 324.145C99.528 345.171 90.0579 374.384 79.4341 407.16L79.2034 406.846H86.1259L85.9044 406.994L87.4551 402.923C106.543 353.081 123.019 309.986 130.615 290.123L130.716 290.261L120.72 290.206H118.145L117.222 290.086Z" fill="#263238"/>
<path d="M179.637 292.651C179.429 292.829 179.206 292.989 178.973 293.131L177.016 294.424L169.807 299.149C163.724 303.155 155.334 308.712 146.113 314.896L122.503 330.818L115.34 335.627L113.393 336.863C113.173 337.027 112.938 337.169 112.691 337.288C112.895 337.107 113.111 336.94 113.338 336.79L115.239 335.433L122.318 330.504C128.309 326.369 136.625 320.692 145.855 314.508C155.085 308.324 163.494 302.804 169.632 298.872C172.696 296.916 175.17 295.337 176.923 294.257L178.926 293.039C179.153 292.892 179.391 292.762 179.637 292.651Z" fill="#263238"/>
<path d="M106.627 165.433C106.627 165.433 94.7014 166.661 92.9662 173.842C91.2309 181.023 85.5821 269.835 92.9662 282.415C100.35 294.996 195.42 293.242 202.019 291.516C208.619 289.79 211.729 285.507 211.056 280.274C210.382 275.041 145.642 268.552 145.642 268.552L149.593 175.863C149.593 175.863 126.314 164.141 106.627 165.433Z" fill="#263238"/>
<path d="M211.11 282.517H210.824H209.975L206.717 282.6C203.883 282.674 199.785 282.711 194.718 282.701C184.565 282.701 170.581 282.351 155.158 281.243C147.451 280.68 140.113 279.969 133.458 279.212C126.803 278.455 120.822 277.625 115.819 276.84C113.309 276.471 111.056 276.074 109.072 275.742C107.088 275.41 105.38 275.105 103.986 274.819L100.783 274.2L99.9527 274.034L99.6758 273.96C99.7708 273.948 99.8669 273.948 99.9619 273.96L100.802 274.08L104.023 274.607C105.417 274.847 107.124 275.133 109.118 275.428C111.112 275.723 113.364 276.111 115.865 276.453C120.877 277.2 126.858 277.966 133.504 278.723C140.15 279.48 147.488 280.154 155.195 280.717C170.609 281.824 184.592 282.203 194.718 282.314C199.776 282.369 203.874 282.378 206.717 282.369H210.834L211.11 282.517Z" fill="#455A64"/>
<path d="M197.154 338.599C197.08 338.709 182.016 328.123 163.519 314.97C145.022 301.817 130.079 291.045 130.153 290.972C130.226 290.898 145.29 301.448 163.796 314.61C182.302 327.772 197.228 338.488 197.154 338.599Z" fill="#263238"/>
<path d="M115.051 85.6956L107.437 72.2843C112.14 64.6482 113.817 55.5291 112.137 46.7194C110.458 37.9098 105.545 30.0468 98.3623 24.6761C91.18 19.3053 82.2486 16.8153 73.3237 17.6955C64.3987 18.5756 56.1257 22.7623 50.1309 29.4325C44.1361 36.1027 40.853 44.774 40.927 53.742C41.001 62.7099 44.4268 71.3258 50.5309 77.8962C56.635 84.4665 64.9759 88.5161 73.9142 89.2488C82.8525 89.9815 91.7416 87.3444 98.8342 81.8559L115.051 85.6956Z" fill="white"/>
<path d="M115.051 85.6956L98.7881 82.0036H98.5666L98.705 81.819L98.9081 82.022C93.9085 85.9283 87.962 88.4381 81.6755 89.2953C79.7929 89.5629 77.8901 89.6617 75.9898 89.5907C75.0114 89.5353 74.0146 89.5076 73.0085 89.4245L69.9718 88.9723C60.9228 87.1968 52.8897 82.0416 47.5058 74.5549C44.5159 70.4254 42.4422 65.7052 41.4232 60.7098C40.3892 55.4113 40.5342 49.9502 41.8478 44.7141C43.2074 39.2491 45.8494 34.1867 49.5549 29.946C53.3169 25.5931 58.0634 22.201 63.4 20.0513C68.5188 18.03 74.0263 17.1847 79.5157 17.5777C84.6997 17.9353 89.7416 19.4289 94.2838 21.9527C102.447 26.4684 108.566 33.9451 111.378 42.8404C112.486 46.6373 113.012 50.5803 112.938 54.5349C112.742 60.8428 110.886 66.9875 107.557 72.3489V72.2012L115.051 85.6863C114.553 84.8372 112.209 80.7852 107.317 72.3397V72.2751V72.2012C110.574 66.8649 112.373 60.7664 112.532 54.5164C112.592 50.6122 112.057 46.7217 110.944 42.9788C108.166 34.1854 102.124 26.7901 94.0623 22.3127C89.5806 19.8331 84.6078 18.3708 79.4973 18.03C74.092 17.6462 68.6695 18.4821 63.6308 20.4759C58.3791 22.5954 53.7087 25.9368 50.0072 30.2229C46.357 34.3991 43.7559 39.3861 42.4201 44.7695C41.1174 49.9223 40.9693 55.2992 41.9863 60.516C42.973 65.458 45.0061 70.1315 47.9489 74.2226C53.2481 81.6264 61.1697 86.7325 70.101 88.5015L73.1008 88.963C74.0977 89.0461 75.0761 89.0738 76.0452 89.1384C77.9231 89.2138 79.8041 89.1243 81.6663 88.8707C87.8949 88.0488 93.7971 85.6007 98.7789 81.7728L99.7019 81.0805L99.0096 82.0036L98.9265 81.782L115.051 85.6956Z" fill="#263238"/>
<path d="M70.721 48.6831H72.9917L77.939 41.779V37.247C77.939 37.247 81.4464 37.0347 81.0403 42.9604C80.6341 48.8862 81.0403 47.3817 81.0403 47.3817C81.0403 47.3817 88.4889 47.3817 89.1073 48.0647C89.5596 48.5262 89.7627 55.9287 89.8365 59.9345C89.8881 60.9026 89.6132 61.86 89.0559 62.6533C88.4986 63.4466 87.6911 64.0298 86.7629 64.3096C86.5015 64.3826 86.2313 64.4198 85.9599 64.4204C84.1139 64.4204 74.6161 62.9066 74.6161 62.9066H70.6934L70.721 48.6831Z" fill="#FF725E"/>
<path d="M64.2207 47.437L65.6237 62.9528H69.5095V47.7508L64.2207 47.437Z" fill="#FF725E"/>
<path d="M258.646 244.056C258.646 244.056 280.004 244.056 280.881 263.956C281.758 283.856 218.707 388.838 218.707 388.838L198.743 379.359L241.552 277.487L148.66 268.349L151.291 244.979L258.646 244.056Z" fill="#FFBE9D"/>
<path d="M222.925 382.783L222.306 384.195C222.306 384.195 241.874 404.317 240.12 408.95L192.945 387.721L200.652 372.307C206.2 378.722 213.381 382.396 222.925 382.783Z" fill="#455A64"/>
<g opacity="0.6">
<path d="M203.174 379.488C202.658 379.423 202.136 379.55 201.707 379.844C201.278 380.139 200.973 380.58 200.848 381.085C200.762 381.599 200.878 382.126 201.17 382.557C201.462 382.988 201.908 383.29 202.417 383.402C202.963 383.469 203.515 383.331 203.967 383.016C204.418 382.701 204.737 382.23 204.863 381.694C204.899 381.15 204.722 380.613 204.368 380.198C204.015 379.783 203.514 379.521 202.971 379.47" fill="white"/>
</g>
<g opacity="0.6">
<path d="M192.945 387.731L194.791 384.039L239.326 405.738C239.326 405.738 241.016 407.584 240.111 408.969L192.945 387.731Z" fill="white"/>
</g>
<path d="M222.407 384.398C222.296 384.62 221.097 384.214 219.638 384.445C218.18 384.675 217.128 385.368 216.952 385.183C216.777 384.998 217.728 383.817 219.509 383.568C221.29 383.319 222.555 384.205 222.407 384.398Z" fill="#263238"/>
<path d="M226.441 388.672C226.395 388.912 225.213 388.857 223.995 389.485C222.777 390.112 222.084 391.035 221.863 390.924C221.641 390.814 222.075 389.438 223.607 388.691C225.139 387.943 226.533 388.451 226.441 388.672Z" fill="#263238"/>
<path d="M226.589 395.853C226.358 395.853 226.589 394.515 227.705 393.518C228.822 392.521 230.17 392.512 230.179 392.742C230.188 392.973 229.256 393.352 228.333 394.182C227.41 395.013 226.829 395.936 226.589 395.853Z" fill="#263238"/>
<path d="M218.236 169.024L222.029 180.627L201.345 182.242L198.936 176.03L218.236 169.024Z" fill="#FFBE9D"/>
<path d="M276.967 184.245C277.364 185.038 278.398 185.168 279.191 185.583C279.931 186.006 280.536 186.629 280.94 187.379C281.343 188.13 281.527 188.979 281.471 189.829C281.338 191.529 280.776 193.168 279.837 194.592C279.549 195.17 279.128 195.673 278.61 196.059C278.347 196.242 278.035 196.34 277.715 196.34C277.395 196.34 277.082 196.242 276.819 196.059C276.21 195.551 276.284 194.61 276.413 193.825C276.902 190.881 276.265 187.161 276.958 184.254" fill="#FFBE9D"/>
<path d="M139.401 38.7698C139.226 37.4754 139.541 36.1624 140.286 35.0894C141.031 34.0165 142.151 33.2615 143.425 32.9733L166.26 18.4452C174.964 16.4884 185.93 31.0257 187.489 39.7943C189.066 49.4319 189.684 59.2019 189.335 68.9613C188.708 83.9694 178.869 85.5755 178.869 85.5755L186.253 135.482L150.671 113.543L139.401 38.7698Z" fill="#FFBE9D"/>
<path d="M182.746 52.2454C182.807 52.7362 182.675 53.2315 182.377 53.6261C182.078 54.0207 181.638 54.2837 181.15 54.3591C180.669 54.4481 180.172 54.3426 179.769 54.0657C179.365 53.7888 179.089 53.3632 178.999 52.8823C178.938 52.3915 179.071 51.8963 179.369 51.5016C179.667 51.107 180.107 50.8441 180.596 50.7686C181.077 50.6796 181.573 50.7852 181.977 51.0621C182.38 51.3389 182.657 51.7646 182.746 52.2454Z" fill="#263238"/>
<path d="M185.681 46.8553C185.496 47.0584 183.982 47.0307 182.072 47.7783C180.161 48.5259 178.897 49.5228 178.657 49.4674C178.417 49.412 178.657 49.1444 179.238 48.6828C180.04 48.0278 180.949 47.5158 181.924 47.1691C182.855 46.8109 183.844 46.6263 184.841 46.6245C185.505 46.6061 185.773 46.763 185.681 46.8553Z" fill="#263238"/>
<path d="M163.843 53.159C163.901 53.6508 163.767 54.146 163.467 54.5403C163.167 54.9346 162.726 55.1972 162.237 55.2727C161.757 55.359 161.263 55.2522 160.862 54.9755C160.461 54.6989 160.185 54.2748 160.096 53.7959C160.032 53.3047 160.164 52.8082 160.462 52.413C160.761 52.0178 161.203 51.7554 161.692 51.6822C162.173 51.5932 162.67 51.6987 163.073 51.9756C163.477 52.2525 163.753 52.6781 163.843 53.159Z" fill="#263238"/>
<path d="M165.828 50.7226C165.551 50.8334 164.13 49.9842 161.924 49.6612C159.718 49.3381 157.992 49.6612 157.779 49.5135C157.567 49.3658 157.992 49.2089 158.702 49.0335C159.81 48.8137 160.947 48.7918 162.062 48.9689C163.143 49.1169 164.186 49.4676 165.136 50.0027C165.791 50.3811 166.003 50.6765 165.828 50.7226Z" fill="#263238"/>
<path d="M174.835 63.2752C175.865 62.809 176.951 62.4771 178.066 62.2876C178.574 62.1769 179.054 62.02 179.1 61.6508C179.083 61.1099 178.9 60.5874 178.574 60.1555C177.958 58.9248 177.294 57.6664 176.58 56.3804C173.811 50.9993 171.706 46.5504 171.965 46.4396C172.223 46.3288 174.623 50.6024 177.411 55.9835L179.34 59.7863C179.741 60.3762 179.92 61.0889 179.847 61.7984C179.793 61.9901 179.695 62.1668 179.563 62.3155C179.43 62.4642 179.265 62.5809 179.081 62.6568C178.802 62.7661 178.511 62.8405 178.214 62.8784C177.108 63.1511 175.974 63.2844 174.835 63.2752Z" fill="#263238"/>
<path d="M178.861 85.6123C171.966 86.6317 164.924 85.6714 158.555 82.8433C158.555 82.8433 164.619 93.2179 179.202 90.1166L178.861 85.6123Z" fill="#EB996E"/>
<path d="M175.066 68.2503C174.57 67.6037 173.935 67.0766 173.208 66.7076C172.481 66.3387 171.681 66.1372 170.866 66.1182C170.395 66.128 169.938 66.2806 169.556 66.5559C169.174 66.8311 168.884 67.216 168.725 67.6596C168.566 68.2326 168.547 68.8356 168.671 69.4174C168.794 69.9991 169.057 70.5424 169.436 71.0009C169.808 71.486 170.313 71.8519 170.891 72.0536C171.468 72.2553 172.091 72.284 172.685 72.1362C173.648 71.739 174.468 71.0601 175.038 70.1886C175.245 69.9667 175.394 69.6973 175.472 69.4041C175.506 69.2191 175.499 69.029 175.451 68.8471C175.403 68.6653 175.316 68.4962 175.195 68.3518" fill="#EB996E"/>
<path d="M169.011 65.3803C169.343 65.3157 169.602 67.5217 171.669 68.8693C173.737 70.2168 176.063 69.7 176.118 70.0046C176.118 70.143 175.647 70.4938 174.651 70.6414C173.362 70.8094 172.055 70.5186 170.959 69.82C169.906 69.1436 169.158 68.0844 168.873 66.8663C168.679 65.9156 168.863 65.3803 169.011 65.3803Z" fill="#263238"/>
<path d="M166.473 41.6493C166.279 42.2031 164.23 41.9723 161.858 42.3046C159.486 42.6369 157.529 43.3107 157.196 42.8215C157.049 42.5815 157.381 42.0554 158.119 41.5016C159.152 40.8199 160.326 40.3826 161.553 40.2226C162.779 40.0627 164.026 40.1844 165.199 40.5786C166.103 40.9939 166.556 41.3816 166.473 41.6493Z" fill="#263238"/>
<path d="M185.793 42.3049C185.396 42.8126 183.606 42.5357 181.511 42.748C179.415 42.9603 177.68 43.4956 177.219 43.0526C177.006 42.8403 177.219 42.3418 177.966 41.825C178.982 41.1737 180.141 40.7781 181.343 40.672C182.546 40.5659 183.756 40.7525 184.87 41.2158C185.664 41.6127 185.959 42.0557 185.793 42.3049Z" fill="#263238"/>
<path d="M129.386 77.1299C129.755 70.4381 130.825 49.0151 135.145 37.3298C139.465 25.6445 145.547 20.4111 151.805 17.9467C154.169 16.9368 156.753 16.554 159.308 16.8354C161.863 17.1167 164.302 18.0527 166.389 19.5527C169.601 21.8233 171.465 29.2996 171.465 29.2996C171.465 29.2996 156.282 34.5423 152.082 44.0678C147.218 54.9592 146.35 60.2573 146.35 60.2573L145.04 66.063C145.04 66.063 147.892 91.298 149.175 96.5222L128.592 116.422C129.266 109.85 129.016 83.8124 129.386 77.1299Z" fill="#263238"/>
<path d="M171.919 29.3363C171.919 29.3363 180.715 27.3519 185.155 37.0342C187.167 41.4185 189.161 54.6913 189.161 54.6913C189.161 54.6913 189.908 43.846 188.745 37.948C187.582 32.05 183.752 24.8505 178.712 21.2046C173.672 17.5588 169.851 16.1835 161.969 17.568C164.342 18.1615 166.497 19.4199 168.181 21.1954C169.371 22.5891 169.962 23.826 171.919 29.3363Z" fill="#263238"/>
<path d="M146.518 60.9772C145.983 57.7283 142.18 55.9561 139.541 57.9221C138.091 58.9928 137.113 60.9311 137.648 64.3831C139.088 73.6132 148.014 70.235 147.986 69.9766C147.958 69.7181 147.146 64.7708 146.518 60.9772Z" fill="#FFBE9D"/>
<path d="M144.634 66.9215C144.634 66.9215 144.495 67.06 144.246 67.2261C143.887 67.4446 143.459 67.5203 143.046 67.4384C142.022 67.2353 140.969 65.8139 140.665 64.171C140.517 63.3864 140.549 62.5787 140.757 61.8081C140.795 61.5067 140.907 61.2192 141.082 60.9713C141.258 60.7233 141.491 60.5225 141.763 60.3866C141.941 60.3121 142.138 60.3007 142.323 60.3545C142.508 60.4083 142.669 60.5239 142.779 60.682C142.945 60.922 142.908 61.1066 142.963 61.1158C143.018 61.125 143.138 60.9312 142.963 60.562C142.877 60.3424 142.717 60.1596 142.511 60.0451C142.227 59.8948 141.896 59.8617 141.588 59.9528C141.221 60.0873 140.895 60.313 140.64 60.6085C140.385 60.904 140.209 61.2597 140.129 61.6419C139.865 62.4964 139.814 63.403 139.982 64.2817C140.323 66.1277 141.542 67.7153 142.935 67.8907C143.192 67.9233 143.454 67.898 143.7 67.8165C143.945 67.7351 144.17 67.5996 144.357 67.4199C144.652 67.143 144.671 66.9308 144.634 66.9215Z" fill="#EB996E"/>
<path d="M155.434 16.9312C155.434 17.0051 156.707 16.8205 158.738 16.8574C159.926 16.8807 161.103 17.0894 162.227 17.4758C163.592 17.9805 164.846 18.7454 165.919 19.7279C167.905 21.5033 169.454 23.7148 170.442 26.189C171.199 28.035 171.365 29.3457 171.475 29.3272C171.462 29.0313 171.419 28.7375 171.346 28.4504C170.61 24.9923 168.786 21.861 166.14 19.5156C165.033 18.4901 163.731 17.6989 162.31 17.1897C161.156 16.8036 159.946 16.6133 158.729 16.6266C157.914 16.6263 157.1 16.6787 156.292 16.7835C156.002 16.8089 155.715 16.8583 155.434 16.9312Z" fill="#455A64"/>
<path d="M138.738 68.6285C138.741 68.5763 138.741 68.5239 138.738 68.4716L138.609 68.0563C138.544 67.8624 138.48 67.6317 138.396 67.3732L138.147 66.4502C137.644 64.4325 137.433 62.353 137.52 60.2753C137.637 57.1933 138.395 54.1694 139.744 51.396C141.469 48.0382 143.93 45.1134 146.944 42.8397C148.49 41.6462 150.108 40.5488 151.789 39.5538C153.414 38.5754 155.048 37.7632 156.561 36.8586C159.208 35.2436 161.727 33.426 164.093 31.4221C166.114 29.7146 167.674 28.247 168.708 27.2132C169.234 26.6963 169.631 26.2902 169.899 26.0041L170.203 25.681C170.268 25.6072 170.305 25.5703 170.296 25.561L170.185 25.6533L169.853 25.9579L168.634 27.1486C167.554 28.1547 165.976 29.5946 163.936 31.2652C161.561 33.236 159.044 35.0284 156.404 36.6279C154.909 37.5509 153.257 38.317 151.623 39.3046C149.926 40.2992 148.295 41.403 146.74 42.609C143.676 44.9044 141.176 47.8686 139.43 51.276C138.076 54.0881 137.334 57.1553 137.252 60.2753C137.188 62.3705 137.434 64.4636 137.981 66.4872L138.258 67.4102C138.36 67.6686 138.443 67.8901 138.507 68.084L138.673 68.4993C138.71 68.5824 138.729 68.6285 138.738 68.6285Z" fill="#455A64"/>
<path d="M136.198 65.3794C136.198 65.3794 136.198 65.324 136.198 65.2317L136.142 64.7887C136.142 64.401 135.995 63.8656 135.921 63.0995C135.703 61.0206 135.669 58.9265 135.819 56.8416C136.045 53.7538 136.665 50.7076 137.665 47.7776C138.915 44.199 140.738 40.8478 143.065 37.8553C145.461 34.8979 148.257 32.2885 151.372 30.1021C154.141 28.0345 156.91 26.41 159.116 24.9517C161.322 23.4933 163.159 22.3765 164.386 21.5273C165.005 21.1212 165.466 20.7797 165.78 20.5489L166.14 20.2905L166.26 20.189C166.26 20.189 166.205 20.189 166.122 20.2628L165.743 20.4936L164.313 21.4166C163.076 22.2196 161.248 23.3549 158.987 24.7394C156.725 26.1239 154.03 27.7853 151.187 29.8528C148.065 32.0418 145.269 34.6614 142.88 37.6338C140.508 40.6549 138.652 44.0483 137.388 47.6761C136.377 50.6346 135.756 53.7128 135.542 56.8323C135.414 58.9265 135.485 61.0281 135.755 63.1088C135.847 63.8472 135.976 64.4102 136.041 64.7979C136.041 64.9733 136.106 65.1209 136.133 65.2317C136.161 65.3425 136.189 65.3794 136.198 65.3794Z" fill="#455A64"/>
<path d="M185.479 100.925C185.479 100.925 197.376 105.761 199.656 111.955C201.936 118.148 219.233 169.292 219.233 169.292L199.157 176.99L190.001 134.901L185.479 100.925Z" fill="#455A64"/>
<path d="M123.97 246.16C123.97 246.16 246.729 240.52 254.437 242.551C262.144 244.582 266.749 248.467 268.282 257.707C269.814 266.946 293.48 389.355 293.48 389.355L271.955 395.687C271.955 395.687 241.754 326.738 240.471 315.201C239.188 303.663 234.933 280.016 234.933 280.016C234.933 280.016 188.266 280.782 153.903 280.016C119.539 279.25 124.154 247.443 124.154 247.443L123.97 246.16Z" fill="#FFBE9D"/>
<path d="M271.686 396.241L271.529 395.872C270.293 393.047 241.292 326.729 240.018 315.247C238.837 304.66 235.117 283.588 234.563 280.477C229.948 280.551 186.225 281.197 153.911 280.477C143.232 280.237 135.192 276.998 129.996 270.86C122.132 261.565 123.535 248.55 123.71 247.452L123.424 245.726H123.941C128.962 245.495 246.876 240.105 254.555 242.136C263.176 244.415 267.284 248.91 268.742 257.651C270.256 266.771 293.663 388.072 293.94 389.3L294.014 389.706L271.686 396.241ZM235.329 279.545L235.403 279.933C235.449 280.163 239.667 303.728 240.941 315.145C242.15 326.046 269.822 389.641 272.222 395.124L292.962 389.032C291.448 381.196 269.314 266.641 267.837 257.781C266.453 249.473 262.539 245.172 254.325 243.012C247.051 241.083 133.217 246.215 124.513 246.612L124.651 247.452V247.517C124.651 247.655 122.805 260.937 130.725 270.278C135.746 276.204 143.555 279.323 153.948 279.563C187.905 280.32 234.489 279.563 234.96 279.563L235.329 279.545Z" fill="#EB996E"/>
<path d="M132.257 179.953L135.349 199.077C135.349 199.077 121.92 224.525 120.406 246.4C119.686 256.793 125.649 278.078 125.649 278.078C125.649 278.078 172.944 283.274 198.455 282.609L225.675 281.419L230.475 238.896L199.923 234.484L200.385 176.538C200.385 176.538 205.923 161.28 206.347 156.767C207.326 147.241 206.919 137.605 197.403 125.255L185.478 100.925L181.5 99.0788L183.392 128.55L149.112 95.9775L131.75 102.208L126.83 125.421L132.257 179.953Z" fill="#455A64"/>
<g opacity="0.3">
<path d="M191.681 241.526C189.457 241.914 173.406 242.145 171.181 242.533C170.803 242.649 170.405 242.686 170.011 242.643C169.618 242.601 169.237 242.478 168.892 242.283C168.614 242.02 168.422 241.68 168.34 241.307C168.257 240.933 168.289 240.543 168.431 240.188C168.725 239.473 169.187 238.84 169.778 238.342C173.664 234.65 178.713 232.518 183.623 230.432C185.193 229.777 186.891 229.103 188.534 229.509C189.339 229.775 190.068 230.234 190.657 230.845C191.245 231.456 191.676 232.201 191.912 233.016C192.38 234.644 192.573 236.337 192.484 238.028" fill="black"/>
</g>
<g opacity="0.3">
<path d="M133.522 193.29C139.254 191.952 142.853 186.303 145.179 180.894C147.505 175.485 149.425 169.514 153.985 165.785C157.326 163.016 161.803 161.797 164.692 158.585C166.065 157.012 166.975 155.089 167.322 153.029C167.669 150.97 167.439 148.855 166.658 146.918C165.827 144.943 164.156 143.079 162.043 142.968C159.55 142.839 157.612 144.999 156.089 146.983C149.124 156.108 142.555 165.523 136.383 175.227C133.069 180.442 129.765 186.774 132.073 192.506" fill="black"/>
</g>
<path d="M133.559 105.254C133.559 105.254 123.858 108.337 120.351 114.419C116.843 120.502 111.028 150.038 109.625 157.995C108.222 165.951 101.438 198.69 109.625 203.84C117.812 208.991 128.575 201.071 131.381 196.355C134.187 191.638 145.641 167.114 145.641 167.114L135.35 158.465C135.35 158.465 137.196 135.076 136.522 130.157C135.848 125.237 133.559 105.254 133.559 105.254Z" fill="#FFBE9D"/>
<path d="M103.137 165.978L125.649 167.446L135.931 155.373L138.774 136.359L138.017 99.9834C138.017 99.9834 117.923 104.885 113.576 120.16C110.355 131.449 103.137 165.978 103.137 165.978Z" fill="#455A64"/>
<path d="M142.974 122.957C141.682 122.782 140.03 124.304 141.128 127.978C142.051 131.042 143.787 134.024 143.657 135.731C143.528 137.439 142.864 140.992 142.864 142.838C142.783 144.643 142.608 146.443 142.338 148.229L127.016 166.689L140.279 178.393L150.774 161.908C150.774 161.908 153.94 162.434 155.777 160.329L158.546 157.164C158.546 157.164 165.653 154.533 164.204 150.702C164.204 150.702 166.308 148.7 164.397 145.487C164.397 145.487 165.394 142.146 163.945 140.18C163.945 140.18 163.816 135.704 162.625 134.91C161.435 134.116 149.122 133.987 149.122 133.987C148.451 131.94 147.678 129.928 146.805 127.96C145.457 125.735 144.774 123.197 142.974 122.957Z" fill="#FFBE9D"/>
<path d="M148.215 141.112C148.215 141.159 147.892 140.983 147.606 140.549C147.233 139.965 147.071 139.271 147.144 138.581C147.218 137.892 147.524 137.248 148.012 136.756C148.382 136.396 148.695 136.285 148.723 136.331C148.174 136.996 147.797 137.785 147.625 138.629C147.626 139.492 147.828 140.342 148.215 141.112Z" fill="#EB996E"/>
<path d="M163.428 139.848C161.572 140.389 159.662 140.727 157.733 140.854C155.82 141.132 153.882 141.197 151.955 141.048C153.852 140.718 155.765 140.493 157.687 140.374C159.589 140.089 161.506 139.914 163.428 139.848Z" fill="#EB996E"/>
<path d="M164.517 145.128C162.987 145.749 161.372 146.135 159.726 146.272C158.104 146.573 156.446 146.629 154.807 146.438C154.807 146.3 156.985 146.161 159.662 145.792C162.338 145.423 164.489 144.998 164.517 145.128Z" fill="#EB996E"/>
<path d="M164.249 150.546C161.861 151.278 159.351 151.526 156.865 151.275C158.08 151.009 159.315 150.852 160.557 150.804C161.778 150.611 163.013 150.524 164.249 150.546Z" fill="#EB996E"/>
<path d="M152.62 152.207C152.62 152.262 152.361 152.207 152.047 152.032C151.634 151.75 151.343 151.32 151.235 150.832C151.117 150.348 151.183 149.838 151.42 149.401C151.604 149.078 151.807 148.949 151.854 148.986C151.9 149.023 151.475 149.789 151.697 150.721C151.918 151.653 152.684 152.087 152.62 152.207Z" fill="#EB996E"/>
<path d="M149.593 147.813C149.593 147.86 149.288 147.703 149.002 147.306C148.635 146.782 148.423 146.164 148.393 145.524C148.355 144.883 148.495 144.244 148.799 143.678C149.048 143.254 149.288 143.069 149.334 143.106C149.052 143.87 148.896 144.674 148.873 145.488C148.991 146.296 149.233 147.08 149.593 147.813Z" fill="#EB996E"/>
<path d="M160.463 156.37C159.793 156.725 159.058 156.938 158.303 156.997C157.572 157.208 156.804 157.261 156.051 157.154C156.719 156.796 157.455 156.582 158.211 156.527C158.941 156.311 159.71 156.257 160.463 156.37Z" fill="#EB996E"/>
<path d="M154.529 134.07C154.529 134.209 152.683 134.209 150.348 134.439C148.013 134.67 146.213 135.03 146.176 134.901C147.484 134.347 148.882 134.034 150.302 133.978C151.705 133.758 153.136 133.789 154.529 134.07Z" fill="#EB996E"/>
<path d="M195.06 178.439H271.356C272.702 178.439 273.993 178.974 274.945 179.926C275.897 180.878 276.432 182.169 276.432 183.516V237.594H190.002V183.506C190.004 182.165 190.538 180.879 191.486 179.929C192.433 178.98 193.718 178.444 195.06 178.439Z" fill="#E0E0E0"/>
<path d="M276.431 241.526H174.9C174.9 240.493 175.311 239.503 176.041 238.772C176.772 238.042 177.762 237.631 178.795 237.631H276.431V241.526Z" fill="#E0E0E0"/>
<path d="M273.237 182.242H192.621V237.631H273.237V182.242Z" fill="white"/>
<path d="M273.228 237.595C273.228 237.595 273.228 237.244 273.228 236.579C273.228 235.915 273.228 234.918 273.228 233.644C273.228 231.069 273.228 227.303 273.172 222.485C273.172 212.849 273.117 199.031 273.071 182.205L273.265 182.399H192.658L192.898 182.159C192.898 201.939 192.898 220.722 192.898 237.539L192.686 237.318L250.752 237.428L267.367 237.493H271.788H272.923H273.32H272.951H271.834H267.459L250.928 237.548L192.714 237.659H192.492V237.595C192.492 220.768 192.492 201.985 192.492 182.214V181.974H192.732H273.338H273.532V182.214C273.532 199.087 273.458 212.95 273.431 222.614C273.431 227.414 273.431 231.161 273.431 233.69C273.431 234.955 273.431 235.924 273.431 236.588C273.431 237.253 273.228 237.595 273.228 237.595Z" fill="#263238"/>
<path d="M276.006 237.594C276.006 237.733 254.214 237.834 227.336 237.834C200.458 237.834 178.656 237.733 178.656 237.594C178.656 237.456 200.448 237.354 227.336 237.354C254.223 237.354 276.006 237.502 276.006 237.594Z" fill="#263238"/>
<path d="M232.921 231.124C244.62 231.124 254.104 221.64 254.104 209.941C254.104 198.242 244.62 188.758 232.921 188.758C221.222 188.758 211.738 198.242 211.738 209.941C211.738 221.64 221.222 231.124 232.921 231.124Z" fill="#FF725E"/>
<path d="M219.758 210.458L224.244 206.212L230.437 211.916L242.63 200.443L247.06 204.634L230.372 220.473L219.758 210.458Z" fill="white"/>
<path d="M142.355 148.229C142.456 148.312 136.097 155.991 128.15 165.369C120.203 174.747 113.677 182.278 113.575 182.214C113.474 182.149 119.833 174.461 127.78 165.074C135.728 155.687 142.253 148.146 142.355 148.229Z" fill="#EB996E"/>
<path d="M141.257 136.332C141.05 139.009 140.683 141.672 140.159 144.306C139.796 146.969 139.272 149.608 138.59 152.207C138.797 149.526 139.164 146.86 139.688 144.223C140.058 141.564 140.581 138.929 141.257 136.332Z" fill="#263238"/>
<path d="M200.385 176.537C200.418 176.349 200.467 176.163 200.532 175.983L201.031 174.433C201.474 173.094 202.129 171.156 202.877 168.747C203.769 165.933 204.515 163.074 205.11 160.182C205.854 156.651 206.185 153.045 206.098 149.438C205.764 142.87 203.92 136.467 200.708 130.728C199.754 128.981 198.706 127.286 197.569 125.652C197.182 125.07 196.849 124.637 196.646 124.332C196.528 124.18 196.425 124.016 196.342 123.843C196.483 123.97 196.61 124.113 196.72 124.267C196.96 124.563 197.32 124.978 197.736 125.55C198.935 127.15 200.033 128.824 201.021 130.562C202.491 133.15 203.699 135.877 204.63 138.703C205.788 142.165 206.456 145.772 206.615 149.419C206.708 153.066 206.361 156.71 205.581 160.274C204.96 163.173 204.177 166.036 203.237 168.849C202.443 171.248 201.741 173.177 201.243 174.497C201.003 175.113 200.809 175.62 200.661 176.02C200.591 176.203 200.498 176.377 200.385 176.537Z" fill="#263238"/>
<path d="M180.77 147.795C180.808 148.225 180.808 148.658 180.77 149.088C180.769 149.594 180.732 150.1 180.659 150.601C180.593 151.271 180.491 151.936 180.355 152.595C180.207 153.394 180.01 154.183 179.764 154.958C179.504 155.857 179.196 156.741 178.841 157.607C177.989 159.56 176.931 161.417 175.684 163.145C174.407 164.87 172.943 166.449 171.319 167.852C170.607 168.46 169.861 169.027 169.085 169.551C168.421 170.022 167.727 170.451 167.008 170.834C166.412 171.178 165.796 171.487 165.162 171.757C164.709 171.978 164.24 172.166 163.759 172.32C163.36 172.484 162.946 172.611 162.522 172.698C162.476 172.597 164.248 172.052 166.796 170.566C167.493 170.166 168.167 169.728 168.817 169.255C169.537 168.775 170.229 168.166 170.986 167.548C174.167 164.75 176.688 161.282 178.37 157.395C178.722 156.55 179.03 155.687 179.293 154.81C179.548 154.047 179.761 153.271 179.93 152.484C180.696 149.641 180.678 147.795 180.77 147.795Z" fill="#263238"/>
<path d="M206.144 156.185C206.092 156.134 206.048 156.075 206.015 156.01L205.692 155.447C205.387 154.939 204.972 154.247 204.446 153.388C203.92 152.53 203.098 151.478 202.24 150.278C201.381 149.078 200.292 147.767 199.138 146.3C194.394 140.503 187.389 132.888 179.358 124.757C171.328 116.625 163.787 109.536 158.259 104.451L154.493 101.082C153.385 100.103 152.425 99.2357 151.622 98.5711L149.776 97.0112L149.305 96.5959C149.245 96.5527 149.192 96.4997 149.148 96.439C149.215 96.4715 149.277 96.5117 149.333 96.5589C149.471 96.6605 149.638 96.7805 149.831 96.9374L151.733 98.4234L154.659 100.879C155.794 101.857 157.068 102.974 158.471 104.201C164.073 109.186 171.633 116.265 179.7 124.388C187.767 132.51 194.717 140.189 199.397 146.051C200.541 147.537 201.575 148.875 202.461 150.075L204.603 153.25C205.092 154.173 205.526 154.838 205.775 155.364L206.07 155.918C206.132 156.096 206.156 156.185 206.144 156.185Z" fill="#263238"/>
<path d="M188.22 198.883C188.051 198.942 187.874 198.977 187.694 198.985L186.19 199.197C184.879 199.372 182.968 199.575 180.652 199.788C175.935 200.212 169.391 200.554 162.191 200.471C154.992 200.388 148.42 199.861 143.731 199.326C141.378 199.058 139.476 198.8 138.193 198.588L136.689 198.348C136.512 198.328 136.339 198.288 136.172 198.228C136.35 198.205 136.529 198.205 136.707 198.228L138.221 198.385C139.532 198.542 141.442 198.745 143.759 198.966C148.457 199.418 154.983 199.889 162.219 199.972C169.456 200.055 175.963 199.76 180.679 199.428C183.033 199.261 184.944 199.114 186.217 198.994L187.731 198.874C187.894 198.86 188.058 198.863 188.22 198.883Z" fill="#263238"/>
<path d="M228.195 178.374C228.195 178.374 243.314 172.476 244.745 172.005C246.175 171.535 259.393 170.501 259.393 170.501L276.432 176.621C276.432 176.621 276.589 180.119 272.61 179.648C269.103 179.056 265.645 178.204 262.263 177.1L259.873 178.522L228.195 178.374Z" fill="#FFBE9D"/>
<path d="M275.61 180.617C276.007 181.42 277.041 181.54 277.835 181.965C278.569 182.394 279.171 183.017 279.573 183.766C279.975 184.516 280.163 185.362 280.115 186.211C279.982 187.908 279.42 189.544 278.481 190.964C278.193 191.538 277.776 192.037 277.262 192.422C277 192.605 276.687 192.703 276.367 192.703C276.047 192.703 275.735 192.605 275.472 192.422C275.22 192.115 275.05 191.749 274.979 191.358C274.908 190.967 274.938 190.565 275.066 190.189C275.555 187.244 274.918 183.515 275.61 180.608" fill="#FFBE9D"/>
<path d="M292.74 384.786L293.257 386.226C293.257 386.226 321.317 387.324 323.236 391.884L274.428 409.034L269.379 392.558C277.824 393.37 285.55 391.081 292.74 384.786Z" fill="#455A64"/>
<g opacity="0.6">
<path d="M276.154 396.011C275.733 396.32 275.442 396.773 275.334 397.284C275.227 397.795 275.312 398.327 275.572 398.78C275.866 399.219 276.319 399.527 276.836 399.639C277.352 399.751 277.892 399.658 278.341 399.379C278.786 399.053 279.094 398.573 279.205 398.032C279.316 397.491 279.222 396.929 278.941 396.454C278.589 396.038 278.09 395.774 277.549 395.718C277.007 395.661 276.464 395.815 276.034 396.149" fill="white"/>
</g>
<g opacity="0.6">
<path d="M274.428 409.034L273.219 405.075L320.44 390.085C320.44 390.085 322.941 390.27 323.209 391.931L274.428 409.034Z" fill="white"/>
</g>
<path d="M293.48 386.309C293.553 386.549 292.4 387.075 291.495 388.257C290.591 389.438 290.323 390.656 290.074 390.638C289.825 390.619 289.686 389.115 290.803 387.712C291.92 386.309 293.452 386.069 293.48 386.309Z" fill="#263238"/>
<path d="M299.341 386.623C299.48 386.835 298.585 387.601 298.132 388.894C297.68 390.186 297.818 391.34 297.578 391.413C297.338 391.487 296.711 390.186 297.311 388.589C297.911 386.992 299.258 386.401 299.341 386.623Z" fill="#263238"/>
<path d="M304.399 391.736C304.205 391.866 303.476 390.813 303.605 389.272C303.734 387.73 304.694 386.844 304.86 387.001C305.027 387.158 304.593 388.109 304.482 389.355C304.371 390.601 304.63 391.626 304.399 391.736Z" fill="#263238"/>
</svg>
