<svg width="294" height="245" viewBox="0 0 294 245" fill="none" xmlns="http://www.w3.org/2000/svg">
<path d="M144.521 99.5271L145.858 101.183L18.7139 202.457L24.1346 209.167L24.8749 210.083L152.019 108.808L153.356 110.464L155.736 99.5032L144.521 99.5271Z" fill="#2D014B"/>
<path opacity="0.7" d="M144.521 99.5271L145.858 101.183L18.7139 202.457L24.1346 209.167L24.8749 210.083L152.019 108.808L153.356 110.464L155.736 99.5032L144.521 99.5271Z" fill="white"/>
<path d="M3.82146e-05 209.543C0.0021421 208.433 0.443939 207.37 1.22869 206.585C2.01343 205.8 3.07717 205.358 4.18697 205.356C4.59463 205.355 5.00001 205.417 5.38892 205.539C5.32488 205.113 5.29295 204.681 5.2934 204.25C5.2934 203.086 5.52283 201.933 5.96855 200.858C6.41428 199.782 7.06756 198.805 7.89108 197.982C8.7146 197.16 9.69219 196.507 10.768 196.063C11.8438 195.618 12.9967 195.389 14.1608 195.39C14.695 195.391 15.2281 195.441 15.7528 195.542C16.6324 194.121 17.9477 193.024 19.5024 192.412C21.0571 191.8 22.7679 191.708 24.3794 192.149C25.9909 192.589 27.4168 193.539 28.4443 194.856C29.4718 196.173 30.0458 197.788 30.0807 199.458H30.3195C31.3062 199.377 32.299 199.502 33.2351 199.824C34.1713 200.146 35.0305 200.659 35.7586 201.33C36.4866 202.001 37.0677 202.815 37.4652 203.722C37.8627 204.629 38.0679 205.608 38.0679 206.598C38.0679 207.588 37.8627 208.567 37.4652 209.474C37.0677 210.381 36.4866 211.195 35.7586 211.866C35.0305 212.537 34.1713 213.05 33.2351 213.372C32.299 213.694 31.3062 213.819 30.3195 213.738H4.05165C2.96278 213.705 1.92991 213.248 1.17311 212.464C0.416299 211.681 -0.00461751 210.633 3.82146e-05 209.543Z" fill="#2D014B"/>
<path opacity="0.8" d="M3.82146e-05 209.543C0.0021421 208.433 0.443939 207.37 1.22869 206.585C2.01343 205.8 3.07717 205.358 4.18697 205.356C4.59463 205.355 5.00001 205.417 5.38892 205.539C5.32488 205.113 5.29295 204.681 5.2934 204.25C5.2934 203.086 5.52283 201.933 5.96855 200.858C6.41428 199.782 7.06756 198.805 7.89108 197.982C8.7146 197.16 9.69219 196.507 10.768 196.063C11.8438 195.618 12.9967 195.389 14.1608 195.39C14.695 195.391 15.2281 195.441 15.7528 195.542C16.6324 194.121 17.9477 193.024 19.5024 192.412C21.0571 191.8 22.7679 191.708 24.3794 192.149C25.9909 192.589 27.4168 193.539 28.4443 194.856C29.4718 196.173 30.0458 197.788 30.0807 199.458H30.3195C31.3062 199.377 32.299 199.502 33.2351 199.824C34.1713 200.146 35.0305 200.659 35.7586 201.33C36.4866 202.001 37.0677 202.815 37.4652 203.722C37.8627 204.629 38.0679 205.608 38.0679 206.598C38.0679 207.588 37.8627 208.567 37.4652 209.474C37.0677 210.381 36.4866 211.195 35.7586 211.866C35.0305 212.537 34.1713 213.05 33.2351 213.372C32.299 213.694 31.3062 213.819 30.3195 213.738H4.05165C2.96278 213.705 1.92991 213.248 1.17311 212.464C0.416299 211.681 -0.00461751 210.633 3.82146e-05 209.543Z" fill="white"/>
<path d="M266.531 163.673L269.707 167.605L210.604 215.341L223.452 231.245L225.211 233.426L284.306 185.682L287.482 189.614L293.133 163.617L266.531 163.673Z" fill="#2D014B"/>
<path opacity="0.5" d="M266.531 163.673L269.707 167.605L210.604 215.341L223.452 231.245L225.211 233.426L284.306 185.682L287.482 189.614L293.133 163.617L266.531 163.673Z" fill="white"/>
<path d="M234.58 213.629C233.361 211.673 231.66 210.063 229.64 208.952C227.62 207.842 225.349 207.269 223.044 207.288C220.739 207.307 218.478 207.918 216.477 209.062C214.476 210.206 212.802 211.844 211.616 213.82C210.542 213.506 209.409 213.447 208.308 213.649C207.207 213.851 206.169 214.308 205.277 214.984C204.385 215.66 203.663 216.535 203.17 217.539C202.677 218.544 202.426 219.65 202.438 220.77H198.633C198.145 220.747 197.657 220.823 197.199 220.994C196.741 221.165 196.322 221.427 195.969 221.765C195.615 222.102 195.334 222.508 195.141 222.957C194.949 223.407 194.85 223.89 194.85 224.379C194.85 224.868 194.949 225.352 195.141 225.801C195.334 226.251 195.615 226.656 195.969 226.994C196.322 227.331 196.741 227.594 197.199 227.765C197.657 227.936 198.145 228.012 198.633 227.989H211.807C212.894 229.707 214.356 231.156 216.084 232.228C217.811 233.299 219.758 233.966 221.78 234.179C223.802 234.391 225.845 234.142 227.757 233.452C229.67 232.762 231.401 231.648 232.821 230.194C233.049 230.206 233.278 230.206 233.506 230.194C235.625 230.198 237.666 229.395 239.215 227.949C240.764 226.503 241.704 224.521 241.845 222.406C241.986 220.292 241.316 218.203 239.973 216.564C238.63 214.925 236.713 213.859 234.612 213.582L234.58 213.629Z" fill="#2D014B"/>
<path opacity="0.8" d="M234.58 213.629C233.361 211.673 231.66 210.063 229.64 208.952C227.62 207.842 225.349 207.269 223.044 207.288C220.739 207.307 218.478 207.918 216.477 209.062C214.476 210.206 212.802 211.844 211.616 213.82C210.542 213.506 209.409 213.447 208.308 213.649C207.207 213.851 206.169 214.308 205.277 214.984C204.385 215.66 203.663 216.535 203.17 217.539C202.677 218.544 202.426 219.65 202.438 220.77H198.633C198.145 220.747 197.657 220.823 197.199 220.994C196.741 221.165 196.322 221.427 195.969 221.765C195.615 222.102 195.334 222.508 195.141 222.957C194.949 223.407 194.85 223.89 194.85 224.379C194.85 224.868 194.949 225.352 195.141 225.801C195.334 226.251 195.615 226.656 195.969 226.994C196.322 227.331 196.741 227.594 197.199 227.765C197.657 227.936 198.145 228.012 198.633 227.989H211.807C212.894 229.707 214.356 231.156 216.084 232.228C217.811 233.299 219.758 233.966 221.78 234.179C223.802 234.391 225.845 234.142 227.757 233.452C229.67 232.762 231.401 231.648 232.821 230.194C233.049 230.206 233.278 230.206 233.506 230.194C235.625 230.198 237.666 229.395 239.215 227.949C240.764 226.503 241.704 224.521 241.845 222.406C241.986 220.292 241.316 218.203 239.973 216.564C238.63 214.925 236.713 213.859 234.612 213.582L234.58 213.629Z" fill="white"/>
<path d="M145.852 52.1048L144.706 50.871C144.554 50.711 144.364 50.592 144.154 50.5252C143.944 50.4584 143.72 50.4459 143.504 50.489L141.76 50.871C141.488 50.9252 141.239 51.0634 141.049 51.2661C140.86 51.4688 140.738 51.7259 140.702 52.0013L139.826 59.1653L142.485 60.1921C145.732 58.7753 145.565 54.4928 145.565 54.4928L146.027 53.6411C146.164 53.3994 146.221 53.1205 146.189 52.8445C146.158 52.5684 146.04 52.3095 145.852 52.1048Z" fill="#FFB573"/>
<path d="M113.716 73.6676C113.716 73.6676 116.271 73.8189 117.768 73.787C119.264 73.7552 120.777 73.7393 122.249 73.6517C123.722 73.5642 125.178 73.4527 126.516 73.2696C127.127 73.1879 127.733 73.0709 128.331 72.9194L128.904 72.7363C129.079 72.6567 128.904 72.7921 128.983 72.7363C129.397 72.3225 129.783 71.881 130.137 71.415C130.575 70.8578 131.013 70.2608 131.451 69.6558C132.326 68.438 133.186 67.1723 134.054 65.8987L139.252 58.1855L143.319 60.3427C142.722 61.8312 142.069 63.264 141.425 64.7127C140.78 66.1614 140.063 67.5783 139.363 69.0031C138.663 70.4279 137.898 71.8448 137.086 73.2617C136.68 73.9701 136.29 74.6786 135.797 75.4029C135.279 76.237 134.688 77.0228 134.03 77.7511C133.499 78.3039 132.884 78.7687 132.207 79.1282C131.694 79.4028 131.162 79.6395 130.615 79.8366C129.722 80.1658 128.807 80.4317 127.877 80.6326C126.216 81.0079 124.533 81.2738 122.838 81.4286C119.594 81.7588 116.332 81.8864 113.071 81.8107L113.716 73.6676Z" fill="#2D014B"/>
<path opacity="0.7" d="M143.354 60.3712C142.757 61.8517 142.112 63.2845 141.467 64.7332C140.822 66.1819 140.106 67.5988 139.398 69.0316C138.689 70.4644 137.941 71.8653 137.129 73.2822C136.723 73.9906 136.333 74.6991 135.832 75.4234C135.32 76.2594 134.731 77.0455 134.072 77.7716C133.529 78.3245 132.9 78.7868 132.21 79.1407C131.698 79.4192 131.166 79.6587 130.618 79.8571C129.726 80.1818 128.814 80.4477 127.888 80.6531C126.226 81.0244 124.544 81.2902 122.849 81.4491C122.14 81.5207 121.44 81.5765 120.747 81.6322C118.192 81.8153 115.677 81.8789 113.082 81.8232L113.209 80.1516L113.711 73.728C113.711 73.728 116.258 73.8872 117.755 73.8474C119.251 73.8076 120.763 73.7996 122.244 73.712C123.724 73.6245 125.173 73.521 126.51 73.33C127.123 73.2544 127.729 73.1374 128.325 72.9797C128.52 72.9315 128.712 72.8703 128.898 72.7966C129.074 72.717 128.898 72.8603 128.978 72.7966C129.392 72.3828 129.778 71.9413 130.132 71.4753C130.57 70.9181 131.008 70.3211 131.438 69.7161C132.313 68.4983 133.181 67.2326 134.049 65.959L139.246 58.2458L143.354 60.3712Z" fill="white"/>
<path opacity="0.1" d="M120.751 81.5795C118.196 81.7625 115.681 81.8262 113.086 81.7705L113.213 80.0989L113.834 78.6343C116.434 78.6861 118.912 79.7415 120.751 81.5795Z" fill="black"/>
<path d="M71.147 216.448C71.147 216.448 63.9831 211.489 64.3811 208.162C64.3958 208.085 64.3945 208.006 64.3773 207.93C64.36 207.854 64.3272 207.782 64.2808 207.719C64.2344 207.657 64.1756 207.604 64.1079 207.565C64.0402 207.526 63.9652 207.502 63.8875 207.493L57.7823 206.57C57.633 206.542 57.4788 206.556 57.3377 206.613C57.1967 206.669 57.0747 206.765 56.9863 206.888L53.4043 211.975L54.9963 212.556L55.8639 211.951L56.2778 213.025C65.0736 216.209 68.9103 217.491 70.8525 217.571C71.4256 216.886 71.147 216.448 71.147 216.448Z" fill="black"/>
<path d="M111.729 122.834C111.729 122.834 111.363 123.79 110.718 125.445C110.026 127.236 109.007 129.847 107.781 132.951C106.985 135.021 106.054 137.313 105.075 139.725C100.577 150.869 94.7665 164.728 90.9218 171.708C83.5589 185.065 64.3754 210.434 64.3754 210.434L56.71 207.632C56.71 207.632 70.5125 181.507 77.4775 168.27C80.1178 162.925 82.446 157.431 84.4504 151.816C85.6046 148.736 86.7508 145.528 87.8572 142.352C88.3587 140.919 88.8522 139.487 89.3298 138.078C90.5955 134.352 91.7815 130.762 92.8243 127.563C92.9516 127.165 93.079 126.767 93.2063 126.384C93.6282 125.071 94.0023 123.829 94.3844 122.683C95.8809 117.971 96.8122 114.866 96.844 114.723L103.682 118.448L111.729 122.834Z" fill="#263238"/>
<path opacity="0.3" d="M110.714 125.443C110.022 127.234 109.003 129.845 107.777 132.949C106.981 135.019 106.05 137.311 105.071 139.723C98.8141 140.981 92.4461 141.832 87.8691 142.35C88.3706 140.917 88.8641 139.484 89.3417 138.075C90.6074 134.35 91.7934 130.76 92.8361 127.56C92.9635 127.162 93.0909 126.764 93.2182 126.382C93.6401 125.069 94.0142 123.827 94.3963 122.681C98.9971 123.309 105.142 124.249 110.714 125.443Z" fill="black"/>
<path d="M87.2305 77.939C88.3324 81.941 89.0389 86.0414 89.3399 90.1814C89.6184 93.4848 89.7219 96.7324 89.7378 99.6537C89.7538 102.575 89.6582 105.186 89.5627 107.176C89.4354 109.739 89.2841 111.307 89.2841 111.307L113.466 112.557C120.726 86.289 113.705 73.6804 113.705 73.6804C111.551 73.4918 109.387 73.4413 107.226 73.5292C106.78 73.5292 106.318 73.577 105.857 73.6168C102.217 74.0353 98.6047 74.6679 95.0392 75.5112C94.3944 75.6545 93.7417 75.8217 93.1049 75.9888C89.9528 76.8485 87.2305 77.939 87.2305 77.939Z" fill="#2D014B"/>
<path opacity="0.7" d="M113.476 112.556L89.2937 111.314C89.2937 111.314 89.445 109.722 89.5724 107.175C89.5724 106.426 89.636 105.583 89.6679 104.651C89.7156 103.163 89.7475 101.467 89.7475 99.6525C89.7475 98.7689 89.7475 97.8535 89.6997 96.9142C89.6997 96.763 89.6997 96.6117 89.6997 96.4605C89.6599 94.972 89.5883 93.4278 89.4848 91.8597C89.437 91.3025 89.3972 90.7453 89.3495 90.1881C89.3495 89.7503 89.2778 89.3045 89.238 88.8667C89.1186 87.7523 88.9913 86.6379 88.8321 85.5395C88.7923 85.237 88.7445 84.9345 88.6968 84.64C88.6251 84.1385 88.5455 83.653 88.458 83.1594C88.1489 81.3957 87.745 79.65 87.248 77.9297C87.248 77.9297 89.9783 76.8631 93.1384 75.9955C93.7672 75.8283 94.42 75.6612 95.0647 75.5179C98.6313 74.6798 102.243 74.0473 105.882 73.6234C106.352 73.6234 106.806 73.5518 107.259 73.5438C109.42 73.4513 111.584 73.4991 113.739 73.6871C113.739 73.6871 120.736 86.2479 113.476 112.556Z" fill="white"/>
<path d="M128.433 175.48C128.433 175.48 121.524 170.115 122.16 166.819C122.179 166.743 122.182 166.664 122.169 166.587C122.156 166.51 122.127 166.437 122.085 166.371C122.042 166.305 121.987 166.249 121.922 166.206C121.857 166.162 121.784 166.133 121.707 166.119L115.657 164.845C115.512 164.812 115.36 164.821 115.219 164.87C115.078 164.92 114.954 165.007 114.861 165.124L110.969 169.971L112.561 170.648L113.46 170.091L113.81 171.181C122.415 174.867 126.172 176.371 128.138 176.562C128.688 175.909 128.433 175.48 128.433 175.48Z" fill="black"/>
<path d="M100.861 133.094H101.426L130.424 137.313L113.899 164.703L122.162 167.887C122.162 167.887 152.051 135.665 145.373 128.318C139.881 122.276 112.976 118.599 112.976 118.599L113.859 112.295L88.9926 107.391C78.3501 130.65 97.3027 132.863 100.861 133.094Z" fill="#263238"/>
<path d="M88.6982 109.836L88.1729 109.733L88.6505 108.061L89.1201 108.149L88.6982 109.836Z" fill="#263238"/>
<path d="M108.273 113.63L97.6465 111.576L98.0604 109.888L108.647 111.942L108.273 113.63Z" fill="#263238"/>
<path d="M109.467 112.091L113.956 112.959L113.654 114.662L109.108 113.779L109.467 112.091Z" fill="#263238"/>
<path d="M89.9401 108.309L97.2474 109.726L96.8175 111.406L89.5342 109.997L89.9401 108.309Z" fill="#263238"/>
<g opacity="0.2">
<path d="M88.7002 109.833L88.1748 109.729L88.6524 108.058L89.122 108.145L88.7002 109.833Z" fill="white"/>
<path d="M108.276 113.626L97.6494 111.572L98.0633 109.885L108.65 111.938L108.276 113.626Z" fill="white"/>
<path d="M109.468 112.1L113.957 112.968L113.655 114.671L109.109 113.788L109.468 112.1Z" fill="white"/>
<path d="M89.9401 108.308L97.2474 109.724L96.8175 111.404L89.5342 109.995L89.9401 108.308Z" fill="white"/>
</g>
<path d="M104.779 113.13H104.683L102.025 112.653C101.95 112.641 101.879 112.614 101.816 112.572C101.753 112.531 101.699 112.477 101.659 112.414C101.616 112.352 101.588 112.281 101.575 112.207C101.563 112.132 101.567 112.056 101.587 111.984L101.85 110.917C101.882 110.78 101.967 110.661 102.086 110.585C102.205 110.509 102.348 110.483 102.487 110.511L105.121 111.021C105.195 111.032 105.265 111.06 105.326 111.101C105.388 111.142 105.44 111.196 105.479 111.26C105.52 111.321 105.547 111.39 105.559 111.463C105.572 111.536 105.569 111.61 105.551 111.681L105.312 112.708C105.284 112.828 105.216 112.935 105.119 113.012C105.022 113.088 104.902 113.13 104.779 113.13ZM102.391 110.957C102.373 110.958 102.355 110.965 102.341 110.976C102.327 110.988 102.316 111.003 102.311 111.021L102.049 112.087C102.044 112.097 102.042 112.108 102.042 112.119C102.042 112.13 102.044 112.141 102.049 112.151C102.058 112.155 102.067 112.157 102.077 112.157C102.086 112.157 102.096 112.155 102.104 112.151L104.763 112.629C104.784 112.63 104.804 112.624 104.821 112.613C104.839 112.601 104.852 112.584 104.859 112.565L105.097 111.538C105.102 111.528 105.105 111.517 105.105 111.506C105.105 111.495 105.102 111.484 105.097 111.474C105.09 111.47 105.082 111.468 105.073 111.468C105.065 111.468 105.057 111.47 105.05 111.474L102.415 110.957H102.391Z" fill="white"/>
<path d="M103.12 111.94H103.08L102.284 111.796C102.253 111.792 102.224 111.781 102.198 111.764C102.172 111.748 102.149 111.727 102.131 111.701C102.113 111.676 102.101 111.648 102.094 111.617C102.088 111.587 102.087 111.556 102.093 111.526C102.097 111.495 102.107 111.465 102.123 111.438C102.139 111.411 102.16 111.388 102.186 111.37C102.211 111.352 102.24 111.339 102.271 111.333C102.301 111.327 102.333 111.328 102.363 111.335L103.159 111.478C103.19 111.483 103.219 111.494 103.245 111.51C103.272 111.526 103.294 111.548 103.312 111.573C103.33 111.598 103.343 111.627 103.349 111.657C103.356 111.687 103.356 111.718 103.351 111.749C103.34 111.802 103.311 111.85 103.269 111.885C103.227 111.92 103.174 111.939 103.12 111.94Z" fill="white"/>
<path d="M97.5571 64.5322L103.869 69.7699C103.256 72.333 104.331 74.6971 105.573 75.1349C105.573 75.1349 106.496 77.3318 104.721 77.698C101.115 78.4462 97.0078 74.9598 97.0078 74.9598C98.9182 72.9141 98.2257 67.8038 97.5571 64.5322Z" fill="#EBB376"/>
<path opacity="0.2" d="M100.132 66.666L103.873 69.7624C103.715 70.357 103.608 70.9643 103.555 71.5773C102.154 71.3942 100.22 69.8978 100.06 68.4331C99.9809 67.8444 100.005 67.2463 100.132 66.666Z" fill="black"/>
<path d="M103.14 54.174C104.669 55.1292 106.738 58.0027 104.167 58.6952C101.596 59.3877 100.506 52.5342 103.14 54.174Z" fill="#263238"/>
<path d="M95.2406 64.003C97.9151 67.5213 99.3002 69.7262 102.405 70.371C107.077 71.3262 110.468 66.5661 108.9 62.2996C107.483 58.4629 103.328 53.3446 98.7987 54.3396C97.7958 54.5582 96.8641 55.026 96.0899 55.7C95.3157 56.3739 94.7239 57.2322 94.3692 58.1954C94.0145 59.1587 93.9084 60.1958 94.0608 61.2109C94.2131 62.226 94.6188 63.1863 95.2406 64.003Z" fill="#FFB573"/>
<path d="M96.0293 60.1596L92.8453 56.4185C92.8453 56.4185 88.6027 59.5388 90.529 61.4253C89.2633 64.4102 94.302 68.5892 98.7118 67.7295C99.2292 65.0311 95.297 60.4303 95.297 60.4303C95.5454 60.3522 95.7898 60.2619 96.0293 60.1596Z" fill="#263238"/>
<path d="M95.8653 68.0064C96.2951 68.3493 96.7887 68.6033 97.3176 68.7536C97.8464 68.9039 98.3999 68.9476 98.9458 68.882C100.402 68.6989 100.538 67.2423 99.702 66.1518C98.8662 65.0613 97.2025 64.0901 95.9608 64.8225C95.6943 64.99 95.4732 65.2205 95.3168 65.4937C95.1605 65.7669 95.0738 66.0744 95.0643 66.389C95.0549 66.7036 95.123 67.0157 95.2627 67.2978C95.4024 67.5799 95.6093 67.8232 95.8653 68.0064Z" fill="#FFB573"/>
<path d="M101.472 61.2279C101.671 61.5224 101.998 61.6577 102.189 61.5304C102.38 61.403 102.38 61.0448 102.189 60.7344C101.998 60.4239 101.671 60.3045 101.472 60.4319C101.273 60.5593 101.273 60.9573 101.472 61.2279Z" fill="#263238"/>
<path d="M104.84 58.9628C105.047 59.2652 105.365 59.4006 105.556 59.2652C105.747 59.1299 105.747 58.7797 105.556 58.4692C105.365 58.1588 105.039 58.0314 104.84 58.1668C104.641 58.3021 104.641 58.6603 104.84 58.9628Z" fill="#263238"/>
<path d="M103.869 59.8374C104.827 60.4746 105.869 60.9756 106.966 61.3259C106.759 62.1219 105.708 62.5279 105.708 62.5279L103.869 59.8374Z" fill="#ED893E"/>
<path d="M102.938 64.5613C102.798 64.6348 102.665 64.72 102.54 64.816C102.521 64.8353 102.511 64.861 102.511 64.8877C102.511 64.9144 102.521 64.94 102.54 64.9593C102.549 64.9695 102.56 64.9776 102.572 64.9832C102.584 64.9888 102.598 64.9916 102.611 64.9916C102.625 64.9916 102.638 64.9888 102.65 64.9832C102.663 64.9776 102.674 64.9695 102.683 64.9593C103.037 64.6863 103.452 64.502 103.893 64.4217C104.333 64.3414 104.786 64.3674 105.214 64.4976C105.227 64.5027 105.241 64.505 105.255 64.5045C105.269 64.504 105.283 64.5007 105.295 64.4947C105.308 64.4888 105.319 64.4803 105.329 64.4699C105.338 64.4594 105.345 64.4472 105.349 64.434C105.36 64.4086 105.36 64.3801 105.35 64.3547C105.339 64.3294 105.319 64.3092 105.294 64.2986C104.904 64.1787 104.494 64.1401 104.088 64.1853C103.683 64.2305 103.291 64.3585 102.938 64.5613Z" fill="#263238"/>
<path d="M99.1731 60.2807C99.2105 60.2828 99.2478 60.2751 99.2813 60.2583C99.3148 60.2416 99.3434 60.2163 99.3641 60.1852C99.5043 59.9614 99.6944 59.7731 99.9195 59.635C100.145 59.4969 100.399 59.4127 100.662 59.3892C100.69 59.3904 100.718 59.3856 100.744 59.3751C100.77 59.3646 100.794 59.3487 100.814 59.3284C100.833 59.3081 100.848 59.2838 100.858 59.2572C100.867 59.2307 100.871 59.2024 100.869 59.1743C100.869 59.1194 100.847 59.0667 100.808 59.0279C100.769 58.9891 100.716 58.9673 100.662 58.9673C100.325 58.9923 99.9996 59.097 99.7117 59.2728C99.4238 59.4486 99.1819 59.6904 99.0059 59.9782C98.9758 60.0258 98.9656 60.0834 98.9775 60.1385C98.9894 60.1936 99.0225 60.2418 99.0696 60.2727C99.1025 60.2858 99.1386 60.2885 99.1731 60.2807Z" fill="#263238"/>
<path d="M104.881 56.2523C104.893 56.2107 104.893 56.1666 104.881 56.125C104.864 56.0716 104.828 56.0269 104.779 56.0001C104.73 55.9734 104.672 55.9668 104.618 55.9817C104.295 56.0633 103.996 56.2217 103.746 56.4434C103.497 56.665 103.305 56.9435 103.186 57.2553C103.17 57.3091 103.175 57.3669 103.2 57.4171C103.225 57.4673 103.268 57.5061 103.321 57.5259C103.347 57.5346 103.375 57.5379 103.402 57.5358C103.429 57.5336 103.456 57.526 103.481 57.5134C103.505 57.5008 103.527 57.4835 103.544 57.4624C103.562 57.4413 103.575 57.4169 103.584 57.3906C103.679 57.1432 103.834 56.9227 104.033 56.748C104.233 56.5733 104.472 56.4496 104.73 56.3877C104.765 56.38 104.797 56.3635 104.823 56.3398C104.85 56.3161 104.87 56.286 104.881 56.2523Z" fill="#263238"/>
<path d="M95.2727 60.4301C95.2727 60.4301 103.678 56.8959 104.196 52.8682C104.713 48.8404 101.155 50.4802 101.155 50.4802C101.155 50.4802 102.803 50.3687 102.644 51.5627C102.644 51.5627 99.8019 49.6285 97.0716 51.2921C97.4416 51.2925 97.8069 51.3748 98.1413 51.5331C98.4758 51.6914 98.771 51.9217 99.0059 52.2075C97.0284 52.7064 95.1731 53.6029 93.5534 54.8422C90.6957 56.9914 85.5138 64.6409 95.2727 60.4301Z" fill="#263238"/>
<path opacity="0.3" d="M112.992 118.533L99.293 116.941C103.933 116.328 108.62 116.136 113.295 116.368L112.992 118.533Z" fill="black"/>
<path opacity="0.1" d="M89.4775 91.8567C89.4297 91.2995 89.3899 90.7423 89.3422 90.1851C89.3422 89.7473 89.2705 89.3016 89.2307 88.8638C89.1113 87.7494 88.984 86.635 88.8248 85.5365C88.785 85.234 88.7372 84.9316 88.6895 84.6371C89.067 84.3383 89.469 84.072 89.8914 83.8411C90.328 86.5118 90.1869 89.2451 89.4775 91.8567Z" fill="black"/>
<path d="M66.6614 111.374L64.2734 116.945L69.4235 118.219C69.4235 118.219 71.6364 114.55 69.4792 111.748L66.6614 111.374Z" fill="#EBB376"/>
<path d="M64.6435 121.303L68.711 121.335L69.4274 118.271L64.2773 116.997L64.6435 121.303Z" fill="#EBB376"/>
<path d="M89.8286 81.7846C90.1868 85.287 88.9849 86.7118 88.9849 86.7118C88.9849 86.7118 85.5939 88.8451 84.1214 89.9356C82.8716 90.8828 81.6458 91.838 80.4837 92.7932C79.9106 93.2788 79.3534 93.7643 78.8439 94.2499C78.3904 94.6756 77.965 95.1303 77.5703 95.611C77.4243 95.8136 77.2888 96.0235 77.1644 96.2399C77.0211 96.4707 76.8698 96.821 76.7106 97.1075C76.4002 97.7443 76.0898 98.4289 75.7953 99.1373C75.2062 100.562 74.649 102.043 74.1237 103.547C73.0172 106.54 71.9904 109.629 70.9397 112.661L66.2354 111.539C66.7129 108.243 67.3577 105.02 68.1059 101.764C68.496 100.172 68.9019 98.5164 69.4353 96.8608C69.682 96.0648 69.9606 95.1971 70.279 94.3374C70.47 93.8837 70.6292 93.4778 70.868 92.9922C71.1001 92.4815 71.366 91.9869 71.664 91.5117C72.2317 90.6671 72.8652 89.8686 73.5585 89.1237C74.1873 88.4391 74.8162 87.8103 75.453 87.1974C76.7186 85.9875 78.0161 84.881 79.3374 83.8144C81.9722 81.6732 84.6149 79.715 87.4486 77.8206C87.4725 77.8444 89.5102 78.6166 89.8286 81.7846Z" fill="#2D014B"/>
<path opacity="0.7" d="M89.8286 81.7846C90.1868 85.287 88.9849 86.7118 88.9849 86.7118C88.9849 86.7118 85.5939 88.8451 84.1214 89.9356C82.8716 90.8828 81.6458 91.838 80.4837 92.7932C79.9106 93.2788 79.3534 93.7643 78.8439 94.2499C78.3904 94.6756 77.965 95.1303 77.5703 95.611C77.4243 95.8136 77.2888 96.0235 77.1644 96.2399C77.0211 96.4707 76.8698 96.821 76.7106 97.1075C76.4002 97.7443 76.0898 98.4289 75.7953 99.1373C75.2062 100.562 74.649 102.043 74.1237 103.547C73.0172 106.54 71.9904 109.629 70.9397 112.661L66.2354 111.539C66.7129 108.243 67.3577 105.02 68.1059 101.764C68.496 100.172 68.9019 98.5164 69.4353 96.8608C69.682 96.0648 69.9606 95.1971 70.279 94.3374C70.47 93.8837 70.6292 93.4778 70.868 92.9922C71.1001 92.4815 71.366 91.9869 71.664 91.5117C72.2317 90.6671 72.8652 89.8686 73.5585 89.1237C74.1873 88.4391 74.8162 87.8103 75.453 87.1974C76.7186 85.9875 78.0161 84.881 79.3374 83.8144C81.9722 81.6732 84.6149 79.715 87.4486 77.8206C87.4725 77.8444 89.5102 78.6166 89.8286 81.7846Z" fill="white"/>
<path d="M100.518 77.0779L102.285 79.8559C102.285 79.8559 96.1164 87.3382 84.3038 89.8058L83.5078 92.1938L86.0231 92.8545C86.0231 92.8545 98.7591 89.5511 103.869 79.9832L106.496 77.054L103.4 76.0112L100.518 77.0779Z" fill="#2D014B"/>
<path d="M94.793 75.4095L97.6745 72.8941L103.398 76.0304L104.066 72.5996L107.091 74.3349L107.959 78.7845L103.732 76.9537L99.959 80.3287L94.793 75.4095Z" fill="#2D014B"/>
<path opacity="0.6" d="M94.793 75.4095L97.6745 72.8941L103.398 76.0304L104.066 72.5996L107.091 74.3349L107.959 78.7845L103.732 76.9537L99.959 80.3287L94.793 75.4095Z" fill="white"/>
<path d="M173.75 25.6218C173.75 25.6218 168.393 32.2604 162.965 31.7112C157.536 31.1619 154.758 33.3669 154.758 33.3669L154.225 36.0175L157.138 35.6195C157.138 35.6195 157.138 33.5181 162.805 33.7569C168.473 33.9957 172.724 29.1242 174.379 26.9113L173.75 25.6218Z" fill="#2D014B"/>
<path d="M212.2 14.5906L212.089 14.0652C212.041 13.8087 211.966 13.558 211.866 13.317C211.582 12.5979 211.139 11.9527 210.569 11.4305C209.862 10.7933 209.033 10.3059 208.133 9.9977C206.996 9.59477 205.815 9.32759 204.615 9.20171C203.556 9.08231 202.545 9.02659 201.55 9.00271C199.568 8.94699 197.658 9.00271 195.771 9.16191C192.014 9.41147 188.273 9.86051 184.563 10.5071L185.933 18.3477C189.363 17.8064 192.945 17.3049 196.408 16.9467C198.143 16.7637 199.87 16.6602 201.534 16.6045C202.33 16.6045 203.182 16.6045 203.922 16.6045C204.405 16.6303 204.886 16.6835 205.363 16.7637C205.379 17.0553 205.379 17.3476 205.363 17.6393C205.26 19.1723 204.974 20.6875 204.511 22.1525C203.503 25.4629 202.217 28.6822 200.666 31.7761L204.447 34.2915C206.864 31.2657 208.894 27.9499 210.489 24.4211C211.362 22.4933 211.967 20.4553 212.288 18.3636C212.459 17.1092 212.429 15.8357 212.2 14.5906Z" fill="#2D014B"/>
<path opacity="0.7" d="M212.236 18.3557C211.982 20.1018 211.514 21.8101 210.843 23.4421C210.716 23.7684 210.58 24.0948 210.445 24.4132C208.847 27.9397 206.815 31.2528 204.395 34.2756L200.662 31.7761C202.228 28.7052 203.538 25.5104 204.579 22.2242C204.894 21.1811 205.136 20.1172 205.303 19.0402C205.371 18.6079 205.413 18.172 205.43 17.7348C205.447 17.4431 205.447 17.1508 205.43 16.8592C204.953 16.779 204.472 16.7258 203.989 16.7C203.193 16.6522 202.397 16.6522 201.601 16.7H201.418C199.826 16.7557 198.147 16.8671 196.467 17.0343C193.108 17.3845 189.654 17.8303 186.318 18.3955L186 18.4432L184.631 10.5947C188.338 9.95197 192.076 9.50295 195.831 9.24947C197.725 9.13007 199.635 9.03456 201.617 9.09028C202.612 9.09028 203.615 9.16988 204.682 9.28928C205.881 9.41901 207.062 9.6861 208.2 10.0853C209.099 10.3964 209.927 10.8835 210.636 11.5181C211.206 12.0403 211.65 12.6854 211.933 13.4046C212.03 13.647 212.104 13.8973 212.156 14.1528L212.268 14.6782C212.446 15.8983 212.436 17.1387 212.236 18.3557Z" fill="white"/>
<path opacity="0.1" d="M201.349 16.645C199.757 16.7007 198.078 16.8122 196.398 16.9793C193.039 17.3296 189.584 17.7753 186.249 18.3405C187.467 15.3475 188.717 12.3228 188.717 12.3228C193.154 12.9872 197.434 14.4517 201.349 16.645Z" fill="black"/>
<path opacity="0.1" d="M210.846 23.4485C210.718 23.7748 210.583 24.1012 210.448 24.4196C208.85 27.9462 206.818 31.2593 204.398 34.282L200.665 31.7825C202.231 28.7116 203.541 25.5168 204.581 22.2306C204.897 21.1876 205.139 20.1236 205.306 19.0466C207.265 20.3657 209.118 21.8375 210.846 23.4485Z" fill="black"/>
<path d="M159.972 16.1731C160.195 16.4438 160.219 16.786 160.044 16.9691C159.869 17.1522 159.543 16.9691 159.32 16.7303C159.097 16.4915 159.073 16.1094 159.256 15.9741C159.439 15.8388 159.757 15.8627 159.972 16.1731Z" fill="#263238"/>
<path d="M160.248 16.7517C160.584 17.8543 160.767 18.9981 160.789 20.1506C161.084 20.1343 161.371 20.0548 161.632 19.9174C161.893 19.7801 162.122 19.5881 162.302 19.3546L160.248 16.7517Z" fill="#DE5753"/>
<path d="M159.771 13.849C159.789 13.8299 159.802 13.8072 159.811 13.7825C159.819 13.7578 159.822 13.7317 159.819 13.7057C159.818 13.6786 159.812 13.6518 159.8 13.6271C159.789 13.6024 159.773 13.5802 159.753 13.5617C159.733 13.5432 159.709 13.5288 159.684 13.5194C159.658 13.51 159.631 13.5057 159.604 13.5068C159.278 13.5143 158.958 13.5998 158.671 13.7563C158.384 13.9128 158.139 14.1357 157.956 14.4062C157.929 14.4541 157.922 14.5105 157.935 14.5638C157.948 14.617 157.982 14.6632 158.028 14.6928C158.075 14.7193 158.13 14.7266 158.182 14.7133C158.234 14.6999 158.278 14.6669 158.307 14.6211C158.455 14.4075 158.652 14.2325 158.882 14.1106C159.112 13.9888 159.368 13.9236 159.628 13.9207C159.656 13.9198 159.683 13.913 159.707 13.9006C159.732 13.8882 159.754 13.8706 159.771 13.849Z" fill="#263238"/>
<path d="M167.898 11.8777C170.533 13.7722 175.564 16.7731 178.421 15.6348C178.421 15.6348 180.993 17.776 178.525 23.141C175.811 29.0473 174.298 24.6216 174.298 24.6216C175.007 21.0396 172.579 20.0287 170.072 19.559L167.898 11.8777Z" fill="#E4897B"/>
<path d="M168.693 8.33201C171.152 11.8742 172.776 13.8244 172.434 16.9049C171.932 21.5455 166.535 23.2728 163.065 20.5585C159.937 18.0909 156.434 12.71 158.679 8.75389C159.17 7.87806 159.878 7.1424 160.733 6.61679C161.589 6.09119 162.565 5.7931 163.568 5.75083C164.572 5.70856 165.569 5.92351 166.466 6.37527C167.363 6.82704 168.129 7.50062 168.693 8.33201Z" fill="#E4897B"/>
<path d="M172.651 14.1775C172.277 16.1914 165.487 18.9535 162.454 14.6074C162.454 14.6074 158.602 14.6074 156.285 12.2194C153.969 9.83142 154.47 7.38771 156.54 6.0186C158.371 4.80869 163.099 -4.08257 168.607 2.26151C174.585 2.05455 173.105 11.6781 172.651 14.1775Z" fill="#263238"/>
<path d="M161.233 5.0956C161.233 5.0956 157.683 4.92048 155.661 6.54431C153.639 8.16814 154.189 13.167 154.977 14.1063C155.163 14.3652 155.4 14.583 155.674 14.746C155.948 14.9089 156.252 15.0136 156.569 15.0535C156.569 15.0535 155.367 14.4247 155.367 13.4615C155.367 13.4615 155.892 14.6953 158.304 15.0535C158.115 14.9057 157.965 14.7154 157.864 14.4983C157.763 14.2811 157.714 14.0431 157.723 13.8038C157.723 13.8038 159.028 15.4992 162.053 13.8038C165.078 12.1083 161.233 5.0956 161.233 5.0956Z" fill="#263238"/>
<path d="M164.245 13.8615C164.852 14.7465 165.152 15.8065 165.097 16.8783C165.01 18.2872 163.832 18.3987 162.9 17.5071C161.969 16.6156 161.109 15.0157 161.659 13.8376C162.208 12.6595 163.497 12.8108 164.245 13.8615Z" fill="#E4897B"/>
<path d="M171.312 25.6244C171.312 25.6244 170.651 17.6087 175.881 13.1113L182.114 13.6844C182.114 13.6844 178.524 22.4483 171.312 25.6244Z" fill="#2D014B"/>
<path opacity="0.6" d="M171.312 25.6244C171.312 25.6244 170.651 17.6087 175.881 13.1113L182.114 13.6844C182.114 13.6844 178.524 22.4483 171.312 25.6244Z" fill="white"/>
<path d="M189.279 43.6507C189.279 43.6507 179.854 34.3933 169.442 27.9218C169.442 27.9218 176.375 11.6278 185.163 10.1711C185.163 10.1711 207.873 17.0326 214.464 35.643L189.279 43.6507Z" fill="#2D014B"/>
<path d="M190.475 100.091L186.416 101.818L182.014 92.5764L186.081 90.8491L190.475 100.091Z" fill="#E4897B"/>
<path d="M214.465 35.6245L212.077 61.0963C210.257 62.2412 208.237 63.03 206.123 63.4206C201.156 64.5748 194.533 65.1002 188.81 65.4106C182.386 65.7609 177.109 65.8246 176.631 66.2066C175.517 67.0822 189.662 96.2952 189.662 96.2952L182.912 97.139C182.912 97.139 165.169 72.7975 162.869 64.344C162.025 61.2237 161.173 57.3154 166.904 53.6618C171.951 50.4778 190.736 48.0341 190.736 48.0341L189.288 43.6959L214.465 35.6245Z" fill="#263238"/>
<path opacity="0.2" d="M206.119 63.3916C201.152 64.5457 194.529 65.0711 188.806 65.3815C188.01 55.9888 192.786 46.9781 192.786 46.9781L199.504 45.2588L206.119 63.3916Z" fill="black"/>
<path d="M249.688 96.3501L250.412 100.704L240.39 102.806L239.666 98.4436L249.688 96.3501Z" fill="#E4897B"/>
<path d="M250.619 100.863C250.603 100.851 250.584 100.845 250.564 100.845C250.544 100.845 250.524 100.851 250.508 100.863C250.489 100.871 250.473 100.884 250.462 100.901C250.45 100.918 250.444 100.938 250.444 100.958C250.444 101.038 250.508 102.813 251.057 103.346C251.158 103.448 251.296 103.505 251.439 103.505C251.521 103.513 251.604 103.495 251.675 103.453C251.746 103.412 251.803 103.349 251.837 103.275C251.957 102.98 251.734 102.479 251.439 101.993C251.201 101.592 250.927 101.214 250.619 100.863ZM250.667 101.237C251.201 101.874 251.782 102.829 251.646 103.147C251.646 103.195 251.583 103.251 251.439 103.259C251.349 103.257 251.263 103.22 251.201 103.155C251.153 103.109 251.112 103.055 251.081 102.996C250.832 102.441 250.692 101.844 250.667 101.237Z" fill="#2D014B"/>
<path d="M250.591 100.837C250.575 100.828 250.557 100.823 250.539 100.823C250.521 100.823 250.503 100.828 250.487 100.837C250.487 100.837 249.492 101.594 249.397 102.31C249.367 102.519 249.421 102.73 249.548 102.899C249.723 103.13 249.89 103.122 250.001 103.074C250.471 102.883 250.726 101.482 250.654 100.901C250.654 100.901 250.654 100.901 250.654 100.861C250.646 100.853 250.636 100.846 250.625 100.842C250.614 100.838 250.602 100.836 250.591 100.837ZM249.603 102.358C249.752 101.874 250.05 101.451 250.455 101.148C250.455 101.777 250.2 102.74 249.922 102.899C249.922 102.899 249.826 102.939 249.715 102.788C249.711 102.769 249.711 102.75 249.715 102.732C249.634 102.625 249.594 102.492 249.603 102.358Z" fill="#2D014B"/>
<path d="M249.863 100.805L247.331 96.6978C247.288 96.621 247.27 96.532 247.282 96.4444C247.293 96.3567 247.333 96.2752 247.395 96.2123L250.277 93.4104C250.347 93.3427 250.431 93.2918 250.524 93.2614C250.616 93.231 250.714 93.222 250.811 93.235C250.907 93.2481 251 93.2828 251.081 93.3366C251.162 93.3904 251.23 93.4619 251.28 93.5457C252.171 95.0422 253.405 97.2312 254.551 99.1177C255.888 101.299 257.17 103.098 258.738 105.661C259.693 107.205 258.396 108.59 257.854 108.049C255.395 105.502 253.874 103.145 250.69 101.569C250.35 101.395 250.064 101.13 249.863 100.805Z" fill="#263238"/>
<path d="M214.468 35.6245C214.468 35.6245 222.563 56.4239 208.896 64.4952C208.896 64.4952 208.721 88.5343 212.175 91.3521C216.37 94.7749 247.119 96.5181 247.119 96.5181L246.857 104.16C246.857 104.16 213.934 106.85 203.968 103.276C192.291 99.0892 189.696 44.0143 189.696 44.0143L214.468 35.6245Z" fill="#263238"/>
<path opacity="0.2" d="M205.113 48.3839L210.025 46.9033C210.375 49.0507 210.598 51.217 210.693 53.3907L208.417 55.3488L206.26 54.6643C205.998 52.5507 205.615 50.4538 205.113 48.3839Z" fill="black"/>
<path d="M190.905 43.6655L191.542 45.6873L189.719 46.2525L189.082 44.2466L190.905 43.6655Z" fill="#263238"/>
<path d="M199.286 40.9717L199.971 43.0651L192.449 45.3974L191.78 43.3756L199.286 40.9717Z" fill="#263238"/>
<path d="M208.656 37.9746L209.34 40.1636L200.926 42.7745L200.258 40.6651L208.656 37.9746Z" fill="#263238"/>
<path d="M215.502 38.2497L210.32 39.8576H210.312L209.619 37.6606L214.761 36.0129L215.502 38.2497Z" fill="#263238"/>
<g opacity="0.2">
<path d="M190.902 43.6794L191.539 45.7013L189.716 46.2664L189.079 44.2605L190.902 43.6794Z" fill="white"/>
<path d="M199.285 40.9839L199.969 43.0774L192.447 45.4096L191.778 43.3878L199.285 40.9839Z" fill="white"/>
<path d="M208.655 37.9854L209.339 40.1743L200.925 42.7852L200.257 40.6758L208.655 37.9854Z" fill="white"/>
<path d="M215.504 38.2636L210.322 39.8715H210.314L209.621 37.6746L214.763 36.0269L215.504 38.2636Z" fill="white"/>
</g>
<path d="M185.167 100.524C185.187 100.519 185.205 100.507 185.219 100.492C185.233 100.476 185.243 100.457 185.246 100.437C185.25 100.415 185.247 100.392 185.237 100.372C185.227 100.352 185.211 100.335 185.191 100.325C185.127 100.325 183.559 99.4497 182.803 99.6646C182.664 99.7029 182.547 99.7945 182.476 99.9193C182.429 99.9871 182.404 100.068 182.404 100.15C182.404 100.233 182.429 100.313 182.476 100.381C182.667 100.628 183.217 100.691 183.782 100.675C184.247 100.669 184.711 100.618 185.167 100.524ZM184.825 100.373C184.029 100.508 182.89 100.532 182.675 100.254C182.675 100.214 182.62 100.15 182.675 100.023C182.694 99.9838 182.722 99.9498 182.757 99.9236C182.791 99.8973 182.832 99.8795 182.874 99.8715C182.94 99.8594 183.008 99.8594 183.073 99.8715C183.684 99.923 184.279 100.093 184.825 100.373Z" fill="#2D014B"/>
<path d="M185.203 100.509C185.219 100.497 185.231 100.481 185.238 100.463C185.245 100.444 185.247 100.424 185.243 100.405C185.183 99.7834 184.93 99.196 184.519 98.7257C184.436 98.6603 184.342 98.6119 184.241 98.5832C184.14 98.5545 184.034 98.5461 183.93 98.5585C183.643 98.5585 183.564 98.7416 183.548 98.861C183.484 99.3625 184.559 100.294 185.1 100.517H185.14L185.203 100.509ZM184.407 98.9167C184.746 99.2939 184.96 99.7665 185.02 100.27C184.471 99.9515 183.731 99.2192 183.771 98.9167C183.771 98.9167 183.771 98.8212 183.977 98.7973H184.041C184.164 98.7902 184.286 98.8207 184.391 98.8849L184.407 98.9167Z" fill="#2D014B"/>
<path d="M185.595 99.9035L190.418 99.7921C190.507 99.7882 190.593 99.8157 190.663 99.8696C190.733 99.9235 190.782 100 190.8 100.087L191.772 103.987C191.793 104.081 191.793 104.179 191.772 104.273C191.751 104.367 191.709 104.456 191.649 104.532C191.59 104.608 191.514 104.67 191.428 104.713C191.342 104.757 191.247 104.781 191.151 104.783C189.407 104.783 186.892 104.783 184.711 104.783C182.148 104.839 179.935 105.03 176.95 105.101C175.135 105.149 174.562 103.326 175.358 103.143C178.797 102.299 181.615 102.156 184.56 100.246C184.868 100.042 185.225 99.9243 185.595 99.9035Z" fill="#263238"/>
<path opacity="0.7" d="M214.464 35.6296L189.279 43.6532C189.279 43.6532 184.837 39.2991 178.684 34.4674C177.514 33.5521 176.296 32.6207 175.014 31.6974C173.223 30.3919 171.345 29.1104 169.442 27.9244C169.442 27.9244 176.383 11.6304 185.171 10.1816C185.163 10.1816 207.873 17.0352 214.464 35.6296Z" fill="white"/>
<path opacity="0.1" d="M178.682 34.4637C177.512 33.5483 176.294 32.6169 175.013 31.6936L175.506 30.2051C176.846 31.3913 177.927 32.841 178.682 34.4637Z" fill="black"/>
<path d="M142.301 51.0865L140.566 51.5004C140.354 51.5496 140.162 51.6605 140.013 51.8192C139.864 51.9779 139.766 52.1773 139.73 52.3919L139.34 54.7799C139.299 55.0274 139.343 55.2816 139.466 55.5003C139.59 55.719 139.784 55.889 140.017 55.9819L141.29 56.4833C141.29 56.4833 144.952 59.1261 148.048 57.4226L146.711 53.8805L144.092 51.4925C143.849 51.2853 143.559 51.1402 143.247 51.0695C142.935 50.9989 142.611 51.0047 142.301 51.0865Z" fill="#E4897B"/>
<path d="M173.911 28.594C174.583 29.061 175.145 29.6691 175.557 30.3758C175.97 31.0825 176.223 31.8707 176.299 32.6854C176.299 32.6854 174.548 37.4614 173.537 39.7937C172.845 41.3856 172.128 42.9776 171.292 44.5696C170.43 46.3161 169.396 47.9721 168.204 49.5127L167.925 49.8391L167.607 50.1893C167.355 50.4475 167.089 50.692 166.811 50.9217C166.641 51.0644 166.463 51.1973 166.278 51.3197C166.102 51.4391 165.848 51.6062 165.776 51.6381L165.1 51.9883C164.224 52.4261 163.404 52.7843 162.584 53.1106C160.944 53.7793 159.329 54.3683 157.705 54.9255C154.441 56.016 151.201 57.011 147.874 57.8468L146.282 53.5882C149.267 52.0599 152.308 50.6112 155.277 49.1227C156.765 48.3824 158.246 47.6422 159.663 46.8939C160.363 46.5198 161.064 46.0979 161.669 45.7636L162.099 45.493C162.154 45.4452 162.154 45.4373 162.226 45.3338L162.322 45.2144L162.433 45.0472C163.203 43.8461 163.874 42.5843 164.439 41.2742C165.068 39.8414 165.705 38.3529 166.286 36.8326C167.44 33.8078 168.546 30.6556 169.581 27.599C171.097 27.392 172.637 27.7458 173.911 28.594Z" fill="#2D014B"/>
<path opacity="0.7" d="M173.911 28.594C174.583 29.061 175.145 29.6691 175.557 30.3758C175.97 31.0825 176.223 31.8707 176.299 32.6854C176.299 32.6854 174.548 37.4614 173.537 39.7937C172.845 41.3856 172.128 42.9776 171.292 44.5696C170.43 46.3161 169.396 47.9721 168.204 49.5127L167.925 49.8391L167.607 50.1893C167.355 50.4475 167.089 50.692 166.811 50.9217C166.641 51.0644 166.463 51.1973 166.278 51.3197C166.102 51.4391 165.848 51.6062 165.776 51.6381L165.1 51.9883C164.224 52.4261 163.404 52.7843 162.584 53.1106C160.944 53.7793 159.329 54.3683 157.705 54.9255C154.441 56.016 151.201 57.011 147.874 57.8468L146.282 53.5882C149.267 52.0599 152.308 50.6112 155.277 49.1227C156.765 48.3824 158.246 47.6422 159.663 46.8939C160.363 46.5198 161.064 46.0979 161.669 45.7636L162.099 45.493C162.154 45.4452 162.154 45.4373 162.226 45.3338L162.322 45.2144L162.433 45.0472C163.203 43.8461 163.874 42.5843 164.439 41.2742C165.068 39.8414 165.705 38.3529 166.286 36.8326C167.44 33.8078 168.546 30.6556 169.581 27.599C171.097 27.392 172.637 27.7458 173.911 28.594Z" fill="white"/>
<path d="M28.3389 239.782H162.766L233.912 182.311L237.033 186.172H254.553L272.407 104.001L254.871 104.033L254.879 104.001L170.79 104.168L180.828 116.594L28.3389 239.782Z" fill="#2D014B"/>
<path opacity="0.2" d="M28.3389 239.782H145.247L226.987 173.746L237.033 186.172L254.879 104.001L170.79 104.168L180.828 116.594L28.3389 239.782Z" fill="white"/>
<path d="M25.5984 235.046H122.121C122.073 234.634 122.049 234.219 122.049 233.804C122.048 232.331 122.337 230.872 122.901 229.51C123.464 228.148 124.29 226.911 125.331 225.869C126.373 224.826 127.61 223.999 128.971 223.435C130.332 222.871 131.791 222.581 133.265 222.581H133.679C134.493 220.402 136.048 218.578 138.07 217.429C140.092 216.279 142.454 215.876 144.743 216.29C147.032 216.704 149.103 217.909 150.594 219.695C152.086 221.481 152.902 223.733 152.902 226.059C155.248 226.171 157.468 227.149 159.133 228.805C160.798 230.461 161.789 232.677 161.912 235.022H162.366C163.038 234.995 163.708 235.105 164.336 235.343C164.965 235.582 165.539 235.945 166.023 236.41C166.508 236.876 166.894 237.435 167.157 238.053C167.421 238.672 167.556 239.337 167.556 240.009C167.556 240.681 167.421 241.347 167.157 241.965C166.894 242.583 166.508 243.142 166.023 243.608C165.539 244.074 164.965 244.437 164.336 244.675C163.708 244.914 163.038 245.023 162.366 244.996H25.5984C24.9267 245.023 24.2566 244.914 23.6281 244.675C22.9997 244.437 22.4259 244.074 21.9412 243.608C21.4565 243.142 21.0708 242.583 20.8074 241.965C20.544 241.347 20.4082 240.681 20.4082 240.009C20.4082 239.337 20.544 238.672 20.8074 238.053C21.0708 237.435 21.4565 236.876 21.9412 236.41C22.4259 235.945 22.9997 235.582 23.6281 235.343C24.2566 235.105 24.9267 234.995 25.5984 235.022V235.046Z" fill="#2D014B"/>
<path opacity="0.7" d="M25.5984 235.046H122.121C122.073 234.634 122.049 234.219 122.049 233.804C122.048 232.331 122.337 230.872 122.901 229.51C123.464 228.148 124.29 226.911 125.331 225.869C126.373 224.826 127.61 223.999 128.971 223.435C130.332 222.871 131.791 222.581 133.265 222.581H133.679C134.493 220.402 136.048 218.578 138.07 217.429C140.092 216.279 142.454 215.876 144.743 216.29C147.032 216.704 149.103 217.909 150.594 219.695C152.086 221.481 152.902 223.733 152.902 226.059C155.248 226.171 157.468 227.149 159.133 228.805C160.798 230.461 161.789 232.677 161.912 235.022H162.366C163.038 234.995 163.708 235.105 164.336 235.343C164.965 235.582 165.539 235.945 166.023 236.41C166.508 236.876 166.894 237.435 167.157 238.053C167.421 238.672 167.556 239.337 167.556 240.009C167.556 240.681 167.421 241.347 167.157 241.965C166.894 242.583 166.508 243.142 166.023 243.608C165.539 244.074 164.965 244.437 164.336 244.675C163.708 244.914 163.038 245.023 162.366 244.996H25.5984C24.9267 245.023 24.2566 244.914 23.6281 244.675C22.9997 244.437 22.4259 244.074 21.9412 243.608C21.4565 243.142 21.0708 242.583 20.8074 241.965C20.544 241.347 20.4082 240.681 20.4082 240.009C20.4082 239.337 20.544 238.672 20.8074 238.053C21.0708 237.435 21.4565 236.876 21.9412 236.41C22.4259 235.945 22.9997 235.582 23.6281 235.343C24.2566 235.105 24.9267 234.995 25.5984 235.022V235.046Z" fill="white"/>
</svg>
