<svg width="446" height="354" viewBox="0 0 446 354" fill="none" xmlns="http://www.w3.org/2000/svg">
<path d="M437.848 68.8378L430.879 102.587L426.394 98.2106L418.763 103.657L412.931 96.4121L399.854 105.922L388.677 87.2304L376.211 94.5336L371.267 87.7183L355.438 96.6379L350.676 86.4367L361.772 32.6934L421.261 44.9769L437.848 68.8378Z" fill="#EBEBEB"/>
<path d="M421.261 44.9766L437.848 68.8374L417.213 64.5779L421.261 44.9766Z" fill="#DBDBDB"/>
<path d="M429.393 109.329L419.178 158.842L339.047 142.299L349.19 93.1865L353.952 103.38L369.789 94.4608L374.725 101.276L387.198 93.9802L398.368 112.671L411.452 103.162L417.277 110.4L424.915 104.96L429.393 109.329Z" fill="#EBEBEB"/>
<path d="M314.706 103.526L233.046 108.579L226.559 3.75716L287.197 0L309.456 18.6766L314.706 103.526Z" fill="#EBEBEB"/>
<path d="M287.197 0L309.456 18.6766L288.428 19.9799L287.197 0Z" fill="#DBDBDB"/>
<path d="M264.588 70.5338L264.268 68.1673C263.445 63.267 264.785 57.7842 269.044 52.0538C272.889 46.9569 274.971 43.3162 274.738 39.1804C274.476 34.5204 271.382 31.5787 265.622 31.8117C262.331 31.9827 259.169 33.1509 256.557 35.1611L254.045 29.5327C256.957 27.1662 262.054 25.4187 266.896 25.1639C277.403 24.5814 282.515 30.7996 282.915 37.7387C283.265 43.9497 280.047 48.617 275.954 54.0707C272.197 59.0438 270.967 63.1432 271.498 67.7814L271.724 70.1551L264.588 70.5338ZM263.292 83.429C263.103 80.0504 265.251 77.5457 268.447 77.3709C271.644 77.1962 273.974 79.4388 274.163 82.8246C274.338 86.0211 272.379 88.5987 269.001 88.788C265.775 88.9701 263.445 86.6255 263.263 83.429H263.292Z" fill="#DBDBDB"/>
<path d="M60.3335 52.7022L52.1202 48.9814L50.977 51.4935C50.8083 51.8525 50.5449 52.1587 50.2152 52.3794C49.8855 52.6 49.502 52.7267 49.1057 52.7459C48.6544 52.7607 48.2044 52.8045 47.7587 52.877C47.3674 52.9351 46.9677 52.8858 46.6022 52.7345C46.2367 52.5832 45.9192 52.3354 45.6835 52.0178L44.0744 49.7678L36.7421 55.0249L38.3512 57.2749C38.5751 57.5996 38.7068 57.9789 38.7324 58.3725C38.7581 58.766 38.6767 59.1592 38.4969 59.5102C38.2893 59.9107 38.1021 60.3214 37.9362 60.7408C37.792 61.1106 37.5497 61.4341 37.2354 61.6766C36.9211 61.9191 36.5466 62.0713 36.1523 62.1169L33.4072 62.3863L34.2883 71.3642L37.0479 71.0875C37.4436 71.0559 37.8405 71.1327 38.1959 71.3098C38.5513 71.4868 38.8517 71.7574 39.0648 72.0923C39.1813 72.2817 39.3051 72.4637 39.4362 72.6457C39.5672 72.8278 39.6983 73.0025 39.8366 73.1773C40.0879 73.483 40.2495 73.8524 40.3035 74.2444C40.3575 74.6365 40.3017 75.0358 40.1424 75.3981L38.992 77.932L47.2126 81.66L48.3558 79.1334C48.5261 78.7747 48.7911 78.4692 49.1221 78.2498C49.4531 78.0305 49.8376 77.9054 50.2343 77.8883C50.6806 77.8699 51.1255 77.8261 51.5668 77.7572C51.9581 77.6991 52.3578 77.7483 52.7233 77.8997C53.0888 78.051 53.4063 78.2987 53.642 78.6164L55.2512 80.8663L62.5907 75.6092L60.9816 73.3593C60.7509 73.0375 60.6149 72.6575 60.5892 72.2624C60.5635 71.8673 60.6489 71.4729 60.8359 71.1239C61.0388 70.7258 61.2211 70.3175 61.382 69.9007C61.5221 69.5281 61.7632 69.202 62.0783 68.9589C62.3934 68.7158 62.7701 68.5654 63.166 68.5245L65.9256 68.2478L65.0373 59.2699L62.2776 59.5394C61.8843 59.5739 61.4892 59.499 61.1358 59.323C60.7824 59.1469 60.4846 58.8766 60.2753 58.5418C60.1515 58.3525 60.0277 58.1705 59.8967 57.9884C59.7656 57.8064 59.6345 57.6244 59.4962 57.4569C59.2466 57.1474 59.0862 56.7757 59.0323 56.3818C58.9784 55.9878 59.0331 55.5867 59.1904 55.2215L60.3335 52.7022ZM55.6735 61.0102C56.525 62.1984 57.0049 63.6124 57.0527 65.0735C57.1005 66.5345 56.7139 67.9769 55.9419 69.2182C55.1699 70.4595 54.0471 71.444 52.7155 72.0471C51.3839 72.6503 49.9034 72.845 48.4612 72.6067C47.0189 72.3683 45.6797 71.7076 44.613 70.7082C43.5463 69.7087 42.7999 68.4153 42.4683 66.9916C42.1367 65.5679 42.2347 64.0779 42.75 62.7099C43.2653 61.3419 44.1747 60.1575 45.3631 59.3063C46.9564 58.1654 48.9376 57.7039 50.8711 58.0234C52.8046 58.3429 54.532 59.4173 55.6735 61.0102Z" fill="#EBEBEB"/>
<path d="M431.607 171.824L426.132 174.984L427.1 176.659C427.245 176.899 427.317 177.176 427.308 177.457C427.299 177.737 427.209 178.009 427.049 178.239C426.882 178.501 426.722 178.771 426.576 179.055C426.456 179.306 426.267 179.517 426.031 179.665C425.795 179.812 425.522 179.888 425.244 179.885H423.321V186.212H425.258C425.536 186.209 425.81 186.285 426.046 186.432C426.282 186.579 426.471 186.791 426.591 187.042C426.736 187.326 426.896 187.596 427.064 187.858C427.224 188.088 427.313 188.36 427.322 188.64C427.331 188.92 427.259 189.197 427.115 189.438L426.146 191.112L431.622 194.273L432.598 192.591C432.739 192.352 432.944 192.157 433.19 192.029C433.435 191.9 433.712 191.843 433.988 191.862H434.92C435.197 191.843 435.473 191.901 435.719 192.03C435.964 192.159 436.169 192.353 436.311 192.591L437.287 194.28L442.755 191.12L441.787 189.438C441.649 189.196 441.581 188.921 441.592 188.643C441.602 188.365 441.69 188.096 441.845 187.865C442.012 187.603 442.173 187.326 442.318 187.049C442.438 186.798 442.627 186.587 442.863 186.439C443.099 186.292 443.373 186.216 443.651 186.219H445.588V179.892H443.636C443.358 179.895 443.085 179.819 442.848 179.672C442.612 179.525 442.423 179.313 442.304 179.062C442.158 178.785 441.998 178.508 441.83 178.246C441.675 178.016 441.587 177.746 441.577 177.468C441.567 177.19 441.634 176.915 441.772 176.674L442.741 174.992L437.272 171.832L436.297 173.492C436.155 173.73 435.95 173.925 435.705 174.053C435.459 174.182 435.182 174.24 434.906 174.22H434.44H433.974C433.696 174.238 433.419 174.18 433.173 174.052C432.926 173.923 432.72 173.73 432.576 173.492L431.607 171.824ZM434.44 177.868C435.466 177.866 436.469 178.169 437.323 178.738C438.177 179.308 438.842 180.117 439.235 181.065C439.629 182.012 439.732 183.055 439.532 184.062C439.332 185.068 438.838 185.992 438.113 186.718C437.387 187.443 436.463 187.937 435.457 188.137C434.45 188.337 433.407 188.234 432.46 187.84C431.512 187.447 430.703 186.781 430.134 185.928C429.564 185.074 429.261 184.071 429.263 183.045C429.262 182.364 429.395 181.69 429.655 181.061C429.915 180.432 430.296 179.861 430.777 179.379C431.257 178.898 431.828 178.516 432.457 178.255C433.086 177.995 433.759 177.86 434.44 177.86V177.868Z" fill="#EBEBEB"/>
<path d="M76.9487 25.7982L71.9319 29.6427L73.0896 31.1791C73.2623 31.398 73.3685 31.6619 73.3956 31.9394C73.4227 32.2169 73.3696 32.4963 73.2426 32.7445C73.1032 33.028 72.9816 33.3198 72.8785 33.6183C72.7887 33.8813 72.6274 34.114 72.4125 34.2902C72.1977 34.4665 71.9379 34.5792 71.6625 34.6158L69.7402 34.8634L70.5557 41.1326L72.478 40.8851C72.7578 40.8461 73.043 40.8869 73.3006 41.0028C73.5582 41.1187 73.7779 41.3051 73.9343 41.5404C74.1096 41.7937 74.2992 42.0368 74.5022 42.2685C74.6898 42.4748 74.8142 42.7306 74.8607 43.0055C74.9072 43.2805 74.8737 43.563 74.7643 43.8194L74.0362 45.6106L79.8613 48.0353L80.5894 46.2441C80.6978 45.9872 80.8759 45.7657 81.1037 45.6048C81.3315 45.444 81.5998 45.3501 81.8782 45.3339L82.3442 45.283L82.8029 45.2102C83.0724 45.1594 83.3506 45.1834 83.6074 45.2797C83.8641 45.376 84.0895 45.5408 84.2592 45.7563L85.446 47.3072L90.4629 43.4626L89.2906 41.9263C89.1213 41.7043 89.0172 41.4395 88.9902 41.1617C88.9632 40.8838 89.0143 40.6039 89.1377 40.3535C89.2757 40.072 89.3972 39.7827 89.5017 39.487C89.5915 39.2241 89.7528 38.9914 89.9677 38.8151C90.1825 38.6389 90.4423 38.5261 90.7177 38.4895L92.64 38.2419L91.8245 31.9727L89.9022 32.2203C89.6231 32.26 89.3384 32.2203 89.0809 32.1057C88.8233 31.9911 88.6032 31.8062 88.4459 31.5723C88.2639 31.3101 88.0746 31.0626 87.8707 30.8441C87.7011 30.6334 87.5913 30.3809 87.5529 30.1132C87.5144 29.8454 87.5488 29.5722 87.6523 29.3223L88.3804 27.5311L82.5554 25.1064L81.8272 26.8976C81.7175 27.1536 81.5389 27.3742 81.3114 27.5348C81.0839 27.6955 80.8164 27.79 80.5384 27.8078L80.0724 27.8515L79.6428 27.8661C79.3734 27.9168 79.0951 27.8928 78.8384 27.7965C78.5816 27.7002 78.3562 27.5354 78.1866 27.32L76.9487 25.7982ZM80.5384 31.4266C81.5527 31.2962 82.5829 31.4692 83.499 31.9236C84.4151 32.378 85.1761 33.0936 85.686 33.98C86.1959 34.8664 86.4319 35.884 86.3641 36.9044C86.2964 37.9247 85.928 38.9022 85.3053 39.7134C84.6827 40.5246 83.8338 41.1333 82.8657 41.4626C81.8975 41.7919 80.8535 41.8272 79.8654 41.5638C78.8773 41.3005 77.9892 40.7504 77.3134 39.983C76.6375 39.2156 76.2041 38.2652 76.0677 37.2517C75.9767 36.5754 76.0203 35.8877 76.1961 35.2283C76.3718 34.5689 76.6761 33.9507 77.0916 33.4094C77.5071 32.868 78.0255 32.4142 78.6171 32.0739C79.2086 31.7336 79.8616 31.5136 80.5384 31.4266Z" fill="#EBEBEB"/>
<path d="M39.4644 190.079C39.738 183.04 39.6407 175.991 39.1732 168.963C38.1313 154.449 35.9179 140.043 32.5544 125.886C30.705 117.921 28.4332 110.086 26.0595 102.259C25.9867 102.018 25.6081 102.084 25.6736 102.331C33.0059 129.928 39.0203 158.398 38.6052 187.086C38.4887 195.095 37.5567 202.996 36.7995 210.976C36.7995 211.187 37.1271 211.274 37.1781 211.056C38.6853 204.204 39.1804 197.054 39.4644 190.079Z" fill="#EBEBEB"/>
<path d="M25.6742 102.31C25.6742 102.31 14.5775 130.488 17.0604 137.085C19.5433 143.682 24.6694 145.095 24.6694 145.095C24.6694 145.095 17.8759 154.793 22.6233 163.888C27.3708 172.982 37.9141 172.552 38.6422 182.863C38.6204 182.914 39.2029 139.801 25.6742 102.31Z" fill="#EBEBEB"/>
<path d="M37.4118 165.111C37.4298 165.064 37.4298 165.012 37.4118 164.965C35.9554 145.727 32.3456 126.713 26.6501 108.28C26.6501 108.229 26.5408 108.244 26.5554 108.28C28.7544 116.532 30.696 124.818 32.3805 133.138C30.8886 131.725 29.0661 130.709 27.0797 130.182C27.0797 130.182 27.0214 130.226 27.0797 130.241C29.1664 131.005 31.0427 132.253 32.5552 133.881C32.8756 135.519 33.196 137.15 33.4945 138.789C31.0116 136.015 27.5748 134.638 24.1307 133.328C24.1229 133.331 24.1163 133.337 24.1116 133.344C24.107 133.351 24.1045 133.359 24.1045 133.368C24.1045 133.376 24.107 133.385 24.1116 133.392C24.1163 133.399 24.1229 133.404 24.1307 133.408C27.7204 134.864 31.2883 136.743 33.7202 139.837C34.5648 144.512 35.3075 149.203 35.9483 153.912C34.1555 152.034 31.8564 150.716 29.3296 150.118C29.2495 150.118 29.2058 150.213 29.2859 150.235C31.8815 150.999 34.1988 152.502 35.9556 154.56H35.9993C36.2177 156.211 36.4264 157.868 36.6255 159.533C35.2386 158.36 33.6727 157.416 31.9873 156.737C31.9436 156.737 31.9145 156.788 31.9873 156.803C33.7072 157.548 35.2823 158.59 36.64 159.883C36.64 159.883 36.6764 159.883 36.6983 159.883C36.8803 161.463 37.0623 163.043 37.2225 164.623C34.7222 161.6 31.4773 159.281 27.8078 157.895C27.7923 157.895 27.7775 157.901 27.7666 157.912C27.7557 157.923 27.7495 157.938 27.7495 157.953C27.7495 157.969 27.7557 157.983 27.7666 157.994C27.7775 158.005 27.7923 158.011 27.8078 158.011C31.4313 159.609 34.6141 162.059 37.0842 165.154C37.1114 165.188 37.1481 165.213 37.1896 165.226C37.2311 165.239 37.2755 165.24 37.3172 165.227C37.5575 167.652 37.7759 170.077 37.9507 172.509C37.9507 172.545 38.0089 172.545 38.0089 172.509C37.8196 170.067 37.6206 167.601 37.4118 165.111Z" fill="white"/>
<path d="M28.4917 127.409C26.482 126.158 24.1863 125.441 21.822 125.326C21.8104 125.326 21.7993 125.331 21.7911 125.339C21.7829 125.347 21.7783 125.358 21.7783 125.37C21.7783 125.381 21.7829 125.393 21.7911 125.401C21.7993 125.409 21.8104 125.414 21.822 125.414C24.1078 125.847 26.3261 126.582 28.4189 127.598C28.5063 127.62 28.5718 127.467 28.4917 127.409Z" fill="white"/>
<path d="M29.8392 157.24C28.2946 156.354 26.5938 155.773 24.8297 155.529C24.7714 155.529 24.7641 155.609 24.8297 155.624C26.5524 155.969 28.2188 156.553 29.781 157.357C29.8465 157.393 29.9047 157.277 29.8392 157.24Z" fill="white"/>
<path d="M68.6482 137.573C63.9538 140.818 59.6424 144.585 55.7967 148.801C51.8305 153.265 48.7713 158.458 46.7897 164.092C42.5722 175.828 40.3045 188.175 40.0763 200.644C39.9349 207.549 40.597 214.447 42.0495 221.199C42.0613 221.248 42.0915 221.291 42.1339 221.318C42.1763 221.345 42.2276 221.356 42.2772 221.346C42.3268 221.337 42.3708 221.309 42.4003 221.268C42.4298 221.227 42.4424 221.176 42.4354 221.126C40.628 209.211 40.6968 197.087 42.6393 185.193C44.547 173.543 47.5396 160.859 54.952 151.386C58.9859 146.223 64.0173 142.167 68.9904 137.973C69.2525 137.74 68.9176 137.384 68.6482 137.573Z" fill="#EBEBEB"/>
<path d="M41.707 192.241C44.3791 187.919 47.5193 183.905 51.0708 180.271C56.6264 174.715 61.3011 170.769 62.0292 167.099C62.7573 163.429 56.4663 160.72 56.4663 160.72C56.4663 160.72 64.148 162.104 66.2523 158.878C68.3566 155.653 69.3687 136.969 69.3687 136.969C69.3687 136.969 55.3886 146.951 48.8718 160.946C42.3551 174.941 41.707 192.241 41.707 192.241Z" fill="#EBEBEB"/>
<path d="M64.3519 154.495C63.4313 154.358 62.4982 154.326 61.5704 154.4C61.4612 154.4 61.4685 154.59 61.5704 154.597C62.4879 154.597 63.4126 154.553 64.33 154.597C64.3405 154.594 64.3501 154.589 64.3576 154.581C64.3651 154.573 64.3702 154.563 64.3725 154.553C64.3748 154.542 64.374 154.531 64.3704 154.521C64.3668 154.511 64.3603 154.502 64.3519 154.495Z" fill="white"/>
<path d="M54.3115 172.618C52.8353 172.648 51.3759 172.939 50.001 173.477C50.001 173.477 50.001 173.55 50.001 173.543C51.4572 173.201 52.8625 173.062 54.3042 172.815C54.3231 172.807 54.3392 172.793 54.3507 172.776C54.3623 172.759 54.3688 172.739 54.3696 172.719C54.3703 172.698 54.3653 172.678 54.355 172.66C54.3448 172.642 54.3297 172.628 54.3115 172.618Z" fill="white"/>
<path d="M51.2972 166.356C50.6843 166.351 50.0723 166.405 49.4696 166.516C49.4585 166.52 49.4489 166.528 49.4421 166.537C49.4353 166.547 49.4316 166.559 49.4316 166.571C49.4316 166.582 49.4353 166.594 49.4421 166.604C49.4489 166.614 49.4585 166.621 49.4696 166.625C50.08 166.66 50.6923 166.634 51.2972 166.545C51.3223 166.545 51.3464 166.535 51.3642 166.517C51.3819 166.5 51.3919 166.476 51.3919 166.45C51.3919 166.425 51.3819 166.401 51.3642 166.383C51.3464 166.366 51.3223 166.356 51.2972 166.356Z" fill="white"/>
<path d="M0.720821 157.393C5.27106 158.936 9.63138 160.99 13.718 163.517C17.9582 166.211 21.6352 169.703 24.5453 173.798C30.6681 182.321 35.356 191.788 38.4235 201.824C40.1342 207.381 41.1899 213.118 41.569 218.92C41.561 218.958 41.5404 218.991 41.5106 219.016C41.4808 219.04 41.4436 219.053 41.4052 219.053C41.3668 219.053 41.3296 219.04 41.2997 219.016C41.2699 218.991 41.2493 218.958 41.2413 218.92C39.9561 208.861 37.1011 199.065 32.7805 189.89C28.5354 180.897 23.1837 171.33 14.9995 165.373C10.5433 162.133 5.53377 160.007 0.538788 157.764C0.276661 157.677 0.458694 157.306 0.720821 157.393Z" fill="#EBEBEB"/>
<path d="M35.1615 195.409C31.9981 192.531 28.5284 190.008 24.8147 187.887C19.0334 184.676 14.3369 182.565 12.9025 179.761C11.4681 176.958 15.9315 173.317 15.9315 173.317C15.9315 173.317 10.0337 176.23 7.58713 174.082C5.14061 171.934 0 157.08 0 157.08C0 157.08 13.6233 161.922 22.1206 171.745C30.6179 181.567 35.1615 195.409 35.1615 195.409Z" fill="#EBEBEB"/>
<path d="M23.8536 181.734C22.5142 181.641 21.1693 181.807 19.8926 182.222C19.8926 182.222 19.8926 182.288 19.8926 182.28C21.1951 182.057 22.5111 181.921 23.8318 181.873C23.9264 181.873 23.9483 181.742 23.8536 181.734Z" fill="white"/>
<path d="M11.9705 166.152C11.3595 166.102 10.7446 166.136 10.1429 166.254C10.0774 166.254 10.0992 166.371 10.1429 166.363C10.7473 166.298 11.3371 166.32 11.9341 166.305C11.9527 166.306 11.9709 166.3 11.9857 166.289C12.0005 166.278 12.0109 166.262 12.0152 166.244C12.0195 166.225 12.0174 166.206 12.0093 166.19C12.0011 166.173 11.9874 166.16 11.9705 166.152Z" fill="white"/>
<path d="M52.7314 237.698H21.9824L26.3658 205.58L27.4871 197.345H47.2267L48.3481 205.58L52.7314 237.698Z" fill="#DBDBDB"/>
<path d="M48.3485 205.58H26.3662L27.4875 197.345H47.2272L48.3485 205.58Z" fill="#C7C7C7"/>
<path d="M50.0448 194.491H24.6621V201.467H50.0448V194.491Z" fill="#DBDBDB"/>
<path d="M2.43164 237.699L57.7769 237.524L113.122 237.459L223.813 237.335L334.503 237.459L389.849 237.524L445.194 237.699L389.849 237.881L334.503 237.939L223.813 238.063L113.122 237.939L57.7769 237.874L2.43164 237.699Z" fill="#263238"/>
<path d="M225.269 291.967C340.577 291.967 434.053 281.724 434.053 269.089C434.053 256.454 340.577 246.211 225.269 246.211C109.96 246.211 16.4844 256.454 16.4844 269.089C16.4844 281.724 109.96 291.967 225.269 291.967Z" fill="#EBEBEB"/>
<path d="M176.666 265.302C174.97 265.878 126.323 266.03 124.459 264.88C123.731 264.443 123.316 257.358 123.003 248.781C122.938 246.932 122.887 245.017 122.843 243.08L118.962 217.129L151.488 216.918L154.553 242.876L154.429 248.584C154.429 248.584 173.084 256.849 174.992 258.349C176.899 259.849 178.363 264.727 176.666 265.302Z" fill="#EB9481"/>
<path d="M176.666 265.301C174.97 265.877 126.323 266.03 124.459 264.879C123.6 264.34 123.134 253.994 122.872 243.079L154.517 242.875L154.393 248.584C154.393 248.584 173.048 256.848 174.955 258.348C176.863 259.848 178.363 264.726 176.666 265.301Z" fill="white"/>
<path d="M176.666 265.302C174.97 265.877 126.323 266.03 124.459 264.88C123.731 264.443 123.316 257.358 123.003 248.781L154.364 248.584C154.364 248.584 173.018 256.848 174.926 258.348C176.834 259.848 178.363 264.727 176.666 265.302Z" fill="#A6A6A6"/>
<path d="M175.96 263.358C167.805 263.183 134.894 263.263 126.819 263.715C126.753 263.715 126.753 263.759 126.819 263.766C134.901 264.108 167.812 263.766 175.96 263.489C176.135 263.482 176.135 263.358 175.96 263.358Z" fill="#263238"/>
<path d="M171.817 256.608C170.91 256.588 170.009 256.756 169.17 257.102C168.332 257.448 167.574 257.964 166.945 258.618C165.8 259.785 165.152 261.351 165.14 262.987C165.14 263.038 165.227 263.038 165.234 262.987C165.505 261.376 166.29 259.895 167.471 258.767C168.652 257.638 170.166 256.922 171.787 256.725C171.803 256.728 171.819 256.726 171.833 256.718C171.847 256.71 171.856 256.696 171.86 256.681C171.864 256.665 171.862 256.649 171.854 256.635C171.845 256.622 171.832 256.612 171.817 256.608Z" fill="#263238"/>
<path d="M157.553 249.385C154.291 249.348 150.512 250.513 148.487 253.193C148.415 253.295 148.56 253.404 148.655 253.353C151.505 251.849 154.507 250.653 157.611 249.785C157.659 249.772 157.7 249.742 157.728 249.7C157.755 249.658 157.766 249.608 157.759 249.559C157.752 249.51 157.727 249.465 157.689 249.433C157.651 249.401 157.602 249.384 157.553 249.385Z" fill="#263238"/>
<path d="M160.086 250.354C156.817 250.354 153.038 251.489 151.021 254.162C150.941 254.271 151.087 254.38 151.189 254.329C154.034 252.819 157.035 251.621 160.137 250.754C160.185 250.741 160.226 250.711 160.253 250.671C160.28 250.63 160.292 250.58 160.286 250.532C160.279 250.483 160.256 250.438 160.219 250.405C160.183 250.373 160.136 250.354 160.086 250.354Z" fill="#263238"/>
<path d="M162.606 251.329C159.344 251.329 155.565 252.458 153.541 255.137C153.468 255.239 153.614 255.348 153.709 255.297C156.559 253.793 159.561 252.597 162.665 251.73C162.713 251.717 162.754 251.686 162.781 251.645C162.809 251.603 162.82 251.553 162.813 251.504C162.805 251.454 162.781 251.409 162.743 251.377C162.705 251.345 162.656 251.328 162.606 251.329Z" fill="#263238"/>
<path d="M165.133 252.305C161.863 252.268 158.084 253.433 156.067 256.113C155.987 256.215 156.14 256.324 156.235 256.273C159.084 254.767 162.087 253.571 165.191 252.705C165.239 252.692 165.28 252.662 165.308 252.62C165.335 252.578 165.346 252.528 165.339 252.479C165.332 252.43 165.307 252.385 165.269 252.353C165.231 252.321 165.182 252.303 165.133 252.305Z" fill="#263238"/>
<path d="M128.872 255.961C125.231 255.961 125.231 261.677 128.872 261.655C132.513 261.633 132.542 255.939 128.872 255.961Z" fill="#263238"/>
<path d="M161.055 240.662C159.403 239.293 157.32 240.662 156.308 242.067C154.623 244.551 153.619 247.433 153.396 250.426C153.396 250.492 153.446 250.521 153.497 250.521C153.51 250.582 153.538 250.64 153.578 250.689C153.618 250.737 153.669 250.776 153.726 250.801C153.784 250.826 153.847 250.837 153.91 250.832C153.973 250.828 154.033 250.808 154.087 250.776C156.403 249.166 159.082 247.725 160.837 245.446C161.835 244.12 162.65 241.936 161.055 240.662ZM157.08 247.608C155.959 248.431 154.801 249.196 153.709 250.062C154.291 248.431 154.794 246.785 155.536 245.213C155.879 244.459 156.273 243.729 156.716 243.028C157.444 241.943 160.619 239.206 160.954 242.752C161.143 244.696 158.412 246.632 157.08 247.608Z" fill="#263238"/>
<path d="M145.269 251.664C148.109 252.087 151.043 251.271 153.832 250.827C153.893 250.811 153.949 250.782 153.996 250.74C154.043 250.699 154.079 250.647 154.103 250.589C154.126 250.531 154.135 250.468 154.13 250.406C154.125 250.344 154.105 250.283 154.072 250.23C154.083 250.222 154.091 250.211 154.097 250.199C154.103 250.187 154.106 250.174 154.106 250.161C154.106 250.148 154.103 250.134 154.097 250.122C154.091 250.11 154.083 250.1 154.072 250.092C151.832 248.093 149.104 246.72 146.165 246.109C144.446 245.781 142.014 246.254 141.796 248.388C141.534 250.398 143.609 251.402 145.269 251.664ZM143.289 249.815C141.104 247.019 145.276 246.779 146.529 247.07C147.341 247.273 148.139 247.531 148.917 247.842C150.51 248.502 152.067 249.243 153.584 250.063C152.201 250.201 150.839 250.448 149.463 250.638C147.818 250.856 144.512 251.351 143.289 249.815Z" fill="#263238"/>
<path d="M71.1387 97.1836C71.1387 97.1836 108.907 161.434 109.919 165.948C111.47 172.88 119.69 241.332 119.69 241.332L159.01 240.604C159.01 240.604 152.238 180.249 145.823 160.364C141.207 146.041 107.873 98.5379 107.873 98.5379L71.1387 97.1836Z" fill="#37474F"/>
<path d="M155.434 234.605C149.791 234.561 129.79 234.335 122.275 235.034C122.217 235.034 122.224 235.136 122.275 235.143C124.86 235.515 149.784 234.939 155.427 234.757C155.439 234.762 155.452 234.763 155.464 234.762C155.477 234.76 155.488 234.756 155.499 234.749C155.509 234.742 155.518 234.732 155.524 234.722C155.53 234.711 155.534 234.698 155.534 234.686C155.535 234.673 155.533 234.661 155.528 234.649C155.522 234.638 155.515 234.628 155.505 234.62C155.495 234.612 155.484 234.607 155.472 234.604C155.459 234.601 155.447 234.601 155.434 234.605Z" fill="#263238"/>
<path d="M77.5826 103.081C80.0583 106.962 82.6796 110.763 85.1989 114.615C87.7182 118.467 90.2521 122.318 92.7496 126.163C97.73 133.93 102.584 141.747 107.312 149.616C109.62 153.264 111.594 157.111 113.21 161.113C114.686 165.116 115.795 169.245 116.523 173.448C117.295 177.664 117.805 181.923 118.278 186.183C118.763 190.712 119.271 195.243 119.8 199.777C120.834 209.053 121.87 218.33 122.909 227.606C123.033 228.742 123.156 229.878 123.273 231.021C123.273 231.189 122.989 231.218 122.967 231.021C121.809 221.81 120.848 212.563 119.8 203.352C119.275 198.755 118.754 194.161 118.234 189.569C117.746 185.295 117.28 181.013 116.618 176.768C116.01 172.578 115.085 168.44 113.851 164.39C112.491 160.196 110.669 156.167 108.419 152.376C103.868 144.519 99.048 136.801 94.2277 129.076C89.4075 121.35 84.4562 113.559 79.3738 105.928C78.7477 104.989 78.1142 104.05 77.4589 103.125C77.4079 103.074 77.5389 103.008 77.5826 103.081Z" fill="#263238"/>
<path d="M83.5165 269.088C81.7253 268.979 35.4598 250.237 34.1783 248.46C34.1212 248.356 34.0959 248.237 34.1055 248.118C34.1055 246.523 37.3166 240.96 39.9961 233.65C40.1636 233.184 41.3577 231.014 43.0105 228.094C47.6051 220.092 55.6145 206.309 55.6145 206.309L85.8538 218.323L71.3785 239.985L69.1286 245.227C69.1286 245.227 83.3199 259.899 84.514 261.974C85.7082 264.049 85.3004 269.19 83.5165 269.088Z" fill="#EB9481"/>
<path d="M83.5165 269.089C81.7253 268.979 35.4598 250.237 34.1783 248.461C34.1212 248.356 34.0959 248.237 34.1055 248.118C34.1055 246.524 37.3166 240.961 39.9961 233.65C40.1636 233.184 41.3577 231.015 43.0105 228.095L71.4077 239.985L69.1578 245.228C69.1578 245.228 83.349 259.9 84.5432 261.975C85.7373 264.05 85.3004 269.19 83.5165 269.089Z" fill="white"/>
<path d="M83.5167 269.089C81.7255 268.979 35.46 250.237 34.1785 248.461C33.6834 247.783 35.7513 241.471 40.0036 233.65L69.1288 245.235C69.1288 245.235 83.3201 259.892 84.5215 261.982C85.723 264.072 85.3007 269.19 83.5167 269.089Z" fill="#A6A6A6"/>
<path d="M83.5893 267.02C76.0968 263.802 45.559 251.526 37.9063 248.919C37.8408 248.919 37.8262 248.919 37.9063 248.963C45.2677 252.312 75.9002 264.341 83.5602 267.166C83.7058 267.202 83.7495 267.086 83.5893 267.02Z" fill="#263238"/>
<path d="M82.2786 259.208C81.4477 258.843 80.5502 258.654 79.6427 258.654C78.7353 258.654 77.8377 258.843 77.0069 259.208C75.5131 259.862 74.329 261.067 73.7012 262.572C73.7012 262.615 73.7667 262.652 73.7886 262.608C74.6469 261.212 75.9347 260.132 77.4588 259.529C78.9828 258.927 80.6612 258.834 82.2422 259.266C82.2544 259.263 82.2649 259.255 82.2716 259.244C82.2784 259.233 82.2808 259.22 82.2786 259.208Z" fill="#263238"/>
<path d="M71.7719 247.164C68.7647 245.904 64.8182 245.569 61.9421 247.295C61.8329 247.36 61.9421 247.513 62.0368 247.506C65.2429 247.181 68.4746 247.198 71.6772 247.557C71.7265 247.562 71.776 247.549 71.8166 247.521C71.8571 247.492 71.8859 247.45 71.8975 247.402C71.9091 247.354 71.9027 247.303 71.8796 247.259C71.8565 247.215 71.8182 247.181 71.7719 247.164Z" fill="#263238"/>
<path d="M73.7445 249.014C70.7373 247.755 66.7909 247.42 63.9148 249.145C63.8055 249.211 63.9148 249.364 64.0094 249.356C67.2154 249.028 70.4475 249.045 73.6499 249.407C73.6992 249.413 73.7487 249.4 73.7892 249.372C73.8298 249.343 73.8585 249.301 73.8701 249.252C73.8817 249.204 73.8754 249.154 73.8523 249.11C73.8291 249.066 73.7908 249.032 73.7445 249.014Z" fill="#263238"/>
<path d="M75.7255 250.864C72.711 249.604 68.7645 249.269 65.8957 250.995C65.7792 251.06 65.8957 251.213 65.9831 251.206C69.1891 250.877 72.4212 250.894 75.6235 251.257C75.6738 251.265 75.7254 251.255 75.7682 251.227C75.811 251.199 75.8418 251.156 75.8546 251.107C75.8674 251.058 75.8612 251.005 75.8373 250.96C75.8134 250.915 75.7735 250.881 75.7255 250.864Z" fill="#263238"/>
<path d="M77.6991 252.713C74.6846 251.453 70.7455 251.118 67.8693 252.836C67.7528 252.909 67.8693 253.062 67.9567 253.055C71.1627 252.726 74.3948 252.743 77.5972 253.106C77.6475 253.114 77.6991 253.103 77.7418 253.076C77.7846 253.048 77.8154 253.005 77.8282 252.956C77.841 252.906 77.8349 252.854 77.811 252.809C77.7871 252.764 77.7472 252.73 77.6991 252.713Z" fill="#263238"/>
<path d="M42.7121 242.497C39.3118 241.143 37.2002 246.436 40.6151 247.791C44.03 249.145 46.1489 243.851 42.7121 242.497Z" fill="#263238"/>
<path d="M78.288 240.392C77.2613 238.507 74.8366 238.973 73.3585 239.912C70.8686 241.58 68.86 243.872 67.5335 246.56C67.5276 246.572 67.5245 246.585 67.5244 246.598C67.5243 246.611 67.5271 246.624 67.5327 246.636C67.5383 246.648 67.5465 246.658 67.5568 246.666C67.567 246.675 67.5789 246.681 67.5917 246.684C67.5917 246.924 67.7519 247.208 68.0359 247.15C70.7955 246.516 73.8172 246.188 76.2929 244.732C77.7128 243.888 79.2564 242.176 78.288 240.392ZM71.9896 245.337C70.6426 245.679 69.2883 245.955 67.9558 246.349C69.058 245.021 70.2269 243.75 71.4581 242.54C72.0642 241.963 72.7089 241.428 73.3877 240.939C74.4434 240.21 78.4336 238.863 77.4142 242.278C76.8536 244.164 73.5988 244.929 71.9896 245.337Z" fill="#263238"/>
<path d="M59.5245 244.667C62.0002 246.124 65.0219 246.466 67.7743 247.107C68.0582 247.172 68.2476 246.888 68.2257 246.641C68.2394 246.639 68.2524 246.634 68.2636 246.626C68.2748 246.618 68.2837 246.608 68.2896 246.595C68.2954 246.583 68.298 246.569 68.297 246.555C68.296 246.542 68.2915 246.528 68.2839 246.517C66.9595 243.824 64.9508 241.527 62.4589 239.855C61.0026 238.908 58.5634 238.435 57.5295 240.313C56.4955 242.192 58.0755 243.816 59.5245 244.667ZM58.3886 242.206C57.3765 238.791 61.3594 240.146 62.4152 240.881C63.0932 241.371 63.7355 241.909 64.3375 242.49C65.5663 243.702 66.7328 244.976 67.8325 246.306C66.5 245.913 65.1457 245.629 63.7987 245.286C62.1677 244.849 58.942 244.121 58.3886 242.206Z" fill="#263238"/>
<path d="M73.7297 238.777L39.8789 225.11C39.8789 225.11 81.8484 163.401 82.1542 158.806C82.4309 154.743 63.9946 119.342 63.2738 109.024C62.4874 97.8835 67.8464 89.2697 73.7443 83.918L108.658 98.7646C108.658 98.7646 104.974 104.655 99.1925 107.939C99.1925 107.939 117.097 148.86 116.078 161.442C115.058 174.024 73.7297 238.777 73.7297 238.777Z" fill="#37474F"/>
<path d="M75.2303 232.34C70.3373 230.236 71.7717 230.767 66.8495 228.699C64.4467 227.694 48.6462 221.119 46.2143 220.573C46.1633 220.573 46.1269 220.646 46.1779 220.675C48.2822 221.964 64.2137 228.262 66.6384 229.223C71.5969 231.175 70.1917 230.563 75.1721 232.456C75.1795 232.466 75.1894 232.474 75.2007 232.479C75.2121 232.484 75.2245 232.486 75.2369 232.485C75.2492 232.484 75.2611 232.48 75.2713 232.473C75.2816 232.466 75.2899 232.456 75.2955 232.445C75.301 232.434 75.3036 232.422 75.3031 232.409C75.3025 232.397 75.2988 232.385 75.2923 232.374C75.2857 232.364 75.2766 232.355 75.2658 232.349C75.2549 232.343 75.2427 232.34 75.2303 232.34Z" fill="#263238"/>
<path d="M104.916 107.189C101.281 108.036 97.7247 109.191 94.2852 110.64C94.2714 110.645 94.2586 110.652 94.2476 110.662C94.2366 110.672 94.2277 110.684 94.2212 110.697C94.2148 110.71 94.2111 110.724 94.2102 110.739C94.2093 110.753 94.2113 110.768 94.2161 110.782C94.2208 110.796 94.2283 110.809 94.238 110.82C94.2478 110.831 94.2595 110.84 94.2727 110.846C94.2859 110.852 94.3002 110.856 94.3149 110.857C94.3295 110.858 94.3442 110.856 94.3581 110.851C97.9259 109.81 101.552 108.834 105.062 107.604C105.331 107.509 105.193 107.13 104.916 107.189Z" fill="#263238"/>
<path d="M100.759 105.776C100.419 106.379 100.12 107.005 99.863 107.647C99.6117 108.135 99.456 108.666 99.4043 109.213C99.4043 109.322 99.5499 109.344 99.6155 109.278C99.9808 108.841 100.276 108.35 100.489 107.822C100.788 107.247 101.094 106.679 101.378 106.089C101.574 105.659 100.984 105.383 100.759 105.776Z" fill="#263238"/>
<path d="M101.196 102.47C101.414 101.931 101.625 101.4 101.851 100.861C102.077 100.322 102.361 99.7688 102.579 99.2008C102.579 99.1135 102.754 99.2008 102.717 99.2664C102.499 99.8052 102.361 100.373 102.193 100.926C102.026 101.48 101.836 102.033 101.654 102.587C101.312 103.613 100.926 104.633 100.453 105.63C101.026 105.659 101.598 105.559 102.128 105.339C102.669 104.993 103.085 104.482 103.314 103.883C103.62 103.286 103.904 102.674 104.217 102.077C104.603 101.431 104.927 100.751 105.186 100.045C105.186 99.9581 105.361 100.045 105.324 100.111C104.849 101.603 104.227 103.045 103.467 104.414C103.14 104.946 102.885 105.506 102.288 105.71C101.642 105.891 100.965 105.938 100.3 105.849C100.213 105.849 100.111 105.849 100.14 105.718C100.438 104.618 100.79 103.535 101.196 102.47Z" fill="#263238"/>
<path d="M99.7105 109.271C100.956 111.899 102.048 114.521 103.206 117.142C104.363 119.763 105.39 122.297 106.431 124.904C108.514 130.161 110.378 135.52 112.016 140.923C112.824 143.602 113.574 146.303 114.244 149.027C114.982 151.741 115.522 154.506 115.86 157.298C116.153 160.086 115.905 162.904 115.132 165.599C114.329 168.262 113.299 170.852 112.052 173.339C111.288 174.912 111.033 174.701 111.397 173.907C112.438 171.65 115.169 164.813 114.972 159.068C114.813 156.317 114.389 153.589 113.705 150.92C113.069 148.168 112.353 145.437 111.557 142.728C110.006 137.384 108.164 132.149 106.271 126.921C105.208 124.008 104.087 121.096 102.994 118.183C101.902 115.271 100.81 112.591 99.5867 109.373C99.5503 109.242 99.6741 109.191 99.7105 109.271Z" fill="#263238"/>
<path d="M74.0146 100.584C74.619 100.358 75.4709 100.73 76.0825 100.832C76.8746 100.966 77.675 101.046 78.478 101.072C79.2726 101.1 80.0682 101.073 80.859 100.992C81.6555 100.971 82.4361 100.764 83.1381 100.387C84.2899 99.5484 85.2772 98.5043 86.0506 97.3075C86.9722 96.0845 87.7333 94.7484 88.3151 93.3319C88.3151 93.2445 88.468 93.3319 88.4389 93.3901C88.184 94.1984 87.9947 95.0139 87.7108 95.8075C87.3969 96.5532 87.0218 97.2717 86.5894 97.9555C85.8884 99.3316 84.8516 100.509 83.575 101.378C82.1697 102.179 80.3639 102.106 78.7984 102.04C77.8905 101.987 76.9876 101.868 76.0971 101.684C75.4563 101.545 74.3787 101.443 73.9709 100.883C73.9517 100.861 73.9375 100.836 73.9292 100.808C73.9209 100.781 73.9188 100.752 73.923 100.723C73.9271 100.695 73.9375 100.667 73.9533 100.643C73.9692 100.619 73.9901 100.599 74.0146 100.584Z" fill="#263238"/>
<path d="M49.5419 218.636C55.1048 210.209 60.5658 201.715 65.9249 193.152C71.2839 184.589 76.5701 175.961 81.7836 167.267C83.0287 165.191 84.4631 163.124 85.264 160.823C86.1378 158.325 85.6427 155.901 84.8563 153.454C83.3714 148.991 81.6357 144.615 79.6574 140.348C77.706 136.044 75.6017 131.814 73.5338 127.569C71.4659 123.324 69.3034 119.13 67.7088 114.703C66.2525 110.472 65.6627 106.089 66.7986 101.706C67.9345 97.3223 70.381 93.4487 72.9368 89.8007C73.6066 88.8396 74.2984 87.8857 74.9755 86.8882C75.0265 86.8154 75.1357 86.8882 75.0848 86.9756C72.2669 90.7764 69.5218 94.803 67.869 99.2664C67.0242 101.467 66.5517 103.792 66.471 106.147C66.4572 108.538 66.8284 110.916 67.5704 113.188C68.9393 117.615 71.1019 121.802 73.1188 125.967C75.1357 130.132 77.291 134.442 79.2788 138.731C81.3295 143.048 83.1523 147.469 84.7398 151.976C85.4169 153.978 86.196 156.075 86.1378 158.223C86.0868 160.575 84.9655 162.694 83.8005 164.674C78.7036 173.303 73.4829 181.829 68.1675 190.305C62.8521 198.78 57.3839 207.256 51.8501 215.644L49.7531 218.811C49.6438 218.942 49.4545 218.789 49.5419 218.636Z" fill="#263238"/>
<path d="M110.596 59.5178C113.749 66.435 129.673 75.9663 137.129 76.9929C142.488 77.7211 158.784 77.9832 164.369 77.1313C170.922 76.1265 165.912 58.4693 162.046 58.928C151.415 60.1658 142.386 61.5493 139.547 61.5493C136.081 61.5493 117.331 55.5349 115.074 54.683C109.54 52.6224 108.812 55.5931 110.596 59.5178Z" fill="#EB9481"/>
<path d="M110.698 61.3594C114.688 67.2646 127.947 76.9196 127.947 76.9196L129.789 72.8421L135.884 59.3571C135.884 59.3571 123.702 55.5344 115.685 53.7869C114.742 53.5722 113.782 53.4358 112.816 53.3791C107.698 53.1024 107.253 56.2625 110.698 61.3594Z" fill="#CACACA"/>
<path d="M110.698 61.3593C114.688 67.2645 127.947 76.9195 127.947 76.9195L129.789 72.8419C124.845 67.097 117.207 58.3958 112.816 53.3935C107.698 53.1023 107.253 56.2624 110.698 61.3593Z" fill="#263238"/>
<path d="M125.559 74.1821C126.571 71.6992 131.07 61.7019 132.192 59.6195C132.265 59.4738 132.381 59.4884 132.316 59.6195C130.364 64.5911 128.142 69.4525 125.66 74.1821C125.631 74.2695 125.515 74.2403 125.559 74.1821Z" fill="#263238"/>
<path d="M160.094 59.1094C166.56 58.2647 174.562 56.8158 181.341 59.6919C182.102 59.9905 182.741 60.5368 183.154 61.2428C186.212 62.4806 186.547 64.2937 186.547 64.2937C189.044 66.3179 189.132 68.2256 189.132 68.2256C189.132 68.2256 192.714 69.6818 192.168 72.0264C191.571 74.6186 186.663 72.0264 183.095 72.2376C174.904 72.7473 163.436 75.7545 161.069 76.1331L160.094 59.1094Z" fill="#EB9481"/>
<path d="M174.14 66.7413C176.535 66.5774 178.939 66.5774 181.334 66.7413C183.942 67.0685 186.522 67.5918 189.052 68.3067C189.069 68.3125 189.087 68.3116 189.102 68.3041C189.118 68.2965 189.13 68.2831 189.136 68.2667C189.142 68.2503 189.141 68.2322 189.133 68.2165C189.126 68.2008 189.112 68.1887 189.096 68.183C184.343 66.3183 179.17 65.7944 174.14 66.6684C174.024 66.6539 174.024 66.7485 174.14 66.7413Z" fill="#263238"/>
<path d="M172.617 59.1757C176.615 59.3796 179.112 60.0204 183.132 61.2291V61.1854C178.705 59.3359 176.892 59.1612 172.596 59.001C172.457 59.0592 172.465 59.1757 172.617 59.1757Z" fill="#263238"/>
<path d="M173.266 73.4756C172.224 73.9634 172.479 74.5095 174.467 74.9683C176.455 75.427 184.719 75.5653 184.428 78.4487C184.137 81.3321 172.479 80.9681 169.224 79.9487C165.97 78.9293 161.069 76.1333 161.069 76.1333C163.378 75.7474 168.795 74.2838 173.266 73.4756Z" fill="#EB9481"/>
<path d="M119.253 70.5419C119.202 71.7871 119.086 73.054 118.911 74.3137C118.911 74.2627 118.911 74.219 118.962 74.1753C119.202 73.52 119.442 72.8501 119.734 72.2167C119.734 72.2167 119.806 72.2167 119.799 72.2167C119.659 72.9108 119.449 73.589 119.173 74.2409C119.042 74.554 118.918 74.8598 118.78 75.1656C118.692 75.7262 118.59 76.2796 118.481 76.833C118.263 77.8742 117.28 82.3013 117.025 83.0512C116.981 83.2041 116.792 83.1678 116.806 82.993C116.857 82.1775 117.68 77.5684 117.848 76.5199C118.173 74.4954 118.608 72.4901 119.151 70.5128C119.187 70.4764 119.26 70.5055 119.253 70.5419Z" fill="#263238"/>
<path d="M111.681 103.65C109.737 104.647 107.232 106.198 95.9462 103.978C95.2181 103.832 94.5336 103.657 93.8201 103.446C83.2403 100.271 70.5199 87.8276 69.8281 86.9466C69.8281 86.9466 86.6407 59.6926 108.142 51.1225C110.8 50.0667 115.198 52.1055 117.608 54.6467C118.475 55.5569 120.36 62.2484 119.64 67.6657C118.919 73.083 113.618 102.652 111.681 103.65Z" fill="#CACACA"/>
<path d="M110.166 67.418C110.247 68.5696 110.085 69.7255 109.692 70.8111C109.6 69.659 109.761 68.5008 110.166 67.418Z" fill="white"/>
<path d="M102.833 85.9775C102.88 86.5507 102.86 87.1272 102.775 87.6959C102.705 88.2689 102.566 88.8312 102.36 89.3706C102.31 88.7952 102.329 88.2157 102.418 87.645C102.493 87.0752 102.632 86.5157 102.833 85.9775Z" fill="white"/>
<path d="M90.3751 71.9473C90.4571 73.1014 90.2959 74.2598 89.9018 75.3476C89.8103 74.1933 89.9719 73.0328 90.3751 71.9473Z" fill="white"/>
<path d="M114.964 85.0312C115.011 85.6068 114.991 86.1858 114.906 86.7569C114.836 87.3299 114.697 87.8922 114.491 88.4316C114.441 87.8562 114.46 87.2767 114.549 86.706C114.623 86.1336 114.762 85.5717 114.964 85.0312Z" fill="white"/>
<path d="M98.9678 69.5437C99.5406 69.4949 100.117 69.512 100.686 69.5946C101.259 69.6673 101.822 69.8091 102.361 70.017C101.209 70.0997 100.053 69.9384 98.9678 69.5437Z" fill="white"/>
<path d="M84.8271 82.9492C85.9788 82.868 87.1347 83.0292 88.2202 83.4224C87.0682 83.5148 85.9099 83.3532 84.8271 82.9492Z" fill="white"/>
<path d="M101.486 97.4605C102.638 97.3778 103.794 97.5391 104.879 97.9338C103.727 98.0247 102.569 97.8632 101.486 97.4605Z" fill="white"/>
<path d="M80.4658 92.1894C81.6175 92.1082 82.7734 92.2694 83.8589 92.6627C82.7069 92.7536 81.549 92.5921 80.4658 92.1894Z" fill="white"/>
<path d="M110.057 54.3691C111.208 54.2879 112.364 54.4491 113.45 54.8424C112.298 54.9236 111.142 54.7623 110.057 54.3691Z" fill="white"/>
<path d="M105.943 59.0156C105.575 59.4581 105.154 59.8542 104.691 60.1952C104.239 60.5441 103.751 60.842 103.234 61.0835C103.6 60.6438 104.015 60.248 104.472 59.9039C104.928 59.5537 105.421 59.2557 105.943 59.0156Z" fill="white"/>
<path d="M83.5235 72.2158C83.1509 72.6545 82.7282 73.0479 82.2639 73.3881C81.8173 73.7436 81.3281 74.042 80.8076 74.2764C81.1822 73.8396 81.6047 73.4464 82.0673 73.1041C82.5149 72.7502 83.004 72.4519 83.5235 72.2158Z" fill="white"/>
<path d="M111.521 78.1729C111.148 78.6138 110.725 79.0097 110.261 79.3524C109.813 79.7064 109.324 80.0047 108.805 80.2407C109.177 79.7998 109.6 79.4039 110.064 79.0612C110.514 78.7107 111.003 78.4127 111.521 78.1729Z" fill="white"/>
<path d="M93.3898 89.5898C93.0173 90.0308 92.5945 90.4267 92.1301 90.7694C91.6817 91.1223 91.1928 91.4206 90.6738 91.6577C91.0463 91.2168 91.4691 90.8209 91.9335 90.4782C92.3836 90.1277 92.8722 89.8297 93.3898 89.5898Z" fill="white"/>
<path d="M118.467 62.5762C118.094 63.0171 117.672 63.413 117.207 63.7557C116.756 64.1046 116.268 64.4026 115.751 64.6441C116.123 64.2031 116.546 63.8072 117.011 63.4645C117.459 63.1116 117.948 62.8134 118.467 62.5762Z" fill="white"/>
<path d="M118.088 75.8058C117.647 75.4333 117.252 75.0105 116.909 74.5461C116.554 74.0987 116.256 73.6097 116.021 73.0898C116.463 73.4579 116.859 73.8785 117.2 74.3422C117.548 74.7967 117.846 75.2874 118.088 75.8058Z" fill="white"/>
<path d="M77.6773 84.922C77.2363 84.5495 76.8404 84.1267 76.4977 83.6623C76.1473 83.2122 75.8492 82.7236 75.6094 82.2061C76.0503 82.5785 76.4462 83.0013 76.7889 83.4657C77.1419 83.9141 77.4401 84.403 77.6773 84.922Z" fill="white"/>
<path d="M113.173 95.7633C112.731 95.3952 112.335 94.9747 111.994 94.511C111.645 94.0598 111.347 93.5714 111.105 93.0547C111.546 93.4272 111.942 93.8499 112.285 94.3144C112.636 94.7612 112.935 95.2475 113.173 95.7633Z" fill="white"/>
<path d="M95.3853 64.8542C94.9445 64.4842 94.5486 64.0639 94.2057 63.6018C93.8583 63.1496 93.5605 62.6614 93.3174 62.1455C93.7599 62.5136 94.156 62.9342 94.497 63.3979C94.8444 63.8501 95.1422 64.3383 95.3853 64.8542Z" fill="white"/>
<path d="M95.6978 101.939C95.2568 101.566 94.8609 101.143 94.5182 100.679C94.1689 100.228 93.871 99.7396 93.6299 99.2227C94.0724 99.5908 94.4685 100.011 94.8095 100.475C95.1598 100.928 95.4578 101.419 95.6978 101.939Z" fill="white"/>
<path d="M98.7198 80.0655C98.283 79.691 97.8898 79.2684 97.5475 78.8059C97.192 78.3593 96.8936 77.8701 96.6592 77.3496C97.0978 77.7222 97.4913 78.145 97.8315 78.6093C98.1854 79.0569 98.4837 79.5459 98.7198 80.0655Z" fill="white"/>
<path d="M113.669 61.9059C110.924 61.3962 108.346 55.7241 108.019 51.9087C108.019 51.6466 109.3 49.5714 110.764 46.972C111.652 45.3919 112.591 43.608 113.341 41.9187C113.494 41.5765 114.39 42.7342 114.39 42.7342L116.341 44.1905L122.785 49.1345C121.251 50.9759 119.947 52.9981 118.904 55.1562C118.801 55.39 118.723 55.6341 118.671 55.8843C118.668 55.9255 118.668 55.9669 118.671 56.0081C118.271 57.4498 116.312 62.3938 113.669 61.9059Z" fill="#EB9481"/>
<path d="M118.671 55.9211C118.668 55.9623 118.668 56.0037 118.671 56.0449C118.288 55.9327 117.915 55.789 117.557 55.6153C110.501 52.3095 113.61 42.8584 113.61 42.8584L116.377 44.2273L122.821 49.1713C121.286 51.0127 119.983 53.0349 118.94 55.1929C118.824 55.4254 118.734 55.6695 118.671 55.9211Z" fill="#263238"/>
<path d="M130.189 29.0156C130.189 29.0156 133.415 31.0617 133.43 34.7023C133.444 38.343 131.973 41.9036 131.668 42.0346C131.362 42.1657 130.189 29.0156 130.189 29.0156Z" fill="#263238"/>
<path d="M114.185 30.9082C112.248 34.7309 112.35 46.7815 114.767 49.8833C118.277 54.3832 125.034 55.9341 129.119 51.4852C133.072 47.1747 132.665 31.4762 129.847 28.5491C125.747 24.224 117.054 25.2506 114.185 30.9082Z" fill="#EB9481"/>
<path d="M124.466 40.5566C124.466 40.5566 124.401 40.6003 124.408 40.6295C124.452 41.4522 124.364 42.3988 123.629 42.6901C123.629 42.6901 123.629 42.741 123.629 42.7338C124.539 42.5881 124.641 41.3285 124.466 40.5566Z" fill="#263238"/>
<path d="M123.716 39.7202C122.391 39.6474 122.347 42.2978 123.578 42.3633C124.808 42.4289 124.823 39.7785 123.716 39.7202Z" fill="#263238"/>
<path d="M128.959 40.5283C128.959 40.5283 129.025 40.5283 129.025 40.6011C128.981 41.4239 129.076 42.3705 129.818 42.6545C129.818 42.6545 129.818 42.7054 129.818 42.6982C128.901 42.5598 128.792 41.3001 128.959 40.5283Z" fill="#263238"/>
<path d="M129.709 39.6834C131.027 39.6033 131.093 42.2537 129.87 42.3265C128.646 42.3993 128.603 39.749 129.709 39.6834Z" fill="#263238"/>
<path d="M122.887 37.7025C123.234 37.6035 123.577 37.4869 123.913 37.353C124.296 37.2838 124.644 37.0891 124.903 36.7996C124.966 36.6937 124.993 36.5699 124.978 36.4475C124.964 36.3251 124.909 36.2108 124.823 36.1225C124.626 35.9727 124.393 35.8782 124.147 35.8487C123.901 35.8193 123.652 35.856 123.425 35.955C122.934 36.0865 122.509 36.3952 122.231 36.8215C122.176 36.9229 122.151 37.0381 122.159 37.1533C122.167 37.2686 122.208 37.3792 122.277 37.4719C122.346 37.5646 122.44 37.6356 122.548 37.6765C122.656 37.7174 122.773 37.7264 122.887 37.7025Z" fill="#263238"/>
<path d="M130.612 38.8752C130.258 38.796 129.908 38.6988 129.563 38.584C129.18 38.5332 128.824 38.3565 128.551 38.0815C128.481 37.9803 128.447 37.8583 128.455 37.7354C128.463 37.6124 128.512 37.4958 128.595 37.4044C128.783 37.2438 129.01 37.1368 129.254 37.0945C129.497 37.0522 129.748 37.0763 129.978 37.1641C130.477 37.2673 130.918 37.553 131.216 37.965C131.279 38.0626 131.311 38.1761 131.31 38.2919C131.309 38.4077 131.275 38.5206 131.211 38.6171C131.147 38.7135 131.056 38.7893 130.95 38.8351C130.843 38.8809 130.726 38.8949 130.612 38.8752Z" fill="#263238"/>
<path d="M122.603 48.3412C122.799 48.5377 122.989 48.7999 123.287 48.829C123.593 48.8288 123.896 48.7643 124.176 48.6397C124.176 48.6397 124.227 48.6397 124.176 48.6834C124.056 48.8434 123.896 48.968 123.711 49.0436C123.526 49.1193 123.324 49.1433 123.127 49.113C122.961 49.0676 122.811 48.9744 122.698 48.845C122.584 48.7156 122.51 48.5556 122.486 48.3848C122.481 48.3694 122.481 48.3523 122.488 48.3373C122.495 48.3222 122.507 48.3105 122.523 48.3047C122.538 48.2989 122.555 48.2995 122.57 48.3064C122.585 48.3132 122.597 48.3257 122.603 48.3412Z" fill="#263238"/>
<path d="M127.365 44.8314C127.365 44.8314 127.401 46.0547 127.365 46.6299C126.246 46.5112 125.116 46.5504 124.008 46.7464C123.746 46.8046 123.775 46.5935 124.074 46.4551C124.966 46.0473 125.96 45.9154 126.928 46.0765C126.986 45.9236 126.833 44.1834 126.928 44.1906C127.368 44.2771 127.795 44.4241 128.195 44.6275C128.195 42.0645 127.787 39.5306 127.823 36.9676C127.823 36.8802 127.962 36.8656 127.976 36.9676C128.494 39.6789 128.738 42.4354 128.705 45.1955C128.712 45.5086 127.583 44.9479 127.365 44.8314Z" fill="#263238"/>
<path d="M125.726 46.1924C125.436 46.9558 124.897 47.5995 124.197 48.02C123.097 48.4641 122.74 47.4666 123.847 46.5637C124.428 46.2703 125.077 46.1419 125.726 46.1924Z" fill="#263238"/>
<path d="M124.583 47.7949C124.467 47.8896 124.337 47.9657 124.198 48.0207C123.185 48.4284 122.785 47.6202 123.6 46.8047C124.154 46.8484 124.787 47.0523 124.583 47.7949Z" fill="#FF99BA"/>
<path d="M113.632 41.2125C114.965 41.6203 116.494 37.6156 116.931 36.1156C117.309 34.7613 117.746 30.458 117.812 30.1595C117.877 29.861 123.637 33.9676 126.972 32.9919C130.306 32.0162 132.571 28.9945 132.622 27.5892C132.673 26.1839 128.501 22.6161 124.896 22.434C121.292 22.252 116.406 26.8028 116.406 26.8028C116.997 26.1331 117.532 25.4172 118.008 24.6621C117.95 24.5019 115.62 25.4339 115.19 27.0941C115.19 27.0941 115.656 25.0043 115.482 24.9679C115.307 24.9315 113.494 26.7154 113.902 28.0698C113.902 28.0698 111.805 29.8828 111.615 31.8706C111.426 33.8584 112.067 40.732 113.632 41.2125Z" fill="#263238"/>
<path d="M129.36 32.2337C128.368 32.7715 127.3 33.1545 126.192 33.3696C124.949 33.4805 123.698 33.2803 122.552 32.7871C121.397 32.341 120.324 31.7061 119.377 30.9085C118.54 30.2241 117.79 29.3867 116.894 28.7751C116.668 28.6149 116.414 28.9426 116.552 29.1465C118.046 31.257 120.181 32.8298 122.639 33.6317C123.781 34.004 125 34.0736 126.177 33.8337C127.353 33.5937 128.448 33.0525 129.352 32.2629C129.352 32.2629 129.374 32.2337 129.36 32.2337Z" fill="#263238"/>
<path d="M115.023 40.8555C115.023 40.8555 112.955 36.6615 111.091 37.3386C109.227 38.0158 110.363 43.819 112.278 44.8821C112.512 45.0338 112.775 45.1367 113.051 45.1844C113.326 45.2321 113.608 45.2238 113.88 45.1599C114.152 45.096 114.408 44.9778 114.633 44.8125C114.858 44.6471 115.048 44.438 115.19 44.1976L115.023 40.8555Z" fill="#EB9481"/>
<path d="M111.462 38.9922C111.462 38.9922 111.418 38.9922 111.462 39.0504C112.787 39.8368 113.326 41.2348 113.646 42.6911C113.586 42.5369 113.493 42.3977 113.373 42.2831C113.254 42.1684 113.111 42.0811 112.955 42.027C112.798 41.973 112.632 41.9537 112.467 41.9703C112.302 41.9868 112.143 42.039 112.001 42.1232C111.957 42.1232 112.001 42.2032 112.001 42.2032C112.261 42.1627 112.528 42.204 112.764 42.3214C113 42.4387 113.194 42.6264 113.319 42.8586C113.527 43.2474 113.693 43.6575 113.814 44.0818C113.857 44.2202 114.098 44.1838 114.076 44.0309C114.389 42.2178 113.37 39.4728 111.462 38.9922Z" fill="#263238"/>
<path d="M101.37 59.5831C99.9136 67.8329 108.855 95.6256 114.586 100.817C123.112 108.535 138.876 113.61 144.592 115.263C147.082 115.991 153.97 98.4654 151.451 97.3076C146.055 94.8538 129.294 89.6113 127.699 88.3006C126.105 86.99 116.493 73.1045 112.212 65.1096C106.481 54.3479 102.091 55.4109 101.37 59.5831Z" fill="#EB9481"/>
<path d="M147.206 95.7637C147.206 95.7637 154.647 97.6641 159.446 99.1276C162.125 99.9504 166.596 101.763 168.293 103.263C170.827 105.513 179.986 116.523 177.365 118.802C174.991 120.87 168.322 110.406 168.322 110.406C168.322 110.406 175.982 120.367 172.691 122.326C169.399 124.285 163.378 111.462 163.378 111.462C163.378 111.462 171.016 121.874 167.28 123.353C164.455 124.467 158.397 113.159 158.397 113.159C158.397 113.159 164.907 122.151 162.038 123.425C158.878 124.838 152.638 114.746 152.638 114.746C144.832 116.763 140.26 114.528 137.252 112.562C136.546 112.081 147.206 95.7637 147.206 95.7637Z" fill="#EB9481"/>
<path d="M165.889 106.787C166.836 107.923 167.797 109.074 168.635 110.29C169.472 111.506 170.266 112.758 170.986 114.047C171.963 115.714 172.745 117.488 173.316 119.333C172.064 116.129 169.13 111.724 168.292 110.508C167.455 109.292 166.676 108.033 165.846 106.817C165.824 106.787 165.868 106.758 165.889 106.787Z" fill="#263238"/>
<path d="M161.442 109.737C163.058 111.018 166.444 115.78 167.747 118.977C167.805 119.108 167.747 119.1 167.653 118.977C166.633 117.397 162.497 111.28 161.405 109.758C161.383 109.737 161.42 109.715 161.442 109.737Z" fill="#263238"/>
<path d="M157.166 111.601C159.175 113.708 160.762 116.18 161.841 118.883C161.892 119.014 161.79 118.992 161.71 118.883C160.203 116.429 159.038 114.514 157.086 111.667C157.057 111.601 157.123 111.536 157.166 111.601Z" fill="#263238"/>
<path d="M109.497 60.188C102.849 50.7879 98.8731 54.2683 100.206 64.4767C101.458 74.0225 104.8 85.3959 104.8 85.3959L121.547 77.27C121.547 77.27 113.727 66.2097 109.497 60.188Z" fill="#CACACA"/>
<path d="M113.538 63.8867C113.758 64.4177 113.917 64.9723 114.011 65.5396C114.113 66.1087 114.15 66.6877 114.12 67.2652C113.902 66.7315 113.745 66.1745 113.654 65.6051C113.546 65.0391 113.507 64.4621 113.538 63.8867Z" fill="white"/>
<path d="M103.613 69.602C104.682 69.1673 105.832 68.9686 106.985 69.0195C106.453 69.2379 105.899 69.3942 105.332 69.4855C104.766 69.5936 104.189 69.6327 103.613 69.602Z" fill="white"/>
<path d="M104.043 54.9814C103.592 56.0456 102.919 57.0013 102.069 57.7847C102.52 56.7206 103.193 55.7649 104.043 54.9814Z" fill="white"/>
<path d="M118.234 73.9922C118.013 74.5247 117.732 75.0304 117.397 75.4994C117.07 75.9744 116.689 76.4094 116.261 76.7955C116.712 75.7314 117.384 74.7757 118.234 73.9922Z" fill="white"/>
<path d="M106.584 79.6949C106.05 79.4765 105.544 79.1954 105.076 78.8576C104.601 78.5313 104.166 78.15 103.78 77.7217C104.844 78.1726 105.8 78.8453 106.584 79.6949Z" fill="white"/>
<path d="M111.681 63.0195C112.576 64.2501 113.501 65.4515 114.419 66.6602C114.186 66.0486 113.982 65.4296 113.807 64.8035H113.851C114.033 65.284 114.244 65.7573 114.419 66.2597L114.681 66.9878C114.703 67.0376 114.723 67.0886 114.739 67.1408C115.467 68.08 116.195 69.0193 116.865 69.9805C117.688 71.1309 118.482 72.2959 119.283 73.4609C120.083 74.6259 120.892 76.0749 121.758 77.2472C121.838 77.3492 120.302 77.9753 120.134 78.0554C119.967 78.1355 119.88 77.9972 120.04 77.9462C120.2 77.8953 121.423 77.1453 121.438 77.1307C120.637 75.9512 119.712 74.8662 118.875 73.7231C118.037 72.5799 117.207 71.4367 116.399 70.279C114.761 67.9199 113.261 65.4733 111.63 63.1069L111.681 63.0195Z" fill="#263238"/>
<path d="M100.598 71.2328C100.853 71.728 101.13 72.2158 101.327 72.7255L101.603 73.359C101.217 71.5459 100.875 69.7183 100.475 67.9053C101.246 70.8178 102.026 73.7959 102.739 76.7521C103.416 79.5772 104.239 82.4315 104.632 85.3149C105.14 85.0922 105.666 84.9143 106.205 84.7834C105.664 85.1333 105.082 85.4146 104.472 85.6207C103.594 82.6886 102.865 79.714 102.288 76.7084C102.106 75.8929 101.938 75.0774 101.763 74.2619C101.574 73.7667 101.348 73.2934 101.123 72.8056C100.897 72.3177 100.693 71.7716 100.489 71.2547C100.533 71.2255 100.584 71.1964 100.598 71.2328Z" fill="#263238"/>
<path d="M105.048 82.585C107.378 81.2743 117.113 76.2357 119.29 75.3036C119.443 75.2381 119.523 75.3036 119.37 75.4056C114.749 78.0907 109.985 80.5214 105.098 82.6869C105.04 82.7015 104.982 82.6214 105.048 82.585Z" fill="#263238"/>
<path d="M371.857 274.011H150.01L182.084 92.0869H403.931L371.857 274.011Z" fill="#CACACA"/>
<path d="M258.013 73.2422H185.411L182.083 92.0862H259.782L258.013 73.2422Z" fill="#CACACA"/>
<g opacity="0.1">
<path d="M371.857 274.011H150.01L182.084 92.0869H403.931L371.857 274.011Z" fill="black"/>
<path d="M258.014 73.2422H185.412L182.084 92.0862H259.783L258.014 73.2422Z" fill="black"/>
</g>
<path d="M177.577 80.9314C177.092 78.8478 177.092 76.6804 177.577 74.5967C178.062 76.6804 178.062 78.8478 177.577 80.9314Z" fill="#263238"/>
<path d="M171.125 82.7959C170.383 82.0271 169.745 81.1656 169.224 80.2328C168.679 79.3195 168.251 78.3409 167.95 77.3203C168.694 78.0846 169.333 78.9439 169.851 79.8761C170.395 80.7926 170.823 81.7734 171.125 82.7959Z" fill="#263238"/>
<path d="M166.465 87.6381C164.419 87.016 162.543 85.9324 160.982 84.4707C162.003 84.7674 162.982 85.1932 163.895 85.7376C164.828 86.2612 165.691 86.8997 166.465 87.6381Z" fill="#263238"/>
<path d="M164.834 94.162C162.75 94.6475 160.583 94.6475 158.499 94.162C160.583 93.6765 162.75 93.6765 164.834 94.162Z" fill="#263238"/>
<path d="M166.728 100.613C165.955 101.351 165.094 101.989 164.164 102.514C163.251 103.058 162.273 103.484 161.252 103.781C162.021 103.039 162.882 102.4 163.815 101.88C164.727 101.333 165.706 100.907 166.728 100.613Z" fill="#263238"/>
<path d="M171.562 105.266C170.942 107.315 169.858 109.193 168.395 110.756C168.691 109.734 169.119 108.755 169.669 107.843C170.188 106.907 170.824 106.041 171.562 105.266Z" fill="#263238"/>
<path d="M178.086 106.875C178.34 107.911 178.462 108.975 178.45 110.042C178.466 111.109 178.343 112.174 178.086 113.21C177.825 112.175 177.702 111.11 177.722 110.042C177.71 108.975 177.832 107.911 178.086 106.875Z" fill="#263238"/>
<path d="M184.537 105.048C185.279 105.817 185.917 106.678 186.438 107.611C186.985 108.522 187.411 109.502 187.704 110.523C186.241 108.961 185.157 107.082 184.537 105.033V105.048Z" fill="#263238"/>
<path d="M189.19 100.169C190.212 100.463 191.191 100.889 192.103 101.436C193.036 101.956 193.897 102.595 194.666 103.336C193.644 103.042 192.665 102.616 191.753 102.069C190.821 101.549 189.959 100.91 189.19 100.169Z" fill="#263238"/>
<path d="M190.799 93.6452C192.885 93.1599 195.055 93.1599 197.141 93.6452C195.055 94.1306 192.885 94.1306 190.799 93.6452Z" fill="#263238"/>
<path d="M188.935 87.1937C189.706 86.4568 190.568 85.8207 191.498 85.3006C192.408 84.7483 193.388 84.3197 194.411 84.0264C192.849 85.49 190.97 86.5739 188.921 87.1937H188.935Z" fill="#263238"/>
<path d="M184.093 82.541C184.393 81.5213 184.818 80.5429 185.36 79.6284C185.88 78.6957 186.519 77.8342 187.26 77.0654C186.966 78.0872 186.54 79.0663 185.993 79.978C185.473 80.9107 184.834 81.7722 184.093 82.541Z" fill="#263238"/>
<path d="M371.529 274.011H149.209L117.637 98.6914H339.964L371.529 274.011Z" fill="#CACACA"/>
<path d="M194.68 205.865C199.784 205.865 203.92 201.728 203.92 196.625C203.92 191.522 199.784 187.385 194.68 187.385C189.577 187.385 185.44 191.522 185.44 196.625C185.44 201.728 189.577 205.865 194.68 205.865Z" fill="#263238"/>
<path d="M267.726 205.865C272.829 205.865 276.966 201.728 276.966 196.625C276.966 191.522 272.829 187.385 267.726 187.385C262.623 187.385 258.486 191.522 258.486 196.625C258.486 201.728 262.623 205.865 267.726 205.865Z" fill="#263238"/>
<path d="M244.477 207.343L243.967 206.375C243.923 206.288 239.147 197.463 229.543 197.463C220.805 197.463 218.621 205.771 218.563 206.127L218.301 207.183L216.182 206.674L216.436 205.61C216.436 205.509 219.043 195.278 229.543 195.278C240.465 195.278 245.686 204.948 245.904 205.363L246.414 206.324L244.477 207.343Z" fill="#263238"/>
<path d="M356.85 195.919L356.697 195.19C357.171 195.088 357.637 194.979 358.103 194.855L358.285 195.584C357.789 195.707 357.331 195.817 356.85 195.919Z" fill="#263238"/>
<path d="M361.103 194.747L360.87 194.062C361.78 193.749 362.69 193.407 363.571 193.036L363.855 193.706C362.959 194.084 362.035 194.434 361.103 194.747ZM366.527 192.424L366.2 191.783C367.051 191.339 367.903 190.859 368.712 190.327L369.09 190.946C368.26 191.521 367.394 192.009 366.527 192.424ZM371.537 189.344L371.107 188.754C371.894 188.179 372.651 187.575 373.364 186.956L373.845 187.502C373.08 188.165 372.352 188.784 371.529 189.373L371.537 189.344ZM375.978 185.471L375.447 184.968C376.117 184.24 376.75 183.512 377.333 182.784L377.908 183.228C377.304 184.029 376.656 184.779 375.993 185.5L375.978 185.471ZM379.583 180.81L378.964 180.425C379.467 179.611 379.915 178.765 380.303 177.891L380.973 178.189C380.562 179.1 380.095 179.985 379.575 180.84L379.583 180.81ZM381.993 175.408L381.265 175.204C381.531 174.29 381.728 173.358 381.854 172.415L382.582 172.51C382.462 173.5 382.262 174.479 381.985 175.437L381.993 175.408ZM382.801 169.583H382.073V169.372C382.073 168.491 382.022 167.595 381.934 166.714L382.663 166.641C382.758 167.548 382.807 168.459 382.808 169.372L382.801 169.583ZM381.49 163.881C381.294 162.943 381.051 162.014 380.762 161.1L381.49 160.882C381.789 161.828 382.044 162.789 382.218 163.729L381.49 163.881ZM379.765 158.399C379.415 157.539 379.036 156.658 378.57 155.77L379.226 155.442C379.67 156.345 380.078 157.248 380.435 158.122L379.765 158.399ZM377.216 153.207C376.765 152.413 376.27 151.576 375.76 150.717L376.379 150.331C376.91 151.197 377.413 152.042 377.835 152.85L377.216 153.207ZM374.173 148.263C373.641 147.462 373.102 146.654 372.549 145.846L373.153 145.438C373.707 146.246 374.245 147.054 374.777 147.87L374.173 148.263ZM370.896 143.443C370.35 142.642 369.797 141.834 369.258 141.033L369.862 140.625C370.401 141.426 370.947 142.234 371.493 143.028L370.896 143.443ZM367.641 138.593C367.11 137.778 366.593 136.948 366.083 136.118L366.702 135.739C367.212 136.569 367.729 137.385 368.253 138.2L367.641 138.593ZM364.605 133.591C364.11 132.71 363.651 131.836 363.236 130.999L363.891 130.671C364.299 131.501 364.758 132.361 365.238 133.234L364.605 133.591ZM362.02 128.349C361.634 127.438 361.292 126.514 360.972 125.611L361.7 125.378C362.006 126.259 362.348 127.169 362.726 128.065L362.02 128.349ZM360.127 122.793C359.887 121.846 359.675 120.878 359.515 119.88L360.243 119.764C360.404 120.696 360.6 121.643 360.841 122.575L360.127 122.793ZM359.151 116.968C359.078 116.072 359.042 115.169 359.042 114.267V114.026H359.77V114.259C359.77 115.14 359.77 116.029 359.879 116.902L359.151 116.968ZM359.879 111.143L359.151 111.07C359.151 110.873 359.188 110.67 359.209 110.458C359.297 109.679 359.406 108.9 359.537 108.158L360.265 108.281C360.142 109.009 360.032 109.774 359.945 110.539C359.974 110.764 359.974 110.961 359.916 111.165L359.879 111.143ZM360.891 105.478L360.163 105.281C360.433 104.32 360.746 103.381 361.095 102.485L361.772 102.748C361.442 103.649 361.16 104.568 360.928 105.5L360.891 105.478ZM397.174 101.233C396.767 101.233 396.344 101.175 395.929 101.117C395.361 101.036 394.793 100.942 394.233 100.833L394.378 100.104C394.917 100.206 395.478 100.301 396.031 100.381C396.424 100.432 396.825 100.468 397.211 100.49L397.174 101.233ZM400.167 101.007L400.014 100.279C400.928 100.09 401.804 99.7509 402.606 99.2743L402.985 99.8932C402.127 100.424 401.187 100.808 400.203 101.029L400.167 101.007ZM362.988 100.141L362.34 99.7986C362.804 98.9302 363.317 98.0891 363.877 97.2793L364.474 97.6943C363.942 98.4872 363.458 99.3115 363.025 100.163L362.988 100.141ZM391.386 100.097C390.446 99.7989 389.522 99.4514 388.619 99.0559L388.917 98.386C389.793 98.7749 390.69 99.1129 391.604 99.3981L391.386 100.097ZM405.22 97.8253L404.616 97.4176C405.134 96.6655 405.441 95.7878 405.504 94.8764L406.232 94.9274C406.17 95.9719 405.828 96.9805 405.242 97.8472L405.22 97.8253ZM385.997 97.7161C385.145 97.2208 384.321 96.6788 383.529 96.0924L383.959 95.5099C384.73 96.0785 385.532 96.6036 386.362 97.0826L385.997 97.7161ZM366.265 95.4444L365.726 94.9565C366.386 94.2233 367.088 93.5303 367.831 92.8813L368.311 93.4274C367.597 94.0665 366.921 94.7473 366.287 95.4662L366.265 95.4444ZM381.257 94.2138C380.532 93.5458 379.844 92.8384 379.197 92.095L379.743 91.6144C380.373 92.3365 381.041 93.0244 381.745 93.675L381.257 94.2138ZM404.958 92.2406C404.541 91.4085 403.964 90.6663 403.261 90.0562L403.742 89.5101C404.516 90.1793 405.151 90.993 405.613 91.9056L404.958 92.2406ZM370.576 91.6654L370.161 91.0683C370.975 90.5122 371.819 89.9993 372.687 89.5319L373.029 90.1727C372.193 90.6349 371.381 91.1404 370.597 91.6872L370.576 91.6654ZM377.376 89.7722C377.1 89.379 376.83 88.9785 376.575 88.5635L375.629 88.9349L375.352 88.265L376.19 87.93C376.058 87.7116 375.927 87.4932 375.804 87.2747L376.437 86.9179C376.583 87.1728 376.728 87.4276 376.881 87.6461C377.289 87.5004 377.704 87.3621 378.126 87.231L378.337 87.9592C377.981 88.0684 377.609 88.1849 377.274 88.3087C377.5 88.6655 377.733 89.0368 378.003 89.3499L377.376 89.7722ZM400.917 88.5198C400.212 88.1687 399.482 87.8717 398.732 87.6315L398.252 87.4786L398.463 86.7505L398.958 86.9107C399.738 87.1593 400.498 87.4685 401.23 87.8354L400.917 88.5198ZM381.126 87.2165L380.973 86.4883C381.913 86.2772 382.888 86.1024 383.886 85.9641L383.995 86.6922C383.034 86.8451 382.08 87.0272 381.148 87.2383L381.126 87.2165ZM395.47 86.8233C394.56 86.6631 393.599 86.5393 392.616 86.4519L392.674 85.7238C393.686 85.8112 394.669 85.935 395.587 86.1024L395.47 86.8233ZM386.842 86.401L386.791 85.6728C387.658 85.6219 388.524 85.5927 389.383 85.5927H389.74V86.3209H389.391C388.568 86.3427 387.709 86.3646 386.864 86.4228L386.842 86.401ZM374.537 84.6607C374.143 83.7724 373.809 82.8477 373.481 81.9084L374.209 81.6827C374.515 82.6001 374.857 83.503 375.236 84.3695L374.537 84.6607ZM372.694 79.0687C372.476 78.1294 372.294 77.1537 372.156 76.1562L372.884 76.0542C373.022 77.0153 373.197 77.9692 373.408 78.8939L372.694 79.0687ZM371.879 73.2436C371.843 72.5883 371.821 71.9184 371.821 71.2486C371.821 70.9355 371.821 70.6151 371.821 70.302H372.549C372.549 70.6151 372.549 70.9209 372.549 71.234C372.549 71.8893 372.549 72.5519 372.6 73.1854L371.879 73.2436ZM372.745 67.4186L372.017 67.3458C372.119 66.3846 372.258 65.4017 372.425 64.4332L373.153 64.557C372.957 65.5254 372.818 66.4574 372.724 67.4331L372.745 67.4186ZM373.743 61.7319L373.015 61.5571C373.248 60.6178 373.517 59.6713 373.816 58.7247L374.544 58.9504C374.216 59.9043 373.947 60.829 373.721 61.7464L373.743 61.7319ZM375.491 56.2199L374.813 55.9578C375.17 55.0476 375.541 54.1375 375.986 53.2564L376.641 53.5768C376.204 54.4506 375.818 55.3389 375.469 56.2636L375.491 56.2199ZM377.995 51.0283L377.362 50.657C377.857 49.8196 378.388 48.9823 378.942 48.1813L379.539 48.5964C378.971 49.3973 378.454 50.2128 377.973 51.0429L377.995 51.0283ZM381.279 46.2882L380.711 45.8295C381.323 45.1013 381.978 44.3295 382.655 43.6451L383.18 44.1475C382.495 44.8319 381.854 45.5601 381.257 46.3028L381.279 46.2882ZM385.24 42.0942L384.752 41.5553C385.48 40.9073 386.209 40.2666 386.988 39.6476L387.439 40.2229C386.66 40.8418 385.917 41.4752 385.218 42.1087L385.24 42.0942ZM389.762 38.4972L389.347 37.8928C390.141 37.3467 390.971 36.8079 391.815 36.2982L392.187 36.9171C391.342 37.4341 390.556 37.9657 389.74 38.5118L389.762 38.4972ZM394.706 35.49L394.364 34.8492C395.223 34.3905 396.111 33.9537 396.999 33.5459L397.305 34.2085C396.381 34.6235 395.529 35.0604 394.684 35.5046L394.706 35.49ZM399.97 33.0726L399.701 32.3882C400.618 32.0314 401.543 31.66 402.46 31.3906L402.693 32.1188C401.769 32.3954 400.851 32.7304 399.948 33.0872L399.97 33.0726Z" fill="#263238"/>
<path d="M405.584 31.2301L405.402 30.5019C406.305 30.2689 406.859 30.167 406.859 30.167L406.99 30.8951C406.99 30.8951 406.465 31.0043 405.584 31.2301Z" fill="#263238"/>
<path d="M418.457 26.5268C416.6 20.7746 404.164 22.8424 406.589 30.364C409.013 37.8856 420.314 32.2863 418.457 26.5268Z" fill="#263238"/>
<path d="M399.824 24.2255C399.919 21.6989 403.428 19.7548 408.394 20.6504C413.36 21.546 418.028 24.8954 418.028 24.8954C418.028 24.8954 413.127 27.8661 408.11 28.4122C403.094 28.9583 399.73 26.7448 399.824 24.2255Z" fill="#EBEBEB"/>
<path d="M418.027 24.8804C415.45 24.8804 412.879 24.8076 410.309 24.7275C407.739 24.6474 405.161 24.5164 402.591 24.3125C405.168 24.3125 407.746 24.378 410.316 24.4581C412.887 24.5382 415.464 24.6693 418.027 24.8804Z" fill="#263238"/>
<path d="M404.812 21.9756C406.276 22.6756 407.656 23.5378 408.926 24.5459C408.194 24.2023 407.484 23.8132 406.8 23.3809C406.111 22.9516 405.447 22.4823 404.812 21.9756Z" fill="#263238"/>
<path d="M411.561 24.6406C410.244 25.7081 408.816 26.6309 407.302 27.393C408.626 26.3241 410.061 25.4013 411.583 24.6406H411.561Z" fill="#263238"/>
<path d="M412.312 23.2207C413.046 23.5735 413.689 24.0919 414.19 24.7352C413.823 24.5618 413.478 24.3442 413.163 24.0872C412.847 23.8318 412.562 23.5411 412.312 23.2207Z" fill="#263238"/>
<path d="M404.558 39.1894C406.109 41.1845 410.091 40.7039 413.594 37.0778C417.096 33.4518 418.953 27.998 418.953 27.998C418.953 27.998 413.215 28.4349 408.839 30.9106C404.463 33.3862 402.999 37.1871 404.558 39.1894Z" fill="#EBEBEB"/>
<path d="M418.953 27.998C416.856 29.4543 414.817 31.0708 412.771 32.6362C410.725 34.2017 408.722 35.8182 406.764 37.4856C408.861 36.0293 410.899 34.4202 412.938 32.8547C414.977 31.2892 416.965 29.6727 418.953 27.998Z" fill="#263238"/>
<path d="M409.909 38.0605C410.298 37.3532 410.646 36.6238 410.95 35.8761C411.26 35.1263 411.523 34.3578 411.737 33.5752C411.346 34.2819 410.999 35.0113 410.696 35.7596C410.389 36.5105 410.126 37.2788 409.909 38.0605Z" fill="#263238"/>
<path d="M413.856 31.9728C412.152 31.8817 410.443 31.972 408.759 32.2422C409.608 32.2932 410.459 32.2932 411.307 32.2422C412.161 32.2006 413.012 32.1106 413.856 31.9728Z" fill="#263238"/>
<path d="M415.261 32.6928C415.455 32.3332 415.607 31.9519 415.712 31.5569C415.82 31.1647 415.883 30.7618 415.902 30.3555C415.514 31.0763 415.295 31.8753 415.261 32.6928Z" fill="#263238"/>
<path d="M418.458 26.5267C418.046 26.6602 417.605 26.6687 417.189 26.5511C416.773 26.4334 416.401 26.195 416.121 25.866C415.84 25.5369 415.664 25.132 415.613 24.7026C415.563 24.2731 415.642 23.8385 415.839 23.4536C416.036 23.0688 416.342 22.751 416.72 22.5407C417.098 22.3303 417.53 22.2367 417.96 22.2719C418.391 22.307 418.802 22.4692 419.141 22.7379C419.48 23.0067 419.731 23.3699 419.863 23.7816C420.04 24.332 419.991 24.9299 419.727 25.4445C419.464 25.959 419.007 26.3481 418.458 26.5267Z" fill="#455A64"/>
<path d="M419.797 30.6836C419.386 30.8166 418.945 30.8247 418.53 30.707C418.114 30.5893 417.743 30.351 417.462 30.0222C417.182 29.6935 417.006 29.289 416.955 28.86C416.905 28.431 416.983 27.9967 417.179 27.612C417.376 27.2272 417.682 26.9094 418.059 26.6986C418.436 26.4878 418.867 26.3936 419.298 26.4277C419.728 26.4619 420.139 26.623 420.478 26.8906C420.817 27.1582 421.069 27.5204 421.203 27.9313C421.291 28.2042 421.325 28.492 421.302 28.7781C421.28 29.0642 421.201 29.343 421.07 29.5986C420.94 29.8542 420.76 30.0816 420.542 30.2678C420.323 30.4539 420.07 30.5952 419.797 30.6836Z" fill="#455A64"/>
<path d="M181.078 28.8264C180.729 32.1708 179.458 35.3525 177.406 38.0164C175.354 40.6803 172.602 42.7216 169.457 43.9125C166.313 45.1034 162.899 45.3971 159.597 44.7608C156.295 44.1245 153.235 42.5833 150.759 40.309L141.679 41.6415L146.222 33.7922C145.183 31.2382 144.74 28.481 144.926 25.73C145.112 22.979 145.923 20.3066 147.296 17.9158C148.67 15.525 150.57 13.4787 152.853 11.9322C155.136 10.3857 157.741 9.37986 160.47 8.99096C163.2 8.60207 165.983 8.84038 168.606 9.6878C171.23 10.5352 173.626 11.9695 175.613 13.8816C177.599 15.7937 179.124 18.1334 180.071 20.7229C181.018 23.3125 181.362 26.0838 181.078 28.8264Z" fill="white"/>
<path d="M181.078 28.8262C180.737 32.1689 179.477 35.3518 177.438 38.0225C176.441 39.3732 175.24 40.5599 173.877 41.5394C172.544 42.5556 171.073 43.377 169.508 43.9786C167.943 44.5952 166.298 44.9874 164.623 45.1436C163.785 45.2188 162.943 45.2358 162.103 45.1946C161.26 45.173 160.42 45.0853 159.591 44.9325C156.245 44.3168 153.136 42.7813 150.613 40.4982L150.825 40.5637L141.759 41.9544L141.097 42.0564L141.432 41.4739L145.946 33.61V33.9231C144.881 31.322 144.428 28.5107 144.622 25.7066C144.817 22.9025 145.653 20.1806 147.067 17.7513C148.48 15.3297 150.421 13.2587 152.747 11.6933C155.069 10.1486 157.71 9.14966 160.473 8.77136C163.236 8.39305 166.049 8.64519 168.7 9.50889C171.324 10.4014 173.714 11.8692 175.698 13.8049C177.676 15.7357 179.189 18.0918 180.121 20.6946C181.054 23.2973 181.381 26.0782 181.078 28.8262ZM181.078 28.8262C181.373 26.0917 181.035 23.3261 180.09 20.7431C179.146 18.16 177.62 15.8285 175.632 13.9286C173.643 12.0286 171.245 10.6111 168.621 9.78548C165.998 8.95982 163.22 8.7481 160.501 9.16667C157.81 9.56498 155.247 10.5764 153.009 12.1229C150.79 13.6815 148.937 15.7039 147.577 18.0499C146.238 20.4011 145.449 23.0248 145.269 25.7244C145.092 28.4422 145.53 31.165 146.55 33.6901L146.616 33.8503L146.529 34.0032L141.956 41.8379L141.636 41.3574L150.723 40.0831H150.846L150.934 40.1632C153.363 42.4241 156.373 43.9645 159.628 44.6121C160.439 44.7773 161.262 44.8772 162.089 44.9106C162.915 44.9689 163.745 44.9689 164.572 44.9106C166.229 44.7771 167.861 44.4169 169.421 43.8403C170.984 43.2711 172.456 42.4763 173.79 41.4811C175.147 40.5095 176.35 39.3386 177.358 38.008C179.423 35.3502 180.711 32.1719 181.078 28.8262Z" fill="#263238"/>
<path d="M154.159 35.4008C154.145 35.1597 154.181 34.9183 154.264 34.6916C154.347 34.465 154.476 34.2578 154.643 34.083C154.809 33.9082 155.01 33.7695 155.233 33.6756C155.455 33.5816 155.694 33.5343 155.936 33.5367C156.43 33.5367 156.904 33.7331 157.254 34.0827C157.603 34.4323 157.8 34.9064 157.8 35.4008C157.8 35.8951 157.603 36.3692 157.254 36.7188C156.904 37.0684 156.43 37.2648 155.936 37.2648C155.694 37.2672 155.455 37.2199 155.233 37.1259C155.01 37.032 154.809 36.8933 154.643 36.7185C154.476 36.5437 154.347 36.3365 154.264 36.1099C154.181 35.8832 154.145 35.6418 154.159 35.4008ZM154.887 31.0975L154.465 16.6514H157.378L156.955 31.0975H154.887Z" fill="#CACACA"/>
<path d="M161.084 35.4008C161.07 35.1603 161.106 34.9196 161.188 34.6934C161.271 34.4672 161.399 34.2604 161.565 34.0857C161.731 33.911 161.931 33.7722 162.152 33.6777C162.374 33.5833 162.613 33.5353 162.853 33.5367C163.348 33.5367 163.822 33.7331 164.171 34.0827C164.521 34.4323 164.717 34.9064 164.717 35.4008C164.717 35.8951 164.521 36.3692 164.171 36.7188C163.822 37.0684 163.348 37.2648 162.853 37.2648C162.613 37.2662 162.374 37.2182 162.152 37.1238C161.931 37.0294 161.731 36.8905 161.565 36.7158C161.399 36.5411 161.271 36.3343 161.188 36.1081C161.106 35.882 161.07 35.6412 161.084 35.4008ZM161.812 31.0975L161.412 16.6514H164.324L163.902 31.0975H161.812Z" fill="#CACACA"/>
<path d="M168.001 35.4008C167.987 35.1597 168.023 34.9183 168.106 34.6916C168.189 34.465 168.318 34.2578 168.485 34.083C168.651 33.9082 168.852 33.7695 169.074 33.6756C169.297 33.5816 169.536 33.5343 169.778 33.5367C170.272 33.5367 170.746 33.7331 171.096 34.0827C171.445 34.4323 171.642 34.9064 171.642 35.4008C171.642 35.8951 171.445 36.3692 171.096 36.7188C170.746 37.0684 170.272 37.2648 169.778 37.2648C169.536 37.2672 169.297 37.2199 169.074 37.1259C168.852 37.032 168.651 36.8933 168.485 36.7185C168.318 36.5437 168.189 36.3365 168.106 36.1099C168.023 35.8832 167.987 35.6418 168.001 35.4008ZM168.729 31.0975L168.307 16.6514H171.219L170.804 31.0975H168.729Z" fill="#CACACA"/>
<path d="M86.703 349.967V338.33H90.7712C91.5818 338.33 92.2504 338.471 92.7769 338.751C93.3034 339.027 93.6955 339.401 93.953 339.87C94.2106 340.336 94.3394 340.853 94.3394 341.421C94.3394 341.921 94.2504 342.334 94.0724 342.66C93.8981 342.986 93.6671 343.243 93.3792 343.433C93.0951 343.622 92.7864 343.762 92.453 343.853V343.967C92.8091 343.99 93.1671 344.115 93.5269 344.342C93.8867 344.569 94.1879 344.895 94.4303 345.319C94.6727 345.743 94.7939 346.262 94.7939 346.876C94.7939 347.459 94.6614 347.984 94.3962 348.45C94.1311 348.916 93.7125 349.285 93.1405 349.558C92.5686 349.83 91.8242 349.967 90.9076 349.967H86.703ZM88.1121 348.717H90.9076C91.828 348.717 92.4814 348.539 92.8678 348.183C93.258 347.823 93.453 347.387 93.453 346.876C93.453 346.482 93.3527 346.118 93.1519 345.785C92.9511 345.448 92.6652 345.179 92.2939 344.978C91.9227 344.774 91.4833 344.671 90.9758 344.671H88.1121V348.717ZM88.1121 343.444H90.7258C91.15 343.444 91.5326 343.361 91.8735 343.194C92.2182 343.027 92.4909 342.793 92.6917 342.49C92.8962 342.186 92.9985 341.83 92.9985 341.421C92.9985 340.91 92.8205 340.476 92.4644 340.12C92.1083 339.76 91.5439 339.58 90.7712 339.58H88.1121V343.444ZM100.587 350.149C99.7456 350.149 99.0203 349.963 98.4104 349.592C97.8044 349.217 97.3366 348.694 97.007 348.024C96.6813 347.349 96.5184 346.565 96.5184 345.671C96.5184 344.777 96.6813 343.99 97.007 343.308C97.3366 342.622 97.7949 342.088 98.382 341.705C98.9729 341.319 99.6623 341.126 100.45 341.126C100.905 341.126 101.354 341.202 101.797 341.353C102.24 341.505 102.643 341.751 103.007 342.092C103.371 342.429 103.66 342.876 103.876 343.433C104.092 343.99 104.2 344.675 104.2 345.49V346.058H97.4729V344.899H102.837C102.837 344.406 102.738 343.967 102.541 343.58C102.348 343.194 102.071 342.889 101.712 342.666C101.355 342.442 100.935 342.33 100.45 342.33C99.9161 342.33 99.454 342.463 99.0638 342.728C98.6775 342.99 98.3801 343.33 98.1718 343.751C97.9635 344.171 97.8593 344.622 97.8593 345.103V345.876C97.8593 346.535 97.9729 347.094 98.2002 347.552C98.4313 348.007 98.7513 348.353 99.1604 348.592C99.5695 348.827 100.045 348.944 100.587 348.944C100.939 348.944 101.257 348.895 101.541 348.796C101.829 348.694 102.077 348.543 102.285 348.342C102.494 348.137 102.655 347.883 102.768 347.58L104.064 347.944C103.927 348.383 103.698 348.77 103.376 349.103C103.054 349.433 102.657 349.69 102.183 349.876C101.71 350.058 101.177 350.149 100.587 350.149ZM107.581 338.33V349.967H106.24V338.33H107.581ZM115.537 346.399V341.24H116.878V349.967H115.537V348.49H115.446C115.241 348.933 114.923 349.31 114.491 349.62C114.06 349.927 113.514 350.08 112.855 350.08C112.31 350.08 111.825 349.961 111.4 349.722C110.976 349.48 110.643 349.116 110.4 348.632C110.158 348.143 110.037 347.527 110.037 346.785V341.24H111.378V346.694C111.378 347.33 111.556 347.838 111.912 348.217C112.272 348.596 112.73 348.785 113.287 348.785C113.62 348.785 113.959 348.7 114.304 348.529C114.652 348.359 114.944 348.097 115.179 347.745C115.418 347.393 115.537 346.944 115.537 346.399ZM119.334 349.967V341.24H120.629V342.603H120.743C120.925 342.137 121.218 341.776 121.623 341.518C122.029 341.257 122.516 341.126 123.084 341.126C123.659 341.126 124.139 341.257 124.521 341.518C124.908 341.776 125.209 342.137 125.425 342.603H125.516C125.739 342.152 126.074 341.794 126.521 341.529C126.968 341.26 127.504 341.126 128.129 341.126C128.909 341.126 129.548 341.37 130.044 341.859C130.54 342.344 130.788 343.099 130.788 344.126V349.967H129.447V344.126C129.447 343.482 129.271 343.022 128.919 342.745C128.567 342.469 128.152 342.33 127.675 342.33C127.061 342.33 126.586 342.516 126.248 342.887C125.911 343.255 125.743 343.721 125.743 344.285V349.967H124.379V343.99C124.379 343.493 124.218 343.094 123.896 342.791C123.574 342.484 123.159 342.33 122.652 342.33C122.303 342.33 121.978 342.423 121.675 342.609C121.375 342.794 121.133 343.052 120.947 343.382C120.766 343.707 120.675 344.084 120.675 344.512V349.967H119.334ZM140.308 350.171C139.755 350.171 139.253 350.067 138.802 349.859C138.352 349.647 137.994 349.342 137.729 348.944C137.463 348.543 137.331 348.058 137.331 347.49C137.331 346.99 137.429 346.584 137.626 346.274C137.823 345.959 138.087 345.713 138.416 345.535C138.746 345.357 139.109 345.224 139.507 345.137C139.909 345.046 140.312 344.974 140.717 344.921C141.248 344.853 141.677 344.802 142.007 344.768C142.34 344.73 142.583 344.668 142.734 344.58C142.89 344.493 142.967 344.342 142.967 344.126V344.08C142.967 343.52 142.814 343.084 142.507 342.774C142.204 342.463 141.744 342.308 141.126 342.308C140.486 342.308 139.984 342.448 139.621 342.728C139.257 343.008 139.001 343.308 138.854 343.626L137.581 343.171C137.808 342.641 138.111 342.228 138.49 341.933C138.873 341.633 139.289 341.425 139.74 341.308C140.195 341.186 140.641 341.126 141.081 341.126C141.361 341.126 141.683 341.16 142.047 341.228C142.414 341.293 142.768 341.427 143.109 341.632C143.454 341.836 143.74 342.145 143.967 342.558C144.195 342.971 144.308 343.524 144.308 344.217V349.967H142.967V348.785H142.899C142.808 348.974 142.657 349.177 142.445 349.393C142.232 349.609 141.95 349.793 141.598 349.944C141.246 350.096 140.816 350.171 140.308 350.171ZM140.513 348.967C141.043 348.967 141.49 348.863 141.854 348.654C142.221 348.446 142.498 348.177 142.683 347.847C142.873 347.518 142.967 347.171 142.967 346.808V345.58C142.91 345.649 142.785 345.711 142.592 345.768C142.403 345.821 142.183 345.868 141.933 345.91C141.687 345.948 141.446 345.982 141.212 346.012C140.98 346.039 140.793 346.061 140.649 346.08C140.301 346.126 139.975 346.2 139.672 346.302C139.373 346.401 139.13 346.55 138.945 346.751C138.763 346.948 138.672 347.217 138.672 347.558C138.672 348.024 138.844 348.376 139.189 348.615C139.537 348.849 139.979 348.967 140.513 348.967ZM150.051 350.149C149.324 350.149 148.682 349.965 148.125 349.597C147.568 349.226 147.132 348.704 146.818 348.029C146.504 347.351 146.347 346.55 146.347 345.626C146.347 344.709 146.504 343.914 146.818 343.24C147.132 342.565 147.57 342.044 148.131 341.677C148.691 341.31 149.339 341.126 150.074 341.126C150.642 341.126 151.091 341.221 151.42 341.41C151.754 341.596 152.007 341.808 152.182 342.046C152.36 342.281 152.498 342.474 152.597 342.626H152.71V338.33H154.051V349.967H152.756V348.626H152.597C152.498 348.785 152.358 348.986 152.176 349.228C151.994 349.467 151.735 349.681 151.398 349.87C151.061 350.056 150.612 350.149 150.051 350.149ZM150.233 348.944C150.771 348.944 151.225 348.804 151.597 348.524C151.968 348.24 152.25 347.847 152.443 347.347C152.636 346.844 152.733 346.262 152.733 345.603C152.733 344.952 152.638 344.382 152.449 343.893C152.259 343.401 151.979 343.018 151.608 342.745C151.237 342.469 150.778 342.33 150.233 342.33C149.665 342.33 149.191 342.476 148.812 342.768C148.437 343.056 148.155 343.448 147.966 343.944C147.78 344.436 147.687 344.99 147.687 345.603C147.687 346.224 147.782 346.789 147.972 347.296C148.165 347.8 148.449 348.202 148.824 348.501C149.203 348.796 149.672 348.944 150.233 348.944ZM159.261 350.171C158.708 350.171 158.206 350.067 157.756 349.859C157.305 349.647 156.947 349.342 156.682 348.944C156.417 348.543 156.284 348.058 156.284 347.49C156.284 346.99 156.382 346.584 156.579 346.274C156.776 345.959 157.04 345.713 157.369 345.535C157.699 345.357 158.062 345.224 158.46 345.137C158.862 345.046 159.265 344.974 159.67 344.921C160.201 344.853 160.631 344.802 160.96 344.768C161.293 344.73 161.536 344.668 161.687 344.58C161.843 344.493 161.92 344.342 161.92 344.126V344.08C161.92 343.52 161.767 343.084 161.46 342.774C161.157 342.463 160.697 342.308 160.079 342.308C159.439 342.308 158.937 342.448 158.574 342.728C158.21 343.008 157.954 343.308 157.807 343.626L156.534 343.171C156.761 342.641 157.064 342.228 157.443 341.933C157.826 341.633 158.242 341.425 158.693 341.308C159.148 341.186 159.595 341.126 160.034 341.126C160.314 341.126 160.636 341.16 161 341.228C161.367 341.293 161.722 341.427 162.062 341.632C162.407 341.836 162.693 342.145 162.92 342.558C163.148 342.971 163.261 343.524 163.261 344.217V349.967H161.92V348.785H161.852C161.761 348.974 161.61 349.177 161.398 349.393C161.186 349.609 160.903 349.793 160.551 349.944C160.199 350.096 159.769 350.171 159.261 350.171ZM159.466 348.967C159.996 348.967 160.443 348.863 160.807 348.654C161.174 348.446 161.451 348.177 161.636 347.847C161.826 347.518 161.92 347.171 161.92 346.808V345.58C161.864 345.649 161.739 345.711 161.545 345.768C161.356 345.821 161.136 345.868 160.886 345.91C160.64 345.948 160.4 345.982 160.165 346.012C159.934 346.039 159.746 346.061 159.602 346.08C159.254 346.126 158.928 346.2 158.625 346.302C158.326 346.401 158.083 346.55 157.898 346.751C157.716 346.948 157.625 347.217 157.625 347.558C157.625 348.024 157.797 348.376 158.142 348.615C158.49 348.849 158.932 348.967 159.466 348.967ZM170.868 338.33L174.322 348.126H174.459L177.913 338.33H179.391L175.118 349.967H173.663L169.391 338.33H170.868ZM183.868 350.149C183.027 350.149 182.302 349.963 181.692 349.592C181.086 349.217 180.618 348.694 180.288 348.024C179.963 347.349 179.8 346.565 179.8 345.671C179.8 344.777 179.963 343.99 180.288 343.308C180.618 342.622 181.076 342.088 181.663 341.705C182.254 341.319 182.944 341.126 183.731 341.126C184.186 341.126 184.635 341.202 185.078 341.353C185.521 341.505 185.925 341.751 186.288 342.092C186.652 342.429 186.942 342.876 187.158 343.433C187.373 343.99 187.481 344.675 187.481 345.49V346.058H180.754V344.899H186.118C186.118 344.406 186.019 343.967 185.822 343.58C185.629 343.194 185.353 342.889 184.993 342.666C184.637 342.442 184.216 342.33 183.731 342.33C183.197 342.33 182.735 342.463 182.345 342.728C181.959 342.99 181.661 343.33 181.453 343.751C181.245 344.171 181.141 344.622 181.141 345.103V345.876C181.141 346.535 181.254 347.094 181.481 347.552C181.713 348.007 182.033 348.353 182.442 348.592C182.851 348.827 183.326 348.944 183.868 348.944C184.22 348.944 184.538 348.895 184.822 348.796C185.11 348.694 185.358 348.543 185.567 348.342C185.775 348.137 185.936 347.883 186.05 347.58L187.345 347.944C187.209 348.383 186.98 348.77 186.658 349.103C186.336 349.433 185.938 349.69 185.464 349.876C184.991 350.058 184.459 350.149 183.868 350.149ZM190.862 344.717V349.967H189.521V341.24H190.817V342.603H190.93C191.135 342.16 191.445 341.804 191.862 341.535C192.279 341.262 192.817 341.126 193.476 341.126C194.067 341.126 194.584 341.247 195.027 341.49C195.47 341.728 195.815 342.092 196.061 342.58C196.307 343.065 196.43 343.679 196.43 344.421V349.967H195.089V344.512C195.089 343.827 194.911 343.293 194.555 342.91C194.199 342.524 193.711 342.33 193.089 342.33C192.661 342.33 192.279 342.423 191.942 342.609C191.608 342.794 191.345 343.065 191.152 343.421C190.959 343.777 190.862 344.209 190.862 344.717ZM204.381 346.399V341.24H205.722V349.967H204.381V348.49H204.29C204.085 348.933 203.767 349.31 203.335 349.62C202.903 349.927 202.358 350.08 201.699 350.08C201.153 350.08 200.668 349.961 200.244 349.722C199.82 349.48 199.487 349.116 199.244 348.632C199.002 348.143 198.881 347.527 198.881 346.785V341.24H200.222V346.694C200.222 347.33 200.4 347.838 200.756 348.217C201.115 348.596 201.574 348.785 202.131 348.785C202.464 348.785 202.803 348.7 203.148 348.529C203.496 348.359 203.788 348.097 204.023 347.745C204.261 347.393 204.381 346.944 204.381 346.399ZM211.837 350.149C210.996 350.149 210.27 349.963 209.66 349.592C209.054 349.217 208.587 348.694 208.257 348.024C207.931 347.349 207.768 346.565 207.768 345.671C207.768 344.777 207.931 343.99 208.257 343.308C208.587 342.622 209.045 342.088 209.632 341.705C210.223 341.319 210.912 341.126 211.7 341.126C212.155 341.126 212.604 341.202 213.047 341.353C213.49 341.505 213.893 341.751 214.257 342.092C214.621 342.429 214.91 342.876 215.126 343.433C215.342 343.99 215.45 344.675 215.45 345.49V346.058H208.723V344.899H214.087C214.087 344.406 213.988 343.967 213.791 343.58C213.598 343.194 213.321 342.889 212.962 342.666C212.605 342.442 212.185 342.33 211.7 342.33C211.166 342.33 210.704 342.463 210.314 342.728C209.927 342.99 209.63 343.33 209.422 343.751C209.213 344.171 209.109 344.622 209.109 345.103V345.876C209.109 346.535 209.223 347.094 209.45 347.552C209.681 348.007 210.001 348.353 210.41 348.592C210.82 348.827 211.295 348.944 211.837 348.944C212.189 348.944 212.507 348.895 212.791 348.796C213.079 348.694 213.327 348.543 213.535 348.342C213.744 348.137 213.905 347.883 214.018 347.58L215.314 347.944C215.177 348.383 214.948 348.77 214.626 349.103C214.304 349.433 213.907 349.69 213.433 349.876C212.96 350.058 212.427 350.149 211.837 350.149ZM222.854 353.24C222.626 353.24 222.424 353.221 222.246 353.183C222.068 353.149 221.945 353.115 221.876 353.08L222.217 351.899C222.543 351.982 222.831 352.012 223.081 351.99C223.331 351.967 223.552 351.855 223.746 351.654C223.943 351.457 224.123 351.137 224.285 350.694L224.535 350.012L221.308 341.24H222.763L225.172 348.194H225.263L227.672 341.24H229.126L225.422 351.24C225.255 351.69 225.049 352.063 224.802 352.359C224.556 352.658 224.27 352.88 223.945 353.024C223.623 353.168 223.259 353.24 222.854 353.24ZM233.199 350.171C232.646 350.171 232.144 350.067 231.693 349.859C231.242 349.647 230.884 349.342 230.619 348.944C230.354 348.543 230.222 348.058 230.222 347.49C230.222 346.99 230.32 346.584 230.517 346.274C230.714 345.959 230.977 345.713 231.307 345.535C231.636 345.357 232 345.224 232.398 345.137C232.799 345.046 233.203 344.974 233.608 344.921C234.138 344.853 234.568 344.802 234.898 344.768C235.231 344.73 235.473 344.668 235.625 344.58C235.78 344.493 235.858 344.342 235.858 344.126V344.08C235.858 343.52 235.704 343.084 235.398 342.774C235.095 342.463 234.634 342.308 234.017 342.308C233.377 342.308 232.875 342.448 232.511 342.728C232.148 343.008 231.892 343.308 231.744 343.626L230.472 343.171C230.699 342.641 231.002 342.228 231.381 341.933C231.763 341.633 232.18 341.425 232.631 341.308C233.085 341.186 233.532 341.126 233.972 341.126C234.252 341.126 234.574 341.16 234.937 341.228C235.305 341.293 235.659 341.427 236 341.632C236.345 341.836 236.631 342.145 236.858 342.558C237.085 342.971 237.199 343.524 237.199 344.217V349.967H235.858V348.785H235.79C235.699 348.974 235.547 349.177 235.335 349.393C235.123 349.609 234.841 349.793 234.489 349.944C234.136 350.096 233.706 350.171 233.199 350.171ZM233.403 348.967C233.934 348.967 234.381 348.863 234.744 348.654C235.112 348.446 235.388 348.177 235.574 347.847C235.763 347.518 235.858 347.171 235.858 346.808V345.58C235.801 345.649 235.676 345.711 235.483 345.768C235.293 345.821 235.074 345.868 234.824 345.91C234.578 345.948 234.337 345.982 234.102 346.012C233.871 346.039 233.684 346.061 233.54 346.08C233.191 346.126 232.865 346.2 232.562 346.302C232.263 346.401 232.021 346.55 231.835 346.751C231.653 346.948 231.562 347.217 231.562 347.558C231.562 348.024 231.735 348.376 232.079 348.615C232.428 348.849 232.869 348.967 233.403 348.967ZM240.987 344.717V349.967H239.646V341.24H240.942V342.603H241.055C241.26 342.16 241.57 341.804 241.987 341.535C242.404 341.262 242.942 341.126 243.601 341.126C244.192 341.126 244.709 341.247 245.152 341.49C245.595 341.728 245.94 342.092 246.186 342.58C246.432 343.065 246.555 343.679 246.555 344.421V349.967H245.214V344.512C245.214 343.827 245.036 343.293 244.68 342.91C244.324 342.524 243.836 342.33 243.214 342.33C242.786 342.33 242.404 342.423 242.067 342.609C241.733 342.794 241.47 343.065 241.277 343.421C241.084 343.777 240.987 344.209 240.987 344.717ZM252.528 353.421C251.881 353.421 251.324 353.338 250.858 353.171C250.392 353.008 250.004 352.793 249.693 352.524C249.386 352.258 249.142 351.974 248.96 351.671L250.028 350.921C250.15 351.08 250.303 351.262 250.489 351.467C250.674 351.675 250.928 351.855 251.25 352.007C251.576 352.162 252.002 352.24 252.528 352.24C253.233 352.24 253.814 352.069 254.273 351.728C254.731 351.387 254.96 350.853 254.96 350.126V348.353H254.847C254.748 348.512 254.608 348.709 254.426 348.944C254.248 349.175 253.99 349.382 253.653 349.563C253.32 349.741 252.869 349.83 252.301 349.83C251.597 349.83 250.964 349.664 250.403 349.33C249.847 348.997 249.405 348.512 249.079 347.876C248.757 347.24 248.597 346.467 248.597 345.558C248.597 344.664 248.754 343.885 249.068 343.222C249.382 342.556 249.82 342.041 250.381 341.677C250.941 341.31 251.589 341.126 252.324 341.126C252.892 341.126 253.343 341.221 253.676 341.41C254.013 341.596 254.271 341.808 254.449 342.046C254.631 342.281 254.771 342.474 254.869 342.626H255.006V341.24H256.301V350.217C256.301 350.967 256.131 351.577 255.79 352.046C255.453 352.52 254.998 352.866 254.426 353.086C253.858 353.31 253.225 353.421 252.528 353.421ZM252.483 348.626C253.021 348.626 253.475 348.503 253.847 348.257C254.218 348.01 254.5 347.656 254.693 347.194C254.886 346.732 254.983 346.179 254.983 345.535C254.983 344.906 254.888 344.351 254.699 343.87C254.509 343.389 254.229 343.012 253.858 342.74C253.487 342.467 253.028 342.33 252.483 342.33C251.915 342.33 251.441 342.474 251.062 342.762C250.687 343.05 250.405 343.436 250.216 343.921C250.03 344.406 249.937 344.944 249.937 345.535C249.937 346.141 250.032 346.677 250.222 347.143C250.415 347.605 250.699 347.969 251.074 348.234C251.453 348.495 251.922 348.626 252.483 348.626ZM266.551 350.149C265.824 350.149 265.182 349.965 264.625 349.597C264.068 349.226 263.632 348.704 263.318 348.029C263.004 347.351 262.847 346.55 262.847 345.626C262.847 344.709 263.004 343.914 263.318 343.24C263.632 342.565 264.07 342.044 264.631 341.677C265.191 341.31 265.839 341.126 266.574 341.126C267.142 341.126 267.591 341.221 267.92 341.41C268.254 341.596 268.507 341.808 268.682 342.046C268.86 342.281 268.998 342.474 269.097 342.626H269.21V338.33H270.551V349.967H269.256V348.626H269.097C268.998 348.785 268.858 348.986 268.676 349.228C268.494 349.467 268.235 349.681 267.898 349.87C267.561 350.056 267.112 350.149 266.551 350.149ZM266.733 348.944C267.271 348.944 267.725 348.804 268.097 348.524C268.468 348.24 268.75 347.847 268.943 347.347C269.136 346.844 269.233 346.262 269.233 345.603C269.233 344.952 269.138 344.382 268.949 343.893C268.759 343.401 268.479 343.018 268.108 342.745C267.737 342.469 267.278 342.33 266.733 342.33C266.165 342.33 265.691 342.476 265.312 342.768C264.937 343.056 264.655 343.448 264.466 343.944C264.28 344.436 264.187 344.99 264.187 345.603C264.187 346.224 264.282 346.789 264.472 347.296C264.665 347.8 264.949 348.202 265.324 348.501C265.703 348.796 266.172 348.944 266.733 348.944ZM273.193 349.967V341.24H274.534V349.967H273.193ZM273.875 339.785C273.614 339.785 273.388 339.696 273.199 339.518C273.013 339.34 272.92 339.126 272.92 338.876C272.92 338.626 273.013 338.412 273.199 338.234C273.388 338.056 273.614 337.967 273.875 337.967C274.136 337.967 274.36 338.056 274.545 338.234C274.735 338.412 274.829 338.626 274.829 338.876C274.829 339.126 274.735 339.34 274.545 339.518C274.36 339.696 274.136 339.785 273.875 339.785ZM280.785 341.24V342.376H276.263V341.24H280.785ZM277.581 339.149H278.922V347.467C278.922 347.846 278.977 348.13 279.087 348.319C279.2 348.505 279.344 348.63 279.518 348.694C279.696 348.755 279.884 348.785 280.081 348.785C280.229 348.785 280.35 348.777 280.445 348.762C280.539 348.743 280.615 348.728 280.672 348.717L280.945 349.921C280.854 349.955 280.727 349.99 280.564 350.024C280.401 350.061 280.195 350.08 279.945 350.08C279.566 350.08 279.195 349.999 278.831 349.836C278.471 349.673 278.172 349.425 277.933 349.092C277.698 348.758 277.581 348.338 277.581 347.83V339.149ZM285.371 350.171C284.818 350.171 284.316 350.067 283.865 349.859C283.414 349.647 283.056 349.342 282.791 348.944C282.526 348.543 282.393 348.058 282.393 347.49C282.393 346.99 282.492 346.584 282.689 346.274C282.886 345.959 283.149 345.713 283.479 345.535C283.808 345.357 284.172 345.224 284.57 345.137C284.971 345.046 285.374 344.974 285.78 344.921C286.31 344.853 286.74 344.802 287.07 344.768C287.403 344.73 287.645 344.668 287.797 344.58C287.952 344.493 288.03 344.342 288.03 344.126V344.08C288.03 343.52 287.876 343.084 287.57 342.774C287.266 342.463 286.806 342.308 286.189 342.308C285.549 342.308 285.047 342.448 284.683 342.728C284.32 343.008 284.064 343.308 283.916 343.626L282.643 343.171C282.871 342.641 283.174 342.228 283.552 341.933C283.935 341.633 284.352 341.425 284.802 341.308C285.257 341.186 285.704 341.126 286.143 341.126C286.424 341.126 286.746 341.16 287.109 341.228C287.477 341.293 287.831 341.427 288.172 341.632C288.516 341.836 288.802 342.145 289.03 342.558C289.257 342.971 289.371 343.524 289.371 344.217V349.967H288.03V348.785H287.962C287.871 348.974 287.719 349.177 287.507 349.393C287.295 349.609 287.013 349.793 286.66 349.944C286.308 350.096 285.878 350.171 285.371 350.171ZM285.575 348.967C286.105 348.967 286.552 348.863 286.916 348.654C287.284 348.446 287.56 348.177 287.746 347.847C287.935 347.518 288.03 347.171 288.03 346.808V345.58C287.973 345.649 287.848 345.711 287.655 345.768C287.465 345.821 287.246 345.868 286.996 345.91C286.749 345.948 286.509 345.982 286.274 346.012C286.043 346.039 285.855 346.061 285.712 346.08C285.363 346.126 285.037 346.2 284.734 346.302C284.435 346.401 284.193 346.55 284.007 346.751C283.825 346.948 283.734 347.217 283.734 347.558C283.734 348.024 283.907 348.376 284.251 348.615C284.6 348.849 285.041 348.967 285.575 348.967ZM291.818 349.967V341.24H293.114V342.603H293.227C293.409 342.137 293.703 341.776 294.108 341.518C294.513 341.257 295 341.126 295.568 341.126C296.144 341.126 296.623 341.257 297.006 341.518C297.392 341.776 297.693 342.137 297.909 342.603H298C298.223 342.152 298.559 341.794 299.006 341.529C299.453 341.26 299.989 341.126 300.614 341.126C301.394 341.126 302.032 341.37 302.528 341.859C303.025 342.344 303.273 343.099 303.273 344.126V349.967H301.932V344.126C301.932 343.482 301.756 343.022 301.403 342.745C301.051 342.469 300.636 342.33 300.159 342.33C299.545 342.33 299.07 342.516 298.733 342.887C298.396 343.255 298.227 343.721 298.227 344.285V349.967H296.864V343.99C296.864 343.493 296.703 343.094 296.381 342.791C296.059 342.484 295.644 342.33 295.136 342.33C294.788 342.33 294.462 342.423 294.159 342.609C293.86 342.794 293.617 343.052 293.432 343.382C293.25 343.707 293.159 344.084 293.159 344.512V349.967H291.818ZM305.906 349.967V338.33H307.247V342.626H307.361C307.459 342.474 307.596 342.281 307.77 342.046C307.948 341.808 308.202 341.596 308.531 341.41C308.864 341.221 309.315 341.126 309.883 341.126C310.618 341.126 311.266 341.31 311.827 341.677C312.387 342.044 312.825 342.565 313.139 343.24C313.454 343.914 313.611 344.709 313.611 345.626C313.611 346.55 313.454 347.351 313.139 348.029C312.825 348.704 312.389 349.226 311.832 349.597C311.275 349.965 310.633 350.149 309.906 350.149C309.346 350.149 308.897 350.056 308.56 349.87C308.222 349.681 307.963 349.467 307.781 349.228C307.599 348.986 307.459 348.785 307.361 348.626H307.202V349.967H305.906ZM307.224 345.603C307.224 346.262 307.321 346.844 307.514 347.347C307.707 347.847 307.989 348.24 308.361 348.524C308.732 348.804 309.186 348.944 309.724 348.944C310.285 348.944 310.753 348.796 311.128 348.501C311.507 348.202 311.791 347.8 311.98 347.296C312.173 346.789 312.27 346.224 312.27 345.603C312.27 344.99 312.175 344.436 311.986 343.944C311.8 343.448 311.518 343.056 311.139 342.768C310.764 342.476 310.293 342.33 309.724 342.33C309.179 342.33 308.721 342.469 308.349 342.745C307.978 343.018 307.698 343.401 307.508 343.893C307.319 344.382 307.224 344.952 307.224 345.603ZM318.23 350.171C317.677 350.171 317.175 350.067 316.724 349.859C316.274 349.647 315.916 349.342 315.65 348.944C315.385 348.543 315.253 348.058 315.253 347.49C315.253 346.99 315.351 346.584 315.548 346.274C315.745 345.959 316.008 345.713 316.338 345.535C316.668 345.357 317.031 345.224 317.429 345.137C317.83 345.046 318.234 344.974 318.639 344.921C319.169 344.853 319.599 344.802 319.929 344.768C320.262 344.73 320.505 344.668 320.656 344.58C320.811 344.493 320.889 344.342 320.889 344.126V344.08C320.889 343.52 320.736 343.084 320.429 342.774C320.126 342.463 319.666 342.308 319.048 342.308C318.408 342.308 317.906 342.448 317.543 342.728C317.179 343.008 316.923 343.308 316.775 343.626L315.503 343.171C315.73 342.641 316.033 342.228 316.412 341.933C316.794 341.633 317.211 341.425 317.662 341.308C318.116 341.186 318.563 341.126 319.003 341.126C319.283 341.126 319.605 341.16 319.969 341.228C320.336 341.293 320.69 341.427 321.031 341.632C321.376 341.836 321.662 342.145 321.889 342.558C322.116 342.971 322.23 343.524 322.23 344.217V349.967H320.889V348.785H320.821C320.73 348.974 320.579 349.177 320.366 349.393C320.154 349.609 319.872 349.793 319.52 349.944C319.168 350.096 318.738 350.171 318.23 350.171ZM318.435 348.967C318.965 348.967 319.412 348.863 319.775 348.654C320.143 348.446 320.419 348.177 320.605 347.847C320.794 347.518 320.889 347.171 320.889 346.808V345.58C320.832 345.649 320.707 345.711 320.514 345.768C320.325 345.821 320.105 345.868 319.855 345.91C319.609 345.948 319.368 345.982 319.133 346.012C318.902 346.039 318.715 346.061 318.571 346.08C318.222 346.126 317.897 346.2 317.594 346.302C317.294 346.401 317.052 346.55 316.866 346.751C316.685 346.948 316.594 347.217 316.594 347.558C316.594 348.024 316.766 348.376 317.111 348.615C317.459 348.849 317.9 348.967 318.435 348.967ZM326.018 344.717V349.967H324.677V338.33H326.018V342.603H326.132C326.337 342.152 326.643 341.794 327.052 341.529C327.465 341.26 328.015 341.126 328.7 341.126C329.295 341.126 329.816 341.245 330.263 341.484C330.71 341.719 331.056 342.08 331.302 342.569C331.552 343.054 331.677 343.671 331.677 344.421V349.967H330.337V344.512C330.337 343.819 330.157 343.283 329.797 342.904C329.441 342.522 328.946 342.33 328.314 342.33C327.874 342.33 327.48 342.423 327.132 342.609C326.787 342.794 326.515 343.065 326.314 343.421C326.117 343.777 326.018 344.209 326.018 344.717ZM335.381 346.785L335.358 345.126H335.631L339.449 341.24H341.108L337.04 345.353H336.926L335.381 346.785ZM334.131 349.967V338.33H335.472V349.967H334.131ZM339.676 349.967L336.267 345.649L337.222 344.717L341.381 349.967H339.676ZM345.402 350.171C344.849 350.171 344.347 350.067 343.896 349.859C343.445 349.647 343.088 349.342 342.822 348.944C342.557 348.543 342.425 348.058 342.425 347.49C342.425 346.99 342.523 346.584 342.72 346.274C342.917 345.959 343.18 345.713 343.51 345.535C343.839 345.357 344.203 345.224 344.601 345.137C345.002 345.046 345.406 344.974 345.811 344.921C346.341 344.853 346.771 344.802 347.101 344.768C347.434 344.73 347.677 344.668 347.828 344.58C347.983 344.493 348.061 344.342 348.061 344.126V344.08C348.061 343.52 347.908 343.084 347.601 342.774C347.298 342.463 346.838 342.308 346.22 342.308C345.58 342.308 345.078 342.448 344.714 342.728C344.351 343.008 344.095 343.308 343.947 343.626L342.675 343.171C342.902 342.641 343.205 342.228 343.584 341.933C343.966 341.633 344.383 341.425 344.834 341.308C345.288 341.186 345.735 341.126 346.175 341.126C346.455 341.126 346.777 341.16 347.141 341.228C347.508 341.293 347.862 341.427 348.203 341.632C348.548 341.836 348.834 342.145 349.061 342.558C349.288 342.971 349.402 343.524 349.402 344.217V349.967H348.061V348.785H347.993C347.902 348.974 347.75 349.177 347.538 349.393C347.326 349.609 347.044 349.793 346.692 349.944C346.339 350.096 345.909 350.171 345.402 350.171ZM345.606 348.967C346.137 348.967 346.584 348.863 346.947 348.654C347.315 348.446 347.591 348.177 347.777 347.847C347.966 347.518 348.061 347.171 348.061 346.808V345.58C348.004 345.649 347.879 345.711 347.686 345.768C347.497 345.821 347.277 345.868 347.027 345.91C346.781 345.948 346.54 345.982 346.305 346.012C346.074 346.039 345.887 346.061 345.743 346.08C345.394 346.126 345.069 346.2 344.766 346.302C344.466 346.401 344.224 346.55 344.038 346.751C343.856 346.948 343.766 347.217 343.766 347.558C343.766 348.024 343.938 348.376 344.283 348.615C344.631 348.849 345.072 348.967 345.606 348.967ZM353.19 344.717V349.967H351.849V341.24H353.145V342.603H353.258C353.463 342.16 353.774 341.804 354.19 341.535C354.607 341.262 355.145 341.126 355.804 341.126C356.395 341.126 356.912 341.247 357.355 341.49C357.798 341.728 358.143 342.092 358.389 342.58C358.635 343.065 358.758 343.679 358.758 344.421V349.967H357.418V344.512C357.418 343.827 357.239 343.293 356.883 342.91C356.527 342.524 356.039 342.33 355.418 342.33C354.989 342.33 354.607 342.423 354.27 342.609C353.936 342.794 353.673 343.065 353.48 343.421C353.287 343.777 353.19 344.209 353.19 344.717Z" fill="#CACACA"/>
</svg>
